G04 #@! TF.GenerationSoftware,KiCad,Pcbnew,(5.0.0)*
G04 #@! TF.CreationDate,2019-02-27T16:16:10+00:00*
G04 #@! TF.ProjectId,BubbleWatch,427562626C6557617463682E6B696361,rev?*
G04 #@! TF.SameCoordinates,Original*
G04 #@! TF.FileFunction,Copper,L2,Bot,Signal*
G04 #@! TF.FilePolarity,Positive*
%FSLAX46Y46*%
G04 Gerber Fmt 4.6, Leading zero omitted, Abs format (unit mm)*
G04 Created by KiCad (PCBNEW (5.0.0)) date 02/27/19 16:16:10*
%MOMM*%
%LPD*%
G01*
G04 APERTURE LIST*
G04 #@! TA.AperFunction,SMDPad,CuDef*
%ADD10R,1.700000X0.900000*%
G04 #@! TD*
G04 #@! TA.AperFunction,SMDPad,CuDef*
%ADD11R,1.000000X2.500000*%
G04 #@! TD*
G04 #@! TA.AperFunction,ComponentPad*
%ADD12C,1.000000*%
G04 #@! TD*
G04 #@! TA.AperFunction,SMDPad,CuDef*
%ADD13R,1.000000X3.150000*%
G04 #@! TD*
G04 #@! TA.AperFunction,ViaPad*
%ADD14C,0.800000*%
G04 #@! TD*
G04 #@! TA.AperFunction,Conductor*
%ADD15C,0.203200*%
G04 #@! TD*
G04 #@! TA.AperFunction,Conductor*
%ADD16C,0.250000*%
G04 #@! TD*
G04 #@! TA.AperFunction,Conductor*
%ADD17C,0.254000*%
G04 #@! TD*
G04 APERTURE END LIST*
D10*
G04 #@! TO.P,SW3,2*
G04 #@! TO.N,/BUTTON3*
X158750000Y-83750000D03*
G04 #@! TO.P,SW3,1*
G04 #@! TO.N,GND*
X158750000Y-80350000D03*
G04 #@! TD*
G04 #@! TO.P,SW2,2*
G04 #@! TO.N,/BUTTON2*
X158750000Y-75650000D03*
G04 #@! TO.P,SW2,1*
G04 #@! TO.N,GND*
X158750000Y-72250000D03*
G04 #@! TD*
G04 #@! TO.P,SW1,1*
G04 #@! TO.N,GND*
X158750000Y-67400000D03*
G04 #@! TO.P,SW1,2*
G04 #@! TO.N,/BUTTON1*
X158750000Y-64000000D03*
G04 #@! TD*
D11*
G04 #@! TO.P,J3,10*
G04 #@! TO.N,Net-(U3-Pad17)*
X155430000Y-60975000D03*
G04 #@! TO.P,J3,9*
G04 #@! TO.N,Net-(U3-Pad16)*
X152890000Y-60975000D03*
G04 #@! TO.P,J3,8*
G04 #@! TO.N,N/C*
X150350000Y-60975000D03*
G04 #@! TO.P,J3,7*
X147810000Y-60975000D03*
G04 #@! TO.P,J3,6*
X145270000Y-60975000D03*
G04 #@! TO.P,J3,5*
G04 #@! TO.N,GND*
X142730000Y-60975000D03*
G04 #@! TO.P,J3,4*
G04 #@! TO.N,/I2C1_SDA*
X140190000Y-60975000D03*
G04 #@! TO.P,J3,3*
G04 #@! TO.N,/I2C1_SCL*
X137650000Y-60975000D03*
G04 #@! TO.P,J3,2*
G04 #@! TO.N,GND*
X135110000Y-60975000D03*
G04 #@! TO.P,J3,1*
G04 #@! TO.N,+3V3*
X132570000Y-60975000D03*
G04 #@! TD*
D10*
G04 #@! TO.P,SW4,2*
G04 #@! TO.N,/BUTTON4*
X158750000Y-88000000D03*
G04 #@! TO.P,SW4,1*
G04 #@! TO.N,GND*
X158750000Y-91400000D03*
G04 #@! TD*
D12*
G04 #@! TO.P,Y1,2*
G04 #@! TO.N,/RTC_XTAL_OUT*
X153850000Y-71500000D03*
G04 #@! TO.P,Y1,1*
G04 #@! TO.N,/RTC_XTAL_IN*
X155750000Y-71500000D03*
G04 #@! TD*
D13*
G04 #@! TO.P,J2,1*
G04 #@! TO.N,+BATT*
X142270000Y-70525000D03*
G04 #@! TO.P,J2,2*
X142270000Y-65475000D03*
G04 #@! TO.P,J2,3*
G04 #@! TO.N,GND*
X139730000Y-70525000D03*
G04 #@! TO.P,J2,4*
G04 #@! TO.N,+3V3*
X139730000Y-65475000D03*
G04 #@! TD*
D11*
G04 #@! TO.P,J3,1*
G04 #@! TO.N,+3V3*
X139670000Y-95305000D03*
G04 #@! TO.P,J3,2*
G04 #@! TO.N,/RESET*
X142210000Y-95305000D03*
G04 #@! TO.P,J3,3*
G04 #@! TO.N,/SWDIO*
X144750000Y-95305000D03*
G04 #@! TO.P,J3,4*
G04 #@! TO.N,/SWDCLK*
X147290000Y-95305000D03*
G04 #@! TO.P,J3,5*
G04 #@! TO.N,GND*
X149830000Y-95305000D03*
G04 #@! TD*
D14*
G04 #@! TO.N,*
X146000000Y-75500000D03*
X146000000Y-75500000D03*
X146250000Y-74750000D03*
X145500000Y-63750000D03*
G04 #@! TO.N,GND*
X139800000Y-71600000D03*
X148800000Y-69800000D03*
X133800000Y-60000000D03*
X155800000Y-77200000D03*
X148200000Y-77000000D03*
X148200000Y-80200000D03*
X139800000Y-75400000D03*
X152000000Y-95200000D03*
X156400000Y-91400000D03*
X156800000Y-81800000D03*
X144000000Y-60200000D03*
X117000000Y-77000000D03*
X90000000Y-76000000D03*
G04 #@! TO.N,*
X101000000Y-67000000D03*
G04 #@! TO.N,+3V3*
X139750000Y-94750000D03*
X144000000Y-72500000D03*
X139400000Y-80000000D03*
G04 #@! TO.N,/SWDCLK*
X148250000Y-84505203D03*
G04 #@! TO.N,/SWDIO*
X143250000Y-84250000D03*
G04 #@! TO.N,/SEGA*
X135800000Y-63700000D03*
X135900000Y-79100000D03*
G04 #@! TO.N,/SEGB*
X135900000Y-81500000D03*
X136500000Y-66300000D03*
G04 #@! TO.N,/SEGD*
X138990000Y-73910000D03*
X139100000Y-89400000D03*
G04 #@! TO.N,/SEGC*
X131200000Y-68900000D03*
X131300000Y-84300000D03*
G04 #@! TO.N,/SEGG*
X139050000Y-91850000D03*
X139100000Y-76400000D03*
G04 #@! TO.N,/SEGDP*
X131200000Y-73900000D03*
X131300000Y-89300000D03*
G04 #@! TO.N,/SEGF*
X135600000Y-86800000D03*
X135800000Y-71400000D03*
G04 #@! TO.N,/SEGE*
X131200000Y-66300000D03*
X131300000Y-81700000D03*
G04 #@! TO.N,/BUTTON1*
X156750000Y-64000000D03*
G04 #@! TO.N,/BUTTON2*
X157000000Y-75750000D03*
G04 #@! TO.N,/BUTTON3*
X157000000Y-83750000D03*
G04 #@! TO.N,/BUTTON4*
X150750000Y-87500000D03*
G04 #@! TO.N,Net-(U3-Pad16)*
X145250000Y-76250000D03*
G04 #@! TO.N,Net-(U3-Pad17)*
X144509161Y-76990839D03*
G04 #@! TO.N,/I2C1_SCL*
X145000000Y-80000000D03*
G04 #@! TO.N,/I2C1_SDA*
X146000000Y-79500000D03*
G04 #@! TO.N,/RESET*
X142250000Y-94750000D03*
X149200000Y-77800000D03*
G04 #@! TD*
D15*
G04 #@! TO.N,*
X148150000Y-90350000D02*
X147800000Y-90700000D01*
D16*
X150350000Y-62475000D02*
X151500000Y-63625000D01*
X150350000Y-60975000D02*
X150350000Y-62475000D01*
X151500000Y-63625000D02*
X151500000Y-70750000D01*
X151500000Y-70750000D02*
X146750000Y-75500000D01*
X146750000Y-75500000D02*
X146000000Y-75500000D01*
X146500000Y-74750000D02*
X146250000Y-74750000D01*
X150925000Y-70325000D02*
X146500000Y-74750000D01*
X150950000Y-70325000D02*
X150925000Y-70325000D01*
X150950000Y-64865000D02*
X150950000Y-70325000D01*
X147810000Y-60975000D02*
X147810000Y-61725000D01*
X147810000Y-61725000D02*
X150950000Y-64865000D01*
X145270000Y-63520000D02*
X145500000Y-63750000D01*
X145270000Y-60975000D02*
X145270000Y-63520000D01*
D15*
G04 #@! TO.N,+BATT*
X142270000Y-67253200D02*
X142270000Y-70525000D01*
X142270000Y-65475000D02*
X142270000Y-67253200D01*
G04 #@! TO.N,+3V3*
X139700000Y-65000000D02*
X139700000Y-65565685D01*
X140433200Y-65475000D02*
X141000000Y-66041800D01*
X139730000Y-65475000D02*
X140433200Y-65475000D01*
X141000000Y-66041800D02*
X141000000Y-72500000D01*
X141000000Y-72500000D02*
X142000000Y-73500000D01*
X142000000Y-73500000D02*
X143000000Y-73500000D01*
X143000000Y-73500000D02*
X144000000Y-72500000D01*
X144000000Y-72500000D02*
X144000000Y-72500000D01*
X140204811Y-94020189D02*
X140204811Y-80804811D01*
X139670000Y-95305000D02*
X139670000Y-94555000D01*
X139670000Y-94555000D02*
X140204811Y-94020189D01*
X140204811Y-80804811D02*
X139400000Y-80000000D01*
X139400000Y-80000000D02*
X139400000Y-80000000D01*
X133843399Y-62998399D02*
X136198399Y-62998399D01*
X132570000Y-60975000D02*
X132570000Y-61725000D01*
X132570000Y-61725000D02*
X133843399Y-62998399D01*
X138675000Y-65475000D02*
X139730000Y-65475000D01*
X136198399Y-62998399D02*
X138675000Y-65475000D01*
G04 #@! TO.N,/SWDCLK*
X148250000Y-84505203D02*
X145000000Y-87755203D01*
X147290000Y-94555000D02*
X147290000Y-95305000D01*
X145000000Y-92265000D02*
X147290000Y-94555000D01*
X145000000Y-87755203D02*
X145000000Y-92265000D01*
G04 #@! TO.N,/SWDIO*
X144046800Y-95305000D02*
X144750000Y-95305000D01*
X143250000Y-94508200D02*
X144046800Y-95305000D01*
X143250000Y-84250000D02*
X143250000Y-94508200D01*
G04 #@! TO.N,/SEGA*
X135900000Y-79100000D02*
X135900000Y-79100000D01*
X137200000Y-77800000D02*
X135900000Y-79100000D01*
X135800000Y-63700000D02*
X137200000Y-65100000D01*
X137200000Y-65100000D02*
X137200000Y-77800000D01*
G04 #@! TO.N,/SEGB*
X136796790Y-67296790D02*
X136796790Y-77103210D01*
X136796790Y-77103210D02*
X135400000Y-78500000D01*
X135400000Y-78500000D02*
X135100000Y-78800000D01*
X135100000Y-78800000D02*
X135100000Y-79400000D01*
X135100000Y-79400000D02*
X135100000Y-79700000D01*
X135100000Y-79700000D02*
X135900000Y-80500000D01*
X135900000Y-80500000D02*
X135900000Y-81400000D01*
X135900000Y-81400000D02*
X135900000Y-81500000D01*
X136500000Y-67000000D02*
X136500000Y-66300000D01*
X136796790Y-67296790D02*
X136500000Y-67000000D01*
X136500000Y-66300000D02*
X136500000Y-66300000D01*
G04 #@! TO.N,/SEGD*
X138424315Y-73910000D02*
X137603210Y-74731105D01*
X138990000Y-73910000D02*
X138424315Y-73910000D01*
X137603210Y-74731105D02*
X137603210Y-75000000D01*
X137603210Y-85096790D02*
X137600000Y-85100000D01*
X137603210Y-75000000D02*
X137603210Y-85096790D01*
X137600000Y-85100000D02*
X137600000Y-87900000D01*
X137600000Y-87900000D02*
X139100000Y-89400000D01*
X139100000Y-89400000D02*
X139100000Y-89400000D01*
G04 #@! TO.N,/SEGC*
X131300000Y-82900000D02*
X131300000Y-84300000D01*
X132001601Y-82198399D02*
X131300000Y-82900000D01*
X130634315Y-68900000D02*
X129203210Y-70331105D01*
X132001601Y-81363231D02*
X132001601Y-82198399D01*
X129203210Y-78503210D02*
X132000000Y-81300000D01*
X131200000Y-68900000D02*
X130634315Y-68900000D01*
X132000000Y-81300000D02*
X132000000Y-81361630D01*
X129203210Y-70331105D02*
X129203210Y-78503210D01*
X132000000Y-81361630D02*
X132001601Y-81363231D01*
G04 #@! TO.N,/SEGG*
X139050000Y-90488370D02*
X139700000Y-89838370D01*
X139050000Y-91850000D02*
X139050000Y-90488370D01*
X139801601Y-89736769D02*
X139801601Y-89701601D01*
X139700000Y-89838370D02*
X139801601Y-89736769D01*
X139801601Y-89063231D02*
X139800000Y-89061630D01*
X139801601Y-89701601D02*
X139801601Y-89063231D01*
X139800000Y-89061630D02*
X138003210Y-87264840D01*
X138003210Y-87264840D02*
X138003210Y-86900000D01*
X138003210Y-85267015D02*
X138006420Y-85263805D01*
X138003210Y-86900000D02*
X138003210Y-85267015D01*
X138006420Y-85263805D02*
X138006420Y-77500000D01*
X138006420Y-77500000D02*
X138006420Y-77493580D01*
X138006420Y-77493580D02*
X139100000Y-76400000D01*
X139100000Y-76400000D02*
X139100000Y-76400000D01*
G04 #@! TO.N,/SEGDP*
X130800000Y-88800000D02*
X131300000Y-89300000D01*
X129606420Y-75493580D02*
X129606420Y-78306420D01*
X131200000Y-73900000D02*
X129606420Y-75493580D01*
X129606420Y-78306420D02*
X132404811Y-81104811D01*
X132404811Y-81104811D02*
X132404811Y-84295189D01*
X132404811Y-84295189D02*
X130800000Y-85900000D01*
X130800000Y-85900000D02*
X130800000Y-88800000D01*
G04 #@! TO.N,/SEGF*
X135600000Y-86800000D02*
X135600000Y-86800000D01*
X135800000Y-72152845D02*
X135800000Y-71400000D01*
X134600000Y-78700000D02*
X136300000Y-77000000D01*
X134600000Y-80000000D02*
X134600000Y-78700000D01*
X136300000Y-77000000D02*
X136300000Y-72652845D01*
X137196790Y-85203210D02*
X137196790Y-84932985D01*
X135600000Y-86800000D02*
X137196790Y-85203210D01*
X137196790Y-84932985D02*
X137200000Y-84929775D01*
X135100000Y-80500000D02*
X134600000Y-80000000D01*
X137200000Y-84929775D02*
X137200000Y-84000000D01*
X137200000Y-84000000D02*
X135100000Y-81900000D01*
X136300000Y-72652845D02*
X135800000Y-72152845D01*
X135100000Y-81900000D02*
X135100000Y-80500000D01*
G04 #@! TO.N,/SEGE*
X130634315Y-66300000D02*
X128800000Y-68134315D01*
X131200000Y-66300000D02*
X130634315Y-66300000D01*
X128800000Y-68134315D02*
X128800000Y-74700000D01*
X128800000Y-74700000D02*
X128800000Y-79200000D01*
X128800000Y-79200000D02*
X131300000Y-81700000D01*
X131300000Y-81700000D02*
X131300000Y-81700000D01*
G04 #@! TO.N,/BUTTON1*
X158750000Y-64000000D02*
X157696800Y-64000000D01*
X157696800Y-64000000D02*
X156750000Y-64000000D01*
X156750000Y-64000000D02*
X156750000Y-64000000D01*
G04 #@! TO.N,/BUTTON2*
X158650000Y-75750000D02*
X158750000Y-75650000D01*
X157000000Y-75750000D02*
X158650000Y-75750000D01*
G04 #@! TO.N,/BUTTON3*
X157000000Y-83750000D02*
X158750000Y-83750000D01*
G04 #@! TO.N,/BUTTON4*
X158250000Y-87500000D02*
X158750000Y-88000000D01*
X150750000Y-87500000D02*
X158250000Y-87500000D01*
G04 #@! TO.N,Net-(U3-Pad16)*
X152890000Y-62428200D02*
X152890000Y-60975000D01*
X152096790Y-63221410D02*
X152890000Y-62428200D01*
X152096790Y-70903210D02*
X152096790Y-63221410D01*
X146750000Y-76250000D02*
X152096790Y-70903210D01*
X145250000Y-76250000D02*
X146750000Y-76250000D01*
G04 #@! TO.N,Net-(U3-Pad17)*
X155430000Y-61725000D02*
X152500000Y-64655000D01*
X155430000Y-60975000D02*
X155430000Y-61725000D01*
X152500000Y-64655000D02*
X152500000Y-71250000D01*
X146759161Y-76990839D02*
X144509161Y-76990839D01*
X152500000Y-71250000D02*
X146759161Y-76990839D01*
G04 #@! TO.N,/I2C1_SCL*
X137650000Y-62900000D02*
X137650000Y-60975000D01*
X138000000Y-63250000D02*
X137650000Y-62900000D01*
X144701601Y-72163231D02*
X144000000Y-71461630D01*
X144000000Y-71461630D02*
X144000000Y-64000000D01*
X144000000Y-64000000D02*
X143250000Y-63250000D01*
X143250000Y-63250000D02*
X138000000Y-63250000D01*
X144701601Y-72836769D02*
X142250000Y-75288370D01*
X144701601Y-72163231D02*
X144701601Y-72836769D01*
X142250000Y-77250000D02*
X145000000Y-80000000D01*
X142250000Y-75288370D02*
X142250000Y-77250000D01*
D16*
G04 #@! TO.N,/I2C1_SDA*
X145500000Y-79000000D02*
X146000000Y-79500000D01*
D15*
X144500000Y-71358314D02*
X144500000Y-71391406D01*
X140190000Y-62428200D02*
X140511800Y-62750000D01*
X140190000Y-60975000D02*
X140190000Y-62428200D01*
X143320225Y-62750000D02*
X144403210Y-63832985D01*
X140511800Y-62750000D02*
X143320225Y-62750000D01*
X144403210Y-71294615D02*
X144608595Y-71500000D01*
X144403210Y-63832985D02*
X144403210Y-71294615D01*
X144500000Y-71391406D02*
X144608595Y-71500000D01*
X145000000Y-78500000D02*
X146000000Y-79500000D01*
X145104811Y-71996216D02*
X145104811Y-73003784D01*
X144608595Y-71500000D02*
X145104811Y-71996216D01*
X145104811Y-73003784D02*
X142750000Y-75358595D01*
X142750000Y-77000000D02*
X144250000Y-78500000D01*
X142750000Y-75358595D02*
X142750000Y-77000000D01*
X144250000Y-78500000D02*
X145000000Y-78500000D01*
G04 #@! TO.N,/RESET*
X148461630Y-78538370D02*
X149200000Y-77800000D01*
X148000000Y-78538370D02*
X148461630Y-78538370D01*
X143788370Y-82750000D02*
X148000000Y-78538370D01*
X143711630Y-82750000D02*
X143788370Y-82750000D01*
X142210000Y-95305000D02*
X142210000Y-84251630D01*
X142210000Y-84251630D02*
X143711630Y-82750000D01*
G04 #@! TD*
D17*
G04 #@! TO.N,GND*
G36*
X138342086Y-65748218D02*
X138365997Y-65784003D01*
X138411823Y-65814623D01*
X138507768Y-65878732D01*
X138675000Y-65911996D01*
X138717210Y-65903600D01*
X138896594Y-65903600D01*
X138896594Y-67050000D01*
X138921973Y-67177589D01*
X138994246Y-67285754D01*
X139102411Y-67358027D01*
X139230000Y-67383406D01*
X140230000Y-67383406D01*
X140357589Y-67358027D01*
X140465754Y-67285754D01*
X140538027Y-67177589D01*
X140563406Y-67050000D01*
X140563406Y-66211337D01*
X140571400Y-66219332D01*
X140571400Y-68404093D01*
X140356310Y-68315000D01*
X140015750Y-68315000D01*
X139857000Y-68473750D01*
X139857000Y-70398000D01*
X139877000Y-70398000D01*
X139877000Y-70652000D01*
X139857000Y-70652000D01*
X139857000Y-72576250D01*
X140015750Y-72735000D01*
X140356310Y-72735000D01*
X140589699Y-72638327D01*
X140590384Y-72637642D01*
X140596269Y-72667231D01*
X140690998Y-72809003D01*
X140726785Y-72832915D01*
X141667086Y-73773218D01*
X141690997Y-73809003D01*
X141726781Y-73832913D01*
X141832768Y-73903732D01*
X142000000Y-73936996D01*
X142042210Y-73928600D01*
X142957791Y-73928600D01*
X142996032Y-73936207D01*
X141976787Y-74955453D01*
X141940997Y-74979367D01*
X141846268Y-75121140D01*
X141827995Y-75213005D01*
X141813004Y-75288370D01*
X141821400Y-75330579D01*
X141821401Y-77207787D01*
X141813004Y-77250000D01*
X141838153Y-77376430D01*
X141846269Y-77417231D01*
X141940998Y-77559003D01*
X141976785Y-77582915D01*
X144273000Y-79879132D01*
X144273000Y-80144609D01*
X144383679Y-80411813D01*
X144588187Y-80616321D01*
X144855391Y-80727000D01*
X145144609Y-80727000D01*
X145248111Y-80684128D01*
X143596295Y-82335945D01*
X143544398Y-82346268D01*
X143515420Y-82365631D01*
X143402627Y-82440997D01*
X143378717Y-82476782D01*
X141936785Y-83918715D01*
X141900998Y-83942627D01*
X141862663Y-84000000D01*
X141806269Y-84084399D01*
X141773004Y-84251630D01*
X141781401Y-84293844D01*
X141781400Y-93721594D01*
X141710000Y-93721594D01*
X141582411Y-93746973D01*
X141474246Y-93819246D01*
X141401973Y-93927411D01*
X141376594Y-94055000D01*
X141376594Y-96555000D01*
X141401973Y-96682589D01*
X141474246Y-96790754D01*
X141485090Y-96798000D01*
X140394910Y-96798000D01*
X140405754Y-96790754D01*
X140478027Y-96682589D01*
X140503406Y-96555000D01*
X140503406Y-94336146D01*
X140513814Y-94329192D01*
X140608543Y-94187420D01*
X140633411Y-94062399D01*
X140633411Y-94062398D01*
X140641807Y-94020189D01*
X140633411Y-93977980D01*
X140633411Y-80847021D01*
X140641807Y-80804811D01*
X140608543Y-80637579D01*
X140537724Y-80531592D01*
X140513814Y-80495808D01*
X140478029Y-80471897D01*
X140127000Y-80120869D01*
X140127000Y-79855391D01*
X140016321Y-79588187D01*
X139811813Y-79383679D01*
X139544609Y-79273000D01*
X139255391Y-79273000D01*
X138988187Y-79383679D01*
X138783679Y-79588187D01*
X138673000Y-79855391D01*
X138673000Y-80144609D01*
X138783679Y-80411813D01*
X138988187Y-80616321D01*
X139255391Y-80727000D01*
X139520869Y-80727000D01*
X139776212Y-80982344D01*
X139776211Y-88431710D01*
X138431810Y-87087310D01*
X138431810Y-85322153D01*
X138435020Y-85306015D01*
X138435020Y-85306014D01*
X138443416Y-85263805D01*
X138435020Y-85221595D01*
X138435020Y-77671110D01*
X138979131Y-77127000D01*
X139244609Y-77127000D01*
X139511813Y-77016321D01*
X139716321Y-76811813D01*
X139827000Y-76544609D01*
X139827000Y-76255391D01*
X139716321Y-75988187D01*
X139511813Y-75783679D01*
X139244609Y-75673000D01*
X138955391Y-75673000D01*
X138688187Y-75783679D01*
X138483679Y-75988187D01*
X138373000Y-76255391D01*
X138373000Y-76520869D01*
X138031810Y-76862059D01*
X138031810Y-74908635D01*
X138496156Y-74444290D01*
X138578187Y-74526321D01*
X138845391Y-74637000D01*
X139134609Y-74637000D01*
X139401813Y-74526321D01*
X139606321Y-74321813D01*
X139717000Y-74054609D01*
X139717000Y-73765391D01*
X139606321Y-73498187D01*
X139401813Y-73293679D01*
X139134609Y-73183000D01*
X138845391Y-73183000D01*
X138578187Y-73293679D01*
X138392542Y-73479324D01*
X138382106Y-73481400D01*
X138382105Y-73481400D01*
X138257084Y-73506268D01*
X138115312Y-73600997D01*
X138091401Y-73636782D01*
X137628600Y-74099584D01*
X137628600Y-70810750D01*
X138595000Y-70810750D01*
X138595000Y-72226309D01*
X138691673Y-72459698D01*
X138870301Y-72638327D01*
X139103690Y-72735000D01*
X139444250Y-72735000D01*
X139603000Y-72576250D01*
X139603000Y-70652000D01*
X138753750Y-70652000D01*
X138595000Y-70810750D01*
X137628600Y-70810750D01*
X137628600Y-68823691D01*
X138595000Y-68823691D01*
X138595000Y-70239250D01*
X138753750Y-70398000D01*
X139603000Y-70398000D01*
X139603000Y-68473750D01*
X139444250Y-68315000D01*
X139103690Y-68315000D01*
X138870301Y-68411673D01*
X138691673Y-68590302D01*
X138595000Y-68823691D01*
X137628600Y-68823691D01*
X137628600Y-65142209D01*
X137636996Y-65100000D01*
X137628600Y-65057790D01*
X137622875Y-65029006D01*
X138342086Y-65748218D01*
X138342086Y-65748218D01*
G37*
X138342086Y-65748218D02*
X138365997Y-65784003D01*
X138411823Y-65814623D01*
X138507768Y-65878732D01*
X138675000Y-65911996D01*
X138717210Y-65903600D01*
X138896594Y-65903600D01*
X138896594Y-67050000D01*
X138921973Y-67177589D01*
X138994246Y-67285754D01*
X139102411Y-67358027D01*
X139230000Y-67383406D01*
X140230000Y-67383406D01*
X140357589Y-67358027D01*
X140465754Y-67285754D01*
X140538027Y-67177589D01*
X140563406Y-67050000D01*
X140563406Y-66211337D01*
X140571400Y-66219332D01*
X140571400Y-68404093D01*
X140356310Y-68315000D01*
X140015750Y-68315000D01*
X139857000Y-68473750D01*
X139857000Y-70398000D01*
X139877000Y-70398000D01*
X139877000Y-70652000D01*
X139857000Y-70652000D01*
X139857000Y-72576250D01*
X140015750Y-72735000D01*
X140356310Y-72735000D01*
X140589699Y-72638327D01*
X140590384Y-72637642D01*
X140596269Y-72667231D01*
X140690998Y-72809003D01*
X140726785Y-72832915D01*
X141667086Y-73773218D01*
X141690997Y-73809003D01*
X141726781Y-73832913D01*
X141832768Y-73903732D01*
X142000000Y-73936996D01*
X142042210Y-73928600D01*
X142957791Y-73928600D01*
X142996032Y-73936207D01*
X141976787Y-74955453D01*
X141940997Y-74979367D01*
X141846268Y-75121140D01*
X141827995Y-75213005D01*
X141813004Y-75288370D01*
X141821400Y-75330579D01*
X141821401Y-77207787D01*
X141813004Y-77250000D01*
X141838153Y-77376430D01*
X141846269Y-77417231D01*
X141940998Y-77559003D01*
X141976785Y-77582915D01*
X144273000Y-79879132D01*
X144273000Y-80144609D01*
X144383679Y-80411813D01*
X144588187Y-80616321D01*
X144855391Y-80727000D01*
X145144609Y-80727000D01*
X145248111Y-80684128D01*
X143596295Y-82335945D01*
X143544398Y-82346268D01*
X143515420Y-82365631D01*
X143402627Y-82440997D01*
X143378717Y-82476782D01*
X141936785Y-83918715D01*
X141900998Y-83942627D01*
X141862663Y-84000000D01*
X141806269Y-84084399D01*
X141773004Y-84251630D01*
X141781401Y-84293844D01*
X141781400Y-93721594D01*
X141710000Y-93721594D01*
X141582411Y-93746973D01*
X141474246Y-93819246D01*
X141401973Y-93927411D01*
X141376594Y-94055000D01*
X141376594Y-96555000D01*
X141401973Y-96682589D01*
X141474246Y-96790754D01*
X141485090Y-96798000D01*
X140394910Y-96798000D01*
X140405754Y-96790754D01*
X140478027Y-96682589D01*
X140503406Y-96555000D01*
X140503406Y-94336146D01*
X140513814Y-94329192D01*
X140608543Y-94187420D01*
X140633411Y-94062399D01*
X140633411Y-94062398D01*
X140641807Y-94020189D01*
X140633411Y-93977980D01*
X140633411Y-80847021D01*
X140641807Y-80804811D01*
X140608543Y-80637579D01*
X140537724Y-80531592D01*
X140513814Y-80495808D01*
X140478029Y-80471897D01*
X140127000Y-80120869D01*
X140127000Y-79855391D01*
X140016321Y-79588187D01*
X139811813Y-79383679D01*
X139544609Y-79273000D01*
X139255391Y-79273000D01*
X138988187Y-79383679D01*
X138783679Y-79588187D01*
X138673000Y-79855391D01*
X138673000Y-80144609D01*
X138783679Y-80411813D01*
X138988187Y-80616321D01*
X139255391Y-80727000D01*
X139520869Y-80727000D01*
X139776212Y-80982344D01*
X139776211Y-88431710D01*
X138431810Y-87087310D01*
X138431810Y-85322153D01*
X138435020Y-85306015D01*
X138435020Y-85306014D01*
X138443416Y-85263805D01*
X138435020Y-85221595D01*
X138435020Y-77671110D01*
X138979131Y-77127000D01*
X139244609Y-77127000D01*
X139511813Y-77016321D01*
X139716321Y-76811813D01*
X139827000Y-76544609D01*
X139827000Y-76255391D01*
X139716321Y-75988187D01*
X139511813Y-75783679D01*
X139244609Y-75673000D01*
X138955391Y-75673000D01*
X138688187Y-75783679D01*
X138483679Y-75988187D01*
X138373000Y-76255391D01*
X138373000Y-76520869D01*
X138031810Y-76862059D01*
X138031810Y-74908635D01*
X138496156Y-74444290D01*
X138578187Y-74526321D01*
X138845391Y-74637000D01*
X139134609Y-74637000D01*
X139401813Y-74526321D01*
X139606321Y-74321813D01*
X139717000Y-74054609D01*
X139717000Y-73765391D01*
X139606321Y-73498187D01*
X139401813Y-73293679D01*
X139134609Y-73183000D01*
X138845391Y-73183000D01*
X138578187Y-73293679D01*
X138392542Y-73479324D01*
X138382106Y-73481400D01*
X138382105Y-73481400D01*
X138257084Y-73506268D01*
X138115312Y-73600997D01*
X138091401Y-73636782D01*
X137628600Y-74099584D01*
X137628600Y-70810750D01*
X138595000Y-70810750D01*
X138595000Y-72226309D01*
X138691673Y-72459698D01*
X138870301Y-72638327D01*
X139103690Y-72735000D01*
X139444250Y-72735000D01*
X139603000Y-72576250D01*
X139603000Y-70652000D01*
X138753750Y-70652000D01*
X138595000Y-70810750D01*
X137628600Y-70810750D01*
X137628600Y-68823691D01*
X138595000Y-68823691D01*
X138595000Y-70239250D01*
X138753750Y-70398000D01*
X139603000Y-70398000D01*
X139603000Y-68473750D01*
X139444250Y-68315000D01*
X139103690Y-68315000D01*
X138870301Y-68411673D01*
X138691673Y-68590302D01*
X138595000Y-68823691D01*
X137628600Y-68823691D01*
X137628600Y-65142209D01*
X137636996Y-65100000D01*
X137628600Y-65057790D01*
X137622875Y-65029006D01*
X138342086Y-65748218D01*
G36*
X134071673Y-59365302D02*
X133975000Y-59598691D01*
X133975000Y-60689250D01*
X134133750Y-60848000D01*
X134983000Y-60848000D01*
X134983000Y-60828000D01*
X135237000Y-60828000D01*
X135237000Y-60848000D01*
X136086250Y-60848000D01*
X136245000Y-60689250D01*
X136245000Y-59598691D01*
X136148327Y-59365302D01*
X135985026Y-59202000D01*
X141854974Y-59202000D01*
X141691673Y-59365302D01*
X141595000Y-59598691D01*
X141595000Y-60689250D01*
X141753750Y-60848000D01*
X142603000Y-60848000D01*
X142603000Y-60828000D01*
X142857000Y-60828000D01*
X142857000Y-60848000D01*
X143706250Y-60848000D01*
X143865000Y-60689250D01*
X143865000Y-59598691D01*
X143768327Y-59365302D01*
X143605026Y-59202000D01*
X157985609Y-59202000D01*
X158504061Y-59276248D01*
X158967599Y-59487006D01*
X159353356Y-59819396D01*
X159630312Y-60246688D01*
X159778213Y-60741234D01*
X159790391Y-60905114D01*
X159786171Y-60911430D01*
X159773000Y-60977645D01*
X159773001Y-63022356D01*
X159786172Y-63088571D01*
X159798000Y-63106273D01*
X159798000Y-63289020D01*
X159727589Y-63241973D01*
X159600000Y-63216594D01*
X157900000Y-63216594D01*
X157772411Y-63241973D01*
X157664246Y-63314246D01*
X157591973Y-63422411D01*
X157566594Y-63550000D01*
X157566594Y-63571400D01*
X157349534Y-63571400D01*
X157161813Y-63383679D01*
X156894609Y-63273000D01*
X156605391Y-63273000D01*
X156338187Y-63383679D01*
X156133679Y-63588187D01*
X156023000Y-63855391D01*
X156023000Y-64144609D01*
X156133679Y-64411813D01*
X156338187Y-64616321D01*
X156605391Y-64727000D01*
X156894609Y-64727000D01*
X157161813Y-64616321D01*
X157349534Y-64428600D01*
X157566594Y-64428600D01*
X157566594Y-64450000D01*
X157591973Y-64577589D01*
X157664246Y-64685754D01*
X157772411Y-64758027D01*
X157900000Y-64783406D01*
X159600000Y-64783406D01*
X159727589Y-64758027D01*
X159798000Y-64710980D01*
X159798000Y-66344695D01*
X159726310Y-66315000D01*
X159035750Y-66315000D01*
X158877000Y-66473750D01*
X158877000Y-67273000D01*
X158897000Y-67273000D01*
X158897000Y-67527000D01*
X158877000Y-67527000D01*
X158877000Y-68326250D01*
X159035750Y-68485000D01*
X159726310Y-68485000D01*
X159798000Y-68455305D01*
X159798000Y-71194695D01*
X159726310Y-71165000D01*
X159035750Y-71165000D01*
X158877000Y-71323750D01*
X158877000Y-72123000D01*
X158897000Y-72123000D01*
X158897000Y-72377000D01*
X158877000Y-72377000D01*
X158877000Y-73176250D01*
X159035750Y-73335000D01*
X159726310Y-73335000D01*
X159798000Y-73305305D01*
X159798000Y-74939020D01*
X159727589Y-74891973D01*
X159600000Y-74866594D01*
X157900000Y-74866594D01*
X157772411Y-74891973D01*
X157664246Y-74964246D01*
X157591973Y-75072411D01*
X157566594Y-75200000D01*
X157566594Y-75288460D01*
X157411813Y-75133679D01*
X157144609Y-75023000D01*
X156855391Y-75023000D01*
X156588187Y-75133679D01*
X156383679Y-75338187D01*
X156273000Y-75605391D01*
X156273000Y-75894609D01*
X156383679Y-76161813D01*
X156588187Y-76366321D01*
X156855391Y-76477000D01*
X157144609Y-76477000D01*
X157411813Y-76366321D01*
X157585100Y-76193034D01*
X157591973Y-76227589D01*
X157664246Y-76335754D01*
X157772411Y-76408027D01*
X157900000Y-76433406D01*
X159600000Y-76433406D01*
X159727589Y-76408027D01*
X159798000Y-76360980D01*
X159798001Y-79294695D01*
X159726310Y-79265000D01*
X159035750Y-79265000D01*
X158877000Y-79423750D01*
X158877000Y-80223000D01*
X158897000Y-80223000D01*
X158897000Y-80477000D01*
X158877000Y-80477000D01*
X158877000Y-81276250D01*
X159035750Y-81435000D01*
X159726310Y-81435000D01*
X159798001Y-81405305D01*
X159798001Y-83039020D01*
X159727589Y-82991973D01*
X159600000Y-82966594D01*
X157900000Y-82966594D01*
X157772411Y-82991973D01*
X157664246Y-83064246D01*
X157591973Y-83172411D01*
X157568509Y-83290375D01*
X157411813Y-83133679D01*
X157144609Y-83023000D01*
X156855391Y-83023000D01*
X156588187Y-83133679D01*
X156383679Y-83338187D01*
X156273000Y-83605391D01*
X156273000Y-83894609D01*
X156383679Y-84161813D01*
X156588187Y-84366321D01*
X156855391Y-84477000D01*
X157144609Y-84477000D01*
X157411813Y-84366321D01*
X157568509Y-84209625D01*
X157591973Y-84327589D01*
X157664246Y-84435754D01*
X157772411Y-84508027D01*
X157900000Y-84533406D01*
X159600000Y-84533406D01*
X159727589Y-84508027D01*
X159798001Y-84460980D01*
X159798001Y-87289020D01*
X159727589Y-87241973D01*
X159600000Y-87216594D01*
X158576106Y-87216594D01*
X158559003Y-87190997D01*
X158417231Y-87096268D01*
X158292210Y-87071400D01*
X158292209Y-87071400D01*
X158250000Y-87063004D01*
X158207791Y-87071400D01*
X151349534Y-87071400D01*
X151161813Y-86883679D01*
X150894609Y-86773000D01*
X150605391Y-86773000D01*
X150338187Y-86883679D01*
X150133679Y-87088187D01*
X150023000Y-87355391D01*
X150023000Y-87644609D01*
X150133679Y-87911813D01*
X150338187Y-88116321D01*
X150605391Y-88227000D01*
X150894609Y-88227000D01*
X151161813Y-88116321D01*
X151349534Y-87928600D01*
X157566594Y-87928600D01*
X157566594Y-88450000D01*
X157591973Y-88577589D01*
X157664246Y-88685754D01*
X157772411Y-88758027D01*
X157900000Y-88783406D01*
X159600000Y-88783406D01*
X159727589Y-88758027D01*
X159798001Y-88710980D01*
X159798001Y-90344695D01*
X159726310Y-90315000D01*
X159035750Y-90315000D01*
X158877000Y-90473750D01*
X158877000Y-91273000D01*
X158897000Y-91273000D01*
X158897000Y-91527000D01*
X158877000Y-91527000D01*
X158877000Y-92326250D01*
X159035750Y-92485000D01*
X159726310Y-92485000D01*
X159798001Y-92455305D01*
X159798001Y-94985602D01*
X159723752Y-95504062D01*
X159512994Y-95967599D01*
X159180604Y-96353356D01*
X158753312Y-96630312D01*
X158258766Y-96778213D01*
X157992499Y-96798000D01*
X150916665Y-96798000D01*
X150965000Y-96681309D01*
X150965000Y-95590750D01*
X150806250Y-95432000D01*
X149957000Y-95432000D01*
X149957000Y-95452000D01*
X149703000Y-95452000D01*
X149703000Y-95432000D01*
X148853750Y-95432000D01*
X148695000Y-95590750D01*
X148695000Y-96681309D01*
X148743335Y-96798000D01*
X148014910Y-96798000D01*
X148025754Y-96790754D01*
X148098027Y-96682589D01*
X148123406Y-96555000D01*
X148123406Y-94055000D01*
X148098282Y-93928691D01*
X148695000Y-93928691D01*
X148695000Y-95019250D01*
X148853750Y-95178000D01*
X149703000Y-95178000D01*
X149703000Y-93578750D01*
X149957000Y-93578750D01*
X149957000Y-95178000D01*
X150806250Y-95178000D01*
X150965000Y-95019250D01*
X150965000Y-93928691D01*
X150868327Y-93695302D01*
X150689699Y-93516673D01*
X150456310Y-93420000D01*
X150115750Y-93420000D01*
X149957000Y-93578750D01*
X149703000Y-93578750D01*
X149544250Y-93420000D01*
X149203690Y-93420000D01*
X148970301Y-93516673D01*
X148791673Y-93695302D01*
X148695000Y-93928691D01*
X148098282Y-93928691D01*
X148098027Y-93927411D01*
X148025754Y-93819246D01*
X147917589Y-93746973D01*
X147790000Y-93721594D01*
X147062726Y-93721594D01*
X145428600Y-92087470D01*
X145428600Y-91685750D01*
X157265000Y-91685750D01*
X157265000Y-91976309D01*
X157361673Y-92209698D01*
X157540301Y-92388327D01*
X157773690Y-92485000D01*
X158464250Y-92485000D01*
X158623000Y-92326250D01*
X158623000Y-91527000D01*
X157423750Y-91527000D01*
X157265000Y-91685750D01*
X145428600Y-91685750D01*
X145428600Y-89716152D01*
X146573000Y-89716152D01*
X146573000Y-90283848D01*
X146790247Y-90808331D01*
X147191669Y-91209753D01*
X147716152Y-91427000D01*
X148283848Y-91427000D01*
X148808331Y-91209753D01*
X149194393Y-90823691D01*
X157265000Y-90823691D01*
X157265000Y-91114250D01*
X157423750Y-91273000D01*
X158623000Y-91273000D01*
X158623000Y-90473750D01*
X158464250Y-90315000D01*
X157773690Y-90315000D01*
X157540301Y-90411673D01*
X157361673Y-90590302D01*
X157265000Y-90823691D01*
X149194393Y-90823691D01*
X149209753Y-90808331D01*
X149427000Y-90283848D01*
X149427000Y-89716152D01*
X149209753Y-89191669D01*
X148808331Y-88790247D01*
X148283848Y-88573000D01*
X147716152Y-88573000D01*
X147191669Y-88790247D01*
X146790247Y-89191669D01*
X146573000Y-89716152D01*
X145428600Y-89716152D01*
X145428600Y-87932733D01*
X148129132Y-85232203D01*
X148394609Y-85232203D01*
X148661813Y-85121524D01*
X148866321Y-84917016D01*
X148977000Y-84649812D01*
X148977000Y-84360594D01*
X148866321Y-84093390D01*
X148661813Y-83888882D01*
X148394609Y-83778203D01*
X148105391Y-83778203D01*
X147838187Y-83888882D01*
X147633679Y-84093390D01*
X147523000Y-84360594D01*
X147523000Y-84626071D01*
X144726787Y-87422286D01*
X144690997Y-87446200D01*
X144596268Y-87587973D01*
X144571400Y-87712993D01*
X144563004Y-87755203D01*
X144571400Y-87797412D01*
X144571401Y-92222786D01*
X144563004Y-92265000D01*
X144584661Y-92373875D01*
X144596269Y-92432231D01*
X144690998Y-92574003D01*
X144726785Y-92597915D01*
X146456594Y-94327726D01*
X146456594Y-96555000D01*
X146481973Y-96682589D01*
X146554246Y-96790754D01*
X146565090Y-96798000D01*
X145474910Y-96798000D01*
X145485754Y-96790754D01*
X145558027Y-96682589D01*
X145583406Y-96555000D01*
X145583406Y-94055000D01*
X145558027Y-93927411D01*
X145485754Y-93819246D01*
X145377589Y-93746973D01*
X145250000Y-93721594D01*
X144250000Y-93721594D01*
X144122411Y-93746973D01*
X144014246Y-93819246D01*
X143941973Y-93927411D01*
X143916594Y-94055000D01*
X143916594Y-94568663D01*
X143678600Y-94330670D01*
X143678600Y-84849534D01*
X143866321Y-84661813D01*
X143977000Y-84394609D01*
X143977000Y-84105391D01*
X143866321Y-83838187D01*
X143661813Y-83633679D01*
X143500783Y-83566978D01*
X143903708Y-83164054D01*
X143955601Y-83153732D01*
X144097373Y-83059003D01*
X144121287Y-83023213D01*
X146508751Y-80635750D01*
X157265000Y-80635750D01*
X157265000Y-80926309D01*
X157361673Y-81159698D01*
X157540301Y-81338327D01*
X157773690Y-81435000D01*
X158464250Y-81435000D01*
X158623000Y-81276250D01*
X158623000Y-80477000D01*
X157423750Y-80477000D01*
X157265000Y-80635750D01*
X146508751Y-80635750D01*
X147370810Y-79773691D01*
X157265000Y-79773691D01*
X157265000Y-80064250D01*
X157423750Y-80223000D01*
X158623000Y-80223000D01*
X158623000Y-79423750D01*
X158464250Y-79265000D01*
X157773690Y-79265000D01*
X157540301Y-79361673D01*
X157361673Y-79540302D01*
X157265000Y-79773691D01*
X147370810Y-79773691D01*
X148177532Y-78966970D01*
X148419421Y-78966970D01*
X148461630Y-78975366D01*
X148503839Y-78966970D01*
X148503840Y-78966970D01*
X148628861Y-78942102D01*
X148770633Y-78847373D01*
X148794547Y-78811583D01*
X149079131Y-78527000D01*
X149344609Y-78527000D01*
X149611813Y-78416321D01*
X149816321Y-78211813D01*
X149927000Y-77944609D01*
X149927000Y-77655391D01*
X149816321Y-77388187D01*
X149611813Y-77183679D01*
X149344609Y-77073000D01*
X149055391Y-77073000D01*
X148788187Y-77183679D01*
X148583679Y-77388187D01*
X148473000Y-77655391D01*
X148473000Y-77920869D01*
X148284100Y-78109770D01*
X148042208Y-78109770D01*
X147999999Y-78101374D01*
X147957790Y-78109770D01*
X147832769Y-78134638D01*
X147690997Y-78229367D01*
X147667087Y-78265151D01*
X146683021Y-79249217D01*
X146616321Y-79088187D01*
X146411813Y-78883679D01*
X146144609Y-78773000D01*
X145912224Y-78773000D01*
X145788133Y-78648909D01*
X145688400Y-78582269D01*
X145332917Y-78226787D01*
X145309003Y-78190997D01*
X145167231Y-78096268D01*
X145042210Y-78071400D01*
X145042209Y-78071400D01*
X145000000Y-78063004D01*
X144957791Y-78071400D01*
X144427532Y-78071400D01*
X143202361Y-76846230D01*
X143782161Y-76846230D01*
X143782161Y-77135448D01*
X143892840Y-77402652D01*
X144097348Y-77607160D01*
X144364552Y-77717839D01*
X144653770Y-77717839D01*
X144920974Y-77607160D01*
X145108695Y-77419439D01*
X146716952Y-77419439D01*
X146759161Y-77427835D01*
X146801370Y-77419439D01*
X146801371Y-77419439D01*
X146926392Y-77394571D01*
X147068164Y-77299842D01*
X147092078Y-77264052D01*
X151820381Y-72535750D01*
X157265000Y-72535750D01*
X157265000Y-72826309D01*
X157361673Y-73059698D01*
X157540301Y-73238327D01*
X157773690Y-73335000D01*
X158464250Y-73335000D01*
X158623000Y-73176250D01*
X158623000Y-72377000D01*
X157423750Y-72377000D01*
X157265000Y-72535750D01*
X151820381Y-72535750D01*
X152773219Y-71582913D01*
X152809003Y-71559003D01*
X152903732Y-71417231D01*
X152919989Y-71335499D01*
X153023000Y-71335499D01*
X153023000Y-71664501D01*
X153148903Y-71968458D01*
X153381542Y-72201097D01*
X153685499Y-72327000D01*
X154014501Y-72327000D01*
X154318458Y-72201097D01*
X154551097Y-71968458D01*
X154677000Y-71664501D01*
X154677000Y-71335499D01*
X154923000Y-71335499D01*
X154923000Y-71664501D01*
X155048903Y-71968458D01*
X155281542Y-72201097D01*
X155585499Y-72327000D01*
X155914501Y-72327000D01*
X156218458Y-72201097D01*
X156451097Y-71968458D01*
X156573193Y-71673691D01*
X157265000Y-71673691D01*
X157265000Y-71964250D01*
X157423750Y-72123000D01*
X158623000Y-72123000D01*
X158623000Y-71323750D01*
X158464250Y-71165000D01*
X157773690Y-71165000D01*
X157540301Y-71261673D01*
X157361673Y-71440302D01*
X157265000Y-71673691D01*
X156573193Y-71673691D01*
X156577000Y-71664501D01*
X156577000Y-71335499D01*
X156451097Y-71031542D01*
X156218458Y-70798903D01*
X155914501Y-70673000D01*
X155585499Y-70673000D01*
X155281542Y-70798903D01*
X155048903Y-71031542D01*
X154923000Y-71335499D01*
X154677000Y-71335499D01*
X154551097Y-71031542D01*
X154318458Y-70798903D01*
X154014501Y-70673000D01*
X153685499Y-70673000D01*
X153381542Y-70798903D01*
X153148903Y-71031542D01*
X153023000Y-71335499D01*
X152919989Y-71335499D01*
X152928600Y-71292210D01*
X152928600Y-71292206D01*
X152936995Y-71250001D01*
X152928600Y-71207796D01*
X152928600Y-67685750D01*
X157265000Y-67685750D01*
X157265000Y-67976309D01*
X157361673Y-68209698D01*
X157540301Y-68388327D01*
X157773690Y-68485000D01*
X158464250Y-68485000D01*
X158623000Y-68326250D01*
X158623000Y-67527000D01*
X157423750Y-67527000D01*
X157265000Y-67685750D01*
X152928600Y-67685750D01*
X152928600Y-66823691D01*
X157265000Y-66823691D01*
X157265000Y-67114250D01*
X157423750Y-67273000D01*
X158623000Y-67273000D01*
X158623000Y-66473750D01*
X158464250Y-66315000D01*
X157773690Y-66315000D01*
X157540301Y-66411673D01*
X157361673Y-66590302D01*
X157265000Y-66823691D01*
X152928600Y-66823691D01*
X152928600Y-64832530D01*
X155202726Y-62558406D01*
X155930000Y-62558406D01*
X156057589Y-62533027D01*
X156165754Y-62460754D01*
X156238027Y-62352589D01*
X156263406Y-62225000D01*
X156263406Y-59725000D01*
X156238027Y-59597411D01*
X156165754Y-59489246D01*
X156057589Y-59416973D01*
X155930000Y-59391594D01*
X154930000Y-59391594D01*
X154802411Y-59416973D01*
X154694246Y-59489246D01*
X154621973Y-59597411D01*
X154596594Y-59725000D01*
X154596594Y-61952274D01*
X152525390Y-64023480D01*
X152525390Y-63398940D01*
X153163219Y-62761113D01*
X153199003Y-62737203D01*
X153293732Y-62595431D01*
X153301097Y-62558406D01*
X153390000Y-62558406D01*
X153517589Y-62533027D01*
X153625754Y-62460754D01*
X153698027Y-62352589D01*
X153723406Y-62225000D01*
X153723406Y-59725000D01*
X153698027Y-59597411D01*
X153625754Y-59489246D01*
X153517589Y-59416973D01*
X153390000Y-59391594D01*
X152390000Y-59391594D01*
X152262411Y-59416973D01*
X152154246Y-59489246D01*
X152081973Y-59597411D01*
X152056594Y-59725000D01*
X152056594Y-62225000D01*
X152081973Y-62352589D01*
X152154246Y-62460754D01*
X152212435Y-62499634D01*
X151823575Y-62888495D01*
X151787788Y-62912407D01*
X151707683Y-63032293D01*
X151693059Y-63054179D01*
X151672377Y-63158152D01*
X151019349Y-62505124D01*
X151085754Y-62460754D01*
X151158027Y-62352589D01*
X151183406Y-62225000D01*
X151183406Y-59725000D01*
X151158027Y-59597411D01*
X151085754Y-59489246D01*
X150977589Y-59416973D01*
X150850000Y-59391594D01*
X149850000Y-59391594D01*
X149722411Y-59416973D01*
X149614246Y-59489246D01*
X149541973Y-59597411D01*
X149516594Y-59725000D01*
X149516594Y-62225000D01*
X149541973Y-62352589D01*
X149614246Y-62460754D01*
X149722411Y-62533027D01*
X149850000Y-62558406D01*
X149905735Y-62558406D01*
X149924225Y-62651361D01*
X149998909Y-62763133D01*
X150024127Y-62800874D01*
X150061867Y-62826091D01*
X151048000Y-63812225D01*
X151048000Y-64323776D01*
X148643406Y-61919182D01*
X148643406Y-59725000D01*
X148618027Y-59597411D01*
X148545754Y-59489246D01*
X148437589Y-59416973D01*
X148310000Y-59391594D01*
X147310000Y-59391594D01*
X147182411Y-59416973D01*
X147074246Y-59489246D01*
X147001973Y-59597411D01*
X146976594Y-59725000D01*
X146976594Y-62225000D01*
X147001973Y-62352589D01*
X147074246Y-62460754D01*
X147182411Y-62533027D01*
X147310000Y-62558406D01*
X148004182Y-62558406D01*
X150498000Y-65052224D01*
X150498001Y-70112774D01*
X146531199Y-74079577D01*
X146394609Y-74023000D01*
X146105391Y-74023000D01*
X145838187Y-74133679D01*
X145633679Y-74338187D01*
X145523000Y-74605391D01*
X145523000Y-74894609D01*
X145538891Y-74932975D01*
X145383679Y-75088187D01*
X145273000Y-75355391D01*
X145273000Y-75523000D01*
X145105391Y-75523000D01*
X144838187Y-75633679D01*
X144633679Y-75838187D01*
X144523000Y-76105391D01*
X144523000Y-76263839D01*
X144364552Y-76263839D01*
X144097348Y-76374518D01*
X143892840Y-76579026D01*
X143782161Y-76846230D01*
X143202361Y-76846230D01*
X143178600Y-76822470D01*
X143178600Y-75536125D01*
X145378030Y-73336697D01*
X145413814Y-73312787D01*
X145471281Y-73226782D01*
X145508543Y-73171016D01*
X145541807Y-73003784D01*
X145533411Y-72961574D01*
X145533411Y-72038420D01*
X145541806Y-71996215D01*
X145533411Y-71954010D01*
X145533411Y-71954006D01*
X145508543Y-71828985D01*
X145413814Y-71687213D01*
X145378030Y-71663303D01*
X144941509Y-71226783D01*
X144899550Y-71184824D01*
X144831810Y-71083444D01*
X144831810Y-65716152D01*
X146573000Y-65716152D01*
X146573000Y-66283848D01*
X146790247Y-66808331D01*
X147191669Y-67209753D01*
X147716152Y-67427000D01*
X148283848Y-67427000D01*
X148808331Y-67209753D01*
X149209753Y-66808331D01*
X149427000Y-66283848D01*
X149427000Y-65716152D01*
X149209753Y-65191669D01*
X148808331Y-64790247D01*
X148283848Y-64573000D01*
X147716152Y-64573000D01*
X147191669Y-64790247D01*
X146790247Y-65191669D01*
X146573000Y-65716152D01*
X144831810Y-65716152D01*
X144831810Y-64036590D01*
X144883679Y-64161813D01*
X145088187Y-64366321D01*
X145355391Y-64477000D01*
X145644609Y-64477000D01*
X145911813Y-64366321D01*
X146116321Y-64161813D01*
X146227000Y-63894609D01*
X146227000Y-63605391D01*
X146116321Y-63338187D01*
X145911813Y-63133679D01*
X145722000Y-63055056D01*
X145722000Y-62558406D01*
X145770000Y-62558406D01*
X145897589Y-62533027D01*
X146005754Y-62460754D01*
X146078027Y-62352589D01*
X146103406Y-62225000D01*
X146103406Y-59725000D01*
X146078027Y-59597411D01*
X146005754Y-59489246D01*
X145897589Y-59416973D01*
X145770000Y-59391594D01*
X144770000Y-59391594D01*
X144642411Y-59416973D01*
X144534246Y-59489246D01*
X144461973Y-59597411D01*
X144436594Y-59725000D01*
X144436594Y-62225000D01*
X144461973Y-62352589D01*
X144534246Y-62460754D01*
X144642411Y-62533027D01*
X144770000Y-62558406D01*
X144818001Y-62558406D01*
X144818001Y-63475478D01*
X144809861Y-63516400D01*
X144773000Y-63605391D01*
X144773000Y-63614956D01*
X144712213Y-63523982D01*
X144676429Y-63500072D01*
X143764690Y-62588335D01*
X143768327Y-62584698D01*
X143865000Y-62351309D01*
X143865000Y-61260750D01*
X143706250Y-61102000D01*
X142857000Y-61102000D01*
X142857000Y-61122000D01*
X142603000Y-61122000D01*
X142603000Y-61102000D01*
X141753750Y-61102000D01*
X141595000Y-61260750D01*
X141595000Y-62321400D01*
X141004231Y-62321400D01*
X141023406Y-62225000D01*
X141023406Y-59725000D01*
X140998027Y-59597411D01*
X140925754Y-59489246D01*
X140817589Y-59416973D01*
X140690000Y-59391594D01*
X139690000Y-59391594D01*
X139562411Y-59416973D01*
X139454246Y-59489246D01*
X139381973Y-59597411D01*
X139356594Y-59725000D01*
X139356594Y-62225000D01*
X139381973Y-62352589D01*
X139454246Y-62460754D01*
X139562411Y-62533027D01*
X139690000Y-62558406D01*
X139778904Y-62558406D01*
X139781987Y-62573903D01*
X139786269Y-62595431D01*
X139880998Y-62737203D01*
X139916785Y-62761115D01*
X139977070Y-62821400D01*
X138177531Y-62821400D01*
X138078600Y-62722469D01*
X138078600Y-62558406D01*
X138150000Y-62558406D01*
X138277589Y-62533027D01*
X138385754Y-62460754D01*
X138458027Y-62352589D01*
X138483406Y-62225000D01*
X138483406Y-59725000D01*
X138458027Y-59597411D01*
X138385754Y-59489246D01*
X138277589Y-59416973D01*
X138150000Y-59391594D01*
X137150000Y-59391594D01*
X137022411Y-59416973D01*
X136914246Y-59489246D01*
X136841973Y-59597411D01*
X136816594Y-59725000D01*
X136816594Y-62225000D01*
X136841973Y-62352589D01*
X136914246Y-62460754D01*
X137022411Y-62533027D01*
X137150000Y-62558406D01*
X137221400Y-62558406D01*
X137221400Y-62857791D01*
X137213004Y-62900000D01*
X137221400Y-62942209D01*
X137246268Y-63067230D01*
X137340997Y-63209003D01*
X137376786Y-63232917D01*
X137667086Y-63523218D01*
X137690997Y-63559003D01*
X137832769Y-63653732D01*
X137957790Y-63678600D01*
X137957791Y-63678600D01*
X138000000Y-63686996D01*
X138042209Y-63678600D01*
X138984655Y-63678600D01*
X138921973Y-63772411D01*
X138896594Y-63900000D01*
X138896594Y-65046400D01*
X138852532Y-65046400D01*
X136531316Y-62725186D01*
X136507402Y-62689396D01*
X136365630Y-62594667D01*
X136240609Y-62569799D01*
X136240608Y-62569799D01*
X136198399Y-62561403D01*
X136156190Y-62569799D01*
X136154498Y-62569799D01*
X136245000Y-62351309D01*
X136245000Y-61260750D01*
X136086250Y-61102000D01*
X135237000Y-61102000D01*
X135237000Y-61122000D01*
X134983000Y-61122000D01*
X134983000Y-61102000D01*
X134133750Y-61102000D01*
X133975000Y-61260750D01*
X133975000Y-62351309D01*
X134065502Y-62569799D01*
X134020931Y-62569799D01*
X133403406Y-61952275D01*
X133403406Y-59725000D01*
X133378027Y-59597411D01*
X133305754Y-59489246D01*
X133197589Y-59416973D01*
X133070000Y-59391594D01*
X132070000Y-59391594D01*
X131942411Y-59416973D01*
X131834246Y-59489246D01*
X131761973Y-59597411D01*
X131736594Y-59725000D01*
X131736594Y-62225000D01*
X131761973Y-62352589D01*
X131834246Y-62460754D01*
X131942411Y-62533027D01*
X132070000Y-62558406D01*
X132797275Y-62558406D01*
X133510486Y-63271617D01*
X133534396Y-63307402D01*
X133676168Y-63402131D01*
X133801189Y-63426999D01*
X133843398Y-63435395D01*
X133885607Y-63426999D01*
X135126181Y-63426999D01*
X135073000Y-63555391D01*
X135073000Y-63844609D01*
X135183679Y-64111813D01*
X135388187Y-64316321D01*
X135655391Y-64427000D01*
X135920870Y-64427000D01*
X136771400Y-65277531D01*
X136771400Y-65625518D01*
X136644609Y-65573000D01*
X136355391Y-65573000D01*
X136088187Y-65683679D01*
X135883679Y-65888187D01*
X135773000Y-66155391D01*
X135773000Y-66444609D01*
X135883679Y-66711813D01*
X136071400Y-66899534D01*
X136071400Y-66957791D01*
X136063004Y-67000000D01*
X136071400Y-67042209D01*
X136096268Y-67167230D01*
X136190997Y-67309003D01*
X136226786Y-67332917D01*
X136368190Y-67474321D01*
X136368190Y-70940056D01*
X136211813Y-70783679D01*
X135944609Y-70673000D01*
X135655391Y-70673000D01*
X135388187Y-70783679D01*
X135183679Y-70988187D01*
X135073000Y-71255391D01*
X135073000Y-71544609D01*
X135183679Y-71811813D01*
X135371400Y-71999534D01*
X135371400Y-72110636D01*
X135363004Y-72152845D01*
X135371400Y-72195054D01*
X135396268Y-72320075D01*
X135490997Y-72461848D01*
X135526787Y-72485762D01*
X135871401Y-72830377D01*
X135871400Y-76822468D01*
X134326785Y-78367085D01*
X134290998Y-78390997D01*
X134229070Y-78483679D01*
X134196269Y-78532769D01*
X134163004Y-78700000D01*
X134171401Y-78742213D01*
X134171400Y-79957791D01*
X134163004Y-80000000D01*
X134171400Y-80042209D01*
X134196268Y-80167230D01*
X134290997Y-80309003D01*
X134326787Y-80332917D01*
X134671401Y-80677532D01*
X134671400Y-81857791D01*
X134663004Y-81900000D01*
X134671400Y-81942209D01*
X134696268Y-82067230D01*
X134790997Y-82209003D01*
X134826787Y-82232917D01*
X136771401Y-84177533D01*
X136771400Y-84874638D01*
X136759794Y-84932985D01*
X136768190Y-84975194D01*
X136768190Y-85025678D01*
X135720869Y-86073000D01*
X135455391Y-86073000D01*
X135188187Y-86183679D01*
X134983679Y-86388187D01*
X134873000Y-86655391D01*
X134873000Y-86944609D01*
X134983679Y-87211813D01*
X135188187Y-87416321D01*
X135455391Y-87527000D01*
X135744609Y-87527000D01*
X136011813Y-87416321D01*
X136216321Y-87211813D01*
X136327000Y-86944609D01*
X136327000Y-86679131D01*
X137171400Y-85834731D01*
X137171401Y-87857786D01*
X137163004Y-87900000D01*
X137186853Y-88019893D01*
X137196269Y-88067231D01*
X137290998Y-88209003D01*
X137326785Y-88232915D01*
X138373000Y-89279131D01*
X138373000Y-89544609D01*
X138483679Y-89811813D01*
X138688187Y-90016321D01*
X138849218Y-90083022D01*
X138776785Y-90155455D01*
X138740998Y-90179367D01*
X138650371Y-90315000D01*
X138646269Y-90321139D01*
X138613004Y-90488370D01*
X138621401Y-90530583D01*
X138621400Y-91250466D01*
X138433679Y-91438187D01*
X138323000Y-91705391D01*
X138323000Y-91994609D01*
X138433679Y-92261813D01*
X138638187Y-92466321D01*
X138905391Y-92577000D01*
X139194609Y-92577000D01*
X139461813Y-92466321D01*
X139666321Y-92261813D01*
X139776211Y-91996513D01*
X139776211Y-93721594D01*
X139170000Y-93721594D01*
X139042411Y-93746973D01*
X138934246Y-93819246D01*
X138861973Y-93927411D01*
X138836594Y-94055000D01*
X138836594Y-96555000D01*
X138861973Y-96682589D01*
X138934246Y-96790754D01*
X138945090Y-96798000D01*
X129014391Y-96798000D01*
X128495938Y-96723752D01*
X128032401Y-96512994D01*
X127646644Y-96180604D01*
X127369688Y-95753312D01*
X127221787Y-95258766D01*
X127202000Y-94992499D01*
X127202000Y-87106275D01*
X127213829Y-87088571D01*
X127231447Y-87000000D01*
X127213829Y-86911429D01*
X127163658Y-86836342D01*
X127127000Y-86811848D01*
X127127000Y-84188152D01*
X127163658Y-84163658D01*
X127213829Y-84088571D01*
X127231447Y-84000000D01*
X127213829Y-83911429D01*
X127202000Y-83893725D01*
X127202000Y-74106275D01*
X127213829Y-74088571D01*
X127231447Y-74000000D01*
X127213829Y-73911429D01*
X127163658Y-73836342D01*
X127127000Y-73811848D01*
X127127000Y-71188152D01*
X127163658Y-71163658D01*
X127213829Y-71088571D01*
X127231447Y-71000000D01*
X127227000Y-70977644D01*
X127227000Y-68134315D01*
X128363004Y-68134315D01*
X128371400Y-68176524D01*
X128371401Y-74657786D01*
X128371400Y-74657791D01*
X128371401Y-79157786D01*
X128363004Y-79200000D01*
X128387598Y-79323638D01*
X128396269Y-79367231D01*
X128490998Y-79509003D01*
X128526785Y-79532915D01*
X130573000Y-81579132D01*
X130573000Y-81844609D01*
X130683679Y-82111813D01*
X130888187Y-82316321D01*
X131155391Y-82427000D01*
X131166869Y-82427000D01*
X131026787Y-82567083D01*
X130990997Y-82590997D01*
X130896268Y-82732770D01*
X130892841Y-82750000D01*
X130863004Y-82900000D01*
X130871400Y-82942209D01*
X130871401Y-83700465D01*
X130683679Y-83888187D01*
X130573000Y-84155391D01*
X130573000Y-84444609D01*
X130683679Y-84711813D01*
X130888187Y-84916321D01*
X131092797Y-85001073D01*
X130526787Y-85567083D01*
X130490997Y-85590997D01*
X130396268Y-85732770D01*
X130371400Y-85857790D01*
X130363004Y-85900000D01*
X130371400Y-85942209D01*
X130371401Y-88757786D01*
X130363004Y-88800000D01*
X130391960Y-88945570D01*
X130396269Y-88967231D01*
X130490998Y-89109003D01*
X130526785Y-89132915D01*
X130573000Y-89179130D01*
X130573000Y-89444609D01*
X130683679Y-89711813D01*
X130888187Y-89916321D01*
X131155391Y-90027000D01*
X131444609Y-90027000D01*
X131711813Y-89916321D01*
X131911982Y-89716152D01*
X132573000Y-89716152D01*
X132573000Y-90283848D01*
X132790247Y-90808331D01*
X133191669Y-91209753D01*
X133716152Y-91427000D01*
X134283848Y-91427000D01*
X134808331Y-91209753D01*
X135209753Y-90808331D01*
X135427000Y-90283848D01*
X135427000Y-89716152D01*
X135209753Y-89191669D01*
X134808331Y-88790247D01*
X134283848Y-88573000D01*
X133716152Y-88573000D01*
X133191669Y-88790247D01*
X132790247Y-89191669D01*
X132573000Y-89716152D01*
X131911982Y-89716152D01*
X131916321Y-89711813D01*
X132027000Y-89444609D01*
X132027000Y-89155391D01*
X131916321Y-88888187D01*
X131711813Y-88683679D01*
X131444609Y-88573000D01*
X131228600Y-88573000D01*
X131228600Y-86077530D01*
X132678029Y-84628102D01*
X132713814Y-84604192D01*
X132808543Y-84462420D01*
X132833411Y-84337399D01*
X132833411Y-84337395D01*
X132841806Y-84295190D01*
X132833411Y-84252985D01*
X132833411Y-81147021D01*
X132841807Y-81104811D01*
X132808543Y-80937579D01*
X132737724Y-80831592D01*
X132713814Y-80795808D01*
X132678030Y-80771898D01*
X130035020Y-78128890D01*
X130035020Y-75671110D01*
X131079131Y-74627000D01*
X131344609Y-74627000D01*
X131611813Y-74516321D01*
X131816321Y-74311813D01*
X131927000Y-74044609D01*
X131927000Y-73755391D01*
X131816321Y-73488187D01*
X131611813Y-73283679D01*
X131344609Y-73173000D01*
X131055391Y-73173000D01*
X130788187Y-73283679D01*
X130583679Y-73488187D01*
X130473000Y-73755391D01*
X130473000Y-74020869D01*
X129631810Y-74862060D01*
X129631810Y-70508635D01*
X130706156Y-69434290D01*
X130788187Y-69516321D01*
X131055391Y-69627000D01*
X131344609Y-69627000D01*
X131611813Y-69516321D01*
X131816321Y-69311813D01*
X131927000Y-69044609D01*
X131927000Y-68755391D01*
X131816321Y-68488187D01*
X131611813Y-68283679D01*
X131344609Y-68173000D01*
X131055391Y-68173000D01*
X130788187Y-68283679D01*
X130602542Y-68469324D01*
X130592105Y-68471400D01*
X130467084Y-68496268D01*
X130325312Y-68590997D01*
X130301402Y-68626782D01*
X129228600Y-69699585D01*
X129228600Y-68311845D01*
X130706156Y-66834290D01*
X130788187Y-66916321D01*
X131055391Y-67027000D01*
X131344609Y-67027000D01*
X131611813Y-66916321D01*
X131816321Y-66711813D01*
X131927000Y-66444609D01*
X131927000Y-66155391D01*
X131816321Y-65888187D01*
X131644286Y-65716152D01*
X132573000Y-65716152D01*
X132573000Y-66283848D01*
X132790247Y-66808331D01*
X133191669Y-67209753D01*
X133716152Y-67427000D01*
X134283848Y-67427000D01*
X134808331Y-67209753D01*
X135209753Y-66808331D01*
X135427000Y-66283848D01*
X135427000Y-65716152D01*
X135209753Y-65191669D01*
X134808331Y-64790247D01*
X134283848Y-64573000D01*
X133716152Y-64573000D01*
X133191669Y-64790247D01*
X132790247Y-65191669D01*
X132573000Y-65716152D01*
X131644286Y-65716152D01*
X131611813Y-65683679D01*
X131344609Y-65573000D01*
X131055391Y-65573000D01*
X130788187Y-65683679D01*
X130602542Y-65869324D01*
X130592105Y-65871400D01*
X130467084Y-65896268D01*
X130325312Y-65990997D01*
X130301402Y-66026781D01*
X128526787Y-67801398D01*
X128490997Y-67825312D01*
X128396268Y-67967085D01*
X128373218Y-68082966D01*
X128363004Y-68134315D01*
X127227000Y-68134315D01*
X127227000Y-60977644D01*
X127215525Y-60919953D01*
X127276248Y-60495939D01*
X127487006Y-60032401D01*
X127819396Y-59646644D01*
X128246688Y-59369688D01*
X128741234Y-59221787D01*
X128905113Y-59209609D01*
X128911429Y-59213829D01*
X128977644Y-59227000D01*
X132022356Y-59227000D01*
X132088571Y-59213829D01*
X132106275Y-59202000D01*
X134234974Y-59202000D01*
X134071673Y-59365302D01*
X134071673Y-59365302D01*
G37*
X134071673Y-59365302D02*
X133975000Y-59598691D01*
X133975000Y-60689250D01*
X134133750Y-60848000D01*
X134983000Y-60848000D01*
X134983000Y-60828000D01*
X135237000Y-60828000D01*
X135237000Y-60848000D01*
X136086250Y-60848000D01*
X136245000Y-60689250D01*
X136245000Y-59598691D01*
X136148327Y-59365302D01*
X135985026Y-59202000D01*
X141854974Y-59202000D01*
X141691673Y-59365302D01*
X141595000Y-59598691D01*
X141595000Y-60689250D01*
X141753750Y-60848000D01*
X142603000Y-60848000D01*
X142603000Y-60828000D01*
X142857000Y-60828000D01*
X142857000Y-60848000D01*
X143706250Y-60848000D01*
X143865000Y-60689250D01*
X143865000Y-59598691D01*
X143768327Y-59365302D01*
X143605026Y-59202000D01*
X157985609Y-59202000D01*
X158504061Y-59276248D01*
X158967599Y-59487006D01*
X159353356Y-59819396D01*
X159630312Y-60246688D01*
X159778213Y-60741234D01*
X159790391Y-60905114D01*
X159786171Y-60911430D01*
X159773000Y-60977645D01*
X159773001Y-63022356D01*
X159786172Y-63088571D01*
X159798000Y-63106273D01*
X159798000Y-63289020D01*
X159727589Y-63241973D01*
X159600000Y-63216594D01*
X157900000Y-63216594D01*
X157772411Y-63241973D01*
X157664246Y-63314246D01*
X157591973Y-63422411D01*
X157566594Y-63550000D01*
X157566594Y-63571400D01*
X157349534Y-63571400D01*
X157161813Y-63383679D01*
X156894609Y-63273000D01*
X156605391Y-63273000D01*
X156338187Y-63383679D01*
X156133679Y-63588187D01*
X156023000Y-63855391D01*
X156023000Y-64144609D01*
X156133679Y-64411813D01*
X156338187Y-64616321D01*
X156605391Y-64727000D01*
X156894609Y-64727000D01*
X157161813Y-64616321D01*
X157349534Y-64428600D01*
X157566594Y-64428600D01*
X157566594Y-64450000D01*
X157591973Y-64577589D01*
X157664246Y-64685754D01*
X157772411Y-64758027D01*
X157900000Y-64783406D01*
X159600000Y-64783406D01*
X159727589Y-64758027D01*
X159798000Y-64710980D01*
X159798000Y-66344695D01*
X159726310Y-66315000D01*
X159035750Y-66315000D01*
X158877000Y-66473750D01*
X158877000Y-67273000D01*
X158897000Y-67273000D01*
X158897000Y-67527000D01*
X158877000Y-67527000D01*
X158877000Y-68326250D01*
X159035750Y-68485000D01*
X159726310Y-68485000D01*
X159798000Y-68455305D01*
X159798000Y-71194695D01*
X159726310Y-71165000D01*
X159035750Y-71165000D01*
X158877000Y-71323750D01*
X158877000Y-72123000D01*
X158897000Y-72123000D01*
X158897000Y-72377000D01*
X158877000Y-72377000D01*
X158877000Y-73176250D01*
X159035750Y-73335000D01*
X159726310Y-73335000D01*
X159798000Y-73305305D01*
X159798000Y-74939020D01*
X159727589Y-74891973D01*
X159600000Y-74866594D01*
X157900000Y-74866594D01*
X157772411Y-74891973D01*
X157664246Y-74964246D01*
X157591973Y-75072411D01*
X157566594Y-75200000D01*
X157566594Y-75288460D01*
X157411813Y-75133679D01*
X157144609Y-75023000D01*
X156855391Y-75023000D01*
X156588187Y-75133679D01*
X156383679Y-75338187D01*
X156273000Y-75605391D01*
X156273000Y-75894609D01*
X156383679Y-76161813D01*
X156588187Y-76366321D01*
X156855391Y-76477000D01*
X157144609Y-76477000D01*
X157411813Y-76366321D01*
X157585100Y-76193034D01*
X157591973Y-76227589D01*
X157664246Y-76335754D01*
X157772411Y-76408027D01*
X157900000Y-76433406D01*
X159600000Y-76433406D01*
X159727589Y-76408027D01*
X159798000Y-76360980D01*
X159798001Y-79294695D01*
X159726310Y-79265000D01*
X159035750Y-79265000D01*
X158877000Y-79423750D01*
X158877000Y-80223000D01*
X158897000Y-80223000D01*
X158897000Y-80477000D01*
X158877000Y-80477000D01*
X158877000Y-81276250D01*
X159035750Y-81435000D01*
X159726310Y-81435000D01*
X159798001Y-81405305D01*
X159798001Y-83039020D01*
X159727589Y-82991973D01*
X159600000Y-82966594D01*
X157900000Y-82966594D01*
X157772411Y-82991973D01*
X157664246Y-83064246D01*
X157591973Y-83172411D01*
X157568509Y-83290375D01*
X157411813Y-83133679D01*
X157144609Y-83023000D01*
X156855391Y-83023000D01*
X156588187Y-83133679D01*
X156383679Y-83338187D01*
X156273000Y-83605391D01*
X156273000Y-83894609D01*
X156383679Y-84161813D01*
X156588187Y-84366321D01*
X156855391Y-84477000D01*
X157144609Y-84477000D01*
X157411813Y-84366321D01*
X157568509Y-84209625D01*
X157591973Y-84327589D01*
X157664246Y-84435754D01*
X157772411Y-84508027D01*
X157900000Y-84533406D01*
X159600000Y-84533406D01*
X159727589Y-84508027D01*
X159798001Y-84460980D01*
X159798001Y-87289020D01*
X159727589Y-87241973D01*
X159600000Y-87216594D01*
X158576106Y-87216594D01*
X158559003Y-87190997D01*
X158417231Y-87096268D01*
X158292210Y-87071400D01*
X158292209Y-87071400D01*
X158250000Y-87063004D01*
X158207791Y-87071400D01*
X151349534Y-87071400D01*
X151161813Y-86883679D01*
X150894609Y-86773000D01*
X150605391Y-86773000D01*
X150338187Y-86883679D01*
X150133679Y-87088187D01*
X150023000Y-87355391D01*
X150023000Y-87644609D01*
X150133679Y-87911813D01*
X150338187Y-88116321D01*
X150605391Y-88227000D01*
X150894609Y-88227000D01*
X151161813Y-88116321D01*
X151349534Y-87928600D01*
X157566594Y-87928600D01*
X157566594Y-88450000D01*
X157591973Y-88577589D01*
X157664246Y-88685754D01*
X157772411Y-88758027D01*
X157900000Y-88783406D01*
X159600000Y-88783406D01*
X159727589Y-88758027D01*
X159798001Y-88710980D01*
X159798001Y-90344695D01*
X159726310Y-90315000D01*
X159035750Y-90315000D01*
X158877000Y-90473750D01*
X158877000Y-91273000D01*
X158897000Y-91273000D01*
X158897000Y-91527000D01*
X158877000Y-91527000D01*
X158877000Y-92326250D01*
X159035750Y-92485000D01*
X159726310Y-92485000D01*
X159798001Y-92455305D01*
X159798001Y-94985602D01*
X159723752Y-95504062D01*
X159512994Y-95967599D01*
X159180604Y-96353356D01*
X158753312Y-96630312D01*
X158258766Y-96778213D01*
X157992499Y-96798000D01*
X150916665Y-96798000D01*
X150965000Y-96681309D01*
X150965000Y-95590750D01*
X150806250Y-95432000D01*
X149957000Y-95432000D01*
X149957000Y-95452000D01*
X149703000Y-95452000D01*
X149703000Y-95432000D01*
X148853750Y-95432000D01*
X148695000Y-95590750D01*
X148695000Y-96681309D01*
X148743335Y-96798000D01*
X148014910Y-96798000D01*
X148025754Y-96790754D01*
X148098027Y-96682589D01*
X148123406Y-96555000D01*
X148123406Y-94055000D01*
X148098282Y-93928691D01*
X148695000Y-93928691D01*
X148695000Y-95019250D01*
X148853750Y-95178000D01*
X149703000Y-95178000D01*
X149703000Y-93578750D01*
X149957000Y-93578750D01*
X149957000Y-95178000D01*
X150806250Y-95178000D01*
X150965000Y-95019250D01*
X150965000Y-93928691D01*
X150868327Y-93695302D01*
X150689699Y-93516673D01*
X150456310Y-93420000D01*
X150115750Y-93420000D01*
X149957000Y-93578750D01*
X149703000Y-93578750D01*
X149544250Y-93420000D01*
X149203690Y-93420000D01*
X148970301Y-93516673D01*
X148791673Y-93695302D01*
X148695000Y-93928691D01*
X148098282Y-93928691D01*
X148098027Y-93927411D01*
X148025754Y-93819246D01*
X147917589Y-93746973D01*
X147790000Y-93721594D01*
X147062726Y-93721594D01*
X145428600Y-92087470D01*
X145428600Y-91685750D01*
X157265000Y-91685750D01*
X157265000Y-91976309D01*
X157361673Y-92209698D01*
X157540301Y-92388327D01*
X157773690Y-92485000D01*
X158464250Y-92485000D01*
X158623000Y-92326250D01*
X158623000Y-91527000D01*
X157423750Y-91527000D01*
X157265000Y-91685750D01*
X145428600Y-91685750D01*
X145428600Y-89716152D01*
X146573000Y-89716152D01*
X146573000Y-90283848D01*
X146790247Y-90808331D01*
X147191669Y-91209753D01*
X147716152Y-91427000D01*
X148283848Y-91427000D01*
X148808331Y-91209753D01*
X149194393Y-90823691D01*
X157265000Y-90823691D01*
X157265000Y-91114250D01*
X157423750Y-91273000D01*
X158623000Y-91273000D01*
X158623000Y-90473750D01*
X158464250Y-90315000D01*
X157773690Y-90315000D01*
X157540301Y-90411673D01*
X157361673Y-90590302D01*
X157265000Y-90823691D01*
X149194393Y-90823691D01*
X149209753Y-90808331D01*
X149427000Y-90283848D01*
X149427000Y-89716152D01*
X149209753Y-89191669D01*
X148808331Y-88790247D01*
X148283848Y-88573000D01*
X147716152Y-88573000D01*
X147191669Y-88790247D01*
X146790247Y-89191669D01*
X146573000Y-89716152D01*
X145428600Y-89716152D01*
X145428600Y-87932733D01*
X148129132Y-85232203D01*
X148394609Y-85232203D01*
X148661813Y-85121524D01*
X148866321Y-84917016D01*
X148977000Y-84649812D01*
X148977000Y-84360594D01*
X148866321Y-84093390D01*
X148661813Y-83888882D01*
X148394609Y-83778203D01*
X148105391Y-83778203D01*
X147838187Y-83888882D01*
X147633679Y-84093390D01*
X147523000Y-84360594D01*
X147523000Y-84626071D01*
X144726787Y-87422286D01*
X144690997Y-87446200D01*
X144596268Y-87587973D01*
X144571400Y-87712993D01*
X144563004Y-87755203D01*
X144571400Y-87797412D01*
X144571401Y-92222786D01*
X144563004Y-92265000D01*
X144584661Y-92373875D01*
X144596269Y-92432231D01*
X144690998Y-92574003D01*
X144726785Y-92597915D01*
X146456594Y-94327726D01*
X146456594Y-96555000D01*
X146481973Y-96682589D01*
X146554246Y-96790754D01*
X146565090Y-96798000D01*
X145474910Y-96798000D01*
X145485754Y-96790754D01*
X145558027Y-96682589D01*
X145583406Y-96555000D01*
X145583406Y-94055000D01*
X145558027Y-93927411D01*
X145485754Y-93819246D01*
X145377589Y-93746973D01*
X145250000Y-93721594D01*
X144250000Y-93721594D01*
X144122411Y-93746973D01*
X144014246Y-93819246D01*
X143941973Y-93927411D01*
X143916594Y-94055000D01*
X143916594Y-94568663D01*
X143678600Y-94330670D01*
X143678600Y-84849534D01*
X143866321Y-84661813D01*
X143977000Y-84394609D01*
X143977000Y-84105391D01*
X143866321Y-83838187D01*
X143661813Y-83633679D01*
X143500783Y-83566978D01*
X143903708Y-83164054D01*
X143955601Y-83153732D01*
X144097373Y-83059003D01*
X144121287Y-83023213D01*
X146508751Y-80635750D01*
X157265000Y-80635750D01*
X157265000Y-80926309D01*
X157361673Y-81159698D01*
X157540301Y-81338327D01*
X157773690Y-81435000D01*
X158464250Y-81435000D01*
X158623000Y-81276250D01*
X158623000Y-80477000D01*
X157423750Y-80477000D01*
X157265000Y-80635750D01*
X146508751Y-80635750D01*
X147370810Y-79773691D01*
X157265000Y-79773691D01*
X157265000Y-80064250D01*
X157423750Y-80223000D01*
X158623000Y-80223000D01*
X158623000Y-79423750D01*
X158464250Y-79265000D01*
X157773690Y-79265000D01*
X157540301Y-79361673D01*
X157361673Y-79540302D01*
X157265000Y-79773691D01*
X147370810Y-79773691D01*
X148177532Y-78966970D01*
X148419421Y-78966970D01*
X148461630Y-78975366D01*
X148503839Y-78966970D01*
X148503840Y-78966970D01*
X148628861Y-78942102D01*
X148770633Y-78847373D01*
X148794547Y-78811583D01*
X149079131Y-78527000D01*
X149344609Y-78527000D01*
X149611813Y-78416321D01*
X149816321Y-78211813D01*
X149927000Y-77944609D01*
X149927000Y-77655391D01*
X149816321Y-77388187D01*
X149611813Y-77183679D01*
X149344609Y-77073000D01*
X149055391Y-77073000D01*
X148788187Y-77183679D01*
X148583679Y-77388187D01*
X148473000Y-77655391D01*
X148473000Y-77920869D01*
X148284100Y-78109770D01*
X148042208Y-78109770D01*
X147999999Y-78101374D01*
X147957790Y-78109770D01*
X147832769Y-78134638D01*
X147690997Y-78229367D01*
X147667087Y-78265151D01*
X146683021Y-79249217D01*
X146616321Y-79088187D01*
X146411813Y-78883679D01*
X146144609Y-78773000D01*
X145912224Y-78773000D01*
X145788133Y-78648909D01*
X145688400Y-78582269D01*
X145332917Y-78226787D01*
X145309003Y-78190997D01*
X145167231Y-78096268D01*
X145042210Y-78071400D01*
X145042209Y-78071400D01*
X145000000Y-78063004D01*
X144957791Y-78071400D01*
X144427532Y-78071400D01*
X143202361Y-76846230D01*
X143782161Y-76846230D01*
X143782161Y-77135448D01*
X143892840Y-77402652D01*
X144097348Y-77607160D01*
X144364552Y-77717839D01*
X144653770Y-77717839D01*
X144920974Y-77607160D01*
X145108695Y-77419439D01*
X146716952Y-77419439D01*
X146759161Y-77427835D01*
X146801370Y-77419439D01*
X146801371Y-77419439D01*
X146926392Y-77394571D01*
X147068164Y-77299842D01*
X147092078Y-77264052D01*
X151820381Y-72535750D01*
X157265000Y-72535750D01*
X157265000Y-72826309D01*
X157361673Y-73059698D01*
X157540301Y-73238327D01*
X157773690Y-73335000D01*
X158464250Y-73335000D01*
X158623000Y-73176250D01*
X158623000Y-72377000D01*
X157423750Y-72377000D01*
X157265000Y-72535750D01*
X151820381Y-72535750D01*
X152773219Y-71582913D01*
X152809003Y-71559003D01*
X152903732Y-71417231D01*
X152919989Y-71335499D01*
X153023000Y-71335499D01*
X153023000Y-71664501D01*
X153148903Y-71968458D01*
X153381542Y-72201097D01*
X153685499Y-72327000D01*
X154014501Y-72327000D01*
X154318458Y-72201097D01*
X154551097Y-71968458D01*
X154677000Y-71664501D01*
X154677000Y-71335499D01*
X154923000Y-71335499D01*
X154923000Y-71664501D01*
X155048903Y-71968458D01*
X155281542Y-72201097D01*
X155585499Y-72327000D01*
X155914501Y-72327000D01*
X156218458Y-72201097D01*
X156451097Y-71968458D01*
X156573193Y-71673691D01*
X157265000Y-71673691D01*
X157265000Y-71964250D01*
X157423750Y-72123000D01*
X158623000Y-72123000D01*
X158623000Y-71323750D01*
X158464250Y-71165000D01*
X157773690Y-71165000D01*
X157540301Y-71261673D01*
X157361673Y-71440302D01*
X157265000Y-71673691D01*
X156573193Y-71673691D01*
X156577000Y-71664501D01*
X156577000Y-71335499D01*
X156451097Y-71031542D01*
X156218458Y-70798903D01*
X155914501Y-70673000D01*
X155585499Y-70673000D01*
X155281542Y-70798903D01*
X155048903Y-71031542D01*
X154923000Y-71335499D01*
X154677000Y-71335499D01*
X154551097Y-71031542D01*
X154318458Y-70798903D01*
X154014501Y-70673000D01*
X153685499Y-70673000D01*
X153381542Y-70798903D01*
X153148903Y-71031542D01*
X153023000Y-71335499D01*
X152919989Y-71335499D01*
X152928600Y-71292210D01*
X152928600Y-71292206D01*
X152936995Y-71250001D01*
X152928600Y-71207796D01*
X152928600Y-67685750D01*
X157265000Y-67685750D01*
X157265000Y-67976309D01*
X157361673Y-68209698D01*
X157540301Y-68388327D01*
X157773690Y-68485000D01*
X158464250Y-68485000D01*
X158623000Y-68326250D01*
X158623000Y-67527000D01*
X157423750Y-67527000D01*
X157265000Y-67685750D01*
X152928600Y-67685750D01*
X152928600Y-66823691D01*
X157265000Y-66823691D01*
X157265000Y-67114250D01*
X157423750Y-67273000D01*
X158623000Y-67273000D01*
X158623000Y-66473750D01*
X158464250Y-66315000D01*
X157773690Y-66315000D01*
X157540301Y-66411673D01*
X157361673Y-66590302D01*
X157265000Y-66823691D01*
X152928600Y-66823691D01*
X152928600Y-64832530D01*
X155202726Y-62558406D01*
X155930000Y-62558406D01*
X156057589Y-62533027D01*
X156165754Y-62460754D01*
X156238027Y-62352589D01*
X156263406Y-62225000D01*
X156263406Y-59725000D01*
X156238027Y-59597411D01*
X156165754Y-59489246D01*
X156057589Y-59416973D01*
X155930000Y-59391594D01*
X154930000Y-59391594D01*
X154802411Y-59416973D01*
X154694246Y-59489246D01*
X154621973Y-59597411D01*
X154596594Y-59725000D01*
X154596594Y-61952274D01*
X152525390Y-64023480D01*
X152525390Y-63398940D01*
X153163219Y-62761113D01*
X153199003Y-62737203D01*
X153293732Y-62595431D01*
X153301097Y-62558406D01*
X153390000Y-62558406D01*
X153517589Y-62533027D01*
X153625754Y-62460754D01*
X153698027Y-62352589D01*
X153723406Y-62225000D01*
X153723406Y-59725000D01*
X153698027Y-59597411D01*
X153625754Y-59489246D01*
X153517589Y-59416973D01*
X153390000Y-59391594D01*
X152390000Y-59391594D01*
X152262411Y-59416973D01*
X152154246Y-59489246D01*
X152081973Y-59597411D01*
X152056594Y-59725000D01*
X152056594Y-62225000D01*
X152081973Y-62352589D01*
X152154246Y-62460754D01*
X152212435Y-62499634D01*
X151823575Y-62888495D01*
X151787788Y-62912407D01*
X151707683Y-63032293D01*
X151693059Y-63054179D01*
X151672377Y-63158152D01*
X151019349Y-62505124D01*
X151085754Y-62460754D01*
X151158027Y-62352589D01*
X151183406Y-62225000D01*
X151183406Y-59725000D01*
X151158027Y-59597411D01*
X151085754Y-59489246D01*
X150977589Y-59416973D01*
X150850000Y-59391594D01*
X149850000Y-59391594D01*
X149722411Y-59416973D01*
X149614246Y-59489246D01*
X149541973Y-59597411D01*
X149516594Y-59725000D01*
X149516594Y-62225000D01*
X149541973Y-62352589D01*
X149614246Y-62460754D01*
X149722411Y-62533027D01*
X149850000Y-62558406D01*
X149905735Y-62558406D01*
X149924225Y-62651361D01*
X149998909Y-62763133D01*
X150024127Y-62800874D01*
X150061867Y-62826091D01*
X151048000Y-63812225D01*
X151048000Y-64323776D01*
X148643406Y-61919182D01*
X148643406Y-59725000D01*
X148618027Y-59597411D01*
X148545754Y-59489246D01*
X148437589Y-59416973D01*
X148310000Y-59391594D01*
X147310000Y-59391594D01*
X147182411Y-59416973D01*
X147074246Y-59489246D01*
X147001973Y-59597411D01*
X146976594Y-59725000D01*
X146976594Y-62225000D01*
X147001973Y-62352589D01*
X147074246Y-62460754D01*
X147182411Y-62533027D01*
X147310000Y-62558406D01*
X148004182Y-62558406D01*
X150498000Y-65052224D01*
X150498001Y-70112774D01*
X146531199Y-74079577D01*
X146394609Y-74023000D01*
X146105391Y-74023000D01*
X145838187Y-74133679D01*
X145633679Y-74338187D01*
X145523000Y-74605391D01*
X145523000Y-74894609D01*
X145538891Y-74932975D01*
X145383679Y-75088187D01*
X145273000Y-75355391D01*
X145273000Y-75523000D01*
X145105391Y-75523000D01*
X144838187Y-75633679D01*
X144633679Y-75838187D01*
X144523000Y-76105391D01*
X144523000Y-76263839D01*
X144364552Y-76263839D01*
X144097348Y-76374518D01*
X143892840Y-76579026D01*
X143782161Y-76846230D01*
X143202361Y-76846230D01*
X143178600Y-76822470D01*
X143178600Y-75536125D01*
X145378030Y-73336697D01*
X145413814Y-73312787D01*
X145471281Y-73226782D01*
X145508543Y-73171016D01*
X145541807Y-73003784D01*
X145533411Y-72961574D01*
X145533411Y-72038420D01*
X145541806Y-71996215D01*
X145533411Y-71954010D01*
X145533411Y-71954006D01*
X145508543Y-71828985D01*
X145413814Y-71687213D01*
X145378030Y-71663303D01*
X144941509Y-71226783D01*
X144899550Y-71184824D01*
X144831810Y-71083444D01*
X144831810Y-65716152D01*
X146573000Y-65716152D01*
X146573000Y-66283848D01*
X146790247Y-66808331D01*
X147191669Y-67209753D01*
X147716152Y-67427000D01*
X148283848Y-67427000D01*
X148808331Y-67209753D01*
X149209753Y-66808331D01*
X149427000Y-66283848D01*
X149427000Y-65716152D01*
X149209753Y-65191669D01*
X148808331Y-64790247D01*
X148283848Y-64573000D01*
X147716152Y-64573000D01*
X147191669Y-64790247D01*
X146790247Y-65191669D01*
X146573000Y-65716152D01*
X144831810Y-65716152D01*
X144831810Y-64036590D01*
X144883679Y-64161813D01*
X145088187Y-64366321D01*
X145355391Y-64477000D01*
X145644609Y-64477000D01*
X145911813Y-64366321D01*
X146116321Y-64161813D01*
X146227000Y-63894609D01*
X146227000Y-63605391D01*
X146116321Y-63338187D01*
X145911813Y-63133679D01*
X145722000Y-63055056D01*
X145722000Y-62558406D01*
X145770000Y-62558406D01*
X145897589Y-62533027D01*
X146005754Y-62460754D01*
X146078027Y-62352589D01*
X146103406Y-62225000D01*
X146103406Y-59725000D01*
X146078027Y-59597411D01*
X146005754Y-59489246D01*
X145897589Y-59416973D01*
X145770000Y-59391594D01*
X144770000Y-59391594D01*
X144642411Y-59416973D01*
X144534246Y-59489246D01*
X144461973Y-59597411D01*
X144436594Y-59725000D01*
X144436594Y-62225000D01*
X144461973Y-62352589D01*
X144534246Y-62460754D01*
X144642411Y-62533027D01*
X144770000Y-62558406D01*
X144818001Y-62558406D01*
X144818001Y-63475478D01*
X144809861Y-63516400D01*
X144773000Y-63605391D01*
X144773000Y-63614956D01*
X144712213Y-63523982D01*
X144676429Y-63500072D01*
X143764690Y-62588335D01*
X143768327Y-62584698D01*
X143865000Y-62351309D01*
X143865000Y-61260750D01*
X143706250Y-61102000D01*
X142857000Y-61102000D01*
X142857000Y-61122000D01*
X142603000Y-61122000D01*
X142603000Y-61102000D01*
X141753750Y-61102000D01*
X141595000Y-61260750D01*
X141595000Y-62321400D01*
X141004231Y-62321400D01*
X141023406Y-62225000D01*
X141023406Y-59725000D01*
X140998027Y-59597411D01*
X140925754Y-59489246D01*
X140817589Y-59416973D01*
X140690000Y-59391594D01*
X139690000Y-59391594D01*
X139562411Y-59416973D01*
X139454246Y-59489246D01*
X139381973Y-59597411D01*
X139356594Y-59725000D01*
X139356594Y-62225000D01*
X139381973Y-62352589D01*
X139454246Y-62460754D01*
X139562411Y-62533027D01*
X139690000Y-62558406D01*
X139778904Y-62558406D01*
X139781987Y-62573903D01*
X139786269Y-62595431D01*
X139880998Y-62737203D01*
X139916785Y-62761115D01*
X139977070Y-62821400D01*
X138177531Y-62821400D01*
X138078600Y-62722469D01*
X138078600Y-62558406D01*
X138150000Y-62558406D01*
X138277589Y-62533027D01*
X138385754Y-62460754D01*
X138458027Y-62352589D01*
X138483406Y-62225000D01*
X138483406Y-59725000D01*
X138458027Y-59597411D01*
X138385754Y-59489246D01*
X138277589Y-59416973D01*
X138150000Y-59391594D01*
X137150000Y-59391594D01*
X137022411Y-59416973D01*
X136914246Y-59489246D01*
X136841973Y-59597411D01*
X136816594Y-59725000D01*
X136816594Y-62225000D01*
X136841973Y-62352589D01*
X136914246Y-62460754D01*
X137022411Y-62533027D01*
X137150000Y-62558406D01*
X137221400Y-62558406D01*
X137221400Y-62857791D01*
X137213004Y-62900000D01*
X137221400Y-62942209D01*
X137246268Y-63067230D01*
X137340997Y-63209003D01*
X137376786Y-63232917D01*
X137667086Y-63523218D01*
X137690997Y-63559003D01*
X137832769Y-63653732D01*
X137957790Y-63678600D01*
X137957791Y-63678600D01*
X138000000Y-63686996D01*
X138042209Y-63678600D01*
X138984655Y-63678600D01*
X138921973Y-63772411D01*
X138896594Y-63900000D01*
X138896594Y-65046400D01*
X138852532Y-65046400D01*
X136531316Y-62725186D01*
X136507402Y-62689396D01*
X136365630Y-62594667D01*
X136240609Y-62569799D01*
X136240608Y-62569799D01*
X136198399Y-62561403D01*
X136156190Y-62569799D01*
X136154498Y-62569799D01*
X136245000Y-62351309D01*
X136245000Y-61260750D01*
X136086250Y-61102000D01*
X135237000Y-61102000D01*
X135237000Y-61122000D01*
X134983000Y-61122000D01*
X134983000Y-61102000D01*
X134133750Y-61102000D01*
X133975000Y-61260750D01*
X133975000Y-62351309D01*
X134065502Y-62569799D01*
X134020931Y-62569799D01*
X133403406Y-61952275D01*
X133403406Y-59725000D01*
X133378027Y-59597411D01*
X133305754Y-59489246D01*
X133197589Y-59416973D01*
X133070000Y-59391594D01*
X132070000Y-59391594D01*
X131942411Y-59416973D01*
X131834246Y-59489246D01*
X131761973Y-59597411D01*
X131736594Y-59725000D01*
X131736594Y-62225000D01*
X131761973Y-62352589D01*
X131834246Y-62460754D01*
X131942411Y-62533027D01*
X132070000Y-62558406D01*
X132797275Y-62558406D01*
X133510486Y-63271617D01*
X133534396Y-63307402D01*
X133676168Y-63402131D01*
X133801189Y-63426999D01*
X133843398Y-63435395D01*
X133885607Y-63426999D01*
X135126181Y-63426999D01*
X135073000Y-63555391D01*
X135073000Y-63844609D01*
X135183679Y-64111813D01*
X135388187Y-64316321D01*
X135655391Y-64427000D01*
X135920870Y-64427000D01*
X136771400Y-65277531D01*
X136771400Y-65625518D01*
X136644609Y-65573000D01*
X136355391Y-65573000D01*
X136088187Y-65683679D01*
X135883679Y-65888187D01*
X135773000Y-66155391D01*
X135773000Y-66444609D01*
X135883679Y-66711813D01*
X136071400Y-66899534D01*
X136071400Y-66957791D01*
X136063004Y-67000000D01*
X136071400Y-67042209D01*
X136096268Y-67167230D01*
X136190997Y-67309003D01*
X136226786Y-67332917D01*
X136368190Y-67474321D01*
X136368190Y-70940056D01*
X136211813Y-70783679D01*
X135944609Y-70673000D01*
X135655391Y-70673000D01*
X135388187Y-70783679D01*
X135183679Y-70988187D01*
X135073000Y-71255391D01*
X135073000Y-71544609D01*
X135183679Y-71811813D01*
X135371400Y-71999534D01*
X135371400Y-72110636D01*
X135363004Y-72152845D01*
X135371400Y-72195054D01*
X135396268Y-72320075D01*
X135490997Y-72461848D01*
X135526787Y-72485762D01*
X135871401Y-72830377D01*
X135871400Y-76822468D01*
X134326785Y-78367085D01*
X134290998Y-78390997D01*
X134229070Y-78483679D01*
X134196269Y-78532769D01*
X134163004Y-78700000D01*
X134171401Y-78742213D01*
X134171400Y-79957791D01*
X134163004Y-80000000D01*
X134171400Y-80042209D01*
X134196268Y-80167230D01*
X134290997Y-80309003D01*
X134326787Y-80332917D01*
X134671401Y-80677532D01*
X134671400Y-81857791D01*
X134663004Y-81900000D01*
X134671400Y-81942209D01*
X134696268Y-82067230D01*
X134790997Y-82209003D01*
X134826787Y-82232917D01*
X136771401Y-84177533D01*
X136771400Y-84874638D01*
X136759794Y-84932985D01*
X136768190Y-84975194D01*
X136768190Y-85025678D01*
X135720869Y-86073000D01*
X135455391Y-86073000D01*
X135188187Y-86183679D01*
X134983679Y-86388187D01*
X134873000Y-86655391D01*
X134873000Y-86944609D01*
X134983679Y-87211813D01*
X135188187Y-87416321D01*
X135455391Y-87527000D01*
X135744609Y-87527000D01*
X136011813Y-87416321D01*
X136216321Y-87211813D01*
X136327000Y-86944609D01*
X136327000Y-86679131D01*
X137171400Y-85834731D01*
X137171401Y-87857786D01*
X137163004Y-87900000D01*
X137186853Y-88019893D01*
X137196269Y-88067231D01*
X137290998Y-88209003D01*
X137326785Y-88232915D01*
X138373000Y-89279131D01*
X138373000Y-89544609D01*
X138483679Y-89811813D01*
X138688187Y-90016321D01*
X138849218Y-90083022D01*
X138776785Y-90155455D01*
X138740998Y-90179367D01*
X138650371Y-90315000D01*
X138646269Y-90321139D01*
X138613004Y-90488370D01*
X138621401Y-90530583D01*
X138621400Y-91250466D01*
X138433679Y-91438187D01*
X138323000Y-91705391D01*
X138323000Y-91994609D01*
X138433679Y-92261813D01*
X138638187Y-92466321D01*
X138905391Y-92577000D01*
X139194609Y-92577000D01*
X139461813Y-92466321D01*
X139666321Y-92261813D01*
X139776211Y-91996513D01*
X139776211Y-93721594D01*
X139170000Y-93721594D01*
X139042411Y-93746973D01*
X138934246Y-93819246D01*
X138861973Y-93927411D01*
X138836594Y-94055000D01*
X138836594Y-96555000D01*
X138861973Y-96682589D01*
X138934246Y-96790754D01*
X138945090Y-96798000D01*
X129014391Y-96798000D01*
X128495938Y-96723752D01*
X128032401Y-96512994D01*
X127646644Y-96180604D01*
X127369688Y-95753312D01*
X127221787Y-95258766D01*
X127202000Y-94992499D01*
X127202000Y-87106275D01*
X127213829Y-87088571D01*
X127231447Y-87000000D01*
X127213829Y-86911429D01*
X127163658Y-86836342D01*
X127127000Y-86811848D01*
X127127000Y-84188152D01*
X127163658Y-84163658D01*
X127213829Y-84088571D01*
X127231447Y-84000000D01*
X127213829Y-83911429D01*
X127202000Y-83893725D01*
X127202000Y-74106275D01*
X127213829Y-74088571D01*
X127231447Y-74000000D01*
X127213829Y-73911429D01*
X127163658Y-73836342D01*
X127127000Y-73811848D01*
X127127000Y-71188152D01*
X127163658Y-71163658D01*
X127213829Y-71088571D01*
X127231447Y-71000000D01*
X127227000Y-70977644D01*
X127227000Y-68134315D01*
X128363004Y-68134315D01*
X128371400Y-68176524D01*
X128371401Y-74657786D01*
X128371400Y-74657791D01*
X128371401Y-79157786D01*
X128363004Y-79200000D01*
X128387598Y-79323638D01*
X128396269Y-79367231D01*
X128490998Y-79509003D01*
X128526785Y-79532915D01*
X130573000Y-81579132D01*
X130573000Y-81844609D01*
X130683679Y-82111813D01*
X130888187Y-82316321D01*
X131155391Y-82427000D01*
X131166869Y-82427000D01*
X131026787Y-82567083D01*
X130990997Y-82590997D01*
X130896268Y-82732770D01*
X130892841Y-82750000D01*
X130863004Y-82900000D01*
X130871400Y-82942209D01*
X130871401Y-83700465D01*
X130683679Y-83888187D01*
X130573000Y-84155391D01*
X130573000Y-84444609D01*
X130683679Y-84711813D01*
X130888187Y-84916321D01*
X131092797Y-85001073D01*
X130526787Y-85567083D01*
X130490997Y-85590997D01*
X130396268Y-85732770D01*
X130371400Y-85857790D01*
X130363004Y-85900000D01*
X130371400Y-85942209D01*
X130371401Y-88757786D01*
X130363004Y-88800000D01*
X130391960Y-88945570D01*
X130396269Y-88967231D01*
X130490998Y-89109003D01*
X130526785Y-89132915D01*
X130573000Y-89179130D01*
X130573000Y-89444609D01*
X130683679Y-89711813D01*
X130888187Y-89916321D01*
X131155391Y-90027000D01*
X131444609Y-90027000D01*
X131711813Y-89916321D01*
X131911982Y-89716152D01*
X132573000Y-89716152D01*
X132573000Y-90283848D01*
X132790247Y-90808331D01*
X133191669Y-91209753D01*
X133716152Y-91427000D01*
X134283848Y-91427000D01*
X134808331Y-91209753D01*
X135209753Y-90808331D01*
X135427000Y-90283848D01*
X135427000Y-89716152D01*
X135209753Y-89191669D01*
X134808331Y-88790247D01*
X134283848Y-88573000D01*
X133716152Y-88573000D01*
X133191669Y-88790247D01*
X132790247Y-89191669D01*
X132573000Y-89716152D01*
X131911982Y-89716152D01*
X131916321Y-89711813D01*
X132027000Y-89444609D01*
X132027000Y-89155391D01*
X131916321Y-88888187D01*
X131711813Y-88683679D01*
X131444609Y-88573000D01*
X131228600Y-88573000D01*
X131228600Y-86077530D01*
X132678029Y-84628102D01*
X132713814Y-84604192D01*
X132808543Y-84462420D01*
X132833411Y-84337399D01*
X132833411Y-84337395D01*
X132841806Y-84295190D01*
X132833411Y-84252985D01*
X132833411Y-81147021D01*
X132841807Y-81104811D01*
X132808543Y-80937579D01*
X132737724Y-80831592D01*
X132713814Y-80795808D01*
X132678030Y-80771898D01*
X130035020Y-78128890D01*
X130035020Y-75671110D01*
X131079131Y-74627000D01*
X131344609Y-74627000D01*
X131611813Y-74516321D01*
X131816321Y-74311813D01*
X131927000Y-74044609D01*
X131927000Y-73755391D01*
X131816321Y-73488187D01*
X131611813Y-73283679D01*
X131344609Y-73173000D01*
X131055391Y-73173000D01*
X130788187Y-73283679D01*
X130583679Y-73488187D01*
X130473000Y-73755391D01*
X130473000Y-74020869D01*
X129631810Y-74862060D01*
X129631810Y-70508635D01*
X130706156Y-69434290D01*
X130788187Y-69516321D01*
X131055391Y-69627000D01*
X131344609Y-69627000D01*
X131611813Y-69516321D01*
X131816321Y-69311813D01*
X131927000Y-69044609D01*
X131927000Y-68755391D01*
X131816321Y-68488187D01*
X131611813Y-68283679D01*
X131344609Y-68173000D01*
X131055391Y-68173000D01*
X130788187Y-68283679D01*
X130602542Y-68469324D01*
X130592105Y-68471400D01*
X130467084Y-68496268D01*
X130325312Y-68590997D01*
X130301402Y-68626782D01*
X129228600Y-69699585D01*
X129228600Y-68311845D01*
X130706156Y-66834290D01*
X130788187Y-66916321D01*
X131055391Y-67027000D01*
X131344609Y-67027000D01*
X131611813Y-66916321D01*
X131816321Y-66711813D01*
X131927000Y-66444609D01*
X131927000Y-66155391D01*
X131816321Y-65888187D01*
X131644286Y-65716152D01*
X132573000Y-65716152D01*
X132573000Y-66283848D01*
X132790247Y-66808331D01*
X133191669Y-67209753D01*
X133716152Y-67427000D01*
X134283848Y-67427000D01*
X134808331Y-67209753D01*
X135209753Y-66808331D01*
X135427000Y-66283848D01*
X135427000Y-65716152D01*
X135209753Y-65191669D01*
X134808331Y-64790247D01*
X134283848Y-64573000D01*
X133716152Y-64573000D01*
X133191669Y-64790247D01*
X132790247Y-65191669D01*
X132573000Y-65716152D01*
X131644286Y-65716152D01*
X131611813Y-65683679D01*
X131344609Y-65573000D01*
X131055391Y-65573000D01*
X130788187Y-65683679D01*
X130602542Y-65869324D01*
X130592105Y-65871400D01*
X130467084Y-65896268D01*
X130325312Y-65990997D01*
X130301402Y-66026781D01*
X128526787Y-67801398D01*
X128490997Y-67825312D01*
X128396268Y-67967085D01*
X128373218Y-68082966D01*
X128363004Y-68134315D01*
X127227000Y-68134315D01*
X127227000Y-60977644D01*
X127215525Y-60919953D01*
X127276248Y-60495939D01*
X127487006Y-60032401D01*
X127819396Y-59646644D01*
X128246688Y-59369688D01*
X128741234Y-59221787D01*
X128905113Y-59209609D01*
X128911429Y-59213829D01*
X128977644Y-59227000D01*
X132022356Y-59227000D01*
X132088571Y-59213829D01*
X132106275Y-59202000D01*
X134234974Y-59202000D01*
X134071673Y-59365302D01*
G36*
X104976626Y-63340054D02*
X106500106Y-63510095D01*
X107999722Y-63827989D01*
X109461163Y-64290704D01*
X110870472Y-64893820D01*
X112214209Y-65631587D01*
X113479535Y-66496956D01*
X114654374Y-67481667D01*
X115730858Y-68579732D01*
X116452235Y-69451726D01*
X116495525Y-69504475D01*
X116603637Y-69593200D01*
X116726980Y-69659128D01*
X116794771Y-69679692D01*
X116794787Y-69679698D01*
X116794802Y-69679702D01*
X116860816Y-69699727D01*
X116930699Y-69706610D01*
X116930715Y-69706612D01*
X116930731Y-69706613D01*
X116965123Y-69710000D01*
X116999979Y-69710000D01*
X116999999Y-69710001D01*
X117000019Y-69710000D01*
X119884156Y-69710000D01*
X119837857Y-69748302D01*
X119792520Y-69793957D01*
X119746537Y-69838987D01*
X119740218Y-69846625D01*
X119616868Y-69997867D01*
X119581266Y-70051454D01*
X119544901Y-70104563D01*
X119540186Y-70113284D01*
X119448561Y-70285606D01*
X119424049Y-70345076D01*
X119398688Y-70404248D01*
X119395757Y-70413718D01*
X119339348Y-70600554D01*
X119326848Y-70663684D01*
X119313470Y-70726623D01*
X119312434Y-70736482D01*
X119293417Y-70930434D01*
X119290000Y-70965124D01*
X119290001Y-87034877D01*
X119293485Y-87070252D01*
X119293485Y-87083246D01*
X119294522Y-87093105D01*
X119316277Y-87287055D01*
X119329653Y-87349984D01*
X119342156Y-87413127D01*
X119345087Y-87422597D01*
X119404101Y-87608627D01*
X119429416Y-87667690D01*
X119453972Y-87727268D01*
X119458688Y-87735988D01*
X119552710Y-87907013D01*
X119589060Y-87960100D01*
X119624676Y-88013707D01*
X119630995Y-88021345D01*
X119756445Y-88170851D01*
X119802392Y-88215846D01*
X119847767Y-88261539D01*
X119855449Y-88267804D01*
X119883055Y-88290000D01*
X116965123Y-88290000D01*
X116860816Y-88300273D01*
X116726980Y-88340872D01*
X116603637Y-88406800D01*
X116495525Y-88495525D01*
X116455120Y-88544758D01*
X115443673Y-89734526D01*
X114341550Y-90800002D01*
X113140711Y-91752846D01*
X111852639Y-92583952D01*
X110489588Y-93285410D01*
X109064607Y-93850503D01*
X107591283Y-94273846D01*
X106083676Y-94551399D01*
X104556184Y-94680509D01*
X103023375Y-94659946D01*
X101499905Y-94489907D01*
X100000278Y-94172011D01*
X98538834Y-93709295D01*
X97129528Y-93106180D01*
X95785798Y-92368417D01*
X94520475Y-91503052D01*
X93716416Y-90829117D01*
X95265000Y-90829117D01*
X95265000Y-91170883D01*
X95331675Y-91506081D01*
X95462463Y-91821831D01*
X95652337Y-92105998D01*
X95894002Y-92347663D01*
X96178169Y-92537537D01*
X96493919Y-92668325D01*
X96829117Y-92735000D01*
X97170883Y-92735000D01*
X97506081Y-92668325D01*
X97821831Y-92537537D01*
X98105998Y-92347663D01*
X98347663Y-92105998D01*
X98537537Y-91821831D01*
X98668325Y-91506081D01*
X98735000Y-91170883D01*
X98735000Y-90829117D01*
X109265000Y-90829117D01*
X109265000Y-91170883D01*
X109331675Y-91506081D01*
X109462463Y-91821831D01*
X109652337Y-92105998D01*
X109894002Y-92347663D01*
X110178169Y-92537537D01*
X110493919Y-92668325D01*
X110829117Y-92735000D01*
X111170883Y-92735000D01*
X111506081Y-92668325D01*
X111821831Y-92537537D01*
X112105998Y-92347663D01*
X112347663Y-92105998D01*
X112537537Y-91821831D01*
X112668325Y-91506081D01*
X112735000Y-91170883D01*
X112735000Y-90829117D01*
X112668325Y-90493919D01*
X112537537Y-90178169D01*
X112347663Y-89894002D01*
X112105998Y-89652337D01*
X111821831Y-89462463D01*
X111506081Y-89331675D01*
X111170883Y-89265000D01*
X110829117Y-89265000D01*
X110493919Y-89331675D01*
X110178169Y-89462463D01*
X109894002Y-89652337D01*
X109652337Y-89894002D01*
X109462463Y-90178169D01*
X109331675Y-90493919D01*
X109265000Y-90829117D01*
X98735000Y-90829117D01*
X98668325Y-90493919D01*
X98537537Y-90178169D01*
X98347663Y-89894002D01*
X98105998Y-89652337D01*
X97821831Y-89462463D01*
X97506081Y-89331675D01*
X97170883Y-89265000D01*
X96829117Y-89265000D01*
X96493919Y-89331675D01*
X96178169Y-89462463D01*
X95894002Y-89652337D01*
X95652337Y-89894002D01*
X95462463Y-90178169D01*
X95331675Y-90493919D01*
X95265000Y-90829117D01*
X93716416Y-90829117D01*
X93345630Y-90518337D01*
X92269142Y-89420268D01*
X91547765Y-88548274D01*
X91504475Y-88495525D01*
X91396363Y-88406800D01*
X91273020Y-88340872D01*
X91205229Y-88320308D01*
X91205213Y-88320302D01*
X91205198Y-88320298D01*
X91139184Y-88300273D01*
X91069301Y-88293390D01*
X91069285Y-88293388D01*
X91069269Y-88293387D01*
X91034877Y-88290000D01*
X91000021Y-88290000D01*
X91000001Y-88289999D01*
X90999981Y-88290000D01*
X88115844Y-88290000D01*
X88162143Y-88251698D01*
X88207495Y-88206028D01*
X88253463Y-88161013D01*
X88259782Y-88153375D01*
X88383132Y-88002133D01*
X88418757Y-87948513D01*
X88455099Y-87895436D01*
X88459814Y-87886716D01*
X88551439Y-87714394D01*
X88575951Y-87654924D01*
X88601312Y-87595752D01*
X88604243Y-87586282D01*
X88660652Y-87399446D01*
X88673152Y-87336316D01*
X88686530Y-87273377D01*
X88687566Y-87263519D01*
X88706611Y-87069285D01*
X88710000Y-87034877D01*
X88710000Y-70965123D01*
X88706515Y-70929738D01*
X88706515Y-70916754D01*
X88705478Y-70906895D01*
X88683723Y-70712945D01*
X88670347Y-70650016D01*
X88657844Y-70586873D01*
X88654913Y-70577403D01*
X88595900Y-70391373D01*
X88570560Y-70332252D01*
X88546028Y-70272733D01*
X88541313Y-70264012D01*
X88447290Y-70092987D01*
X88410940Y-70039900D01*
X88375324Y-69986293D01*
X88369005Y-69978655D01*
X88243555Y-69829149D01*
X88197608Y-69784154D01*
X88152233Y-69738461D01*
X88144556Y-69732201D01*
X88144553Y-69732198D01*
X88144550Y-69732196D01*
X88116944Y-69710000D01*
X91034877Y-69710000D01*
X91139184Y-69699727D01*
X91273020Y-69659128D01*
X91396363Y-69593200D01*
X91504475Y-69504475D01*
X91544880Y-69455242D01*
X92556327Y-68265474D01*
X93658450Y-67199999D01*
X94125859Y-66829117D01*
X95265000Y-66829117D01*
X95265000Y-67170883D01*
X95331675Y-67506081D01*
X95462463Y-67821831D01*
X95652337Y-68105998D01*
X95894002Y-68347663D01*
X96178169Y-68537537D01*
X96493919Y-68668325D01*
X96829117Y-68735000D01*
X97170883Y-68735000D01*
X97506081Y-68668325D01*
X97821831Y-68537537D01*
X98105998Y-68347663D01*
X98347663Y-68105998D01*
X98537537Y-67821831D01*
X98668325Y-67506081D01*
X98735000Y-67170883D01*
X98735000Y-66898061D01*
X99965000Y-66898061D01*
X99965000Y-67101939D01*
X100004774Y-67301898D01*
X100082795Y-67490256D01*
X100196063Y-67659774D01*
X100340226Y-67803937D01*
X100509744Y-67917205D01*
X100698102Y-67995226D01*
X100898061Y-68035000D01*
X101101939Y-68035000D01*
X101301898Y-67995226D01*
X101490256Y-67917205D01*
X101659774Y-67803937D01*
X101803937Y-67659774D01*
X101917205Y-67490256D01*
X101995226Y-67301898D01*
X102035000Y-67101939D01*
X102035000Y-66898061D01*
X102021287Y-66829117D01*
X109265000Y-66829117D01*
X109265000Y-67170883D01*
X109331675Y-67506081D01*
X109462463Y-67821831D01*
X109652337Y-68105998D01*
X109894002Y-68347663D01*
X110178169Y-68537537D01*
X110493919Y-68668325D01*
X110829117Y-68735000D01*
X111170883Y-68735000D01*
X111506081Y-68668325D01*
X111821831Y-68537537D01*
X112105998Y-68347663D01*
X112347663Y-68105998D01*
X112537537Y-67821831D01*
X112668325Y-67506081D01*
X112735000Y-67170883D01*
X112735000Y-66829117D01*
X112668325Y-66493919D01*
X112537537Y-66178169D01*
X112347663Y-65894002D01*
X112105998Y-65652337D01*
X111821831Y-65462463D01*
X111506081Y-65331675D01*
X111170883Y-65265000D01*
X110829117Y-65265000D01*
X110493919Y-65331675D01*
X110178169Y-65462463D01*
X109894002Y-65652337D01*
X109652337Y-65894002D01*
X109462463Y-66178169D01*
X109331675Y-66493919D01*
X109265000Y-66829117D01*
X102021287Y-66829117D01*
X101995226Y-66698102D01*
X101917205Y-66509744D01*
X101803937Y-66340226D01*
X101659774Y-66196063D01*
X101490256Y-66082795D01*
X101301898Y-66004774D01*
X101101939Y-65965000D01*
X100898061Y-65965000D01*
X100698102Y-66004774D01*
X100509744Y-66082795D01*
X100340226Y-66196063D01*
X100196063Y-66340226D01*
X100082795Y-66509744D01*
X100004774Y-66698102D01*
X99965000Y-66898061D01*
X98735000Y-66898061D01*
X98735000Y-66829117D01*
X98668325Y-66493919D01*
X98537537Y-66178169D01*
X98347663Y-65894002D01*
X98105998Y-65652337D01*
X97821831Y-65462463D01*
X97506081Y-65331675D01*
X97170883Y-65265000D01*
X96829117Y-65265000D01*
X96493919Y-65331675D01*
X96178169Y-65462463D01*
X95894002Y-65652337D01*
X95652337Y-65894002D01*
X95462463Y-66178169D01*
X95331675Y-66493919D01*
X95265000Y-66829117D01*
X94125859Y-66829117D01*
X94859284Y-66247157D01*
X96147361Y-65416048D01*
X97510412Y-64714590D01*
X98935393Y-64149497D01*
X100408724Y-63726153D01*
X101916324Y-63448601D01*
X103443817Y-63319491D01*
X104976626Y-63340054D01*
X104976626Y-63340054D01*
G37*
X104976626Y-63340054D02*
X106500106Y-63510095D01*
X107999722Y-63827989D01*
X109461163Y-64290704D01*
X110870472Y-64893820D01*
X112214209Y-65631587D01*
X113479535Y-66496956D01*
X114654374Y-67481667D01*
X115730858Y-68579732D01*
X116452235Y-69451726D01*
X116495525Y-69504475D01*
X116603637Y-69593200D01*
X116726980Y-69659128D01*
X116794771Y-69679692D01*
X116794787Y-69679698D01*
X116794802Y-69679702D01*
X116860816Y-69699727D01*
X116930699Y-69706610D01*
X116930715Y-69706612D01*
X116930731Y-69706613D01*
X116965123Y-69710000D01*
X116999979Y-69710000D01*
X116999999Y-69710001D01*
X117000019Y-69710000D01*
X119884156Y-69710000D01*
X119837857Y-69748302D01*
X119792520Y-69793957D01*
X119746537Y-69838987D01*
X119740218Y-69846625D01*
X119616868Y-69997867D01*
X119581266Y-70051454D01*
X119544901Y-70104563D01*
X119540186Y-70113284D01*
X119448561Y-70285606D01*
X119424049Y-70345076D01*
X119398688Y-70404248D01*
X119395757Y-70413718D01*
X119339348Y-70600554D01*
X119326848Y-70663684D01*
X119313470Y-70726623D01*
X119312434Y-70736482D01*
X119293417Y-70930434D01*
X119290000Y-70965124D01*
X119290001Y-87034877D01*
X119293485Y-87070252D01*
X119293485Y-87083246D01*
X119294522Y-87093105D01*
X119316277Y-87287055D01*
X119329653Y-87349984D01*
X119342156Y-87413127D01*
X119345087Y-87422597D01*
X119404101Y-87608627D01*
X119429416Y-87667690D01*
X119453972Y-87727268D01*
X119458688Y-87735988D01*
X119552710Y-87907013D01*
X119589060Y-87960100D01*
X119624676Y-88013707D01*
X119630995Y-88021345D01*
X119756445Y-88170851D01*
X119802392Y-88215846D01*
X119847767Y-88261539D01*
X119855449Y-88267804D01*
X119883055Y-88290000D01*
X116965123Y-88290000D01*
X116860816Y-88300273D01*
X116726980Y-88340872D01*
X116603637Y-88406800D01*
X116495525Y-88495525D01*
X116455120Y-88544758D01*
X115443673Y-89734526D01*
X114341550Y-90800002D01*
X113140711Y-91752846D01*
X111852639Y-92583952D01*
X110489588Y-93285410D01*
X109064607Y-93850503D01*
X107591283Y-94273846D01*
X106083676Y-94551399D01*
X104556184Y-94680509D01*
X103023375Y-94659946D01*
X101499905Y-94489907D01*
X100000278Y-94172011D01*
X98538834Y-93709295D01*
X97129528Y-93106180D01*
X95785798Y-92368417D01*
X94520475Y-91503052D01*
X93716416Y-90829117D01*
X95265000Y-90829117D01*
X95265000Y-91170883D01*
X95331675Y-91506081D01*
X95462463Y-91821831D01*
X95652337Y-92105998D01*
X95894002Y-92347663D01*
X96178169Y-92537537D01*
X96493919Y-92668325D01*
X96829117Y-92735000D01*
X97170883Y-92735000D01*
X97506081Y-92668325D01*
X97821831Y-92537537D01*
X98105998Y-92347663D01*
X98347663Y-92105998D01*
X98537537Y-91821831D01*
X98668325Y-91506081D01*
X98735000Y-91170883D01*
X98735000Y-90829117D01*
X109265000Y-90829117D01*
X109265000Y-91170883D01*
X109331675Y-91506081D01*
X109462463Y-91821831D01*
X109652337Y-92105998D01*
X109894002Y-92347663D01*
X110178169Y-92537537D01*
X110493919Y-92668325D01*
X110829117Y-92735000D01*
X111170883Y-92735000D01*
X111506081Y-92668325D01*
X111821831Y-92537537D01*
X112105998Y-92347663D01*
X112347663Y-92105998D01*
X112537537Y-91821831D01*
X112668325Y-91506081D01*
X112735000Y-91170883D01*
X112735000Y-90829117D01*
X112668325Y-90493919D01*
X112537537Y-90178169D01*
X112347663Y-89894002D01*
X112105998Y-89652337D01*
X111821831Y-89462463D01*
X111506081Y-89331675D01*
X111170883Y-89265000D01*
X110829117Y-89265000D01*
X110493919Y-89331675D01*
X110178169Y-89462463D01*
X109894002Y-89652337D01*
X109652337Y-89894002D01*
X109462463Y-90178169D01*
X109331675Y-90493919D01*
X109265000Y-90829117D01*
X98735000Y-90829117D01*
X98668325Y-90493919D01*
X98537537Y-90178169D01*
X98347663Y-89894002D01*
X98105998Y-89652337D01*
X97821831Y-89462463D01*
X97506081Y-89331675D01*
X97170883Y-89265000D01*
X96829117Y-89265000D01*
X96493919Y-89331675D01*
X96178169Y-89462463D01*
X95894002Y-89652337D01*
X95652337Y-89894002D01*
X95462463Y-90178169D01*
X95331675Y-90493919D01*
X95265000Y-90829117D01*
X93716416Y-90829117D01*
X93345630Y-90518337D01*
X92269142Y-89420268D01*
X91547765Y-88548274D01*
X91504475Y-88495525D01*
X91396363Y-88406800D01*
X91273020Y-88340872D01*
X91205229Y-88320308D01*
X91205213Y-88320302D01*
X91205198Y-88320298D01*
X91139184Y-88300273D01*
X91069301Y-88293390D01*
X91069285Y-88293388D01*
X91069269Y-88293387D01*
X91034877Y-88290000D01*
X91000021Y-88290000D01*
X91000001Y-88289999D01*
X90999981Y-88290000D01*
X88115844Y-88290000D01*
X88162143Y-88251698D01*
X88207495Y-88206028D01*
X88253463Y-88161013D01*
X88259782Y-88153375D01*
X88383132Y-88002133D01*
X88418757Y-87948513D01*
X88455099Y-87895436D01*
X88459814Y-87886716D01*
X88551439Y-87714394D01*
X88575951Y-87654924D01*
X88601312Y-87595752D01*
X88604243Y-87586282D01*
X88660652Y-87399446D01*
X88673152Y-87336316D01*
X88686530Y-87273377D01*
X88687566Y-87263519D01*
X88706611Y-87069285D01*
X88710000Y-87034877D01*
X88710000Y-70965123D01*
X88706515Y-70929738D01*
X88706515Y-70916754D01*
X88705478Y-70906895D01*
X88683723Y-70712945D01*
X88670347Y-70650016D01*
X88657844Y-70586873D01*
X88654913Y-70577403D01*
X88595900Y-70391373D01*
X88570560Y-70332252D01*
X88546028Y-70272733D01*
X88541313Y-70264012D01*
X88447290Y-70092987D01*
X88410940Y-70039900D01*
X88375324Y-69986293D01*
X88369005Y-69978655D01*
X88243555Y-69829149D01*
X88197608Y-69784154D01*
X88152233Y-69738461D01*
X88144556Y-69732201D01*
X88144553Y-69732198D01*
X88144550Y-69732196D01*
X88116944Y-69710000D01*
X91034877Y-69710000D01*
X91139184Y-69699727D01*
X91273020Y-69659128D01*
X91396363Y-69593200D01*
X91504475Y-69504475D01*
X91544880Y-69455242D01*
X92556327Y-68265474D01*
X93658450Y-67199999D01*
X94125859Y-66829117D01*
X95265000Y-66829117D01*
X95265000Y-67170883D01*
X95331675Y-67506081D01*
X95462463Y-67821831D01*
X95652337Y-68105998D01*
X95894002Y-68347663D01*
X96178169Y-68537537D01*
X96493919Y-68668325D01*
X96829117Y-68735000D01*
X97170883Y-68735000D01*
X97506081Y-68668325D01*
X97821831Y-68537537D01*
X98105998Y-68347663D01*
X98347663Y-68105998D01*
X98537537Y-67821831D01*
X98668325Y-67506081D01*
X98735000Y-67170883D01*
X98735000Y-66898061D01*
X99965000Y-66898061D01*
X99965000Y-67101939D01*
X100004774Y-67301898D01*
X100082795Y-67490256D01*
X100196063Y-67659774D01*
X100340226Y-67803937D01*
X100509744Y-67917205D01*
X100698102Y-67995226D01*
X100898061Y-68035000D01*
X101101939Y-68035000D01*
X101301898Y-67995226D01*
X101490256Y-67917205D01*
X101659774Y-67803937D01*
X101803937Y-67659774D01*
X101917205Y-67490256D01*
X101995226Y-67301898D01*
X102035000Y-67101939D01*
X102035000Y-66898061D01*
X102021287Y-66829117D01*
X109265000Y-66829117D01*
X109265000Y-67170883D01*
X109331675Y-67506081D01*
X109462463Y-67821831D01*
X109652337Y-68105998D01*
X109894002Y-68347663D01*
X110178169Y-68537537D01*
X110493919Y-68668325D01*
X110829117Y-68735000D01*
X111170883Y-68735000D01*
X111506081Y-68668325D01*
X111821831Y-68537537D01*
X112105998Y-68347663D01*
X112347663Y-68105998D01*
X112537537Y-67821831D01*
X112668325Y-67506081D01*
X112735000Y-67170883D01*
X112735000Y-66829117D01*
X112668325Y-66493919D01*
X112537537Y-66178169D01*
X112347663Y-65894002D01*
X112105998Y-65652337D01*
X111821831Y-65462463D01*
X111506081Y-65331675D01*
X111170883Y-65265000D01*
X110829117Y-65265000D01*
X110493919Y-65331675D01*
X110178169Y-65462463D01*
X109894002Y-65652337D01*
X109652337Y-65894002D01*
X109462463Y-66178169D01*
X109331675Y-66493919D01*
X109265000Y-66829117D01*
X102021287Y-66829117D01*
X101995226Y-66698102D01*
X101917205Y-66509744D01*
X101803937Y-66340226D01*
X101659774Y-66196063D01*
X101490256Y-66082795D01*
X101301898Y-66004774D01*
X101101939Y-65965000D01*
X100898061Y-65965000D01*
X100698102Y-66004774D01*
X100509744Y-66082795D01*
X100340226Y-66196063D01*
X100196063Y-66340226D01*
X100082795Y-66509744D01*
X100004774Y-66698102D01*
X99965000Y-66898061D01*
X98735000Y-66898061D01*
X98735000Y-66829117D01*
X98668325Y-66493919D01*
X98537537Y-66178169D01*
X98347663Y-65894002D01*
X98105998Y-65652337D01*
X97821831Y-65462463D01*
X97506081Y-65331675D01*
X97170883Y-65265000D01*
X96829117Y-65265000D01*
X96493919Y-65331675D01*
X96178169Y-65462463D01*
X95894002Y-65652337D01*
X95652337Y-65894002D01*
X95462463Y-66178169D01*
X95331675Y-66493919D01*
X95265000Y-66829117D01*
X94125859Y-66829117D01*
X94859284Y-66247157D01*
X96147361Y-65416048D01*
X97510412Y-64714590D01*
X98935393Y-64149497D01*
X100408724Y-63726153D01*
X101916324Y-63448601D01*
X103443817Y-63319491D01*
X104976626Y-63340054D01*
G04 #@! TD*
M02*
