G04 #@! TF.GenerationSoftware,KiCad,Pcbnew,(5.0.0)*
G04 #@! TF.CreationDate,2019-02-27T16:16:10+00:00*
G04 #@! TF.ProjectId,BubbleWatch,427562626C6557617463682E6B696361,rev?*
G04 #@! TF.SameCoordinates,Original*
G04 #@! TF.FileFunction,Legend,Top*
G04 #@! TF.FilePolarity,Positive*
%FSLAX46Y46*%
G04 Gerber Fmt 4.6, Leading zero omitted, Abs format (unit mm)*
G04 Created by KiCad (PCBNEW (5.0.0)) date 02/27/19 16:16:10*
%MOMM*%
%LPD*%
G01*
G04 APERTURE LIST*
%ADD10C,0.120000*%
G04 APERTURE END LIST*
D10*
G04 #@! TO.C,U3*
X146524416Y-83648355D02*
X146227431Y-83351370D01*
X141489816Y-78613755D02*
X141786801Y-78910740D01*
X146524416Y-73579155D02*
X146821401Y-73876140D01*
X151559016Y-78613755D02*
X151262031Y-78910740D01*
X141489816Y-78613755D02*
X141786801Y-78316770D01*
X146524416Y-83648355D02*
X146821401Y-83351370D01*
X151262031Y-78316770D02*
X152237839Y-77340963D01*
X151559016Y-78613755D02*
X151262031Y-78316770D01*
X146524416Y-73579155D02*
X146227431Y-73876140D01*
G04 #@! TO.C,U2*
X134600000Y-77820000D02*
G75*
G02X132600000Y-77820000I-1000000J0D01*
G01*
X132600000Y-77820000D02*
X130950000Y-77820000D01*
X130950000Y-77820000D02*
X130950000Y-93180000D01*
X130950000Y-93180000D02*
X136250000Y-93180000D01*
X136250000Y-93180000D02*
X136250000Y-77820000D01*
X136250000Y-77820000D02*
X134600000Y-77820000D01*
X128460000Y-77760000D02*
X128460000Y-93240000D01*
X128460000Y-93240000D02*
X138740000Y-93240000D01*
X138740000Y-93240000D02*
X138740000Y-77760000D01*
X138740000Y-77760000D02*
X128460000Y-77760000D01*
G04 #@! TO.C,RN2*
X150693898Y-85202548D02*
X150340345Y-84848995D01*
X152306101Y-83590345D02*
X151952548Y-83236792D01*
G04 #@! TO.C,U1*
X138740000Y-62360000D02*
X128460000Y-62360000D01*
X138740000Y-77840000D02*
X138740000Y-62360000D01*
X128460000Y-77840000D02*
X138740000Y-77840000D01*
X128460000Y-62360000D02*
X128460000Y-77840000D01*
X136250000Y-62420000D02*
X134600000Y-62420000D01*
X136250000Y-77780000D02*
X136250000Y-62420000D01*
X130950000Y-77780000D02*
X136250000Y-77780000D01*
X130950000Y-62420000D02*
X130950000Y-77780000D01*
X132600000Y-62420000D02*
X130950000Y-62420000D01*
X134600000Y-62420000D02*
G75*
G02X132600000Y-62420000I-1000000J0D01*
G01*
G04 #@! TO.C,BT1*
X118584160Y-73585385D02*
G75*
G02X118200000Y-74500000I-984160J-124615D01*
G01*
X118584160Y-84414615D02*
G75*
G03X118200000Y-83500000I-984160J124615D01*
G01*
X118188671Y-74509339D02*
G75*
G03X118200000Y-83500000I3711329J-4490661D01*
G01*
X117050000Y-72250000D02*
G75*
G02X118600000Y-73700000I50000J-1500000D01*
G01*
X117050000Y-85750000D02*
G75*
G03X118600000Y-84300000I50000J1500000D01*
G01*
X115000000Y-72250000D02*
X117100000Y-72250000D01*
X115000000Y-85750000D02*
X117100000Y-85750000D01*
X111000000Y-85750000D02*
X109550000Y-85750000D01*
X109550000Y-85750000D02*
X106950000Y-83150000D01*
X106950000Y-83150000D02*
X106150000Y-83150000D01*
X106150000Y-83150000D02*
X106150000Y-74850000D01*
X106150000Y-74850000D02*
X106950000Y-74850000D01*
X106950000Y-74850000D02*
X109550000Y-72250000D01*
X109550000Y-72250000D02*
X111000000Y-72250000D01*
G04 #@! TO.C,BT2*
X98450000Y-85750000D02*
X97000000Y-85750000D01*
X101050000Y-83150000D02*
X98450000Y-85750000D01*
X101850000Y-83150000D02*
X101050000Y-83150000D01*
X101850000Y-74850000D02*
X101850000Y-83150000D01*
X101050000Y-74850000D02*
X101850000Y-74850000D01*
X98450000Y-72250000D02*
X101050000Y-74850000D01*
X97000000Y-72250000D02*
X98450000Y-72250000D01*
X93000000Y-72250000D02*
X90900000Y-72250000D01*
X93000000Y-85750000D02*
X90900000Y-85750000D01*
X90950000Y-72250000D02*
G75*
G03X89400000Y-73700000I-50000J-1500000D01*
G01*
X90950000Y-85750000D02*
G75*
G02X89400000Y-84300000I-50000J1500000D01*
G01*
X89811329Y-83490661D02*
G75*
G03X89800000Y-74500000I-3711329J4490661D01*
G01*
X89415840Y-73585385D02*
G75*
G03X89800000Y-74500000I984160J-124615D01*
G01*
X89415840Y-84414615D02*
G75*
G02X89800000Y-83500000I984160J124615D01*
G01*
G04 #@! TO.C,C1*
X145331120Y-70697631D02*
X145561325Y-70467426D01*
X146052369Y-71418880D02*
X146282574Y-71188675D01*
G04 #@! TO.C,C2*
X153717426Y-78811325D02*
X153947631Y-78581120D01*
X154438675Y-79532574D02*
X154668880Y-79302369D01*
G04 #@! TO.C,C3*
X140418880Y-77947631D02*
X140188675Y-77717426D01*
X139697631Y-78668880D02*
X139467426Y-78438675D01*
G04 #@! TO.C,C4*
X146467426Y-71754478D02*
X146697631Y-71524273D01*
X147188675Y-72475727D02*
X147418880Y-72245522D01*
G04 #@! TO.C,C5*
X153302369Y-78475727D02*
X153532574Y-78245522D01*
X152581120Y-77754478D02*
X152811325Y-77524273D01*
G04 #@! TO.C,C6*
X153581120Y-74697631D02*
X153811325Y-74467426D01*
X154302369Y-75418880D02*
X154532574Y-75188675D01*
G04 #@! TO.C,C7*
X105990000Y-85662779D02*
X105990000Y-85337221D01*
X107010000Y-85662779D02*
X107010000Y-85337221D01*
G04 #@! TO.C,C8*
X152995522Y-74168880D02*
X153225727Y-73938675D01*
X152274273Y-73447631D02*
X152504478Y-73217426D01*
G04 #@! TO.C,C9*
X103837221Y-81010000D02*
X104162779Y-81010000D01*
X103837221Y-79990000D02*
X104162779Y-79990000D01*
G04 #@! TO.C,L1*
X107600000Y-87500000D02*
X107600000Y-90500000D01*
X104400000Y-87500000D02*
X104400000Y-90500000D01*
G04 #@! TO.C,R1*
X103837221Y-83490000D02*
X104162779Y-83490000D01*
X103837221Y-84510000D02*
X104162779Y-84510000D01*
G04 #@! TO.C,R2*
X104162779Y-84990000D02*
X103837221Y-84990000D01*
X104162779Y-86010000D02*
X103837221Y-86010000D01*
G04 #@! TO.C,R3*
X140799720Y-95240000D02*
X141125278Y-95240000D01*
X140799720Y-96260000D02*
X141125278Y-96260000D01*
G04 #@! TO.C,RN1*
X149870675Y-71767122D02*
X149517122Y-72120675D01*
X151482878Y-73379325D02*
X151129325Y-73732878D01*
G04 #@! TO.C,U4*
X102900000Y-87390000D02*
X101100000Y-87390000D01*
X101100000Y-90610000D02*
X103550000Y-90610000D01*
G04 #@! TO.C,J1*
X104510000Y-71600000D02*
X103490000Y-71600000D01*
X104510000Y-66400000D02*
X103490000Y-66400000D01*
X101970000Y-71600000D02*
X101400000Y-71600000D01*
X101970000Y-66400000D02*
X101400000Y-66400000D01*
X106600000Y-71600000D02*
X106030000Y-71600000D01*
X106600000Y-66400000D02*
X106030000Y-66400000D01*
X106030000Y-64960000D02*
X106030000Y-66400000D01*
X101400000Y-66400000D02*
X101400000Y-71600000D01*
X106600000Y-66400000D02*
X106600000Y-71600000D01*
G04 #@! TD*
M02*
