M48
;DRILL file {KiCad (5.0.0)} date 02/27/19 16:16:19
;FORMAT={-:-/ absolute / inch / decimal}
FMAT,2
INCH,TZ
T1C0.0157
T2C0.0197
%
G90
G05
M72
T1
X3.5433Y-2.9921
X3.9764Y-2.6378
X4.6063Y-3.0315
X5.1654Y-2.6102
X5.1654Y-2.7126
X5.1654Y-2.9094
X5.1693Y-3.2165
X5.1693Y-3.3189
X5.1693Y-3.5157
X5.2677Y-2.3622
X5.3386Y-3.4173
X5.3465Y-2.5079
X5.3465Y-2.811
X5.3504Y-3.1142
X5.3504Y-3.2087
X5.374Y-2.6102
X5.472Y-2.9098
X5.4744Y-3.6161
X5.4764Y-3.0079
X5.4764Y-3.5197
X5.4882Y-3.1496
X5.502Y-3.7303
X5.5039Y-2.8189
X5.5039Y-2.9685
X5.6004Y-3.7303
X5.6398Y-3.3169
X5.6693Y-2.3701
X5.6693Y-2.8543
X5.6893Y-3.0311
X5.7087Y-3.1496
X5.7185Y-3.002
X5.7283Y-2.5098
X5.748Y-2.9724
X5.748Y-2.9724
X5.748Y-3.1299
X5.7579Y-2.9429
X5.8346Y-3.0315
X5.8346Y-3.1575
X5.8366Y-3.327
X5.8583Y-2.748
X5.874Y-3.063
X5.935Y-3.4449
X5.9843Y-3.748
X6.1339Y-3.0394
X6.1575Y-3.5984
X6.1713Y-2.5197
X6.1732Y-3.2205
X6.1811Y-2.9823
X6.1811Y-3.2972
T2
X6.0571Y-2.815
X6.1319Y-2.815
T0
M30
