G04 #@! TF.GenerationSoftware,KiCad,Pcbnew,(5.0.0)*
G04 #@! TF.CreationDate,2019-02-27T16:16:10+00:00*
G04 #@! TF.ProjectId,BubbleWatch,427562626C6557617463682E6B696361,rev?*
G04 #@! TF.SameCoordinates,Original*
G04 #@! TF.FileFunction,Soldermask,Top*
G04 #@! TF.FilePolarity,Negative*
%FSLAX46Y46*%
G04 Gerber Fmt 4.6, Leading zero omitted, Abs format (unit mm)*
G04 Created by KiCad (PCBNEW (5.0.0)) date 02/27/19 16:16:10*
%MOMM*%
%LPD*%
G01*
G04 APERTURE LIST*
%ADD10C,2.600000*%
%ADD11C,0.650000*%
%ADD12C,0.100000*%
%ADD13R,2.000000X2.000000*%
%ADD14C,0.720000*%
%ADD15C,1.400000*%
%ADD16R,3.700000X3.900000*%
%ADD17R,4.400000X4.400000*%
%ADD18C,1.275000*%
%ADD19R,3.300000X1.200000*%
%ADD20R,1.460000X1.050000*%
%ADD21R,1.400000X3.550000*%
G04 APERTURE END LIST*
D10*
G04 #@! TO.C,REF\002A\002A*
X148000000Y-90000000D03*
G04 #@! TD*
D11*
G04 #@! TO.C,U3*
X151544874Y-77482384D03*
D12*
G36*
X151916105Y-76651534D02*
X152375724Y-77111153D01*
X151173643Y-78313234D01*
X150714024Y-77853615D01*
X151916105Y-76651534D01*
X151916105Y-76651534D01*
G37*
D11*
X151191321Y-77128831D03*
D12*
G36*
X151562552Y-76297981D02*
X152022171Y-76757600D01*
X150820090Y-77959681D01*
X150360471Y-77500062D01*
X151562552Y-76297981D01*
X151562552Y-76297981D01*
G37*
D11*
X150837767Y-76775277D03*
D12*
G36*
X151208998Y-75944427D02*
X151668617Y-76404046D01*
X150466536Y-77606127D01*
X150006917Y-77146508D01*
X151208998Y-75944427D01*
X151208998Y-75944427D01*
G37*
D11*
X150484214Y-76421724D03*
D12*
G36*
X150855445Y-75590874D02*
X151315064Y-76050493D01*
X150112983Y-77252574D01*
X149653364Y-76792955D01*
X150855445Y-75590874D01*
X150855445Y-75590874D01*
G37*
D11*
X150130661Y-76068171D03*
D12*
G36*
X150501892Y-75237321D02*
X150961511Y-75696940D01*
X149759430Y-76899021D01*
X149299811Y-76439402D01*
X150501892Y-75237321D01*
X150501892Y-75237321D01*
G37*
D11*
X149777107Y-75714617D03*
D12*
G36*
X150148338Y-74883767D02*
X150607957Y-75343386D01*
X149405876Y-76545467D01*
X148946257Y-76085848D01*
X150148338Y-74883767D01*
X150148338Y-74883767D01*
G37*
D11*
X149423554Y-75361064D03*
D12*
G36*
X149794785Y-74530214D02*
X150254404Y-74989833D01*
X149052323Y-76191914D01*
X148592704Y-75732295D01*
X149794785Y-74530214D01*
X149794785Y-74530214D01*
G37*
D11*
X149070000Y-75007510D03*
D12*
G36*
X149441231Y-74176660D02*
X149900850Y-74636279D01*
X148698769Y-75838360D01*
X148239150Y-75378741D01*
X149441231Y-74176660D01*
X149441231Y-74176660D01*
G37*
D11*
X148716447Y-74653957D03*
D12*
G36*
X149087678Y-73823107D02*
X149547297Y-74282726D01*
X148345216Y-75484807D01*
X147885597Y-75025188D01*
X149087678Y-73823107D01*
X149087678Y-73823107D01*
G37*
D11*
X148362894Y-74300404D03*
D12*
G36*
X148734125Y-73469554D02*
X149193744Y-73929173D01*
X147991663Y-75131254D01*
X147532044Y-74671635D01*
X148734125Y-73469554D01*
X148734125Y-73469554D01*
G37*
D11*
X148009340Y-73946850D03*
D12*
G36*
X148380571Y-73116000D02*
X148840190Y-73575619D01*
X147638109Y-74777700D01*
X147178490Y-74318081D01*
X148380571Y-73116000D01*
X148380571Y-73116000D01*
G37*
D11*
X147655787Y-73593297D03*
D12*
G36*
X148027018Y-72762447D02*
X148486637Y-73222066D01*
X147284556Y-74424147D01*
X146824937Y-73964528D01*
X148027018Y-72762447D01*
X148027018Y-72762447D01*
G37*
D11*
X145393045Y-73593297D03*
D12*
G36*
X144562195Y-73222066D02*
X145021814Y-72762447D01*
X146223895Y-73964528D01*
X145764276Y-74424147D01*
X144562195Y-73222066D01*
X144562195Y-73222066D01*
G37*
D11*
X145039492Y-73946850D03*
D12*
G36*
X144208642Y-73575619D02*
X144668261Y-73116000D01*
X145870342Y-74318081D01*
X145410723Y-74777700D01*
X144208642Y-73575619D01*
X144208642Y-73575619D01*
G37*
D11*
X144685938Y-74300404D03*
D12*
G36*
X143855088Y-73929173D02*
X144314707Y-73469554D01*
X145516788Y-74671635D01*
X145057169Y-75131254D01*
X143855088Y-73929173D01*
X143855088Y-73929173D01*
G37*
D11*
X144332385Y-74653957D03*
D12*
G36*
X143501535Y-74282726D02*
X143961154Y-73823107D01*
X145163235Y-75025188D01*
X144703616Y-75484807D01*
X143501535Y-74282726D01*
X143501535Y-74282726D01*
G37*
D11*
X143978832Y-75007510D03*
D12*
G36*
X143147982Y-74636279D02*
X143607601Y-74176660D01*
X144809682Y-75378741D01*
X144350063Y-75838360D01*
X143147982Y-74636279D01*
X143147982Y-74636279D01*
G37*
D11*
X143625278Y-75361064D03*
D12*
G36*
X142794428Y-74989833D02*
X143254047Y-74530214D01*
X144456128Y-75732295D01*
X143996509Y-76191914D01*
X142794428Y-74989833D01*
X142794428Y-74989833D01*
G37*
D11*
X143271725Y-75714617D03*
D12*
G36*
X142440875Y-75343386D02*
X142900494Y-74883767D01*
X144102575Y-76085848D01*
X143642956Y-76545467D01*
X142440875Y-75343386D01*
X142440875Y-75343386D01*
G37*
D11*
X142918171Y-76068171D03*
D12*
G36*
X142087321Y-75696940D02*
X142546940Y-75237321D01*
X143749021Y-76439402D01*
X143289402Y-76899021D01*
X142087321Y-75696940D01*
X142087321Y-75696940D01*
G37*
D11*
X142564618Y-76421724D03*
D12*
G36*
X141733768Y-76050493D02*
X142193387Y-75590874D01*
X143395468Y-76792955D01*
X142935849Y-77252574D01*
X141733768Y-76050493D01*
X141733768Y-76050493D01*
G37*
D11*
X142211065Y-76775277D03*
D12*
G36*
X141380215Y-76404046D02*
X141839834Y-75944427D01*
X143041915Y-77146508D01*
X142582296Y-77606127D01*
X141380215Y-76404046D01*
X141380215Y-76404046D01*
G37*
D11*
X141857511Y-77128831D03*
D12*
G36*
X141026661Y-76757600D02*
X141486280Y-76297981D01*
X142688361Y-77500062D01*
X142228742Y-77959681D01*
X141026661Y-76757600D01*
X141026661Y-76757600D01*
G37*
D11*
X141503958Y-77482384D03*
D12*
G36*
X140673108Y-77111153D02*
X141132727Y-76651534D01*
X142334808Y-77853615D01*
X141875189Y-78313234D01*
X140673108Y-77111153D01*
X140673108Y-77111153D01*
G37*
D11*
X141503958Y-79745126D03*
D12*
G36*
X141875189Y-78914276D02*
X142334808Y-79373895D01*
X141132727Y-80575976D01*
X140673108Y-80116357D01*
X141875189Y-78914276D01*
X141875189Y-78914276D01*
G37*
D11*
X141857511Y-80098679D03*
D12*
G36*
X142228742Y-79267829D02*
X142688361Y-79727448D01*
X141486280Y-80929529D01*
X141026661Y-80469910D01*
X142228742Y-79267829D01*
X142228742Y-79267829D01*
G37*
D11*
X142211065Y-80452233D03*
D12*
G36*
X142582296Y-79621383D02*
X143041915Y-80081002D01*
X141839834Y-81283083D01*
X141380215Y-80823464D01*
X142582296Y-79621383D01*
X142582296Y-79621383D01*
G37*
D11*
X142564618Y-80805786D03*
D12*
G36*
X142935849Y-79974936D02*
X143395468Y-80434555D01*
X142193387Y-81636636D01*
X141733768Y-81177017D01*
X142935849Y-79974936D01*
X142935849Y-79974936D01*
G37*
D11*
X142918171Y-81159339D03*
D12*
G36*
X143289402Y-80328489D02*
X143749021Y-80788108D01*
X142546940Y-81990189D01*
X142087321Y-81530570D01*
X143289402Y-80328489D01*
X143289402Y-80328489D01*
G37*
D11*
X143271725Y-81512893D03*
D12*
G36*
X143642956Y-80682043D02*
X144102575Y-81141662D01*
X142900494Y-82343743D01*
X142440875Y-81884124D01*
X143642956Y-80682043D01*
X143642956Y-80682043D01*
G37*
D11*
X143625278Y-81866446D03*
D12*
G36*
X143996509Y-81035596D02*
X144456128Y-81495215D01*
X143254047Y-82697296D01*
X142794428Y-82237677D01*
X143996509Y-81035596D01*
X143996509Y-81035596D01*
G37*
D11*
X143978832Y-82220000D03*
D12*
G36*
X144350063Y-81389150D02*
X144809682Y-81848769D01*
X143607601Y-83050850D01*
X143147982Y-82591231D01*
X144350063Y-81389150D01*
X144350063Y-81389150D01*
G37*
D11*
X144332385Y-82573553D03*
D12*
G36*
X144703616Y-81742703D02*
X145163235Y-82202322D01*
X143961154Y-83404403D01*
X143501535Y-82944784D01*
X144703616Y-81742703D01*
X144703616Y-81742703D01*
G37*
D11*
X144685938Y-82927106D03*
D12*
G36*
X145057169Y-82096256D02*
X145516788Y-82555875D01*
X144314707Y-83757956D01*
X143855088Y-83298337D01*
X145057169Y-82096256D01*
X145057169Y-82096256D01*
G37*
D11*
X145039492Y-83280660D03*
D12*
G36*
X145410723Y-82449810D02*
X145870342Y-82909429D01*
X144668261Y-84111510D01*
X144208642Y-83651891D01*
X145410723Y-82449810D01*
X145410723Y-82449810D01*
G37*
D11*
X145393045Y-83634213D03*
D12*
G36*
X145764276Y-82803363D02*
X146223895Y-83262982D01*
X145021814Y-84465063D01*
X144562195Y-84005444D01*
X145764276Y-82803363D01*
X145764276Y-82803363D01*
G37*
D11*
X147655787Y-83634213D03*
D12*
G36*
X146824937Y-83262982D02*
X147284556Y-82803363D01*
X148486637Y-84005444D01*
X148027018Y-84465063D01*
X146824937Y-83262982D01*
X146824937Y-83262982D01*
G37*
D11*
X148009340Y-83280660D03*
D12*
G36*
X147178490Y-82909429D02*
X147638109Y-82449810D01*
X148840190Y-83651891D01*
X148380571Y-84111510D01*
X147178490Y-82909429D01*
X147178490Y-82909429D01*
G37*
D11*
X148362894Y-82927106D03*
D12*
G36*
X147532044Y-82555875D02*
X147991663Y-82096256D01*
X149193744Y-83298337D01*
X148734125Y-83757956D01*
X147532044Y-82555875D01*
X147532044Y-82555875D01*
G37*
D11*
X148716447Y-82573553D03*
D12*
G36*
X147885597Y-82202322D02*
X148345216Y-81742703D01*
X149547297Y-82944784D01*
X149087678Y-83404403D01*
X147885597Y-82202322D01*
X147885597Y-82202322D01*
G37*
D11*
X149070000Y-82220000D03*
D12*
G36*
X148239150Y-81848769D02*
X148698769Y-81389150D01*
X149900850Y-82591231D01*
X149441231Y-83050850D01*
X148239150Y-81848769D01*
X148239150Y-81848769D01*
G37*
D11*
X149423554Y-81866446D03*
D12*
G36*
X148592704Y-81495215D02*
X149052323Y-81035596D01*
X150254404Y-82237677D01*
X149794785Y-82697296D01*
X148592704Y-81495215D01*
X148592704Y-81495215D01*
G37*
D11*
X149777107Y-81512893D03*
D12*
G36*
X148946257Y-81141662D02*
X149405876Y-80682043D01*
X150607957Y-81884124D01*
X150148338Y-82343743D01*
X148946257Y-81141662D01*
X148946257Y-81141662D01*
G37*
D11*
X150130661Y-81159339D03*
D12*
G36*
X149299811Y-80788108D02*
X149759430Y-80328489D01*
X150961511Y-81530570D01*
X150501892Y-81990189D01*
X149299811Y-80788108D01*
X149299811Y-80788108D01*
G37*
D11*
X150484214Y-80805786D03*
D12*
G36*
X149653364Y-80434555D02*
X150112983Y-79974936D01*
X151315064Y-81177017D01*
X150855445Y-81636636D01*
X149653364Y-80434555D01*
X149653364Y-80434555D01*
G37*
D11*
X150837767Y-80452233D03*
D12*
G36*
X150006917Y-80081002D02*
X150466536Y-79621383D01*
X151668617Y-80823464D01*
X151208998Y-81283083D01*
X150006917Y-80081002D01*
X150006917Y-80081002D01*
G37*
D11*
X151191321Y-80098679D03*
D12*
G36*
X150360471Y-79727448D02*
X150820090Y-79267829D01*
X152022171Y-80469910D01*
X151562552Y-80929529D01*
X150360471Y-79727448D01*
X150360471Y-79727448D01*
G37*
D11*
X151544874Y-79745126D03*
D12*
G36*
X150714024Y-79373895D02*
X151173643Y-78914276D01*
X152375724Y-80116357D01*
X151916105Y-80575976D01*
X150714024Y-79373895D01*
X150714024Y-79373895D01*
G37*
G04 #@! TD*
D13*
G04 #@! TO.C,U2*
X129790000Y-79150000D03*
X137410000Y-91850000D03*
X129790000Y-81690000D03*
X137410000Y-89310000D03*
X129790000Y-84230000D03*
X137410000Y-86770000D03*
X129790000Y-86770000D03*
X137410000Y-84230000D03*
X129790000Y-89310000D03*
X137410000Y-81690000D03*
X129790000Y-91850000D03*
X137410000Y-79150000D03*
G04 #@! TD*
D14*
G04 #@! TO.C,RN2*
X151146446Y-85103553D03*
D12*
G36*
X150573690Y-85039913D02*
X151082806Y-84530797D01*
X151719202Y-85167193D01*
X151210086Y-85676309D01*
X150573690Y-85039913D01*
X150573690Y-85039913D01*
G37*
D14*
X151500000Y-84750000D03*
D12*
G36*
X150927244Y-84686360D02*
X151436360Y-84177244D01*
X152072756Y-84813640D01*
X151563640Y-85322756D01*
X150927244Y-84686360D01*
X150927244Y-84686360D01*
G37*
D14*
X152207106Y-84042893D03*
D12*
G36*
X151634350Y-83979253D02*
X152143466Y-83470137D01*
X152779862Y-84106533D01*
X152270746Y-84615649D01*
X151634350Y-83979253D01*
X151634350Y-83979253D01*
G37*
D14*
X151853553Y-84396447D03*
D12*
G36*
X151280797Y-84332807D02*
X151789913Y-83823691D01*
X152426309Y-84460087D01*
X151917193Y-84969203D01*
X151280797Y-84332807D01*
X151280797Y-84332807D01*
G37*
D14*
X150439340Y-84396447D03*
D12*
G36*
X149866584Y-84332807D02*
X150375700Y-83823691D01*
X151012096Y-84460087D01*
X150502980Y-84969203D01*
X149866584Y-84332807D01*
X149866584Y-84332807D01*
G37*
D14*
X151146446Y-83689340D03*
D12*
G36*
X150573690Y-83625700D02*
X151082806Y-83116584D01*
X151719202Y-83752980D01*
X151210086Y-84262096D01*
X150573690Y-83625700D01*
X150573690Y-83625700D01*
G37*
D14*
X150792893Y-84042893D03*
D12*
G36*
X150220137Y-83979253D02*
X150729253Y-83470137D01*
X151365649Y-84106533D01*
X150856533Y-84615649D01*
X150220137Y-83979253D01*
X150220137Y-83979253D01*
G37*
D14*
X151500000Y-83335787D03*
D12*
G36*
X150927244Y-83272147D02*
X151436360Y-82763031D01*
X152072756Y-83399427D01*
X151563640Y-83908543D01*
X150927244Y-83272147D01*
X150927244Y-83272147D01*
G37*
G04 #@! TD*
D15*
G04 #@! TO.C,Y1*
X153850000Y-71500000D03*
X155750000Y-71500000D03*
G04 #@! TD*
D13*
G04 #@! TO.C,U1*
X137410000Y-63750000D03*
X129790000Y-76450000D03*
X137410000Y-66290000D03*
X129790000Y-73910000D03*
X137410000Y-68830000D03*
X129790000Y-71370000D03*
X137410000Y-71370000D03*
X129790000Y-68830000D03*
X137410000Y-73910000D03*
X129790000Y-66290000D03*
X137410000Y-76450000D03*
X129790000Y-63750000D03*
G04 #@! TD*
D10*
G04 #@! TO.C,REF\002A\002A*
X134000000Y-90000000D03*
G04 #@! TD*
G04 #@! TO.C,REF\002A\002A*
X148000000Y-66000000D03*
G04 #@! TD*
G04 #@! TO.C,REF\002A\002A*
X134000000Y-66000000D03*
G04 #@! TD*
G04 #@! TO.C,REF\002A\002A*
X97000000Y-67000000D03*
G04 #@! TD*
G04 #@! TO.C,REF\002A\002A*
X111000000Y-67000000D03*
G04 #@! TD*
G04 #@! TO.C,REF\002A\002A*
X111000000Y-91000000D03*
G04 #@! TD*
G04 #@! TO.C,REF\002A\002A*
X97000000Y-91000000D03*
G04 #@! TD*
D16*
G04 #@! TO.C,BT1*
X113000000Y-86900000D03*
X113000000Y-71100000D03*
D17*
X113000000Y-79000000D03*
G04 #@! TD*
G04 #@! TO.C,BT2*
X95000000Y-79000000D03*
D16*
X95000000Y-86900000D03*
X95000000Y-71100000D03*
G04 #@! TD*
D12*
G04 #@! TO.C,C1*
G36*
X145254726Y-70705488D02*
X145285668Y-70710078D01*
X145316011Y-70717678D01*
X145345463Y-70728216D01*
X145373741Y-70741591D01*
X145400571Y-70757672D01*
X145425696Y-70776306D01*
X145448873Y-70797313D01*
X145952687Y-71301127D01*
X145973694Y-71324304D01*
X145992328Y-71349429D01*
X146008409Y-71376259D01*
X146021784Y-71404537D01*
X146032322Y-71433989D01*
X146039922Y-71464332D01*
X146044512Y-71495274D01*
X146046047Y-71526517D01*
X146044512Y-71557760D01*
X146039922Y-71588702D01*
X146032322Y-71619045D01*
X146021784Y-71648497D01*
X146008409Y-71676775D01*
X145992328Y-71703605D01*
X145973694Y-71728730D01*
X145952687Y-71751907D01*
X145501907Y-72202687D01*
X145478730Y-72223694D01*
X145453605Y-72242328D01*
X145426775Y-72258409D01*
X145398497Y-72271784D01*
X145369045Y-72282322D01*
X145338702Y-72289922D01*
X145307760Y-72294512D01*
X145276517Y-72296047D01*
X145245274Y-72294512D01*
X145214332Y-72289922D01*
X145183989Y-72282322D01*
X145154537Y-72271784D01*
X145126259Y-72258409D01*
X145099429Y-72242328D01*
X145074304Y-72223694D01*
X145051127Y-72202687D01*
X144547313Y-71698873D01*
X144526306Y-71675696D01*
X144507672Y-71650571D01*
X144491591Y-71623741D01*
X144478216Y-71595463D01*
X144467678Y-71566011D01*
X144460078Y-71535668D01*
X144455488Y-71504726D01*
X144453953Y-71473483D01*
X144455488Y-71442240D01*
X144460078Y-71411298D01*
X144467678Y-71380955D01*
X144478216Y-71351503D01*
X144491591Y-71323225D01*
X144507672Y-71296395D01*
X144526306Y-71271270D01*
X144547313Y-71248093D01*
X144998093Y-70797313D01*
X145021270Y-70776306D01*
X145046395Y-70757672D01*
X145073225Y-70741591D01*
X145101503Y-70728216D01*
X145130955Y-70717678D01*
X145161298Y-70710078D01*
X145192240Y-70705488D01*
X145223483Y-70703953D01*
X145254726Y-70705488D01*
X145254726Y-70705488D01*
G37*
D18*
X145250000Y-71500000D03*
D12*
G36*
X146368420Y-69591794D02*
X146399362Y-69596384D01*
X146429705Y-69603984D01*
X146459157Y-69614522D01*
X146487435Y-69627897D01*
X146514265Y-69643978D01*
X146539390Y-69662612D01*
X146562567Y-69683619D01*
X147066381Y-70187433D01*
X147087388Y-70210610D01*
X147106022Y-70235735D01*
X147122103Y-70262565D01*
X147135478Y-70290843D01*
X147146016Y-70320295D01*
X147153616Y-70350638D01*
X147158206Y-70381580D01*
X147159741Y-70412823D01*
X147158206Y-70444066D01*
X147153616Y-70475008D01*
X147146016Y-70505351D01*
X147135478Y-70534803D01*
X147122103Y-70563081D01*
X147106022Y-70589911D01*
X147087388Y-70615036D01*
X147066381Y-70638213D01*
X146615601Y-71088993D01*
X146592424Y-71110000D01*
X146567299Y-71128634D01*
X146540469Y-71144715D01*
X146512191Y-71158090D01*
X146482739Y-71168628D01*
X146452396Y-71176228D01*
X146421454Y-71180818D01*
X146390211Y-71182353D01*
X146358968Y-71180818D01*
X146328026Y-71176228D01*
X146297683Y-71168628D01*
X146268231Y-71158090D01*
X146239953Y-71144715D01*
X146213123Y-71128634D01*
X146187998Y-71110000D01*
X146164821Y-71088993D01*
X145661007Y-70585179D01*
X145640000Y-70562002D01*
X145621366Y-70536877D01*
X145605285Y-70510047D01*
X145591910Y-70481769D01*
X145581372Y-70452317D01*
X145573772Y-70421974D01*
X145569182Y-70391032D01*
X145567647Y-70359789D01*
X145569182Y-70328546D01*
X145573772Y-70297604D01*
X145581372Y-70267261D01*
X145591910Y-70237809D01*
X145605285Y-70209531D01*
X145621366Y-70182701D01*
X145640000Y-70157576D01*
X145661007Y-70134399D01*
X146111787Y-69683619D01*
X146134964Y-69662612D01*
X146160089Y-69643978D01*
X146186919Y-69627897D01*
X146215197Y-69614522D01*
X146244649Y-69603984D01*
X146274992Y-69596384D01*
X146305934Y-69591794D01*
X146337177Y-69590259D01*
X146368420Y-69591794D01*
X146368420Y-69591794D01*
G37*
D18*
X146363694Y-70386306D03*
G04 #@! TD*
D12*
G04 #@! TO.C,C2*
G36*
X153641032Y-78819182D02*
X153671974Y-78823772D01*
X153702317Y-78831372D01*
X153731769Y-78841910D01*
X153760047Y-78855285D01*
X153786877Y-78871366D01*
X153812002Y-78890000D01*
X153835179Y-78911007D01*
X154338993Y-79414821D01*
X154360000Y-79437998D01*
X154378634Y-79463123D01*
X154394715Y-79489953D01*
X154408090Y-79518231D01*
X154418628Y-79547683D01*
X154426228Y-79578026D01*
X154430818Y-79608968D01*
X154432353Y-79640211D01*
X154430818Y-79671454D01*
X154426228Y-79702396D01*
X154418628Y-79732739D01*
X154408090Y-79762191D01*
X154394715Y-79790469D01*
X154378634Y-79817299D01*
X154360000Y-79842424D01*
X154338993Y-79865601D01*
X153888213Y-80316381D01*
X153865036Y-80337388D01*
X153839911Y-80356022D01*
X153813081Y-80372103D01*
X153784803Y-80385478D01*
X153755351Y-80396016D01*
X153725008Y-80403616D01*
X153694066Y-80408206D01*
X153662823Y-80409741D01*
X153631580Y-80408206D01*
X153600638Y-80403616D01*
X153570295Y-80396016D01*
X153540843Y-80385478D01*
X153512565Y-80372103D01*
X153485735Y-80356022D01*
X153460610Y-80337388D01*
X153437433Y-80316381D01*
X152933619Y-79812567D01*
X152912612Y-79789390D01*
X152893978Y-79764265D01*
X152877897Y-79737435D01*
X152864522Y-79709157D01*
X152853984Y-79679705D01*
X152846384Y-79649362D01*
X152841794Y-79618420D01*
X152840259Y-79587177D01*
X152841794Y-79555934D01*
X152846384Y-79524992D01*
X152853984Y-79494649D01*
X152864522Y-79465197D01*
X152877897Y-79436919D01*
X152893978Y-79410089D01*
X152912612Y-79384964D01*
X152933619Y-79361787D01*
X153384399Y-78911007D01*
X153407576Y-78890000D01*
X153432701Y-78871366D01*
X153459531Y-78855285D01*
X153487809Y-78841910D01*
X153517261Y-78831372D01*
X153547604Y-78823772D01*
X153578546Y-78819182D01*
X153609789Y-78817647D01*
X153641032Y-78819182D01*
X153641032Y-78819182D01*
G37*
D18*
X153636306Y-79613694D03*
D12*
G36*
X154754726Y-77705488D02*
X154785668Y-77710078D01*
X154816011Y-77717678D01*
X154845463Y-77728216D01*
X154873741Y-77741591D01*
X154900571Y-77757672D01*
X154925696Y-77776306D01*
X154948873Y-77797313D01*
X155452687Y-78301127D01*
X155473694Y-78324304D01*
X155492328Y-78349429D01*
X155508409Y-78376259D01*
X155521784Y-78404537D01*
X155532322Y-78433989D01*
X155539922Y-78464332D01*
X155544512Y-78495274D01*
X155546047Y-78526517D01*
X155544512Y-78557760D01*
X155539922Y-78588702D01*
X155532322Y-78619045D01*
X155521784Y-78648497D01*
X155508409Y-78676775D01*
X155492328Y-78703605D01*
X155473694Y-78728730D01*
X155452687Y-78751907D01*
X155001907Y-79202687D01*
X154978730Y-79223694D01*
X154953605Y-79242328D01*
X154926775Y-79258409D01*
X154898497Y-79271784D01*
X154869045Y-79282322D01*
X154838702Y-79289922D01*
X154807760Y-79294512D01*
X154776517Y-79296047D01*
X154745274Y-79294512D01*
X154714332Y-79289922D01*
X154683989Y-79282322D01*
X154654537Y-79271784D01*
X154626259Y-79258409D01*
X154599429Y-79242328D01*
X154574304Y-79223694D01*
X154551127Y-79202687D01*
X154047313Y-78698873D01*
X154026306Y-78675696D01*
X154007672Y-78650571D01*
X153991591Y-78623741D01*
X153978216Y-78595463D01*
X153967678Y-78566011D01*
X153960078Y-78535668D01*
X153955488Y-78504726D01*
X153953953Y-78473483D01*
X153955488Y-78442240D01*
X153960078Y-78411298D01*
X153967678Y-78380955D01*
X153978216Y-78351503D01*
X153991591Y-78323225D01*
X154007672Y-78296395D01*
X154026306Y-78271270D01*
X154047313Y-78248093D01*
X154498093Y-77797313D01*
X154521270Y-77776306D01*
X154546395Y-77757672D01*
X154573225Y-77741591D01*
X154601503Y-77728216D01*
X154630955Y-77717678D01*
X154661298Y-77710078D01*
X154692240Y-77705488D01*
X154723483Y-77703953D01*
X154754726Y-77705488D01*
X154754726Y-77705488D01*
G37*
D18*
X154750000Y-78500000D03*
G04 #@! TD*
D12*
G04 #@! TO.C,C3*
G36*
X139444066Y-76841794D02*
X139475008Y-76846384D01*
X139505351Y-76853984D01*
X139534803Y-76864522D01*
X139563081Y-76877897D01*
X139589911Y-76893978D01*
X139615036Y-76912612D01*
X139638213Y-76933619D01*
X140088993Y-77384399D01*
X140110000Y-77407576D01*
X140128634Y-77432701D01*
X140144715Y-77459531D01*
X140158090Y-77487809D01*
X140168628Y-77517261D01*
X140176228Y-77547604D01*
X140180818Y-77578546D01*
X140182353Y-77609789D01*
X140180818Y-77641032D01*
X140176228Y-77671974D01*
X140168628Y-77702317D01*
X140158090Y-77731769D01*
X140144715Y-77760047D01*
X140128634Y-77786877D01*
X140110000Y-77812002D01*
X140088993Y-77835179D01*
X139585179Y-78338993D01*
X139562002Y-78360000D01*
X139536877Y-78378634D01*
X139510047Y-78394715D01*
X139481769Y-78408090D01*
X139452317Y-78418628D01*
X139421974Y-78426228D01*
X139391032Y-78430818D01*
X139359789Y-78432353D01*
X139328546Y-78430818D01*
X139297604Y-78426228D01*
X139267261Y-78418628D01*
X139237809Y-78408090D01*
X139209531Y-78394715D01*
X139182701Y-78378634D01*
X139157576Y-78360000D01*
X139134399Y-78338993D01*
X138683619Y-77888213D01*
X138662612Y-77865036D01*
X138643978Y-77839911D01*
X138627897Y-77813081D01*
X138614522Y-77784803D01*
X138603984Y-77755351D01*
X138596384Y-77725008D01*
X138591794Y-77694066D01*
X138590259Y-77662823D01*
X138591794Y-77631580D01*
X138596384Y-77600638D01*
X138603984Y-77570295D01*
X138614522Y-77540843D01*
X138627897Y-77512565D01*
X138643978Y-77485735D01*
X138662612Y-77460610D01*
X138683619Y-77437433D01*
X139187433Y-76933619D01*
X139210610Y-76912612D01*
X139235735Y-76893978D01*
X139262565Y-76877897D01*
X139290843Y-76864522D01*
X139320295Y-76853984D01*
X139350638Y-76846384D01*
X139381580Y-76841794D01*
X139412823Y-76840259D01*
X139444066Y-76841794D01*
X139444066Y-76841794D01*
G37*
D18*
X139386306Y-77636306D03*
D12*
G36*
X140557760Y-77955488D02*
X140588702Y-77960078D01*
X140619045Y-77967678D01*
X140648497Y-77978216D01*
X140676775Y-77991591D01*
X140703605Y-78007672D01*
X140728730Y-78026306D01*
X140751907Y-78047313D01*
X141202687Y-78498093D01*
X141223694Y-78521270D01*
X141242328Y-78546395D01*
X141258409Y-78573225D01*
X141271784Y-78601503D01*
X141282322Y-78630955D01*
X141289922Y-78661298D01*
X141294512Y-78692240D01*
X141296047Y-78723483D01*
X141294512Y-78754726D01*
X141289922Y-78785668D01*
X141282322Y-78816011D01*
X141271784Y-78845463D01*
X141258409Y-78873741D01*
X141242328Y-78900571D01*
X141223694Y-78925696D01*
X141202687Y-78948873D01*
X140698873Y-79452687D01*
X140675696Y-79473694D01*
X140650571Y-79492328D01*
X140623741Y-79508409D01*
X140595463Y-79521784D01*
X140566011Y-79532322D01*
X140535668Y-79539922D01*
X140504726Y-79544512D01*
X140473483Y-79546047D01*
X140442240Y-79544512D01*
X140411298Y-79539922D01*
X140380955Y-79532322D01*
X140351503Y-79521784D01*
X140323225Y-79508409D01*
X140296395Y-79492328D01*
X140271270Y-79473694D01*
X140248093Y-79452687D01*
X139797313Y-79001907D01*
X139776306Y-78978730D01*
X139757672Y-78953605D01*
X139741591Y-78926775D01*
X139728216Y-78898497D01*
X139717678Y-78869045D01*
X139710078Y-78838702D01*
X139705488Y-78807760D01*
X139703953Y-78776517D01*
X139705488Y-78745274D01*
X139710078Y-78714332D01*
X139717678Y-78683989D01*
X139728216Y-78654537D01*
X139741591Y-78626259D01*
X139757672Y-78599429D01*
X139776306Y-78574304D01*
X139797313Y-78551127D01*
X140301127Y-78047313D01*
X140324304Y-78026306D01*
X140349429Y-78007672D01*
X140376259Y-77991591D01*
X140404537Y-77978216D01*
X140433989Y-77967678D01*
X140464332Y-77960078D01*
X140495274Y-77955488D01*
X140526517Y-77953953D01*
X140557760Y-77955488D01*
X140557760Y-77955488D01*
G37*
D18*
X140500000Y-78750000D03*
G04 #@! TD*
D12*
G04 #@! TO.C,C4*
G36*
X146391032Y-71762335D02*
X146421974Y-71766925D01*
X146452317Y-71774525D01*
X146481769Y-71785063D01*
X146510047Y-71798438D01*
X146536877Y-71814519D01*
X146562002Y-71833153D01*
X146585179Y-71854160D01*
X147088993Y-72357974D01*
X147110000Y-72381151D01*
X147128634Y-72406276D01*
X147144715Y-72433106D01*
X147158090Y-72461384D01*
X147168628Y-72490836D01*
X147176228Y-72521179D01*
X147180818Y-72552121D01*
X147182353Y-72583364D01*
X147180818Y-72614607D01*
X147176228Y-72645549D01*
X147168628Y-72675892D01*
X147158090Y-72705344D01*
X147144715Y-72733622D01*
X147128634Y-72760452D01*
X147110000Y-72785577D01*
X147088993Y-72808754D01*
X146638213Y-73259534D01*
X146615036Y-73280541D01*
X146589911Y-73299175D01*
X146563081Y-73315256D01*
X146534803Y-73328631D01*
X146505351Y-73339169D01*
X146475008Y-73346769D01*
X146444066Y-73351359D01*
X146412823Y-73352894D01*
X146381580Y-73351359D01*
X146350638Y-73346769D01*
X146320295Y-73339169D01*
X146290843Y-73328631D01*
X146262565Y-73315256D01*
X146235735Y-73299175D01*
X146210610Y-73280541D01*
X146187433Y-73259534D01*
X145683619Y-72755720D01*
X145662612Y-72732543D01*
X145643978Y-72707418D01*
X145627897Y-72680588D01*
X145614522Y-72652310D01*
X145603984Y-72622858D01*
X145596384Y-72592515D01*
X145591794Y-72561573D01*
X145590259Y-72530330D01*
X145591794Y-72499087D01*
X145596384Y-72468145D01*
X145603984Y-72437802D01*
X145614522Y-72408350D01*
X145627897Y-72380072D01*
X145643978Y-72353242D01*
X145662612Y-72328117D01*
X145683619Y-72304940D01*
X146134399Y-71854160D01*
X146157576Y-71833153D01*
X146182701Y-71814519D01*
X146209531Y-71798438D01*
X146237809Y-71785063D01*
X146267261Y-71774525D01*
X146297604Y-71766925D01*
X146328546Y-71762335D01*
X146359789Y-71760800D01*
X146391032Y-71762335D01*
X146391032Y-71762335D01*
G37*
D18*
X146386306Y-72556847D03*
D12*
G36*
X147504726Y-70648641D02*
X147535668Y-70653231D01*
X147566011Y-70660831D01*
X147595463Y-70671369D01*
X147623741Y-70684744D01*
X147650571Y-70700825D01*
X147675696Y-70719459D01*
X147698873Y-70740466D01*
X148202687Y-71244280D01*
X148223694Y-71267457D01*
X148242328Y-71292582D01*
X148258409Y-71319412D01*
X148271784Y-71347690D01*
X148282322Y-71377142D01*
X148289922Y-71407485D01*
X148294512Y-71438427D01*
X148296047Y-71469670D01*
X148294512Y-71500913D01*
X148289922Y-71531855D01*
X148282322Y-71562198D01*
X148271784Y-71591650D01*
X148258409Y-71619928D01*
X148242328Y-71646758D01*
X148223694Y-71671883D01*
X148202687Y-71695060D01*
X147751907Y-72145840D01*
X147728730Y-72166847D01*
X147703605Y-72185481D01*
X147676775Y-72201562D01*
X147648497Y-72214937D01*
X147619045Y-72225475D01*
X147588702Y-72233075D01*
X147557760Y-72237665D01*
X147526517Y-72239200D01*
X147495274Y-72237665D01*
X147464332Y-72233075D01*
X147433989Y-72225475D01*
X147404537Y-72214937D01*
X147376259Y-72201562D01*
X147349429Y-72185481D01*
X147324304Y-72166847D01*
X147301127Y-72145840D01*
X146797313Y-71642026D01*
X146776306Y-71618849D01*
X146757672Y-71593724D01*
X146741591Y-71566894D01*
X146728216Y-71538616D01*
X146717678Y-71509164D01*
X146710078Y-71478821D01*
X146705488Y-71447879D01*
X146703953Y-71416636D01*
X146705488Y-71385393D01*
X146710078Y-71354451D01*
X146717678Y-71324108D01*
X146728216Y-71294656D01*
X146741591Y-71266378D01*
X146757672Y-71239548D01*
X146776306Y-71214423D01*
X146797313Y-71191246D01*
X147248093Y-70740466D01*
X147271270Y-70719459D01*
X147296395Y-70700825D01*
X147323225Y-70684744D01*
X147351503Y-70671369D01*
X147380955Y-70660831D01*
X147411298Y-70653231D01*
X147442240Y-70648641D01*
X147473483Y-70647106D01*
X147504726Y-70648641D01*
X147504726Y-70648641D01*
G37*
D18*
X147500000Y-71443153D03*
G04 #@! TD*
D12*
G04 #@! TO.C,C5*
G36*
X153618420Y-76648641D02*
X153649362Y-76653231D01*
X153679705Y-76660831D01*
X153709157Y-76671369D01*
X153737435Y-76684744D01*
X153764265Y-76700825D01*
X153789390Y-76719459D01*
X153812567Y-76740466D01*
X154316381Y-77244280D01*
X154337388Y-77267457D01*
X154356022Y-77292582D01*
X154372103Y-77319412D01*
X154385478Y-77347690D01*
X154396016Y-77377142D01*
X154403616Y-77407485D01*
X154408206Y-77438427D01*
X154409741Y-77469670D01*
X154408206Y-77500913D01*
X154403616Y-77531855D01*
X154396016Y-77562198D01*
X154385478Y-77591650D01*
X154372103Y-77619928D01*
X154356022Y-77646758D01*
X154337388Y-77671883D01*
X154316381Y-77695060D01*
X153865601Y-78145840D01*
X153842424Y-78166847D01*
X153817299Y-78185481D01*
X153790469Y-78201562D01*
X153762191Y-78214937D01*
X153732739Y-78225475D01*
X153702396Y-78233075D01*
X153671454Y-78237665D01*
X153640211Y-78239200D01*
X153608968Y-78237665D01*
X153578026Y-78233075D01*
X153547683Y-78225475D01*
X153518231Y-78214937D01*
X153489953Y-78201562D01*
X153463123Y-78185481D01*
X153437998Y-78166847D01*
X153414821Y-78145840D01*
X152911007Y-77642026D01*
X152890000Y-77618849D01*
X152871366Y-77593724D01*
X152855285Y-77566894D01*
X152841910Y-77538616D01*
X152831372Y-77509164D01*
X152823772Y-77478821D01*
X152819182Y-77447879D01*
X152817647Y-77416636D01*
X152819182Y-77385393D01*
X152823772Y-77354451D01*
X152831372Y-77324108D01*
X152841910Y-77294656D01*
X152855285Y-77266378D01*
X152871366Y-77239548D01*
X152890000Y-77214423D01*
X152911007Y-77191246D01*
X153361787Y-76740466D01*
X153384964Y-76719459D01*
X153410089Y-76700825D01*
X153436919Y-76684744D01*
X153465197Y-76671369D01*
X153494649Y-76660831D01*
X153524992Y-76653231D01*
X153555934Y-76648641D01*
X153587177Y-76647106D01*
X153618420Y-76648641D01*
X153618420Y-76648641D01*
G37*
D18*
X153613694Y-77443153D03*
D12*
G36*
X152504726Y-77762335D02*
X152535668Y-77766925D01*
X152566011Y-77774525D01*
X152595463Y-77785063D01*
X152623741Y-77798438D01*
X152650571Y-77814519D01*
X152675696Y-77833153D01*
X152698873Y-77854160D01*
X153202687Y-78357974D01*
X153223694Y-78381151D01*
X153242328Y-78406276D01*
X153258409Y-78433106D01*
X153271784Y-78461384D01*
X153282322Y-78490836D01*
X153289922Y-78521179D01*
X153294512Y-78552121D01*
X153296047Y-78583364D01*
X153294512Y-78614607D01*
X153289922Y-78645549D01*
X153282322Y-78675892D01*
X153271784Y-78705344D01*
X153258409Y-78733622D01*
X153242328Y-78760452D01*
X153223694Y-78785577D01*
X153202687Y-78808754D01*
X152751907Y-79259534D01*
X152728730Y-79280541D01*
X152703605Y-79299175D01*
X152676775Y-79315256D01*
X152648497Y-79328631D01*
X152619045Y-79339169D01*
X152588702Y-79346769D01*
X152557760Y-79351359D01*
X152526517Y-79352894D01*
X152495274Y-79351359D01*
X152464332Y-79346769D01*
X152433989Y-79339169D01*
X152404537Y-79328631D01*
X152376259Y-79315256D01*
X152349429Y-79299175D01*
X152324304Y-79280541D01*
X152301127Y-79259534D01*
X151797313Y-78755720D01*
X151776306Y-78732543D01*
X151757672Y-78707418D01*
X151741591Y-78680588D01*
X151728216Y-78652310D01*
X151717678Y-78622858D01*
X151710078Y-78592515D01*
X151705488Y-78561573D01*
X151703953Y-78530330D01*
X151705488Y-78499087D01*
X151710078Y-78468145D01*
X151717678Y-78437802D01*
X151728216Y-78408350D01*
X151741591Y-78380072D01*
X151757672Y-78353242D01*
X151776306Y-78328117D01*
X151797313Y-78304940D01*
X152248093Y-77854160D01*
X152271270Y-77833153D01*
X152296395Y-77814519D01*
X152323225Y-77798438D01*
X152351503Y-77785063D01*
X152380955Y-77774525D01*
X152411298Y-77766925D01*
X152442240Y-77762335D01*
X152473483Y-77760800D01*
X152504726Y-77762335D01*
X152504726Y-77762335D01*
G37*
D18*
X152500000Y-78556847D03*
G04 #@! TD*
D12*
G04 #@! TO.C,C6*
G36*
X153504726Y-74705488D02*
X153535668Y-74710078D01*
X153566011Y-74717678D01*
X153595463Y-74728216D01*
X153623741Y-74741591D01*
X153650571Y-74757672D01*
X153675696Y-74776306D01*
X153698873Y-74797313D01*
X154202687Y-75301127D01*
X154223694Y-75324304D01*
X154242328Y-75349429D01*
X154258409Y-75376259D01*
X154271784Y-75404537D01*
X154282322Y-75433989D01*
X154289922Y-75464332D01*
X154294512Y-75495274D01*
X154296047Y-75526517D01*
X154294512Y-75557760D01*
X154289922Y-75588702D01*
X154282322Y-75619045D01*
X154271784Y-75648497D01*
X154258409Y-75676775D01*
X154242328Y-75703605D01*
X154223694Y-75728730D01*
X154202687Y-75751907D01*
X153751907Y-76202687D01*
X153728730Y-76223694D01*
X153703605Y-76242328D01*
X153676775Y-76258409D01*
X153648497Y-76271784D01*
X153619045Y-76282322D01*
X153588702Y-76289922D01*
X153557760Y-76294512D01*
X153526517Y-76296047D01*
X153495274Y-76294512D01*
X153464332Y-76289922D01*
X153433989Y-76282322D01*
X153404537Y-76271784D01*
X153376259Y-76258409D01*
X153349429Y-76242328D01*
X153324304Y-76223694D01*
X153301127Y-76202687D01*
X152797313Y-75698873D01*
X152776306Y-75675696D01*
X152757672Y-75650571D01*
X152741591Y-75623741D01*
X152728216Y-75595463D01*
X152717678Y-75566011D01*
X152710078Y-75535668D01*
X152705488Y-75504726D01*
X152703953Y-75473483D01*
X152705488Y-75442240D01*
X152710078Y-75411298D01*
X152717678Y-75380955D01*
X152728216Y-75351503D01*
X152741591Y-75323225D01*
X152757672Y-75296395D01*
X152776306Y-75271270D01*
X152797313Y-75248093D01*
X153248093Y-74797313D01*
X153271270Y-74776306D01*
X153296395Y-74757672D01*
X153323225Y-74741591D01*
X153351503Y-74728216D01*
X153380955Y-74717678D01*
X153411298Y-74710078D01*
X153442240Y-74705488D01*
X153473483Y-74703953D01*
X153504726Y-74705488D01*
X153504726Y-74705488D01*
G37*
D18*
X153500000Y-75500000D03*
D12*
G36*
X154618420Y-73591794D02*
X154649362Y-73596384D01*
X154679705Y-73603984D01*
X154709157Y-73614522D01*
X154737435Y-73627897D01*
X154764265Y-73643978D01*
X154789390Y-73662612D01*
X154812567Y-73683619D01*
X155316381Y-74187433D01*
X155337388Y-74210610D01*
X155356022Y-74235735D01*
X155372103Y-74262565D01*
X155385478Y-74290843D01*
X155396016Y-74320295D01*
X155403616Y-74350638D01*
X155408206Y-74381580D01*
X155409741Y-74412823D01*
X155408206Y-74444066D01*
X155403616Y-74475008D01*
X155396016Y-74505351D01*
X155385478Y-74534803D01*
X155372103Y-74563081D01*
X155356022Y-74589911D01*
X155337388Y-74615036D01*
X155316381Y-74638213D01*
X154865601Y-75088993D01*
X154842424Y-75110000D01*
X154817299Y-75128634D01*
X154790469Y-75144715D01*
X154762191Y-75158090D01*
X154732739Y-75168628D01*
X154702396Y-75176228D01*
X154671454Y-75180818D01*
X154640211Y-75182353D01*
X154608968Y-75180818D01*
X154578026Y-75176228D01*
X154547683Y-75168628D01*
X154518231Y-75158090D01*
X154489953Y-75144715D01*
X154463123Y-75128634D01*
X154437998Y-75110000D01*
X154414821Y-75088993D01*
X153911007Y-74585179D01*
X153890000Y-74562002D01*
X153871366Y-74536877D01*
X153855285Y-74510047D01*
X153841910Y-74481769D01*
X153831372Y-74452317D01*
X153823772Y-74421974D01*
X153819182Y-74391032D01*
X153817647Y-74359789D01*
X153819182Y-74328546D01*
X153823772Y-74297604D01*
X153831372Y-74267261D01*
X153841910Y-74237809D01*
X153855285Y-74209531D01*
X153871366Y-74182701D01*
X153890000Y-74157576D01*
X153911007Y-74134399D01*
X154361787Y-73683619D01*
X154384964Y-73662612D01*
X154410089Y-73643978D01*
X154436919Y-73627897D01*
X154465197Y-73614522D01*
X154494649Y-73603984D01*
X154524992Y-73596384D01*
X154555934Y-73591794D01*
X154587177Y-73590259D01*
X154618420Y-73591794D01*
X154618420Y-73591794D01*
G37*
D18*
X154613694Y-74386306D03*
G04 #@! TD*
D12*
G04 #@! TO.C,C7*
G36*
X106887493Y-85651535D02*
X106918435Y-85656125D01*
X106948778Y-85663725D01*
X106978230Y-85674263D01*
X107006508Y-85687638D01*
X107033338Y-85703719D01*
X107058463Y-85722353D01*
X107081640Y-85743360D01*
X107102647Y-85766537D01*
X107121281Y-85791662D01*
X107137362Y-85818492D01*
X107150737Y-85846770D01*
X107161275Y-85876222D01*
X107168875Y-85906565D01*
X107173465Y-85937507D01*
X107175000Y-85968750D01*
X107175000Y-86606250D01*
X107173465Y-86637493D01*
X107168875Y-86668435D01*
X107161275Y-86698778D01*
X107150737Y-86728230D01*
X107137362Y-86756508D01*
X107121281Y-86783338D01*
X107102647Y-86808463D01*
X107081640Y-86831640D01*
X107058463Y-86852647D01*
X107033338Y-86871281D01*
X107006508Y-86887362D01*
X106978230Y-86900737D01*
X106948778Y-86911275D01*
X106918435Y-86918875D01*
X106887493Y-86923465D01*
X106856250Y-86925000D01*
X106143750Y-86925000D01*
X106112507Y-86923465D01*
X106081565Y-86918875D01*
X106051222Y-86911275D01*
X106021770Y-86900737D01*
X105993492Y-86887362D01*
X105966662Y-86871281D01*
X105941537Y-86852647D01*
X105918360Y-86831640D01*
X105897353Y-86808463D01*
X105878719Y-86783338D01*
X105862638Y-86756508D01*
X105849263Y-86728230D01*
X105838725Y-86698778D01*
X105831125Y-86668435D01*
X105826535Y-86637493D01*
X105825000Y-86606250D01*
X105825000Y-85968750D01*
X105826535Y-85937507D01*
X105831125Y-85906565D01*
X105838725Y-85876222D01*
X105849263Y-85846770D01*
X105862638Y-85818492D01*
X105878719Y-85791662D01*
X105897353Y-85766537D01*
X105918360Y-85743360D01*
X105941537Y-85722353D01*
X105966662Y-85703719D01*
X105993492Y-85687638D01*
X106021770Y-85674263D01*
X106051222Y-85663725D01*
X106081565Y-85656125D01*
X106112507Y-85651535D01*
X106143750Y-85650000D01*
X106856250Y-85650000D01*
X106887493Y-85651535D01*
X106887493Y-85651535D01*
G37*
D18*
X106500000Y-86287500D03*
D12*
G36*
X106887493Y-84076535D02*
X106918435Y-84081125D01*
X106948778Y-84088725D01*
X106978230Y-84099263D01*
X107006508Y-84112638D01*
X107033338Y-84128719D01*
X107058463Y-84147353D01*
X107081640Y-84168360D01*
X107102647Y-84191537D01*
X107121281Y-84216662D01*
X107137362Y-84243492D01*
X107150737Y-84271770D01*
X107161275Y-84301222D01*
X107168875Y-84331565D01*
X107173465Y-84362507D01*
X107175000Y-84393750D01*
X107175000Y-85031250D01*
X107173465Y-85062493D01*
X107168875Y-85093435D01*
X107161275Y-85123778D01*
X107150737Y-85153230D01*
X107137362Y-85181508D01*
X107121281Y-85208338D01*
X107102647Y-85233463D01*
X107081640Y-85256640D01*
X107058463Y-85277647D01*
X107033338Y-85296281D01*
X107006508Y-85312362D01*
X106978230Y-85325737D01*
X106948778Y-85336275D01*
X106918435Y-85343875D01*
X106887493Y-85348465D01*
X106856250Y-85350000D01*
X106143750Y-85350000D01*
X106112507Y-85348465D01*
X106081565Y-85343875D01*
X106051222Y-85336275D01*
X106021770Y-85325737D01*
X105993492Y-85312362D01*
X105966662Y-85296281D01*
X105941537Y-85277647D01*
X105918360Y-85256640D01*
X105897353Y-85233463D01*
X105878719Y-85208338D01*
X105862638Y-85181508D01*
X105849263Y-85153230D01*
X105838725Y-85123778D01*
X105831125Y-85093435D01*
X105826535Y-85062493D01*
X105825000Y-85031250D01*
X105825000Y-84393750D01*
X105826535Y-84362507D01*
X105831125Y-84331565D01*
X105838725Y-84301222D01*
X105849263Y-84271770D01*
X105862638Y-84243492D01*
X105878719Y-84216662D01*
X105897353Y-84191537D01*
X105918360Y-84168360D01*
X105941537Y-84147353D01*
X105966662Y-84128719D01*
X105993492Y-84112638D01*
X106021770Y-84099263D01*
X106051222Y-84088725D01*
X106081565Y-84081125D01*
X106112507Y-84076535D01*
X106143750Y-84075000D01*
X106856250Y-84075000D01*
X106887493Y-84076535D01*
X106887493Y-84076535D01*
G37*
D18*
X106500000Y-84712500D03*
G04 #@! TD*
D12*
G04 #@! TO.C,C8*
G36*
X153311573Y-72341794D02*
X153342515Y-72346384D01*
X153372858Y-72353984D01*
X153402310Y-72364522D01*
X153430588Y-72377897D01*
X153457418Y-72393978D01*
X153482543Y-72412612D01*
X153505720Y-72433619D01*
X154009534Y-72937433D01*
X154030541Y-72960610D01*
X154049175Y-72985735D01*
X154065256Y-73012565D01*
X154078631Y-73040843D01*
X154089169Y-73070295D01*
X154096769Y-73100638D01*
X154101359Y-73131580D01*
X154102894Y-73162823D01*
X154101359Y-73194066D01*
X154096769Y-73225008D01*
X154089169Y-73255351D01*
X154078631Y-73284803D01*
X154065256Y-73313081D01*
X154049175Y-73339911D01*
X154030541Y-73365036D01*
X154009534Y-73388213D01*
X153558754Y-73838993D01*
X153535577Y-73860000D01*
X153510452Y-73878634D01*
X153483622Y-73894715D01*
X153455344Y-73908090D01*
X153425892Y-73918628D01*
X153395549Y-73926228D01*
X153364607Y-73930818D01*
X153333364Y-73932353D01*
X153302121Y-73930818D01*
X153271179Y-73926228D01*
X153240836Y-73918628D01*
X153211384Y-73908090D01*
X153183106Y-73894715D01*
X153156276Y-73878634D01*
X153131151Y-73860000D01*
X153107974Y-73838993D01*
X152604160Y-73335179D01*
X152583153Y-73312002D01*
X152564519Y-73286877D01*
X152548438Y-73260047D01*
X152535063Y-73231769D01*
X152524525Y-73202317D01*
X152516925Y-73171974D01*
X152512335Y-73141032D01*
X152510800Y-73109789D01*
X152512335Y-73078546D01*
X152516925Y-73047604D01*
X152524525Y-73017261D01*
X152535063Y-72987809D01*
X152548438Y-72959531D01*
X152564519Y-72932701D01*
X152583153Y-72907576D01*
X152604160Y-72884399D01*
X153054940Y-72433619D01*
X153078117Y-72412612D01*
X153103242Y-72393978D01*
X153130072Y-72377897D01*
X153158350Y-72364522D01*
X153187802Y-72353984D01*
X153218145Y-72346384D01*
X153249087Y-72341794D01*
X153280330Y-72340259D01*
X153311573Y-72341794D01*
X153311573Y-72341794D01*
G37*
D18*
X153306847Y-73136306D03*
D12*
G36*
X152197879Y-73455488D02*
X152228821Y-73460078D01*
X152259164Y-73467678D01*
X152288616Y-73478216D01*
X152316894Y-73491591D01*
X152343724Y-73507672D01*
X152368849Y-73526306D01*
X152392026Y-73547313D01*
X152895840Y-74051127D01*
X152916847Y-74074304D01*
X152935481Y-74099429D01*
X152951562Y-74126259D01*
X152964937Y-74154537D01*
X152975475Y-74183989D01*
X152983075Y-74214332D01*
X152987665Y-74245274D01*
X152989200Y-74276517D01*
X152987665Y-74307760D01*
X152983075Y-74338702D01*
X152975475Y-74369045D01*
X152964937Y-74398497D01*
X152951562Y-74426775D01*
X152935481Y-74453605D01*
X152916847Y-74478730D01*
X152895840Y-74501907D01*
X152445060Y-74952687D01*
X152421883Y-74973694D01*
X152396758Y-74992328D01*
X152369928Y-75008409D01*
X152341650Y-75021784D01*
X152312198Y-75032322D01*
X152281855Y-75039922D01*
X152250913Y-75044512D01*
X152219670Y-75046047D01*
X152188427Y-75044512D01*
X152157485Y-75039922D01*
X152127142Y-75032322D01*
X152097690Y-75021784D01*
X152069412Y-75008409D01*
X152042582Y-74992328D01*
X152017457Y-74973694D01*
X151994280Y-74952687D01*
X151490466Y-74448873D01*
X151469459Y-74425696D01*
X151450825Y-74400571D01*
X151434744Y-74373741D01*
X151421369Y-74345463D01*
X151410831Y-74316011D01*
X151403231Y-74285668D01*
X151398641Y-74254726D01*
X151397106Y-74223483D01*
X151398641Y-74192240D01*
X151403231Y-74161298D01*
X151410831Y-74130955D01*
X151421369Y-74101503D01*
X151434744Y-74073225D01*
X151450825Y-74046395D01*
X151469459Y-74021270D01*
X151490466Y-73998093D01*
X151941246Y-73547313D01*
X151964423Y-73526306D01*
X151989548Y-73507672D01*
X152016378Y-73491591D01*
X152044656Y-73478216D01*
X152074108Y-73467678D01*
X152104451Y-73460078D01*
X152135393Y-73455488D01*
X152166636Y-73453953D01*
X152197879Y-73455488D01*
X152197879Y-73455488D01*
G37*
D18*
X152193153Y-74250000D03*
G04 #@! TD*
D12*
G04 #@! TO.C,C9*
G36*
X105137493Y-79826535D02*
X105168435Y-79831125D01*
X105198778Y-79838725D01*
X105228230Y-79849263D01*
X105256508Y-79862638D01*
X105283338Y-79878719D01*
X105308463Y-79897353D01*
X105331640Y-79918360D01*
X105352647Y-79941537D01*
X105371281Y-79966662D01*
X105387362Y-79993492D01*
X105400737Y-80021770D01*
X105411275Y-80051222D01*
X105418875Y-80081565D01*
X105423465Y-80112507D01*
X105425000Y-80143750D01*
X105425000Y-80856250D01*
X105423465Y-80887493D01*
X105418875Y-80918435D01*
X105411275Y-80948778D01*
X105400737Y-80978230D01*
X105387362Y-81006508D01*
X105371281Y-81033338D01*
X105352647Y-81058463D01*
X105331640Y-81081640D01*
X105308463Y-81102647D01*
X105283338Y-81121281D01*
X105256508Y-81137362D01*
X105228230Y-81150737D01*
X105198778Y-81161275D01*
X105168435Y-81168875D01*
X105137493Y-81173465D01*
X105106250Y-81175000D01*
X104468750Y-81175000D01*
X104437507Y-81173465D01*
X104406565Y-81168875D01*
X104376222Y-81161275D01*
X104346770Y-81150737D01*
X104318492Y-81137362D01*
X104291662Y-81121281D01*
X104266537Y-81102647D01*
X104243360Y-81081640D01*
X104222353Y-81058463D01*
X104203719Y-81033338D01*
X104187638Y-81006508D01*
X104174263Y-80978230D01*
X104163725Y-80948778D01*
X104156125Y-80918435D01*
X104151535Y-80887493D01*
X104150000Y-80856250D01*
X104150000Y-80143750D01*
X104151535Y-80112507D01*
X104156125Y-80081565D01*
X104163725Y-80051222D01*
X104174263Y-80021770D01*
X104187638Y-79993492D01*
X104203719Y-79966662D01*
X104222353Y-79941537D01*
X104243360Y-79918360D01*
X104266537Y-79897353D01*
X104291662Y-79878719D01*
X104318492Y-79862638D01*
X104346770Y-79849263D01*
X104376222Y-79838725D01*
X104406565Y-79831125D01*
X104437507Y-79826535D01*
X104468750Y-79825000D01*
X105106250Y-79825000D01*
X105137493Y-79826535D01*
X105137493Y-79826535D01*
G37*
D18*
X104787500Y-80500000D03*
D12*
G36*
X103562493Y-79826535D02*
X103593435Y-79831125D01*
X103623778Y-79838725D01*
X103653230Y-79849263D01*
X103681508Y-79862638D01*
X103708338Y-79878719D01*
X103733463Y-79897353D01*
X103756640Y-79918360D01*
X103777647Y-79941537D01*
X103796281Y-79966662D01*
X103812362Y-79993492D01*
X103825737Y-80021770D01*
X103836275Y-80051222D01*
X103843875Y-80081565D01*
X103848465Y-80112507D01*
X103850000Y-80143750D01*
X103850000Y-80856250D01*
X103848465Y-80887493D01*
X103843875Y-80918435D01*
X103836275Y-80948778D01*
X103825737Y-80978230D01*
X103812362Y-81006508D01*
X103796281Y-81033338D01*
X103777647Y-81058463D01*
X103756640Y-81081640D01*
X103733463Y-81102647D01*
X103708338Y-81121281D01*
X103681508Y-81137362D01*
X103653230Y-81150737D01*
X103623778Y-81161275D01*
X103593435Y-81168875D01*
X103562493Y-81173465D01*
X103531250Y-81175000D01*
X102893750Y-81175000D01*
X102862507Y-81173465D01*
X102831565Y-81168875D01*
X102801222Y-81161275D01*
X102771770Y-81150737D01*
X102743492Y-81137362D01*
X102716662Y-81121281D01*
X102691537Y-81102647D01*
X102668360Y-81081640D01*
X102647353Y-81058463D01*
X102628719Y-81033338D01*
X102612638Y-81006508D01*
X102599263Y-80978230D01*
X102588725Y-80948778D01*
X102581125Y-80918435D01*
X102576535Y-80887493D01*
X102575000Y-80856250D01*
X102575000Y-80143750D01*
X102576535Y-80112507D01*
X102581125Y-80081565D01*
X102588725Y-80051222D01*
X102599263Y-80021770D01*
X102612638Y-79993492D01*
X102628719Y-79966662D01*
X102647353Y-79941537D01*
X102668360Y-79918360D01*
X102691537Y-79897353D01*
X102716662Y-79878719D01*
X102743492Y-79862638D01*
X102771770Y-79849263D01*
X102801222Y-79838725D01*
X102831565Y-79831125D01*
X102862507Y-79826535D01*
X102893750Y-79825000D01*
X103531250Y-79825000D01*
X103562493Y-79826535D01*
X103562493Y-79826535D01*
G37*
D18*
X103212500Y-80500000D03*
G04 #@! TD*
D19*
G04 #@! TO.C,L1*
X106000000Y-87900000D03*
X106000000Y-90100000D03*
G04 #@! TD*
D12*
G04 #@! TO.C,R1*
G36*
X103562493Y-83326535D02*
X103593435Y-83331125D01*
X103623778Y-83338725D01*
X103653230Y-83349263D01*
X103681508Y-83362638D01*
X103708338Y-83378719D01*
X103733463Y-83397353D01*
X103756640Y-83418360D01*
X103777647Y-83441537D01*
X103796281Y-83466662D01*
X103812362Y-83493492D01*
X103825737Y-83521770D01*
X103836275Y-83551222D01*
X103843875Y-83581565D01*
X103848465Y-83612507D01*
X103850000Y-83643750D01*
X103850000Y-84356250D01*
X103848465Y-84387493D01*
X103843875Y-84418435D01*
X103836275Y-84448778D01*
X103825737Y-84478230D01*
X103812362Y-84506508D01*
X103796281Y-84533338D01*
X103777647Y-84558463D01*
X103756640Y-84581640D01*
X103733463Y-84602647D01*
X103708338Y-84621281D01*
X103681508Y-84637362D01*
X103653230Y-84650737D01*
X103623778Y-84661275D01*
X103593435Y-84668875D01*
X103562493Y-84673465D01*
X103531250Y-84675000D01*
X102893750Y-84675000D01*
X102862507Y-84673465D01*
X102831565Y-84668875D01*
X102801222Y-84661275D01*
X102771770Y-84650737D01*
X102743492Y-84637362D01*
X102716662Y-84621281D01*
X102691537Y-84602647D01*
X102668360Y-84581640D01*
X102647353Y-84558463D01*
X102628719Y-84533338D01*
X102612638Y-84506508D01*
X102599263Y-84478230D01*
X102588725Y-84448778D01*
X102581125Y-84418435D01*
X102576535Y-84387493D01*
X102575000Y-84356250D01*
X102575000Y-83643750D01*
X102576535Y-83612507D01*
X102581125Y-83581565D01*
X102588725Y-83551222D01*
X102599263Y-83521770D01*
X102612638Y-83493492D01*
X102628719Y-83466662D01*
X102647353Y-83441537D01*
X102668360Y-83418360D01*
X102691537Y-83397353D01*
X102716662Y-83378719D01*
X102743492Y-83362638D01*
X102771770Y-83349263D01*
X102801222Y-83338725D01*
X102831565Y-83331125D01*
X102862507Y-83326535D01*
X102893750Y-83325000D01*
X103531250Y-83325000D01*
X103562493Y-83326535D01*
X103562493Y-83326535D01*
G37*
D18*
X103212500Y-84000000D03*
D12*
G36*
X105137493Y-83326535D02*
X105168435Y-83331125D01*
X105198778Y-83338725D01*
X105228230Y-83349263D01*
X105256508Y-83362638D01*
X105283338Y-83378719D01*
X105308463Y-83397353D01*
X105331640Y-83418360D01*
X105352647Y-83441537D01*
X105371281Y-83466662D01*
X105387362Y-83493492D01*
X105400737Y-83521770D01*
X105411275Y-83551222D01*
X105418875Y-83581565D01*
X105423465Y-83612507D01*
X105425000Y-83643750D01*
X105425000Y-84356250D01*
X105423465Y-84387493D01*
X105418875Y-84418435D01*
X105411275Y-84448778D01*
X105400737Y-84478230D01*
X105387362Y-84506508D01*
X105371281Y-84533338D01*
X105352647Y-84558463D01*
X105331640Y-84581640D01*
X105308463Y-84602647D01*
X105283338Y-84621281D01*
X105256508Y-84637362D01*
X105228230Y-84650737D01*
X105198778Y-84661275D01*
X105168435Y-84668875D01*
X105137493Y-84673465D01*
X105106250Y-84675000D01*
X104468750Y-84675000D01*
X104437507Y-84673465D01*
X104406565Y-84668875D01*
X104376222Y-84661275D01*
X104346770Y-84650737D01*
X104318492Y-84637362D01*
X104291662Y-84621281D01*
X104266537Y-84602647D01*
X104243360Y-84581640D01*
X104222353Y-84558463D01*
X104203719Y-84533338D01*
X104187638Y-84506508D01*
X104174263Y-84478230D01*
X104163725Y-84448778D01*
X104156125Y-84418435D01*
X104151535Y-84387493D01*
X104150000Y-84356250D01*
X104150000Y-83643750D01*
X104151535Y-83612507D01*
X104156125Y-83581565D01*
X104163725Y-83551222D01*
X104174263Y-83521770D01*
X104187638Y-83493492D01*
X104203719Y-83466662D01*
X104222353Y-83441537D01*
X104243360Y-83418360D01*
X104266537Y-83397353D01*
X104291662Y-83378719D01*
X104318492Y-83362638D01*
X104346770Y-83349263D01*
X104376222Y-83338725D01*
X104406565Y-83331125D01*
X104437507Y-83326535D01*
X104468750Y-83325000D01*
X105106250Y-83325000D01*
X105137493Y-83326535D01*
X105137493Y-83326535D01*
G37*
D18*
X104787500Y-84000000D03*
G04 #@! TD*
D12*
G04 #@! TO.C,R2*
G36*
X103562493Y-84826535D02*
X103593435Y-84831125D01*
X103623778Y-84838725D01*
X103653230Y-84849263D01*
X103681508Y-84862638D01*
X103708338Y-84878719D01*
X103733463Y-84897353D01*
X103756640Y-84918360D01*
X103777647Y-84941537D01*
X103796281Y-84966662D01*
X103812362Y-84993492D01*
X103825737Y-85021770D01*
X103836275Y-85051222D01*
X103843875Y-85081565D01*
X103848465Y-85112507D01*
X103850000Y-85143750D01*
X103850000Y-85856250D01*
X103848465Y-85887493D01*
X103843875Y-85918435D01*
X103836275Y-85948778D01*
X103825737Y-85978230D01*
X103812362Y-86006508D01*
X103796281Y-86033338D01*
X103777647Y-86058463D01*
X103756640Y-86081640D01*
X103733463Y-86102647D01*
X103708338Y-86121281D01*
X103681508Y-86137362D01*
X103653230Y-86150737D01*
X103623778Y-86161275D01*
X103593435Y-86168875D01*
X103562493Y-86173465D01*
X103531250Y-86175000D01*
X102893750Y-86175000D01*
X102862507Y-86173465D01*
X102831565Y-86168875D01*
X102801222Y-86161275D01*
X102771770Y-86150737D01*
X102743492Y-86137362D01*
X102716662Y-86121281D01*
X102691537Y-86102647D01*
X102668360Y-86081640D01*
X102647353Y-86058463D01*
X102628719Y-86033338D01*
X102612638Y-86006508D01*
X102599263Y-85978230D01*
X102588725Y-85948778D01*
X102581125Y-85918435D01*
X102576535Y-85887493D01*
X102575000Y-85856250D01*
X102575000Y-85143750D01*
X102576535Y-85112507D01*
X102581125Y-85081565D01*
X102588725Y-85051222D01*
X102599263Y-85021770D01*
X102612638Y-84993492D01*
X102628719Y-84966662D01*
X102647353Y-84941537D01*
X102668360Y-84918360D01*
X102691537Y-84897353D01*
X102716662Y-84878719D01*
X102743492Y-84862638D01*
X102771770Y-84849263D01*
X102801222Y-84838725D01*
X102831565Y-84831125D01*
X102862507Y-84826535D01*
X102893750Y-84825000D01*
X103531250Y-84825000D01*
X103562493Y-84826535D01*
X103562493Y-84826535D01*
G37*
D18*
X103212500Y-85500000D03*
D12*
G36*
X105137493Y-84826535D02*
X105168435Y-84831125D01*
X105198778Y-84838725D01*
X105228230Y-84849263D01*
X105256508Y-84862638D01*
X105283338Y-84878719D01*
X105308463Y-84897353D01*
X105331640Y-84918360D01*
X105352647Y-84941537D01*
X105371281Y-84966662D01*
X105387362Y-84993492D01*
X105400737Y-85021770D01*
X105411275Y-85051222D01*
X105418875Y-85081565D01*
X105423465Y-85112507D01*
X105425000Y-85143750D01*
X105425000Y-85856250D01*
X105423465Y-85887493D01*
X105418875Y-85918435D01*
X105411275Y-85948778D01*
X105400737Y-85978230D01*
X105387362Y-86006508D01*
X105371281Y-86033338D01*
X105352647Y-86058463D01*
X105331640Y-86081640D01*
X105308463Y-86102647D01*
X105283338Y-86121281D01*
X105256508Y-86137362D01*
X105228230Y-86150737D01*
X105198778Y-86161275D01*
X105168435Y-86168875D01*
X105137493Y-86173465D01*
X105106250Y-86175000D01*
X104468750Y-86175000D01*
X104437507Y-86173465D01*
X104406565Y-86168875D01*
X104376222Y-86161275D01*
X104346770Y-86150737D01*
X104318492Y-86137362D01*
X104291662Y-86121281D01*
X104266537Y-86102647D01*
X104243360Y-86081640D01*
X104222353Y-86058463D01*
X104203719Y-86033338D01*
X104187638Y-86006508D01*
X104174263Y-85978230D01*
X104163725Y-85948778D01*
X104156125Y-85918435D01*
X104151535Y-85887493D01*
X104150000Y-85856250D01*
X104150000Y-85143750D01*
X104151535Y-85112507D01*
X104156125Y-85081565D01*
X104163725Y-85051222D01*
X104174263Y-85021770D01*
X104187638Y-84993492D01*
X104203719Y-84966662D01*
X104222353Y-84941537D01*
X104243360Y-84918360D01*
X104266537Y-84897353D01*
X104291662Y-84878719D01*
X104318492Y-84862638D01*
X104346770Y-84849263D01*
X104376222Y-84838725D01*
X104406565Y-84831125D01*
X104437507Y-84826535D01*
X104468750Y-84825000D01*
X105106250Y-84825000D01*
X105137493Y-84826535D01*
X105137493Y-84826535D01*
G37*
D18*
X104787500Y-85500000D03*
G04 #@! TD*
D12*
G04 #@! TO.C,R3*
G36*
X140524991Y-95076535D02*
X140555933Y-95081125D01*
X140586276Y-95088725D01*
X140615728Y-95099263D01*
X140644006Y-95112638D01*
X140670836Y-95128719D01*
X140695961Y-95147353D01*
X140719138Y-95168360D01*
X140740145Y-95191537D01*
X140758779Y-95216662D01*
X140774860Y-95243492D01*
X140788235Y-95271770D01*
X140798773Y-95301222D01*
X140806373Y-95331565D01*
X140810963Y-95362507D01*
X140812498Y-95393750D01*
X140812498Y-96106250D01*
X140810963Y-96137493D01*
X140806373Y-96168435D01*
X140798773Y-96198778D01*
X140788235Y-96228230D01*
X140774860Y-96256508D01*
X140758779Y-96283338D01*
X140740145Y-96308463D01*
X140719138Y-96331640D01*
X140695961Y-96352647D01*
X140670836Y-96371281D01*
X140644006Y-96387362D01*
X140615728Y-96400737D01*
X140586276Y-96411275D01*
X140555933Y-96418875D01*
X140524991Y-96423465D01*
X140493748Y-96425000D01*
X139856248Y-96425000D01*
X139825005Y-96423465D01*
X139794063Y-96418875D01*
X139763720Y-96411275D01*
X139734268Y-96400737D01*
X139705990Y-96387362D01*
X139679160Y-96371281D01*
X139654035Y-96352647D01*
X139630858Y-96331640D01*
X139609851Y-96308463D01*
X139591217Y-96283338D01*
X139575136Y-96256508D01*
X139561761Y-96228230D01*
X139551223Y-96198778D01*
X139543623Y-96168435D01*
X139539033Y-96137493D01*
X139537498Y-96106250D01*
X139537498Y-95393750D01*
X139539033Y-95362507D01*
X139543623Y-95331565D01*
X139551223Y-95301222D01*
X139561761Y-95271770D01*
X139575136Y-95243492D01*
X139591217Y-95216662D01*
X139609851Y-95191537D01*
X139630858Y-95168360D01*
X139654035Y-95147353D01*
X139679160Y-95128719D01*
X139705990Y-95112638D01*
X139734268Y-95099263D01*
X139763720Y-95088725D01*
X139794063Y-95081125D01*
X139825005Y-95076535D01*
X139856248Y-95075000D01*
X140493748Y-95075000D01*
X140524991Y-95076535D01*
X140524991Y-95076535D01*
G37*
D18*
X140174998Y-95750000D03*
D12*
G36*
X142099993Y-95076535D02*
X142130935Y-95081125D01*
X142161278Y-95088725D01*
X142190730Y-95099263D01*
X142219008Y-95112638D01*
X142245838Y-95128719D01*
X142270963Y-95147353D01*
X142294140Y-95168360D01*
X142315147Y-95191537D01*
X142333781Y-95216662D01*
X142349862Y-95243492D01*
X142363237Y-95271770D01*
X142373775Y-95301222D01*
X142381375Y-95331565D01*
X142385965Y-95362507D01*
X142387500Y-95393750D01*
X142387500Y-96106250D01*
X142385965Y-96137493D01*
X142381375Y-96168435D01*
X142373775Y-96198778D01*
X142363237Y-96228230D01*
X142349862Y-96256508D01*
X142333781Y-96283338D01*
X142315147Y-96308463D01*
X142294140Y-96331640D01*
X142270963Y-96352647D01*
X142245838Y-96371281D01*
X142219008Y-96387362D01*
X142190730Y-96400737D01*
X142161278Y-96411275D01*
X142130935Y-96418875D01*
X142099993Y-96423465D01*
X142068750Y-96425000D01*
X141431250Y-96425000D01*
X141400007Y-96423465D01*
X141369065Y-96418875D01*
X141338722Y-96411275D01*
X141309270Y-96400737D01*
X141280992Y-96387362D01*
X141254162Y-96371281D01*
X141229037Y-96352647D01*
X141205860Y-96331640D01*
X141184853Y-96308463D01*
X141166219Y-96283338D01*
X141150138Y-96256508D01*
X141136763Y-96228230D01*
X141126225Y-96198778D01*
X141118625Y-96168435D01*
X141114035Y-96137493D01*
X141112500Y-96106250D01*
X141112500Y-95393750D01*
X141114035Y-95362507D01*
X141118625Y-95331565D01*
X141126225Y-95301222D01*
X141136763Y-95271770D01*
X141150138Y-95243492D01*
X141166219Y-95216662D01*
X141184853Y-95191537D01*
X141205860Y-95168360D01*
X141229037Y-95147353D01*
X141254162Y-95128719D01*
X141280992Y-95112638D01*
X141309270Y-95099263D01*
X141338722Y-95088725D01*
X141369065Y-95081125D01*
X141400007Y-95076535D01*
X141431250Y-95075000D01*
X142068750Y-95075000D01*
X142099993Y-95076535D01*
X142099993Y-95076535D01*
G37*
D18*
X141750000Y-95750000D03*
G04 #@! TD*
D14*
G04 #@! TO.C,RN1*
X149616117Y-72573223D03*
D12*
G36*
X149552477Y-73145979D02*
X149043361Y-72636863D01*
X149679757Y-72000467D01*
X150188873Y-72509583D01*
X149552477Y-73145979D01*
X149552477Y-73145979D01*
G37*
D14*
X150323223Y-73280330D03*
D12*
G36*
X150259583Y-73853086D02*
X149750467Y-73343970D01*
X150386863Y-72707574D01*
X150895979Y-73216690D01*
X150259583Y-73853086D01*
X150259583Y-73853086D01*
G37*
D14*
X149969670Y-72926777D03*
D12*
G36*
X149906030Y-73499533D02*
X149396914Y-72990417D01*
X150033310Y-72354021D01*
X150542426Y-72863137D01*
X149906030Y-73499533D01*
X149906030Y-73499533D01*
G37*
D14*
X150676777Y-73633883D03*
D12*
G36*
X150613137Y-74206639D02*
X150104021Y-73697523D01*
X150740417Y-73061127D01*
X151249533Y-73570243D01*
X150613137Y-74206639D01*
X150613137Y-74206639D01*
G37*
D14*
X150676777Y-72219670D03*
D12*
G36*
X150613137Y-72792426D02*
X150104021Y-72283310D01*
X150740417Y-71646914D01*
X151249533Y-72156030D01*
X150613137Y-72792426D01*
X150613137Y-72792426D01*
G37*
D14*
X150323223Y-71866117D03*
D12*
G36*
X150259583Y-72438873D02*
X149750467Y-71929757D01*
X150386863Y-71293361D01*
X150895979Y-71802477D01*
X150259583Y-72438873D01*
X150259583Y-72438873D01*
G37*
D14*
X151030330Y-72573223D03*
D12*
G36*
X150966690Y-73145979D02*
X150457574Y-72636863D01*
X151093970Y-72000467D01*
X151603086Y-72509583D01*
X150966690Y-73145979D01*
X150966690Y-73145979D01*
G37*
D14*
X151383883Y-72926777D03*
D12*
G36*
X151320243Y-73499533D02*
X150811127Y-72990417D01*
X151447523Y-72354021D01*
X151956639Y-72863137D01*
X151320243Y-73499533D01*
X151320243Y-73499533D01*
G37*
G04 #@! TD*
D20*
G04 #@! TO.C,U4*
X103100000Y-89950000D03*
X103100000Y-89000000D03*
X103100000Y-88050000D03*
X100900000Y-88050000D03*
X100900000Y-89950000D03*
X100900000Y-89000000D03*
G04 #@! TD*
D21*
G04 #@! TO.C,J1*
X102730000Y-71525000D03*
X102730000Y-66475000D03*
X105270000Y-71525000D03*
X105270000Y-66475000D03*
G04 #@! TD*
M02*
