  0
SECTION
  2
HEADER
  9
$ACADVER
  1
AC1009
  9
$FILLMODE
 70
0
  9
$EXTMIN
 10
-7.3980
 20
-4.5580
 30
0.0000
  9
$EXTMAX
 10
49.3980
 20
24.3980
 30
0.0000
  0
ENDSEC
  0
SECTION
  2
TABLES
  0
TABLE
  2
LTYPE
 70
1
  0
LTYPE
  2
CONTINUOUS
 70
64
  3
Solid line
 72
65
 73
0
 40
0
  0
ENDTAB
  0
TABLE
  2
LAYER
 70
255
  0
LAYER
  2
17
 70
64
 62
82
  6
CONTINUOUS
  0
LAYER
  2
20
 70
64
 62
30
  6
CONTINUOUS
  0
LAYER
  2
21
 70
64
 62
253
  6
CONTINUOUS
  0
LAYER
  2
22
 70
64
 62
253
  6
CONTINUOUS
  0
LAYER
  2
51
 70
64
 62
253
  6
CONTINUOUS
  0
ENDTAB
  0
ENDSEC
  0
SECTION
  2
BLOCKS
  0
BLOCK
  8
0
  2
RECT
 70
64
 10
0.0000
 20
0.0000
 30
0.0000
  3
RECT
  0
SOLID
  8
0
 10
-0.5000
 20
-0.5000
 30
0.0000
 11
0.5000
 21
-0.5000
 31
0.0000
 12
-0.5000
 22
0.5000
 32
0.0000
 13
0.5000
 23
0.5000
 33
0.0000
  0
ENDBLK
  8
0
  0
BLOCK
  8
0
  2
PIE
 70
64
 10
0.0000
 20
0.0000
 30
0.0000
  3
PIE
  0
CIRCLE
  8
0
 10
0.0000
 20
0.0000
 30
0.0000
 40
0.5000
  0
ENDBLK
  8
0
  0
BLOCK
  8
0
  2
OCTAGONP
 70
64
 10
0.0000
 20
0.0000
 30
0.0000
  3
OCTAGONP
  0
POLYLINE
  8
0
 66
1
 10
0.0000
 20
0.0000
 30
0.0000
 40
0.0000
 41
0.0000
 70
1
  0
VERTEX
  8
0
 10
-0.5000
 20
-0.2071
 30
0.0000
  0
VERTEX
  8
0
 10
-0.5000
 20
0.2071
 30
0.0000
  0
VERTEX
  8
0
 10
-0.2071
 20
0.5000
 30
0.0000
  0
VERTEX
  8
0
 10
0.2071
 20
0.5000
 30
0.0000
  0
VERTEX
  8
0
 10
0.5000
 20
0.2071
 30
0.0000
  0
VERTEX
  8
0
 10
0.5000
 20
-0.2071
 30
0.0000
  0
VERTEX
  8
0
 10
0.2071
 20
-0.5000
 30
0.0000
  0
VERTEX
  8
0
 10
-0.2071
 20
-0.5000
 30
0.0000
  0
SEQEND
  8
0
  0
ENDBLK
  8
0
  0
BLOCK
  8
0
  2
SQUAREP
 70
64
 10
0.0000
 20
0.0000
 30
0.0000
  3
SQUAREP
  0
SOLID
  8
0
 10
-0.5000
 20
-0.5000
 30
0.0000
 11
0.5000
 21
-0.5000
 31
0.0000
 12
-0.5000
 22
0.5000
 32
0.0000
 13
0.5000
 23
0.5000
 33
0.0000
  0
ENDBLK
  8
0
  0
BLOCK
  8
0
  2
ROUNDP
 70
64
 10
0.0000
 20
0.0000
 30
0.0000
  3
ROUNDP
  0
CIRCLE
  8
0
 10
0.0000
 20
0.0000
 30
0.0000
 40
0.5000
  0
ENDBLK
  8
0
  0
BLOCK
  8
0
  2
ANNULUSP
 70
64
 10
0.0000
 20
0.0000
 30
0.0000
  3
ANNULUSP
  0
CIRCLE
  8
0
 10
0.0000
 20
0.0000
 30
0.0000
 40
0.5000
  0
ENDBLK
  8
0
  0
BLOCK
  8
0
  2
THERMALP
 70
64
 10
0.0000
 20
0.0000
 30
0.0000
  3
THERMALP
  0
LINE
  8
0
 10
-0.2379
 20
0.4500
 30
0.0000
 11
0.2379
 21
0.4500
 31
0.0000
  0
LINE
  8
0
 10
0.4500
 20
0.2379
 30
0.0000
 11
0.4500
 21
-0.2379
 31
0.0000
  0
LINE
  8
0
 10
0.2379
 20
-0.4500
 30
0.0000
 11
-0.2379
 21
-0.4500
 31
0.0000
  0
LINE
  8
0
 10
-0.4500
 20
-0.2379
 30
0.0000
 11
-0.4500
 21
0.2379
 31
0.0000
  0
ENDBLK
  8
0
  0
BLOCK
  8
0
  2
OCTAGONV
 70
64
 10
0.0000
 20
0.0000
 30
0.0000
  3
OCTAGONV
  0
POLYLINE
  8
0
 66
1
 10
0.0000
 20
0.0000
 30
0.0000
 40
0.0000
 41
0.0000
 70
1
  0
VERTEX
  8
0
 10
-0.5000
 20
-0.2071
 30
0.0000
  0
VERTEX
  8
0
 10
-0.5000
 20
0.2071
 30
0.0000
  0
VERTEX
  8
0
 10
-0.2071
 20
0.5000
 30
0.0000
  0
VERTEX
  8
0
 10
0.2071
 20
0.5000
 30
0.0000
  0
VERTEX
  8
0
 10
0.5000
 20
0.2071
 30
0.0000
  0
VERTEX
  8
0
 10
0.5000
 20
-0.2071
 30
0.0000
  0
VERTEX
  8
0
 10
0.2071
 20
-0.5000
 30
0.0000
  0
VERTEX
  8
0
 10
-0.2071
 20
-0.5000
 30
0.0000
  0
SEQEND
  8
0
  0
ENDBLK
  8
0
  0
BLOCK
  8
0
  2
SQUAREV
 70
64
 10
0.0000
 20
0.0000
 30
0.0000
  3
SQUAREV
  0
SOLID
  8
0
 10
-0.5000
 20
-0.5000
 30
0.0000
 11
0.5000
 21
-0.5000
 31
0.0000
 12
-0.5000
 22
0.5000
 32
0.0000
 13
0.5000
 23
0.5000
 33
0.0000
  0
ENDBLK
  8
0
  0
BLOCK
  8
0
  2
ROUNDV
 70
64
 10
0.0000
 20
0.0000
 30
0.0000
  3
ROUNDV
  0
CIRCLE
  8
0
 10
0.0000
 20
0.0000
 30
0.0000
 40
0.5000
  0
ENDBLK
  8
0
  0
BLOCK
  8
0
  2
ANNULUSV
 70
64
 10
0.0000
 20
0.0000
 30
0.0000
  3
ANNULUSV
  0
CIRCLE
  8
0
 10
0.0000
 20
0.0000
 30
0.0000
 40
0.5000
  0
ENDBLK
  8
0
  0
BLOCK
  8
0
  2
THERMALV
 70
64
 10
0.0000
 20
0.0000
 30
0.0000
  3
THERMALV
  0
LINE
  8
0
 10
-0.2379
 20
0.4500
 30
0.0000
 11
0.2379
 21
0.4500
 31
0.0000
  0
LINE
  8
0
 10
0.4500
 20
0.2379
 30
0.0000
 11
0.4500
 21
-0.2379
 31
0.0000
  0
LINE
  8
0
 10
0.2379
 20
-0.4500
 30
0.0000
 11
-0.2379
 21
-0.4500
 31
0.0000
  0
LINE
  8
0
 10
-0.4500
 20
-0.2379
 30
0.0000
 11
-0.4500
 21
0.2379
 31
0.0000
  0
ENDBLK
  8
0
  0
ENDSEC
  0
SECTION
  2
ENTITIES
  0
LINE
  8
20
 10
0.0000
 20
15.0000
 30
0.0000
 11
0.0000
 21
5.0000
 31
0.0000
  0
ARC
  8
20
 10
5.0000
 20
5.0000
 30
0.0000
 40
5.0000
 50
180.0000
 51
270.0000
  0
LINE
  8
20
 10
5.0000
 20
0.0000
 30
0.0000
 11
37.0000
 21
0.0000
 31
0.0000
  0
ARC
  8
20
 10
37.0000
 20
5.0000
 30
0.0000
 40
5.0000
 50
270.0000
 51
0.0000
  0
LINE
  8
20
 10
42.0000
 20
5.0000
 30
0.0000
 11
42.0000
 21
15.0000
 31
0.0000
  0
ARC
  8
20
 10
37.0000
 20
15.0000
 30
0.0000
 40
5.0000
 50
0.0000
 51
90.0000
  0
LINE
  8
20
 10
37.0000
 20
20.0000
 30
0.0000
 11
5.0000
 21
20.0000
 31
0.0000
  0
ARC
  8
20
 10
5.0000
 20
15.0000
 30
0.0000
 40
5.0000
 50
90.0000
 51
180.0000
  0
LINE
  8
21
 10
16.4581
 20
16.1872
 30
0.0000
 11
17.0000
 21
17.8128
 31
0.0000
  0
LINE
  8
21
 10
17.0000
 20
17.8128
 30
0.0000
 11
17.5419
 21
16.1872
 31
0.0000
  0
LINE
  8
21
 10
17.4064
 20
16.5936
 30
0.0000
 11
16.5936
 21
16.5936
 31
0.0000
  0
LINE
  8
21
 10
16.5484
 20
2.0903
 30
0.0000
 11
17.0000
 21
2.0903
 31
0.0000
  0
ARC
  8
21
 10
17.0000
 20
1.6388
 30
0.0000
 40
0.4516
 50
270.0000
 51
90.0000
  0
LINE
  8
21
 10
17.0000
 20
1.1872
 30
0.0000
 11
16.5484
 21
1.1872
 31
0.0000
  0
LINE
  8
21
 10
16.5484
 20
1.1872
 30
0.0000
 11
16.5484
 21
2.8128
 31
0.0000
  0
LINE
  8
21
 10
16.5484
 20
2.8128
 30
0.0000
 11
17.0000
 21
2.8128
 31
0.0000
  0
ARC
  8
21
 10
17.0000
 20
2.4516
 30
0.0000
 40
0.3612
 50
270.0000
 51
90.0000
  0
LINE
  8
21
 10
36.3612
 20
12.1872
 30
0.0000
 11
36.0000
 21
12.1872
 31
0.0000
  0
ARC
  8
21
 10
36.0000
 20
12.5484
 30
0.0000
 40
0.3612
 50
180.0000
 51
270.0000
  0
LINE
  8
21
 10
35.6388
 20
12.5484
 30
0.0000
 11
35.6388
 21
13.4516
 31
0.0000
  0
ARC
  8
21
 10
36.0000
 20
13.4516
 30
0.0000
 40
0.3612
 50
90.0005
 51
180.0000
  0
LINE
  8
21
 10
36.0000
 20
13.8128
 30
0.0000
 11
36.3612
 21
13.8128
 31
0.0000
  0
LINE
  8
21
 10
5.1872
 20
6.6802
 30
0.0000
 11
4.8260
 21
6.6802
 31
0.0000
  0
ARC
  8
21
 10
4.8260
 20
7.0414
 30
0.0000
 40
0.3612
 50
180.0000
 51
270.0000
  0
LINE
  8
21
 10
4.4648
 20
7.0414
 30
0.0000
 11
4.4648
 21
7.9446
 31
0.0000
  0
ARC
  8
21
 10
4.8260
 20
7.9446
 30
0.0000
 40
0.3612
 50
90.0005
 51
180.0000
  0
LINE
  8
21
 10
4.8260
 20
8.3058
 30
0.0000
 11
5.1872
 21
8.3058
 31
0.0000
  0
LINE
  8
21
 10
4.3744
 20
10.1233
 30
0.0000
 11
4.8260
 21
10.1233
 31
0.0000
  0
ARC
  8
21
 10
4.8260
 20
9.6718
 30
0.0000
 40
0.4516
 50
270.0000
 51
90.0000
  0
LINE
  8
21
 10
4.8260
 20
9.2202
 30
0.0000
 11
4.3744
 21
9.2202
 31
0.0000
  0
LINE
  8
21
 10
4.3744
 20
9.2202
 30
0.0000
 11
4.3744
 21
10.8458
 31
0.0000
  0
LINE
  8
21
 10
4.3744
 20
10.8458
 30
0.0000
 11
4.8260
 21
10.8458
 31
0.0000
  0
ARC
  8
21
 10
4.8260
 20
10.4846
 30
0.0000
 40
0.3612
 50
270.0000
 51
90.0000
  0
LINE
  8
21
 10
4.2841
 20
11.7602
 30
0.0000
 11
4.8260
 21
13.3858
 31
0.0000
  0
LINE
  8
21
 10
4.8260
 20
13.3858
 30
0.0000
 11
5.3679
 21
11.7602
 31
0.0000
  0
LINE
  8
21
 10
5.2324
 20
12.1666
 30
0.0000
 11
4.4196
 21
12.1666
 31
0.0000
  0
LINE
  8
21
 10
3.7045
 20
15.9258
 30
0.0000
 11
4.2463
 21
14.3002
 31
0.0000
  0
LINE
  8
21
 10
4.2463
 20
14.3002
 30
0.0000
 11
4.7882
 21
15.9258
 31
0.0000
  0
LINE
  8
21
 10
5.3718
 20
14.9324
 30
0.0000
 11
6.4555
 21
14.9324
 31
0.0000
  0
LINE
  8
21
 10
5.9137
 20
14.3905
 30
0.0000
 11
5.9137
 21
15.4742
 31
0.0000
  0
LINE
  8
21
 10
4.2125
 20
5.7658
 30
0.0000
 11
4.7543
 21
4.1402
 31
0.0000
  0
LINE
  8
21
 10
4.7543
 20
4.1402
 30
0.0000
 11
5.2962
 21
5.7658
 31
0.0000
  0
LINE
  8
21
 10
5.8798
 20
4.7724
 30
0.0000
 11
6.9635
 21
4.7724
 31
0.0000
  0
LINE
  8
22
 10
36.6720
 20
6.4262
 30
0.0000
 11
37.0332
 21
6.4262
 31
0.0000
  0
ARC
  8
22
 10
37.0332
 20
6.7874
 30
0.0000
 40
0.3612
 50
270.0000
 51
0.0000
  0
LINE
  8
22
 10
37.3944
 20
6.7874
 30
0.0000
 11
37.3944
 21
7.6906
 31
0.0000
  0
ARC
  8
22
 10
37.0332
 20
7.6906
 30
0.0000
 40
0.3612
 50
0.0000
 51
90.0000
  0
LINE
  8
22
 10
37.0332
 20
8.0518
 30
0.0000
 11
36.6720
 21
8.0518
 31
0.0000
  0
LINE
  8
22
 10
37.3832
 20
9.9709
 30
0.0000
 11
36.9316
 21
9.9709
 31
0.0000
  0
ARC
  8
22
 10
36.9316
 20
9.5194
 30
0.0000
 40
0.4516
 50
90.0000
 51
270.0000
  0
LINE
  8
22
 10
36.9316
 20
9.0678
 30
0.0000
 11
37.3832
 21
9.0678
 31
0.0000
  0
LINE
  8
22
 10
37.3832
 20
9.0678
 30
0.0000
 11
37.3832
 21
10.6934
 31
0.0000
  0
LINE
  8
22
 10
37.3832
 20
10.6934
 30
0.0000
 11
36.9316
 21
10.6934
 31
0.0000
  0
ARC
  8
22
 10
36.9316
 20
10.3322
 30
0.0000
 40
0.3612
 50
90.0000
 51
270.0000
  0
LINE
  8
22
 10
37.5751
 20
11.7094
 30
0.0000
 11
37.0332
 21
13.3350
 31
0.0000
  0
LINE
  8
22
 10
37.0332
 20
13.3350
 30
0.0000
 11
36.4913
 21
11.7094
 31
0.0000
  0
LINE
  8
22
 10
36.6268
 20
12.1158
 30
0.0000
 11
37.4396
 21
12.1158
 31
0.0000
  0
LINE
  8
22
 10
38.0531
 20
15.8750
 30
0.0000
 11
37.5113
 21
14.2494
 31
0.0000
  0
LINE
  8
22
 10
37.5113
 20
14.2494
 30
0.0000
 11
36.9694
 21
15.8750
 31
0.0000
  0
LINE
  8
22
 10
36.3858
 20
14.8816
 30
0.0000
 11
35.3021
 21
14.8816
 31
0.0000
  0
LINE
  8
22
 10
35.8439
 20
14.3397
 30
0.0000
 11
35.8439
 21
15.4234
 31
0.0000
  0
LINE
  8
22
 10
37.5451
 20
5.6134
 30
0.0000
 11
37.0033
 21
3.9878
 31
0.0000
  0
LINE
  8
22
 10
37.0033
 20
3.9878
 30
0.0000
 11
36.4614
 21
5.6134
 31
0.0000
  0
LINE
  8
22
 10
35.8778
 20
4.6200
 30
0.0000
 11
34.7941
 21
4.6200
 31
0.0000
  0
INSERT
  8
51
  2
RECT
 10
2.0000
 20
4.8400
 30
0.0000
 41
0.5080
 42
0.5080
 43
1.0000
 50
270.0000
  0
INSERT
  8
51
  2
RECT
 10
2.0000
 20
7.3800
 30
0.0000
 41
0.5080
 42
0.5080
 43
1.0000
 50
270.0000
  0
INSERT
  8
51
  2
RECT
 10
2.0000
 20
9.9200
 30
0.0000
 41
0.5080
 42
0.5080
 43
1.0000
 50
270.0000
  0
INSERT
  8
51
  2
RECT
 10
2.0000
 20
12.4600
 30
0.0000
 41
0.5080
 42
0.5080
 43
1.0000
 50
270.0000
  0
INSERT
  8
51
  2
RECT
 10
2.0000
 20
15.0000
 30
0.0000
 41
0.5080
 42
0.5080
 43
1.0000
 50
270.0000
  0
INSERT
  8
17
  2
ROUNDP
 10
2.0000
 20
15.0000
 30
0.0000
 41
1.8796
 42
1.8796
 43
1.0000
 50
0.0000
  0
INSERT
  8
17
  2
ROUNDP
 10
2.0000
 20
15.0000
 30
0.0000
 41
1.8796
 42
1.8796
 43
1.0000
 50
0.0000
  0
INSERT
  8
17
  2
ROUNDP
 10
2.0000
 20
12.4600
 30
0.0000
 41
1.8796
 42
1.8796
 43
1.0000
 50
0.0000
  0
INSERT
  8
17
  2
ROUNDP
 10
2.0000
 20
12.4600
 30
0.0000
 41
1.8796
 42
1.8796
 43
1.0000
 50
0.0000
  0
INSERT
  8
17
  2
ROUNDP
 10
2.0000
 20
9.9200
 30
0.0000
 41
1.8796
 42
1.8796
 43
1.0000
 50
0.0000
  0
INSERT
  8
17
  2
ROUNDP
 10
2.0000
 20
9.9200
 30
0.0000
 41
1.8796
 42
1.8796
 43
1.0000
 50
0.0000
  0
INSERT
  8
17
  2
ROUNDP
 10
2.0000
 20
7.3800
 30
0.0000
 41
1.8796
 42
1.8796
 43
1.0000
 50
0.0000
  0
INSERT
  8
17
  2
ROUNDP
 10
2.0000
 20
7.3800
 30
0.0000
 41
1.8796
 42
1.8796
 43
1.0000
 50
0.0000
  0
INSERT
  8
17
  2
ROUNDP
 10
2.0000
 20
4.8400
 30
0.0000
 41
1.8796
 42
1.8796
 43
1.0000
 50
0.0000
  0
INSERT
  8
17
  2
ROUNDP
 10
2.0000
 20
4.8400
 30
0.0000
 41
1.8796
 42
1.8796
 43
1.0000
 50
0.0000
  0
INSERT
  8
51
  2
RECT
 10
40.0000
 20
4.8400
 30
0.0000
 41
0.5080
 42
0.5080
 43
1.0000
 50
270.0000
  0
INSERT
  8
51
  2
RECT
 10
40.0000
 20
7.3800
 30
0.0000
 41
0.5080
 42
0.5080
 43
1.0000
 50
270.0000
  0
INSERT
  8
51
  2
RECT
 10
40.0000
 20
9.9200
 30
0.0000
 41
0.5080
 42
0.5080
 43
1.0000
 50
270.0000
  0
INSERT
  8
51
  2
RECT
 10
40.0000
 20
12.4600
 30
0.0000
 41
0.5080
 42
0.5080
 43
1.0000
 50
270.0000
  0
INSERT
  8
51
  2
RECT
 10
40.0000
 20
15.0000
 30
0.0000
 41
0.5080
 42
0.5080
 43
1.0000
 50
270.0000
  0
INSERT
  8
17
  2
ROUNDP
 10
40.0000
 20
15.0000
 30
0.0000
 41
1.8796
 42
1.8796
 43
1.0000
 50
0.0000
  0
INSERT
  8
17
  2
ROUNDP
 10
40.0000
 20
15.0000
 30
0.0000
 41
1.8796
 42
1.8796
 43
1.0000
 50
0.0000
  0
INSERT
  8
17
  2
ROUNDP
 10
40.0000
 20
12.4600
 30
0.0000
 41
1.8796
 42
1.8796
 43
1.0000
 50
0.0000
  0
INSERT
  8
17
  2
ROUNDP
 10
40.0000
 20
12.4600
 30
0.0000
 41
1.8796
 42
1.8796
 43
1.0000
 50
0.0000
  0
INSERT
  8
17
  2
ROUNDP
 10
40.0000
 20
9.9200
 30
0.0000
 41
1.8796
 42
1.8796
 43
1.0000
 50
0.0000
  0
INSERT
  8
17
  2
ROUNDP
 10
40.0000
 20
9.9200
 30
0.0000
 41
1.8796
 42
1.8796
 43
1.0000
 50
0.0000
  0
INSERT
  8
17
  2
ROUNDP
 10
40.0000
 20
7.3800
 30
0.0000
 41
1.8796
 42
1.8796
 43
1.0000
 50
0.0000
  0
INSERT
  8
17
  2
ROUNDP
 10
40.0000
 20
7.3800
 30
0.0000
 41
1.8796
 42
1.8796
 43
1.0000
 50
0.0000
  0
INSERT
  8
17
  2
ROUNDP
 10
40.0000
 20
4.8400
 30
0.0000
 41
1.8796
 42
1.8796
 43
1.0000
 50
0.0000
  0
INSERT
  8
17
  2
ROUNDP
 10
40.0000
 20
4.8400
 30
0.0000
 41
1.8796
 42
1.8796
 43
1.0000
 50
0.0000
  0
ARC
  8
51
 10
17.9792
 20
15.0000
 30
0.0000
 40
0.3542
 50
98.8027
 51
261.1973
  0
ARC
  8
51
 10
16.0208
 20
15.0000
 30
0.0000
 40
0.3542
 50
278.8027
 51
81.1973
  0
LINE
  8
51
 10
17.5250
 20
14.4250
 30
0.0000
 11
16.4750
 21
14.4250
 31
0.0000
  0
LINE
  8
51
 10
16.5000
 20
15.5750
 30
0.0000
 11
17.9250
 21
15.5750
 31
0.0000
  0
CIRCLE
  8
51
 10
17.8500
 20
15.4500
 30
0.0000
 40
0.1030
  0
INSERT
  8
51
  2
RECT
 10
17.7500
 20
14.5375
 30
0.0000
 41
0.3250
 42
0.5000
 43
1.0000
 50
270.0000
  0
INSERT
  8
51
  2
RECT
 10
17.6250
 20
15.2500
 30
0.0000
 41
0.1500
 42
0.2500
 43
1.0000
 50
270.0000
  0
INSERT
  8
51
  2
RECT
 10
17.6250
 20
14.7500
 30
0.0000
 41
0.1500
 42
0.2500
 43
1.0000
 50
270.0000
  0
INSERT
  8
51
  2
RECT
 10
17.5875
 20
15.0000
 30
0.0000
 41
0.4000
 42
0.1750
 43
1.0000
 50
270.0000
  0
INSERT
  8
51
  2
RECT
 10
16.2500
 20
14.5375
 30
0.0000
 41
0.3250
 42
0.5000
 43
1.0000
 50
270.0000
  0
INSERT
  8
51
  2
RECT
 10
16.2500
 20
15.4625
 30
0.0000
 41
0.3250
 42
0.5000
 43
1.0000
 50
270.0000
  0
INSERT
  8
51
  2
RECT
 10
16.3750
 20
14.7500
 30
0.0000
 41
0.1500
 42
0.2500
 43
1.0000
 50
270.0000
  0
INSERT
  8
51
  2
RECT
 10
16.3750
 20
15.2500
 30
0.0000
 41
0.1500
 42
0.2500
 43
1.0000
 50
270.0000
  0
INSERT
  8
51
  2
RECT
 10
16.4125
 20
15.0000
 30
0.0000
 41
0.4000
 42
0.1750
 43
1.0000
 50
270.0000
  0
INSERT
  8
21
  2
RECT
 10
17.1000
 20
15.0000
 30
0.0000
 41
0.2000
 42
0.2000
 43
1.0000
 50
270.0000
  0
INSERT
  8
51
  2
RECT
 10
17.6500
 20
15.4500
 30
0.0000
 41
0.3000
 42
0.3000
 43
1.0000
 50
270.0000
  0
INSERT
  8
51
  2
RECT
 10
17.9625
 20
15.4625
 30
0.0000
 41
0.3250
 42
0.0750
 43
1.0000
 50
270.0000
  0
ARC
  8
51
 10
17.9076
 20
4.1132
 30
0.0000
 40
0.3542
 50
98.8027
 51
261.1973
  0
ARC
  8
51
 10
15.9492
 20
4.1132
 30
0.0000
 40
0.3542
 50
278.8027
 51
81.1973
  0
LINE
  8
51
 10
17.4534
 20
3.5382
 30
0.0000
 11
16.4034
 21
3.5382
 31
0.0000
  0
LINE
  8
51
 10
16.4284
 20
4.6882
 30
0.0000
 11
17.8534
 21
4.6882
 31
0.0000
  0
CIRCLE
  8
51
 10
17.7784
 20
4.5632
 30
0.0000
 40
0.1030
  0
INSERT
  8
51
  2
RECT
 10
17.6784
 20
3.6507
 30
0.0000
 41
0.3250
 42
0.5000
 43
1.0000
 50
270.0000
  0
INSERT
  8
51
  2
RECT
 10
17.5534
 20
4.3632
 30
0.0000
 41
0.1500
 42
0.2500
 43
1.0000
 50
270.0000
  0
INSERT
  8
51
  2
RECT
 10
17.5534
 20
3.8632
 30
0.0000
 41
0.1500
 42
0.2500
 43
1.0000
 50
270.0000
  0
INSERT
  8
51
  2
RECT
 10
17.5159
 20
4.1132
 30
0.0000
 41
0.4000
 42
0.1750
 43
1.0000
 50
270.0000
  0
INSERT
  8
51
  2
RECT
 10
16.1784
 20
3.6507
 30
0.0000
 41
0.3250
 42
0.5000
 43
1.0000
 50
270.0000
  0
INSERT
  8
51
  2
RECT
 10
16.1784
 20
4.5757
 30
0.0000
 41
0.3250
 42
0.5000
 43
1.0000
 50
270.0000
  0
INSERT
  8
51
  2
RECT
 10
16.3034
 20
3.8632
 30
0.0000
 41
0.1500
 42
0.2500
 43
1.0000
 50
270.0000
  0
INSERT
  8
51
  2
RECT
 10
16.3034
 20
4.3632
 30
0.0000
 41
0.1500
 42
0.2500
 43
1.0000
 50
270.0000
  0
INSERT
  8
51
  2
RECT
 10
16.3409
 20
4.1132
 30
0.0000
 41
0.4000
 42
0.1750
 43
1.0000
 50
270.0000
  0
INSERT
  8
21
  2
RECT
 10
17.0284
 20
4.1132
 30
0.0000
 41
0.2000
 42
0.2000
 43
1.0000
 50
270.0000
  0
INSERT
  8
51
  2
RECT
 10
17.5784
 20
4.5632
 30
0.0000
 41
0.3000
 42
0.3000
 43
1.0000
 50
270.0000
  0
INSERT
  8
51
  2
RECT
 10
17.8909
 20
4.5757
 30
0.0000
 41
0.3250
 42
0.0750
 43
1.0000
 50
270.0000
  0
ARC
  8
51
 10
36.0000
 20
9.0208
 30
0.0000
 40
0.3542
 50
8.8027
 51
171.1973
  0
ARC
  8
51
 10
36.0000
 20
10.9792
 30
0.0000
 40
0.3542
 50
188.8027
 51
351.1973
  0
LINE
  8
51
 10
35.4250
 20
9.4750
 30
0.0000
 11
35.4250
 21
10.5250
 31
0.0000
  0
LINE
  8
51
 10
36.5750
 20
10.5000
 30
0.0000
 11
36.5750
 21
9.0750
 31
0.0000
  0
CIRCLE
  8
51
 10
36.4500
 20
9.1500
 30
0.0000
 40
0.1030
  0
INSERT
  8
51
  2
RECT
 10
35.5375
 20
9.2500
 30
0.0000
 41
0.3250
 42
0.5000
 43
1.0000
 50
180.0000
  0
INSERT
  8
51
  2
RECT
 10
36.2500
 20
9.3750
 30
0.0000
 41
0.1500
 42
0.2500
 43
1.0000
 50
180.0000
  0
INSERT
  8
51
  2
RECT
 10
35.7500
 20
9.3750
 30
0.0000
 41
0.1500
 42
0.2500
 43
1.0000
 50
180.0000
  0
INSERT
  8
51
  2
RECT
 10
36.0000
 20
9.4125
 30
0.0000
 41
0.4000
 42
0.1750
 43
1.0000
 50
180.0000
  0
INSERT
  8
51
  2
RECT
 10
35.5375
 20
10.7500
 30
0.0000
 41
0.3250
 42
0.5000
 43
1.0000
 50
180.0000
  0
INSERT
  8
51
  2
RECT
 10
36.4625
 20
10.7500
 30
0.0000
 41
0.3250
 42
0.5000
 43
1.0000
 50
180.0000
  0
INSERT
  8
51
  2
RECT
 10
35.7500
 20
10.6250
 30
0.0000
 41
0.1500
 42
0.2500
 43
1.0000
 50
180.0000
  0
INSERT
  8
51
  2
RECT
 10
36.2500
 20
10.6250
 30
0.0000
 41
0.1500
 42
0.2500
 43
1.0000
 50
180.0000
  0
INSERT
  8
51
  2
RECT
 10
36.0000
 20
10.5875
 30
0.0000
 41
0.4000
 42
0.1750
 43
1.0000
 50
180.0000
  0
INSERT
  8
21
  2
RECT
 10
36.0000
 20
9.9000
 30
0.0000
 41
0.2000
 42
0.2000
 43
1.0000
 50
180.0000
  0
INSERT
  8
51
  2
RECT
 10
36.4500
 20
9.3500
 30
0.0000
 41
0.3000
 42
0.3000
 43
1.0000
 50
180.0000
  0
INSERT
  8
51
  2
RECT
 10
36.4625
 20
9.0375
 30
0.0000
 41
0.3250
 42
0.0750
 43
1.0000
 50
180.0000
  0
LINE
  8
51
 10
13.6604
 20
10.5776
 30
0.0000
 11
12.3396
 21
10.5776
 31
0.0000
  0
LINE
  8
51
 10
12.3396
 20
10.5776
 30
0.0000
 11
12.3396
 21
13.4224
 31
0.0000
  0
LINE
  8
51
 10
12.3396
 20
13.4224
 30
0.0000
 11
13.6604
 21
13.4224
 31
0.0000
  0
LINE
  8
51
 10
13.6604
 20
13.4224
 30
0.0000
 11
13.6604
 21
10.5776
 31
0.0000
  0
INSERT
  8
51
  2
RECT
 10
14.0033
 20
12.0000
 30
0.0000
 41
0.4572
 42
0.5842
 43
1.0000
 50
270.0000
  0
INSERT
  8
51
  2
RECT
 10
11.9967
 20
11.0602
 30
0.0000
 41
0.4572
 42
0.5842
 43
1.0000
 50
270.0000
  0
INSERT
  8
51
  2
RECT
 10
11.9967
 20
12.9398
 30
0.0000
 41
0.4572
 42
0.5842
 43
1.0000
 50
270.0000
  0
LINE
  8
51
 10
30.6604
 20
2.5776
 30
0.0000
 11
29.3396
 21
2.5776
 31
0.0000
  0
LINE
  8
51
 10
29.3396
 20
2.5776
 30
0.0000
 11
29.3396
 21
5.4224
 31
0.0000
  0
LINE
  8
51
 10
29.3396
 20
5.4224
 30
0.0000
 11
30.6604
 21
5.4224
 31
0.0000
  0
LINE
  8
51
 10
30.6604
 20
5.4224
 30
0.0000
 11
30.6604
 21
2.5776
 31
0.0000
  0
INSERT
  8
51
  2
RECT
 10
31.0033
 20
4.0000
 30
0.0000
 41
0.4572
 42
0.5842
 43
1.0000
 50
270.0000
  0
INSERT
  8
51
  2
RECT
 10
28.9967
 20
3.0602
 30
0.0000
 41
0.4572
 42
0.5842
 43
1.0000
 50
270.0000
  0
INSERT
  8
51
  2
RECT
 10
28.9967
 20
4.9398
 30
0.0000
 41
0.4572
 42
0.5842
 43
1.0000
 50
270.0000
  0
LINE
  8
51
 10
30.6604
 20
10.5776
 30
0.0000
 11
29.3396
 21
10.5776
 31
0.0000
  0
LINE
  8
51
 10
29.3396
 20
10.5776
 30
0.0000
 11
29.3396
 21
13.4224
 31
0.0000
  0
LINE
  8
51
 10
29.3396
 20
13.4224
 30
0.0000
 11
30.6604
 21
13.4224
 31
0.0000
  0
LINE
  8
51
 10
30.6604
 20
13.4224
 30
0.0000
 11
30.6604
 21
10.5776
 31
0.0000
  0
INSERT
  8
51
  2
RECT
 10
31.0033
 20
12.0000
 30
0.0000
 41
0.4572
 42
0.5842
 43
1.0000
 50
270.0000
  0
INSERT
  8
51
  2
RECT
 10
28.9967
 20
11.0602
 30
0.0000
 41
0.4572
 42
0.5842
 43
1.0000
 50
270.0000
  0
INSERT
  8
51
  2
RECT
 10
28.9967
 20
12.9398
 30
0.0000
 41
0.4572
 42
0.5842
 43
1.0000
 50
270.0000
  0
LINE
  8
51
 10
17.6604
 20
10.5776
 30
0.0000
 11
16.3396
 21
10.5776
 31
0.0000
  0
LINE
  8
51
 10
16.3396
 20
10.5776
 30
0.0000
 11
16.3396
 21
13.4224
 31
0.0000
  0
LINE
  8
51
 10
16.3396
 20
13.4224
 30
0.0000
 11
17.6604
 21
13.4224
 31
0.0000
  0
LINE
  8
51
 10
17.6604
 20
13.4224
 30
0.0000
 11
17.6604
 21
10.5776
 31
0.0000
  0
INSERT
  8
51
  2
RECT
 10
18.0033
 20
12.0000
 30
0.0000
 41
0.4572
 42
0.5842
 43
1.0000
 50
270.0000
  0
INSERT
  8
51
  2
RECT
 10
15.9967
 20
11.0602
 30
0.0000
 41
0.4572
 42
0.5842
 43
1.0000
 50
270.0000
  0
INSERT
  8
51
  2
RECT
 10
15.9967
 20
12.9398
 30
0.0000
 41
0.4572
 42
0.5842
 43
1.0000
 50
270.0000
  0
LINE
  8
51
 10
25.6604
 20
2.5776
 30
0.0000
 11
24.3396
 21
2.5776
 31
0.0000
  0
LINE
  8
51
 10
24.3396
 20
2.5776
 30
0.0000
 11
24.3396
 21
5.4224
 31
0.0000
  0
LINE
  8
51
 10
24.3396
 20
5.4224
 30
0.0000
 11
25.6604
 21
5.4224
 31
0.0000
  0
LINE
  8
51
 10
25.6604
 20
5.4224
 30
0.0000
 11
25.6604
 21
2.5776
 31
0.0000
  0
INSERT
  8
51
  2
RECT
 10
26.0033
 20
4.0000
 30
0.0000
 41
0.4572
 42
0.5842
 43
1.0000
 50
270.0000
  0
INSERT
  8
51
  2
RECT
 10
23.9967
 20
3.0602
 30
0.0000
 41
0.4572
 42
0.5842
 43
1.0000
 50
270.0000
  0
INSERT
  8
51
  2
RECT
 10
23.9967
 20
4.9398
 30
0.0000
 41
0.4572
 42
0.5842
 43
1.0000
 50
270.0000
  0
LINE
  8
51
 10
25.6604
 20
10.5776
 30
0.0000
 11
24.3396
 21
10.5776
 31
0.0000
  0
LINE
  8
51
 10
24.3396
 20
10.5776
 30
0.0000
 11
24.3396
 21
13.4224
 31
0.0000
  0
LINE
  8
51
 10
24.3396
 20
13.4224
 30
0.0000
 11
25.6604
 21
13.4224
 31
0.0000
  0
LINE
  8
51
 10
25.6604
 20
13.4224
 30
0.0000
 11
25.6604
 21
10.5776
 31
0.0000
  0
INSERT
  8
51
  2
RECT
 10
26.0033
 20
12.0000
 30
0.0000
 41
0.4572
 42
0.5842
 43
1.0000
 50
270.0000
  0
INSERT
  8
51
  2
RECT
 10
23.9967
 20
11.0602
 30
0.0000
 41
0.4572
 42
0.5842
 43
1.0000
 50
270.0000
  0
INSERT
  8
51
  2
RECT
 10
23.9967
 20
12.9398
 30
0.0000
 41
0.4572
 42
0.5842
 43
1.0000
 50
270.0000
  0
LINE
  8
51
 10
13.6604
 20
6.5776
 30
0.0000
 11
12.3396
 21
6.5776
 31
0.0000
  0
LINE
  8
51
 10
12.3396
 20
6.5776
 30
0.0000
 11
12.3396
 21
9.4224
 31
0.0000
  0
LINE
  8
51
 10
12.3396
 20
9.4224
 30
0.0000
 11
13.6604
 21
9.4224
 31
0.0000
  0
LINE
  8
51
 10
13.6604
 20
9.4224
 30
0.0000
 11
13.6604
 21
6.5776
 31
0.0000
  0
INSERT
  8
51
  2
RECT
 10
14.0033
 20
8.0000
 30
0.0000
 41
0.4572
 42
0.5842
 43
1.0000
 50
270.0000
  0
INSERT
  8
51
  2
RECT
 10
11.9967
 20
7.0602
 30
0.0000
 41
0.4572
 42
0.5842
 43
1.0000
 50
270.0000
  0
INSERT
  8
51
  2
RECT
 10
11.9967
 20
8.9398
 30
0.0000
 41
0.4572
 42
0.5842
 43
1.0000
 50
270.0000
  0
LINE
  8
51
 10
17.6604
 20
6.5776
 30
0.0000
 11
16.3396
 21
6.5776
 31
0.0000
  0
LINE
  8
51
 10
16.3396
 20
6.5776
 30
0.0000
 11
16.3396
 21
9.4224
 31
0.0000
  0
LINE
  8
51
 10
16.3396
 20
9.4224
 30
0.0000
 11
17.6604
 21
9.4224
 31
0.0000
  0
LINE
  8
51
 10
17.6604
 20
9.4224
 30
0.0000
 11
17.6604
 21
6.5776
 31
0.0000
  0
INSERT
  8
51
  2
RECT
 10
18.0033
 20
8.0000
 30
0.0000
 41
0.4572
 42
0.5842
 43
1.0000
 50
270.0000
  0
INSERT
  8
51
  2
RECT
 10
15.9967
 20
7.0602
 30
0.0000
 41
0.4572
 42
0.5842
 43
1.0000
 50
270.0000
  0
INSERT
  8
51
  2
RECT
 10
15.9967
 20
8.9398
 30
0.0000
 41
0.4572
 42
0.5842
 43
1.0000
 50
270.0000
  0
LINE
  8
51
 10
30.6604
 20
6.5776
 30
0.0000
 11
29.3396
 21
6.5776
 31
0.0000
  0
LINE
  8
51
 10
29.3396
 20
6.5776
 30
0.0000
 11
29.3396
 21
9.4224
 31
0.0000
  0
LINE
  8
51
 10
29.3396
 20
9.4224
 30
0.0000
 11
30.6604
 21
9.4224
 31
0.0000
  0
LINE
  8
51
 10
30.6604
 20
9.4224
 30
0.0000
 11
30.6604
 21
6.5776
 31
0.0000
  0
INSERT
  8
51
  2
RECT
 10
31.0033
 20
8.0000
 30
0.0000
 41
0.4572
 42
0.5842
 43
1.0000
 50
270.0000
  0
INSERT
  8
51
  2
RECT
 10
28.9967
 20
7.0602
 30
0.0000
 41
0.4572
 42
0.5842
 43
1.0000
 50
270.0000
  0
INSERT
  8
51
  2
RECT
 10
28.9967
 20
8.9398
 30
0.0000
 41
0.4572
 42
0.5842
 43
1.0000
 50
270.0000
  0
LINE
  8
51
 10
30.6604
 20
14.5776
 30
0.0000
 11
29.3396
 21
14.5776
 31
0.0000
  0
LINE
  8
51
 10
29.3396
 20
14.5776
 30
0.0000
 11
29.3396
 21
17.4224
 31
0.0000
  0
LINE
  8
51
 10
29.3396
 20
17.4224
 30
0.0000
 11
30.6604
 21
17.4224
 31
0.0000
  0
LINE
  8
51
 10
30.6604
 20
17.4224
 30
0.0000
 11
30.6604
 21
14.5776
 31
0.0000
  0
INSERT
  8
51
  2
RECT
 10
31.0033
 20
16.0000
 30
0.0000
 41
0.4572
 42
0.5842
 43
1.0000
 50
270.0000
  0
INSERT
  8
51
  2
RECT
 10
28.9967
 20
15.0602
 30
0.0000
 41
0.4572
 42
0.5842
 43
1.0000
 50
270.0000
  0
INSERT
  8
51
  2
RECT
 10
28.9967
 20
16.9398
 30
0.0000
 41
0.4572
 42
0.5842
 43
1.0000
 50
270.0000
  0
LINE
  8
51
 10
25.6604
 20
14.5776
 30
0.0000
 11
24.3396
 21
14.5776
 31
0.0000
  0
LINE
  8
51
 10
24.3396
 20
14.5776
 30
0.0000
 11
24.3396
 21
17.4224
 31
0.0000
  0
LINE
  8
51
 10
24.3396
 20
17.4224
 30
0.0000
 11
25.6604
 21
17.4224
 31
0.0000
  0
LINE
  8
51
 10
25.6604
 20
17.4224
 30
0.0000
 11
25.6604
 21
14.5776
 31
0.0000
  0
INSERT
  8
51
  2
RECT
 10
26.0033
 20
16.0000
 30
0.0000
 41
0.4572
 42
0.5842
 43
1.0000
 50
270.0000
  0
INSERT
  8
51
  2
RECT
 10
23.9967
 20
15.0602
 30
0.0000
 41
0.4572
 42
0.5842
 43
1.0000
 50
270.0000
  0
INSERT
  8
51
  2
RECT
 10
23.9967
 20
16.9398
 30
0.0000
 41
0.4572
 42
0.5842
 43
1.0000
 50
270.0000
  0
LINE
  8
51
 10
25.6604
 20
6.5776
 30
0.0000
 11
24.3396
 21
6.5776
 31
0.0000
  0
LINE
  8
51
 10
24.3396
 20
6.5776
 30
0.0000
 11
24.3396
 21
9.4224
 31
0.0000
  0
LINE
  8
51
 10
24.3396
 20
9.4224
 30
0.0000
 11
25.6604
 21
9.4224
 31
0.0000
  0
LINE
  8
51
 10
25.6604
 20
9.4224
 30
0.0000
 11
25.6604
 21
6.5776
 31
0.0000
  0
INSERT
  8
51
  2
RECT
 10
26.0033
 20
8.0000
 30
0.0000
 41
0.4572
 42
0.5842
 43
1.0000
 50
270.0000
  0
INSERT
  8
51
  2
RECT
 10
23.9967
 20
7.0602
 30
0.0000
 41
0.4572
 42
0.5842
 43
1.0000
 50
270.0000
  0
INSERT
  8
51
  2
RECT
 10
23.9967
 20
8.9398
 30
0.0000
 41
0.4572
 42
0.5842
 43
1.0000
 50
270.0000
  0
LINE
  8
51
 10
7.5680
 20
13.6440
 30
0.0000
 11
8.4320
 21
13.6440
 31
0.0000
  0
LINE
  8
51
 10
8.4320
 20
14.3560
 30
0.0000
 11
7.5680
 21
14.3560
 31
0.0000
  0
INSERT
  8
51
  2
RECT
 10
8.6350
 20
14.0000
 30
0.0000
 41
0.4064
 42
0.8636
 43
1.0000
 50
0.0000
  0
INSERT
  8
51
  2
RECT
 10
7.3650
 20
14.0000
 30
0.0000
 41
0.4064
 42
0.8636
 43
1.0000
 50
0.0000
  0
LINE
  8
51
 10
7.5680
 20
11.6440
 30
0.0000
 11
8.4320
 21
11.6440
 31
0.0000
  0
LINE
  8
51
 10
8.4320
 20
12.3560
 30
0.0000
 11
7.5680
 21
12.3560
 31
0.0000
  0
INSERT
  8
51
  2
RECT
 10
8.6350
 20
12.0000
 30
0.0000
 41
0.4064
 42
0.8636
 43
1.0000
 50
0.0000
  0
INSERT
  8
51
  2
RECT
 10
7.3650
 20
12.0000
 30
0.0000
 41
0.4064
 42
0.8636
 43
1.0000
 50
0.0000
  0
LINE
  8
51
 10
7.5680
 20
9.6440
 30
0.0000
 11
8.4320
 21
9.6440
 31
0.0000
  0
LINE
  8
51
 10
8.4320
 20
10.3560
 30
0.0000
 11
7.5680
 21
10.3560
 31
0.0000
  0
INSERT
  8
51
  2
RECT
 10
8.6350
 20
10.0000
 30
0.0000
 41
0.4064
 42
0.8636
 43
1.0000
 50
0.0000
  0
INSERT
  8
51
  2
RECT
 10
7.3650
 20
10.0000
 30
0.0000
 41
0.4064
 42
0.8636
 43
1.0000
 50
0.0000
  0
LINE
  8
51
 10
7.5680
 20
7.6440
 30
0.0000
 11
8.4320
 21
7.6440
 31
0.0000
  0
LINE
  8
51
 10
8.4320
 20
8.3560
 30
0.0000
 11
7.5680
 21
8.3560
 31
0.0000
  0
INSERT
  8
51
  2
RECT
 10
8.6350
 20
8.0000
 30
0.0000
 41
0.4064
 42
0.8636
 43
1.0000
 50
0.0000
  0
INSERT
  8
51
  2
RECT
 10
7.3650
 20
8.0000
 30
0.0000
 41
0.4064
 42
0.8636
 43
1.0000
 50
0.0000
  0
LINE
  8
51
 10
20.5680
 20
11.6440
 30
0.0000
 11
21.4320
 21
11.6440
 31
0.0000
  0
LINE
  8
51
 10
21.4320
 20
12.3560
 30
0.0000
 11
20.5680
 21
12.3560
 31
0.0000
  0
INSERT
  8
51
  2
RECT
 10
21.6350
 20
12.0000
 30
0.0000
 41
0.4064
 42
0.8636
 43
1.0000
 50
0.0000
  0
INSERT
  8
51
  2
RECT
 10
20.3650
 20
12.0000
 30
0.0000
 41
0.4064
 42
0.8636
 43
1.0000
 50
0.0000
  0
LINE
  8
51
 10
20.5680
 20
7.6440
 30
0.0000
 11
21.4320
 21
7.6440
 31
0.0000
  0
LINE
  8
51
 10
21.4320
 20
8.3560
 30
0.0000
 11
20.5680
 21
8.3560
 31
0.0000
  0
INSERT
  8
51
  2
RECT
 10
21.6350
 20
8.0000
 30
0.0000
 41
0.4064
 42
0.8636
 43
1.0000
 50
0.0000
  0
INSERT
  8
51
  2
RECT
 10
20.3650
 20
8.0000
 30
0.0000
 41
0.4064
 42
0.8636
 43
1.0000
 50
0.0000
  0
LINE
  8
51
 10
8.4320
 20
6.3560
 30
0.0000
 11
7.5680
 21
6.3560
 31
0.0000
  0
LINE
  8
51
 10
7.5680
 20
5.6440
 30
0.0000
 11
8.4320
 21
5.6440
 31
0.0000
  0
INSERT
  8
51
  2
RECT
 10
7.3650
 20
6.0000
 30
0.0000
 41
0.4064
 42
0.8636
 43
1.0000
 50
180.0000
  0
INSERT
  8
51
  2
RECT
 10
8.6350
 20
6.0000
 30
0.0000
 41
0.4064
 42
0.8636
 43
1.0000
 50
180.0000
  0
LINE
  8
51
 10
12.3808
 20
14.6440
 30
0.0000
 11
13.2448
 21
14.6440
 31
0.0000
  0
LINE
  8
51
 10
13.2448
 20
15.3560
 30
0.0000
 11
12.3808
 21
15.3560
 31
0.0000
  0
INSERT
  8
51
  2
RECT
 10
13.4478
 20
15.0000
 30
0.0000
 41
0.4064
 42
0.8636
 43
1.0000
 50
0.0000
  0
INSERT
  8
51
  2
RECT
 10
12.1778
 20
15.0000
 30
0.0000
 41
0.4064
 42
0.8636
 43
1.0000
 50
0.0000
  0
LINE
  8
51
 10
12.0880
 20
3.7540
 30
0.0000
 11
12.9520
 21
3.7540
 31
0.0000
  0
LINE
  8
51
 10
12.9520
 20
4.4660
 30
0.0000
 11
12.0880
 21
4.4660
 31
0.0000
  0
INSERT
  8
51
  2
RECT
 10
13.1550
 20
4.1100
 30
0.0000
 41
0.4064
 42
0.8636
 43
1.0000
 50
0.0000
  0
INSERT
  8
51
  2
RECT
 10
11.8850
 20
4.1100
 30
0.0000
 41
0.4064
 42
0.8636
 43
1.0000
 50
0.0000
  0
LINE
  8
51
 10
34.3560
 20
9.5680
 30
0.0000
 11
34.3560
 21
10.4320
 31
0.0000
  0
LINE
  8
51
 10
33.6440
 20
10.4320
 30
0.0000
 11
33.6440
 21
9.5680
 31
0.0000
  0
INSERT
  8
51
  2
RECT
 10
34.0000
 20
10.6350
 30
0.0000
 41
0.4064
 42
0.8636
 43
1.0000
 50
90.0000
  0
INSERT
  8
51
  2
RECT
 10
34.0000
 20
9.3650
 30
0.0000
 41
0.4064
 42
0.8636
 43
1.0000
 50
90.0000
  0
ENDSEC
  0
EOF
