G04 #@! TF.GenerationSoftware,KiCad,Pcbnew,(5.0.0)*
G04 #@! TF.CreationDate,2018-12-13T14:05:28+00:00*
G04 #@! TF.ProjectId,GiveMePower,476976654D65506F7765722E6B696361,rev?*
G04 #@! TF.SameCoordinates,Original*
G04 #@! TF.FileFunction,Profile,NP*
%FSLAX46Y46*%
G04 Gerber Fmt 4.6, Leading zero omitted, Abs format (unit mm)*
G04 Created by KiCad (PCBNEW (5.0.0)) date 12/13/18 14:05:28*
%MOMM*%
%LPD*%
G01*
G04 APERTURE LIST*
%ADD10C,0.150000*%
%ADD11C,0.200000*%
G04 APERTURE END LIST*
D10*
X151000000Y-113000000D02*
X151000000Y-114000000D01*
X145000000Y-113000000D02*
X145000000Y-114000000D01*
X126000000Y-113000000D02*
X126000000Y-114000000D01*
X132000000Y-113000000D02*
X132000000Y-114000000D01*
X113000000Y-113000000D02*
X113000000Y-114000000D01*
X107000000Y-113000000D02*
X107000000Y-114000000D01*
X102500000Y-84000000D02*
G75*
G02X104000000Y-82500000I1500000J0D01*
G01*
X155000000Y-111500000D02*
G75*
G02X153500000Y-113000000I-1500000J0D01*
G01*
D11*
X153500000Y-82500000D02*
G75*
G02X155000000Y-84000000I0J-1500000D01*
G01*
D10*
X107000000Y-109500000D02*
X107000000Y-111000000D01*
X102500000Y-84000000D02*
X102500000Y-111500000D01*
X151000000Y-113000000D02*
X153500000Y-113000000D01*
X145000000Y-113000000D02*
X132000000Y-113000000D01*
X151000000Y-115000000D02*
X151000000Y-114000000D01*
X145000000Y-115000000D02*
X145000000Y-114000000D01*
X113000000Y-113000000D02*
X126000000Y-113000000D01*
X104000000Y-113000000D02*
X107000000Y-113000000D01*
X107000000Y-115000000D02*
X107000000Y-114000000D01*
D11*
X102500000Y-115000000D02*
X107000000Y-115000000D01*
X102500000Y-134000000D02*
X102500000Y-115000000D01*
X155000000Y-134000000D02*
X102500000Y-134000000D01*
X155000000Y-115000000D02*
X155000000Y-134000000D01*
X151000000Y-115000000D02*
X155000000Y-115000000D01*
X132000000Y-115000000D02*
X145000000Y-115000000D01*
X132000000Y-114000000D02*
X132000000Y-115000000D01*
X126000000Y-115000000D02*
X126000000Y-114000000D01*
X113000000Y-115000000D02*
X126000000Y-115000000D01*
X113000000Y-114000000D02*
X113000000Y-115000000D01*
D10*
X107000000Y-111000000D02*
X113000000Y-111000000D01*
X113000000Y-109500000D02*
X107000000Y-109500000D01*
X144800000Y-111200000D02*
X144800000Y-109300000D01*
X151200000Y-111200000D02*
X144800000Y-111200000D01*
X151200000Y-109300000D02*
X151200000Y-111200000D01*
X144800000Y-109300000D02*
X151200000Y-109300000D01*
X113000000Y-109500000D02*
X113000000Y-111000000D01*
X125800000Y-111200000D02*
X125800000Y-109300000D01*
X132200000Y-111200000D02*
X125800000Y-111200000D01*
X132200000Y-109300000D02*
X132200000Y-111200000D01*
X125800000Y-109300000D02*
X132200000Y-109300000D01*
X104000000Y-113000000D02*
G75*
G02X102500000Y-111500000I0J1500000D01*
G01*
D11*
X155000000Y-84000000D02*
X155000000Y-111500000D01*
X104000000Y-82500000D02*
X153500000Y-82500000D01*
M02*
