G04 #@! TF.GenerationSoftware,KiCad,Pcbnew,(5.0.0)*
G04 #@! TF.CreationDate,2018-12-13T14:05:28+00:00*
G04 #@! TF.ProjectId,GiveMePower,476976654D65506F7765722E6B696361,rev?*
G04 #@! TF.SameCoordinates,Original*
G04 #@! TF.FileFunction,Soldermask,Top*
G04 #@! TF.FilePolarity,Negative*
%FSLAX46Y46*%
G04 Gerber Fmt 4.6, Leading zero omitted, Abs format (unit mm)*
G04 Created by KiCad (PCBNEW (5.0.0)) date 12/13/18 14:05:28*
%MOMM*%
%LPD*%
G01*
G04 APERTURE LIST*
%ADD10C,0.150000*%
%ADD11R,1.150000X1.200000*%
%ADD12R,2.900000X1.400000*%
%ADD13R,1.200000X1.200000*%
%ADD14R,2.100000X2.100000*%
%ADD15O,2.100000X2.100000*%
%ADD16R,2.800000X2.800000*%
%ADD17C,2.800000*%
%ADD18C,1.300000*%
%ADD19C,12.400000*%
%ADD20R,1.200000X3.100000*%
%ADD21R,0.900000X1.300000*%
%ADD22R,3.400000X3.400000*%
%ADD23R,2.400000X1.900000*%
%ADD24R,2.400000X4.200000*%
G04 APERTURE END LIST*
D10*
G36*
X144000000Y-108000000D02*
X153000000Y-108000000D01*
X153000000Y-115750000D01*
X143000000Y-115750000D01*
X143000000Y-108000000D01*
X144000000Y-108000000D01*
G37*
X144000000Y-108000000D02*
X153000000Y-108000000D01*
X153000000Y-115750000D01*
X143000000Y-115750000D01*
X143000000Y-108000000D01*
X144000000Y-108000000D01*
G36*
X125000000Y-108000000D02*
X134000000Y-108000000D01*
X134000000Y-115500000D01*
X124000000Y-115500000D01*
X124000000Y-108000000D01*
X125000000Y-108000000D01*
G37*
X125000000Y-108000000D02*
X134000000Y-108000000D01*
X134000000Y-115500000D01*
X124000000Y-115500000D01*
X124000000Y-108000000D01*
X125000000Y-108000000D01*
G36*
X106000000Y-108000000D02*
X115000000Y-108000000D01*
X115000000Y-116000000D01*
X105000000Y-116000000D01*
X105000000Y-108000000D01*
X106000000Y-108000000D01*
G37*
X106000000Y-108000000D02*
X115000000Y-108000000D01*
X115000000Y-116000000D01*
X105000000Y-116000000D01*
X105000000Y-108000000D01*
X106000000Y-108000000D01*
D11*
G04 #@! TO.C,C1*
X145000000Y-120000000D03*
X145000000Y-118500000D03*
G04 #@! TD*
D12*
G04 #@! TO.C,C3*
X121500000Y-117000000D03*
X121500000Y-120000000D03*
G04 #@! TD*
G04 #@! TO.C,C2*
X113500000Y-117000000D03*
X113500000Y-120000000D03*
G04 #@! TD*
D13*
G04 #@! TO.C,D1*
X120500000Y-126500000D03*
X118900000Y-126500000D03*
G04 #@! TD*
D14*
G04 #@! TO.C,J1*
X119500000Y-96500000D03*
D15*
X119500000Y-93960000D03*
G04 #@! TD*
G04 #@! TO.C,J2*
X125000000Y-117000000D03*
D14*
X125000000Y-119540000D03*
G04 #@! TD*
G04 #@! TO.C,J3*
X105500000Y-117000000D03*
D15*
X105500000Y-119540000D03*
G04 #@! TD*
G04 #@! TO.C,J4*
X110000000Y-119597001D03*
D14*
X110000000Y-117057001D03*
G04 #@! TD*
D15*
G04 #@! TO.C,J5*
X108040000Y-123500000D03*
D14*
X105500000Y-123500000D03*
G04 #@! TD*
G04 #@! TO.C,J6*
X149200000Y-123600000D03*
D15*
X151740000Y-123600000D03*
G04 #@! TD*
G04 #@! TO.C,J7*
X130040000Y-123600000D03*
D14*
X127500000Y-123600000D03*
G04 #@! TD*
D16*
G04 #@! TO.C,J8*
X105000000Y-129000000D03*
D17*
X108500000Y-129000000D03*
G04 #@! TD*
G04 #@! TO.C,J9*
X152500000Y-129000000D03*
D16*
X149000000Y-129000000D03*
G04 #@! TD*
G04 #@! TO.C,J10*
X127000000Y-129000000D03*
D17*
X130500000Y-129000000D03*
G04 #@! TD*
D18*
G04 #@! TO.C,J11*
X151181981Y-86818019D03*
X148000000Y-85500000D03*
X144818019Y-86818019D03*
X143500000Y-90000000D03*
X144818019Y-93181981D03*
X148000000Y-94500000D03*
X151181981Y-93181981D03*
X152500000Y-90000000D03*
D19*
X148000000Y-90000000D03*
G04 #@! TD*
G04 #@! TO.C,J12*
X129000000Y-90000000D03*
D18*
X133500000Y-90000000D03*
X132181981Y-93181981D03*
X129000000Y-94500000D03*
X125818019Y-93181981D03*
X124500000Y-90000000D03*
X125818019Y-86818019D03*
X129000000Y-85500000D03*
X132181981Y-86818019D03*
G04 #@! TD*
G04 #@! TO.C,J13*
X113181981Y-86818019D03*
X110000000Y-85500000D03*
X106818019Y-86818019D03*
X105500000Y-90000000D03*
X106818019Y-93181981D03*
X110000000Y-94500000D03*
X113181981Y-93181981D03*
X114500000Y-90000000D03*
D19*
X110000000Y-90000000D03*
G04 #@! TD*
D20*
G04 #@! TO.C,L2*
X116400000Y-118000000D03*
X118600000Y-118000000D03*
G04 #@! TD*
D21*
G04 #@! TO.C,R1*
X117050000Y-126400000D03*
X115550000Y-126400000D03*
G04 #@! TD*
D22*
G04 #@! TO.C,OutVCC*
X113500000Y-131500000D03*
G04 #@! TD*
G04 #@! TO.C,Output3V3*
X136750000Y-131750000D03*
G04 #@! TD*
G04 #@! TO.C,TP3*
X144000000Y-132000000D03*
G04 #@! TD*
D11*
G04 #@! TO.C,C4*
X145000000Y-123250000D03*
X145000000Y-121750000D03*
G04 #@! TD*
D23*
G04 #@! TO.C,U1*
X142150000Y-123300000D03*
X142150000Y-118700000D03*
X142150000Y-121000000D03*
D24*
X135850000Y-121000000D03*
G04 #@! TD*
D22*
G04 #@! TO.C,EarthGND*
X120800000Y-131600000D03*
G04 #@! TD*
M02*
