M48
;DRILL file {KiCad (5.0.0)} date 12/13/18 14:05:38
;FORMAT={-:-/ absolute / inch / decimal}
FMAT,2
INCH,TZ
T1C0.0157
T2C0.0236
T3C0.0394
T4C0.0472
T5C0.2362
%
G90
G05
M72
T1
X4.7559Y-5.063
X5.0787Y-4.5669
T2
X4.9016Y-3.5433
X4.9535Y-3.418
X4.9535Y-3.6686
X5.0787Y-3.3661
X5.0787Y-3.7205
X5.204Y-3.418
X5.204Y-3.6686
X5.2559Y-3.5433
X5.6496Y-3.5433
X5.7015Y-3.418
X5.7015Y-3.6686
X5.8268Y-3.3661
X5.8268Y-3.7205
X5.952Y-3.418
X5.952Y-3.6686
X6.0039Y-3.5433
X4.1535Y-3.5433
X4.2054Y-3.418
X4.2054Y-3.6686
X4.3307Y-3.3661
X4.3307Y-3.7205
X4.456Y-3.418
X4.456Y-3.6686
X4.5079Y-3.5433
T3
X4.1535Y-4.8622
X4.2535Y-4.8622
X4.3307Y-4.6085
X4.3307Y-4.7085
X5.874Y-4.8661
X5.974Y-4.8661
X5.0197Y-4.8661
X5.1197Y-4.8661
X4.1535Y-4.6063
X4.1535Y-4.7063
X4.9213Y-4.6063
X4.9213Y-4.7063
X4.7047Y-3.6992
X4.7047Y-3.7992
T4
X5.8661Y-5.0787
X6.0039Y-5.0787
X4.1339Y-5.0787
X4.2717Y-5.0787
X5.Y-5.0787
X5.1378Y-5.0787
T5
X5.0787Y-3.5433
X5.8268Y-3.5433
X4.3307Y-3.5433
T0
M30
