G04 #@! TF.GenerationSoftware,KiCad,Pcbnew,(5.0.0)*
G04 #@! TF.CreationDate,2018-12-13T14:05:28+00:00*
G04 #@! TF.ProjectId,GiveMePower,476976654D65506F7765722E6B696361,rev?*
G04 #@! TF.SameCoordinates,Original*
G04 #@! TF.FileFunction,Legend,Top*
G04 #@! TF.FilePolarity,Positive*
%FSLAX46Y46*%
G04 Gerber Fmt 4.6, Leading zero omitted, Abs format (unit mm)*
G04 Created by KiCad (PCBNEW (5.0.0)) date 12/13/18 14:05:28*
%MOMM*%
%LPD*%
G01*
G04 APERTURE LIST*
%ADD10C,0.300000*%
%ADD11C,0.010000*%
%ADD12C,0.120000*%
%ADD13C,0.150000*%
G04 APERTURE END LIST*
D10*
X115783660Y-98250000D02*
X115515803Y-98107142D01*
X115087232Y-98107142D01*
X114640803Y-98250000D01*
X114319375Y-98535714D01*
X114140803Y-98821428D01*
X113926517Y-99392857D01*
X113872946Y-99821428D01*
X113944375Y-100392857D01*
X114051517Y-100678571D01*
X114301517Y-100964285D01*
X114712232Y-101107142D01*
X114997946Y-101107142D01*
X115444375Y-100964285D01*
X115605089Y-100821428D01*
X115730089Y-99821428D01*
X115158660Y-99821428D01*
X116855089Y-101107142D02*
X117105089Y-99107142D01*
X117230089Y-98107142D02*
X117069375Y-98250000D01*
X117194375Y-98392857D01*
X117355089Y-98250000D01*
X117230089Y-98107142D01*
X117194375Y-98392857D01*
X118247946Y-99107142D02*
X118712232Y-101107142D01*
X119676517Y-99107142D01*
X121730089Y-100964285D02*
X121426517Y-101107142D01*
X120855089Y-101107142D01*
X120587232Y-100964285D01*
X120480089Y-100678571D01*
X120622946Y-99535714D01*
X120801517Y-99250000D01*
X121105089Y-99107142D01*
X121676517Y-99107142D01*
X121944375Y-99250000D01*
X122051517Y-99535714D01*
X122015803Y-99821428D01*
X120551517Y-100107142D01*
X125426517Y-101107142D02*
X125801517Y-98107142D01*
X126533660Y-100250000D01*
X127801517Y-98107142D01*
X127426517Y-101107142D01*
X130015803Y-100964285D02*
X129712232Y-101107142D01*
X129140803Y-101107142D01*
X128872946Y-100964285D01*
X128765803Y-100678571D01*
X128908660Y-99535714D01*
X129087232Y-99250000D01*
X129390803Y-99107142D01*
X129962232Y-99107142D01*
X130230089Y-99250000D01*
X130337232Y-99535714D01*
X130301517Y-99821428D01*
X128837232Y-100107142D01*
X133712232Y-101107142D02*
X134087232Y-98107142D01*
X135230089Y-98107142D01*
X135497946Y-98250000D01*
X135622946Y-98392857D01*
X135730089Y-98678571D01*
X135676517Y-99107142D01*
X135497946Y-99392857D01*
X135337232Y-99535714D01*
X135033660Y-99678571D01*
X133890803Y-99678571D01*
X137140803Y-101107142D02*
X136872946Y-100964285D01*
X136747946Y-100821428D01*
X136640803Y-100535714D01*
X136747946Y-99678571D01*
X136926517Y-99392857D01*
X137087232Y-99250000D01*
X137390803Y-99107142D01*
X137819375Y-99107142D01*
X138087232Y-99250000D01*
X138212232Y-99392857D01*
X138319375Y-99678571D01*
X138212232Y-100535714D01*
X138033660Y-100821428D01*
X137872946Y-100964285D01*
X137569375Y-101107142D01*
X137140803Y-101107142D01*
X139390803Y-99107142D02*
X139712232Y-101107142D01*
X140462232Y-99678571D01*
X140855089Y-101107142D01*
X141676517Y-99107142D01*
X143730089Y-100964285D02*
X143426517Y-101107142D01*
X142855089Y-101107142D01*
X142587232Y-100964285D01*
X142480089Y-100678571D01*
X142622946Y-99535714D01*
X142801517Y-99250000D01*
X143105089Y-99107142D01*
X143676517Y-99107142D01*
X143944375Y-99250000D01*
X144051517Y-99535714D01*
X144015803Y-99821428D01*
X142551517Y-100107142D01*
X145140803Y-101107142D02*
X145390803Y-99107142D01*
X145319375Y-99678571D02*
X145497946Y-99392857D01*
X145658660Y-99250000D01*
X145962232Y-99107142D01*
X146247946Y-99107142D01*
D11*
G04 #@! TO.C,REF\002A\002A\002A*
G36*
X129303910Y-101642348D02*
X129382454Y-101642778D01*
X129439298Y-101643942D01*
X129478105Y-101646207D01*
X129502538Y-101649940D01*
X129516262Y-101655506D01*
X129522940Y-101663273D01*
X129526236Y-101673605D01*
X129526556Y-101674943D01*
X129531562Y-101699079D01*
X129540829Y-101746701D01*
X129553392Y-101812741D01*
X129568287Y-101892128D01*
X129584551Y-101979796D01*
X129585119Y-101982875D01*
X129601410Y-102068789D01*
X129616652Y-102144696D01*
X129629861Y-102206045D01*
X129640054Y-102248282D01*
X129646248Y-102266855D01*
X129646543Y-102267184D01*
X129664788Y-102276253D01*
X129702405Y-102291367D01*
X129751271Y-102309262D01*
X129751543Y-102309358D01*
X129813093Y-102332493D01*
X129885657Y-102361965D01*
X129954057Y-102391597D01*
X129957294Y-102393062D01*
X130068702Y-102443626D01*
X130315399Y-102275160D01*
X130391077Y-102223803D01*
X130459631Y-102177889D01*
X130517088Y-102140030D01*
X130559476Y-102112837D01*
X130582825Y-102098921D01*
X130585042Y-102097889D01*
X130602010Y-102102484D01*
X130633701Y-102124655D01*
X130681352Y-102165447D01*
X130746198Y-102225905D01*
X130812397Y-102290227D01*
X130876214Y-102353612D01*
X130933329Y-102411451D01*
X130980305Y-102460175D01*
X131013703Y-102496210D01*
X131030085Y-102515984D01*
X131030694Y-102517002D01*
X131032505Y-102530572D01*
X131025683Y-102552733D01*
X131008540Y-102586478D01*
X130979393Y-102634800D01*
X130936555Y-102700692D01*
X130879448Y-102785517D01*
X130828766Y-102860177D01*
X130783461Y-102927140D01*
X130746150Y-102982516D01*
X130719452Y-103022420D01*
X130705985Y-103042962D01*
X130705137Y-103044356D01*
X130706781Y-103064038D01*
X130719245Y-103102293D01*
X130740048Y-103151889D01*
X130747462Y-103167728D01*
X130779814Y-103238290D01*
X130814328Y-103318353D01*
X130842365Y-103387629D01*
X130862568Y-103439045D01*
X130878615Y-103478119D01*
X130887888Y-103498541D01*
X130889041Y-103500114D01*
X130906096Y-103502721D01*
X130946298Y-103509863D01*
X131004302Y-103520523D01*
X131074763Y-103533685D01*
X131152335Y-103548333D01*
X131231672Y-103563449D01*
X131307431Y-103578018D01*
X131374264Y-103591022D01*
X131426828Y-103601445D01*
X131459776Y-103608270D01*
X131467857Y-103610199D01*
X131476205Y-103614962D01*
X131482506Y-103625718D01*
X131487045Y-103646098D01*
X131490104Y-103679734D01*
X131491967Y-103730255D01*
X131492918Y-103801292D01*
X131493240Y-103896476D01*
X131493257Y-103935492D01*
X131493257Y-104252799D01*
X131417057Y-104267839D01*
X131374663Y-104275995D01*
X131311400Y-104287899D01*
X131234962Y-104302116D01*
X131153043Y-104317210D01*
X131130400Y-104321355D01*
X131054806Y-104336053D01*
X130988953Y-104350505D01*
X130938366Y-104363375D01*
X130908574Y-104373322D01*
X130903612Y-104376287D01*
X130891426Y-104397283D01*
X130873953Y-104437967D01*
X130854577Y-104490322D01*
X130850734Y-104501600D01*
X130825339Y-104571523D01*
X130793817Y-104650418D01*
X130762969Y-104721266D01*
X130762817Y-104721595D01*
X130711447Y-104832733D01*
X130880399Y-105081253D01*
X131049352Y-105329772D01*
X130832429Y-105547058D01*
X130766819Y-105611726D01*
X130706979Y-105668733D01*
X130656267Y-105715033D01*
X130618046Y-105747584D01*
X130595675Y-105763343D01*
X130592466Y-105764343D01*
X130573626Y-105756469D01*
X130535180Y-105734578D01*
X130481330Y-105701267D01*
X130416276Y-105659131D01*
X130345940Y-105611943D01*
X130274555Y-105563810D01*
X130210908Y-105521928D01*
X130159041Y-105488871D01*
X130122995Y-105467218D01*
X130106867Y-105459543D01*
X130087189Y-105466037D01*
X130049875Y-105483150D01*
X130002621Y-105507326D01*
X129997612Y-105510013D01*
X129933977Y-105541927D01*
X129890341Y-105557579D01*
X129863202Y-105557745D01*
X129849057Y-105543204D01*
X129848975Y-105543000D01*
X129841905Y-105525779D01*
X129825042Y-105484899D01*
X129799695Y-105423525D01*
X129767171Y-105344819D01*
X129728778Y-105251947D01*
X129685822Y-105148072D01*
X129644222Y-105047502D01*
X129598504Y-104936516D01*
X129556526Y-104833703D01*
X129519548Y-104742215D01*
X129488827Y-104665201D01*
X129465622Y-104605815D01*
X129451190Y-104567209D01*
X129446743Y-104552800D01*
X129457896Y-104536272D01*
X129487069Y-104509930D01*
X129525971Y-104480887D01*
X129636757Y-104389039D01*
X129723351Y-104283759D01*
X129784716Y-104167266D01*
X129819815Y-104041776D01*
X129827608Y-103909507D01*
X129821943Y-103848457D01*
X129791078Y-103721795D01*
X129737920Y-103609941D01*
X129665767Y-103514001D01*
X129577917Y-103435076D01*
X129477665Y-103374270D01*
X129368310Y-103332687D01*
X129253147Y-103311428D01*
X129135475Y-103311599D01*
X129018590Y-103334301D01*
X128905789Y-103380638D01*
X128800369Y-103451713D01*
X128756368Y-103491911D01*
X128671979Y-103595129D01*
X128613222Y-103707925D01*
X128579704Y-103827010D01*
X128571035Y-103949095D01*
X128586823Y-104070893D01*
X128626678Y-104189116D01*
X128690207Y-104300475D01*
X128777021Y-104401684D01*
X128874029Y-104480887D01*
X128914437Y-104511162D01*
X128942982Y-104537219D01*
X128953257Y-104552825D01*
X128947877Y-104569843D01*
X128932575Y-104610500D01*
X128908612Y-104671642D01*
X128877244Y-104750119D01*
X128839732Y-104842780D01*
X128797333Y-104946472D01*
X128755663Y-105047526D01*
X128709690Y-105158607D01*
X128667107Y-105261541D01*
X128629221Y-105353165D01*
X128597340Y-105430316D01*
X128572771Y-105489831D01*
X128556820Y-105528544D01*
X128550910Y-105543000D01*
X128536948Y-105557685D01*
X128509940Y-105557642D01*
X128466413Y-105542099D01*
X128402890Y-105510284D01*
X128402388Y-105510013D01*
X128354560Y-105485323D01*
X128315897Y-105467338D01*
X128294095Y-105459614D01*
X128293133Y-105459543D01*
X128276721Y-105467378D01*
X128240487Y-105489165D01*
X128188474Y-105522328D01*
X128124725Y-105564291D01*
X128054060Y-105611943D01*
X127982116Y-105660191D01*
X127917274Y-105702151D01*
X127863735Y-105735227D01*
X127825697Y-105756821D01*
X127807533Y-105764343D01*
X127790808Y-105754457D01*
X127757180Y-105726826D01*
X127710010Y-105684495D01*
X127652658Y-105630505D01*
X127588484Y-105567899D01*
X127567497Y-105546983D01*
X127350499Y-105329623D01*
X127515668Y-105087220D01*
X127565864Y-105012781D01*
X127609919Y-104945972D01*
X127645362Y-104890665D01*
X127669719Y-104850729D01*
X127680522Y-104830036D01*
X127680838Y-104828563D01*
X127675143Y-104809058D01*
X127659826Y-104769822D01*
X127637537Y-104717430D01*
X127621893Y-104682355D01*
X127592641Y-104615201D01*
X127565094Y-104547358D01*
X127543737Y-104490034D01*
X127537935Y-104472572D01*
X127521452Y-104425938D01*
X127505340Y-104389905D01*
X127496490Y-104376287D01*
X127476960Y-104367952D01*
X127434334Y-104356137D01*
X127374145Y-104342181D01*
X127301922Y-104327422D01*
X127269600Y-104321355D01*
X127187522Y-104306273D01*
X127108795Y-104291669D01*
X127041109Y-104278980D01*
X126992160Y-104269642D01*
X126982943Y-104267839D01*
X126906743Y-104252799D01*
X126906743Y-103935492D01*
X126906914Y-103831154D01*
X126907616Y-103752213D01*
X126909134Y-103695038D01*
X126911749Y-103655999D01*
X126915746Y-103631465D01*
X126921409Y-103617805D01*
X126929020Y-103611389D01*
X126932143Y-103610199D01*
X126950978Y-103605980D01*
X126992588Y-103597562D01*
X127051630Y-103585961D01*
X127122757Y-103572195D01*
X127200625Y-103557280D01*
X127279887Y-103542232D01*
X127355198Y-103528069D01*
X127421213Y-103515806D01*
X127472587Y-103506461D01*
X127503975Y-103501050D01*
X127510959Y-103500114D01*
X127517285Y-103487596D01*
X127531290Y-103454246D01*
X127550355Y-103406377D01*
X127557634Y-103387629D01*
X127586996Y-103315195D01*
X127621571Y-103235170D01*
X127652537Y-103167728D01*
X127675323Y-103116159D01*
X127690482Y-103073785D01*
X127695542Y-103047834D01*
X127694736Y-103044356D01*
X127684041Y-103027936D01*
X127659620Y-102991417D01*
X127624095Y-102938687D01*
X127580087Y-102873635D01*
X127530217Y-102800151D01*
X127520356Y-102785645D01*
X127462492Y-102699704D01*
X127419956Y-102634261D01*
X127391054Y-102586304D01*
X127374090Y-102552820D01*
X127367367Y-102530795D01*
X127369190Y-102517217D01*
X127369236Y-102517131D01*
X127383586Y-102499297D01*
X127415323Y-102464817D01*
X127461010Y-102417268D01*
X127517204Y-102360222D01*
X127580468Y-102297255D01*
X127587602Y-102290227D01*
X127667330Y-102213020D01*
X127728857Y-102156330D01*
X127773421Y-102119110D01*
X127802257Y-102100315D01*
X127814958Y-102097889D01*
X127833494Y-102108471D01*
X127871961Y-102132916D01*
X127926386Y-102168612D01*
X127992798Y-102212947D01*
X128067225Y-102263311D01*
X128084601Y-102275160D01*
X128331297Y-102443626D01*
X128442706Y-102393062D01*
X128510457Y-102363595D01*
X128583183Y-102333959D01*
X128645703Y-102310330D01*
X128648457Y-102309358D01*
X128697360Y-102291457D01*
X128735057Y-102276320D01*
X128753425Y-102267210D01*
X128753456Y-102267184D01*
X128759285Y-102250717D01*
X128769192Y-102210219D01*
X128782195Y-102150242D01*
X128797309Y-102075340D01*
X128813552Y-101990064D01*
X128814881Y-101982875D01*
X128831175Y-101895014D01*
X128846133Y-101815260D01*
X128858791Y-101748681D01*
X128868186Y-101700347D01*
X128873354Y-101675325D01*
X128873444Y-101674943D01*
X128876589Y-101664299D01*
X128882704Y-101656262D01*
X128895453Y-101650467D01*
X128918500Y-101646547D01*
X128955509Y-101644135D01*
X129010144Y-101642865D01*
X129086067Y-101642371D01*
X129186944Y-101642286D01*
X129200000Y-101642286D01*
X129303910Y-101642348D01*
X129303910Y-101642348D01*
G37*
X129303910Y-101642348D02*
X129382454Y-101642778D01*
X129439298Y-101643942D01*
X129478105Y-101646207D01*
X129502538Y-101649940D01*
X129516262Y-101655506D01*
X129522940Y-101663273D01*
X129526236Y-101673605D01*
X129526556Y-101674943D01*
X129531562Y-101699079D01*
X129540829Y-101746701D01*
X129553392Y-101812741D01*
X129568287Y-101892128D01*
X129584551Y-101979796D01*
X129585119Y-101982875D01*
X129601410Y-102068789D01*
X129616652Y-102144696D01*
X129629861Y-102206045D01*
X129640054Y-102248282D01*
X129646248Y-102266855D01*
X129646543Y-102267184D01*
X129664788Y-102276253D01*
X129702405Y-102291367D01*
X129751271Y-102309262D01*
X129751543Y-102309358D01*
X129813093Y-102332493D01*
X129885657Y-102361965D01*
X129954057Y-102391597D01*
X129957294Y-102393062D01*
X130068702Y-102443626D01*
X130315399Y-102275160D01*
X130391077Y-102223803D01*
X130459631Y-102177889D01*
X130517088Y-102140030D01*
X130559476Y-102112837D01*
X130582825Y-102098921D01*
X130585042Y-102097889D01*
X130602010Y-102102484D01*
X130633701Y-102124655D01*
X130681352Y-102165447D01*
X130746198Y-102225905D01*
X130812397Y-102290227D01*
X130876214Y-102353612D01*
X130933329Y-102411451D01*
X130980305Y-102460175D01*
X131013703Y-102496210D01*
X131030085Y-102515984D01*
X131030694Y-102517002D01*
X131032505Y-102530572D01*
X131025683Y-102552733D01*
X131008540Y-102586478D01*
X130979393Y-102634800D01*
X130936555Y-102700692D01*
X130879448Y-102785517D01*
X130828766Y-102860177D01*
X130783461Y-102927140D01*
X130746150Y-102982516D01*
X130719452Y-103022420D01*
X130705985Y-103042962D01*
X130705137Y-103044356D01*
X130706781Y-103064038D01*
X130719245Y-103102293D01*
X130740048Y-103151889D01*
X130747462Y-103167728D01*
X130779814Y-103238290D01*
X130814328Y-103318353D01*
X130842365Y-103387629D01*
X130862568Y-103439045D01*
X130878615Y-103478119D01*
X130887888Y-103498541D01*
X130889041Y-103500114D01*
X130906096Y-103502721D01*
X130946298Y-103509863D01*
X131004302Y-103520523D01*
X131074763Y-103533685D01*
X131152335Y-103548333D01*
X131231672Y-103563449D01*
X131307431Y-103578018D01*
X131374264Y-103591022D01*
X131426828Y-103601445D01*
X131459776Y-103608270D01*
X131467857Y-103610199D01*
X131476205Y-103614962D01*
X131482506Y-103625718D01*
X131487045Y-103646098D01*
X131490104Y-103679734D01*
X131491967Y-103730255D01*
X131492918Y-103801292D01*
X131493240Y-103896476D01*
X131493257Y-103935492D01*
X131493257Y-104252799D01*
X131417057Y-104267839D01*
X131374663Y-104275995D01*
X131311400Y-104287899D01*
X131234962Y-104302116D01*
X131153043Y-104317210D01*
X131130400Y-104321355D01*
X131054806Y-104336053D01*
X130988953Y-104350505D01*
X130938366Y-104363375D01*
X130908574Y-104373322D01*
X130903612Y-104376287D01*
X130891426Y-104397283D01*
X130873953Y-104437967D01*
X130854577Y-104490322D01*
X130850734Y-104501600D01*
X130825339Y-104571523D01*
X130793817Y-104650418D01*
X130762969Y-104721266D01*
X130762817Y-104721595D01*
X130711447Y-104832733D01*
X130880399Y-105081253D01*
X131049352Y-105329772D01*
X130832429Y-105547058D01*
X130766819Y-105611726D01*
X130706979Y-105668733D01*
X130656267Y-105715033D01*
X130618046Y-105747584D01*
X130595675Y-105763343D01*
X130592466Y-105764343D01*
X130573626Y-105756469D01*
X130535180Y-105734578D01*
X130481330Y-105701267D01*
X130416276Y-105659131D01*
X130345940Y-105611943D01*
X130274555Y-105563810D01*
X130210908Y-105521928D01*
X130159041Y-105488871D01*
X130122995Y-105467218D01*
X130106867Y-105459543D01*
X130087189Y-105466037D01*
X130049875Y-105483150D01*
X130002621Y-105507326D01*
X129997612Y-105510013D01*
X129933977Y-105541927D01*
X129890341Y-105557579D01*
X129863202Y-105557745D01*
X129849057Y-105543204D01*
X129848975Y-105543000D01*
X129841905Y-105525779D01*
X129825042Y-105484899D01*
X129799695Y-105423525D01*
X129767171Y-105344819D01*
X129728778Y-105251947D01*
X129685822Y-105148072D01*
X129644222Y-105047502D01*
X129598504Y-104936516D01*
X129556526Y-104833703D01*
X129519548Y-104742215D01*
X129488827Y-104665201D01*
X129465622Y-104605815D01*
X129451190Y-104567209D01*
X129446743Y-104552800D01*
X129457896Y-104536272D01*
X129487069Y-104509930D01*
X129525971Y-104480887D01*
X129636757Y-104389039D01*
X129723351Y-104283759D01*
X129784716Y-104167266D01*
X129819815Y-104041776D01*
X129827608Y-103909507D01*
X129821943Y-103848457D01*
X129791078Y-103721795D01*
X129737920Y-103609941D01*
X129665767Y-103514001D01*
X129577917Y-103435076D01*
X129477665Y-103374270D01*
X129368310Y-103332687D01*
X129253147Y-103311428D01*
X129135475Y-103311599D01*
X129018590Y-103334301D01*
X128905789Y-103380638D01*
X128800369Y-103451713D01*
X128756368Y-103491911D01*
X128671979Y-103595129D01*
X128613222Y-103707925D01*
X128579704Y-103827010D01*
X128571035Y-103949095D01*
X128586823Y-104070893D01*
X128626678Y-104189116D01*
X128690207Y-104300475D01*
X128777021Y-104401684D01*
X128874029Y-104480887D01*
X128914437Y-104511162D01*
X128942982Y-104537219D01*
X128953257Y-104552825D01*
X128947877Y-104569843D01*
X128932575Y-104610500D01*
X128908612Y-104671642D01*
X128877244Y-104750119D01*
X128839732Y-104842780D01*
X128797333Y-104946472D01*
X128755663Y-105047526D01*
X128709690Y-105158607D01*
X128667107Y-105261541D01*
X128629221Y-105353165D01*
X128597340Y-105430316D01*
X128572771Y-105489831D01*
X128556820Y-105528544D01*
X128550910Y-105543000D01*
X128536948Y-105557685D01*
X128509940Y-105557642D01*
X128466413Y-105542099D01*
X128402890Y-105510284D01*
X128402388Y-105510013D01*
X128354560Y-105485323D01*
X128315897Y-105467338D01*
X128294095Y-105459614D01*
X128293133Y-105459543D01*
X128276721Y-105467378D01*
X128240487Y-105489165D01*
X128188474Y-105522328D01*
X128124725Y-105564291D01*
X128054060Y-105611943D01*
X127982116Y-105660191D01*
X127917274Y-105702151D01*
X127863735Y-105735227D01*
X127825697Y-105756821D01*
X127807533Y-105764343D01*
X127790808Y-105754457D01*
X127757180Y-105726826D01*
X127710010Y-105684495D01*
X127652658Y-105630505D01*
X127588484Y-105567899D01*
X127567497Y-105546983D01*
X127350499Y-105329623D01*
X127515668Y-105087220D01*
X127565864Y-105012781D01*
X127609919Y-104945972D01*
X127645362Y-104890665D01*
X127669719Y-104850729D01*
X127680522Y-104830036D01*
X127680838Y-104828563D01*
X127675143Y-104809058D01*
X127659826Y-104769822D01*
X127637537Y-104717430D01*
X127621893Y-104682355D01*
X127592641Y-104615201D01*
X127565094Y-104547358D01*
X127543737Y-104490034D01*
X127537935Y-104472572D01*
X127521452Y-104425938D01*
X127505340Y-104389905D01*
X127496490Y-104376287D01*
X127476960Y-104367952D01*
X127434334Y-104356137D01*
X127374145Y-104342181D01*
X127301922Y-104327422D01*
X127269600Y-104321355D01*
X127187522Y-104306273D01*
X127108795Y-104291669D01*
X127041109Y-104278980D01*
X126992160Y-104269642D01*
X126982943Y-104267839D01*
X126906743Y-104252799D01*
X126906743Y-103935492D01*
X126906914Y-103831154D01*
X126907616Y-103752213D01*
X126909134Y-103695038D01*
X126911749Y-103655999D01*
X126915746Y-103631465D01*
X126921409Y-103617805D01*
X126929020Y-103611389D01*
X126932143Y-103610199D01*
X126950978Y-103605980D01*
X126992588Y-103597562D01*
X127051630Y-103585961D01*
X127122757Y-103572195D01*
X127200625Y-103557280D01*
X127279887Y-103542232D01*
X127355198Y-103528069D01*
X127421213Y-103515806D01*
X127472587Y-103506461D01*
X127503975Y-103501050D01*
X127510959Y-103500114D01*
X127517285Y-103487596D01*
X127531290Y-103454246D01*
X127550355Y-103406377D01*
X127557634Y-103387629D01*
X127586996Y-103315195D01*
X127621571Y-103235170D01*
X127652537Y-103167728D01*
X127675323Y-103116159D01*
X127690482Y-103073785D01*
X127695542Y-103047834D01*
X127694736Y-103044356D01*
X127684041Y-103027936D01*
X127659620Y-102991417D01*
X127624095Y-102938687D01*
X127580087Y-102873635D01*
X127530217Y-102800151D01*
X127520356Y-102785645D01*
X127462492Y-102699704D01*
X127419956Y-102634261D01*
X127391054Y-102586304D01*
X127374090Y-102552820D01*
X127367367Y-102530795D01*
X127369190Y-102517217D01*
X127369236Y-102517131D01*
X127383586Y-102499297D01*
X127415323Y-102464817D01*
X127461010Y-102417268D01*
X127517204Y-102360222D01*
X127580468Y-102297255D01*
X127587602Y-102290227D01*
X127667330Y-102213020D01*
X127728857Y-102156330D01*
X127773421Y-102119110D01*
X127802257Y-102100315D01*
X127814958Y-102097889D01*
X127833494Y-102108471D01*
X127871961Y-102132916D01*
X127926386Y-102168612D01*
X127992798Y-102212947D01*
X128067225Y-102263311D01*
X128084601Y-102275160D01*
X128331297Y-102443626D01*
X128442706Y-102393062D01*
X128510457Y-102363595D01*
X128583183Y-102333959D01*
X128645703Y-102310330D01*
X128648457Y-102309358D01*
X128697360Y-102291457D01*
X128735057Y-102276320D01*
X128753425Y-102267210D01*
X128753456Y-102267184D01*
X128759285Y-102250717D01*
X128769192Y-102210219D01*
X128782195Y-102150242D01*
X128797309Y-102075340D01*
X128813552Y-101990064D01*
X128814881Y-101982875D01*
X128831175Y-101895014D01*
X128846133Y-101815260D01*
X128858791Y-101748681D01*
X128868186Y-101700347D01*
X128873354Y-101675325D01*
X128873444Y-101674943D01*
X128876589Y-101664299D01*
X128882704Y-101656262D01*
X128895453Y-101650467D01*
X128918500Y-101646547D01*
X128955509Y-101644135D01*
X129010144Y-101642865D01*
X129086067Y-101642371D01*
X129186944Y-101642286D01*
X129200000Y-101642286D01*
X129303910Y-101642348D01*
G36*
X132353595Y-106366966D02*
X132411021Y-106404497D01*
X132438719Y-106438096D01*
X132460662Y-106499064D01*
X132462405Y-106547308D01*
X132458457Y-106611816D01*
X132309686Y-106676934D01*
X132237349Y-106710202D01*
X132190084Y-106736964D01*
X132165507Y-106760144D01*
X132161237Y-106782667D01*
X132174889Y-106807455D01*
X132189943Y-106823886D01*
X132233746Y-106850235D01*
X132281389Y-106852081D01*
X132325145Y-106831546D01*
X132357289Y-106790752D01*
X132363038Y-106776347D01*
X132390576Y-106731356D01*
X132422258Y-106712182D01*
X132465714Y-106695779D01*
X132465714Y-106757966D01*
X132461872Y-106800283D01*
X132446823Y-106835969D01*
X132415280Y-106876943D01*
X132410592Y-106882267D01*
X132375506Y-106918720D01*
X132345347Y-106938283D01*
X132307615Y-106947283D01*
X132276335Y-106950230D01*
X132220385Y-106950965D01*
X132180555Y-106941660D01*
X132155708Y-106927846D01*
X132116656Y-106897467D01*
X132089625Y-106864613D01*
X132072517Y-106823294D01*
X132063238Y-106767521D01*
X132059693Y-106691305D01*
X132059410Y-106652622D01*
X132060372Y-106606247D01*
X132148007Y-106606247D01*
X132149023Y-106631126D01*
X132151556Y-106635200D01*
X132168274Y-106629665D01*
X132204249Y-106615017D01*
X132252331Y-106594190D01*
X132262386Y-106589714D01*
X132323152Y-106558814D01*
X132356632Y-106531657D01*
X132363990Y-106506220D01*
X132346391Y-106480481D01*
X132331856Y-106469109D01*
X132279410Y-106446364D01*
X132230322Y-106450122D01*
X132189227Y-106477884D01*
X132160758Y-106527152D01*
X132151631Y-106566257D01*
X132148007Y-106606247D01*
X132060372Y-106606247D01*
X132061285Y-106562249D01*
X132068196Y-106495384D01*
X132081884Y-106446695D01*
X132104096Y-106410849D01*
X132136574Y-106382513D01*
X132150733Y-106373355D01*
X132215053Y-106349507D01*
X132285473Y-106348006D01*
X132353595Y-106366966D01*
X132353595Y-106366966D01*
G37*
X132353595Y-106366966D02*
X132411021Y-106404497D01*
X132438719Y-106438096D01*
X132460662Y-106499064D01*
X132462405Y-106547308D01*
X132458457Y-106611816D01*
X132309686Y-106676934D01*
X132237349Y-106710202D01*
X132190084Y-106736964D01*
X132165507Y-106760144D01*
X132161237Y-106782667D01*
X132174889Y-106807455D01*
X132189943Y-106823886D01*
X132233746Y-106850235D01*
X132281389Y-106852081D01*
X132325145Y-106831546D01*
X132357289Y-106790752D01*
X132363038Y-106776347D01*
X132390576Y-106731356D01*
X132422258Y-106712182D01*
X132465714Y-106695779D01*
X132465714Y-106757966D01*
X132461872Y-106800283D01*
X132446823Y-106835969D01*
X132415280Y-106876943D01*
X132410592Y-106882267D01*
X132375506Y-106918720D01*
X132345347Y-106938283D01*
X132307615Y-106947283D01*
X132276335Y-106950230D01*
X132220385Y-106950965D01*
X132180555Y-106941660D01*
X132155708Y-106927846D01*
X132116656Y-106897467D01*
X132089625Y-106864613D01*
X132072517Y-106823294D01*
X132063238Y-106767521D01*
X132059693Y-106691305D01*
X132059410Y-106652622D01*
X132060372Y-106606247D01*
X132148007Y-106606247D01*
X132149023Y-106631126D01*
X132151556Y-106635200D01*
X132168274Y-106629665D01*
X132204249Y-106615017D01*
X132252331Y-106594190D01*
X132262386Y-106589714D01*
X132323152Y-106558814D01*
X132356632Y-106531657D01*
X132363990Y-106506220D01*
X132346391Y-106480481D01*
X132331856Y-106469109D01*
X132279410Y-106446364D01*
X132230322Y-106450122D01*
X132189227Y-106477884D01*
X132160758Y-106527152D01*
X132151631Y-106566257D01*
X132148007Y-106606247D01*
X132060372Y-106606247D01*
X132061285Y-106562249D01*
X132068196Y-106495384D01*
X132081884Y-106446695D01*
X132104096Y-106410849D01*
X132136574Y-106382513D01*
X132150733Y-106373355D01*
X132215053Y-106349507D01*
X132285473Y-106348006D01*
X132353595Y-106366966D01*
G36*
X131852600Y-106358752D02*
X131869948Y-106366334D01*
X131911356Y-106399128D01*
X131946765Y-106446547D01*
X131968664Y-106497151D01*
X131972229Y-106522098D01*
X131960279Y-106556927D01*
X131934067Y-106575357D01*
X131905964Y-106586516D01*
X131893095Y-106588572D01*
X131886829Y-106573649D01*
X131874456Y-106541175D01*
X131869028Y-106526502D01*
X131838590Y-106475744D01*
X131794520Y-106450427D01*
X131738010Y-106451206D01*
X131733825Y-106452203D01*
X131703655Y-106466507D01*
X131681476Y-106494393D01*
X131666327Y-106539287D01*
X131657250Y-106604615D01*
X131653286Y-106693804D01*
X131652914Y-106741261D01*
X131652730Y-106816071D01*
X131651522Y-106867069D01*
X131648309Y-106899471D01*
X131642109Y-106918495D01*
X131631940Y-106929356D01*
X131616819Y-106937272D01*
X131615946Y-106937670D01*
X131586828Y-106949981D01*
X131572403Y-106954514D01*
X131570186Y-106940809D01*
X131568289Y-106902925D01*
X131566847Y-106845715D01*
X131565998Y-106774027D01*
X131565829Y-106721565D01*
X131566692Y-106620047D01*
X131570070Y-106543032D01*
X131577142Y-106486023D01*
X131589088Y-106444526D01*
X131607090Y-106414043D01*
X131632327Y-106390080D01*
X131657247Y-106373355D01*
X131717171Y-106351097D01*
X131786911Y-106346076D01*
X131852600Y-106358752D01*
X131852600Y-106358752D01*
G37*
X131852600Y-106358752D02*
X131869948Y-106366334D01*
X131911356Y-106399128D01*
X131946765Y-106446547D01*
X131968664Y-106497151D01*
X131972229Y-106522098D01*
X131960279Y-106556927D01*
X131934067Y-106575357D01*
X131905964Y-106586516D01*
X131893095Y-106588572D01*
X131886829Y-106573649D01*
X131874456Y-106541175D01*
X131869028Y-106526502D01*
X131838590Y-106475744D01*
X131794520Y-106450427D01*
X131738010Y-106451206D01*
X131733825Y-106452203D01*
X131703655Y-106466507D01*
X131681476Y-106494393D01*
X131666327Y-106539287D01*
X131657250Y-106604615D01*
X131653286Y-106693804D01*
X131652914Y-106741261D01*
X131652730Y-106816071D01*
X131651522Y-106867069D01*
X131648309Y-106899471D01*
X131642109Y-106918495D01*
X131631940Y-106929356D01*
X131616819Y-106937272D01*
X131615946Y-106937670D01*
X131586828Y-106949981D01*
X131572403Y-106954514D01*
X131570186Y-106940809D01*
X131568289Y-106902925D01*
X131566847Y-106845715D01*
X131565998Y-106774027D01*
X131565829Y-106721565D01*
X131566692Y-106620047D01*
X131570070Y-106543032D01*
X131577142Y-106486023D01*
X131589088Y-106444526D01*
X131607090Y-106414043D01*
X131632327Y-106390080D01*
X131657247Y-106373355D01*
X131717171Y-106351097D01*
X131786911Y-106346076D01*
X131852600Y-106358752D01*
G36*
X131344876Y-106356335D02*
X131386667Y-106375344D01*
X131419469Y-106398378D01*
X131443503Y-106424133D01*
X131460097Y-106457358D01*
X131470577Y-106502800D01*
X131476271Y-106565207D01*
X131478507Y-106649327D01*
X131478743Y-106704721D01*
X131478743Y-106920826D01*
X131441774Y-106937670D01*
X131412656Y-106949981D01*
X131398231Y-106954514D01*
X131395472Y-106941025D01*
X131393282Y-106904653D01*
X131391942Y-106851542D01*
X131391657Y-106809372D01*
X131390434Y-106748447D01*
X131387136Y-106700115D01*
X131382321Y-106670518D01*
X131378496Y-106664229D01*
X131352783Y-106670652D01*
X131312418Y-106687125D01*
X131265679Y-106709458D01*
X131220845Y-106733457D01*
X131186193Y-106754930D01*
X131170002Y-106769685D01*
X131169938Y-106769845D01*
X131171330Y-106797152D01*
X131183818Y-106823219D01*
X131205743Y-106844392D01*
X131237743Y-106851474D01*
X131265092Y-106850649D01*
X131303826Y-106850042D01*
X131324158Y-106859116D01*
X131336369Y-106883092D01*
X131337909Y-106887613D01*
X131343203Y-106921806D01*
X131329047Y-106942568D01*
X131292148Y-106952462D01*
X131252289Y-106954292D01*
X131180562Y-106940727D01*
X131143432Y-106921355D01*
X131097576Y-106875845D01*
X131073256Y-106819983D01*
X131071073Y-106760957D01*
X131091629Y-106705953D01*
X131122549Y-106671486D01*
X131153420Y-106652189D01*
X131201942Y-106627759D01*
X131258485Y-106602985D01*
X131267910Y-106599199D01*
X131330019Y-106571791D01*
X131365822Y-106547634D01*
X131377337Y-106523619D01*
X131366580Y-106496635D01*
X131348114Y-106475543D01*
X131304469Y-106449572D01*
X131256446Y-106447624D01*
X131212406Y-106467637D01*
X131180709Y-106507551D01*
X131176549Y-106517848D01*
X131152327Y-106555724D01*
X131116965Y-106583842D01*
X131072343Y-106606917D01*
X131072343Y-106541485D01*
X131074969Y-106501506D01*
X131086230Y-106469997D01*
X131111199Y-106436378D01*
X131135169Y-106410484D01*
X131172441Y-106373817D01*
X131201401Y-106354121D01*
X131232505Y-106346220D01*
X131267713Y-106344914D01*
X131344876Y-106356335D01*
X131344876Y-106356335D01*
G37*
X131344876Y-106356335D02*
X131386667Y-106375344D01*
X131419469Y-106398378D01*
X131443503Y-106424133D01*
X131460097Y-106457358D01*
X131470577Y-106502800D01*
X131476271Y-106565207D01*
X131478507Y-106649327D01*
X131478743Y-106704721D01*
X131478743Y-106920826D01*
X131441774Y-106937670D01*
X131412656Y-106949981D01*
X131398231Y-106954514D01*
X131395472Y-106941025D01*
X131393282Y-106904653D01*
X131391942Y-106851542D01*
X131391657Y-106809372D01*
X131390434Y-106748447D01*
X131387136Y-106700115D01*
X131382321Y-106670518D01*
X131378496Y-106664229D01*
X131352783Y-106670652D01*
X131312418Y-106687125D01*
X131265679Y-106709458D01*
X131220845Y-106733457D01*
X131186193Y-106754930D01*
X131170002Y-106769685D01*
X131169938Y-106769845D01*
X131171330Y-106797152D01*
X131183818Y-106823219D01*
X131205743Y-106844392D01*
X131237743Y-106851474D01*
X131265092Y-106850649D01*
X131303826Y-106850042D01*
X131324158Y-106859116D01*
X131336369Y-106883092D01*
X131337909Y-106887613D01*
X131343203Y-106921806D01*
X131329047Y-106942568D01*
X131292148Y-106952462D01*
X131252289Y-106954292D01*
X131180562Y-106940727D01*
X131143432Y-106921355D01*
X131097576Y-106875845D01*
X131073256Y-106819983D01*
X131071073Y-106760957D01*
X131091629Y-106705953D01*
X131122549Y-106671486D01*
X131153420Y-106652189D01*
X131201942Y-106627759D01*
X131258485Y-106602985D01*
X131267910Y-106599199D01*
X131330019Y-106571791D01*
X131365822Y-106547634D01*
X131377337Y-106523619D01*
X131366580Y-106496635D01*
X131348114Y-106475543D01*
X131304469Y-106449572D01*
X131256446Y-106447624D01*
X131212406Y-106467637D01*
X131180709Y-106507551D01*
X131176549Y-106517848D01*
X131152327Y-106555724D01*
X131116965Y-106583842D01*
X131072343Y-106606917D01*
X131072343Y-106541485D01*
X131074969Y-106501506D01*
X131086230Y-106469997D01*
X131111199Y-106436378D01*
X131135169Y-106410484D01*
X131172441Y-106373817D01*
X131201401Y-106354121D01*
X131232505Y-106346220D01*
X131267713Y-106344914D01*
X131344876Y-106356335D01*
G36*
X130979833Y-106358663D02*
X130982048Y-106396850D01*
X130983784Y-106454886D01*
X130984899Y-106528180D01*
X130985257Y-106605055D01*
X130985257Y-106865196D01*
X130939326Y-106911127D01*
X130907675Y-106939429D01*
X130879890Y-106950893D01*
X130841915Y-106950168D01*
X130826840Y-106948321D01*
X130779726Y-106942948D01*
X130740756Y-106939869D01*
X130731257Y-106939585D01*
X130699233Y-106941445D01*
X130653432Y-106946114D01*
X130635674Y-106948321D01*
X130592057Y-106951735D01*
X130562745Y-106944320D01*
X130533680Y-106921427D01*
X130523188Y-106911127D01*
X130477257Y-106865196D01*
X130477257Y-106378602D01*
X130514226Y-106361758D01*
X130546059Y-106349282D01*
X130564683Y-106344914D01*
X130569458Y-106358718D01*
X130573921Y-106397286D01*
X130577775Y-106456356D01*
X130580722Y-106531663D01*
X130582143Y-106595286D01*
X130586114Y-106845657D01*
X130620759Y-106850556D01*
X130652268Y-106847131D01*
X130667708Y-106836041D01*
X130672023Y-106815308D01*
X130675708Y-106771145D01*
X130678469Y-106709146D01*
X130680012Y-106634909D01*
X130680235Y-106596706D01*
X130680457Y-106376783D01*
X130726166Y-106360849D01*
X130758518Y-106350015D01*
X130776115Y-106344962D01*
X130776623Y-106344914D01*
X130778388Y-106358648D01*
X130780329Y-106396730D01*
X130782282Y-106454482D01*
X130784084Y-106527227D01*
X130785343Y-106595286D01*
X130789314Y-106845657D01*
X130876400Y-106845657D01*
X130880396Y-106617240D01*
X130884392Y-106388822D01*
X130926847Y-106366868D01*
X130958192Y-106351793D01*
X130976744Y-106344951D01*
X130977279Y-106344914D01*
X130979833Y-106358663D01*
X130979833Y-106358663D01*
G37*
X130979833Y-106358663D02*
X130982048Y-106396850D01*
X130983784Y-106454886D01*
X130984899Y-106528180D01*
X130985257Y-106605055D01*
X130985257Y-106865196D01*
X130939326Y-106911127D01*
X130907675Y-106939429D01*
X130879890Y-106950893D01*
X130841915Y-106950168D01*
X130826840Y-106948321D01*
X130779726Y-106942948D01*
X130740756Y-106939869D01*
X130731257Y-106939585D01*
X130699233Y-106941445D01*
X130653432Y-106946114D01*
X130635674Y-106948321D01*
X130592057Y-106951735D01*
X130562745Y-106944320D01*
X130533680Y-106921427D01*
X130523188Y-106911127D01*
X130477257Y-106865196D01*
X130477257Y-106378602D01*
X130514226Y-106361758D01*
X130546059Y-106349282D01*
X130564683Y-106344914D01*
X130569458Y-106358718D01*
X130573921Y-106397286D01*
X130577775Y-106456356D01*
X130580722Y-106531663D01*
X130582143Y-106595286D01*
X130586114Y-106845657D01*
X130620759Y-106850556D01*
X130652268Y-106847131D01*
X130667708Y-106836041D01*
X130672023Y-106815308D01*
X130675708Y-106771145D01*
X130678469Y-106709146D01*
X130680012Y-106634909D01*
X130680235Y-106596706D01*
X130680457Y-106376783D01*
X130726166Y-106360849D01*
X130758518Y-106350015D01*
X130776115Y-106344962D01*
X130776623Y-106344914D01*
X130778388Y-106358648D01*
X130780329Y-106396730D01*
X130782282Y-106454482D01*
X130784084Y-106527227D01*
X130785343Y-106595286D01*
X130789314Y-106845657D01*
X130876400Y-106845657D01*
X130880396Y-106617240D01*
X130884392Y-106388822D01*
X130926847Y-106366868D01*
X130958192Y-106351793D01*
X130976744Y-106344951D01*
X130977279Y-106344914D01*
X130979833Y-106358663D01*
G36*
X130390117Y-106465358D02*
X130389933Y-106573837D01*
X130389219Y-106657287D01*
X130387675Y-106719704D01*
X130385001Y-106765085D01*
X130380894Y-106797429D01*
X130375055Y-106820733D01*
X130367182Y-106838995D01*
X130361221Y-106849418D01*
X130311855Y-106905945D01*
X130249264Y-106941377D01*
X130180013Y-106954090D01*
X130110668Y-106942463D01*
X130069375Y-106921568D01*
X130026025Y-106885422D01*
X129996481Y-106841276D01*
X129978655Y-106783462D01*
X129970463Y-106706313D01*
X129969302Y-106649714D01*
X129969458Y-106645647D01*
X130070857Y-106645647D01*
X130071476Y-106710550D01*
X130074314Y-106753514D01*
X130080840Y-106781622D01*
X130092523Y-106801953D01*
X130106483Y-106817288D01*
X130153365Y-106846890D01*
X130203701Y-106849419D01*
X130251276Y-106824705D01*
X130254979Y-106821356D01*
X130270783Y-106803935D01*
X130280693Y-106783209D01*
X130286058Y-106752362D01*
X130288228Y-106704577D01*
X130288571Y-106651748D01*
X130287827Y-106585381D01*
X130284748Y-106541106D01*
X130278061Y-106512009D01*
X130266496Y-106491173D01*
X130257013Y-106480107D01*
X130212960Y-106452198D01*
X130162224Y-106448843D01*
X130113796Y-106470159D01*
X130104450Y-106478073D01*
X130088540Y-106495647D01*
X130078610Y-106516587D01*
X130073278Y-106547782D01*
X130071163Y-106596122D01*
X130070857Y-106645647D01*
X129969458Y-106645647D01*
X129972810Y-106558568D01*
X129984726Y-106490086D01*
X130007135Y-106438600D01*
X130042124Y-106398443D01*
X130069375Y-106377861D01*
X130118907Y-106355625D01*
X130176316Y-106345304D01*
X130229682Y-106348067D01*
X130259543Y-106359212D01*
X130271261Y-106362383D01*
X130279037Y-106350557D01*
X130284465Y-106318866D01*
X130288571Y-106270593D01*
X130293067Y-106216829D01*
X130299313Y-106184482D01*
X130310676Y-106165985D01*
X130330528Y-106153770D01*
X130343000Y-106148362D01*
X130390171Y-106128601D01*
X130390117Y-106465358D01*
X130390117Y-106465358D01*
G37*
X130390117Y-106465358D02*
X130389933Y-106573837D01*
X130389219Y-106657287D01*
X130387675Y-106719704D01*
X130385001Y-106765085D01*
X130380894Y-106797429D01*
X130375055Y-106820733D01*
X130367182Y-106838995D01*
X130361221Y-106849418D01*
X130311855Y-106905945D01*
X130249264Y-106941377D01*
X130180013Y-106954090D01*
X130110668Y-106942463D01*
X130069375Y-106921568D01*
X130026025Y-106885422D01*
X129996481Y-106841276D01*
X129978655Y-106783462D01*
X129970463Y-106706313D01*
X129969302Y-106649714D01*
X129969458Y-106645647D01*
X130070857Y-106645647D01*
X130071476Y-106710550D01*
X130074314Y-106753514D01*
X130080840Y-106781622D01*
X130092523Y-106801953D01*
X130106483Y-106817288D01*
X130153365Y-106846890D01*
X130203701Y-106849419D01*
X130251276Y-106824705D01*
X130254979Y-106821356D01*
X130270783Y-106803935D01*
X130280693Y-106783209D01*
X130286058Y-106752362D01*
X130288228Y-106704577D01*
X130288571Y-106651748D01*
X130287827Y-106585381D01*
X130284748Y-106541106D01*
X130278061Y-106512009D01*
X130266496Y-106491173D01*
X130257013Y-106480107D01*
X130212960Y-106452198D01*
X130162224Y-106448843D01*
X130113796Y-106470159D01*
X130104450Y-106478073D01*
X130088540Y-106495647D01*
X130078610Y-106516587D01*
X130073278Y-106547782D01*
X130071163Y-106596122D01*
X130070857Y-106645647D01*
X129969458Y-106645647D01*
X129972810Y-106558568D01*
X129984726Y-106490086D01*
X130007135Y-106438600D01*
X130042124Y-106398443D01*
X130069375Y-106377861D01*
X130118907Y-106355625D01*
X130176316Y-106345304D01*
X130229682Y-106348067D01*
X130259543Y-106359212D01*
X130271261Y-106362383D01*
X130279037Y-106350557D01*
X130284465Y-106318866D01*
X130288571Y-106270593D01*
X130293067Y-106216829D01*
X130299313Y-106184482D01*
X130310676Y-106165985D01*
X130330528Y-106153770D01*
X130343000Y-106148362D01*
X130390171Y-106128601D01*
X130390117Y-106465358D01*
G36*
X129729926Y-106349755D02*
X129795858Y-106374084D01*
X129849273Y-106417117D01*
X129870164Y-106447409D01*
X129892939Y-106502994D01*
X129892466Y-106543186D01*
X129868562Y-106570217D01*
X129859717Y-106574813D01*
X129821530Y-106589144D01*
X129802028Y-106585472D01*
X129795422Y-106561407D01*
X129795086Y-106548114D01*
X129782992Y-106499210D01*
X129751471Y-106464999D01*
X129707659Y-106448476D01*
X129658695Y-106452634D01*
X129618894Y-106474227D01*
X129605450Y-106486544D01*
X129595921Y-106501487D01*
X129589485Y-106524075D01*
X129585317Y-106559328D01*
X129582597Y-106612266D01*
X129580502Y-106687907D01*
X129579960Y-106711857D01*
X129577981Y-106793790D01*
X129575731Y-106851455D01*
X129572357Y-106889608D01*
X129567006Y-106913004D01*
X129558824Y-106926398D01*
X129546959Y-106934545D01*
X129539362Y-106938144D01*
X129507102Y-106950452D01*
X129488111Y-106954514D01*
X129481836Y-106940948D01*
X129478006Y-106899934D01*
X129476600Y-106830999D01*
X129477598Y-106733669D01*
X129477908Y-106718657D01*
X129480101Y-106629859D01*
X129482693Y-106565019D01*
X129486382Y-106519067D01*
X129491864Y-106486935D01*
X129499835Y-106463553D01*
X129510993Y-106443852D01*
X129516830Y-106435410D01*
X129550296Y-106398057D01*
X129587727Y-106369003D01*
X129592309Y-106366467D01*
X129659426Y-106346443D01*
X129729926Y-106349755D01*
X129729926Y-106349755D01*
G37*
X129729926Y-106349755D02*
X129795858Y-106374084D01*
X129849273Y-106417117D01*
X129870164Y-106447409D01*
X129892939Y-106502994D01*
X129892466Y-106543186D01*
X129868562Y-106570217D01*
X129859717Y-106574813D01*
X129821530Y-106589144D01*
X129802028Y-106585472D01*
X129795422Y-106561407D01*
X129795086Y-106548114D01*
X129782992Y-106499210D01*
X129751471Y-106464999D01*
X129707659Y-106448476D01*
X129658695Y-106452634D01*
X129618894Y-106474227D01*
X129605450Y-106486544D01*
X129595921Y-106501487D01*
X129589485Y-106524075D01*
X129585317Y-106559328D01*
X129582597Y-106612266D01*
X129580502Y-106687907D01*
X129579960Y-106711857D01*
X129577981Y-106793790D01*
X129575731Y-106851455D01*
X129572357Y-106889608D01*
X129567006Y-106913004D01*
X129558824Y-106926398D01*
X129546959Y-106934545D01*
X129539362Y-106938144D01*
X129507102Y-106950452D01*
X129488111Y-106954514D01*
X129481836Y-106940948D01*
X129478006Y-106899934D01*
X129476600Y-106830999D01*
X129477598Y-106733669D01*
X129477908Y-106718657D01*
X129480101Y-106629859D01*
X129482693Y-106565019D01*
X129486382Y-106519067D01*
X129491864Y-106486935D01*
X129499835Y-106463553D01*
X129510993Y-106443852D01*
X129516830Y-106435410D01*
X129550296Y-106398057D01*
X129587727Y-106369003D01*
X129592309Y-106366467D01*
X129659426Y-106346443D01*
X129729926Y-106349755D01*
G36*
X129239744Y-106350968D02*
X129296616Y-106372087D01*
X129297267Y-106372493D01*
X129332440Y-106398380D01*
X129358407Y-106428633D01*
X129376670Y-106468058D01*
X129388732Y-106521462D01*
X129396096Y-106593651D01*
X129400264Y-106689432D01*
X129400629Y-106703078D01*
X129405876Y-106908842D01*
X129361716Y-106931678D01*
X129329763Y-106947110D01*
X129310470Y-106954423D01*
X129309578Y-106954514D01*
X129306239Y-106941022D01*
X129303587Y-106904626D01*
X129301956Y-106851452D01*
X129301600Y-106808393D01*
X129301592Y-106738641D01*
X129298403Y-106694837D01*
X129287288Y-106673944D01*
X129263501Y-106672925D01*
X129222296Y-106688741D01*
X129160086Y-106717815D01*
X129114341Y-106741963D01*
X129090813Y-106762913D01*
X129083896Y-106785747D01*
X129083886Y-106786877D01*
X129095299Y-106826212D01*
X129129092Y-106847462D01*
X129180809Y-106850539D01*
X129218061Y-106850006D01*
X129237703Y-106860735D01*
X129249952Y-106886505D01*
X129257002Y-106919337D01*
X129246842Y-106937966D01*
X129243017Y-106940632D01*
X129207001Y-106951340D01*
X129156566Y-106952856D01*
X129104626Y-106945759D01*
X129067822Y-106932788D01*
X129016938Y-106889585D01*
X128988014Y-106829446D01*
X128982286Y-106782462D01*
X128986657Y-106740082D01*
X129002475Y-106705488D01*
X129033797Y-106674763D01*
X129084678Y-106643990D01*
X129159176Y-106609252D01*
X129163714Y-106607288D01*
X129230821Y-106576287D01*
X129272232Y-106550862D01*
X129289981Y-106528014D01*
X129286107Y-106504745D01*
X129262643Y-106478056D01*
X129255627Y-106471914D01*
X129208630Y-106448100D01*
X129159933Y-106449103D01*
X129117522Y-106472451D01*
X129089384Y-106515675D01*
X129086769Y-106524160D01*
X129061308Y-106565308D01*
X129029001Y-106585128D01*
X128982286Y-106604770D01*
X128982286Y-106553950D01*
X128996496Y-106480082D01*
X129038675Y-106412327D01*
X129060624Y-106389661D01*
X129110517Y-106360569D01*
X129173967Y-106347400D01*
X129239744Y-106350968D01*
X129239744Y-106350968D01*
G37*
X129239744Y-106350968D02*
X129296616Y-106372087D01*
X129297267Y-106372493D01*
X129332440Y-106398380D01*
X129358407Y-106428633D01*
X129376670Y-106468058D01*
X129388732Y-106521462D01*
X129396096Y-106593651D01*
X129400264Y-106689432D01*
X129400629Y-106703078D01*
X129405876Y-106908842D01*
X129361716Y-106931678D01*
X129329763Y-106947110D01*
X129310470Y-106954423D01*
X129309578Y-106954514D01*
X129306239Y-106941022D01*
X129303587Y-106904626D01*
X129301956Y-106851452D01*
X129301600Y-106808393D01*
X129301592Y-106738641D01*
X129298403Y-106694837D01*
X129287288Y-106673944D01*
X129263501Y-106672925D01*
X129222296Y-106688741D01*
X129160086Y-106717815D01*
X129114341Y-106741963D01*
X129090813Y-106762913D01*
X129083896Y-106785747D01*
X129083886Y-106786877D01*
X129095299Y-106826212D01*
X129129092Y-106847462D01*
X129180809Y-106850539D01*
X129218061Y-106850006D01*
X129237703Y-106860735D01*
X129249952Y-106886505D01*
X129257002Y-106919337D01*
X129246842Y-106937966D01*
X129243017Y-106940632D01*
X129207001Y-106951340D01*
X129156566Y-106952856D01*
X129104626Y-106945759D01*
X129067822Y-106932788D01*
X129016938Y-106889585D01*
X128988014Y-106829446D01*
X128982286Y-106782462D01*
X128986657Y-106740082D01*
X129002475Y-106705488D01*
X129033797Y-106674763D01*
X129084678Y-106643990D01*
X129159176Y-106609252D01*
X129163714Y-106607288D01*
X129230821Y-106576287D01*
X129272232Y-106550862D01*
X129289981Y-106528014D01*
X129286107Y-106504745D01*
X129262643Y-106478056D01*
X129255627Y-106471914D01*
X129208630Y-106448100D01*
X129159933Y-106449103D01*
X129117522Y-106472451D01*
X129089384Y-106515675D01*
X129086769Y-106524160D01*
X129061308Y-106565308D01*
X129029001Y-106585128D01*
X128982286Y-106604770D01*
X128982286Y-106553950D01*
X128996496Y-106480082D01*
X129038675Y-106412327D01*
X129060624Y-106389661D01*
X129110517Y-106360569D01*
X129173967Y-106347400D01*
X129239744Y-106350968D01*
G36*
X128575886Y-106251289D02*
X128580139Y-106310613D01*
X128585025Y-106345572D01*
X128591795Y-106360820D01*
X128601702Y-106361015D01*
X128604914Y-106359195D01*
X128647644Y-106346015D01*
X128703227Y-106346785D01*
X128759737Y-106360333D01*
X128795082Y-106377861D01*
X128831321Y-106405861D01*
X128857813Y-106437549D01*
X128875999Y-106477813D01*
X128887322Y-106531543D01*
X128893222Y-106603626D01*
X128895143Y-106698951D01*
X128895177Y-106717237D01*
X128895200Y-106922646D01*
X128849491Y-106938580D01*
X128817027Y-106949420D01*
X128799215Y-106954468D01*
X128798691Y-106954514D01*
X128796937Y-106940828D01*
X128795444Y-106903076D01*
X128794326Y-106846224D01*
X128793697Y-106775234D01*
X128793600Y-106732073D01*
X128793398Y-106646973D01*
X128792358Y-106585981D01*
X128789831Y-106544177D01*
X128785164Y-106516642D01*
X128777707Y-106498456D01*
X128766811Y-106484698D01*
X128760007Y-106478073D01*
X128713272Y-106451375D01*
X128662272Y-106449375D01*
X128616001Y-106471955D01*
X128607444Y-106480107D01*
X128594893Y-106495436D01*
X128586188Y-106513618D01*
X128580631Y-106539909D01*
X128577526Y-106579562D01*
X128576176Y-106637832D01*
X128575886Y-106718173D01*
X128575886Y-106922646D01*
X128530177Y-106938580D01*
X128497713Y-106949420D01*
X128479901Y-106954468D01*
X128479377Y-106954514D01*
X128478037Y-106940623D01*
X128476828Y-106901439D01*
X128475801Y-106840700D01*
X128475002Y-106762141D01*
X128474481Y-106669498D01*
X128474286Y-106566509D01*
X128474286Y-106169342D01*
X128521457Y-106149444D01*
X128568629Y-106129547D01*
X128575886Y-106251289D01*
X128575886Y-106251289D01*
G37*
X128575886Y-106251289D02*
X128580139Y-106310613D01*
X128585025Y-106345572D01*
X128591795Y-106360820D01*
X128601702Y-106361015D01*
X128604914Y-106359195D01*
X128647644Y-106346015D01*
X128703227Y-106346785D01*
X128759737Y-106360333D01*
X128795082Y-106377861D01*
X128831321Y-106405861D01*
X128857813Y-106437549D01*
X128875999Y-106477813D01*
X128887322Y-106531543D01*
X128893222Y-106603626D01*
X128895143Y-106698951D01*
X128895177Y-106717237D01*
X128895200Y-106922646D01*
X128849491Y-106938580D01*
X128817027Y-106949420D01*
X128799215Y-106954468D01*
X128798691Y-106954514D01*
X128796937Y-106940828D01*
X128795444Y-106903076D01*
X128794326Y-106846224D01*
X128793697Y-106775234D01*
X128793600Y-106732073D01*
X128793398Y-106646973D01*
X128792358Y-106585981D01*
X128789831Y-106544177D01*
X128785164Y-106516642D01*
X128777707Y-106498456D01*
X128766811Y-106484698D01*
X128760007Y-106478073D01*
X128713272Y-106451375D01*
X128662272Y-106449375D01*
X128616001Y-106471955D01*
X128607444Y-106480107D01*
X128594893Y-106495436D01*
X128586188Y-106513618D01*
X128580631Y-106539909D01*
X128577526Y-106579562D01*
X128576176Y-106637832D01*
X128575886Y-106718173D01*
X128575886Y-106922646D01*
X128530177Y-106938580D01*
X128497713Y-106949420D01*
X128479901Y-106954468D01*
X128479377Y-106954514D01*
X128478037Y-106940623D01*
X128476828Y-106901439D01*
X128475801Y-106840700D01*
X128475002Y-106762141D01*
X128474481Y-106669498D01*
X128474286Y-106566509D01*
X128474286Y-106169342D01*
X128521457Y-106149444D01*
X128568629Y-106129547D01*
X128575886Y-106251289D01*
G36*
X127368303Y-106331239D02*
X127425527Y-106369735D01*
X127469749Y-106425335D01*
X127496167Y-106496086D01*
X127501510Y-106548162D01*
X127500903Y-106569893D01*
X127495822Y-106586531D01*
X127481855Y-106601437D01*
X127454589Y-106617973D01*
X127409612Y-106639498D01*
X127342511Y-106669374D01*
X127342171Y-106669524D01*
X127280407Y-106697813D01*
X127229759Y-106722933D01*
X127195404Y-106742179D01*
X127182518Y-106752848D01*
X127182514Y-106752934D01*
X127193872Y-106776166D01*
X127220431Y-106801774D01*
X127250923Y-106820221D01*
X127266370Y-106823886D01*
X127308515Y-106811212D01*
X127344808Y-106779471D01*
X127362517Y-106744572D01*
X127379552Y-106718845D01*
X127412922Y-106689546D01*
X127452149Y-106664235D01*
X127486756Y-106650471D01*
X127493993Y-106649714D01*
X127502139Y-106662160D01*
X127502630Y-106693972D01*
X127496643Y-106736866D01*
X127485357Y-106782558D01*
X127469950Y-106822761D01*
X127469171Y-106824322D01*
X127422804Y-106889062D01*
X127362711Y-106933097D01*
X127294465Y-106954711D01*
X127223638Y-106952185D01*
X127155804Y-106923804D01*
X127152788Y-106921808D01*
X127099427Y-106873448D01*
X127064340Y-106810352D01*
X127044922Y-106727387D01*
X127042316Y-106704078D01*
X127037701Y-106594055D01*
X127043233Y-106542748D01*
X127182514Y-106542748D01*
X127184324Y-106574753D01*
X127194222Y-106584093D01*
X127218898Y-106577105D01*
X127257795Y-106560587D01*
X127301275Y-106539881D01*
X127302356Y-106539333D01*
X127339209Y-106519949D01*
X127354000Y-106507013D01*
X127350353Y-106493451D01*
X127334995Y-106475632D01*
X127295923Y-106449845D01*
X127253846Y-106447950D01*
X127216103Y-106466717D01*
X127190034Y-106502915D01*
X127182514Y-106542748D01*
X127043233Y-106542748D01*
X127047194Y-106506027D01*
X127071550Y-106436212D01*
X127105456Y-106387302D01*
X127166653Y-106337878D01*
X127234063Y-106313359D01*
X127302880Y-106311797D01*
X127368303Y-106331239D01*
X127368303Y-106331239D01*
G37*
X127368303Y-106331239D02*
X127425527Y-106369735D01*
X127469749Y-106425335D01*
X127496167Y-106496086D01*
X127501510Y-106548162D01*
X127500903Y-106569893D01*
X127495822Y-106586531D01*
X127481855Y-106601437D01*
X127454589Y-106617973D01*
X127409612Y-106639498D01*
X127342511Y-106669374D01*
X127342171Y-106669524D01*
X127280407Y-106697813D01*
X127229759Y-106722933D01*
X127195404Y-106742179D01*
X127182518Y-106752848D01*
X127182514Y-106752934D01*
X127193872Y-106776166D01*
X127220431Y-106801774D01*
X127250923Y-106820221D01*
X127266370Y-106823886D01*
X127308515Y-106811212D01*
X127344808Y-106779471D01*
X127362517Y-106744572D01*
X127379552Y-106718845D01*
X127412922Y-106689546D01*
X127452149Y-106664235D01*
X127486756Y-106650471D01*
X127493993Y-106649714D01*
X127502139Y-106662160D01*
X127502630Y-106693972D01*
X127496643Y-106736866D01*
X127485357Y-106782558D01*
X127469950Y-106822761D01*
X127469171Y-106824322D01*
X127422804Y-106889062D01*
X127362711Y-106933097D01*
X127294465Y-106954711D01*
X127223638Y-106952185D01*
X127155804Y-106923804D01*
X127152788Y-106921808D01*
X127099427Y-106873448D01*
X127064340Y-106810352D01*
X127044922Y-106727387D01*
X127042316Y-106704078D01*
X127037701Y-106594055D01*
X127043233Y-106542748D01*
X127182514Y-106542748D01*
X127184324Y-106574753D01*
X127194222Y-106584093D01*
X127218898Y-106577105D01*
X127257795Y-106560587D01*
X127301275Y-106539881D01*
X127302356Y-106539333D01*
X127339209Y-106519949D01*
X127354000Y-106507013D01*
X127350353Y-106493451D01*
X127334995Y-106475632D01*
X127295923Y-106449845D01*
X127253846Y-106447950D01*
X127216103Y-106466717D01*
X127190034Y-106502915D01*
X127182514Y-106542748D01*
X127043233Y-106542748D01*
X127047194Y-106506027D01*
X127071550Y-106436212D01*
X127105456Y-106387302D01*
X127166653Y-106337878D01*
X127234063Y-106313359D01*
X127302880Y-106311797D01*
X127368303Y-106331239D01*
G36*
X126241115Y-106321962D02*
X126309145Y-106357733D01*
X126359351Y-106415301D01*
X126377185Y-106452312D01*
X126391063Y-106507882D01*
X126398167Y-106578096D01*
X126398840Y-106654727D01*
X126393427Y-106729552D01*
X126382270Y-106794342D01*
X126365714Y-106840873D01*
X126360626Y-106848887D01*
X126300355Y-106908707D01*
X126228769Y-106944535D01*
X126151092Y-106955020D01*
X126072548Y-106938810D01*
X126050689Y-106929092D01*
X126008122Y-106899143D01*
X125970763Y-106859433D01*
X125967232Y-106854397D01*
X125952881Y-106830124D01*
X125943394Y-106804178D01*
X125937790Y-106770022D01*
X125935086Y-106721119D01*
X125934299Y-106650935D01*
X125934286Y-106635200D01*
X125934322Y-106630192D01*
X126079429Y-106630192D01*
X126080273Y-106696430D01*
X126083596Y-106740386D01*
X126090583Y-106768779D01*
X126102416Y-106788325D01*
X126108457Y-106794857D01*
X126143186Y-106819680D01*
X126176903Y-106818548D01*
X126210995Y-106797016D01*
X126231329Y-106774029D01*
X126243371Y-106740478D01*
X126250134Y-106687569D01*
X126250598Y-106681399D01*
X126251752Y-106585513D01*
X126239688Y-106514299D01*
X126214570Y-106468194D01*
X126176560Y-106447635D01*
X126162992Y-106446514D01*
X126127364Y-106452152D01*
X126102994Y-106471686D01*
X126088093Y-106509042D01*
X126080875Y-106568150D01*
X126079429Y-106630192D01*
X125934322Y-106630192D01*
X125934826Y-106560413D01*
X125937096Y-106508159D01*
X125942068Y-106471949D01*
X125950713Y-106445299D01*
X125964005Y-106421722D01*
X125966943Y-106417338D01*
X126016313Y-106358249D01*
X126070109Y-106323947D01*
X126135602Y-106310331D01*
X126157842Y-106309665D01*
X126241115Y-106321962D01*
X126241115Y-106321962D01*
G37*
X126241115Y-106321962D02*
X126309145Y-106357733D01*
X126359351Y-106415301D01*
X126377185Y-106452312D01*
X126391063Y-106507882D01*
X126398167Y-106578096D01*
X126398840Y-106654727D01*
X126393427Y-106729552D01*
X126382270Y-106794342D01*
X126365714Y-106840873D01*
X126360626Y-106848887D01*
X126300355Y-106908707D01*
X126228769Y-106944535D01*
X126151092Y-106955020D01*
X126072548Y-106938810D01*
X126050689Y-106929092D01*
X126008122Y-106899143D01*
X125970763Y-106859433D01*
X125967232Y-106854397D01*
X125952881Y-106830124D01*
X125943394Y-106804178D01*
X125937790Y-106770022D01*
X125935086Y-106721119D01*
X125934299Y-106650935D01*
X125934286Y-106635200D01*
X125934322Y-106630192D01*
X126079429Y-106630192D01*
X126080273Y-106696430D01*
X126083596Y-106740386D01*
X126090583Y-106768779D01*
X126102416Y-106788325D01*
X126108457Y-106794857D01*
X126143186Y-106819680D01*
X126176903Y-106818548D01*
X126210995Y-106797016D01*
X126231329Y-106774029D01*
X126243371Y-106740478D01*
X126250134Y-106687569D01*
X126250598Y-106681399D01*
X126251752Y-106585513D01*
X126239688Y-106514299D01*
X126214570Y-106468194D01*
X126176560Y-106447635D01*
X126162992Y-106446514D01*
X126127364Y-106452152D01*
X126102994Y-106471686D01*
X126088093Y-106509042D01*
X126080875Y-106568150D01*
X126079429Y-106630192D01*
X125934322Y-106630192D01*
X125934826Y-106560413D01*
X125937096Y-106508159D01*
X125942068Y-106471949D01*
X125950713Y-106445299D01*
X125964005Y-106421722D01*
X125966943Y-106417338D01*
X126016313Y-106358249D01*
X126070109Y-106323947D01*
X126135602Y-106310331D01*
X126157842Y-106309665D01*
X126241115Y-106321962D01*
G36*
X127916093Y-106327780D02*
X127962672Y-106354723D01*
X127995057Y-106381466D01*
X128018742Y-106409484D01*
X128035059Y-106443748D01*
X128045339Y-106489227D01*
X128050914Y-106550892D01*
X128053116Y-106633711D01*
X128053371Y-106693246D01*
X128053371Y-106912391D01*
X127991686Y-106940044D01*
X127930000Y-106967697D01*
X127922743Y-106727670D01*
X127919744Y-106638028D01*
X127916598Y-106572962D01*
X127912701Y-106528026D01*
X127907447Y-106498770D01*
X127900231Y-106480748D01*
X127890450Y-106469511D01*
X127887312Y-106467079D01*
X127839761Y-106448083D01*
X127791697Y-106455600D01*
X127763086Y-106475543D01*
X127751447Y-106489675D01*
X127743391Y-106508220D01*
X127738271Y-106536334D01*
X127735441Y-106579173D01*
X127734256Y-106641895D01*
X127734057Y-106707261D01*
X127734018Y-106789268D01*
X127732614Y-106847316D01*
X127727914Y-106886465D01*
X127717987Y-106911780D01*
X127700903Y-106928323D01*
X127674732Y-106941156D01*
X127639775Y-106954491D01*
X127601596Y-106969007D01*
X127606141Y-106711389D01*
X127607971Y-106618519D01*
X127610112Y-106549889D01*
X127613181Y-106500711D01*
X127617794Y-106466198D01*
X127624568Y-106441562D01*
X127634119Y-106422016D01*
X127645634Y-106404770D01*
X127701190Y-106349680D01*
X127768980Y-106317822D01*
X127842713Y-106310191D01*
X127916093Y-106327780D01*
X127916093Y-106327780D01*
G37*
X127916093Y-106327780D02*
X127962672Y-106354723D01*
X127995057Y-106381466D01*
X128018742Y-106409484D01*
X128035059Y-106443748D01*
X128045339Y-106489227D01*
X128050914Y-106550892D01*
X128053116Y-106633711D01*
X128053371Y-106693246D01*
X128053371Y-106912391D01*
X127991686Y-106940044D01*
X127930000Y-106967697D01*
X127922743Y-106727670D01*
X127919744Y-106638028D01*
X127916598Y-106572962D01*
X127912701Y-106528026D01*
X127907447Y-106498770D01*
X127900231Y-106480748D01*
X127890450Y-106469511D01*
X127887312Y-106467079D01*
X127839761Y-106448083D01*
X127791697Y-106455600D01*
X127763086Y-106475543D01*
X127751447Y-106489675D01*
X127743391Y-106508220D01*
X127738271Y-106536334D01*
X127735441Y-106579173D01*
X127734256Y-106641895D01*
X127734057Y-106707261D01*
X127734018Y-106789268D01*
X127732614Y-106847316D01*
X127727914Y-106886465D01*
X127717987Y-106911780D01*
X127700903Y-106928323D01*
X127674732Y-106941156D01*
X127639775Y-106954491D01*
X127601596Y-106969007D01*
X127606141Y-106711389D01*
X127607971Y-106618519D01*
X127610112Y-106549889D01*
X127613181Y-106500711D01*
X127617794Y-106466198D01*
X127624568Y-106441562D01*
X127634119Y-106422016D01*
X127645634Y-106404770D01*
X127701190Y-106349680D01*
X127768980Y-106317822D01*
X127842713Y-106310191D01*
X127916093Y-106327780D01*
G36*
X126799744Y-106319918D02*
X126855201Y-106347568D01*
X126904148Y-106398480D01*
X126917629Y-106417338D01*
X126932314Y-106442015D01*
X126941842Y-106468816D01*
X126947293Y-106504587D01*
X126949747Y-106556169D01*
X126950286Y-106624267D01*
X126947852Y-106717588D01*
X126939394Y-106787657D01*
X126923174Y-106839931D01*
X126897454Y-106879869D01*
X126860497Y-106912929D01*
X126857782Y-106914886D01*
X126821360Y-106934908D01*
X126777502Y-106944815D01*
X126721724Y-106947257D01*
X126631048Y-106947257D01*
X126631010Y-107035283D01*
X126630166Y-107084308D01*
X126625024Y-107113065D01*
X126611587Y-107130311D01*
X126585858Y-107144808D01*
X126579679Y-107147769D01*
X126550764Y-107161648D01*
X126528376Y-107170414D01*
X126511729Y-107171171D01*
X126500036Y-107161023D01*
X126492510Y-107137073D01*
X126488366Y-107096426D01*
X126486815Y-107036186D01*
X126487071Y-106953455D01*
X126488349Y-106845339D01*
X126488748Y-106813000D01*
X126490185Y-106701524D01*
X126491472Y-106628603D01*
X126630971Y-106628603D01*
X126631755Y-106690499D01*
X126635240Y-106730997D01*
X126643124Y-106757708D01*
X126657105Y-106778244D01*
X126666597Y-106788260D01*
X126705404Y-106817567D01*
X126739763Y-106819952D01*
X126775216Y-106795750D01*
X126776114Y-106794857D01*
X126790539Y-106776153D01*
X126799313Y-106750732D01*
X126803739Y-106711584D01*
X126805118Y-106651697D01*
X126805143Y-106638430D01*
X126801812Y-106555901D01*
X126790969Y-106498691D01*
X126771340Y-106463766D01*
X126741650Y-106448094D01*
X126724491Y-106446514D01*
X126683766Y-106453926D01*
X126655832Y-106478330D01*
X126639017Y-106522980D01*
X126631650Y-106591130D01*
X126630971Y-106628603D01*
X126491472Y-106628603D01*
X126491708Y-106615245D01*
X126493677Y-106550333D01*
X126496450Y-106502958D01*
X126500388Y-106469290D01*
X126505849Y-106445498D01*
X126513192Y-106427753D01*
X126522777Y-106412224D01*
X126526887Y-106406381D01*
X126581405Y-106351185D01*
X126650336Y-106319890D01*
X126730072Y-106311165D01*
X126799744Y-106319918D01*
X126799744Y-106319918D01*
G37*
X126799744Y-106319918D02*
X126855201Y-106347568D01*
X126904148Y-106398480D01*
X126917629Y-106417338D01*
X126932314Y-106442015D01*
X126941842Y-106468816D01*
X126947293Y-106504587D01*
X126949747Y-106556169D01*
X126950286Y-106624267D01*
X126947852Y-106717588D01*
X126939394Y-106787657D01*
X126923174Y-106839931D01*
X126897454Y-106879869D01*
X126860497Y-106912929D01*
X126857782Y-106914886D01*
X126821360Y-106934908D01*
X126777502Y-106944815D01*
X126721724Y-106947257D01*
X126631048Y-106947257D01*
X126631010Y-107035283D01*
X126630166Y-107084308D01*
X126625024Y-107113065D01*
X126611587Y-107130311D01*
X126585858Y-107144808D01*
X126579679Y-107147769D01*
X126550764Y-107161648D01*
X126528376Y-107170414D01*
X126511729Y-107171171D01*
X126500036Y-107161023D01*
X126492510Y-107137073D01*
X126488366Y-107096426D01*
X126486815Y-107036186D01*
X126487071Y-106953455D01*
X126488349Y-106845339D01*
X126488748Y-106813000D01*
X126490185Y-106701524D01*
X126491472Y-106628603D01*
X126630971Y-106628603D01*
X126631755Y-106690499D01*
X126635240Y-106730997D01*
X126643124Y-106757708D01*
X126657105Y-106778244D01*
X126666597Y-106788260D01*
X126705404Y-106817567D01*
X126739763Y-106819952D01*
X126775216Y-106795750D01*
X126776114Y-106794857D01*
X126790539Y-106776153D01*
X126799313Y-106750732D01*
X126803739Y-106711584D01*
X126805118Y-106651697D01*
X126805143Y-106638430D01*
X126801812Y-106555901D01*
X126790969Y-106498691D01*
X126771340Y-106463766D01*
X126741650Y-106448094D01*
X126724491Y-106446514D01*
X126683766Y-106453926D01*
X126655832Y-106478330D01*
X126639017Y-106522980D01*
X126631650Y-106591130D01*
X126630971Y-106628603D01*
X126491472Y-106628603D01*
X126491708Y-106615245D01*
X126493677Y-106550333D01*
X126496450Y-106502958D01*
X126500388Y-106469290D01*
X126505849Y-106445498D01*
X126513192Y-106427753D01*
X126522777Y-106412224D01*
X126526887Y-106406381D01*
X126581405Y-106351185D01*
X126650336Y-106319890D01*
X126730072Y-106311165D01*
X126799744Y-106319918D01*
D12*
G04 #@! TO.C,C1*
X144400000Y-119600000D02*
X144400000Y-118900000D01*
X145600000Y-118900000D02*
X145600000Y-119600000D01*
G04 #@! TO.C,C3*
X122980000Y-119500000D02*
X122980000Y-117500000D01*
X120020000Y-117500000D02*
X120020000Y-119500000D01*
G04 #@! TO.C,C2*
X114980000Y-119500000D02*
X114980000Y-117500000D01*
X112020000Y-117500000D02*
X112020000Y-119500000D01*
G04 #@! TO.C,D1*
X121000000Y-127000000D02*
X118900000Y-127000000D01*
X121000000Y-126000000D02*
X118900000Y-126000000D01*
X121000000Y-127000000D02*
X121000000Y-126000000D01*
G04 #@! TO.C,J1*
X120830000Y-92630000D02*
X118170000Y-92630000D01*
X120830000Y-95230000D02*
X120830000Y-92630000D01*
X118170000Y-95230000D02*
X118170000Y-92630000D01*
X120830000Y-95230000D02*
X118170000Y-95230000D01*
X120830000Y-96500000D02*
X120830000Y-97830000D01*
X120830000Y-97830000D02*
X119500000Y-97830000D01*
G04 #@! TO.C,J2*
X126330000Y-120870000D02*
X125000000Y-120870000D01*
X126330000Y-119540000D02*
X126330000Y-120870000D01*
X126330000Y-118270000D02*
X123670000Y-118270000D01*
X123670000Y-118270000D02*
X123670000Y-115670000D01*
X126330000Y-118270000D02*
X126330000Y-115670000D01*
X126330000Y-115670000D02*
X123670000Y-115670000D01*
G04 #@! TO.C,J3*
X104170000Y-120870000D02*
X106830000Y-120870000D01*
X104170000Y-118270000D02*
X104170000Y-120870000D01*
X106830000Y-118270000D02*
X106830000Y-120870000D01*
X104170000Y-118270000D02*
X106830000Y-118270000D01*
X104170000Y-117000000D02*
X104170000Y-115670000D01*
X104170000Y-115670000D02*
X105500000Y-115670000D01*
G04 #@! TO.C,J4*
X108670000Y-115727001D02*
X110000000Y-115727001D01*
X108670000Y-117057001D02*
X108670000Y-115727001D01*
X108670000Y-118327001D02*
X111330000Y-118327001D01*
X111330000Y-118327001D02*
X111330000Y-120927001D01*
X108670000Y-118327001D02*
X108670000Y-120927001D01*
X108670000Y-120927001D02*
X111330000Y-120927001D01*
G04 #@! TO.C,J5*
X104170000Y-124830000D02*
X104170000Y-123500000D01*
X105500000Y-124830000D02*
X104170000Y-124830000D01*
X106770000Y-124830000D02*
X106770000Y-122170000D01*
X106770000Y-122170000D02*
X109370000Y-122170000D01*
X106770000Y-124830000D02*
X109370000Y-124830000D01*
X109370000Y-124830000D02*
X109370000Y-122170000D01*
G04 #@! TO.C,J6*
X153070000Y-124930000D02*
X153070000Y-122270000D01*
X150470000Y-124930000D02*
X153070000Y-124930000D01*
X150470000Y-122270000D02*
X153070000Y-122270000D01*
X150470000Y-124930000D02*
X150470000Y-122270000D01*
X149200000Y-124930000D02*
X147870000Y-124930000D01*
X147870000Y-124930000D02*
X147870000Y-123600000D01*
G04 #@! TO.C,J7*
X126170000Y-124930000D02*
X126170000Y-123600000D01*
X127500000Y-124930000D02*
X126170000Y-124930000D01*
X128770000Y-124930000D02*
X128770000Y-122270000D01*
X128770000Y-122270000D02*
X131370000Y-122270000D01*
X128770000Y-124930000D02*
X131370000Y-124930000D01*
X131370000Y-124930000D02*
X131370000Y-122270000D01*
D13*
G04 #@! TO.C,J8*
X110250000Y-125900000D02*
X103250000Y-125900000D01*
X110250000Y-133500000D02*
X110250000Y-125900000D01*
X103250000Y-125900000D02*
X103250000Y-133500000D01*
X103250000Y-133100000D02*
X110250000Y-133100000D01*
X103250000Y-132000000D02*
X110250000Y-132000000D01*
X106750000Y-133100000D02*
X106750000Y-133500000D01*
G04 #@! TO.C,J9*
X150750000Y-133100000D02*
X150750000Y-133500000D01*
X147250000Y-132000000D02*
X154250000Y-132000000D01*
X147250000Y-133100000D02*
X154250000Y-133100000D01*
X147250000Y-125900000D02*
X147250000Y-133500000D01*
X154250000Y-133500000D02*
X154250000Y-125900000D01*
X154250000Y-125900000D02*
X147250000Y-125900000D01*
G04 #@! TO.C,J10*
X132250000Y-125900000D02*
X125250000Y-125900000D01*
X132250000Y-133500000D02*
X132250000Y-125900000D01*
X125250000Y-125900000D02*
X125250000Y-133500000D01*
X125250000Y-133100000D02*
X132250000Y-133100000D01*
X125250000Y-132000000D02*
X132250000Y-132000000D01*
X128750000Y-133100000D02*
X128750000Y-133500000D01*
D12*
G04 #@! TO.C,L2*
X119000000Y-116400000D02*
X116000000Y-116400000D01*
X119000000Y-119600000D02*
X116000000Y-119600000D01*
G04 #@! TO.C,R1*
X115800000Y-125720000D02*
X116800000Y-125720000D01*
X116800000Y-127080000D02*
X115800000Y-127080000D01*
G04 #@! TO.C,C4*
X144400000Y-122850000D02*
X144400000Y-122150000D01*
X145600000Y-122150000D02*
X145600000Y-122850000D01*
G04 #@! TO.C,U1*
X143100000Y-124410000D02*
X137090000Y-124410000D01*
X140850000Y-117590000D02*
X137090000Y-117590000D01*
X137090000Y-124410000D02*
X137090000Y-123150000D01*
X137090000Y-117590000D02*
X137090000Y-118850000D01*
D11*
G04 #@! TO.C,REF\002A\002A\002A*
G36*
X148599744Y-120519918D02*
X148655201Y-120547568D01*
X148704148Y-120598480D01*
X148717629Y-120617338D01*
X148732314Y-120642015D01*
X148741842Y-120668816D01*
X148747293Y-120704587D01*
X148749747Y-120756169D01*
X148750286Y-120824267D01*
X148747852Y-120917588D01*
X148739394Y-120987657D01*
X148723174Y-121039931D01*
X148697454Y-121079869D01*
X148660497Y-121112929D01*
X148657782Y-121114886D01*
X148621360Y-121134908D01*
X148577502Y-121144815D01*
X148521724Y-121147257D01*
X148431048Y-121147257D01*
X148431010Y-121235283D01*
X148430166Y-121284308D01*
X148425024Y-121313065D01*
X148411587Y-121330311D01*
X148385858Y-121344808D01*
X148379679Y-121347769D01*
X148350764Y-121361648D01*
X148328376Y-121370414D01*
X148311729Y-121371171D01*
X148300036Y-121361023D01*
X148292510Y-121337073D01*
X148288366Y-121296426D01*
X148286815Y-121236186D01*
X148287071Y-121153455D01*
X148288349Y-121045339D01*
X148288748Y-121013000D01*
X148290185Y-120901524D01*
X148291472Y-120828603D01*
X148430971Y-120828603D01*
X148431755Y-120890499D01*
X148435240Y-120930997D01*
X148443124Y-120957708D01*
X148457105Y-120978244D01*
X148466597Y-120988260D01*
X148505404Y-121017567D01*
X148539763Y-121019952D01*
X148575216Y-120995750D01*
X148576114Y-120994857D01*
X148590539Y-120976153D01*
X148599313Y-120950732D01*
X148603739Y-120911584D01*
X148605118Y-120851697D01*
X148605143Y-120838430D01*
X148601812Y-120755901D01*
X148590969Y-120698691D01*
X148571340Y-120663766D01*
X148541650Y-120648094D01*
X148524491Y-120646514D01*
X148483766Y-120653926D01*
X148455832Y-120678330D01*
X148439017Y-120722980D01*
X148431650Y-120791130D01*
X148430971Y-120828603D01*
X148291472Y-120828603D01*
X148291708Y-120815245D01*
X148293677Y-120750333D01*
X148296450Y-120702958D01*
X148300388Y-120669290D01*
X148305849Y-120645498D01*
X148313192Y-120627753D01*
X148322777Y-120612224D01*
X148326887Y-120606381D01*
X148381405Y-120551185D01*
X148450336Y-120519890D01*
X148530072Y-120511165D01*
X148599744Y-120519918D01*
X148599744Y-120519918D01*
G37*
X148599744Y-120519918D02*
X148655201Y-120547568D01*
X148704148Y-120598480D01*
X148717629Y-120617338D01*
X148732314Y-120642015D01*
X148741842Y-120668816D01*
X148747293Y-120704587D01*
X148749747Y-120756169D01*
X148750286Y-120824267D01*
X148747852Y-120917588D01*
X148739394Y-120987657D01*
X148723174Y-121039931D01*
X148697454Y-121079869D01*
X148660497Y-121112929D01*
X148657782Y-121114886D01*
X148621360Y-121134908D01*
X148577502Y-121144815D01*
X148521724Y-121147257D01*
X148431048Y-121147257D01*
X148431010Y-121235283D01*
X148430166Y-121284308D01*
X148425024Y-121313065D01*
X148411587Y-121330311D01*
X148385858Y-121344808D01*
X148379679Y-121347769D01*
X148350764Y-121361648D01*
X148328376Y-121370414D01*
X148311729Y-121371171D01*
X148300036Y-121361023D01*
X148292510Y-121337073D01*
X148288366Y-121296426D01*
X148286815Y-121236186D01*
X148287071Y-121153455D01*
X148288349Y-121045339D01*
X148288748Y-121013000D01*
X148290185Y-120901524D01*
X148291472Y-120828603D01*
X148430971Y-120828603D01*
X148431755Y-120890499D01*
X148435240Y-120930997D01*
X148443124Y-120957708D01*
X148457105Y-120978244D01*
X148466597Y-120988260D01*
X148505404Y-121017567D01*
X148539763Y-121019952D01*
X148575216Y-120995750D01*
X148576114Y-120994857D01*
X148590539Y-120976153D01*
X148599313Y-120950732D01*
X148603739Y-120911584D01*
X148605118Y-120851697D01*
X148605143Y-120838430D01*
X148601812Y-120755901D01*
X148590969Y-120698691D01*
X148571340Y-120663766D01*
X148541650Y-120648094D01*
X148524491Y-120646514D01*
X148483766Y-120653926D01*
X148455832Y-120678330D01*
X148439017Y-120722980D01*
X148431650Y-120791130D01*
X148430971Y-120828603D01*
X148291472Y-120828603D01*
X148291708Y-120815245D01*
X148293677Y-120750333D01*
X148296450Y-120702958D01*
X148300388Y-120669290D01*
X148305849Y-120645498D01*
X148313192Y-120627753D01*
X148322777Y-120612224D01*
X148326887Y-120606381D01*
X148381405Y-120551185D01*
X148450336Y-120519890D01*
X148530072Y-120511165D01*
X148599744Y-120519918D01*
G36*
X149716093Y-120527780D02*
X149762672Y-120554723D01*
X149795057Y-120581466D01*
X149818742Y-120609484D01*
X149835059Y-120643748D01*
X149845339Y-120689227D01*
X149850914Y-120750892D01*
X149853116Y-120833711D01*
X149853371Y-120893246D01*
X149853371Y-121112391D01*
X149791686Y-121140044D01*
X149730000Y-121167697D01*
X149722743Y-120927670D01*
X149719744Y-120838028D01*
X149716598Y-120772962D01*
X149712701Y-120728026D01*
X149707447Y-120698770D01*
X149700231Y-120680748D01*
X149690450Y-120669511D01*
X149687312Y-120667079D01*
X149639761Y-120648083D01*
X149591697Y-120655600D01*
X149563086Y-120675543D01*
X149551447Y-120689675D01*
X149543391Y-120708220D01*
X149538271Y-120736334D01*
X149535441Y-120779173D01*
X149534256Y-120841895D01*
X149534057Y-120907261D01*
X149534018Y-120989268D01*
X149532614Y-121047316D01*
X149527914Y-121086465D01*
X149517987Y-121111780D01*
X149500903Y-121128323D01*
X149474732Y-121141156D01*
X149439775Y-121154491D01*
X149401596Y-121169007D01*
X149406141Y-120911389D01*
X149407971Y-120818519D01*
X149410112Y-120749889D01*
X149413181Y-120700711D01*
X149417794Y-120666198D01*
X149424568Y-120641562D01*
X149434119Y-120622016D01*
X149445634Y-120604770D01*
X149501190Y-120549680D01*
X149568980Y-120517822D01*
X149642713Y-120510191D01*
X149716093Y-120527780D01*
X149716093Y-120527780D01*
G37*
X149716093Y-120527780D02*
X149762672Y-120554723D01*
X149795057Y-120581466D01*
X149818742Y-120609484D01*
X149835059Y-120643748D01*
X149845339Y-120689227D01*
X149850914Y-120750892D01*
X149853116Y-120833711D01*
X149853371Y-120893246D01*
X149853371Y-121112391D01*
X149791686Y-121140044D01*
X149730000Y-121167697D01*
X149722743Y-120927670D01*
X149719744Y-120838028D01*
X149716598Y-120772962D01*
X149712701Y-120728026D01*
X149707447Y-120698770D01*
X149700231Y-120680748D01*
X149690450Y-120669511D01*
X149687312Y-120667079D01*
X149639761Y-120648083D01*
X149591697Y-120655600D01*
X149563086Y-120675543D01*
X149551447Y-120689675D01*
X149543391Y-120708220D01*
X149538271Y-120736334D01*
X149535441Y-120779173D01*
X149534256Y-120841895D01*
X149534057Y-120907261D01*
X149534018Y-120989268D01*
X149532614Y-121047316D01*
X149527914Y-121086465D01*
X149517987Y-121111780D01*
X149500903Y-121128323D01*
X149474732Y-121141156D01*
X149439775Y-121154491D01*
X149401596Y-121169007D01*
X149406141Y-120911389D01*
X149407971Y-120818519D01*
X149410112Y-120749889D01*
X149413181Y-120700711D01*
X149417794Y-120666198D01*
X149424568Y-120641562D01*
X149434119Y-120622016D01*
X149445634Y-120604770D01*
X149501190Y-120549680D01*
X149568980Y-120517822D01*
X149642713Y-120510191D01*
X149716093Y-120527780D01*
G36*
X148041115Y-120521962D02*
X148109145Y-120557733D01*
X148159351Y-120615301D01*
X148177185Y-120652312D01*
X148191063Y-120707882D01*
X148198167Y-120778096D01*
X148198840Y-120854727D01*
X148193427Y-120929552D01*
X148182270Y-120994342D01*
X148165714Y-121040873D01*
X148160626Y-121048887D01*
X148100355Y-121108707D01*
X148028769Y-121144535D01*
X147951092Y-121155020D01*
X147872548Y-121138810D01*
X147850689Y-121129092D01*
X147808122Y-121099143D01*
X147770763Y-121059433D01*
X147767232Y-121054397D01*
X147752881Y-121030124D01*
X147743394Y-121004178D01*
X147737790Y-120970022D01*
X147735086Y-120921119D01*
X147734299Y-120850935D01*
X147734286Y-120835200D01*
X147734322Y-120830192D01*
X147879429Y-120830192D01*
X147880273Y-120896430D01*
X147883596Y-120940386D01*
X147890583Y-120968779D01*
X147902416Y-120988325D01*
X147908457Y-120994857D01*
X147943186Y-121019680D01*
X147976903Y-121018548D01*
X148010995Y-120997016D01*
X148031329Y-120974029D01*
X148043371Y-120940478D01*
X148050134Y-120887569D01*
X148050598Y-120881399D01*
X148051752Y-120785513D01*
X148039688Y-120714299D01*
X148014570Y-120668194D01*
X147976560Y-120647635D01*
X147962992Y-120646514D01*
X147927364Y-120652152D01*
X147902994Y-120671686D01*
X147888093Y-120709042D01*
X147880875Y-120768150D01*
X147879429Y-120830192D01*
X147734322Y-120830192D01*
X147734826Y-120760413D01*
X147737096Y-120708159D01*
X147742068Y-120671949D01*
X147750713Y-120645299D01*
X147764005Y-120621722D01*
X147766943Y-120617338D01*
X147816313Y-120558249D01*
X147870109Y-120523947D01*
X147935602Y-120510331D01*
X147957842Y-120509665D01*
X148041115Y-120521962D01*
X148041115Y-120521962D01*
G37*
X148041115Y-120521962D02*
X148109145Y-120557733D01*
X148159351Y-120615301D01*
X148177185Y-120652312D01*
X148191063Y-120707882D01*
X148198167Y-120778096D01*
X148198840Y-120854727D01*
X148193427Y-120929552D01*
X148182270Y-120994342D01*
X148165714Y-121040873D01*
X148160626Y-121048887D01*
X148100355Y-121108707D01*
X148028769Y-121144535D01*
X147951092Y-121155020D01*
X147872548Y-121138810D01*
X147850689Y-121129092D01*
X147808122Y-121099143D01*
X147770763Y-121059433D01*
X147767232Y-121054397D01*
X147752881Y-121030124D01*
X147743394Y-121004178D01*
X147737790Y-120970022D01*
X147735086Y-120921119D01*
X147734299Y-120850935D01*
X147734286Y-120835200D01*
X147734322Y-120830192D01*
X147879429Y-120830192D01*
X147880273Y-120896430D01*
X147883596Y-120940386D01*
X147890583Y-120968779D01*
X147902416Y-120988325D01*
X147908457Y-120994857D01*
X147943186Y-121019680D01*
X147976903Y-121018548D01*
X148010995Y-120997016D01*
X148031329Y-120974029D01*
X148043371Y-120940478D01*
X148050134Y-120887569D01*
X148050598Y-120881399D01*
X148051752Y-120785513D01*
X148039688Y-120714299D01*
X148014570Y-120668194D01*
X147976560Y-120647635D01*
X147962992Y-120646514D01*
X147927364Y-120652152D01*
X147902994Y-120671686D01*
X147888093Y-120709042D01*
X147880875Y-120768150D01*
X147879429Y-120830192D01*
X147734322Y-120830192D01*
X147734826Y-120760413D01*
X147737096Y-120708159D01*
X147742068Y-120671949D01*
X147750713Y-120645299D01*
X147764005Y-120621722D01*
X147766943Y-120617338D01*
X147816313Y-120558249D01*
X147870109Y-120523947D01*
X147935602Y-120510331D01*
X147957842Y-120509665D01*
X148041115Y-120521962D01*
G36*
X149168303Y-120531239D02*
X149225527Y-120569735D01*
X149269749Y-120625335D01*
X149296167Y-120696086D01*
X149301510Y-120748162D01*
X149300903Y-120769893D01*
X149295822Y-120786531D01*
X149281855Y-120801437D01*
X149254589Y-120817973D01*
X149209612Y-120839498D01*
X149142511Y-120869374D01*
X149142171Y-120869524D01*
X149080407Y-120897813D01*
X149029759Y-120922933D01*
X148995404Y-120942179D01*
X148982518Y-120952848D01*
X148982514Y-120952934D01*
X148993872Y-120976166D01*
X149020431Y-121001774D01*
X149050923Y-121020221D01*
X149066370Y-121023886D01*
X149108515Y-121011212D01*
X149144808Y-120979471D01*
X149162517Y-120944572D01*
X149179552Y-120918845D01*
X149212922Y-120889546D01*
X149252149Y-120864235D01*
X149286756Y-120850471D01*
X149293993Y-120849714D01*
X149302139Y-120862160D01*
X149302630Y-120893972D01*
X149296643Y-120936866D01*
X149285357Y-120982558D01*
X149269950Y-121022761D01*
X149269171Y-121024322D01*
X149222804Y-121089062D01*
X149162711Y-121133097D01*
X149094465Y-121154711D01*
X149023638Y-121152185D01*
X148955804Y-121123804D01*
X148952788Y-121121808D01*
X148899427Y-121073448D01*
X148864340Y-121010352D01*
X148844922Y-120927387D01*
X148842316Y-120904078D01*
X148837701Y-120794055D01*
X148843233Y-120742748D01*
X148982514Y-120742748D01*
X148984324Y-120774753D01*
X148994222Y-120784093D01*
X149018898Y-120777105D01*
X149057795Y-120760587D01*
X149101275Y-120739881D01*
X149102356Y-120739333D01*
X149139209Y-120719949D01*
X149154000Y-120707013D01*
X149150353Y-120693451D01*
X149134995Y-120675632D01*
X149095923Y-120649845D01*
X149053846Y-120647950D01*
X149016103Y-120666717D01*
X148990034Y-120702915D01*
X148982514Y-120742748D01*
X148843233Y-120742748D01*
X148847194Y-120706027D01*
X148871550Y-120636212D01*
X148905456Y-120587302D01*
X148966653Y-120537878D01*
X149034063Y-120513359D01*
X149102880Y-120511797D01*
X149168303Y-120531239D01*
X149168303Y-120531239D01*
G37*
X149168303Y-120531239D02*
X149225527Y-120569735D01*
X149269749Y-120625335D01*
X149296167Y-120696086D01*
X149301510Y-120748162D01*
X149300903Y-120769893D01*
X149295822Y-120786531D01*
X149281855Y-120801437D01*
X149254589Y-120817973D01*
X149209612Y-120839498D01*
X149142511Y-120869374D01*
X149142171Y-120869524D01*
X149080407Y-120897813D01*
X149029759Y-120922933D01*
X148995404Y-120942179D01*
X148982518Y-120952848D01*
X148982514Y-120952934D01*
X148993872Y-120976166D01*
X149020431Y-121001774D01*
X149050923Y-121020221D01*
X149066370Y-121023886D01*
X149108515Y-121011212D01*
X149144808Y-120979471D01*
X149162517Y-120944572D01*
X149179552Y-120918845D01*
X149212922Y-120889546D01*
X149252149Y-120864235D01*
X149286756Y-120850471D01*
X149293993Y-120849714D01*
X149302139Y-120862160D01*
X149302630Y-120893972D01*
X149296643Y-120936866D01*
X149285357Y-120982558D01*
X149269950Y-121022761D01*
X149269171Y-121024322D01*
X149222804Y-121089062D01*
X149162711Y-121133097D01*
X149094465Y-121154711D01*
X149023638Y-121152185D01*
X148955804Y-121123804D01*
X148952788Y-121121808D01*
X148899427Y-121073448D01*
X148864340Y-121010352D01*
X148844922Y-120927387D01*
X148842316Y-120904078D01*
X148837701Y-120794055D01*
X148843233Y-120742748D01*
X148982514Y-120742748D01*
X148984324Y-120774753D01*
X148994222Y-120784093D01*
X149018898Y-120777105D01*
X149057795Y-120760587D01*
X149101275Y-120739881D01*
X149102356Y-120739333D01*
X149139209Y-120719949D01*
X149154000Y-120707013D01*
X149150353Y-120693451D01*
X149134995Y-120675632D01*
X149095923Y-120649845D01*
X149053846Y-120647950D01*
X149016103Y-120666717D01*
X148990034Y-120702915D01*
X148982514Y-120742748D01*
X148843233Y-120742748D01*
X148847194Y-120706027D01*
X148871550Y-120636212D01*
X148905456Y-120587302D01*
X148966653Y-120537878D01*
X149034063Y-120513359D01*
X149102880Y-120511797D01*
X149168303Y-120531239D01*
G36*
X150375886Y-120451289D02*
X150380139Y-120510613D01*
X150385025Y-120545572D01*
X150391795Y-120560820D01*
X150401702Y-120561015D01*
X150404914Y-120559195D01*
X150447644Y-120546015D01*
X150503227Y-120546785D01*
X150559737Y-120560333D01*
X150595082Y-120577861D01*
X150631321Y-120605861D01*
X150657813Y-120637549D01*
X150675999Y-120677813D01*
X150687322Y-120731543D01*
X150693222Y-120803626D01*
X150695143Y-120898951D01*
X150695177Y-120917237D01*
X150695200Y-121122646D01*
X150649491Y-121138580D01*
X150617027Y-121149420D01*
X150599215Y-121154468D01*
X150598691Y-121154514D01*
X150596937Y-121140828D01*
X150595444Y-121103076D01*
X150594326Y-121046224D01*
X150593697Y-120975234D01*
X150593600Y-120932073D01*
X150593398Y-120846973D01*
X150592358Y-120785981D01*
X150589831Y-120744177D01*
X150585164Y-120716642D01*
X150577707Y-120698456D01*
X150566811Y-120684698D01*
X150560007Y-120678073D01*
X150513272Y-120651375D01*
X150462272Y-120649375D01*
X150416001Y-120671955D01*
X150407444Y-120680107D01*
X150394893Y-120695436D01*
X150386188Y-120713618D01*
X150380631Y-120739909D01*
X150377526Y-120779562D01*
X150376176Y-120837832D01*
X150375886Y-120918173D01*
X150375886Y-121122646D01*
X150330177Y-121138580D01*
X150297713Y-121149420D01*
X150279901Y-121154468D01*
X150279377Y-121154514D01*
X150278037Y-121140623D01*
X150276828Y-121101439D01*
X150275801Y-121040700D01*
X150275002Y-120962141D01*
X150274481Y-120869498D01*
X150274286Y-120766509D01*
X150274286Y-120369342D01*
X150321457Y-120349444D01*
X150368629Y-120329547D01*
X150375886Y-120451289D01*
X150375886Y-120451289D01*
G37*
X150375886Y-120451289D02*
X150380139Y-120510613D01*
X150385025Y-120545572D01*
X150391795Y-120560820D01*
X150401702Y-120561015D01*
X150404914Y-120559195D01*
X150447644Y-120546015D01*
X150503227Y-120546785D01*
X150559737Y-120560333D01*
X150595082Y-120577861D01*
X150631321Y-120605861D01*
X150657813Y-120637549D01*
X150675999Y-120677813D01*
X150687322Y-120731543D01*
X150693222Y-120803626D01*
X150695143Y-120898951D01*
X150695177Y-120917237D01*
X150695200Y-121122646D01*
X150649491Y-121138580D01*
X150617027Y-121149420D01*
X150599215Y-121154468D01*
X150598691Y-121154514D01*
X150596937Y-121140828D01*
X150595444Y-121103076D01*
X150594326Y-121046224D01*
X150593697Y-120975234D01*
X150593600Y-120932073D01*
X150593398Y-120846973D01*
X150592358Y-120785981D01*
X150589831Y-120744177D01*
X150585164Y-120716642D01*
X150577707Y-120698456D01*
X150566811Y-120684698D01*
X150560007Y-120678073D01*
X150513272Y-120651375D01*
X150462272Y-120649375D01*
X150416001Y-120671955D01*
X150407444Y-120680107D01*
X150394893Y-120695436D01*
X150386188Y-120713618D01*
X150380631Y-120739909D01*
X150377526Y-120779562D01*
X150376176Y-120837832D01*
X150375886Y-120918173D01*
X150375886Y-121122646D01*
X150330177Y-121138580D01*
X150297713Y-121149420D01*
X150279901Y-121154468D01*
X150279377Y-121154514D01*
X150278037Y-121140623D01*
X150276828Y-121101439D01*
X150275801Y-121040700D01*
X150275002Y-120962141D01*
X150274481Y-120869498D01*
X150274286Y-120766509D01*
X150274286Y-120369342D01*
X150321457Y-120349444D01*
X150368629Y-120329547D01*
X150375886Y-120451289D01*
G36*
X151039744Y-120550968D02*
X151096616Y-120572087D01*
X151097267Y-120572493D01*
X151132440Y-120598380D01*
X151158407Y-120628633D01*
X151176670Y-120668058D01*
X151188732Y-120721462D01*
X151196096Y-120793651D01*
X151200264Y-120889432D01*
X151200629Y-120903078D01*
X151205876Y-121108842D01*
X151161716Y-121131678D01*
X151129763Y-121147110D01*
X151110470Y-121154423D01*
X151109578Y-121154514D01*
X151106239Y-121141022D01*
X151103587Y-121104626D01*
X151101956Y-121051452D01*
X151101600Y-121008393D01*
X151101592Y-120938641D01*
X151098403Y-120894837D01*
X151087288Y-120873944D01*
X151063501Y-120872925D01*
X151022296Y-120888741D01*
X150960086Y-120917815D01*
X150914341Y-120941963D01*
X150890813Y-120962913D01*
X150883896Y-120985747D01*
X150883886Y-120986877D01*
X150895299Y-121026212D01*
X150929092Y-121047462D01*
X150980809Y-121050539D01*
X151018061Y-121050006D01*
X151037703Y-121060735D01*
X151049952Y-121086505D01*
X151057002Y-121119337D01*
X151046842Y-121137966D01*
X151043017Y-121140632D01*
X151007001Y-121151340D01*
X150956566Y-121152856D01*
X150904626Y-121145759D01*
X150867822Y-121132788D01*
X150816938Y-121089585D01*
X150788014Y-121029446D01*
X150782286Y-120982462D01*
X150786657Y-120940082D01*
X150802475Y-120905488D01*
X150833797Y-120874763D01*
X150884678Y-120843990D01*
X150959176Y-120809252D01*
X150963714Y-120807288D01*
X151030821Y-120776287D01*
X151072232Y-120750862D01*
X151089981Y-120728014D01*
X151086107Y-120704745D01*
X151062643Y-120678056D01*
X151055627Y-120671914D01*
X151008630Y-120648100D01*
X150959933Y-120649103D01*
X150917522Y-120672451D01*
X150889384Y-120715675D01*
X150886769Y-120724160D01*
X150861308Y-120765308D01*
X150829001Y-120785128D01*
X150782286Y-120804770D01*
X150782286Y-120753950D01*
X150796496Y-120680082D01*
X150838675Y-120612327D01*
X150860624Y-120589661D01*
X150910517Y-120560569D01*
X150973967Y-120547400D01*
X151039744Y-120550968D01*
X151039744Y-120550968D01*
G37*
X151039744Y-120550968D02*
X151096616Y-120572087D01*
X151097267Y-120572493D01*
X151132440Y-120598380D01*
X151158407Y-120628633D01*
X151176670Y-120668058D01*
X151188732Y-120721462D01*
X151196096Y-120793651D01*
X151200264Y-120889432D01*
X151200629Y-120903078D01*
X151205876Y-121108842D01*
X151161716Y-121131678D01*
X151129763Y-121147110D01*
X151110470Y-121154423D01*
X151109578Y-121154514D01*
X151106239Y-121141022D01*
X151103587Y-121104626D01*
X151101956Y-121051452D01*
X151101600Y-121008393D01*
X151101592Y-120938641D01*
X151098403Y-120894837D01*
X151087288Y-120873944D01*
X151063501Y-120872925D01*
X151022296Y-120888741D01*
X150960086Y-120917815D01*
X150914341Y-120941963D01*
X150890813Y-120962913D01*
X150883896Y-120985747D01*
X150883886Y-120986877D01*
X150895299Y-121026212D01*
X150929092Y-121047462D01*
X150980809Y-121050539D01*
X151018061Y-121050006D01*
X151037703Y-121060735D01*
X151049952Y-121086505D01*
X151057002Y-121119337D01*
X151046842Y-121137966D01*
X151043017Y-121140632D01*
X151007001Y-121151340D01*
X150956566Y-121152856D01*
X150904626Y-121145759D01*
X150867822Y-121132788D01*
X150816938Y-121089585D01*
X150788014Y-121029446D01*
X150782286Y-120982462D01*
X150786657Y-120940082D01*
X150802475Y-120905488D01*
X150833797Y-120874763D01*
X150884678Y-120843990D01*
X150959176Y-120809252D01*
X150963714Y-120807288D01*
X151030821Y-120776287D01*
X151072232Y-120750862D01*
X151089981Y-120728014D01*
X151086107Y-120704745D01*
X151062643Y-120678056D01*
X151055627Y-120671914D01*
X151008630Y-120648100D01*
X150959933Y-120649103D01*
X150917522Y-120672451D01*
X150889384Y-120715675D01*
X150886769Y-120724160D01*
X150861308Y-120765308D01*
X150829001Y-120785128D01*
X150782286Y-120804770D01*
X150782286Y-120753950D01*
X150796496Y-120680082D01*
X150838675Y-120612327D01*
X150860624Y-120589661D01*
X150910517Y-120560569D01*
X150973967Y-120547400D01*
X151039744Y-120550968D01*
G36*
X151529926Y-120549755D02*
X151595858Y-120574084D01*
X151649273Y-120617117D01*
X151670164Y-120647409D01*
X151692939Y-120702994D01*
X151692466Y-120743186D01*
X151668562Y-120770217D01*
X151659717Y-120774813D01*
X151621530Y-120789144D01*
X151602028Y-120785472D01*
X151595422Y-120761407D01*
X151595086Y-120748114D01*
X151582992Y-120699210D01*
X151551471Y-120664999D01*
X151507659Y-120648476D01*
X151458695Y-120652634D01*
X151418894Y-120674227D01*
X151405450Y-120686544D01*
X151395921Y-120701487D01*
X151389485Y-120724075D01*
X151385317Y-120759328D01*
X151382597Y-120812266D01*
X151380502Y-120887907D01*
X151379960Y-120911857D01*
X151377981Y-120993790D01*
X151375731Y-121051455D01*
X151372357Y-121089608D01*
X151367006Y-121113004D01*
X151358824Y-121126398D01*
X151346959Y-121134545D01*
X151339362Y-121138144D01*
X151307102Y-121150452D01*
X151288111Y-121154514D01*
X151281836Y-121140948D01*
X151278006Y-121099934D01*
X151276600Y-121030999D01*
X151277598Y-120933669D01*
X151277908Y-120918657D01*
X151280101Y-120829859D01*
X151282693Y-120765019D01*
X151286382Y-120719067D01*
X151291864Y-120686935D01*
X151299835Y-120663553D01*
X151310993Y-120643852D01*
X151316830Y-120635410D01*
X151350296Y-120598057D01*
X151387727Y-120569003D01*
X151392309Y-120566467D01*
X151459426Y-120546443D01*
X151529926Y-120549755D01*
X151529926Y-120549755D01*
G37*
X151529926Y-120549755D02*
X151595858Y-120574084D01*
X151649273Y-120617117D01*
X151670164Y-120647409D01*
X151692939Y-120702994D01*
X151692466Y-120743186D01*
X151668562Y-120770217D01*
X151659717Y-120774813D01*
X151621530Y-120789144D01*
X151602028Y-120785472D01*
X151595422Y-120761407D01*
X151595086Y-120748114D01*
X151582992Y-120699210D01*
X151551471Y-120664999D01*
X151507659Y-120648476D01*
X151458695Y-120652634D01*
X151418894Y-120674227D01*
X151405450Y-120686544D01*
X151395921Y-120701487D01*
X151389485Y-120724075D01*
X151385317Y-120759328D01*
X151382597Y-120812266D01*
X151380502Y-120887907D01*
X151379960Y-120911857D01*
X151377981Y-120993790D01*
X151375731Y-121051455D01*
X151372357Y-121089608D01*
X151367006Y-121113004D01*
X151358824Y-121126398D01*
X151346959Y-121134545D01*
X151339362Y-121138144D01*
X151307102Y-121150452D01*
X151288111Y-121154514D01*
X151281836Y-121140948D01*
X151278006Y-121099934D01*
X151276600Y-121030999D01*
X151277598Y-120933669D01*
X151277908Y-120918657D01*
X151280101Y-120829859D01*
X151282693Y-120765019D01*
X151286382Y-120719067D01*
X151291864Y-120686935D01*
X151299835Y-120663553D01*
X151310993Y-120643852D01*
X151316830Y-120635410D01*
X151350296Y-120598057D01*
X151387727Y-120569003D01*
X151392309Y-120566467D01*
X151459426Y-120546443D01*
X151529926Y-120549755D01*
G36*
X152190117Y-120665358D02*
X152189933Y-120773837D01*
X152189219Y-120857287D01*
X152187675Y-120919704D01*
X152185001Y-120965085D01*
X152180894Y-120997429D01*
X152175055Y-121020733D01*
X152167182Y-121038995D01*
X152161221Y-121049418D01*
X152111855Y-121105945D01*
X152049264Y-121141377D01*
X151980013Y-121154090D01*
X151910668Y-121142463D01*
X151869375Y-121121568D01*
X151826025Y-121085422D01*
X151796481Y-121041276D01*
X151778655Y-120983462D01*
X151770463Y-120906313D01*
X151769302Y-120849714D01*
X151769458Y-120845647D01*
X151870857Y-120845647D01*
X151871476Y-120910550D01*
X151874314Y-120953514D01*
X151880840Y-120981622D01*
X151892523Y-121001953D01*
X151906483Y-121017288D01*
X151953365Y-121046890D01*
X152003701Y-121049419D01*
X152051276Y-121024705D01*
X152054979Y-121021356D01*
X152070783Y-121003935D01*
X152080693Y-120983209D01*
X152086058Y-120952362D01*
X152088228Y-120904577D01*
X152088571Y-120851748D01*
X152087827Y-120785381D01*
X152084748Y-120741106D01*
X152078061Y-120712009D01*
X152066496Y-120691173D01*
X152057013Y-120680107D01*
X152012960Y-120652198D01*
X151962224Y-120648843D01*
X151913796Y-120670159D01*
X151904450Y-120678073D01*
X151888540Y-120695647D01*
X151878610Y-120716587D01*
X151873278Y-120747782D01*
X151871163Y-120796122D01*
X151870857Y-120845647D01*
X151769458Y-120845647D01*
X151772810Y-120758568D01*
X151784726Y-120690086D01*
X151807135Y-120638600D01*
X151842124Y-120598443D01*
X151869375Y-120577861D01*
X151918907Y-120555625D01*
X151976316Y-120545304D01*
X152029682Y-120548067D01*
X152059543Y-120559212D01*
X152071261Y-120562383D01*
X152079037Y-120550557D01*
X152084465Y-120518866D01*
X152088571Y-120470593D01*
X152093067Y-120416829D01*
X152099313Y-120384482D01*
X152110676Y-120365985D01*
X152130528Y-120353770D01*
X152143000Y-120348362D01*
X152190171Y-120328601D01*
X152190117Y-120665358D01*
X152190117Y-120665358D01*
G37*
X152190117Y-120665358D02*
X152189933Y-120773837D01*
X152189219Y-120857287D01*
X152187675Y-120919704D01*
X152185001Y-120965085D01*
X152180894Y-120997429D01*
X152175055Y-121020733D01*
X152167182Y-121038995D01*
X152161221Y-121049418D01*
X152111855Y-121105945D01*
X152049264Y-121141377D01*
X151980013Y-121154090D01*
X151910668Y-121142463D01*
X151869375Y-121121568D01*
X151826025Y-121085422D01*
X151796481Y-121041276D01*
X151778655Y-120983462D01*
X151770463Y-120906313D01*
X151769302Y-120849714D01*
X151769458Y-120845647D01*
X151870857Y-120845647D01*
X151871476Y-120910550D01*
X151874314Y-120953514D01*
X151880840Y-120981622D01*
X151892523Y-121001953D01*
X151906483Y-121017288D01*
X151953365Y-121046890D01*
X152003701Y-121049419D01*
X152051276Y-121024705D01*
X152054979Y-121021356D01*
X152070783Y-121003935D01*
X152080693Y-120983209D01*
X152086058Y-120952362D01*
X152088228Y-120904577D01*
X152088571Y-120851748D01*
X152087827Y-120785381D01*
X152084748Y-120741106D01*
X152078061Y-120712009D01*
X152066496Y-120691173D01*
X152057013Y-120680107D01*
X152012960Y-120652198D01*
X151962224Y-120648843D01*
X151913796Y-120670159D01*
X151904450Y-120678073D01*
X151888540Y-120695647D01*
X151878610Y-120716587D01*
X151873278Y-120747782D01*
X151871163Y-120796122D01*
X151870857Y-120845647D01*
X151769458Y-120845647D01*
X151772810Y-120758568D01*
X151784726Y-120690086D01*
X151807135Y-120638600D01*
X151842124Y-120598443D01*
X151869375Y-120577861D01*
X151918907Y-120555625D01*
X151976316Y-120545304D01*
X152029682Y-120548067D01*
X152059543Y-120559212D01*
X152071261Y-120562383D01*
X152079037Y-120550557D01*
X152084465Y-120518866D01*
X152088571Y-120470593D01*
X152093067Y-120416829D01*
X152099313Y-120384482D01*
X152110676Y-120365985D01*
X152130528Y-120353770D01*
X152143000Y-120348362D01*
X152190171Y-120328601D01*
X152190117Y-120665358D01*
G36*
X152779833Y-120558663D02*
X152782048Y-120596850D01*
X152783784Y-120654886D01*
X152784899Y-120728180D01*
X152785257Y-120805055D01*
X152785257Y-121065196D01*
X152739326Y-121111127D01*
X152707675Y-121139429D01*
X152679890Y-121150893D01*
X152641915Y-121150168D01*
X152626840Y-121148321D01*
X152579726Y-121142948D01*
X152540756Y-121139869D01*
X152531257Y-121139585D01*
X152499233Y-121141445D01*
X152453432Y-121146114D01*
X152435674Y-121148321D01*
X152392057Y-121151735D01*
X152362745Y-121144320D01*
X152333680Y-121121427D01*
X152323188Y-121111127D01*
X152277257Y-121065196D01*
X152277257Y-120578602D01*
X152314226Y-120561758D01*
X152346059Y-120549282D01*
X152364683Y-120544914D01*
X152369458Y-120558718D01*
X152373921Y-120597286D01*
X152377775Y-120656356D01*
X152380722Y-120731663D01*
X152382143Y-120795286D01*
X152386114Y-121045657D01*
X152420759Y-121050556D01*
X152452268Y-121047131D01*
X152467708Y-121036041D01*
X152472023Y-121015308D01*
X152475708Y-120971145D01*
X152478469Y-120909146D01*
X152480012Y-120834909D01*
X152480235Y-120796706D01*
X152480457Y-120576783D01*
X152526166Y-120560849D01*
X152558518Y-120550015D01*
X152576115Y-120544962D01*
X152576623Y-120544914D01*
X152578388Y-120558648D01*
X152580329Y-120596730D01*
X152582282Y-120654482D01*
X152584084Y-120727227D01*
X152585343Y-120795286D01*
X152589314Y-121045657D01*
X152676400Y-121045657D01*
X152680396Y-120817240D01*
X152684392Y-120588822D01*
X152726847Y-120566868D01*
X152758192Y-120551793D01*
X152776744Y-120544951D01*
X152777279Y-120544914D01*
X152779833Y-120558663D01*
X152779833Y-120558663D01*
G37*
X152779833Y-120558663D02*
X152782048Y-120596850D01*
X152783784Y-120654886D01*
X152784899Y-120728180D01*
X152785257Y-120805055D01*
X152785257Y-121065196D01*
X152739326Y-121111127D01*
X152707675Y-121139429D01*
X152679890Y-121150893D01*
X152641915Y-121150168D01*
X152626840Y-121148321D01*
X152579726Y-121142948D01*
X152540756Y-121139869D01*
X152531257Y-121139585D01*
X152499233Y-121141445D01*
X152453432Y-121146114D01*
X152435674Y-121148321D01*
X152392057Y-121151735D01*
X152362745Y-121144320D01*
X152333680Y-121121427D01*
X152323188Y-121111127D01*
X152277257Y-121065196D01*
X152277257Y-120578602D01*
X152314226Y-120561758D01*
X152346059Y-120549282D01*
X152364683Y-120544914D01*
X152369458Y-120558718D01*
X152373921Y-120597286D01*
X152377775Y-120656356D01*
X152380722Y-120731663D01*
X152382143Y-120795286D01*
X152386114Y-121045657D01*
X152420759Y-121050556D01*
X152452268Y-121047131D01*
X152467708Y-121036041D01*
X152472023Y-121015308D01*
X152475708Y-120971145D01*
X152478469Y-120909146D01*
X152480012Y-120834909D01*
X152480235Y-120796706D01*
X152480457Y-120576783D01*
X152526166Y-120560849D01*
X152558518Y-120550015D01*
X152576115Y-120544962D01*
X152576623Y-120544914D01*
X152578388Y-120558648D01*
X152580329Y-120596730D01*
X152582282Y-120654482D01*
X152584084Y-120727227D01*
X152585343Y-120795286D01*
X152589314Y-121045657D01*
X152676400Y-121045657D01*
X152680396Y-120817240D01*
X152684392Y-120588822D01*
X152726847Y-120566868D01*
X152758192Y-120551793D01*
X152776744Y-120544951D01*
X152777279Y-120544914D01*
X152779833Y-120558663D01*
G36*
X153144876Y-120556335D02*
X153186667Y-120575344D01*
X153219469Y-120598378D01*
X153243503Y-120624133D01*
X153260097Y-120657358D01*
X153270577Y-120702800D01*
X153276271Y-120765207D01*
X153278507Y-120849327D01*
X153278743Y-120904721D01*
X153278743Y-121120826D01*
X153241774Y-121137670D01*
X153212656Y-121149981D01*
X153198231Y-121154514D01*
X153195472Y-121141025D01*
X153193282Y-121104653D01*
X153191942Y-121051542D01*
X153191657Y-121009372D01*
X153190434Y-120948447D01*
X153187136Y-120900115D01*
X153182321Y-120870518D01*
X153178496Y-120864229D01*
X153152783Y-120870652D01*
X153112418Y-120887125D01*
X153065679Y-120909458D01*
X153020845Y-120933457D01*
X152986193Y-120954930D01*
X152970002Y-120969685D01*
X152969938Y-120969845D01*
X152971330Y-120997152D01*
X152983818Y-121023219D01*
X153005743Y-121044392D01*
X153037743Y-121051474D01*
X153065092Y-121050649D01*
X153103826Y-121050042D01*
X153124158Y-121059116D01*
X153136369Y-121083092D01*
X153137909Y-121087613D01*
X153143203Y-121121806D01*
X153129047Y-121142568D01*
X153092148Y-121152462D01*
X153052289Y-121154292D01*
X152980562Y-121140727D01*
X152943432Y-121121355D01*
X152897576Y-121075845D01*
X152873256Y-121019983D01*
X152871073Y-120960957D01*
X152891629Y-120905953D01*
X152922549Y-120871486D01*
X152953420Y-120852189D01*
X153001942Y-120827759D01*
X153058485Y-120802985D01*
X153067910Y-120799199D01*
X153130019Y-120771791D01*
X153165822Y-120747634D01*
X153177337Y-120723619D01*
X153166580Y-120696635D01*
X153148114Y-120675543D01*
X153104469Y-120649572D01*
X153056446Y-120647624D01*
X153012406Y-120667637D01*
X152980709Y-120707551D01*
X152976549Y-120717848D01*
X152952327Y-120755724D01*
X152916965Y-120783842D01*
X152872343Y-120806917D01*
X152872343Y-120741485D01*
X152874969Y-120701506D01*
X152886230Y-120669997D01*
X152911199Y-120636378D01*
X152935169Y-120610484D01*
X152972441Y-120573817D01*
X153001401Y-120554121D01*
X153032505Y-120546220D01*
X153067713Y-120544914D01*
X153144876Y-120556335D01*
X153144876Y-120556335D01*
G37*
X153144876Y-120556335D02*
X153186667Y-120575344D01*
X153219469Y-120598378D01*
X153243503Y-120624133D01*
X153260097Y-120657358D01*
X153270577Y-120702800D01*
X153276271Y-120765207D01*
X153278507Y-120849327D01*
X153278743Y-120904721D01*
X153278743Y-121120826D01*
X153241774Y-121137670D01*
X153212656Y-121149981D01*
X153198231Y-121154514D01*
X153195472Y-121141025D01*
X153193282Y-121104653D01*
X153191942Y-121051542D01*
X153191657Y-121009372D01*
X153190434Y-120948447D01*
X153187136Y-120900115D01*
X153182321Y-120870518D01*
X153178496Y-120864229D01*
X153152783Y-120870652D01*
X153112418Y-120887125D01*
X153065679Y-120909458D01*
X153020845Y-120933457D01*
X152986193Y-120954930D01*
X152970002Y-120969685D01*
X152969938Y-120969845D01*
X152971330Y-120997152D01*
X152983818Y-121023219D01*
X153005743Y-121044392D01*
X153037743Y-121051474D01*
X153065092Y-121050649D01*
X153103826Y-121050042D01*
X153124158Y-121059116D01*
X153136369Y-121083092D01*
X153137909Y-121087613D01*
X153143203Y-121121806D01*
X153129047Y-121142568D01*
X153092148Y-121152462D01*
X153052289Y-121154292D01*
X152980562Y-121140727D01*
X152943432Y-121121355D01*
X152897576Y-121075845D01*
X152873256Y-121019983D01*
X152871073Y-120960957D01*
X152891629Y-120905953D01*
X152922549Y-120871486D01*
X152953420Y-120852189D01*
X153001942Y-120827759D01*
X153058485Y-120802985D01*
X153067910Y-120799199D01*
X153130019Y-120771791D01*
X153165822Y-120747634D01*
X153177337Y-120723619D01*
X153166580Y-120696635D01*
X153148114Y-120675543D01*
X153104469Y-120649572D01*
X153056446Y-120647624D01*
X153012406Y-120667637D01*
X152980709Y-120707551D01*
X152976549Y-120717848D01*
X152952327Y-120755724D01*
X152916965Y-120783842D01*
X152872343Y-120806917D01*
X152872343Y-120741485D01*
X152874969Y-120701506D01*
X152886230Y-120669997D01*
X152911199Y-120636378D01*
X152935169Y-120610484D01*
X152972441Y-120573817D01*
X153001401Y-120554121D01*
X153032505Y-120546220D01*
X153067713Y-120544914D01*
X153144876Y-120556335D01*
G36*
X153652600Y-120558752D02*
X153669948Y-120566334D01*
X153711356Y-120599128D01*
X153746765Y-120646547D01*
X153768664Y-120697151D01*
X153772229Y-120722098D01*
X153760279Y-120756927D01*
X153734067Y-120775357D01*
X153705964Y-120786516D01*
X153693095Y-120788572D01*
X153686829Y-120773649D01*
X153674456Y-120741175D01*
X153669028Y-120726502D01*
X153638590Y-120675744D01*
X153594520Y-120650427D01*
X153538010Y-120651206D01*
X153533825Y-120652203D01*
X153503655Y-120666507D01*
X153481476Y-120694393D01*
X153466327Y-120739287D01*
X153457250Y-120804615D01*
X153453286Y-120893804D01*
X153452914Y-120941261D01*
X153452730Y-121016071D01*
X153451522Y-121067069D01*
X153448309Y-121099471D01*
X153442109Y-121118495D01*
X153431940Y-121129356D01*
X153416819Y-121137272D01*
X153415946Y-121137670D01*
X153386828Y-121149981D01*
X153372403Y-121154514D01*
X153370186Y-121140809D01*
X153368289Y-121102925D01*
X153366847Y-121045715D01*
X153365998Y-120974027D01*
X153365829Y-120921565D01*
X153366692Y-120820047D01*
X153370070Y-120743032D01*
X153377142Y-120686023D01*
X153389088Y-120644526D01*
X153407090Y-120614043D01*
X153432327Y-120590080D01*
X153457247Y-120573355D01*
X153517171Y-120551097D01*
X153586911Y-120546076D01*
X153652600Y-120558752D01*
X153652600Y-120558752D01*
G37*
X153652600Y-120558752D02*
X153669948Y-120566334D01*
X153711356Y-120599128D01*
X153746765Y-120646547D01*
X153768664Y-120697151D01*
X153772229Y-120722098D01*
X153760279Y-120756927D01*
X153734067Y-120775357D01*
X153705964Y-120786516D01*
X153693095Y-120788572D01*
X153686829Y-120773649D01*
X153674456Y-120741175D01*
X153669028Y-120726502D01*
X153638590Y-120675744D01*
X153594520Y-120650427D01*
X153538010Y-120651206D01*
X153533825Y-120652203D01*
X153503655Y-120666507D01*
X153481476Y-120694393D01*
X153466327Y-120739287D01*
X153457250Y-120804615D01*
X153453286Y-120893804D01*
X153452914Y-120941261D01*
X153452730Y-121016071D01*
X153451522Y-121067069D01*
X153448309Y-121099471D01*
X153442109Y-121118495D01*
X153431940Y-121129356D01*
X153416819Y-121137272D01*
X153415946Y-121137670D01*
X153386828Y-121149981D01*
X153372403Y-121154514D01*
X153370186Y-121140809D01*
X153368289Y-121102925D01*
X153366847Y-121045715D01*
X153365998Y-120974027D01*
X153365829Y-120921565D01*
X153366692Y-120820047D01*
X153370070Y-120743032D01*
X153377142Y-120686023D01*
X153389088Y-120644526D01*
X153407090Y-120614043D01*
X153432327Y-120590080D01*
X153457247Y-120573355D01*
X153517171Y-120551097D01*
X153586911Y-120546076D01*
X153652600Y-120558752D01*
G36*
X154153595Y-120566966D02*
X154211021Y-120604497D01*
X154238719Y-120638096D01*
X154260662Y-120699064D01*
X154262405Y-120747308D01*
X154258457Y-120811816D01*
X154109686Y-120876934D01*
X154037349Y-120910202D01*
X153990084Y-120936964D01*
X153965507Y-120960144D01*
X153961237Y-120982667D01*
X153974889Y-121007455D01*
X153989943Y-121023886D01*
X154033746Y-121050235D01*
X154081389Y-121052081D01*
X154125145Y-121031546D01*
X154157289Y-120990752D01*
X154163038Y-120976347D01*
X154190576Y-120931356D01*
X154222258Y-120912182D01*
X154265714Y-120895779D01*
X154265714Y-120957966D01*
X154261872Y-121000283D01*
X154246823Y-121035969D01*
X154215280Y-121076943D01*
X154210592Y-121082267D01*
X154175506Y-121118720D01*
X154145347Y-121138283D01*
X154107615Y-121147283D01*
X154076335Y-121150230D01*
X154020385Y-121150965D01*
X153980555Y-121141660D01*
X153955708Y-121127846D01*
X153916656Y-121097467D01*
X153889625Y-121064613D01*
X153872517Y-121023294D01*
X153863238Y-120967521D01*
X153859693Y-120891305D01*
X153859410Y-120852622D01*
X153860372Y-120806247D01*
X153948007Y-120806247D01*
X153949023Y-120831126D01*
X153951556Y-120835200D01*
X153968274Y-120829665D01*
X154004249Y-120815017D01*
X154052331Y-120794190D01*
X154062386Y-120789714D01*
X154123152Y-120758814D01*
X154156632Y-120731657D01*
X154163990Y-120706220D01*
X154146391Y-120680481D01*
X154131856Y-120669109D01*
X154079410Y-120646364D01*
X154030322Y-120650122D01*
X153989227Y-120677884D01*
X153960758Y-120727152D01*
X153951631Y-120766257D01*
X153948007Y-120806247D01*
X153860372Y-120806247D01*
X153861285Y-120762249D01*
X153868196Y-120695384D01*
X153881884Y-120646695D01*
X153904096Y-120610849D01*
X153936574Y-120582513D01*
X153950733Y-120573355D01*
X154015053Y-120549507D01*
X154085473Y-120548006D01*
X154153595Y-120566966D01*
X154153595Y-120566966D01*
G37*
X154153595Y-120566966D02*
X154211021Y-120604497D01*
X154238719Y-120638096D01*
X154260662Y-120699064D01*
X154262405Y-120747308D01*
X154258457Y-120811816D01*
X154109686Y-120876934D01*
X154037349Y-120910202D01*
X153990084Y-120936964D01*
X153965507Y-120960144D01*
X153961237Y-120982667D01*
X153974889Y-121007455D01*
X153989943Y-121023886D01*
X154033746Y-121050235D01*
X154081389Y-121052081D01*
X154125145Y-121031546D01*
X154157289Y-120990752D01*
X154163038Y-120976347D01*
X154190576Y-120931356D01*
X154222258Y-120912182D01*
X154265714Y-120895779D01*
X154265714Y-120957966D01*
X154261872Y-121000283D01*
X154246823Y-121035969D01*
X154215280Y-121076943D01*
X154210592Y-121082267D01*
X154175506Y-121118720D01*
X154145347Y-121138283D01*
X154107615Y-121147283D01*
X154076335Y-121150230D01*
X154020385Y-121150965D01*
X153980555Y-121141660D01*
X153955708Y-121127846D01*
X153916656Y-121097467D01*
X153889625Y-121064613D01*
X153872517Y-121023294D01*
X153863238Y-120967521D01*
X153859693Y-120891305D01*
X153859410Y-120852622D01*
X153860372Y-120806247D01*
X153948007Y-120806247D01*
X153949023Y-120831126D01*
X153951556Y-120835200D01*
X153968274Y-120829665D01*
X154004249Y-120815017D01*
X154052331Y-120794190D01*
X154062386Y-120789714D01*
X154123152Y-120758814D01*
X154156632Y-120731657D01*
X154163990Y-120706220D01*
X154146391Y-120680481D01*
X154131856Y-120669109D01*
X154079410Y-120646364D01*
X154030322Y-120650122D01*
X153989227Y-120677884D01*
X153960758Y-120727152D01*
X153951631Y-120766257D01*
X153948007Y-120806247D01*
X153860372Y-120806247D01*
X153861285Y-120762249D01*
X153868196Y-120695384D01*
X153881884Y-120646695D01*
X153904096Y-120610849D01*
X153936574Y-120582513D01*
X153950733Y-120573355D01*
X154015053Y-120549507D01*
X154085473Y-120548006D01*
X154153595Y-120566966D01*
G36*
X151103910Y-115842348D02*
X151182454Y-115842778D01*
X151239298Y-115843942D01*
X151278105Y-115846207D01*
X151302538Y-115849940D01*
X151316262Y-115855506D01*
X151322940Y-115863273D01*
X151326236Y-115873605D01*
X151326556Y-115874943D01*
X151331562Y-115899079D01*
X151340829Y-115946701D01*
X151353392Y-116012741D01*
X151368287Y-116092128D01*
X151384551Y-116179796D01*
X151385119Y-116182875D01*
X151401410Y-116268789D01*
X151416652Y-116344696D01*
X151429861Y-116406045D01*
X151440054Y-116448282D01*
X151446248Y-116466855D01*
X151446543Y-116467184D01*
X151464788Y-116476253D01*
X151502405Y-116491367D01*
X151551271Y-116509262D01*
X151551543Y-116509358D01*
X151613093Y-116532493D01*
X151685657Y-116561965D01*
X151754057Y-116591597D01*
X151757294Y-116593062D01*
X151868702Y-116643626D01*
X152115399Y-116475160D01*
X152191077Y-116423803D01*
X152259631Y-116377889D01*
X152317088Y-116340030D01*
X152359476Y-116312837D01*
X152382825Y-116298921D01*
X152385042Y-116297889D01*
X152402010Y-116302484D01*
X152433701Y-116324655D01*
X152481352Y-116365447D01*
X152546198Y-116425905D01*
X152612397Y-116490227D01*
X152676214Y-116553612D01*
X152733329Y-116611451D01*
X152780305Y-116660175D01*
X152813703Y-116696210D01*
X152830085Y-116715984D01*
X152830694Y-116717002D01*
X152832505Y-116730572D01*
X152825683Y-116752733D01*
X152808540Y-116786478D01*
X152779393Y-116834800D01*
X152736555Y-116900692D01*
X152679448Y-116985517D01*
X152628766Y-117060177D01*
X152583461Y-117127140D01*
X152546150Y-117182516D01*
X152519452Y-117222420D01*
X152505985Y-117242962D01*
X152505137Y-117244356D01*
X152506781Y-117264038D01*
X152519245Y-117302293D01*
X152540048Y-117351889D01*
X152547462Y-117367728D01*
X152579814Y-117438290D01*
X152614328Y-117518353D01*
X152642365Y-117587629D01*
X152662568Y-117639045D01*
X152678615Y-117678119D01*
X152687888Y-117698541D01*
X152689041Y-117700114D01*
X152706096Y-117702721D01*
X152746298Y-117709863D01*
X152804302Y-117720523D01*
X152874763Y-117733685D01*
X152952335Y-117748333D01*
X153031672Y-117763449D01*
X153107431Y-117778018D01*
X153174264Y-117791022D01*
X153226828Y-117801445D01*
X153259776Y-117808270D01*
X153267857Y-117810199D01*
X153276205Y-117814962D01*
X153282506Y-117825718D01*
X153287045Y-117846098D01*
X153290104Y-117879734D01*
X153291967Y-117930255D01*
X153292918Y-118001292D01*
X153293240Y-118096476D01*
X153293257Y-118135492D01*
X153293257Y-118452799D01*
X153217057Y-118467839D01*
X153174663Y-118475995D01*
X153111400Y-118487899D01*
X153034962Y-118502116D01*
X152953043Y-118517210D01*
X152930400Y-118521355D01*
X152854806Y-118536053D01*
X152788953Y-118550505D01*
X152738366Y-118563375D01*
X152708574Y-118573322D01*
X152703612Y-118576287D01*
X152691426Y-118597283D01*
X152673953Y-118637967D01*
X152654577Y-118690322D01*
X152650734Y-118701600D01*
X152625339Y-118771523D01*
X152593817Y-118850418D01*
X152562969Y-118921266D01*
X152562817Y-118921595D01*
X152511447Y-119032733D01*
X152680399Y-119281253D01*
X152849352Y-119529772D01*
X152632429Y-119747058D01*
X152566819Y-119811726D01*
X152506979Y-119868733D01*
X152456267Y-119915033D01*
X152418046Y-119947584D01*
X152395675Y-119963343D01*
X152392466Y-119964343D01*
X152373626Y-119956469D01*
X152335180Y-119934578D01*
X152281330Y-119901267D01*
X152216276Y-119859131D01*
X152145940Y-119811943D01*
X152074555Y-119763810D01*
X152010908Y-119721928D01*
X151959041Y-119688871D01*
X151922995Y-119667218D01*
X151906867Y-119659543D01*
X151887189Y-119666037D01*
X151849875Y-119683150D01*
X151802621Y-119707326D01*
X151797612Y-119710013D01*
X151733977Y-119741927D01*
X151690341Y-119757579D01*
X151663202Y-119757745D01*
X151649057Y-119743204D01*
X151648975Y-119743000D01*
X151641905Y-119725779D01*
X151625042Y-119684899D01*
X151599695Y-119623525D01*
X151567171Y-119544819D01*
X151528778Y-119451947D01*
X151485822Y-119348072D01*
X151444222Y-119247502D01*
X151398504Y-119136516D01*
X151356526Y-119033703D01*
X151319548Y-118942215D01*
X151288827Y-118865201D01*
X151265622Y-118805815D01*
X151251190Y-118767209D01*
X151246743Y-118752800D01*
X151257896Y-118736272D01*
X151287069Y-118709930D01*
X151325971Y-118680887D01*
X151436757Y-118589039D01*
X151523351Y-118483759D01*
X151584716Y-118367266D01*
X151619815Y-118241776D01*
X151627608Y-118109507D01*
X151621943Y-118048457D01*
X151591078Y-117921795D01*
X151537920Y-117809941D01*
X151465767Y-117714001D01*
X151377917Y-117635076D01*
X151277665Y-117574270D01*
X151168310Y-117532687D01*
X151053147Y-117511428D01*
X150935475Y-117511599D01*
X150818590Y-117534301D01*
X150705789Y-117580638D01*
X150600369Y-117651713D01*
X150556368Y-117691911D01*
X150471979Y-117795129D01*
X150413222Y-117907925D01*
X150379704Y-118027010D01*
X150371035Y-118149095D01*
X150386823Y-118270893D01*
X150426678Y-118389116D01*
X150490207Y-118500475D01*
X150577021Y-118601684D01*
X150674029Y-118680887D01*
X150714437Y-118711162D01*
X150742982Y-118737219D01*
X150753257Y-118752825D01*
X150747877Y-118769843D01*
X150732575Y-118810500D01*
X150708612Y-118871642D01*
X150677244Y-118950119D01*
X150639732Y-119042780D01*
X150597333Y-119146472D01*
X150555663Y-119247526D01*
X150509690Y-119358607D01*
X150467107Y-119461541D01*
X150429221Y-119553165D01*
X150397340Y-119630316D01*
X150372771Y-119689831D01*
X150356820Y-119728544D01*
X150350910Y-119743000D01*
X150336948Y-119757685D01*
X150309940Y-119757642D01*
X150266413Y-119742099D01*
X150202890Y-119710284D01*
X150202388Y-119710013D01*
X150154560Y-119685323D01*
X150115897Y-119667338D01*
X150094095Y-119659614D01*
X150093133Y-119659543D01*
X150076721Y-119667378D01*
X150040487Y-119689165D01*
X149988474Y-119722328D01*
X149924725Y-119764291D01*
X149854060Y-119811943D01*
X149782116Y-119860191D01*
X149717274Y-119902151D01*
X149663735Y-119935227D01*
X149625697Y-119956821D01*
X149607533Y-119964343D01*
X149590808Y-119954457D01*
X149557180Y-119926826D01*
X149510010Y-119884495D01*
X149452658Y-119830505D01*
X149388484Y-119767899D01*
X149367497Y-119746983D01*
X149150499Y-119529623D01*
X149315668Y-119287220D01*
X149365864Y-119212781D01*
X149409919Y-119145972D01*
X149445362Y-119090665D01*
X149469719Y-119050729D01*
X149480522Y-119030036D01*
X149480838Y-119028563D01*
X149475143Y-119009058D01*
X149459826Y-118969822D01*
X149437537Y-118917430D01*
X149421893Y-118882355D01*
X149392641Y-118815201D01*
X149365094Y-118747358D01*
X149343737Y-118690034D01*
X149337935Y-118672572D01*
X149321452Y-118625938D01*
X149305340Y-118589905D01*
X149296490Y-118576287D01*
X149276960Y-118567952D01*
X149234334Y-118556137D01*
X149174145Y-118542181D01*
X149101922Y-118527422D01*
X149069600Y-118521355D01*
X148987522Y-118506273D01*
X148908795Y-118491669D01*
X148841109Y-118478980D01*
X148792160Y-118469642D01*
X148782943Y-118467839D01*
X148706743Y-118452799D01*
X148706743Y-118135492D01*
X148706914Y-118031154D01*
X148707616Y-117952213D01*
X148709134Y-117895038D01*
X148711749Y-117855999D01*
X148715746Y-117831465D01*
X148721409Y-117817805D01*
X148729020Y-117811389D01*
X148732143Y-117810199D01*
X148750978Y-117805980D01*
X148792588Y-117797562D01*
X148851630Y-117785961D01*
X148922757Y-117772195D01*
X149000625Y-117757280D01*
X149079887Y-117742232D01*
X149155198Y-117728069D01*
X149221213Y-117715806D01*
X149272587Y-117706461D01*
X149303975Y-117701050D01*
X149310959Y-117700114D01*
X149317285Y-117687596D01*
X149331290Y-117654246D01*
X149350355Y-117606377D01*
X149357634Y-117587629D01*
X149386996Y-117515195D01*
X149421571Y-117435170D01*
X149452537Y-117367728D01*
X149475323Y-117316159D01*
X149490482Y-117273785D01*
X149495542Y-117247834D01*
X149494736Y-117244356D01*
X149484041Y-117227936D01*
X149459620Y-117191417D01*
X149424095Y-117138687D01*
X149380087Y-117073635D01*
X149330217Y-117000151D01*
X149320356Y-116985645D01*
X149262492Y-116899704D01*
X149219956Y-116834261D01*
X149191054Y-116786304D01*
X149174090Y-116752820D01*
X149167367Y-116730795D01*
X149169190Y-116717217D01*
X149169236Y-116717131D01*
X149183586Y-116699297D01*
X149215323Y-116664817D01*
X149261010Y-116617268D01*
X149317204Y-116560222D01*
X149380468Y-116497255D01*
X149387602Y-116490227D01*
X149467330Y-116413020D01*
X149528857Y-116356330D01*
X149573421Y-116319110D01*
X149602257Y-116300315D01*
X149614958Y-116297889D01*
X149633494Y-116308471D01*
X149671961Y-116332916D01*
X149726386Y-116368612D01*
X149792798Y-116412947D01*
X149867225Y-116463311D01*
X149884601Y-116475160D01*
X150131297Y-116643626D01*
X150242706Y-116593062D01*
X150310457Y-116563595D01*
X150383183Y-116533959D01*
X150445703Y-116510330D01*
X150448457Y-116509358D01*
X150497360Y-116491457D01*
X150535057Y-116476320D01*
X150553425Y-116467210D01*
X150553456Y-116467184D01*
X150559285Y-116450717D01*
X150569192Y-116410219D01*
X150582195Y-116350242D01*
X150597309Y-116275340D01*
X150613552Y-116190064D01*
X150614881Y-116182875D01*
X150631175Y-116095014D01*
X150646133Y-116015260D01*
X150658791Y-115948681D01*
X150668186Y-115900347D01*
X150673354Y-115875325D01*
X150673444Y-115874943D01*
X150676589Y-115864299D01*
X150682704Y-115856262D01*
X150695453Y-115850467D01*
X150718500Y-115846547D01*
X150755509Y-115844135D01*
X150810144Y-115842865D01*
X150886067Y-115842371D01*
X150986944Y-115842286D01*
X151000000Y-115842286D01*
X151103910Y-115842348D01*
X151103910Y-115842348D01*
G37*
X151103910Y-115842348D02*
X151182454Y-115842778D01*
X151239298Y-115843942D01*
X151278105Y-115846207D01*
X151302538Y-115849940D01*
X151316262Y-115855506D01*
X151322940Y-115863273D01*
X151326236Y-115873605D01*
X151326556Y-115874943D01*
X151331562Y-115899079D01*
X151340829Y-115946701D01*
X151353392Y-116012741D01*
X151368287Y-116092128D01*
X151384551Y-116179796D01*
X151385119Y-116182875D01*
X151401410Y-116268789D01*
X151416652Y-116344696D01*
X151429861Y-116406045D01*
X151440054Y-116448282D01*
X151446248Y-116466855D01*
X151446543Y-116467184D01*
X151464788Y-116476253D01*
X151502405Y-116491367D01*
X151551271Y-116509262D01*
X151551543Y-116509358D01*
X151613093Y-116532493D01*
X151685657Y-116561965D01*
X151754057Y-116591597D01*
X151757294Y-116593062D01*
X151868702Y-116643626D01*
X152115399Y-116475160D01*
X152191077Y-116423803D01*
X152259631Y-116377889D01*
X152317088Y-116340030D01*
X152359476Y-116312837D01*
X152382825Y-116298921D01*
X152385042Y-116297889D01*
X152402010Y-116302484D01*
X152433701Y-116324655D01*
X152481352Y-116365447D01*
X152546198Y-116425905D01*
X152612397Y-116490227D01*
X152676214Y-116553612D01*
X152733329Y-116611451D01*
X152780305Y-116660175D01*
X152813703Y-116696210D01*
X152830085Y-116715984D01*
X152830694Y-116717002D01*
X152832505Y-116730572D01*
X152825683Y-116752733D01*
X152808540Y-116786478D01*
X152779393Y-116834800D01*
X152736555Y-116900692D01*
X152679448Y-116985517D01*
X152628766Y-117060177D01*
X152583461Y-117127140D01*
X152546150Y-117182516D01*
X152519452Y-117222420D01*
X152505985Y-117242962D01*
X152505137Y-117244356D01*
X152506781Y-117264038D01*
X152519245Y-117302293D01*
X152540048Y-117351889D01*
X152547462Y-117367728D01*
X152579814Y-117438290D01*
X152614328Y-117518353D01*
X152642365Y-117587629D01*
X152662568Y-117639045D01*
X152678615Y-117678119D01*
X152687888Y-117698541D01*
X152689041Y-117700114D01*
X152706096Y-117702721D01*
X152746298Y-117709863D01*
X152804302Y-117720523D01*
X152874763Y-117733685D01*
X152952335Y-117748333D01*
X153031672Y-117763449D01*
X153107431Y-117778018D01*
X153174264Y-117791022D01*
X153226828Y-117801445D01*
X153259776Y-117808270D01*
X153267857Y-117810199D01*
X153276205Y-117814962D01*
X153282506Y-117825718D01*
X153287045Y-117846098D01*
X153290104Y-117879734D01*
X153291967Y-117930255D01*
X153292918Y-118001292D01*
X153293240Y-118096476D01*
X153293257Y-118135492D01*
X153293257Y-118452799D01*
X153217057Y-118467839D01*
X153174663Y-118475995D01*
X153111400Y-118487899D01*
X153034962Y-118502116D01*
X152953043Y-118517210D01*
X152930400Y-118521355D01*
X152854806Y-118536053D01*
X152788953Y-118550505D01*
X152738366Y-118563375D01*
X152708574Y-118573322D01*
X152703612Y-118576287D01*
X152691426Y-118597283D01*
X152673953Y-118637967D01*
X152654577Y-118690322D01*
X152650734Y-118701600D01*
X152625339Y-118771523D01*
X152593817Y-118850418D01*
X152562969Y-118921266D01*
X152562817Y-118921595D01*
X152511447Y-119032733D01*
X152680399Y-119281253D01*
X152849352Y-119529772D01*
X152632429Y-119747058D01*
X152566819Y-119811726D01*
X152506979Y-119868733D01*
X152456267Y-119915033D01*
X152418046Y-119947584D01*
X152395675Y-119963343D01*
X152392466Y-119964343D01*
X152373626Y-119956469D01*
X152335180Y-119934578D01*
X152281330Y-119901267D01*
X152216276Y-119859131D01*
X152145940Y-119811943D01*
X152074555Y-119763810D01*
X152010908Y-119721928D01*
X151959041Y-119688871D01*
X151922995Y-119667218D01*
X151906867Y-119659543D01*
X151887189Y-119666037D01*
X151849875Y-119683150D01*
X151802621Y-119707326D01*
X151797612Y-119710013D01*
X151733977Y-119741927D01*
X151690341Y-119757579D01*
X151663202Y-119757745D01*
X151649057Y-119743204D01*
X151648975Y-119743000D01*
X151641905Y-119725779D01*
X151625042Y-119684899D01*
X151599695Y-119623525D01*
X151567171Y-119544819D01*
X151528778Y-119451947D01*
X151485822Y-119348072D01*
X151444222Y-119247502D01*
X151398504Y-119136516D01*
X151356526Y-119033703D01*
X151319548Y-118942215D01*
X151288827Y-118865201D01*
X151265622Y-118805815D01*
X151251190Y-118767209D01*
X151246743Y-118752800D01*
X151257896Y-118736272D01*
X151287069Y-118709930D01*
X151325971Y-118680887D01*
X151436757Y-118589039D01*
X151523351Y-118483759D01*
X151584716Y-118367266D01*
X151619815Y-118241776D01*
X151627608Y-118109507D01*
X151621943Y-118048457D01*
X151591078Y-117921795D01*
X151537920Y-117809941D01*
X151465767Y-117714001D01*
X151377917Y-117635076D01*
X151277665Y-117574270D01*
X151168310Y-117532687D01*
X151053147Y-117511428D01*
X150935475Y-117511599D01*
X150818590Y-117534301D01*
X150705789Y-117580638D01*
X150600369Y-117651713D01*
X150556368Y-117691911D01*
X150471979Y-117795129D01*
X150413222Y-117907925D01*
X150379704Y-118027010D01*
X150371035Y-118149095D01*
X150386823Y-118270893D01*
X150426678Y-118389116D01*
X150490207Y-118500475D01*
X150577021Y-118601684D01*
X150674029Y-118680887D01*
X150714437Y-118711162D01*
X150742982Y-118737219D01*
X150753257Y-118752825D01*
X150747877Y-118769843D01*
X150732575Y-118810500D01*
X150708612Y-118871642D01*
X150677244Y-118950119D01*
X150639732Y-119042780D01*
X150597333Y-119146472D01*
X150555663Y-119247526D01*
X150509690Y-119358607D01*
X150467107Y-119461541D01*
X150429221Y-119553165D01*
X150397340Y-119630316D01*
X150372771Y-119689831D01*
X150356820Y-119728544D01*
X150350910Y-119743000D01*
X150336948Y-119757685D01*
X150309940Y-119757642D01*
X150266413Y-119742099D01*
X150202890Y-119710284D01*
X150202388Y-119710013D01*
X150154560Y-119685323D01*
X150115897Y-119667338D01*
X150094095Y-119659614D01*
X150093133Y-119659543D01*
X150076721Y-119667378D01*
X150040487Y-119689165D01*
X149988474Y-119722328D01*
X149924725Y-119764291D01*
X149854060Y-119811943D01*
X149782116Y-119860191D01*
X149717274Y-119902151D01*
X149663735Y-119935227D01*
X149625697Y-119956821D01*
X149607533Y-119964343D01*
X149590808Y-119954457D01*
X149557180Y-119926826D01*
X149510010Y-119884495D01*
X149452658Y-119830505D01*
X149388484Y-119767899D01*
X149367497Y-119746983D01*
X149150499Y-119529623D01*
X149315668Y-119287220D01*
X149365864Y-119212781D01*
X149409919Y-119145972D01*
X149445362Y-119090665D01*
X149469719Y-119050729D01*
X149480522Y-119030036D01*
X149480838Y-119028563D01*
X149475143Y-119009058D01*
X149459826Y-118969822D01*
X149437537Y-118917430D01*
X149421893Y-118882355D01*
X149392641Y-118815201D01*
X149365094Y-118747358D01*
X149343737Y-118690034D01*
X149337935Y-118672572D01*
X149321452Y-118625938D01*
X149305340Y-118589905D01*
X149296490Y-118576287D01*
X149276960Y-118567952D01*
X149234334Y-118556137D01*
X149174145Y-118542181D01*
X149101922Y-118527422D01*
X149069600Y-118521355D01*
X148987522Y-118506273D01*
X148908795Y-118491669D01*
X148841109Y-118478980D01*
X148792160Y-118469642D01*
X148782943Y-118467839D01*
X148706743Y-118452799D01*
X148706743Y-118135492D01*
X148706914Y-118031154D01*
X148707616Y-117952213D01*
X148709134Y-117895038D01*
X148711749Y-117855999D01*
X148715746Y-117831465D01*
X148721409Y-117817805D01*
X148729020Y-117811389D01*
X148732143Y-117810199D01*
X148750978Y-117805980D01*
X148792588Y-117797562D01*
X148851630Y-117785961D01*
X148922757Y-117772195D01*
X149000625Y-117757280D01*
X149079887Y-117742232D01*
X149155198Y-117728069D01*
X149221213Y-117715806D01*
X149272587Y-117706461D01*
X149303975Y-117701050D01*
X149310959Y-117700114D01*
X149317285Y-117687596D01*
X149331290Y-117654246D01*
X149350355Y-117606377D01*
X149357634Y-117587629D01*
X149386996Y-117515195D01*
X149421571Y-117435170D01*
X149452537Y-117367728D01*
X149475323Y-117316159D01*
X149490482Y-117273785D01*
X149495542Y-117247834D01*
X149494736Y-117244356D01*
X149484041Y-117227936D01*
X149459620Y-117191417D01*
X149424095Y-117138687D01*
X149380087Y-117073635D01*
X149330217Y-117000151D01*
X149320356Y-116985645D01*
X149262492Y-116899704D01*
X149219956Y-116834261D01*
X149191054Y-116786304D01*
X149174090Y-116752820D01*
X149167367Y-116730795D01*
X149169190Y-116717217D01*
X149169236Y-116717131D01*
X149183586Y-116699297D01*
X149215323Y-116664817D01*
X149261010Y-116617268D01*
X149317204Y-116560222D01*
X149380468Y-116497255D01*
X149387602Y-116490227D01*
X149467330Y-116413020D01*
X149528857Y-116356330D01*
X149573421Y-116319110D01*
X149602257Y-116300315D01*
X149614958Y-116297889D01*
X149633494Y-116308471D01*
X149671961Y-116332916D01*
X149726386Y-116368612D01*
X149792798Y-116412947D01*
X149867225Y-116463311D01*
X149884601Y-116475160D01*
X150131297Y-116643626D01*
X150242706Y-116593062D01*
X150310457Y-116563595D01*
X150383183Y-116533959D01*
X150445703Y-116510330D01*
X150448457Y-116509358D01*
X150497360Y-116491457D01*
X150535057Y-116476320D01*
X150553425Y-116467210D01*
X150553456Y-116467184D01*
X150559285Y-116450717D01*
X150569192Y-116410219D01*
X150582195Y-116350242D01*
X150597309Y-116275340D01*
X150613552Y-116190064D01*
X150614881Y-116182875D01*
X150631175Y-116095014D01*
X150646133Y-116015260D01*
X150658791Y-115948681D01*
X150668186Y-115900347D01*
X150673354Y-115875325D01*
X150673444Y-115874943D01*
X150676589Y-115864299D01*
X150682704Y-115856262D01*
X150695453Y-115850467D01*
X150718500Y-115846547D01*
X150755509Y-115844135D01*
X150810144Y-115842865D01*
X150886067Y-115842371D01*
X150986944Y-115842286D01*
X151000000Y-115842286D01*
X151103910Y-115842348D01*
G04 #@! TO.C,OutVCC*
D13*
X111238095Y-127952380D02*
X111428571Y-127952380D01*
X111523809Y-128000000D01*
X111619047Y-128095238D01*
X111666666Y-128285714D01*
X111666666Y-128619047D01*
X111619047Y-128809523D01*
X111523809Y-128904761D01*
X111428571Y-128952380D01*
X111238095Y-128952380D01*
X111142857Y-128904761D01*
X111047619Y-128809523D01*
X111000000Y-128619047D01*
X111000000Y-128285714D01*
X111047619Y-128095238D01*
X111142857Y-128000000D01*
X111238095Y-127952380D01*
X112523809Y-128285714D02*
X112523809Y-128952380D01*
X112095238Y-128285714D02*
X112095238Y-128809523D01*
X112142857Y-128904761D01*
X112238095Y-128952380D01*
X112380952Y-128952380D01*
X112476190Y-128904761D01*
X112523809Y-128857142D01*
X112857142Y-128285714D02*
X113238095Y-128285714D01*
X113000000Y-127952380D02*
X113000000Y-128809523D01*
X113047619Y-128904761D01*
X113142857Y-128952380D01*
X113238095Y-128952380D01*
X113428571Y-127952380D02*
X113761904Y-128952380D01*
X114095238Y-127952380D01*
X115000000Y-128857142D02*
X114952380Y-128904761D01*
X114809523Y-128952380D01*
X114714285Y-128952380D01*
X114571428Y-128904761D01*
X114476190Y-128809523D01*
X114428571Y-128714285D01*
X114380952Y-128523809D01*
X114380952Y-128380952D01*
X114428571Y-128190476D01*
X114476190Y-128095238D01*
X114571428Y-128000000D01*
X114714285Y-127952380D01*
X114809523Y-127952380D01*
X114952380Y-128000000D01*
X115000000Y-128047619D01*
X116000000Y-128857142D02*
X115952380Y-128904761D01*
X115809523Y-128952380D01*
X115714285Y-128952380D01*
X115571428Y-128904761D01*
X115476190Y-128809523D01*
X115428571Y-128714285D01*
X115380952Y-128523809D01*
X115380952Y-128380952D01*
X115428571Y-128190476D01*
X115476190Y-128095238D01*
X115571428Y-128000000D01*
X115714285Y-127952380D01*
X115809523Y-127952380D01*
X115952380Y-128000000D01*
X116000000Y-128047619D01*
G04 #@! TO.C,Output3V3*
X133345238Y-128202380D02*
X133535714Y-128202380D01*
X133630952Y-128250000D01*
X133726190Y-128345238D01*
X133773809Y-128535714D01*
X133773809Y-128869047D01*
X133726190Y-129059523D01*
X133630952Y-129154761D01*
X133535714Y-129202380D01*
X133345238Y-129202380D01*
X133250000Y-129154761D01*
X133154761Y-129059523D01*
X133107142Y-128869047D01*
X133107142Y-128535714D01*
X133154761Y-128345238D01*
X133250000Y-128250000D01*
X133345238Y-128202380D01*
X134630952Y-128535714D02*
X134630952Y-129202380D01*
X134202380Y-128535714D02*
X134202380Y-129059523D01*
X134250000Y-129154761D01*
X134345238Y-129202380D01*
X134488095Y-129202380D01*
X134583333Y-129154761D01*
X134630952Y-129107142D01*
X134964285Y-128535714D02*
X135345238Y-128535714D01*
X135107142Y-128202380D02*
X135107142Y-129059523D01*
X135154761Y-129154761D01*
X135250000Y-129202380D01*
X135345238Y-129202380D01*
X135678571Y-128535714D02*
X135678571Y-129535714D01*
X135678571Y-128583333D02*
X135773809Y-128535714D01*
X135964285Y-128535714D01*
X136059523Y-128583333D01*
X136107142Y-128630952D01*
X136154761Y-128726190D01*
X136154761Y-129011904D01*
X136107142Y-129107142D01*
X136059523Y-129154761D01*
X135964285Y-129202380D01*
X135773809Y-129202380D01*
X135678571Y-129154761D01*
X137011904Y-128535714D02*
X137011904Y-129202380D01*
X136583333Y-128535714D02*
X136583333Y-129059523D01*
X136630952Y-129154761D01*
X136726190Y-129202380D01*
X136869047Y-129202380D01*
X136964285Y-129154761D01*
X137011904Y-129107142D01*
X137345238Y-128535714D02*
X137726190Y-128535714D01*
X137488095Y-128202380D02*
X137488095Y-129059523D01*
X137535714Y-129154761D01*
X137630952Y-129202380D01*
X137726190Y-129202380D01*
X137964285Y-128202380D02*
X138583333Y-128202380D01*
X138250000Y-128583333D01*
X138392857Y-128583333D01*
X138488095Y-128630952D01*
X138535714Y-128678571D01*
X138583333Y-128773809D01*
X138583333Y-129011904D01*
X138535714Y-129107142D01*
X138488095Y-129154761D01*
X138392857Y-129202380D01*
X138107142Y-129202380D01*
X138011904Y-129154761D01*
X137964285Y-129107142D01*
X138869047Y-128202380D02*
X139202380Y-129202380D01*
X139535714Y-128202380D01*
X139773809Y-128202380D02*
X140392857Y-128202380D01*
X140059523Y-128583333D01*
X140202380Y-128583333D01*
X140297619Y-128630952D01*
X140345238Y-128678571D01*
X140392857Y-128773809D01*
X140392857Y-129011904D01*
X140345238Y-129107142D01*
X140297619Y-129154761D01*
X140202380Y-129202380D01*
X139916666Y-129202380D01*
X139821428Y-129154761D01*
X139773809Y-129107142D01*
G04 #@! TO.C,TP3*
X142738095Y-128452380D02*
X143309523Y-128452380D01*
X143023809Y-129452380D02*
X143023809Y-128452380D01*
X143642857Y-129452380D02*
X143642857Y-128452380D01*
X144023809Y-128452380D01*
X144119047Y-128500000D01*
X144166666Y-128547619D01*
X144214285Y-128642857D01*
X144214285Y-128785714D01*
X144166666Y-128880952D01*
X144119047Y-128928571D01*
X144023809Y-128976190D01*
X143642857Y-128976190D01*
X144547619Y-128452380D02*
X145166666Y-128452380D01*
X144833333Y-128833333D01*
X144976190Y-128833333D01*
X145071428Y-128880952D01*
X145119047Y-128928571D01*
X145166666Y-129023809D01*
X145166666Y-129261904D01*
X145119047Y-129357142D01*
X145071428Y-129404761D01*
X144976190Y-129452380D01*
X144690476Y-129452380D01*
X144595238Y-129404761D01*
X144547619Y-129357142D01*
G04 #@! TO.C,EarthGND*
X118011904Y-128428571D02*
X118345238Y-128428571D01*
X118488095Y-128952380D02*
X118011904Y-128952380D01*
X118011904Y-127952380D01*
X118488095Y-127952380D01*
X119345238Y-128952380D02*
X119345238Y-128428571D01*
X119297619Y-128333333D01*
X119202380Y-128285714D01*
X119011904Y-128285714D01*
X118916666Y-128333333D01*
X119345238Y-128904761D02*
X119250000Y-128952380D01*
X119011904Y-128952380D01*
X118916666Y-128904761D01*
X118869047Y-128809523D01*
X118869047Y-128714285D01*
X118916666Y-128619047D01*
X119011904Y-128571428D01*
X119250000Y-128571428D01*
X119345238Y-128523809D01*
X119821428Y-128952380D02*
X119821428Y-128285714D01*
X119821428Y-128476190D02*
X119869047Y-128380952D01*
X119916666Y-128333333D01*
X120011904Y-128285714D01*
X120107142Y-128285714D01*
X120297619Y-128285714D02*
X120678571Y-128285714D01*
X120440476Y-127952380D02*
X120440476Y-128809523D01*
X120488095Y-128904761D01*
X120583333Y-128952380D01*
X120678571Y-128952380D01*
X121011904Y-128952380D02*
X121011904Y-127952380D01*
X121440476Y-128952380D02*
X121440476Y-128428571D01*
X121392857Y-128333333D01*
X121297619Y-128285714D01*
X121154761Y-128285714D01*
X121059523Y-128333333D01*
X121011904Y-128380952D01*
X122440476Y-128000000D02*
X122345238Y-127952380D01*
X122202380Y-127952380D01*
X122059523Y-128000000D01*
X121964285Y-128095238D01*
X121916666Y-128190476D01*
X121869047Y-128380952D01*
X121869047Y-128523809D01*
X121916666Y-128714285D01*
X121964285Y-128809523D01*
X122059523Y-128904761D01*
X122202380Y-128952380D01*
X122297619Y-128952380D01*
X122440476Y-128904761D01*
X122488095Y-128857142D01*
X122488095Y-128523809D01*
X122297619Y-128523809D01*
X122916666Y-128952380D02*
X122916666Y-127952380D01*
X123488095Y-128952380D01*
X123488095Y-127952380D01*
X123964285Y-128952380D02*
X123964285Y-127952380D01*
X124202380Y-127952380D01*
X124345238Y-128000000D01*
X124440476Y-128095238D01*
X124488095Y-128190476D01*
X124535714Y-128380952D01*
X124535714Y-128523809D01*
X124488095Y-128714285D01*
X124440476Y-128809523D01*
X124345238Y-128904761D01*
X124202380Y-128952380D01*
X123964285Y-128952380D01*
G04 #@! TD*
M02*
