G04 #@! TF.GenerationSoftware,KiCad,Pcbnew,(5.0.0)*
G04 #@! TF.CreationDate,2018-12-13T14:05:28+00:00*
G04 #@! TF.ProjectId,GiveMePower,476976654D65506F7765722E6B696361,rev?*
G04 #@! TF.SameCoordinates,Original*
G04 #@! TF.FileFunction,Copper,L1,Top,Signal*
G04 #@! TF.FilePolarity,Positive*
%FSLAX46Y46*%
G04 Gerber Fmt 4.6, Leading zero omitted, Abs format (unit mm)*
G04 Created by KiCad (PCBNEW (5.0.0)) date 12/13/18 14:05:28*
%MOMM*%
%LPD*%
G01*
G04 APERTURE LIST*
G04 #@! TA.AperFunction,NonConductor*
%ADD10C,0.300000*%
G04 #@! TD*
G04 #@! TA.AperFunction,SMDPad,CuDef*
%ADD11R,0.750000X0.800000*%
G04 #@! TD*
G04 #@! TA.AperFunction,SMDPad,CuDef*
%ADD12R,2.500000X1.000000*%
G04 #@! TD*
G04 #@! TA.AperFunction,SMDPad,CuDef*
%ADD13R,0.800000X0.800000*%
G04 #@! TD*
G04 #@! TA.AperFunction,ComponentPad*
%ADD14R,1.700000X1.700000*%
G04 #@! TD*
G04 #@! TA.AperFunction,ComponentPad*
%ADD15O,1.700000X1.700000*%
G04 #@! TD*
G04 #@! TA.AperFunction,ComponentPad*
%ADD16R,2.400000X2.400000*%
G04 #@! TD*
G04 #@! TA.AperFunction,ComponentPad*
%ADD17C,2.400000*%
G04 #@! TD*
G04 #@! TA.AperFunction,ComponentPad*
%ADD18C,0.900000*%
G04 #@! TD*
G04 #@! TA.AperFunction,ComponentPad*
%ADD19C,12.000000*%
G04 #@! TD*
G04 #@! TA.AperFunction,SMDPad,CuDef*
%ADD20R,0.800000X2.700000*%
G04 #@! TD*
G04 #@! TA.AperFunction,SMDPad,CuDef*
%ADD21R,0.500000X0.900000*%
G04 #@! TD*
G04 #@! TA.AperFunction,SMDPad,CuDef*
%ADD22R,3.000000X3.000000*%
G04 #@! TD*
G04 #@! TA.AperFunction,SMDPad,CuDef*
%ADD23R,2.000000X1.500000*%
G04 #@! TD*
G04 #@! TA.AperFunction,SMDPad,CuDef*
%ADD24R,2.000000X3.800000*%
G04 #@! TD*
G04 #@! TA.AperFunction,ViaPad*
%ADD25C,0.800000*%
G04 #@! TD*
G04 #@! TA.AperFunction,Conductor*
%ADD26C,0.750000*%
G04 #@! TD*
G04 #@! TA.AperFunction,Conductor*
%ADD27C,0.250000*%
G04 #@! TD*
G04 #@! TA.AperFunction,Conductor*
%ADD28C,0.254000*%
G04 #@! TD*
G04 APERTURE END LIST*
D10*
X142857142Y-128000000D02*
X142714285Y-127928571D01*
X142500000Y-127928571D01*
X142285714Y-128000000D01*
X142142857Y-128142857D01*
X142071428Y-128285714D01*
X142000000Y-128571428D01*
X142000000Y-128785714D01*
X142071428Y-129071428D01*
X142142857Y-129214285D01*
X142285714Y-129357142D01*
X142500000Y-129428571D01*
X142642857Y-129428571D01*
X142857142Y-129357142D01*
X142928571Y-129285714D01*
X142928571Y-128785714D01*
X142642857Y-128785714D01*
X143571428Y-129428571D02*
X143571428Y-127928571D01*
X144428571Y-129428571D01*
X144428571Y-127928571D01*
X145142857Y-129428571D02*
X145142857Y-127928571D01*
X145500000Y-127928571D01*
X145714285Y-128000000D01*
X145857142Y-128142857D01*
X145928571Y-128285714D01*
X146000000Y-128571428D01*
X146000000Y-128785714D01*
X145928571Y-129071428D01*
X145857142Y-129214285D01*
X145714285Y-129357142D01*
X145500000Y-129428571D01*
X145142857Y-129428571D01*
D11*
G04 #@! TO.P,C1,2*
G04 #@! TO.N,GND*
X145000000Y-120000000D03*
G04 #@! TO.P,C1,1*
G04 #@! TO.N,VCC*
X145000000Y-118500000D03*
G04 #@! TD*
D12*
G04 #@! TO.P,C3,1*
G04 #@! TO.N,/LowPassIn*
X121500000Y-117000000D03*
G04 #@! TO.P,C3,2*
G04 #@! TO.N,GND*
X121500000Y-120000000D03*
G04 #@! TD*
G04 #@! TO.P,C2,1*
G04 #@! TO.N,/LowPassOut*
X113500000Y-117000000D03*
G04 #@! TO.P,C2,2*
G04 #@! TO.N,GND*
X113500000Y-120000000D03*
G04 #@! TD*
D13*
G04 #@! TO.P,D1,1*
G04 #@! TO.N,GND*
X120500000Y-126500000D03*
G04 #@! TO.P,D1,2*
G04 #@! TO.N,Net-(D1-Pad2)*
X118900000Y-126500000D03*
G04 #@! TD*
D14*
G04 #@! TO.P,J1,1*
G04 #@! TO.N,/EarthGND*
X119500000Y-96500000D03*
D15*
G04 #@! TO.P,J1,2*
G04 #@! TO.N,GND*
X119500000Y-93960000D03*
G04 #@! TD*
G04 #@! TO.P,J2,2*
G04 #@! TO.N,/LowPassIn*
X125000000Y-117000000D03*
D14*
G04 #@! TO.P,J2,1*
G04 #@! TO.N,VCC*
X125000000Y-119540000D03*
G04 #@! TD*
G04 #@! TO.P,J3,1*
G04 #@! TO.N,VCC*
X105500000Y-117000000D03*
D15*
G04 #@! TO.P,J3,2*
G04 #@! TO.N,/OutputVCC*
X105500000Y-119540000D03*
G04 #@! TD*
G04 #@! TO.P,J4,2*
G04 #@! TO.N,/OutputVCC*
X110000000Y-119597001D03*
D14*
G04 #@! TO.P,J4,1*
G04 #@! TO.N,/LowPassOut*
X110000000Y-117057001D03*
G04 #@! TD*
D15*
G04 #@! TO.P,J5,2*
G04 #@! TO.N,GND*
X108040000Y-123500000D03*
D14*
G04 #@! TO.P,J5,1*
G04 #@! TO.N,/OutputVCC*
X105500000Y-123500000D03*
G04 #@! TD*
G04 #@! TO.P,J6,1*
G04 #@! TO.N,/Output3V3*
X149200000Y-123600000D03*
D15*
G04 #@! TO.P,J6,2*
G04 #@! TO.N,GND*
X151740000Y-123600000D03*
G04 #@! TD*
G04 #@! TO.P,J7,2*
G04 #@! TO.N,/AUXout*
X130040000Y-123600000D03*
D14*
G04 #@! TO.P,J7,1*
G04 #@! TO.N,/AUXIn*
X127500000Y-123600000D03*
G04 #@! TD*
D16*
G04 #@! TO.P,J8,1*
G04 #@! TO.N,/OutputVCC*
X105000000Y-129000000D03*
D17*
G04 #@! TO.P,J8,2*
G04 #@! TO.N,GND*
X108500000Y-129000000D03*
G04 #@! TD*
G04 #@! TO.P,J9,2*
G04 #@! TO.N,GND*
X152500000Y-129000000D03*
D16*
G04 #@! TO.P,J9,1*
G04 #@! TO.N,/Output3V3*
X149000000Y-129000000D03*
G04 #@! TD*
G04 #@! TO.P,J10,1*
G04 #@! TO.N,/AUXIn*
X127000000Y-129000000D03*
D17*
G04 #@! TO.P,J10,2*
G04 #@! TO.N,/AUXout*
X130500000Y-129000000D03*
G04 #@! TD*
D18*
G04 #@! TO.P,J11,1*
G04 #@! TO.N,VCC*
X151181981Y-86818019D03*
X148000000Y-85500000D03*
X144818019Y-86818019D03*
X143500000Y-90000000D03*
X144818019Y-93181981D03*
X148000000Y-94500000D03*
X151181981Y-93181981D03*
X152500000Y-90000000D03*
D19*
X148000000Y-90000000D03*
G04 #@! TD*
G04 #@! TO.P,J12,1*
G04 #@! TO.N,/EarthGND*
X129000000Y-90000000D03*
D18*
X133500000Y-90000000D03*
X132181981Y-93181981D03*
X129000000Y-94500000D03*
X125818019Y-93181981D03*
X124500000Y-90000000D03*
X125818019Y-86818019D03*
X129000000Y-85500000D03*
X132181981Y-86818019D03*
G04 #@! TD*
G04 #@! TO.P,J13,1*
G04 #@! TO.N,GND*
X113181981Y-86818019D03*
X110000000Y-85500000D03*
X106818019Y-86818019D03*
X105500000Y-90000000D03*
X106818019Y-93181981D03*
X110000000Y-94500000D03*
X113181981Y-93181981D03*
X114500000Y-90000000D03*
D19*
X110000000Y-90000000D03*
G04 #@! TD*
D20*
G04 #@! TO.P,L2,2*
G04 #@! TO.N,/LowPassOut*
X116400000Y-118000000D03*
G04 #@! TO.P,L2,1*
G04 #@! TO.N,/LowPassIn*
X118600000Y-118000000D03*
G04 #@! TD*
D21*
G04 #@! TO.P,R1,2*
G04 #@! TO.N,Net-(D1-Pad2)*
X117050000Y-126400000D03*
G04 #@! TO.P,R1,1*
G04 #@! TO.N,VCC*
X115550000Y-126400000D03*
G04 #@! TD*
D22*
G04 #@! TO.P,OutVCC,1*
G04 #@! TO.N,/OutputVCC*
X113500000Y-131500000D03*
G04 #@! TD*
G04 #@! TO.P,Output3V3,1*
G04 #@! TO.N,/Output3V3*
X136750000Y-131750000D03*
G04 #@! TD*
G04 #@! TO.P,TP3,1*
G04 #@! TO.N,GND*
X144000000Y-132000000D03*
G04 #@! TD*
D11*
G04 #@! TO.P,C4,2*
G04 #@! TO.N,GND*
X145000000Y-123250000D03*
G04 #@! TO.P,C4,1*
G04 #@! TO.N,/Output3V3*
X145000000Y-121750000D03*
G04 #@! TD*
D23*
G04 #@! TO.P,U1,1*
G04 #@! TO.N,GND*
X142150000Y-123300000D03*
G04 #@! TO.P,U1,3*
G04 #@! TO.N,VCC*
X142150000Y-118700000D03*
G04 #@! TO.P,U1,2*
G04 #@! TO.N,/Output3V3*
X142150000Y-121000000D03*
D24*
X135850000Y-121000000D03*
G04 #@! TD*
D22*
G04 #@! TO.P,EarthGND,1*
G04 #@! TO.N,/EarthGND*
X120800000Y-131600000D03*
G04 #@! TD*
D25*
G04 #@! TO.N,/EarthGND*
X120800000Y-128600000D03*
X129000000Y-116000000D03*
G04 #@! TD*
D26*
G04 #@! TO.N,/LowPassOut*
X116400000Y-118000000D02*
X116400000Y-117600000D01*
X115800000Y-117000000D02*
X113500000Y-117000000D01*
X116400000Y-117600000D02*
X115800000Y-117000000D01*
X110057001Y-117000000D02*
X110000000Y-117057001D01*
X113500000Y-117000000D02*
X110057001Y-117000000D01*
G04 #@! TO.N,GND*
X118485281Y-90000000D02*
X119600000Y-91114719D01*
X110000000Y-90000000D02*
X118485281Y-90000000D01*
X119500000Y-91214719D02*
X119500000Y-93960000D01*
X119600000Y-91114719D02*
X119500000Y-91214719D01*
G04 #@! TO.N,/LowPassIn*
X125000000Y-117000000D02*
X121500000Y-117000000D01*
X119600000Y-117000000D02*
X118600000Y-118000000D01*
X121500000Y-117000000D02*
X119600000Y-117000000D01*
D27*
G04 #@! TO.N,Net-(D1-Pad2)*
X117150000Y-126500000D02*
X117050000Y-126400000D01*
X118900000Y-126500000D02*
X117150000Y-126500000D01*
G04 #@! TO.N,VCC*
X148000000Y-101000000D02*
X148000000Y-109099990D01*
D26*
X144800000Y-118700000D02*
X145000000Y-118500000D01*
X142150000Y-118700000D02*
X144800000Y-118700000D01*
X145000000Y-117350000D02*
X147800000Y-114550000D01*
X145000000Y-118500000D02*
X145000000Y-117350000D01*
X140400000Y-118700000D02*
X139700000Y-118000000D01*
X142150000Y-118700000D02*
X140400000Y-118700000D01*
X126600000Y-119540000D02*
X125000000Y-119540000D01*
X128140000Y-118000000D02*
X126600000Y-119540000D01*
X139700000Y-118000000D02*
X128140000Y-118000000D01*
X115550000Y-125200000D02*
X117550000Y-123200000D01*
X115550000Y-126400000D02*
X115550000Y-125200000D01*
X117550000Y-123200000D02*
X123000000Y-123200000D01*
X125000000Y-121200000D02*
X125000000Y-119540000D01*
X123000000Y-123200000D02*
X125000000Y-121200000D01*
G04 #@! TO.N,/OutputVCC*
X105557001Y-119597001D02*
X105500000Y-119540000D01*
X110000000Y-119597001D02*
X105557001Y-119597001D01*
X105500000Y-119540000D02*
X105500000Y-123500000D01*
X105500000Y-128500000D02*
X105000000Y-129000000D01*
X105500000Y-123500000D02*
X105500000Y-128500000D01*
X105000000Y-130950000D02*
X105650000Y-131600000D01*
X105000000Y-129000000D02*
X105000000Y-130950000D01*
X105750000Y-131500000D02*
X113500000Y-131500000D01*
X105650000Y-131600000D02*
X105750000Y-131500000D01*
D27*
G04 #@! TO.N,/Output3V3*
X142150000Y-121000000D02*
X142400000Y-121000000D01*
X143150000Y-121750000D02*
X145000000Y-121750000D01*
X142400000Y-121000000D02*
X143150000Y-121750000D01*
X149200000Y-122500000D02*
X149200000Y-123600000D01*
X148450000Y-121750000D02*
X149200000Y-122500000D01*
X145000000Y-121750000D02*
X148450000Y-121750000D01*
X149200000Y-128800000D02*
X149000000Y-129000000D01*
X149200000Y-123600000D02*
X149200000Y-128800000D01*
X137100000Y-121000000D02*
X142150000Y-121000000D01*
X135850000Y-121000000D02*
X137100000Y-121000000D01*
X135850000Y-131850000D02*
X136000000Y-132000000D01*
X135850000Y-121000000D02*
X135850000Y-131850000D01*
D26*
G04 #@! TO.N,/EarthGND*
X122500000Y-96500000D02*
X129000000Y-90000000D01*
X119500000Y-96500000D02*
X122500000Y-96500000D01*
X120800000Y-131600000D02*
X120800000Y-128600000D01*
X120800000Y-128600000D02*
X120800000Y-128600000D01*
X129000000Y-116000000D02*
X129000000Y-114200000D01*
G04 #@! TO.N,/AUXout*
X130040000Y-128540000D02*
X130500000Y-129000000D01*
X130040000Y-123600000D02*
X130040000Y-128540000D01*
G04 #@! TO.N,/AUXIn*
X127500000Y-128500000D02*
X127000000Y-129000000D01*
X127500000Y-123600000D02*
X127500000Y-128500000D01*
G04 #@! TD*
D28*
G04 #@! TO.N,GND*
G36*
X113386614Y-111873000D02*
X106613386Y-111873000D01*
X106343727Y-109500000D01*
X106794043Y-109500000D01*
X106798000Y-109519893D01*
X106798001Y-110980103D01*
X106794043Y-111000000D01*
X106809721Y-111078816D01*
X106854366Y-111145634D01*
X106921184Y-111190279D01*
X106980107Y-111202000D01*
X106980108Y-111202000D01*
X107000000Y-111205957D01*
X107019893Y-111202000D01*
X112980108Y-111202000D01*
X113000000Y-111205957D01*
X113078816Y-111190279D01*
X113145634Y-111145634D01*
X113190279Y-111078816D01*
X113202000Y-111019893D01*
X113205957Y-111000000D01*
X113202000Y-110980107D01*
X113202000Y-109519893D01*
X113205957Y-109500000D01*
X113190279Y-109421184D01*
X113145634Y-109354366D01*
X113078816Y-109309721D01*
X113019893Y-109298000D01*
X113019892Y-109298000D01*
X113000000Y-109294043D01*
X112980107Y-109298000D01*
X107019892Y-109298000D01*
X107000000Y-109294043D01*
X106980107Y-109298000D01*
X106921184Y-109309721D01*
X106854366Y-109354366D01*
X106809721Y-109421184D01*
X106794043Y-109500000D01*
X106343727Y-109500000D01*
X104142249Y-90127000D01*
X115857751Y-90127000D01*
X113386614Y-111873000D01*
X113386614Y-111873000D01*
G37*
X113386614Y-111873000D02*
X106613386Y-111873000D01*
X106343727Y-109500000D01*
X106794043Y-109500000D01*
X106798000Y-109519893D01*
X106798001Y-110980103D01*
X106794043Y-111000000D01*
X106809721Y-111078816D01*
X106854366Y-111145634D01*
X106921184Y-111190279D01*
X106980107Y-111202000D01*
X106980108Y-111202000D01*
X107000000Y-111205957D01*
X107019893Y-111202000D01*
X112980108Y-111202000D01*
X113000000Y-111205957D01*
X113078816Y-111190279D01*
X113145634Y-111145634D01*
X113190279Y-111078816D01*
X113202000Y-111019893D01*
X113205957Y-111000000D01*
X113202000Y-110980107D01*
X113202000Y-109519893D01*
X113205957Y-109500000D01*
X113190279Y-109421184D01*
X113145634Y-109354366D01*
X113078816Y-109309721D01*
X113019893Y-109298000D01*
X113019892Y-109298000D01*
X113000000Y-109294043D01*
X112980107Y-109298000D01*
X107019892Y-109298000D01*
X107000000Y-109294043D01*
X106980107Y-109298000D01*
X106921184Y-109309721D01*
X106854366Y-109354366D01*
X106809721Y-109421184D01*
X106794043Y-109500000D01*
X106343727Y-109500000D01*
X104142249Y-90127000D01*
X115857751Y-90127000D01*
X113386614Y-111873000D01*
G04 #@! TO.N,/EarthGND*
G36*
X132486101Y-111873000D02*
X125712874Y-111873000D01*
X125649729Y-111338694D01*
X125654366Y-111345634D01*
X125721184Y-111390279D01*
X125800000Y-111405957D01*
X125819892Y-111402000D01*
X132180108Y-111402000D01*
X132200000Y-111405957D01*
X132278816Y-111390279D01*
X132345634Y-111345634D01*
X132390279Y-111278816D01*
X132402000Y-111219893D01*
X132402000Y-111219892D01*
X132405957Y-111200000D01*
X132402000Y-111180107D01*
X132402000Y-109319893D01*
X132405957Y-109300000D01*
X132390279Y-109221184D01*
X132345634Y-109154366D01*
X132278816Y-109109721D01*
X132219893Y-109098000D01*
X132219892Y-109098000D01*
X132200000Y-109094043D01*
X132180107Y-109098000D01*
X125819893Y-109098000D01*
X125800000Y-109094043D01*
X125780108Y-109098000D01*
X125780107Y-109098000D01*
X125721184Y-109109721D01*
X125654366Y-109154366D01*
X125609721Y-109221184D01*
X125594043Y-109300000D01*
X125598001Y-109319897D01*
X125598000Y-110900990D01*
X123142893Y-90127000D01*
X134858392Y-90127000D01*
X132486101Y-111873000D01*
X132486101Y-111873000D01*
G37*
X132486101Y-111873000D02*
X125712874Y-111873000D01*
X125649729Y-111338694D01*
X125654366Y-111345634D01*
X125721184Y-111390279D01*
X125800000Y-111405957D01*
X125819892Y-111402000D01*
X132180108Y-111402000D01*
X132200000Y-111405957D01*
X132278816Y-111390279D01*
X132345634Y-111345634D01*
X132390279Y-111278816D01*
X132402000Y-111219893D01*
X132402000Y-111219892D01*
X132405957Y-111200000D01*
X132402000Y-111180107D01*
X132402000Y-109319893D01*
X132405957Y-109300000D01*
X132390279Y-109221184D01*
X132345634Y-109154366D01*
X132278816Y-109109721D01*
X132219893Y-109098000D01*
X132219892Y-109098000D01*
X132200000Y-109094043D01*
X132180107Y-109098000D01*
X125819893Y-109098000D01*
X125800000Y-109094043D01*
X125780108Y-109098000D01*
X125780107Y-109098000D01*
X125721184Y-109109721D01*
X125654366Y-109154366D01*
X125609721Y-109221184D01*
X125594043Y-109300000D01*
X125598001Y-109319897D01*
X125598000Y-110900990D01*
X123142893Y-90127000D01*
X134858392Y-90127000D01*
X132486101Y-111873000D01*
G04 #@! TO.N,VCC*
G36*
X151386614Y-111873000D02*
X144613386Y-111873000D01*
X144321000Y-109300000D01*
X144594043Y-109300000D01*
X144598001Y-109319897D01*
X144598000Y-111180107D01*
X144594043Y-111200000D01*
X144609721Y-111278816D01*
X144641334Y-111326130D01*
X144654366Y-111345634D01*
X144721184Y-111390279D01*
X144800000Y-111405957D01*
X144819892Y-111402000D01*
X151180108Y-111402000D01*
X151200000Y-111405957D01*
X151278816Y-111390279D01*
X151345634Y-111345634D01*
X151390279Y-111278816D01*
X151402000Y-111219893D01*
X151402000Y-111219892D01*
X151405957Y-111200000D01*
X151402000Y-111180107D01*
X151402000Y-109319893D01*
X151405957Y-109300000D01*
X151390279Y-109221184D01*
X151345634Y-109154366D01*
X151278816Y-109109721D01*
X151219893Y-109098000D01*
X151219892Y-109098000D01*
X151200000Y-109094043D01*
X151180107Y-109098000D01*
X144819893Y-109098000D01*
X144800000Y-109094043D01*
X144780108Y-109098000D01*
X144780107Y-109098000D01*
X144721184Y-109109721D01*
X144654366Y-109154366D01*
X144609721Y-109221184D01*
X144594043Y-109300000D01*
X144321000Y-109300000D01*
X142142249Y-90127000D01*
X153857751Y-90127000D01*
X151386614Y-111873000D01*
X151386614Y-111873000D01*
G37*
X151386614Y-111873000D02*
X144613386Y-111873000D01*
X144321000Y-109300000D01*
X144594043Y-109300000D01*
X144598001Y-109319897D01*
X144598000Y-111180107D01*
X144594043Y-111200000D01*
X144609721Y-111278816D01*
X144641334Y-111326130D01*
X144654366Y-111345634D01*
X144721184Y-111390279D01*
X144800000Y-111405957D01*
X144819892Y-111402000D01*
X151180108Y-111402000D01*
X151200000Y-111405957D01*
X151278816Y-111390279D01*
X151345634Y-111345634D01*
X151390279Y-111278816D01*
X151402000Y-111219893D01*
X151402000Y-111219892D01*
X151405957Y-111200000D01*
X151402000Y-111180107D01*
X151402000Y-109319893D01*
X151405957Y-109300000D01*
X151390279Y-109221184D01*
X151345634Y-109154366D01*
X151278816Y-109109721D01*
X151219893Y-109098000D01*
X151219892Y-109098000D01*
X151200000Y-109094043D01*
X151180107Y-109098000D01*
X144819893Y-109098000D01*
X144800000Y-109094043D01*
X144780108Y-109098000D01*
X144780107Y-109098000D01*
X144721184Y-109109721D01*
X144654366Y-109154366D01*
X144609721Y-109221184D01*
X144594043Y-109300000D01*
X144321000Y-109300000D01*
X142142249Y-90127000D01*
X153857751Y-90127000D01*
X151386614Y-111873000D01*
G04 #@! TO.N,GND*
G36*
X112698001Y-113863391D02*
X112691973Y-113872412D01*
X112673000Y-113967796D01*
X112673001Y-114967790D01*
X112666594Y-115000000D01*
X112691973Y-115127589D01*
X112764246Y-115235754D01*
X112872411Y-115308027D01*
X112967795Y-115327000D01*
X113000000Y-115333406D01*
X113032205Y-115327000D01*
X125575757Y-115327000D01*
X125573283Y-115386387D01*
X125597891Y-115525137D01*
X125668776Y-115631224D01*
X125774863Y-115702109D01*
X125900000Y-115727000D01*
X128298000Y-115727000D01*
X128298000Y-115795035D01*
X128273000Y-115855391D01*
X128273000Y-116144609D01*
X128383679Y-116411813D01*
X128588187Y-116616321D01*
X128855391Y-116727000D01*
X129144609Y-116727000D01*
X129411813Y-116616321D01*
X129616321Y-116411813D01*
X129727000Y-116144609D01*
X129727000Y-115855391D01*
X129702000Y-115795035D01*
X129702000Y-115727000D01*
X132000000Y-115727000D01*
X132125137Y-115702109D01*
X132231224Y-115631224D01*
X132302109Y-115525137D01*
X132327000Y-115400000D01*
X132327000Y-115327000D01*
X144583259Y-115327000D01*
X144573242Y-115587432D01*
X144597891Y-115725137D01*
X144668776Y-115831224D01*
X144774863Y-115902109D01*
X144900000Y-115927000D01*
X145430223Y-115927000D01*
X144552498Y-116804725D01*
X144493888Y-116843887D01*
X144454726Y-116902497D01*
X144454725Y-116902498D01*
X144338732Y-117076093D01*
X144284249Y-117350000D01*
X144298001Y-117419136D01*
X144298000Y-117998000D01*
X143483406Y-117998000D01*
X143483406Y-117950000D01*
X143458027Y-117822411D01*
X143385754Y-117714246D01*
X143277589Y-117641973D01*
X143150000Y-117616594D01*
X141150000Y-117616594D01*
X141022411Y-117641973D01*
X140914246Y-117714246D01*
X140841973Y-117822411D01*
X140816594Y-117950000D01*
X140816594Y-117998000D01*
X140690778Y-117998000D01*
X140245277Y-117552500D01*
X140206113Y-117493887D01*
X139973906Y-117338731D01*
X139769136Y-117298000D01*
X139769132Y-117298000D01*
X139700000Y-117284249D01*
X139630868Y-117298000D01*
X128209132Y-117298000D01*
X128140000Y-117284249D01*
X128070868Y-117298000D01*
X128070864Y-117298000D01*
X127866094Y-117338731D01*
X127633887Y-117493887D01*
X127594725Y-117552497D01*
X126309223Y-118838000D01*
X126183406Y-118838000D01*
X126183406Y-118690000D01*
X126158027Y-118562411D01*
X126085754Y-118454246D01*
X125977589Y-118381973D01*
X125850000Y-118356594D01*
X124150000Y-118356594D01*
X124022411Y-118381973D01*
X123914246Y-118454246D01*
X123841973Y-118562411D01*
X123816594Y-118690000D01*
X123816594Y-120390000D01*
X123841973Y-120517589D01*
X123914246Y-120625754D01*
X124022411Y-120698027D01*
X124150000Y-120723406D01*
X124298000Y-120723406D01*
X124298000Y-120909222D01*
X122709223Y-122498000D01*
X117619131Y-122498000D01*
X117549999Y-122484249D01*
X117480867Y-122498000D01*
X117480864Y-122498000D01*
X117276094Y-122538731D01*
X117276093Y-122538732D01*
X117276092Y-122538732D01*
X117150858Y-122622411D01*
X117043887Y-122693887D01*
X117004725Y-122752497D01*
X115102498Y-124654725D01*
X115043888Y-124693887D01*
X115004726Y-124752497D01*
X115004725Y-124752498D01*
X114888732Y-124926093D01*
X114834249Y-125200000D01*
X114848001Y-125269136D01*
X114848000Y-126469135D01*
X114888731Y-126673905D01*
X114966594Y-126790435D01*
X114966594Y-126850000D01*
X114991973Y-126977589D01*
X115064246Y-127085754D01*
X115172411Y-127158027D01*
X115300000Y-127183406D01*
X115800000Y-127183406D01*
X115927589Y-127158027D01*
X116035754Y-127085754D01*
X116108027Y-126977589D01*
X116133406Y-126850000D01*
X116133406Y-126790435D01*
X116211269Y-126673906D01*
X116252000Y-126469136D01*
X116252000Y-125950000D01*
X116466594Y-125950000D01*
X116466594Y-126850000D01*
X116491973Y-126977589D01*
X116564246Y-127085754D01*
X116672411Y-127158027D01*
X116800000Y-127183406D01*
X117300000Y-127183406D01*
X117427589Y-127158027D01*
X117535754Y-127085754D01*
X117608027Y-126977589D01*
X117613117Y-126952000D01*
X118176937Y-126952000D01*
X118191973Y-127027589D01*
X118264246Y-127135754D01*
X118372411Y-127208027D01*
X118500000Y-127233406D01*
X119300000Y-127233406D01*
X119427589Y-127208027D01*
X119535754Y-127135754D01*
X119608027Y-127027589D01*
X119633406Y-126900000D01*
X119633406Y-126100000D01*
X119608027Y-125972411D01*
X119535754Y-125864246D01*
X119427589Y-125791973D01*
X119300000Y-125766594D01*
X118500000Y-125766594D01*
X118372411Y-125791973D01*
X118264246Y-125864246D01*
X118191973Y-125972411D01*
X118176937Y-126048000D01*
X117633406Y-126048000D01*
X117633406Y-125950000D01*
X117608027Y-125822411D01*
X117535754Y-125714246D01*
X117427589Y-125641973D01*
X117300000Y-125616594D01*
X116800000Y-125616594D01*
X116672411Y-125641973D01*
X116564246Y-125714246D01*
X116491973Y-125822411D01*
X116466594Y-125950000D01*
X116252000Y-125950000D01*
X116252000Y-125490777D01*
X117840778Y-123902000D01*
X122930868Y-123902000D01*
X123000000Y-123915751D01*
X123069132Y-123902000D01*
X123069136Y-123902000D01*
X123273906Y-123861269D01*
X123506113Y-123706113D01*
X123545277Y-123647500D01*
X125447505Y-121745273D01*
X125506112Y-121706113D01*
X125545273Y-121647505D01*
X125545275Y-121647503D01*
X125661268Y-121473908D01*
X125661268Y-121473907D01*
X125661269Y-121473906D01*
X125702000Y-121269136D01*
X125702000Y-121269133D01*
X125715751Y-121200001D01*
X125702000Y-121130869D01*
X125702000Y-120723406D01*
X125850000Y-120723406D01*
X125977589Y-120698027D01*
X126085754Y-120625754D01*
X126158027Y-120517589D01*
X126183406Y-120390000D01*
X126183406Y-120242000D01*
X126530868Y-120242000D01*
X126600000Y-120255751D01*
X126669132Y-120242000D01*
X126669136Y-120242000D01*
X126873906Y-120201269D01*
X127106113Y-120046113D01*
X127145277Y-119987500D01*
X128032777Y-119100000D01*
X134516594Y-119100000D01*
X134516594Y-122900000D01*
X134541973Y-123027589D01*
X134614246Y-123135754D01*
X134722411Y-123208027D01*
X134850000Y-123233406D01*
X135398000Y-123233406D01*
X135398001Y-129916594D01*
X135250000Y-129916594D01*
X135122411Y-129941973D01*
X135014246Y-130014246D01*
X134941973Y-130122411D01*
X134916594Y-130250000D01*
X134916594Y-133250000D01*
X134941973Y-133377589D01*
X135014246Y-133485754D01*
X135122411Y-133558027D01*
X135250000Y-133583406D01*
X138250000Y-133583406D01*
X138377589Y-133558027D01*
X138485754Y-133485754D01*
X138558027Y-133377589D01*
X138583406Y-133250000D01*
X138583406Y-130250000D01*
X138558027Y-130122411D01*
X138485754Y-130014246D01*
X138377589Y-129941973D01*
X138250000Y-129916594D01*
X136302000Y-129916594D01*
X136302000Y-127268000D01*
X141237286Y-127268000D01*
X141237286Y-130472000D01*
X146762715Y-130472000D01*
X146762715Y-127268000D01*
X141237286Y-127268000D01*
X136302000Y-127268000D01*
X136302000Y-123233406D01*
X136850000Y-123233406D01*
X136977589Y-123208027D01*
X137085754Y-123135754D01*
X137158027Y-123027589D01*
X137183406Y-122900000D01*
X137183406Y-121452000D01*
X140816594Y-121452000D01*
X140816594Y-121750000D01*
X140841973Y-121877589D01*
X140914246Y-121985754D01*
X141022411Y-122058027D01*
X141150000Y-122083406D01*
X142835398Y-122083406D01*
X142861866Y-122101091D01*
X142973638Y-122175775D01*
X143149999Y-122210855D01*
X143194517Y-122202000D01*
X144301937Y-122202000D01*
X144316973Y-122277589D01*
X144389246Y-122385754D01*
X144497411Y-122458027D01*
X144625000Y-122483406D01*
X145375000Y-122483406D01*
X145502589Y-122458027D01*
X145610754Y-122385754D01*
X145683027Y-122277589D01*
X145698063Y-122202000D01*
X148262776Y-122202000D01*
X148477370Y-122416594D01*
X148350000Y-122416594D01*
X148222411Y-122441973D01*
X148114246Y-122514246D01*
X148041973Y-122622411D01*
X148016594Y-122750000D01*
X148016594Y-124450000D01*
X148041973Y-124577589D01*
X148114246Y-124685754D01*
X148222411Y-124758027D01*
X148350000Y-124783406D01*
X148748000Y-124783406D01*
X148748001Y-127466594D01*
X147800000Y-127466594D01*
X147672411Y-127491973D01*
X147564246Y-127564246D01*
X147491973Y-127672411D01*
X147466594Y-127800000D01*
X147466594Y-130200000D01*
X147491973Y-130327589D01*
X147564246Y-130435754D01*
X147672411Y-130508027D01*
X147800000Y-130533406D01*
X150200000Y-130533406D01*
X150327589Y-130508027D01*
X150435754Y-130435754D01*
X150508027Y-130327589D01*
X150533406Y-130200000D01*
X150533406Y-127800000D01*
X150508027Y-127672411D01*
X150435754Y-127564246D01*
X150327589Y-127491973D01*
X150200000Y-127466594D01*
X149652000Y-127466594D01*
X149652000Y-124783406D01*
X150050000Y-124783406D01*
X150177589Y-124758027D01*
X150285754Y-124685754D01*
X150358027Y-124577589D01*
X150383406Y-124450000D01*
X150383406Y-122750000D01*
X150358027Y-122622411D01*
X150285754Y-122514246D01*
X150177589Y-122441973D01*
X150050000Y-122416594D01*
X149644265Y-122416594D01*
X149625775Y-122323638D01*
X149551091Y-122211866D01*
X149525874Y-122174126D01*
X149488134Y-122148909D01*
X148801093Y-121461869D01*
X148775874Y-121424126D01*
X148626362Y-121324225D01*
X148494518Y-121298000D01*
X148450000Y-121289145D01*
X148405482Y-121298000D01*
X145698063Y-121298000D01*
X145683027Y-121222411D01*
X145610754Y-121114246D01*
X145502589Y-121041973D01*
X145375000Y-121016594D01*
X144625000Y-121016594D01*
X144497411Y-121041973D01*
X144389246Y-121114246D01*
X144316973Y-121222411D01*
X144301937Y-121298000D01*
X143483406Y-121298000D01*
X143483406Y-120250000D01*
X143458027Y-120122411D01*
X143385754Y-120014246D01*
X143277589Y-119941973D01*
X143150000Y-119916594D01*
X141150000Y-119916594D01*
X141022411Y-119941973D01*
X140914246Y-120014246D01*
X140841973Y-120122411D01*
X140816594Y-120250000D01*
X140816594Y-120548000D01*
X137183406Y-120548000D01*
X137183406Y-119100000D01*
X137158027Y-118972411D01*
X137085754Y-118864246D01*
X136977589Y-118791973D01*
X136850000Y-118766594D01*
X134850000Y-118766594D01*
X134722411Y-118791973D01*
X134614246Y-118864246D01*
X134541973Y-118972411D01*
X134516594Y-119100000D01*
X128032777Y-119100000D01*
X128430778Y-118702000D01*
X139409223Y-118702000D01*
X139854725Y-119147503D01*
X139893887Y-119206113D01*
X139952497Y-119245275D01*
X140126092Y-119361268D01*
X140126093Y-119361268D01*
X140126094Y-119361269D01*
X140330864Y-119402000D01*
X140330867Y-119402000D01*
X140399999Y-119415751D01*
X140469131Y-119402000D01*
X140816594Y-119402000D01*
X140816594Y-119450000D01*
X140841973Y-119577589D01*
X140914246Y-119685754D01*
X141022411Y-119758027D01*
X141150000Y-119783406D01*
X143150000Y-119783406D01*
X143277589Y-119758027D01*
X143385754Y-119685754D01*
X143458027Y-119577589D01*
X143483406Y-119450000D01*
X143483406Y-119402000D01*
X144730868Y-119402000D01*
X144800000Y-119415751D01*
X144869132Y-119402000D01*
X144869136Y-119402000D01*
X145073906Y-119361269D01*
X145265266Y-119233406D01*
X145375000Y-119233406D01*
X145502589Y-119208027D01*
X145610754Y-119135754D01*
X145683027Y-119027589D01*
X145708406Y-118900000D01*
X145708406Y-118536930D01*
X145715752Y-118500000D01*
X145708406Y-118463070D01*
X145708406Y-118100000D01*
X145702000Y-118067795D01*
X145702000Y-117640777D01*
X147415778Y-115927000D01*
X151000000Y-115927000D01*
X151125137Y-115902109D01*
X151231224Y-115831224D01*
X151302109Y-115725137D01*
X151327000Y-115600000D01*
X151327000Y-115327000D01*
X154673000Y-115327000D01*
X154673001Y-133673000D01*
X102827000Y-133673000D01*
X102827000Y-127800000D01*
X103466594Y-127800000D01*
X103466594Y-130200000D01*
X103491973Y-130327589D01*
X103564246Y-130435754D01*
X103672411Y-130508027D01*
X103800000Y-130533406D01*
X104298001Y-130533406D01*
X104298001Y-130880864D01*
X104284249Y-130950000D01*
X104338732Y-131223907D01*
X104407011Y-131326093D01*
X104493888Y-131456113D01*
X104552498Y-131495275D01*
X105104725Y-132047503D01*
X105143887Y-132106113D01*
X105202497Y-132145275D01*
X105376093Y-132261268D01*
X105650000Y-132315751D01*
X105923907Y-132261268D01*
X106012608Y-132202000D01*
X111666594Y-132202000D01*
X111666594Y-133000000D01*
X111691973Y-133127589D01*
X111764246Y-133235754D01*
X111872411Y-133308027D01*
X112000000Y-133333406D01*
X115000000Y-133333406D01*
X115127589Y-133308027D01*
X115235754Y-133235754D01*
X115308027Y-133127589D01*
X115333406Y-133000000D01*
X115333406Y-130100000D01*
X118966594Y-130100000D01*
X118966594Y-133100000D01*
X118991973Y-133227589D01*
X119064246Y-133335754D01*
X119172411Y-133408027D01*
X119300000Y-133433406D01*
X122300000Y-133433406D01*
X122427589Y-133408027D01*
X122535754Y-133335754D01*
X122608027Y-133227589D01*
X122633406Y-133100000D01*
X122633406Y-130100000D01*
X122608027Y-129972411D01*
X122535754Y-129864246D01*
X122427589Y-129791973D01*
X122300000Y-129766594D01*
X121502000Y-129766594D01*
X121502000Y-128804965D01*
X121527000Y-128744609D01*
X121527000Y-128455391D01*
X121416321Y-128188187D01*
X121211813Y-127983679D01*
X120944609Y-127873000D01*
X120655391Y-127873000D01*
X120388187Y-127983679D01*
X120183679Y-128188187D01*
X120073000Y-128455391D01*
X120073000Y-128744609D01*
X120098001Y-128804967D01*
X120098001Y-129766594D01*
X119300000Y-129766594D01*
X119172411Y-129791973D01*
X119064246Y-129864246D01*
X118991973Y-129972411D01*
X118966594Y-130100000D01*
X115333406Y-130100000D01*
X115333406Y-130000000D01*
X115308027Y-129872411D01*
X115235754Y-129764246D01*
X115127589Y-129691973D01*
X115000000Y-129666594D01*
X112000000Y-129666594D01*
X111872411Y-129691973D01*
X111764246Y-129764246D01*
X111691973Y-129872411D01*
X111666594Y-130000000D01*
X111666594Y-130798000D01*
X105840778Y-130798000D01*
X105702000Y-130659223D01*
X105702000Y-130533406D01*
X106200000Y-130533406D01*
X106327589Y-130508027D01*
X106435754Y-130435754D01*
X106508027Y-130327589D01*
X106533406Y-130200000D01*
X106533406Y-127800000D01*
X125466594Y-127800000D01*
X125466594Y-130200000D01*
X125491973Y-130327589D01*
X125564246Y-130435754D01*
X125672411Y-130508027D01*
X125800000Y-130533406D01*
X128200000Y-130533406D01*
X128327589Y-130508027D01*
X128435754Y-130435754D01*
X128508027Y-130327589D01*
X128533406Y-130200000D01*
X128533406Y-127800000D01*
X128508027Y-127672411D01*
X128435754Y-127564246D01*
X128327589Y-127491973D01*
X128202000Y-127466992D01*
X128202000Y-124783406D01*
X128350000Y-124783406D01*
X128477589Y-124758027D01*
X128585754Y-124685754D01*
X128658027Y-124577589D01*
X128683406Y-124450000D01*
X128683406Y-123600000D01*
X128839942Y-123600000D01*
X128931291Y-124059242D01*
X129191431Y-124448569D01*
X129338000Y-124546503D01*
X129338001Y-128002495D01*
X129205472Y-128135024D01*
X128973000Y-128696261D01*
X128973000Y-129303739D01*
X129205472Y-129864976D01*
X129635024Y-130294528D01*
X130196261Y-130527000D01*
X130803739Y-130527000D01*
X131364976Y-130294528D01*
X131794528Y-129864976D01*
X132027000Y-129303739D01*
X132027000Y-128696261D01*
X131794528Y-128135024D01*
X131364976Y-127705472D01*
X130803739Y-127473000D01*
X130742000Y-127473000D01*
X130742000Y-124546503D01*
X130888569Y-124448569D01*
X131148709Y-124059242D01*
X131240058Y-123600000D01*
X131148709Y-123140758D01*
X130888569Y-122751431D01*
X130499242Y-122491291D01*
X130155920Y-122423000D01*
X129924080Y-122423000D01*
X129580758Y-122491291D01*
X129191431Y-122751431D01*
X128931291Y-123140758D01*
X128839942Y-123600000D01*
X128683406Y-123600000D01*
X128683406Y-122750000D01*
X128658027Y-122622411D01*
X128585754Y-122514246D01*
X128477589Y-122441973D01*
X128350000Y-122416594D01*
X126650000Y-122416594D01*
X126522411Y-122441973D01*
X126414246Y-122514246D01*
X126341973Y-122622411D01*
X126316594Y-122750000D01*
X126316594Y-124450000D01*
X126341973Y-124577589D01*
X126414246Y-124685754D01*
X126522411Y-124758027D01*
X126650000Y-124783406D01*
X126798000Y-124783406D01*
X126798001Y-127466594D01*
X125800000Y-127466594D01*
X125672411Y-127491973D01*
X125564246Y-127564246D01*
X125491973Y-127672411D01*
X125466594Y-127800000D01*
X106533406Y-127800000D01*
X106508027Y-127672411D01*
X106435754Y-127564246D01*
X106327589Y-127491973D01*
X106202000Y-127466992D01*
X106202000Y-124683406D01*
X106350000Y-124683406D01*
X106477589Y-124658027D01*
X106585754Y-124585754D01*
X106658027Y-124477589D01*
X106683406Y-124350000D01*
X106683406Y-122650000D01*
X106658027Y-122522411D01*
X106585754Y-122414246D01*
X106477589Y-122341973D01*
X106350000Y-122316594D01*
X106202000Y-122316594D01*
X106202000Y-120486503D01*
X106348569Y-120388569D01*
X106408416Y-120299001D01*
X109053497Y-120299001D01*
X109151431Y-120445570D01*
X109540758Y-120705710D01*
X109884080Y-120774001D01*
X110115920Y-120774001D01*
X110459242Y-120705710D01*
X110848569Y-120445570D01*
X111108709Y-120056243D01*
X111200058Y-119597001D01*
X111108709Y-119137759D01*
X110848569Y-118748432D01*
X110459242Y-118488292D01*
X110115920Y-118420001D01*
X109884080Y-118420001D01*
X109540758Y-118488292D01*
X109151431Y-118748432D01*
X109053497Y-118895001D01*
X106484590Y-118895001D01*
X106348569Y-118691431D01*
X105959242Y-118431291D01*
X105615920Y-118363000D01*
X105384080Y-118363000D01*
X105040758Y-118431291D01*
X104651431Y-118691431D01*
X104391291Y-119080758D01*
X104299942Y-119540000D01*
X104391291Y-119999242D01*
X104651431Y-120388569D01*
X104798000Y-120486503D01*
X104798001Y-122316594D01*
X104650000Y-122316594D01*
X104522411Y-122341973D01*
X104414246Y-122414246D01*
X104341973Y-122522411D01*
X104316594Y-122650000D01*
X104316594Y-124350000D01*
X104341973Y-124477589D01*
X104414246Y-124585754D01*
X104522411Y-124658027D01*
X104650000Y-124683406D01*
X104798000Y-124683406D01*
X104798001Y-127466594D01*
X103800000Y-127466594D01*
X103672411Y-127491973D01*
X103564246Y-127564246D01*
X103491973Y-127672411D01*
X103466594Y-127800000D01*
X102827000Y-127800000D01*
X102827000Y-116150000D01*
X104316594Y-116150000D01*
X104316594Y-117850000D01*
X104341973Y-117977589D01*
X104414246Y-118085754D01*
X104522411Y-118158027D01*
X104650000Y-118183406D01*
X106350000Y-118183406D01*
X106477589Y-118158027D01*
X106585754Y-118085754D01*
X106658027Y-117977589D01*
X106683406Y-117850000D01*
X106683406Y-116207001D01*
X108816594Y-116207001D01*
X108816594Y-117907001D01*
X108841973Y-118034590D01*
X108914246Y-118142755D01*
X109022411Y-118215028D01*
X109150000Y-118240407D01*
X110850000Y-118240407D01*
X110977589Y-118215028D01*
X111085754Y-118142755D01*
X111158027Y-118034590D01*
X111183406Y-117907001D01*
X111183406Y-117702000D01*
X111991692Y-117702000D01*
X112014246Y-117735754D01*
X112122411Y-117808027D01*
X112250000Y-117833406D01*
X114750000Y-117833406D01*
X114877589Y-117808027D01*
X114985754Y-117735754D01*
X115008308Y-117702000D01*
X115509223Y-117702000D01*
X115666594Y-117859372D01*
X115666594Y-119350000D01*
X115691973Y-119477589D01*
X115764246Y-119585754D01*
X115872411Y-119658027D01*
X116000000Y-119683406D01*
X116800000Y-119683406D01*
X116927589Y-119658027D01*
X117035754Y-119585754D01*
X117108027Y-119477589D01*
X117133406Y-119350000D01*
X117133406Y-116650000D01*
X117866594Y-116650000D01*
X117866594Y-119350000D01*
X117891973Y-119477589D01*
X117964246Y-119585754D01*
X118072411Y-119658027D01*
X118200000Y-119683406D01*
X119000000Y-119683406D01*
X119127589Y-119658027D01*
X119235754Y-119585754D01*
X119308027Y-119477589D01*
X119333406Y-119350000D01*
X119333406Y-118259371D01*
X119890778Y-117702000D01*
X119991692Y-117702000D01*
X120014246Y-117735754D01*
X120122411Y-117808027D01*
X120250000Y-117833406D01*
X122750000Y-117833406D01*
X122877589Y-117808027D01*
X122985754Y-117735754D01*
X123008308Y-117702000D01*
X124053497Y-117702000D01*
X124151431Y-117848569D01*
X124540758Y-118108709D01*
X124884080Y-118177000D01*
X125115920Y-118177000D01*
X125459242Y-118108709D01*
X125848569Y-117848569D01*
X126108709Y-117459242D01*
X126200058Y-117000000D01*
X126108709Y-116540758D01*
X125848569Y-116151431D01*
X125459242Y-115891291D01*
X125115920Y-115823000D01*
X124884080Y-115823000D01*
X124540758Y-115891291D01*
X124151431Y-116151431D01*
X124053497Y-116298000D01*
X123008308Y-116298000D01*
X122985754Y-116264246D01*
X122877589Y-116191973D01*
X122750000Y-116166594D01*
X120250000Y-116166594D01*
X120122411Y-116191973D01*
X120014246Y-116264246D01*
X119991692Y-116298000D01*
X119669135Y-116298000D01*
X119600000Y-116284248D01*
X119530865Y-116298000D01*
X119530864Y-116298000D01*
X119326094Y-116338731D01*
X119224416Y-116406670D01*
X119127589Y-116341973D01*
X119000000Y-116316594D01*
X118200000Y-116316594D01*
X118072411Y-116341973D01*
X117964246Y-116414246D01*
X117891973Y-116522411D01*
X117866594Y-116650000D01*
X117133406Y-116650000D01*
X117108027Y-116522411D01*
X117035754Y-116414246D01*
X116927589Y-116341973D01*
X116800000Y-116316594D01*
X116000000Y-116316594D01*
X115981308Y-116320312D01*
X115869136Y-116298000D01*
X115869132Y-116298000D01*
X115800000Y-116284249D01*
X115730868Y-116298000D01*
X115008308Y-116298000D01*
X114985754Y-116264246D01*
X114877589Y-116191973D01*
X114750000Y-116166594D01*
X112250000Y-116166594D01*
X112122411Y-116191973D01*
X112014246Y-116264246D01*
X111991692Y-116298000D01*
X111183406Y-116298000D01*
X111183406Y-116207001D01*
X111158027Y-116079412D01*
X111085754Y-115971247D01*
X110977589Y-115898974D01*
X110850000Y-115873595D01*
X109150000Y-115873595D01*
X109022411Y-115898974D01*
X108914246Y-115971247D01*
X108841973Y-116079412D01*
X108816594Y-116207001D01*
X106683406Y-116207001D01*
X106683406Y-116150000D01*
X106658027Y-116022411D01*
X106585754Y-115914246D01*
X106477589Y-115841973D01*
X106350000Y-115816594D01*
X104650000Y-115816594D01*
X104522411Y-115841973D01*
X104414246Y-115914246D01*
X104341973Y-116022411D01*
X104316594Y-116150000D01*
X102827000Y-116150000D01*
X102827000Y-115327000D01*
X107032205Y-115327000D01*
X107127589Y-115308027D01*
X107235754Y-115235754D01*
X107308027Y-115127589D01*
X107333406Y-115000000D01*
X107308027Y-114872411D01*
X107302000Y-114863391D01*
X107302000Y-113127000D01*
X112698000Y-113127000D01*
X112698001Y-113863391D01*
X112698001Y-113863391D01*
G37*
X112698001Y-113863391D02*
X112691973Y-113872412D01*
X112673000Y-113967796D01*
X112673001Y-114967790D01*
X112666594Y-115000000D01*
X112691973Y-115127589D01*
X112764246Y-115235754D01*
X112872411Y-115308027D01*
X112967795Y-115327000D01*
X113000000Y-115333406D01*
X113032205Y-115327000D01*
X125575757Y-115327000D01*
X125573283Y-115386387D01*
X125597891Y-115525137D01*
X125668776Y-115631224D01*
X125774863Y-115702109D01*
X125900000Y-115727000D01*
X128298000Y-115727000D01*
X128298000Y-115795035D01*
X128273000Y-115855391D01*
X128273000Y-116144609D01*
X128383679Y-116411813D01*
X128588187Y-116616321D01*
X128855391Y-116727000D01*
X129144609Y-116727000D01*
X129411813Y-116616321D01*
X129616321Y-116411813D01*
X129727000Y-116144609D01*
X129727000Y-115855391D01*
X129702000Y-115795035D01*
X129702000Y-115727000D01*
X132000000Y-115727000D01*
X132125137Y-115702109D01*
X132231224Y-115631224D01*
X132302109Y-115525137D01*
X132327000Y-115400000D01*
X132327000Y-115327000D01*
X144583259Y-115327000D01*
X144573242Y-115587432D01*
X144597891Y-115725137D01*
X144668776Y-115831224D01*
X144774863Y-115902109D01*
X144900000Y-115927000D01*
X145430223Y-115927000D01*
X144552498Y-116804725D01*
X144493888Y-116843887D01*
X144454726Y-116902497D01*
X144454725Y-116902498D01*
X144338732Y-117076093D01*
X144284249Y-117350000D01*
X144298001Y-117419136D01*
X144298000Y-117998000D01*
X143483406Y-117998000D01*
X143483406Y-117950000D01*
X143458027Y-117822411D01*
X143385754Y-117714246D01*
X143277589Y-117641973D01*
X143150000Y-117616594D01*
X141150000Y-117616594D01*
X141022411Y-117641973D01*
X140914246Y-117714246D01*
X140841973Y-117822411D01*
X140816594Y-117950000D01*
X140816594Y-117998000D01*
X140690778Y-117998000D01*
X140245277Y-117552500D01*
X140206113Y-117493887D01*
X139973906Y-117338731D01*
X139769136Y-117298000D01*
X139769132Y-117298000D01*
X139700000Y-117284249D01*
X139630868Y-117298000D01*
X128209132Y-117298000D01*
X128140000Y-117284249D01*
X128070868Y-117298000D01*
X128070864Y-117298000D01*
X127866094Y-117338731D01*
X127633887Y-117493887D01*
X127594725Y-117552497D01*
X126309223Y-118838000D01*
X126183406Y-118838000D01*
X126183406Y-118690000D01*
X126158027Y-118562411D01*
X126085754Y-118454246D01*
X125977589Y-118381973D01*
X125850000Y-118356594D01*
X124150000Y-118356594D01*
X124022411Y-118381973D01*
X123914246Y-118454246D01*
X123841973Y-118562411D01*
X123816594Y-118690000D01*
X123816594Y-120390000D01*
X123841973Y-120517589D01*
X123914246Y-120625754D01*
X124022411Y-120698027D01*
X124150000Y-120723406D01*
X124298000Y-120723406D01*
X124298000Y-120909222D01*
X122709223Y-122498000D01*
X117619131Y-122498000D01*
X117549999Y-122484249D01*
X117480867Y-122498000D01*
X117480864Y-122498000D01*
X117276094Y-122538731D01*
X117276093Y-122538732D01*
X117276092Y-122538732D01*
X117150858Y-122622411D01*
X117043887Y-122693887D01*
X117004725Y-122752497D01*
X115102498Y-124654725D01*
X115043888Y-124693887D01*
X115004726Y-124752497D01*
X115004725Y-124752498D01*
X114888732Y-124926093D01*
X114834249Y-125200000D01*
X114848001Y-125269136D01*
X114848000Y-126469135D01*
X114888731Y-126673905D01*
X114966594Y-126790435D01*
X114966594Y-126850000D01*
X114991973Y-126977589D01*
X115064246Y-127085754D01*
X115172411Y-127158027D01*
X115300000Y-127183406D01*
X115800000Y-127183406D01*
X115927589Y-127158027D01*
X116035754Y-127085754D01*
X116108027Y-126977589D01*
X116133406Y-126850000D01*
X116133406Y-126790435D01*
X116211269Y-126673906D01*
X116252000Y-126469136D01*
X116252000Y-125950000D01*
X116466594Y-125950000D01*
X116466594Y-126850000D01*
X116491973Y-126977589D01*
X116564246Y-127085754D01*
X116672411Y-127158027D01*
X116800000Y-127183406D01*
X117300000Y-127183406D01*
X117427589Y-127158027D01*
X117535754Y-127085754D01*
X117608027Y-126977589D01*
X117613117Y-126952000D01*
X118176937Y-126952000D01*
X118191973Y-127027589D01*
X118264246Y-127135754D01*
X118372411Y-127208027D01*
X118500000Y-127233406D01*
X119300000Y-127233406D01*
X119427589Y-127208027D01*
X119535754Y-127135754D01*
X119608027Y-127027589D01*
X119633406Y-126900000D01*
X119633406Y-126100000D01*
X119608027Y-125972411D01*
X119535754Y-125864246D01*
X119427589Y-125791973D01*
X119300000Y-125766594D01*
X118500000Y-125766594D01*
X118372411Y-125791973D01*
X118264246Y-125864246D01*
X118191973Y-125972411D01*
X118176937Y-126048000D01*
X117633406Y-126048000D01*
X117633406Y-125950000D01*
X117608027Y-125822411D01*
X117535754Y-125714246D01*
X117427589Y-125641973D01*
X117300000Y-125616594D01*
X116800000Y-125616594D01*
X116672411Y-125641973D01*
X116564246Y-125714246D01*
X116491973Y-125822411D01*
X116466594Y-125950000D01*
X116252000Y-125950000D01*
X116252000Y-125490777D01*
X117840778Y-123902000D01*
X122930868Y-123902000D01*
X123000000Y-123915751D01*
X123069132Y-123902000D01*
X123069136Y-123902000D01*
X123273906Y-123861269D01*
X123506113Y-123706113D01*
X123545277Y-123647500D01*
X125447505Y-121745273D01*
X125506112Y-121706113D01*
X125545273Y-121647505D01*
X125545275Y-121647503D01*
X125661268Y-121473908D01*
X125661268Y-121473907D01*
X125661269Y-121473906D01*
X125702000Y-121269136D01*
X125702000Y-121269133D01*
X125715751Y-121200001D01*
X125702000Y-121130869D01*
X125702000Y-120723406D01*
X125850000Y-120723406D01*
X125977589Y-120698027D01*
X126085754Y-120625754D01*
X126158027Y-120517589D01*
X126183406Y-120390000D01*
X126183406Y-120242000D01*
X126530868Y-120242000D01*
X126600000Y-120255751D01*
X126669132Y-120242000D01*
X126669136Y-120242000D01*
X126873906Y-120201269D01*
X127106113Y-120046113D01*
X127145277Y-119987500D01*
X128032777Y-119100000D01*
X134516594Y-119100000D01*
X134516594Y-122900000D01*
X134541973Y-123027589D01*
X134614246Y-123135754D01*
X134722411Y-123208027D01*
X134850000Y-123233406D01*
X135398000Y-123233406D01*
X135398001Y-129916594D01*
X135250000Y-129916594D01*
X135122411Y-129941973D01*
X135014246Y-130014246D01*
X134941973Y-130122411D01*
X134916594Y-130250000D01*
X134916594Y-133250000D01*
X134941973Y-133377589D01*
X135014246Y-133485754D01*
X135122411Y-133558027D01*
X135250000Y-133583406D01*
X138250000Y-133583406D01*
X138377589Y-133558027D01*
X138485754Y-133485754D01*
X138558027Y-133377589D01*
X138583406Y-133250000D01*
X138583406Y-130250000D01*
X138558027Y-130122411D01*
X138485754Y-130014246D01*
X138377589Y-129941973D01*
X138250000Y-129916594D01*
X136302000Y-129916594D01*
X136302000Y-127268000D01*
X141237286Y-127268000D01*
X141237286Y-130472000D01*
X146762715Y-130472000D01*
X146762715Y-127268000D01*
X141237286Y-127268000D01*
X136302000Y-127268000D01*
X136302000Y-123233406D01*
X136850000Y-123233406D01*
X136977589Y-123208027D01*
X137085754Y-123135754D01*
X137158027Y-123027589D01*
X137183406Y-122900000D01*
X137183406Y-121452000D01*
X140816594Y-121452000D01*
X140816594Y-121750000D01*
X140841973Y-121877589D01*
X140914246Y-121985754D01*
X141022411Y-122058027D01*
X141150000Y-122083406D01*
X142835398Y-122083406D01*
X142861866Y-122101091D01*
X142973638Y-122175775D01*
X143149999Y-122210855D01*
X143194517Y-122202000D01*
X144301937Y-122202000D01*
X144316973Y-122277589D01*
X144389246Y-122385754D01*
X144497411Y-122458027D01*
X144625000Y-122483406D01*
X145375000Y-122483406D01*
X145502589Y-122458027D01*
X145610754Y-122385754D01*
X145683027Y-122277589D01*
X145698063Y-122202000D01*
X148262776Y-122202000D01*
X148477370Y-122416594D01*
X148350000Y-122416594D01*
X148222411Y-122441973D01*
X148114246Y-122514246D01*
X148041973Y-122622411D01*
X148016594Y-122750000D01*
X148016594Y-124450000D01*
X148041973Y-124577589D01*
X148114246Y-124685754D01*
X148222411Y-124758027D01*
X148350000Y-124783406D01*
X148748000Y-124783406D01*
X148748001Y-127466594D01*
X147800000Y-127466594D01*
X147672411Y-127491973D01*
X147564246Y-127564246D01*
X147491973Y-127672411D01*
X147466594Y-127800000D01*
X147466594Y-130200000D01*
X147491973Y-130327589D01*
X147564246Y-130435754D01*
X147672411Y-130508027D01*
X147800000Y-130533406D01*
X150200000Y-130533406D01*
X150327589Y-130508027D01*
X150435754Y-130435754D01*
X150508027Y-130327589D01*
X150533406Y-130200000D01*
X150533406Y-127800000D01*
X150508027Y-127672411D01*
X150435754Y-127564246D01*
X150327589Y-127491973D01*
X150200000Y-127466594D01*
X149652000Y-127466594D01*
X149652000Y-124783406D01*
X150050000Y-124783406D01*
X150177589Y-124758027D01*
X150285754Y-124685754D01*
X150358027Y-124577589D01*
X150383406Y-124450000D01*
X150383406Y-122750000D01*
X150358027Y-122622411D01*
X150285754Y-122514246D01*
X150177589Y-122441973D01*
X150050000Y-122416594D01*
X149644265Y-122416594D01*
X149625775Y-122323638D01*
X149551091Y-122211866D01*
X149525874Y-122174126D01*
X149488134Y-122148909D01*
X148801093Y-121461869D01*
X148775874Y-121424126D01*
X148626362Y-121324225D01*
X148494518Y-121298000D01*
X148450000Y-121289145D01*
X148405482Y-121298000D01*
X145698063Y-121298000D01*
X145683027Y-121222411D01*
X145610754Y-121114246D01*
X145502589Y-121041973D01*
X145375000Y-121016594D01*
X144625000Y-121016594D01*
X144497411Y-121041973D01*
X144389246Y-121114246D01*
X144316973Y-121222411D01*
X144301937Y-121298000D01*
X143483406Y-121298000D01*
X143483406Y-120250000D01*
X143458027Y-120122411D01*
X143385754Y-120014246D01*
X143277589Y-119941973D01*
X143150000Y-119916594D01*
X141150000Y-119916594D01*
X141022411Y-119941973D01*
X140914246Y-120014246D01*
X140841973Y-120122411D01*
X140816594Y-120250000D01*
X140816594Y-120548000D01*
X137183406Y-120548000D01*
X137183406Y-119100000D01*
X137158027Y-118972411D01*
X137085754Y-118864246D01*
X136977589Y-118791973D01*
X136850000Y-118766594D01*
X134850000Y-118766594D01*
X134722411Y-118791973D01*
X134614246Y-118864246D01*
X134541973Y-118972411D01*
X134516594Y-119100000D01*
X128032777Y-119100000D01*
X128430778Y-118702000D01*
X139409223Y-118702000D01*
X139854725Y-119147503D01*
X139893887Y-119206113D01*
X139952497Y-119245275D01*
X140126092Y-119361268D01*
X140126093Y-119361268D01*
X140126094Y-119361269D01*
X140330864Y-119402000D01*
X140330867Y-119402000D01*
X140399999Y-119415751D01*
X140469131Y-119402000D01*
X140816594Y-119402000D01*
X140816594Y-119450000D01*
X140841973Y-119577589D01*
X140914246Y-119685754D01*
X141022411Y-119758027D01*
X141150000Y-119783406D01*
X143150000Y-119783406D01*
X143277589Y-119758027D01*
X143385754Y-119685754D01*
X143458027Y-119577589D01*
X143483406Y-119450000D01*
X143483406Y-119402000D01*
X144730868Y-119402000D01*
X144800000Y-119415751D01*
X144869132Y-119402000D01*
X144869136Y-119402000D01*
X145073906Y-119361269D01*
X145265266Y-119233406D01*
X145375000Y-119233406D01*
X145502589Y-119208027D01*
X145610754Y-119135754D01*
X145683027Y-119027589D01*
X145708406Y-118900000D01*
X145708406Y-118536930D01*
X145715752Y-118500000D01*
X145708406Y-118463070D01*
X145708406Y-118100000D01*
X145702000Y-118067795D01*
X145702000Y-117640777D01*
X147415778Y-115927000D01*
X151000000Y-115927000D01*
X151125137Y-115902109D01*
X151231224Y-115831224D01*
X151302109Y-115725137D01*
X151327000Y-115600000D01*
X151327000Y-115327000D01*
X154673000Y-115327000D01*
X154673001Y-133673000D01*
X102827000Y-133673000D01*
X102827000Y-127800000D01*
X103466594Y-127800000D01*
X103466594Y-130200000D01*
X103491973Y-130327589D01*
X103564246Y-130435754D01*
X103672411Y-130508027D01*
X103800000Y-130533406D01*
X104298001Y-130533406D01*
X104298001Y-130880864D01*
X104284249Y-130950000D01*
X104338732Y-131223907D01*
X104407011Y-131326093D01*
X104493888Y-131456113D01*
X104552498Y-131495275D01*
X105104725Y-132047503D01*
X105143887Y-132106113D01*
X105202497Y-132145275D01*
X105376093Y-132261268D01*
X105650000Y-132315751D01*
X105923907Y-132261268D01*
X106012608Y-132202000D01*
X111666594Y-132202000D01*
X111666594Y-133000000D01*
X111691973Y-133127589D01*
X111764246Y-133235754D01*
X111872411Y-133308027D01*
X112000000Y-133333406D01*
X115000000Y-133333406D01*
X115127589Y-133308027D01*
X115235754Y-133235754D01*
X115308027Y-133127589D01*
X115333406Y-133000000D01*
X115333406Y-130100000D01*
X118966594Y-130100000D01*
X118966594Y-133100000D01*
X118991973Y-133227589D01*
X119064246Y-133335754D01*
X119172411Y-133408027D01*
X119300000Y-133433406D01*
X122300000Y-133433406D01*
X122427589Y-133408027D01*
X122535754Y-133335754D01*
X122608027Y-133227589D01*
X122633406Y-133100000D01*
X122633406Y-130100000D01*
X122608027Y-129972411D01*
X122535754Y-129864246D01*
X122427589Y-129791973D01*
X122300000Y-129766594D01*
X121502000Y-129766594D01*
X121502000Y-128804965D01*
X121527000Y-128744609D01*
X121527000Y-128455391D01*
X121416321Y-128188187D01*
X121211813Y-127983679D01*
X120944609Y-127873000D01*
X120655391Y-127873000D01*
X120388187Y-127983679D01*
X120183679Y-128188187D01*
X120073000Y-128455391D01*
X120073000Y-128744609D01*
X120098001Y-128804967D01*
X120098001Y-129766594D01*
X119300000Y-129766594D01*
X119172411Y-129791973D01*
X119064246Y-129864246D01*
X118991973Y-129972411D01*
X118966594Y-130100000D01*
X115333406Y-130100000D01*
X115333406Y-130000000D01*
X115308027Y-129872411D01*
X115235754Y-129764246D01*
X115127589Y-129691973D01*
X115000000Y-129666594D01*
X112000000Y-129666594D01*
X111872411Y-129691973D01*
X111764246Y-129764246D01*
X111691973Y-129872411D01*
X111666594Y-130000000D01*
X111666594Y-130798000D01*
X105840778Y-130798000D01*
X105702000Y-130659223D01*
X105702000Y-130533406D01*
X106200000Y-130533406D01*
X106327589Y-130508027D01*
X106435754Y-130435754D01*
X106508027Y-130327589D01*
X106533406Y-130200000D01*
X106533406Y-127800000D01*
X125466594Y-127800000D01*
X125466594Y-130200000D01*
X125491973Y-130327589D01*
X125564246Y-130435754D01*
X125672411Y-130508027D01*
X125800000Y-130533406D01*
X128200000Y-130533406D01*
X128327589Y-130508027D01*
X128435754Y-130435754D01*
X128508027Y-130327589D01*
X128533406Y-130200000D01*
X128533406Y-127800000D01*
X128508027Y-127672411D01*
X128435754Y-127564246D01*
X128327589Y-127491973D01*
X128202000Y-127466992D01*
X128202000Y-124783406D01*
X128350000Y-124783406D01*
X128477589Y-124758027D01*
X128585754Y-124685754D01*
X128658027Y-124577589D01*
X128683406Y-124450000D01*
X128683406Y-123600000D01*
X128839942Y-123600000D01*
X128931291Y-124059242D01*
X129191431Y-124448569D01*
X129338000Y-124546503D01*
X129338001Y-128002495D01*
X129205472Y-128135024D01*
X128973000Y-128696261D01*
X128973000Y-129303739D01*
X129205472Y-129864976D01*
X129635024Y-130294528D01*
X130196261Y-130527000D01*
X130803739Y-130527000D01*
X131364976Y-130294528D01*
X131794528Y-129864976D01*
X132027000Y-129303739D01*
X132027000Y-128696261D01*
X131794528Y-128135024D01*
X131364976Y-127705472D01*
X130803739Y-127473000D01*
X130742000Y-127473000D01*
X130742000Y-124546503D01*
X130888569Y-124448569D01*
X131148709Y-124059242D01*
X131240058Y-123600000D01*
X131148709Y-123140758D01*
X130888569Y-122751431D01*
X130499242Y-122491291D01*
X130155920Y-122423000D01*
X129924080Y-122423000D01*
X129580758Y-122491291D01*
X129191431Y-122751431D01*
X128931291Y-123140758D01*
X128839942Y-123600000D01*
X128683406Y-123600000D01*
X128683406Y-122750000D01*
X128658027Y-122622411D01*
X128585754Y-122514246D01*
X128477589Y-122441973D01*
X128350000Y-122416594D01*
X126650000Y-122416594D01*
X126522411Y-122441973D01*
X126414246Y-122514246D01*
X126341973Y-122622411D01*
X126316594Y-122750000D01*
X126316594Y-124450000D01*
X126341973Y-124577589D01*
X126414246Y-124685754D01*
X126522411Y-124758027D01*
X126650000Y-124783406D01*
X126798000Y-124783406D01*
X126798001Y-127466594D01*
X125800000Y-127466594D01*
X125672411Y-127491973D01*
X125564246Y-127564246D01*
X125491973Y-127672411D01*
X125466594Y-127800000D01*
X106533406Y-127800000D01*
X106508027Y-127672411D01*
X106435754Y-127564246D01*
X106327589Y-127491973D01*
X106202000Y-127466992D01*
X106202000Y-124683406D01*
X106350000Y-124683406D01*
X106477589Y-124658027D01*
X106585754Y-124585754D01*
X106658027Y-124477589D01*
X106683406Y-124350000D01*
X106683406Y-122650000D01*
X106658027Y-122522411D01*
X106585754Y-122414246D01*
X106477589Y-122341973D01*
X106350000Y-122316594D01*
X106202000Y-122316594D01*
X106202000Y-120486503D01*
X106348569Y-120388569D01*
X106408416Y-120299001D01*
X109053497Y-120299001D01*
X109151431Y-120445570D01*
X109540758Y-120705710D01*
X109884080Y-120774001D01*
X110115920Y-120774001D01*
X110459242Y-120705710D01*
X110848569Y-120445570D01*
X111108709Y-120056243D01*
X111200058Y-119597001D01*
X111108709Y-119137759D01*
X110848569Y-118748432D01*
X110459242Y-118488292D01*
X110115920Y-118420001D01*
X109884080Y-118420001D01*
X109540758Y-118488292D01*
X109151431Y-118748432D01*
X109053497Y-118895001D01*
X106484590Y-118895001D01*
X106348569Y-118691431D01*
X105959242Y-118431291D01*
X105615920Y-118363000D01*
X105384080Y-118363000D01*
X105040758Y-118431291D01*
X104651431Y-118691431D01*
X104391291Y-119080758D01*
X104299942Y-119540000D01*
X104391291Y-119999242D01*
X104651431Y-120388569D01*
X104798000Y-120486503D01*
X104798001Y-122316594D01*
X104650000Y-122316594D01*
X104522411Y-122341973D01*
X104414246Y-122414246D01*
X104341973Y-122522411D01*
X104316594Y-122650000D01*
X104316594Y-124350000D01*
X104341973Y-124477589D01*
X104414246Y-124585754D01*
X104522411Y-124658027D01*
X104650000Y-124683406D01*
X104798000Y-124683406D01*
X104798001Y-127466594D01*
X103800000Y-127466594D01*
X103672411Y-127491973D01*
X103564246Y-127564246D01*
X103491973Y-127672411D01*
X103466594Y-127800000D01*
X102827000Y-127800000D01*
X102827000Y-116150000D01*
X104316594Y-116150000D01*
X104316594Y-117850000D01*
X104341973Y-117977589D01*
X104414246Y-118085754D01*
X104522411Y-118158027D01*
X104650000Y-118183406D01*
X106350000Y-118183406D01*
X106477589Y-118158027D01*
X106585754Y-118085754D01*
X106658027Y-117977589D01*
X106683406Y-117850000D01*
X106683406Y-116207001D01*
X108816594Y-116207001D01*
X108816594Y-117907001D01*
X108841973Y-118034590D01*
X108914246Y-118142755D01*
X109022411Y-118215028D01*
X109150000Y-118240407D01*
X110850000Y-118240407D01*
X110977589Y-118215028D01*
X111085754Y-118142755D01*
X111158027Y-118034590D01*
X111183406Y-117907001D01*
X111183406Y-117702000D01*
X111991692Y-117702000D01*
X112014246Y-117735754D01*
X112122411Y-117808027D01*
X112250000Y-117833406D01*
X114750000Y-117833406D01*
X114877589Y-117808027D01*
X114985754Y-117735754D01*
X115008308Y-117702000D01*
X115509223Y-117702000D01*
X115666594Y-117859372D01*
X115666594Y-119350000D01*
X115691973Y-119477589D01*
X115764246Y-119585754D01*
X115872411Y-119658027D01*
X116000000Y-119683406D01*
X116800000Y-119683406D01*
X116927589Y-119658027D01*
X117035754Y-119585754D01*
X117108027Y-119477589D01*
X117133406Y-119350000D01*
X117133406Y-116650000D01*
X117866594Y-116650000D01*
X117866594Y-119350000D01*
X117891973Y-119477589D01*
X117964246Y-119585754D01*
X118072411Y-119658027D01*
X118200000Y-119683406D01*
X119000000Y-119683406D01*
X119127589Y-119658027D01*
X119235754Y-119585754D01*
X119308027Y-119477589D01*
X119333406Y-119350000D01*
X119333406Y-118259371D01*
X119890778Y-117702000D01*
X119991692Y-117702000D01*
X120014246Y-117735754D01*
X120122411Y-117808027D01*
X120250000Y-117833406D01*
X122750000Y-117833406D01*
X122877589Y-117808027D01*
X122985754Y-117735754D01*
X123008308Y-117702000D01*
X124053497Y-117702000D01*
X124151431Y-117848569D01*
X124540758Y-118108709D01*
X124884080Y-118177000D01*
X125115920Y-118177000D01*
X125459242Y-118108709D01*
X125848569Y-117848569D01*
X126108709Y-117459242D01*
X126200058Y-117000000D01*
X126108709Y-116540758D01*
X125848569Y-116151431D01*
X125459242Y-115891291D01*
X125115920Y-115823000D01*
X124884080Y-115823000D01*
X124540758Y-115891291D01*
X124151431Y-116151431D01*
X124053497Y-116298000D01*
X123008308Y-116298000D01*
X122985754Y-116264246D01*
X122877589Y-116191973D01*
X122750000Y-116166594D01*
X120250000Y-116166594D01*
X120122411Y-116191973D01*
X120014246Y-116264246D01*
X119991692Y-116298000D01*
X119669135Y-116298000D01*
X119600000Y-116284248D01*
X119530865Y-116298000D01*
X119530864Y-116298000D01*
X119326094Y-116338731D01*
X119224416Y-116406670D01*
X119127589Y-116341973D01*
X119000000Y-116316594D01*
X118200000Y-116316594D01*
X118072411Y-116341973D01*
X117964246Y-116414246D01*
X117891973Y-116522411D01*
X117866594Y-116650000D01*
X117133406Y-116650000D01*
X117108027Y-116522411D01*
X117035754Y-116414246D01*
X116927589Y-116341973D01*
X116800000Y-116316594D01*
X116000000Y-116316594D01*
X115981308Y-116320312D01*
X115869136Y-116298000D01*
X115869132Y-116298000D01*
X115800000Y-116284249D01*
X115730868Y-116298000D01*
X115008308Y-116298000D01*
X114985754Y-116264246D01*
X114877589Y-116191973D01*
X114750000Y-116166594D01*
X112250000Y-116166594D01*
X112122411Y-116191973D01*
X112014246Y-116264246D01*
X111991692Y-116298000D01*
X111183406Y-116298000D01*
X111183406Y-116207001D01*
X111158027Y-116079412D01*
X111085754Y-115971247D01*
X110977589Y-115898974D01*
X110850000Y-115873595D01*
X109150000Y-115873595D01*
X109022411Y-115898974D01*
X108914246Y-115971247D01*
X108841973Y-116079412D01*
X108816594Y-116207001D01*
X106683406Y-116207001D01*
X106683406Y-116150000D01*
X106658027Y-116022411D01*
X106585754Y-115914246D01*
X106477589Y-115841973D01*
X106350000Y-115816594D01*
X104650000Y-115816594D01*
X104522411Y-115841973D01*
X104414246Y-115914246D01*
X104341973Y-116022411D01*
X104316594Y-116150000D01*
X102827000Y-116150000D01*
X102827000Y-115327000D01*
X107032205Y-115327000D01*
X107127589Y-115308027D01*
X107235754Y-115235754D01*
X107308027Y-115127589D01*
X107333406Y-115000000D01*
X107308027Y-114872411D01*
X107302000Y-114863391D01*
X107302000Y-113127000D01*
X112698000Y-113127000D01*
X112698001Y-113863391D01*
G04 #@! TO.N,VCC*
G36*
X150698001Y-113985167D02*
X150698000Y-114871319D01*
X150696430Y-114874257D01*
X150677732Y-114935897D01*
X150671418Y-115000000D01*
X150677732Y-115064103D01*
X150696430Y-115125743D01*
X150726794Y-115182550D01*
X150767657Y-115232343D01*
X150817450Y-115273206D01*
X150873000Y-115302898D01*
X150873000Y-115473000D01*
X145031978Y-115473000D01*
X145037675Y-115324871D01*
X145064103Y-115322268D01*
X145125743Y-115303570D01*
X145182550Y-115273206D01*
X145232343Y-115232343D01*
X145273206Y-115182550D01*
X145303570Y-115125743D01*
X145322268Y-115064103D01*
X145328582Y-115000000D01*
X145322268Y-114935897D01*
X145303570Y-114874257D01*
X145302000Y-114871320D01*
X145302000Y-113127000D01*
X150698000Y-113127000D01*
X150698001Y-113985167D01*
X150698001Y-113985167D01*
G37*
X150698001Y-113985167D02*
X150698000Y-114871319D01*
X150696430Y-114874257D01*
X150677732Y-114935897D01*
X150671418Y-115000000D01*
X150677732Y-115064103D01*
X150696430Y-115125743D01*
X150726794Y-115182550D01*
X150767657Y-115232343D01*
X150817450Y-115273206D01*
X150873000Y-115302898D01*
X150873000Y-115473000D01*
X145031978Y-115473000D01*
X145037675Y-115324871D01*
X145064103Y-115322268D01*
X145125743Y-115303570D01*
X145182550Y-115273206D01*
X145232343Y-115232343D01*
X145273206Y-115182550D01*
X145303570Y-115125743D01*
X145322268Y-115064103D01*
X145328582Y-115000000D01*
X145322268Y-114935897D01*
X145303570Y-114874257D01*
X145302000Y-114871320D01*
X145302000Y-113127000D01*
X150698000Y-113127000D01*
X150698001Y-113985167D01*
G04 #@! TO.N,/EarthGND*
G36*
X131698001Y-113863391D02*
X131691973Y-113872412D01*
X131673000Y-113967796D01*
X131673001Y-114967790D01*
X131666594Y-115000000D01*
X131691973Y-115127589D01*
X131764246Y-115235754D01*
X131819989Y-115273000D01*
X126180011Y-115273000D01*
X126235754Y-115235754D01*
X126308027Y-115127589D01*
X126333406Y-115000000D01*
X126327000Y-114967795D01*
X126327000Y-113967795D01*
X126308027Y-113872411D01*
X126302000Y-113863391D01*
X126302000Y-113127000D01*
X131698000Y-113127000D01*
X131698001Y-113863391D01*
X131698001Y-113863391D01*
G37*
X131698001Y-113863391D02*
X131691973Y-113872412D01*
X131673000Y-113967796D01*
X131673001Y-114967790D01*
X131666594Y-115000000D01*
X131691973Y-115127589D01*
X131764246Y-115235754D01*
X131819989Y-115273000D01*
X126180011Y-115273000D01*
X126235754Y-115235754D01*
X126308027Y-115127589D01*
X126333406Y-115000000D01*
X126327000Y-114967795D01*
X126327000Y-113967795D01*
X126308027Y-113872411D01*
X126302000Y-113863391D01*
X126302000Y-113127000D01*
X131698000Y-113127000D01*
X131698001Y-113863391D01*
G04 #@! TD*
M02*
