<?xml version="1.0" encoding="UTF-8" standalone="no"?>
<svg
   xmlns:dc="http://purl.org/dc/elements/1.1/"
   xmlns:cc="http://creativecommons.org/ns#"
   xmlns:rdf="http://www.w3.org/1999/02/22-rdf-syntax-ns#"
   xmlns:svg="http://www.w3.org/2000/svg"
   xmlns="http://www.w3.org/2000/svg"
   xmlns:sodipodi="http://sodipodi.sourceforge.net/DTD/sodipodi-0.dtd"
   xmlns:inkscape="http://www.inkscape.org/namespaces/inkscape"
   version="1.1"
   width="2.49936cm"
   height="4.34848cm"
   viewBox="0 0 9840 17120 "
   id="svg4512"
   sodipodi:docname="LoraThing-brd.svg"
   inkscape:version="0.92.0 r15299">
  <metadata
     id="metadata4518">
    <rdf:RDF>
      <cc:Work
         rdf:about="">
        <dc:format>image/svg+xml</dc:format>
        <dc:type
           rdf:resource="http://purl.org/dc/dcmitype/StillImage" />
      </cc:Work>
    </rdf:RDF>
  </metadata>
  <defs
     id="defs4516" />
  <sodipodi:namedview
     pagecolor="#ffffff"
     bordercolor="#666666"
     borderopacity="1"
     objecttolerance="10"
     gridtolerance="10"
     guidetolerance="10"
     inkscape:pageopacity="0"
     inkscape:pageshadow="2"
     inkscape:window-width="1280"
     inkscape:window-height="961"
     id="namedview4514"
     showgrid="false"
     inkscape:zoom="4.0614581"
     inkscape:cx="45.147149"
     inkscape:cy="92.40619"
     inkscape:window-x="-8"
     inkscape:window-y="-8"
     inkscape:window-maximized="1"
     inkscape:current-layer="svg4512" />
  <title
     id="title3950">SVG Picture created as LoraThing-brd.svg date 2018/10/14 23:20:05 </title>
  <desc
     id="desc3952">Picture generated by PCBNEW </desc>
  <g
     style="fill:#000000; fill-opacity:1;stroke:#000000; stroke-opacity:1; stroke-linecap:round; stroke-linejoin:round; "
     transform="translate(0 0) scale(1 1)"
     id="g3954" />
  <g
     style="fill:#000000; fill-opacity:0.0;  stroke:#000000; stroke-width:-0.000393701; stroke-opacity:1;  stroke-linecap:round; stroke-linejoin:round;"
     id="g3956" />
  <g
     style="fill:#840084; fill-opacity:0.0;  stroke:#840084; stroke-width:-0.000393701; stroke-opacity:1;  stroke-linecap:round; stroke-linejoin:round;"
     id="g3958" />
  <g
     style="fill:#840084; fill-opacity:0.0;  stroke:#840084; stroke-width:47.2441; stroke-opacity:1;  stroke-linecap:round; stroke-linejoin:round;"
     id="g4008">
    <path
       d="M4960 15787 L4960 16574 "
       id="path3960" />
    <path
       d="M6062 15787 L4960 15787 "
       id="path3962" />
    <path
       d="M6062 16574 L6062 15787 "
       id="path3964" />
    <path
       d="M4960 16574 L6062 16574 "
       id="path3966" />
    <path
       d="M4960 15393 L6062 15393 "
       id="path3968" />
    <path
       d="M6062 15393 L6062 14606 "
       id="path3970" />
    <path
       d="M6062 14606 L4960 14606 "
       id="path3972" />
    <path
       d="M4960 14606 L4960 15393 "
       id="path3974" />
    <path
       d="M4960 14212 L6062 14212 "
       id="path3976" />
    <path
       d="M6062 14212 L6062 13425 "
       id="path3978" />
    <path
       d="M6062 13425 L4960 13425 "
       id="path3980" />
    <path
       d="M4960 13425 L4960 14212 "
       id="path3982" />
    <path
       d="M4960 12244 L4960 13031 "
       id="path3984" />
    <path
       d="M6062 12244 L4960 12244 "
       id="path3986" />
    <path
       d="M6062 13031 L6062 12244 "
       id="path3988" />
    <path
       d="M4960 13031 L6062 13031 "
       id="path3990" />
    <path
       d="M4960 11850 L6062 11850 "
       id="path3992" />
    <path
       d="M6062 11850 L6062 11062 "
       id="path3994" />
    <path
       d="M6062 11062 L4960 11062 "
       id="path3996" />
    <path
       d="M4960 11062 L4960 11850 "
       id="path3998" />
    <path
       d="M4960 9881 L4960 10669 "
       id="path4000" />
    <path
       d="M6062 9881 L4960 9881 "
       id="path4002" />
    <path
       d="M6062 10669 L6062 9881 "
       id="path4004" />
    <path
       d="M4960 10669 L6062 10669 "
       id="path4006" />
  </g>
  <g
     style="fill:#000000; fill-opacity:0.0;  stroke:#000000; stroke-width:47.2441; stroke-opacity:1;  stroke-linecap:round; stroke-linejoin:round;"
     id="g4010" />
  <g
     style="fill:#848400; fill-opacity:0.0;  stroke:#848400; stroke-width:47.2441; stroke-opacity:1;  stroke-linecap:round; stroke-linejoin:round;"
     id="g4012" />
  <g
     style="fill:#848400; fill-opacity:0.0;  stroke:#848400; stroke-width:0; stroke-opacity:1;  stroke-linecap:round; stroke-linejoin:round;"
     id="g4014" />
  <g
     style="fill:#848400; fill-opacity:1.0;  stroke:#848400; stroke-width:0; stroke-opacity:1;  stroke-linecap:round; stroke-linejoin:round;"
     id="g4018">
    <polyline
       style="fill-rule:evenodd;"
       points="9318,15996 9318,16822 8492,16822 8492,15996 9318,15996 "
       id="polyline4016" />
  </g>
  <g
     style="fill:#848400; fill-opacity:1.0;  stroke:#848400; stroke-width:826.772; stroke-opacity:1;  stroke-linecap:round; stroke-linejoin:round;"
     id="g4020" />
  <g
     style="fill:#848400; fill-opacity:0.0;  stroke:#848400; stroke-width:826.772; stroke-opacity:1;  stroke-linecap:round; stroke-linejoin:round;"
     id="g4034">
    <path
       d="M8905 15409 L8905 15409 "
       id="path4022" />
    <path
       d="M8905 14409 L8905 14409 "
       id="path4024" />
    <path
       d="M8905 13409 L8905 13409 "
       id="path4026" />
    <path
       d="M8905 12409 L8905 12409 "
       id="path4028" />
    <path
       d="M8905 11409 L8905 11409 "
       id="path4030" />
    <path
       d="M8905 10409 L8905 10409 "
       id="path4032" />
  </g>
  <g
     style="fill:#848400; fill-opacity:0.0;  stroke:#848400; stroke-width:0; stroke-opacity:1;  stroke-linecap:round; stroke-linejoin:round;"
     id="g4036" />
  <g
     style="fill:#848400; fill-opacity:1.0;  stroke:#848400; stroke-width:0; stroke-opacity:1;  stroke-linecap:round; stroke-linejoin:round;"
     id="g4040">
    <polyline
       style="fill-rule:evenodd;"
       points="1318,15996 1318,16822 492,16822 492,15996 1318,15996 "
       id="polyline4038" />
  </g>
  <g
     style="fill:#848400; fill-opacity:1.0;  stroke:#848400; stroke-width:826.772; stroke-opacity:1;  stroke-linecap:round; stroke-linejoin:round;"
     id="g4042" />
  <g
     style="fill:#848400; fill-opacity:0.0;  stroke:#848400; stroke-width:826.772; stroke-opacity:1;  stroke-linecap:round; stroke-linejoin:round;"
     id="g4056">
    <path
       d="M905 15409 L905 15409 "
       id="path4044" />
    <path
       d="M905 14409 L905 14409 "
       id="path4046" />
    <path
       d="M905 13409 L905 13409 "
       id="path4048" />
    <path
       d="M905 12409 L905 12409 "
       id="path4050" />
    <path
       d="M905 11409 L905 11409 "
       id="path4052" />
    <path
       d="M905 10409 L905 10409 "
       id="path4054" />
  </g>
  <g
     style="fill:#848400; fill-opacity:0.0;  stroke:#848400; stroke-width:0; stroke-opacity:1;  stroke-linecap:round; stroke-linejoin:round;"
     id="g4058" />
  <g
     style="fill:#848400; fill-opacity:1.0;  stroke:#848400; stroke-width:0; stroke-opacity:1;  stroke-linecap:round; stroke-linejoin:round;"
     id="g4062">
    <polyline
       style="fill-rule:evenodd;"
       points="1161,7539 1161,6712 1988,6712 1988,7539 1161,7539 "
       id="polyline4060" />
  </g>
  <g
     style="fill:#008400; fill-opacity:1.0;  stroke:#008400; stroke-width:0; stroke-opacity:1;  stroke-linecap:round; stroke-linejoin:round;"
     id="g4088">
    <polyline
       style="fill-rule:evenodd;"
       points="5468,15808 5482,15813 5496,15820 5508,15830 5518,15842 5525,15855 5529,15870 5531,15885 5531,15984 5610,15984 5625,15985 5640,15990 5653,15997 5665,16007 5675,16019 5682,16032 5687,16047 5688,16062 5688,16299 5687,16314 5682,16329 5675,16342 5665,16354 5653,16364 5640,16371 5625,16376 5610,16377 5531,16377 5531,16476 5529,16491 5525,16506 5518,16520 5508,16532 5496,16541 5482,16549 5468,16553 5452,16555 5059,16555 5043,16553 5028,16549 5015,16541 5003,16532 4993,16520 4986,16506 4981,16491 4980,16476 4980,15885 4981,15870 4986,15855 4993,15842 5003,15830 5015,15820 5028,15813 5043,15808 5059,15807 5452,15807 5468,15808 "
       id="polyline4064" />
    <polyline
       style="fill-rule:evenodd;"
       points="5492,16555 5492,15807 6043,15807 6043,16555 5492,16555 "
       id="polyline4066" />
    <polyline
       style="fill-rule:evenodd;"
       points="5492,15374 5492,14625 6043,14625 6043,15374 5492,15374 "
       id="polyline4068" />
    <polyline
       style="fill-rule:evenodd;"
       points="5468,14627 5482,14631 5496,14639 5508,14649 5518,14660 5525,14674 5529,14689 5531,14704 5531,14803 5610,14803 5625,14804 5640,14809 5653,14816 5665,14826 5675,14838 5682,14851 5687,14866 5688,14881 5688,15118 5687,15133 5682,15148 5675,15161 5665,15173 5653,15183 5640,15190 5625,15195 5610,15196 5531,15196 5531,15295 5529,15310 5525,15325 5518,15339 5508,15350 5496,15360 5482,15368 5468,15372 5452,15374 5059,15374 5043,15372 5028,15368 5015,15360 5003,15350 4993,15339 4986,15325 4981,15310 4980,15295 4980,14704 4981,14689 4986,14674 4993,14660 5003,14649 5015,14639 5028,14631 5043,14627 5059,14625 5452,14625 5468,14627 "
       id="polyline4070" />
    <polyline
       style="fill-rule:evenodd;"
       points="5492,14192 5492,13444 6043,13444 6043,14192 5492,14192 "
       id="polyline4072" />
    <polyline
       style="fill-rule:evenodd;"
       points="5468,13446 5482,13450 5496,13458 5508,13467 5518,13479 5525,13493 5529,13508 5531,13523 5531,13622 5610,13622 5625,13623 5640,13628 5653,13635 5665,13645 5675,13657 5682,13670 5687,13685 5688,13700 5688,13937 5687,13952 5682,13967 5675,13980 5665,13992 5653,14002 5640,14009 5625,14014 5610,14015 5531,14015 5531,14114 5529,14129 5525,14144 5518,14157 5508,14169 5496,14179 5482,14186 5468,14191 5452,14192 5059,14192 5043,14191 5028,14186 5015,14179 5003,14169 4993,14157 4986,14144 4981,14129 4980,14114 4980,13523 4981,13508 4986,13493 4993,13479 5003,13467 5015,13458 5028,13450 5043,13446 5059,13444 5452,13444 5468,13446 "
       id="polyline4074" />
    <polyline
       style="fill-rule:evenodd;"
       points="5468,12265 5482,12269 5496,12277 5508,12286 5518,12298 5525,12312 5529,12327 5531,12342 5531,12440 5610,12440 5625,12442 5640,12446 5653,12454 5665,12464 5675,12475 5682,12489 5687,12504 5688,12519 5688,12755 5687,12771 5682,12786 5675,12799 5665,12811 5653,12821 5640,12828 5625,12833 5610,12834 5531,12834 5531,12933 5529,12948 5525,12963 5518,12976 5508,12988 5496,12998 5482,13005 5468,13010 5452,13011 5059,13011 5043,13010 5028,13005 5015,12998 5003,12988 4993,12976 4986,12963 4981,12948 4980,12933 4980,12342 4981,12327 4986,12312 4993,12298 5003,12286 5015,12277 5028,12269 5043,12265 5059,12263 5452,12263 5468,12265 "
       id="polyline4076" />
    <polyline
       style="fill-rule:evenodd;"
       points="5492,13011 5492,12263 6043,12263 6043,13011 5492,13011 "
       id="polyline4078" />
    <polyline
       style="fill-rule:evenodd;"
       points="5492,11830 5492,11082 6043,11082 6043,11830 5492,11830 "
       id="polyline4080" />
    <polyline
       style="fill-rule:evenodd;"
       points="5468,11084 5482,11088 5496,11095 5508,11105 5518,11117 5525,11131 5529,11146 5531,11161 5531,11259 5610,11259 5625,11261 5640,11265 5653,11273 5665,11282 5675,11294 5682,11308 5687,11323 5688,11338 5688,11574 5687,11590 5682,11604 5675,11618 5665,11630 5653,11640 5640,11647 5625,11652 5610,11653 5531,11653 5531,11751 5529,11767 5525,11782 5518,11795 5508,11807 5496,11817 5482,11824 5468,11829 5452,11830 5059,11830 5043,11829 5028,11824 5015,11817 5003,11807 4993,11795 4986,11782 4981,11767 4980,11751 4980,11161 4981,11146 4986,11131 4993,11117 5003,11105 5015,11095 5028,11088 5043,11084 5059,11082 5452,11082 5468,11084 "
       id="polyline4082" />
    <polyline
       style="fill-rule:evenodd;"
       points="5468,9903 5482,9907 5496,9914 5508,9924 5518,9936 5525,9950 5529,9964 5531,9980 5531,10078 5610,10078 5625,10080 5640,10084 5653,10092 5665,10101 5675,10113 5682,10127 5687,10142 5688,10157 5688,10393 5687,10409 5682,10423 5675,10437 5665,10449 5653,10459 5640,10466 5625,10470 5610,10472 5531,10472 5531,10570 5529,10586 5525,10600 5518,10614 5508,10626 5496,10636 5482,10643 5468,10648 5452,10649 5059,10649 5043,10648 5028,10643 5015,10636 5003,10626 4993,10614 4986,10600 4981,10586 4980,10570 4980,9980 4981,9964 4986,9950 4993,9936 5003,9924 5015,9914 5028,9907 5043,9903 5059,9901 5452,9901 5468,9903 "
       id="polyline4084" />
    <polyline
       style="fill-rule:evenodd;"
       points="5492,10649 5492,9901 6043,9901 6043,10649 5492,10649 "
       id="polyline4086" />
  </g>
  <g
     style="fill:#000000; fill-opacity:1.0;  stroke:#000000; stroke-width:0; stroke-opacity:1;  stroke-linecap:round; stroke-linejoin:round;"
     id="g4090" />
  <g
     style="fill:#848400; fill-opacity:1.0;  stroke:#848400; stroke-width:0; stroke-opacity:1;  stroke-linecap:round; stroke-linejoin:round;"
     id="g4094">
    <polyline
       style="fill-rule:evenodd;"
       points="9318,15996 9318,16822 8492,16822 8492,15996 9318,15996 "
       id="polyline4092" />
  </g>
  <g
     style="fill:#848400; fill-opacity:1.0;  stroke:#848400; stroke-width:826.772; stroke-opacity:1;  stroke-linecap:round; stroke-linejoin:round;"
     id="g4096" />
  <g
     style="fill:#848400; fill-opacity:0.0;  stroke:#848400; stroke-width:826.772; stroke-opacity:1;  stroke-linecap:round; stroke-linejoin:round;"
     id="g4110">
    <path
       d="M8905 15409 L8905 15409 "
       id="path4098" />
    <path
       d="M8905 14409 L8905 14409 "
       id="path4100" />
    <path
       d="M8905 13409 L8905 13409 "
       id="path4102" />
    <path
       d="M8905 12409 L8905 12409 "
       id="path4104" />
    <path
       d="M8905 11409 L8905 11409 "
       id="path4106" />
    <path
       d="M8905 10409 L8905 10409 "
       id="path4108" />
  </g>
  <g
     style="fill:#848400; fill-opacity:0.0;  stroke:#848400; stroke-width:0; stroke-opacity:1;  stroke-linecap:round; stroke-linejoin:round;"
     id="g4112" />
  <g
     style="fill:#848400; fill-opacity:1.0;  stroke:#848400; stroke-width:0; stroke-opacity:1;  stroke-linecap:round; stroke-linejoin:round;"
     id="g4116">
    <polyline
       style="fill-rule:evenodd;"
       points="1318,15996 1318,16822 492,16822 492,15996 1318,15996 "
       id="polyline4114" />
  </g>
  <g
     style="fill:#848400; fill-opacity:1.0;  stroke:#848400; stroke-width:826.772; stroke-opacity:1;  stroke-linecap:round; stroke-linejoin:round;"
     id="g4118" />
  <g
     style="fill:#848400; fill-opacity:0.0;  stroke:#848400; stroke-width:826.772; stroke-opacity:1;  stroke-linecap:round; stroke-linejoin:round;"
     id="g4132">
    <path
       d="M905 15409 L905 15409 "
       id="path4120" />
    <path
       d="M905 14409 L905 14409 "
       id="path4122" />
    <path
       d="M905 13409 L905 13409 "
       id="path4124" />
    <path
       d="M905 12409 L905 12409 "
       id="path4126" />
    <path
       d="M905 11409 L905 11409 "
       id="path4128" />
    <path
       d="M905 10409 L905 10409 "
       id="path4130" />
  </g>
  <g
     style="fill:#840000; fill-opacity:0.0;  stroke:#840000; stroke-width:826.772; stroke-opacity:1;  stroke-linecap:round; stroke-linejoin:round;"
     id="g4134" />
  <g
     style="fill:#840000; fill-opacity:0.0;  stroke:#840000; stroke-width:0; stroke-opacity:1;  stroke-linecap:round; stroke-linejoin:round;"
     id="g4136" />
  <g
     style="fill:#840000; fill-opacity:1.0;  stroke:#840000; stroke-width:0; stroke-opacity:1;  stroke-linecap:round; stroke-linejoin:round;"
     id="g4182">
    <polyline
       style="fill-rule:evenodd;"
       points="8897,8622 8425,8622 8425,8149 8897,8149 8897,8622 "
       id="polyline4138" />
    <polyline
       style="fill-rule:evenodd;"
       points="8897,9251 8425,9251 8425,8779 8897,8779 8897,9251 "
       id="polyline4140" />
    <polyline
       style="fill-rule:evenodd;"
       points="3375,8641 2923,8641 2923,8169 3375,8169 3375,8641 "
       id="polyline4142" />
    <polyline
       style="fill-rule:evenodd;"
       points="3375,9232 2923,9232 2923,8759 3375,8759 3375,9232 "
       id="polyline4144" />
    <polyline
       style="fill-rule:evenodd;"
       points="5285,8169 5738,8169 5738,8641 5285,8641 5285,8169 "
       id="polyline4146" />
    <polyline
       style="fill-rule:evenodd;"
       points="5285,8759 5738,8759 5738,9232 5285,9232 5285,8759 "
       id="polyline4148" />
    <polyline
       style="fill-rule:evenodd;"
       points="6860,8759 7312,8759 7312,9232 6860,9232 6860,8759 "
       id="polyline4150" />
    <polyline
       style="fill-rule:evenodd;"
       points="6860,8169 7312,8169 7312,8641 6860,8641 6860,8169 "
       id="polyline4152" />
    <polyline
       style="fill-rule:evenodd;"
       points="6072,8169 6525,8169 6525,8641 6072,8641 6072,8169 "
       id="polyline4154" />
    <polyline
       style="fill-rule:evenodd;"
       points="6072,8759 6525,8759 6525,9232 6072,9232 6072,8759 "
       id="polyline4156" />
    <polyline
       style="fill-rule:evenodd;"
       points="4881,15944 4881,16417 4409,16417 4409,15944 4881,15944 "
       id="polyline4158" />
    <polyline
       style="fill-rule:evenodd;"
       points="4251,15944 4251,16417 3779,16417 3779,15944 4251,15944 "
       id="polyline4160" />
    <polyline
       style="fill-rule:evenodd;"
       points="4251,14763 4251,15236 3779,15236 3779,14763 4251,14763 "
       id="polyline4162" />
    <polyline
       style="fill-rule:evenodd;"
       points="4881,14763 4881,15236 4409,15236 4409,14763 4881,14763 "
       id="polyline4164" />
    <polyline
       style="fill-rule:evenodd;"
       points="4803,13582 4803,14055 4330,14055 4330,13582 4803,13582 "
       id="polyline4166" />
    <polyline
       style="fill-rule:evenodd;"
       points="4173,13582 4173,14055 3700,14055 3700,13582 4173,13582 "
       id="polyline4168" />
    <polyline
       style="fill-rule:evenodd;"
       points="4251,12401 4251,12874 3779,12874 3779,12401 4251,12401 "
       id="polyline4170" />
    <polyline
       style="fill-rule:evenodd;"
       points="4881,12401 4881,12874 4409,12874 4409,12401 4881,12401 "
       id="polyline4172" />
    <polyline
       style="fill-rule:evenodd;"
       points="4881,11220 4881,11692 4409,11692 4409,11220 4881,11220 "
       id="polyline4174" />
    <polyline
       style="fill-rule:evenodd;"
       points="4251,11220 4251,11692 3779,11692 3779,11220 4251,11220 "
       id="polyline4176" />
    <polyline
       style="fill-rule:evenodd;"
       points="4251,10039 4251,10511 3779,10511 3779,10039 4251,10039 "
       id="polyline4178" />
    <polyline
       style="fill-rule:evenodd;"
       points="4881,10039 4881,10511 4409,10511 4409,10039 4881,10039 "
       id="polyline4180" />
  </g>
  <g
     style="fill:#848400; fill-opacity:1.0;  stroke:#848400; stroke-width:0; stroke-opacity:1;  stroke-linecap:round; stroke-linejoin:round;"
     id="g4186">
    <polyline
       style="fill-rule:evenodd;"
       points="1161,7539 1161,6712 1988,6712 1988,7539 1161,7539 "
       id="polyline4184" />
  </g>
  <g
     style="fill:#840000; fill-opacity:1.0;  stroke:#840000; stroke-width:0; stroke-opacity:1;  stroke-linecap:round; stroke-linejoin:round;"
     id="g4306">
    <polyline
       style="fill-rule:evenodd;"
       points="5629,16437 5629,15925 5984,15925 5984,16437 5629,16437 "
       id="polyline4188" />
    <polyline
       style="fill-rule:evenodd;"
       points="5039,16437 5039,15925 5393,15925 5393,16437 5039,16437 "
       id="polyline4190" />
    <polyline
       style="fill-rule:evenodd;"
       points="5039,15255 5039,14744 5393,14744 5393,15255 5039,15255 "
       id="polyline4192" />
    <polyline
       style="fill-rule:evenodd;"
       points="5629,15255 5629,14744 5984,14744 5984,15255 5629,15255 "
       id="polyline4194" />
    <polyline
       style="fill-rule:evenodd;"
       points="5629,14074 5629,13562 5984,13562 5984,14074 5629,14074 "
       id="polyline4196" />
    <polyline
       style="fill-rule:evenodd;"
       points="5039,14074 5039,13562 5393,13562 5393,14074 5039,14074 "
       id="polyline4198" />
    <polyline
       style="fill-rule:evenodd;"
       points="5629,12893 5629,12381 5984,12381 5984,12893 5629,12893 "
       id="polyline4200" />
    <polyline
       style="fill-rule:evenodd;"
       points="5039,12893 5039,12381 5393,12381 5393,12893 5039,12893 "
       id="polyline4202" />
    <polyline
       style="fill-rule:evenodd;"
       points="5039,11712 5039,11200 5393,11200 5393,11712 5039,11712 "
       id="polyline4204" />
    <polyline
       style="fill-rule:evenodd;"
       points="5629,11712 5629,11200 5984,11200 5984,11712 5629,11712 "
       id="polyline4206" />
    <polyline
       style="fill-rule:evenodd;"
       points="5629,10531 5629,10019 5984,10019 5984,10531 5629,10531 "
       id="polyline4208" />
    <polyline
       style="fill-rule:evenodd;"
       points="5039,10531 5039,10019 5393,10019 5393,10531 5039,10531 "
       id="polyline4210" />
    <polyline
       style="fill-rule:evenodd;"
       points="8129,9173 7618,9173 7618,8818 8129,8818 8129,9173 "
       id="polyline4212" />
    <polyline
       style="fill-rule:evenodd;"
       points="8129,8582 7618,8582 7618,8228 8129,8228 8129,8582 "
       id="polyline4214" />
    <polyline
       style="fill-rule:evenodd;"
       points="1830,9173 1318,9173 1318,8818 1830,8818 1830,9173 "
       id="polyline4216" />
    <polyline
       style="fill-rule:evenodd;"
       points="1830,8582 1318,8582 1318,8228 1830,8228 1830,8582 "
       id="polyline4218" />
    <polyline
       style="fill-rule:evenodd;"
       points="4192,8464 4192,8937 3681,8937 3681,8464 4192,8464 "
       id="polyline4220" />
    <polyline
       style="fill-rule:evenodd;"
       points="4980,8090 4980,8562 4468,8562 4468,8090 4980,8090 "
       id="polyline4222" />
    <polyline
       style="fill-rule:evenodd;"
       points="4980,8838 4980,9311 4468,9311 4468,8838 4980,8838 "
       id="polyline4224" />
    <polyline
       style="fill-rule:evenodd;"
       points="8385,6653 8937,6653 8937,7598 8385,7598 8385,6653 "
       id="polyline4226" />
    <polyline
       style="fill-rule:evenodd;"
       points="7598,6653 8149,6653 8149,7598 7598,7598 7598,6653 "
       id="polyline4228" />
    <polyline
       style="fill-rule:evenodd;"
       points="6811,6653 7362,6653 7362,7598 6811,7598 6811,6653 "
       id="polyline4230" />
    <polyline
       style="fill-rule:evenodd;"
       points="6023,6653 6574,6653 6574,7598 6023,7598 6023,6653 "
       id="polyline4232" />
    <polyline
       style="fill-rule:evenodd;"
       points="5236,6653 5787,6653 5787,7598 5236,7598 5236,6653 "
       id="polyline4234" />
    <polyline
       style="fill-rule:evenodd;"
       points="4448,6653 5000,6653 5000,7598 4448,7598 4448,6653 "
       id="polyline4236" />
    <polyline
       style="fill-rule:evenodd;"
       points="3661,6653 4212,6653 4212,7598 3661,7598 3661,6653 "
       id="polyline4238" />
    <polyline
       style="fill-rule:evenodd;"
       points="2874,6653 3425,6653 3425,7598 2874,7598 2874,6653 "
       id="polyline4240" />
    <polyline
       style="fill-rule:evenodd;"
       points="2874,354 3425,354 3425,1299 2874,1299 2874,354 "
       id="polyline4242" />
    <polyline
       style="fill-rule:evenodd;"
       points="3661,354 4212,354 4212,1299 3661,1299 3661,354 "
       id="polyline4244" />
    <polyline
       style="fill-rule:evenodd;"
       points="4448,354 5000,354 5000,1299 4448,1299 4448,354 "
       id="polyline4246" />
    <polyline
       style="fill-rule:evenodd;"
       points="5236,354 5787,354 5787,1299 5236,1299 5236,354 "
       id="polyline4248" />
    <polyline
       style="fill-rule:evenodd;"
       points="6023,354 6574,354 6574,1299 6023,1299 6023,354 "
       id="polyline4250" />
    <polyline
       style="fill-rule:evenodd;"
       points="6811,354 7362,354 7362,1299 6811,1299 6811,354 "
       id="polyline4252" />
    <polyline
       style="fill-rule:evenodd;"
       points="7598,354 8149,354 8149,1299 7598,1299 7598,354 "
       id="polyline4254" />
    <polyline
       style="fill-rule:evenodd;"
       points="8385,354 8937,354 8937,1299 8385,1299 8385,354 "
       id="polyline4256" />
    <polyline
       style="fill-rule:evenodd;"
       points="2677,12401 2677,12716 2165,12716 2165,12401 2677,12401 "
       id="polyline4258" />
    <polyline
       style="fill-rule:evenodd;"
       points="2677,12716 2677,13031 2165,13031 2165,12716 2677,12716 "
       id="polyline4260" />
    <polyline
       style="fill-rule:evenodd;"
       points="2677,13031 2677,13346 2165,13346 2165,13031 2677,13031 "
       id="polyline4262" />
    <polyline
       style="fill-rule:evenodd;"
       points="2677,13346 2677,13661 2165,13661 2165,13346 2677,13346 "
       id="polyline4264" />
    <polyline
       style="fill-rule:evenodd;"
       points="3346,12401 3346,12716 2834,12716 2834,12401 3346,12401 "
       id="polyline4266" />
    <polyline
       style="fill-rule:evenodd;"
       points="3346,13346 3346,13661 2834,13661 2834,13346 3346,13346 "
       id="polyline4268" />
    <polyline
       style="fill-rule:evenodd;"
       points="3346,12716 3346,13031 2834,13031 2834,12716 3346,12716 "
       id="polyline4270" />
    <polyline
       style="fill-rule:evenodd;"
       points="3346,13031 3346,13346 2834,13346 2834,13031 3346,13031 "
       id="polyline4272" />
    <polyline
       style="fill-rule:evenodd;"
       points="7677,14606 7677,14921 7165,14921 7165,14606 7677,14606 "
       id="polyline4274" />
    <polyline
       style="fill-rule:evenodd;"
       points="7677,14291 7677,14606 7165,14606 7165,14291 7677,14291 "
       id="polyline4276" />
    <polyline
       style="fill-rule:evenodd;"
       points="7677,14921 7677,15236 7165,15236 7165,14921 7677,14921 "
       id="polyline4278" />
    <polyline
       style="fill-rule:evenodd;"
       points="7677,13976 7677,14291 7165,14291 7165,13976 7677,13976 "
       id="polyline4280" />
    <polyline
       style="fill-rule:evenodd;"
       points="7007,14921 7007,15236 6496,15236 6496,14921 7007,14921 "
       id="polyline4282" />
    <polyline
       style="fill-rule:evenodd;"
       points="7007,14606 7007,14921 6496,14921 6496,14606 7007,14606 "
       id="polyline4284" />
    <polyline
       style="fill-rule:evenodd;"
       points="7007,14291 7007,14606 6496,14606 6496,14291 7007,14291 "
       id="polyline4286" />
    <polyline
       style="fill-rule:evenodd;"
       points="7007,13976 7007,14291 6496,14291 6496,13976 7007,13976 "
       id="polyline4288" />
    <polyline
       style="fill-rule:evenodd;"
       points="7007,11220 7007,11535 6496,11535 6496,11220 7007,11220 "
       id="polyline4290" />
    <polyline
       style="fill-rule:evenodd;"
       points="7007,11535 7007,11850 6496,11850 6496,11535 7007,11535 "
       id="polyline4292" />
    <polyline
       style="fill-rule:evenodd;"
       points="7007,11850 7007,12165 6496,12165 6496,11850 7007,11850 "
       id="polyline4294" />
    <polyline
       style="fill-rule:evenodd;"
       points="7007,12165 7007,12480 6496,12480 6496,12165 7007,12165 "
       id="polyline4296" />
    <polyline
       style="fill-rule:evenodd;"
       points="7677,11220 7677,11535 7165,11535 7165,11220 7677,11220 "
       id="polyline4298" />
    <polyline
       style="fill-rule:evenodd;"
       points="7677,12165 7677,12480 7165,12480 7165,12165 7677,12165 "
       id="polyline4300" />
    <polyline
       style="fill-rule:evenodd;"
       points="7677,11535 7677,11850 7165,11850 7165,11535 7677,11535 "
       id="polyline4302" />
    <polyline
       style="fill-rule:evenodd;"
       points="7677,11850 7677,12165 7165,12165 7165,11850 7677,11850 "
       id="polyline4304" />
  </g>
  <g
     style="fill:#000000; fill-opacity:1.0;  stroke:#000000; stroke-width:0; stroke-opacity:1;  stroke-linecap:round; stroke-linejoin:round;"
     id="g4308" />
  <g
     style="fill:#008484; fill-opacity:1.0;  stroke:#008484; stroke-width:0; stroke-opacity:1;  stroke-linecap:round; stroke-linejoin:round;"
     id="g4310" />
  <g
     style="fill:#008484; fill-opacity:1.0;  stroke:#008484; stroke-width:47.2441; stroke-opacity:1;  stroke-linecap:round; stroke-linejoin:round;"
     id="g4312" />
  <g
     style="fill:#008484; fill-opacity:0.0;  stroke:#008484; stroke-width:47.2441; stroke-opacity:1;  stroke-linecap:round; stroke-linejoin:round;"
     id="g4440">
    <path
       d="M9429 9885 L8381 9885 "
       id="path4314" />
    <path
       d="M9429 15909 L9429 9885 "
       id="path4316" />
    <path
       d="M8381 15909 L8381 9885 "
       id="path4318" />
    <path
       d="M9429 15909 L8381 15909 "
       id="path4320" />
    <path
       d="M1429 9885 L381 9885 "
       id="path4322" />
    <path
       d="M1429 15909 L1429 9885 "
       id="path4324" />
    <path
       d="M381 15909 L381 9885 "
       id="path4326" />
    <path
       d="M1429 15909 L381 15909 "
       id="path4328" />
    <path
       d="M8858 8188 L8858 9015 "
       id="path4330" />
    <path
       d="M8464 8188 L8464 9015 "
       id="path4332" />
    <path
       d="M8858 8188 L8464 8188 "
       id="path4334" />
    <path
       d="M3385 8562 L3385 8838 "
       id="path4336" />
    <path
       d="M2913 8838 L2913 8562 "
       id="path4338" />
    <path
       d="M5748 8562 L5748 8838 "
       id="path4340" />
    <path
       d="M5275 8838 L5275 8562 "
       id="path4342" />
    <path
       d="M6850 8838 L6850 8562 "
       id="path4344" />
    <path
       d="M7322 8562 L7322 8838 "
       id="path4346" />
    <path
       d="M6535 8562 L6535 8838 "
       id="path4348" />
    <path
       d="M6062 8838 L6062 8562 "
       id="path4350" />
    <path
       d="M3818 15984 L3818 16377 "
       id="path4352" />
    <path
       d="M3818 16377 L4645 16377 "
       id="path4354" />
    <path
       d="M3818 15984 L4645 15984 "
       id="path4356" />
    <path
       d="M3818 14803 L4645 14803 "
       id="path4358" />
    <path
       d="M3818 15196 L4645 15196 "
       id="path4360" />
    <path
       d="M3818 14803 L3818 15196 "
       id="path4362" />
    <path
       d="M3740 13622 L3740 14015 "
       id="path4364" />
    <path
       d="M3740 14015 L4566 14015 "
       id="path4366" />
    <path
       d="M3740 13622 L4566 13622 "
       id="path4368" />
    <path
       d="M3818 12440 L4645 12440 "
       id="path4370" />
    <path
       d="M3818 12834 L4645 12834 "
       id="path4372" />
    <path
       d="M3818 12440 L3818 12834 "
       id="path4374" />
    <path
       d="M3818 11259 L3818 11653 "
       id="path4376" />
    <path
       d="M3818 11653 L4645 11653 "
       id="path4378" />
    <path
       d="M3818 11259 L4645 11259 "
       id="path4380" />
    <path
       d="M3818 10078 L4645 10078 "
       id="path4382" />
    <path
       d="M3818 10472 L4645 10472 "
       id="path4384" />
    <path
       d="M3818 10078 L3818 10472 "
       id="path4386" />
    <path
       d="M1051 6602 L1574 6602 "
       id="path4388" />
    <path
       d="M1051 7125 L1051 6602 "
       id="path4390" />
    <path
       d="M1051 7625 L2098 7625 "
       id="path4392" />
    <path
       d="M2098 7625 L2098 7649 "
       id="path4394" />
    <path
       d="M1051 7625 L1051 7649 "
       id="path4396" />
    <path
       d="M1051 7649 L2098 7649 "
       id="path4398" />
    <path
       d="M5314 15913 L5708 15913 "
       id="path4400" />
    <path
       d="M5708 16448 L5314 16448 "
       id="path4402" />
    <path
       d="M5708 15267 L5314 15267 "
       id="path4404" />
    <path
       d="M5314 14732 L5708 14732 "
       id="path4406" />
    <path
       d="M5314 13551 L5708 13551 "
       id="path4408" />
    <path
       d="M5708 14086 L5314 14086 "
       id="path4410" />
    <path
       d="M5314 12370 L5708 12370 "
       id="path4412" />
    <path
       d="M5708 12905 L5314 12905 "
       id="path4414" />
    <path
       d="M5708 11724 L5314 11724 "
       id="path4416" />
    <path
       d="M5314 11188 L5708 11188 "
       id="path4418" />
    <path
       d="M5314 10007 L5708 10007 "
       id="path4420" />
    <path
       d="M5708 10543 L5314 10543 "
       id="path4422" />
    <path
       d="M8141 8503 L8141 8897 "
       id="path4424" />
    <path
       d="M7606 8897 L7606 8503 "
       id="path4426" />
    <path
       d="M1842 8503 L1842 8897 "
       id="path4428" />
    <path
       d="M1307 8897 L1307 8503 "
       id="path4430" />
    <path
       d="M4031 8078 L4606 8078 "
       id="path4432" />
    <path
       d="M4031 9322 L4881 9322 "
       id="path4434" />
    <path
       d="M4031 9322 L4031 8956 "
       id="path4436" />
    <path
       d="M4031 8078 L4031 8444 "
       id="path4438" />
  </g>
  <g
     style="fill:#008484; fill-opacity:0.0;  stroke:#008484; stroke-width:39.3701; stroke-opacity:1;  stroke-linecap:round; stroke-linejoin:round;"
     id="g4456">
    <path
       d="M9102 7173 L9035 7173 "
       id="path4442" />
    <path
       d="M9102 6338 L9102 7173 "
       id="path4444" />
    <path
       d="M2708 779 L2775 779 "
       id="path4446" />
    <path
       d="M2708 779 L2708 1614 "
       id="path4448" />
    <path
       d="M2708 7173 L2775 7173 "
       id="path4450" />
    <path
       d="M2708 6338 L2708 7173 "
       id="path4452" />
    <path
       d="M9102 779 L9102 3976 "
       id="path4454" />
  </g>
  <g
     style="fill:#008484; fill-opacity:0.0;  stroke:#008484; stroke-width:47.2441; stroke-opacity:1;  stroke-linecap:round; stroke-linejoin:round;"
     id="g4470">
    <path
       d="M2598 13708 L2913 13708 "
       id="path4458" />
    <path
       d="M2598 12354 L2913 12354 "
       id="path4460" />
    <path
       d="M6929 13929 L7244 13929 "
       id="path4462" />
    <path
       d="M6929 15283 L7244 15283 "
       id="path4464" />
    <path
       d="M6929 12527 L7244 12527 "
       id="path4466" />
    <path
       d="M6929 11173 L7244 11173 "
       id="path4468" />
  </g>
  <g
     style="fill:#000000; fill-opacity:0.0;  stroke:#000000; stroke-width:47.2441; stroke-opacity:1;  stroke-linecap:round; stroke-linejoin:round;"
     id="g4472" />
  <g
     style="fill:#C2C200; fill-opacity:0.0;  stroke:#C2C200; stroke-width:47.2441; stroke-opacity:1;  stroke-linecap:round; stroke-linejoin:round;"
     id="g4474" />
  <g
     style="fill:#C2C200; fill-opacity:0.0;  stroke:#C2C200; stroke-width:59.0551; stroke-opacity:1;  stroke-linecap:round; stroke-linejoin:round;"
     id="g4482">
    <path
       d="M1771 5944 L590 5944 "
       id="path4476" />
    <path
       d="M2559.06 39.3705 A393.701 393.701 0.0 0 0 2165.35 433.071 "
       id="path4478" />
    <path
       d="M1771.65 5944.88 A393.701 393.701 0.0 0 0 2165.35 5551.18 "
       id="path4480" />
  </g>
  <g
     style="fill:#C2C200; fill-opacity:0.0;  stroke:#C2C200; stroke-width:78.7402; stroke-opacity:1;  stroke-linecap:round; stroke-linejoin:round;"
     id="g4486">
    <path
       d="M590.551 5944.88 A393.701 393.701 0.0 0 0 196.85 6338.58 "
       id="path4484" />
  </g>
  <g
     style="fill:#C2C200; fill-opacity:0.0;  stroke:#C2C200; stroke-width:59.0551; stroke-opacity:1;  stroke-linecap:round; stroke-linejoin:round;"
     id="g4490">
    <path
       d="M9645.67 433.071 A393.701 393.701 0.0 0 0 9251.97 39.3705 "
       id="path4488" />
  </g>
  <g
     style="fill:#C2C200; fill-opacity:0.0;  stroke:#C2C200; stroke-width:78.7402; stroke-opacity:1;  stroke-linecap:round; stroke-linejoin:round;"
     id="g4494" />
  <g
     style="fill:#C2C200; fill-opacity:0.0;  stroke:#C2C200; stroke-width:59.0551; stroke-opacity:1;  stroke-linecap:round; stroke-linejoin:round;"
     id="g4500" />
  <g
     style="fill:#C2C200; fill-opacity:0.0;  stroke:#C2C200; stroke-width:78.7402; stroke-opacity:1;  stroke-linecap:round; stroke-linejoin:round;"
     id="g4510">
    <path
       id="path4508"
       d="M 9645,16574 V 433 M 9251,39 H 2559 M 2165,433 V 5551 M 196,6338 v 10236 m 9055,394 H 590 m -393.15,-393.2 a 393.701,393.701 0 0 0 393.701,393.7 m 8661.419,0 a 393.701,393.701 0 0 0 393.7,-393.7"
       style="fill:#000000" />
  </g>
  <text
     xml:space="preserve"
     style="font-style:normal;font-weight:normal;font-size:1388.88879395px;line-height:2604.16650391px;font-family:sans-serif;letter-spacing:0px;word-spacing:0px;fill:#000000;fill-opacity:1;stroke:none;stroke-width:104.16665649"
     x="2321.356"
     y="10845.085"
     id="text4522"><tspan
       sodipodi:role="line"
       id="tspan4520"
       x="2321.356"
       y="10845.085"
       style="stroke-width:104.16665649">L</tspan></text>
  <text
     xml:space="preserve"
     style="font-style:normal;font-weight:normal;font-size:1388.88879395px;line-height:2604.16650391px;font-family:sans-serif;letter-spacing:0px;word-spacing:0px;fill:#000000;fill-opacity:1;stroke:none;stroke-width:104.16665649"
     x="1922.3728"
     y="14907.458"
     id="text4526"><tspan
       sodipodi:role="line"
       id="tspan4524"
       x="1922.3728"
       y="14907.458"
       style="stroke-width:104.16665649">T</tspan></text>
  <g
     id="g5475"
     transform="translate(-8213.7969,-977.16478)">
    <rect
       ry="269.91284"
       y="10384.748"
       x="11944.409"
       height="539.82568"
       width="1156.4354"
       id="rect4539"
       style="fill:#ffffff;fill-opacity:1;stroke:#000000;stroke-width:41.22475433;stroke-miterlimit:4;stroke-dasharray:none;stroke-opacity:1" />
    <text
       transform="scale(0.95637002,1.0456204)"
       id="text4530"
       y="10317.918"
       x="12774.884"
       style="font-style:normal;font-weight:normal;font-size:350.53186035px;line-height:657.24731445px;font-family:sans-serif;letter-spacing:0px;word-spacing:0px;fill:#000000;fill-opacity:1;stroke:none;stroke-width:26.28988838"
       xml:space="preserve"><tspan
         style="font-style:normal;font-variant:normal;font-weight:normal;font-stretch:normal;font-family:'Venus Rising';-inkscape-font-specification:'Venus Rising';stroke-width:26.28988838"
         y="10317.918"
         x="12774.884"
         id="tspan4528"
         sodipodi:role="line">IO1</tspan><tspan
         id="tspan4532"
         style="stroke-width:26.28988838"
         y="10977.888"
         x="12774.884"
         sodipodi:role="line" /><tspan
         id="tspan4534"
         style="stroke-width:26.28988838"
         y="11635.135"
         x="12774.884"
         sodipodi:role="line" /></text>
  </g>
  <rect
     ry="269.91284"
     y="10593.104"
     x="3730.6123"
     height="539.82568"
     width="1156.4354"
     id="rect5355"
     style="fill:#ffffff;fill-opacity:1;stroke:#000000;stroke-width:41.22475433;stroke-miterlimit:4;stroke-dasharray:none;stroke-opacity:1" />
  <text
     transform="scale(0.95637002,1.0456204)"
     id="text5363"
     y="10517.182"
     x="4096.5737"
     style="font-style:normal;font-weight:normal;font-size:350.53186035px;line-height:657.24731445px;font-family:sans-serif;letter-spacing:0px;word-spacing:0px;fill:#000000;fill-opacity:1;stroke:none;stroke-width:26.28988838"
     xml:space="preserve"><tspan
       style="font-style:normal;font-variant:normal;font-weight:normal;font-stretch:normal;font-family:'Venus Rising';-inkscape-font-specification:'Venus Rising';stroke-width:26.28988838"
       y="10517.182"
       x="4096.5737"
       id="tspan5357"
       sodipodi:role="line">IO2</tspan><tspan
       id="tspan5359"
       style="stroke-width:26.28988838"
       y="11177.151"
       x="4096.5737"
       sodipodi:role="line" /><tspan
       id="tspan5361"
       style="stroke-width:26.28988838"
       y="11834.398"
       x="4096.5737"
       sodipodi:role="line" /></text>
  <g
     id="g5482"
     transform="translate(-8213.7968,-499.97737)">
    <rect
       ry="269.91284"
       y="12259.748"
       x="11944.409"
       height="539.82568"
       width="1156.4354"
       id="rect5367"
       style="fill:#ffffff;fill-opacity:1;stroke:#000000;stroke-width:41.22475433;stroke-miterlimit:4;stroke-dasharray:none;stroke-opacity:1" />
    <text
       transform="scale(0.95637002,1.0456204)"
       id="text5375"
       y="12111.111"
       x="12686.048"
       style="font-style:normal;font-weight:normal;font-size:350.53186035px;line-height:657.24731445px;font-family:sans-serif;letter-spacing:0px;word-spacing:0px;fill:#000000;fill-opacity:1;stroke:none;stroke-width:26.28988838"
       xml:space="preserve"><tspan
         style="font-style:normal;font-variant:normal;font-weight:normal;font-stretch:normal;font-family:'Venus Rising';-inkscape-font-specification:'Venus Rising';stroke-width:26.28988838"
         y="12111.111"
         x="12686.048"
         id="tspan5369"
         sodipodi:role="line">IO3</tspan><tspan
         id="tspan5371"
         style="stroke-width:26.28988838"
         y="12771.081"
         x="12686.048"
         sodipodi:role="line" /><tspan
         id="tspan5373"
         style="stroke-width:26.28988838"
         y="13428.328"
         x="12686.048"
         sodipodi:role="line" /></text>
  </g>
  <g
     id="g5489"
     transform="translate(-8213.7968,-135.39376)">
    <rect
       style="fill:#ffffff;fill-opacity:1;stroke:#000000;stroke-width:41.22475433;stroke-miterlimit:4;stroke-dasharray:none;stroke-opacity:1"
       id="rect5379"
       width="1156.4354"
       height="539.82568"
       x="11944.409"
       y="13093.081"
       ry="269.91284" />
    <text
       xml:space="preserve"
       style="font-style:normal;font-weight:normal;font-size:350.53186035px;line-height:657.24731445px;font-family:sans-serif;letter-spacing:0px;word-spacing:0px;fill:#000000;fill-opacity:1;stroke:none;stroke-width:26.28988838"
       x="12670.189"
       y="12908.087"
       id="text5387"
       transform="scale(0.95637002,1.0456204)"><tspan
         sodipodi:role="line"
         id="tspan5381"
         x="12670.189"
         y="12908.087"
         style="font-style:normal;font-variant:normal;font-weight:normal;font-stretch:normal;font-family:'Venus Rising';-inkscape-font-specification:'Venus Rising';stroke-width:26.28988838">IO4</tspan><tspan
         sodipodi:role="line"
         x="12670.189"
         y="13568.057"
         style="stroke-width:26.28988838"
         id="tspan5383" /><tspan
         sodipodi:role="line"
         x="12670.189"
         y="14225.304"
         style="stroke-width:26.28988838"
         id="tspan5385" /></text>
  </g>
  <g
     id="g5536"
     transform="translate(-8213.7968,197.93985)">
    <rect
       ry="269.91284"
       y="13926.414"
       x="11944.409"
       height="539.82568"
       width="1156.4354"
       id="rect5391"
       style="fill:#ffffff;fill-opacity:1;stroke:#000000;stroke-width:41.22475433;stroke-miterlimit:4;stroke-dasharray:none;stroke-opacity:1" />
    <g
       id="g5514">
      <g
         id="g5495">
        <text
           transform="scale(0.95637002,1.0456204)"
           id="text5399"
           y="13705.062"
           x="12685.087"
           style="font-style:normal;font-weight:normal;font-size:350.53186035px;line-height:657.24731445px;font-family:sans-serif;letter-spacing:0px;word-spacing:0px;fill:#000000;fill-opacity:1;stroke:none;stroke-width:26.28988838"
           xml:space="preserve"><tspan
             style="font-style:normal;font-variant:normal;font-weight:normal;font-stretch:normal;font-family:'Venus Rising';-inkscape-font-specification:'Venus Rising';stroke-width:26.28988838"
             y="13705.062"
             x="12685.087"
             id="tspan5393"
             sodipodi:role="line">IO5</tspan><tspan
             id="tspan5395"
             style="stroke-width:26.28988838"
             y="14365.031"
             x="12685.087"
             sodipodi:role="line" /><tspan
             id="tspan5397"
             style="stroke-width:26.28988838"
             y="15022.278"
             x="12685.087"
             sodipodi:role="line" /></text>
      </g>
    </g>
  </g>
  <g
     id="g5527"
     transform="translate(-8213.7968,354.18948)">
    <g
       id="g5507">
      <rect
         ry="269.91284"
         y="14968.081"
         x="11944.409"
         height="539.82568"
         width="1156.4354"
         id="rect5403"
         style="fill:#ffffff;fill-opacity:1;stroke:#000000;stroke-width:41.22475433;stroke-miterlimit:4;stroke-dasharray:none;stroke-opacity:1" />
      <text
         transform="scale(0.95637002,1.0456204)"
         id="text5411"
         y="14701.28"
         x="12774.884"
         style="font-style:normal;font-weight:normal;font-size:350.53186035px;line-height:657.24731445px;font-family:sans-serif;letter-spacing:0px;word-spacing:0px;fill:#000000;fill-opacity:1;stroke:none;stroke-width:26.28988838"
         xml:space="preserve"><tspan
           style="font-style:normal;font-variant:normal;font-weight:normal;font-stretch:normal;font-family:'Venus Rising';-inkscape-font-specification:'Venus Rising';stroke-width:26.28988838"
           y="14701.28"
           x="12774.884"
           id="tspan5405"
           sodipodi:role="line">IO1</tspan><tspan
           id="tspan5407"
           style="stroke-width:26.28988838"
           y="15361.25"
           x="12774.884"
           sodipodi:role="line" /><tspan
           id="tspan5409"
           style="stroke-width:26.28988838"
           y="16018.497"
           x="12774.884"
           sodipodi:role="line" /></text>
      <rect
         style="fill:#ffffff;fill-opacity:1;stroke:#000000;stroke-width:41.22475433;stroke-miterlimit:4;stroke-dasharray:none;stroke-opacity:1"
         id="rect5415"
         width="1156.4354"
         height="539.82568"
         x="11944.409"
         y="14968.081"
         ry="269.91284" />
      <text
         xml:space="preserve"
         style="font-style:normal;font-weight:normal;font-size:350.53186035px;line-height:657.24731445px;font-family:sans-serif;letter-spacing:0px;word-spacing:0px;fill:#000000;fill-opacity:1;stroke:none;stroke-width:26.28988838"
         x="12680.681"
         y="14701.28"
         id="text5423"
         transform="scale(0.95637002,1.0456204)"><tspan
           sodipodi:role="line"
           id="tspan5417"
           x="12680.681"
           y="14701.28"
           style="font-style:normal;font-variant:normal;font-weight:normal;font-stretch:normal;font-family:'Venus Rising';-inkscape-font-specification:'Venus Rising';stroke-width:26.28988838">IO6</tspan><tspan
           sodipodi:role="line"
           x="12680.681"
           y="15361.25"
           style="stroke-width:26.28988838"
           id="tspan5419" /><tspan
           sodipodi:role="line"
           x="12680.681"
           y="16018.497"
           style="stroke-width:26.28988838"
           id="tspan5421" /></text>
    </g>
  </g>
  <flowRoot
     xml:space="preserve"
     id="flowRoot5427"
     style="fill:black;fill-opacity:1;stroke:none;font-family:sans-serif;font-style:normal;font-weight:normal;font-size:13.33333333px;line-height:25px;letter-spacing:0px;word-spacing:0px"><flowRegion
       id="flowRegion5429"><rect
         id="rect5431"
         width="26.985764"
         height="62.850716"
         x="109.85818"
         y="94.711327" /></flowRegion><flowPara
       id="flowPara5433"></flowPara></flowRoot>  <rect
     style="fill:#ffffff;fill-opacity:1;stroke:#000000;stroke-width:55.11810684;stroke-miterlimit:4;stroke-dasharray:none;stroke-opacity:1"
     id="rect5538"
     width="538.59967"
     height="461.65683"
     x="4334.4448"
     y="3244.6475"
     ry="0" />
</svg>
