M48
;DRILL file {KiCad (5.0.0)} date 12/13/18 13:48:06
;FORMAT={-:-/ absolute / metric / decimal}
FMAT,2
METRIC,TZ
T1C0.400
T2C1.000
%
G90
G05
M71
T1
X113.Y-43.
X113.Y-44.
X113.Y-45.
X113.Y-46.
X113.Y-47.
X114.Y-43.
X114.Y-47.
X115.Y-43.
X115.Y-47.
X116.Y-43.
X116.Y-47.
X116.5Y-49.75
X117.Y-43.
X117.Y-44.
X117.Y-46.
X117.Y-47.
X117.5Y-41.5
X117.5Y-52.
X117.75Y-43.5
X117.75Y-46.5
X118.75Y-54.
X118.75Y-57.75
X118.75Y-62.25
X119.Y-66.5
X120.Y-37.5
X120.Y-59.5
X120.Y-60.5
X121.Y-30.75
X123.Y-32.
X123.Y-42.75
X125.Y-32.
X125.Y-42.75
X125.75Y-53.
X125.75Y-56.
X125.75Y-59.
X125.75Y-62.
X125.75Y-65.
X125.75Y-68.
X127.Y-32.
X127.Y-38.5
X129.Y-32.
X129.Y-42.75
X129.Y-61.
X129.Y-67.25
X131.Y-32.
X131.Y-42.75
X131.Y-52.
X131.25Y-57.4
X131.25Y-58.5
X131.25Y-62.5
X131.25Y-63.5
X131.25Y-64.5
X131.25Y-65.75
X132.5Y-38.5
X133.Y-42.75
T2
X113.3Y-53.34
X113.3Y-55.88
X113.3Y-58.42
X113.3Y-60.96
X113.3Y-63.5
X113.3Y-66.04
X113.3Y-68.58
X133.62Y-53.34
X133.62Y-55.88
X133.62Y-58.42
X133.62Y-60.96
X133.62Y-63.5
X133.62Y-66.04
X133.62Y-68.58
X115.Y-45.
T0
M30
