G04 #@! TF.GenerationSoftware,KiCad,Pcbnew,(5.0.0)*
G04 #@! TF.CreationDate,2018-12-13T13:47:45+00:00*
G04 #@! TF.ProjectId,LoraThing,4C6F72615468696E672E6B696361645F,rev?*
G04 #@! TF.SameCoordinates,Original*
G04 #@! TF.FileFunction,Legend,Top*
G04 #@! TF.FilePolarity,Positive*
%FSLAX46Y46*%
G04 Gerber Fmt 4.6, Leading zero omitted, Abs format (unit mm)*
G04 Created by KiCad (PCBNEW (5.0.0)) date 12/13/18 13:47:45*
%MOMM*%
%LPD*%
G01*
G04 APERTURE LIST*
%ADD10C,0.120000*%
%ADD11C,0.100000*%
%ADD12C,0.010000*%
G04 APERTURE END LIST*
D10*
G04 #@! TO.C,J2*
X134950000Y-52010000D02*
X132290000Y-52010000D01*
X134950000Y-67310000D02*
X134950000Y-52010000D01*
X132290000Y-67310000D02*
X132290000Y-52010000D01*
X134950000Y-67310000D02*
X132290000Y-67310000D01*
G04 #@! TO.C,J1*
X114630000Y-52010000D02*
X111970000Y-52010000D01*
X114630000Y-67310000D02*
X114630000Y-52010000D01*
X111970000Y-67310000D02*
X111970000Y-52010000D01*
X114630000Y-67310000D02*
X111970000Y-67310000D01*
G04 #@! TO.C,D7*
X133500000Y-47700000D02*
X133500000Y-49800000D01*
X132500000Y-47700000D02*
X132500000Y-49800000D01*
X133500000Y-47700000D02*
X132500000Y-47700000D01*
G04 #@! TO.C,C1*
X119600000Y-48650000D02*
X119600000Y-49350000D01*
X118400000Y-49350000D02*
X118400000Y-48650000D01*
G04 #@! TO.C,C2*
X125600000Y-48650000D02*
X125600000Y-49350000D01*
X124400000Y-49350000D02*
X124400000Y-48650000D01*
G04 #@! TO.C,C3*
X128400000Y-49350000D02*
X128400000Y-48650000D01*
X129600000Y-48650000D02*
X129600000Y-49350000D01*
G04 #@! TO.C,C4*
X127600000Y-48650000D02*
X127600000Y-49350000D01*
X126400000Y-49350000D02*
X126400000Y-48650000D01*
G04 #@! TO.C,D1*
X120700000Y-67500000D02*
X120700000Y-68500000D01*
X120700000Y-68500000D02*
X122800000Y-68500000D01*
X120700000Y-67500000D02*
X122800000Y-67500000D01*
G04 #@! TO.C,D2*
X120700000Y-64500000D02*
X122800000Y-64500000D01*
X120700000Y-65500000D02*
X122800000Y-65500000D01*
X120700000Y-64500000D02*
X120700000Y-65500000D01*
G04 #@! TO.C,D3*
X120500000Y-61500000D02*
X120500000Y-62500000D01*
X120500000Y-62500000D02*
X122600000Y-62500000D01*
X120500000Y-61500000D02*
X122600000Y-61500000D01*
G04 #@! TO.C,D4*
X120700000Y-58500000D02*
X122800000Y-58500000D01*
X120700000Y-59500000D02*
X122800000Y-59500000D01*
X120700000Y-58500000D02*
X120700000Y-59500000D01*
G04 #@! TO.C,D5*
X120700000Y-55500000D02*
X120700000Y-56500000D01*
X120700000Y-56500000D02*
X122800000Y-56500000D01*
X120700000Y-55500000D02*
X122800000Y-55500000D01*
G04 #@! TO.C,D6*
X120700000Y-52500000D02*
X122800000Y-52500000D01*
X120700000Y-53500000D02*
X122800000Y-53500000D01*
X120700000Y-52500000D02*
X120700000Y-53500000D01*
G04 #@! TO.C,J3*
X113670000Y-43670000D02*
X115000000Y-43670000D01*
X113670000Y-45000000D02*
X113670000Y-43670000D01*
X113670000Y-46270000D02*
X116330000Y-46270000D01*
X116330000Y-46270000D02*
X116330000Y-46330000D01*
X113670000Y-46270000D02*
X113670000Y-46330000D01*
X113670000Y-46330000D02*
X116330000Y-46330000D01*
G04 #@! TO.C,R1*
X124500000Y-67320000D02*
X125500000Y-67320000D01*
X125500000Y-68680000D02*
X124500000Y-68680000D01*
G04 #@! TO.C,R2*
X125500000Y-65680000D02*
X124500000Y-65680000D01*
X124500000Y-64320000D02*
X125500000Y-64320000D01*
G04 #@! TO.C,R3*
X124500000Y-61320000D02*
X125500000Y-61320000D01*
X125500000Y-62680000D02*
X124500000Y-62680000D01*
G04 #@! TO.C,R4*
X124500000Y-58320000D02*
X125500000Y-58320000D01*
X125500000Y-59680000D02*
X124500000Y-59680000D01*
G04 #@! TO.C,R5*
X125500000Y-56680000D02*
X124500000Y-56680000D01*
X124500000Y-55320000D02*
X125500000Y-55320000D01*
G04 #@! TO.C,R6*
X124500000Y-52320000D02*
X125500000Y-52320000D01*
X125500000Y-53680000D02*
X124500000Y-53680000D01*
G04 #@! TO.C,R7*
X131680000Y-48500000D02*
X131680000Y-49500000D01*
X130320000Y-49500000D02*
X130320000Y-48500000D01*
G04 #@! TO.C,R8*
X115680000Y-48500000D02*
X115680000Y-49500000D01*
X114320000Y-49500000D02*
X114320000Y-48500000D01*
G04 #@! TO.C,U1*
X121240000Y-47420000D02*
X122700000Y-47420000D01*
X121240000Y-50580000D02*
X123400000Y-50580000D01*
X121240000Y-50580000D02*
X121240000Y-49650000D01*
X121240000Y-47420000D02*
X121240000Y-48350000D01*
D11*
G04 #@! TO.C,U2*
X134120000Y-45120000D02*
X133950000Y-45120000D01*
X134120000Y-43000000D02*
X134120000Y-45120000D01*
X117880000Y-28880000D02*
X118050000Y-28880000D01*
X117880000Y-28880000D02*
X117880000Y-31000000D01*
X117880000Y-45120000D02*
X118050000Y-45120000D01*
X117880000Y-43000000D02*
X117880000Y-45120000D01*
X134120000Y-28880000D02*
X134120000Y-37000000D01*
D10*
G04 #@! TO.C,RN1*
X117600000Y-61720000D02*
X118400000Y-61720000D01*
X117600000Y-58280000D02*
X118400000Y-58280000D01*
G04 #@! TO.C,RN2*
X128600000Y-62280000D02*
X129400000Y-62280000D01*
X128600000Y-65720000D02*
X129400000Y-65720000D01*
G04 #@! TO.C,RN3*
X128600000Y-58720000D02*
X129400000Y-58720000D01*
X128600000Y-55280000D02*
X129400000Y-55280000D01*
D12*
G04 #@! TO.C,G\002A\002A\002A*
G36*
X122618447Y-30596915D02*
X122620639Y-30602014D01*
X122620085Y-30663553D01*
X122574542Y-30692899D01*
X122535840Y-30688863D01*
X122452861Y-30662738D01*
X122418880Y-30644458D01*
X122422110Y-30622954D01*
X122440664Y-30599498D01*
X122502860Y-30559078D01*
X122571151Y-30558343D01*
X122618447Y-30596915D01*
X122618447Y-30596915D01*
G37*
X122618447Y-30596915D02*
X122620639Y-30602014D01*
X122620085Y-30663553D01*
X122574542Y-30692899D01*
X122535840Y-30688863D01*
X122452861Y-30662738D01*
X122418880Y-30644458D01*
X122422110Y-30622954D01*
X122440664Y-30599498D01*
X122502860Y-30559078D01*
X122571151Y-30558343D01*
X122618447Y-30596915D01*
G36*
X121372604Y-30638769D02*
X121383587Y-30701586D01*
X121373970Y-30743393D01*
X121334350Y-30798258D01*
X121276667Y-30796408D01*
X121227969Y-30755578D01*
X121203715Y-30710361D01*
X121230388Y-30672102D01*
X121246070Y-30660090D01*
X121323847Y-30623036D01*
X121372604Y-30638769D01*
X121372604Y-30638769D01*
G37*
X121372604Y-30638769D02*
X121383587Y-30701586D01*
X121373970Y-30743393D01*
X121334350Y-30798258D01*
X121276667Y-30796408D01*
X121227969Y-30755578D01*
X121203715Y-30710361D01*
X121230388Y-30672102D01*
X121246070Y-30660090D01*
X121323847Y-30623036D01*
X121372604Y-30638769D01*
G36*
X122594740Y-30980700D02*
X122627819Y-30999798D01*
X122608211Y-31039031D01*
X122593133Y-31055038D01*
X122532130Y-31085366D01*
X122455181Y-31092169D01*
X122398222Y-31072321D01*
X122397912Y-31072014D01*
X122375703Y-31024850D01*
X122411550Y-30991916D01*
X122500628Y-30977513D01*
X122504010Y-30977413D01*
X122594740Y-30980700D01*
X122594740Y-30980700D01*
G37*
X122594740Y-30980700D02*
X122627819Y-30999798D01*
X122608211Y-31039031D01*
X122593133Y-31055038D01*
X122532130Y-31085366D01*
X122455181Y-31092169D01*
X122398222Y-31072321D01*
X122397912Y-31072014D01*
X122375703Y-31024850D01*
X122411550Y-30991916D01*
X122500628Y-30977513D01*
X122504010Y-30977413D01*
X122594740Y-30980700D01*
G36*
X129990481Y-31537476D02*
X130015699Y-31597262D01*
X130015790Y-31601507D01*
X129992526Y-31651146D01*
X129940873Y-31667070D01*
X129888043Y-31646573D01*
X129867331Y-31616282D01*
X129868256Y-31554753D01*
X129882105Y-31532481D01*
X129937639Y-31511591D01*
X129990481Y-31537476D01*
X129990481Y-31537476D01*
G37*
X129990481Y-31537476D02*
X130015699Y-31597262D01*
X130015790Y-31601507D01*
X129992526Y-31651146D01*
X129940873Y-31667070D01*
X129888043Y-31646573D01*
X129867331Y-31616282D01*
X129868256Y-31554753D01*
X129882105Y-31532481D01*
X129937639Y-31511591D01*
X129990481Y-31537476D01*
G36*
X121738343Y-31644473D02*
X121740100Y-31663513D01*
X121719880Y-31718230D01*
X121690022Y-31729825D01*
X121651779Y-31705960D01*
X121650235Y-31676761D01*
X121676816Y-31623704D01*
X121713593Y-31611849D01*
X121738343Y-31644473D01*
X121738343Y-31644473D01*
G37*
X121738343Y-31644473D02*
X121740100Y-31663513D01*
X121719880Y-31718230D01*
X121690022Y-31729825D01*
X121651779Y-31705960D01*
X121650235Y-31676761D01*
X121676816Y-31623704D01*
X121713593Y-31611849D01*
X121738343Y-31644473D01*
G36*
X127245340Y-31945505D02*
X127278317Y-31968430D01*
X127334134Y-32041329D01*
X127328687Y-32109805D01*
X127292088Y-32157250D01*
X127212037Y-32202318D01*
X127129472Y-32194066D01*
X127093835Y-32169073D01*
X127054141Y-32096268D01*
X127062455Y-32023359D01*
X127105767Y-31964494D01*
X127171066Y-31933826D01*
X127245340Y-31945505D01*
X127245340Y-31945505D01*
G37*
X127245340Y-31945505D02*
X127278317Y-31968430D01*
X127334134Y-32041329D01*
X127328687Y-32109805D01*
X127292088Y-32157250D01*
X127212037Y-32202318D01*
X127129472Y-32194066D01*
X127093835Y-32169073D01*
X127054141Y-32096268D01*
X127062455Y-32023359D01*
X127105767Y-31964494D01*
X127171066Y-31933826D01*
X127245340Y-31945505D01*
G36*
X124240250Y-32070697D02*
X124276430Y-32123084D01*
X124268776Y-32178311D01*
X124223294Y-32203242D01*
X124155768Y-32204303D01*
X124099977Y-32183511D01*
X124087668Y-32167481D01*
X124085554Y-32094782D01*
X124135365Y-32053352D01*
X124174310Y-32048120D01*
X124240250Y-32070697D01*
X124240250Y-32070697D01*
G37*
X124240250Y-32070697D02*
X124276430Y-32123084D01*
X124268776Y-32178311D01*
X124223294Y-32203242D01*
X124155768Y-32204303D01*
X124099977Y-32183511D01*
X124087668Y-32167481D01*
X124085554Y-32094782D01*
X124135365Y-32053352D01*
X124174310Y-32048120D01*
X124240250Y-32070697D01*
G36*
X129238064Y-32387606D02*
X129220197Y-32455085D01*
X129206145Y-32479219D01*
X129134582Y-32544413D01*
X129052106Y-32549900D01*
X128982181Y-32505955D01*
X128943405Y-32442215D01*
X128964177Y-32396414D01*
X129031694Y-32377924D01*
X129115413Y-32365463D01*
X129161129Y-32351882D01*
X129216716Y-32348514D01*
X129238064Y-32387606D01*
X129238064Y-32387606D01*
G37*
X129238064Y-32387606D02*
X129220197Y-32455085D01*
X129206145Y-32479219D01*
X129134582Y-32544413D01*
X129052106Y-32549900D01*
X128982181Y-32505955D01*
X128943405Y-32442215D01*
X128964177Y-32396414D01*
X129031694Y-32377924D01*
X129115413Y-32365463D01*
X129161129Y-32351882D01*
X129216716Y-32348514D01*
X129238064Y-32387606D01*
G36*
X129765669Y-31914430D02*
X129844084Y-31981491D01*
X129877755Y-32076191D01*
X129859841Y-32184564D01*
X129824472Y-32246365D01*
X129781551Y-32323703D01*
X129751009Y-32429625D01*
X129728529Y-32580110D01*
X129724793Y-32615247D01*
X129710602Y-32739923D01*
X129696475Y-32838409D01*
X129684774Y-32895046D01*
X129681482Y-32902311D01*
X129674091Y-32880729D01*
X129668414Y-32809393D01*
X129665411Y-32702205D01*
X129665177Y-32666145D01*
X129662777Y-32524413D01*
X129653034Y-32431555D01*
X129631142Y-32372837D01*
X129592294Y-32333525D01*
X129548139Y-32307385D01*
X129506083Y-32275819D01*
X129487971Y-32226577D01*
X129487589Y-32139246D01*
X129489202Y-32113838D01*
X129501474Y-31995903D01*
X129524303Y-31928120D01*
X129567300Y-31896991D01*
X129640082Y-31889016D01*
X129649354Y-31888973D01*
X129765669Y-31914430D01*
X129765669Y-31914430D01*
G37*
X129765669Y-31914430D02*
X129844084Y-31981491D01*
X129877755Y-32076191D01*
X129859841Y-32184564D01*
X129824472Y-32246365D01*
X129781551Y-32323703D01*
X129751009Y-32429625D01*
X129728529Y-32580110D01*
X129724793Y-32615247D01*
X129710602Y-32739923D01*
X129696475Y-32838409D01*
X129684774Y-32895046D01*
X129681482Y-32902311D01*
X129674091Y-32880729D01*
X129668414Y-32809393D01*
X129665411Y-32702205D01*
X129665177Y-32666145D01*
X129662777Y-32524413D01*
X129653034Y-32431555D01*
X129631142Y-32372837D01*
X129592294Y-32333525D01*
X129548139Y-32307385D01*
X129506083Y-32275819D01*
X129487971Y-32226577D01*
X129487589Y-32139246D01*
X129489202Y-32113838D01*
X129501474Y-31995903D01*
X129524303Y-31928120D01*
X129567300Y-31896991D01*
X129640082Y-31889016D01*
X129649354Y-31888973D01*
X129765669Y-31914430D01*
G36*
X122597094Y-33302740D02*
X122617126Y-33343745D01*
X122613185Y-33356740D01*
X122570183Y-33382655D01*
X122513655Y-33380072D01*
X122475386Y-33352966D01*
X122472181Y-33339097D01*
X122492486Y-33284311D01*
X122505404Y-33272697D01*
X122551109Y-33272239D01*
X122597094Y-33302740D01*
X122597094Y-33302740D01*
G37*
X122597094Y-33302740D02*
X122617126Y-33343745D01*
X122613185Y-33356740D01*
X122570183Y-33382655D01*
X122513655Y-33380072D01*
X122475386Y-33352966D01*
X122472181Y-33339097D01*
X122492486Y-33284311D01*
X122505404Y-33272697D01*
X122551109Y-33272239D01*
X122597094Y-33302740D01*
G36*
X129697043Y-32999616D02*
X129714458Y-33056313D01*
X129725840Y-33154435D01*
X129728836Y-33249687D01*
X129725726Y-33363101D01*
X129713798Y-33425119D01*
X129690205Y-33447722D01*
X129681579Y-33448622D01*
X129652260Y-33432409D01*
X129637652Y-33375771D01*
X129634269Y-33281516D01*
X129638296Y-33169814D01*
X129648046Y-33073793D01*
X129654600Y-33040104D01*
X129676216Y-32991745D01*
X129697043Y-32999616D01*
X129697043Y-32999616D01*
G37*
X129697043Y-32999616D02*
X129714458Y-33056313D01*
X129725840Y-33154435D01*
X129728836Y-33249687D01*
X129725726Y-33363101D01*
X129713798Y-33425119D01*
X129690205Y-33447722D01*
X129681579Y-33448622D01*
X129652260Y-33432409D01*
X129637652Y-33375771D01*
X129634269Y-33281516D01*
X129638296Y-33169814D01*
X129648046Y-33073793D01*
X129654600Y-33040104D01*
X129676216Y-32991745D01*
X129697043Y-32999616D01*
G36*
X122199225Y-33593998D02*
X122230566Y-33635351D01*
X122222431Y-33677049D01*
X122193541Y-33720316D01*
X122139943Y-33782940D01*
X122105637Y-33787428D01*
X122081288Y-33732505D01*
X122074482Y-33704035D01*
X122066871Y-33605937D01*
X122091895Y-33553505D01*
X122142938Y-33552576D01*
X122199225Y-33593998D01*
X122199225Y-33593998D01*
G37*
X122199225Y-33593998D02*
X122230566Y-33635351D01*
X122222431Y-33677049D01*
X122193541Y-33720316D01*
X122139943Y-33782940D01*
X122105637Y-33787428D01*
X122081288Y-33732505D01*
X122074482Y-33704035D01*
X122066871Y-33605937D01*
X122091895Y-33553505D01*
X122142938Y-33552576D01*
X122199225Y-33593998D01*
G36*
X129025514Y-33716974D02*
X129057597Y-33760791D01*
X129052829Y-33808659D01*
X129015037Y-33830577D01*
X128963565Y-33815312D01*
X128953478Y-33805185D01*
X128952149Y-33759366D01*
X128983170Y-33720659D01*
X129024323Y-33716271D01*
X129025514Y-33716974D01*
X129025514Y-33716974D01*
G37*
X129025514Y-33716974D02*
X129057597Y-33760791D01*
X129052829Y-33808659D01*
X129015037Y-33830577D01*
X128963565Y-33815312D01*
X128953478Y-33805185D01*
X128952149Y-33759366D01*
X128983170Y-33720659D01*
X129024323Y-33716271D01*
X129025514Y-33716974D01*
G36*
X122143275Y-33841186D02*
X122138906Y-33860109D01*
X122122055Y-33862406D01*
X122095856Y-33850760D01*
X122100836Y-33841186D01*
X122138610Y-33837377D01*
X122143275Y-33841186D01*
X122143275Y-33841186D01*
G37*
X122143275Y-33841186D02*
X122138906Y-33860109D01*
X122122055Y-33862406D01*
X122095856Y-33850760D01*
X122100836Y-33841186D01*
X122138610Y-33837377D01*
X122143275Y-33841186D01*
G36*
X129292394Y-31022683D02*
X129286903Y-31074999D01*
X129265478Y-31154765D01*
X129237896Y-31242874D01*
X129196076Y-31370942D01*
X129145731Y-31522064D01*
X129092572Y-31679333D01*
X129042311Y-31825845D01*
X129000661Y-31944694D01*
X128974383Y-32016291D01*
X128952262Y-32078426D01*
X128946927Y-32095865D01*
X128931742Y-32144150D01*
X128900081Y-32240492D01*
X128855118Y-32375521D01*
X128800028Y-32539862D01*
X128737983Y-32724145D01*
X128672158Y-32918996D01*
X128605726Y-33115045D01*
X128541861Y-33302918D01*
X128483737Y-33473243D01*
X128434527Y-33616649D01*
X128397405Y-33723763D01*
X128375545Y-33785213D01*
X128371136Y-33796208D01*
X128345842Y-33780526D01*
X128285032Y-33727898D01*
X128197932Y-33646661D01*
X128097945Y-33549300D01*
X127835464Y-33289016D01*
X127935458Y-33007103D01*
X128035451Y-32725191D01*
X127744480Y-32919801D01*
X127621121Y-33003486D01*
X127514285Y-33078131D01*
X127437185Y-33134375D01*
X127406315Y-33159332D01*
X127354596Y-33200961D01*
X127270343Y-33261535D01*
X127199422Y-33309570D01*
X127115620Y-33366514D01*
X126994495Y-33451004D01*
X126850167Y-33553091D01*
X126696760Y-33662824D01*
X126642000Y-33702306D01*
X126502647Y-33801478D01*
X126380363Y-33885623D01*
X126284812Y-33948313D01*
X126225661Y-33983119D01*
X126212301Y-33988060D01*
X126174655Y-33968911D01*
X126099997Y-33918884D01*
X126001094Y-33846781D01*
X125941604Y-33801384D01*
X125838224Y-33717765D01*
X125757399Y-33645732D01*
X125710328Y-33595618D01*
X125702882Y-33581125D01*
X125727776Y-33553443D01*
X125797616Y-33494918D01*
X125905141Y-33411132D01*
X126043092Y-33307669D01*
X126204207Y-33190112D01*
X126307644Y-33116081D01*
X126494257Y-32983453D01*
X126676730Y-32853758D01*
X126844192Y-32734724D01*
X126985771Y-32634080D01*
X127006736Y-32619174D01*
X128424311Y-32619174D01*
X128447416Y-32651587D01*
X128456141Y-32652882D01*
X128487143Y-32642023D01*
X128487970Y-32638846D01*
X128465666Y-32611671D01*
X128456141Y-32605138D01*
X128583459Y-32605138D01*
X128599374Y-32621053D01*
X128615288Y-32605138D01*
X128599374Y-32589223D01*
X128583459Y-32605138D01*
X128456141Y-32605138D01*
X128426810Y-32607662D01*
X128424311Y-32619174D01*
X127006736Y-32619174D01*
X127090593Y-32559553D01*
X127119298Y-32539140D01*
X127224689Y-32464234D01*
X127364831Y-32364696D01*
X127522552Y-32252720D01*
X127680677Y-32140501D01*
X127703131Y-32124570D01*
X127853158Y-32021820D01*
X127984093Y-31939213D01*
X128086056Y-31882586D01*
X128149168Y-31857779D01*
X128155704Y-31857143D01*
X128210828Y-31844654D01*
X128213951Y-31811840D01*
X128225630Y-31763315D01*
X128270652Y-31727590D01*
X128327297Y-31691786D01*
X128419015Y-31627374D01*
X128530807Y-31545057D01*
X128599374Y-31492990D01*
X128742171Y-31385680D01*
X128896318Y-31273802D01*
X129046441Y-31168172D01*
X129177163Y-31079606D01*
X129273109Y-31018919D01*
X129274334Y-31018200D01*
X129292394Y-31022683D01*
X129292394Y-31022683D01*
G37*
X129292394Y-31022683D02*
X129286903Y-31074999D01*
X129265478Y-31154765D01*
X129237896Y-31242874D01*
X129196076Y-31370942D01*
X129145731Y-31522064D01*
X129092572Y-31679333D01*
X129042311Y-31825845D01*
X129000661Y-31944694D01*
X128974383Y-32016291D01*
X128952262Y-32078426D01*
X128946927Y-32095865D01*
X128931742Y-32144150D01*
X128900081Y-32240492D01*
X128855118Y-32375521D01*
X128800028Y-32539862D01*
X128737983Y-32724145D01*
X128672158Y-32918996D01*
X128605726Y-33115045D01*
X128541861Y-33302918D01*
X128483737Y-33473243D01*
X128434527Y-33616649D01*
X128397405Y-33723763D01*
X128375545Y-33785213D01*
X128371136Y-33796208D01*
X128345842Y-33780526D01*
X128285032Y-33727898D01*
X128197932Y-33646661D01*
X128097945Y-33549300D01*
X127835464Y-33289016D01*
X127935458Y-33007103D01*
X128035451Y-32725191D01*
X127744480Y-32919801D01*
X127621121Y-33003486D01*
X127514285Y-33078131D01*
X127437185Y-33134375D01*
X127406315Y-33159332D01*
X127354596Y-33200961D01*
X127270343Y-33261535D01*
X127199422Y-33309570D01*
X127115620Y-33366514D01*
X126994495Y-33451004D01*
X126850167Y-33553091D01*
X126696760Y-33662824D01*
X126642000Y-33702306D01*
X126502647Y-33801478D01*
X126380363Y-33885623D01*
X126284812Y-33948313D01*
X126225661Y-33983119D01*
X126212301Y-33988060D01*
X126174655Y-33968911D01*
X126099997Y-33918884D01*
X126001094Y-33846781D01*
X125941604Y-33801384D01*
X125838224Y-33717765D01*
X125757399Y-33645732D01*
X125710328Y-33595618D01*
X125702882Y-33581125D01*
X125727776Y-33553443D01*
X125797616Y-33494918D01*
X125905141Y-33411132D01*
X126043092Y-33307669D01*
X126204207Y-33190112D01*
X126307644Y-33116081D01*
X126494257Y-32983453D01*
X126676730Y-32853758D01*
X126844192Y-32734724D01*
X126985771Y-32634080D01*
X127006736Y-32619174D01*
X128424311Y-32619174D01*
X128447416Y-32651587D01*
X128456141Y-32652882D01*
X128487143Y-32642023D01*
X128487970Y-32638846D01*
X128465666Y-32611671D01*
X128456141Y-32605138D01*
X128583459Y-32605138D01*
X128599374Y-32621053D01*
X128615288Y-32605138D01*
X128599374Y-32589223D01*
X128583459Y-32605138D01*
X128456141Y-32605138D01*
X128426810Y-32607662D01*
X128424311Y-32619174D01*
X127006736Y-32619174D01*
X127090593Y-32559553D01*
X127119298Y-32539140D01*
X127224689Y-32464234D01*
X127364831Y-32364696D01*
X127522552Y-32252720D01*
X127680677Y-32140501D01*
X127703131Y-32124570D01*
X127853158Y-32021820D01*
X127984093Y-31939213D01*
X128086056Y-31882586D01*
X128149168Y-31857779D01*
X128155704Y-31857143D01*
X128210828Y-31844654D01*
X128213951Y-31811840D01*
X128225630Y-31763315D01*
X128270652Y-31727590D01*
X128327297Y-31691786D01*
X128419015Y-31627374D01*
X128530807Y-31545057D01*
X128599374Y-31492990D01*
X128742171Y-31385680D01*
X128896318Y-31273802D01*
X129046441Y-31168172D01*
X129177163Y-31079606D01*
X129273109Y-31018919D01*
X129274334Y-31018200D01*
X129292394Y-31022683D01*
G36*
X125664102Y-32566196D02*
X125822567Y-32574114D01*
X125964124Y-32583430D01*
X126073038Y-32592964D01*
X126132582Y-32601298D01*
X126225521Y-32621961D01*
X126307644Y-32639046D01*
X126462061Y-32672349D01*
X126560952Y-32700505D01*
X126611922Y-32726536D01*
X126622579Y-32753466D01*
X126618760Y-32762691D01*
X126583739Y-32798051D01*
X126509458Y-32859194D01*
X126409352Y-32936186D01*
X126296858Y-33019095D01*
X126185413Y-33097990D01*
X126088452Y-33162937D01*
X126027667Y-33199644D01*
X125945214Y-33224540D01*
X125854073Y-33229369D01*
X125782189Y-33230216D01*
X125754073Y-33256051D01*
X125750627Y-33289128D01*
X125731932Y-33385214D01*
X125684972Y-33472873D01*
X125623436Y-33531258D01*
X125583521Y-33543623D01*
X125569905Y-33515281D01*
X125561262Y-33442279D01*
X125559649Y-33384963D01*
X125559649Y-33225815D01*
X125392544Y-33226504D01*
X125148883Y-33247714D01*
X124875416Y-33305751D01*
X124589766Y-33394980D01*
X124309557Y-33509766D01*
X124052410Y-33644473D01*
X124015915Y-33666672D01*
X123916124Y-33730828D01*
X123859912Y-33777252D01*
X123835999Y-33820508D01*
X123833104Y-33875161D01*
X123835020Y-33900251D01*
X123823645Y-33998386D01*
X123778355Y-34059728D01*
X123712318Y-34075641D01*
X123638703Y-34037487D01*
X123633487Y-34032448D01*
X123597599Y-33965839D01*
X123586216Y-33897632D01*
X123575946Y-33816379D01*
X123549923Y-33708564D01*
X123515323Y-33597730D01*
X123479324Y-33507422D01*
X123454667Y-33466128D01*
X123433923Y-33409635D01*
X123428795Y-33337218D01*
X123522557Y-33337218D01*
X123538471Y-33353133D01*
X123554386Y-33337218D01*
X123538471Y-33321303D01*
X123522557Y-33337218D01*
X123428795Y-33337218D01*
X123427613Y-33320538D01*
X123429153Y-33300084D01*
X124360735Y-33300084D01*
X124365105Y-33319006D01*
X124381955Y-33321303D01*
X124408154Y-33309657D01*
X124403175Y-33300084D01*
X124365401Y-33296274D01*
X124360735Y-33300084D01*
X123429153Y-33300084D01*
X123434703Y-33226374D01*
X123454159Y-33154680D01*
X123467033Y-33136782D01*
X123525926Y-33105467D01*
X123602309Y-33080506D01*
X123672985Y-33056121D01*
X123773894Y-33013618D01*
X125283793Y-33013618D01*
X125288162Y-33032540D01*
X125305013Y-33034837D01*
X125331212Y-33023191D01*
X125326232Y-33013618D01*
X125288458Y-33009808D01*
X125283793Y-33013618D01*
X123773894Y-33013618D01*
X123781475Y-33010425D01*
X123900906Y-32955263D01*
X126132582Y-32955263D01*
X126148496Y-32971178D01*
X126164411Y-32955263D01*
X126148496Y-32939349D01*
X126132582Y-32955263D01*
X123900906Y-32955263D01*
X123909112Y-32951473D01*
X123968171Y-32922594D01*
X124358287Y-32753411D01*
X124744981Y-32639231D01*
X125143403Y-32576870D01*
X125568703Y-32563145D01*
X125664102Y-32566196D01*
X125664102Y-32566196D01*
G37*
X125664102Y-32566196D02*
X125822567Y-32574114D01*
X125964124Y-32583430D01*
X126073038Y-32592964D01*
X126132582Y-32601298D01*
X126225521Y-32621961D01*
X126307644Y-32639046D01*
X126462061Y-32672349D01*
X126560952Y-32700505D01*
X126611922Y-32726536D01*
X126622579Y-32753466D01*
X126618760Y-32762691D01*
X126583739Y-32798051D01*
X126509458Y-32859194D01*
X126409352Y-32936186D01*
X126296858Y-33019095D01*
X126185413Y-33097990D01*
X126088452Y-33162937D01*
X126027667Y-33199644D01*
X125945214Y-33224540D01*
X125854073Y-33229369D01*
X125782189Y-33230216D01*
X125754073Y-33256051D01*
X125750627Y-33289128D01*
X125731932Y-33385214D01*
X125684972Y-33472873D01*
X125623436Y-33531258D01*
X125583521Y-33543623D01*
X125569905Y-33515281D01*
X125561262Y-33442279D01*
X125559649Y-33384963D01*
X125559649Y-33225815D01*
X125392544Y-33226504D01*
X125148883Y-33247714D01*
X124875416Y-33305751D01*
X124589766Y-33394980D01*
X124309557Y-33509766D01*
X124052410Y-33644473D01*
X124015915Y-33666672D01*
X123916124Y-33730828D01*
X123859912Y-33777252D01*
X123835999Y-33820508D01*
X123833104Y-33875161D01*
X123835020Y-33900251D01*
X123823645Y-33998386D01*
X123778355Y-34059728D01*
X123712318Y-34075641D01*
X123638703Y-34037487D01*
X123633487Y-34032448D01*
X123597599Y-33965839D01*
X123586216Y-33897632D01*
X123575946Y-33816379D01*
X123549923Y-33708564D01*
X123515323Y-33597730D01*
X123479324Y-33507422D01*
X123454667Y-33466128D01*
X123433923Y-33409635D01*
X123428795Y-33337218D01*
X123522557Y-33337218D01*
X123538471Y-33353133D01*
X123554386Y-33337218D01*
X123538471Y-33321303D01*
X123522557Y-33337218D01*
X123428795Y-33337218D01*
X123427613Y-33320538D01*
X123429153Y-33300084D01*
X124360735Y-33300084D01*
X124365105Y-33319006D01*
X124381955Y-33321303D01*
X124408154Y-33309657D01*
X124403175Y-33300084D01*
X124365401Y-33296274D01*
X124360735Y-33300084D01*
X123429153Y-33300084D01*
X123434703Y-33226374D01*
X123454159Y-33154680D01*
X123467033Y-33136782D01*
X123525926Y-33105467D01*
X123602309Y-33080506D01*
X123672985Y-33056121D01*
X123773894Y-33013618D01*
X125283793Y-33013618D01*
X125288162Y-33032540D01*
X125305013Y-33034837D01*
X125331212Y-33023191D01*
X125326232Y-33013618D01*
X125288458Y-33009808D01*
X125283793Y-33013618D01*
X123773894Y-33013618D01*
X123781475Y-33010425D01*
X123900906Y-32955263D01*
X126132582Y-32955263D01*
X126148496Y-32971178D01*
X126164411Y-32955263D01*
X126148496Y-32939349D01*
X126132582Y-32955263D01*
X123900906Y-32955263D01*
X123909112Y-32951473D01*
X123968171Y-32922594D01*
X124358287Y-32753411D01*
X124744981Y-32639231D01*
X125143403Y-32576870D01*
X125568703Y-32563145D01*
X125664102Y-32566196D01*
G36*
X127069733Y-34159280D02*
X127083712Y-34201191D01*
X127081725Y-34220164D01*
X127051601Y-34279898D01*
X126998459Y-34305472D01*
X126950641Y-34287901D01*
X126931443Y-34240020D01*
X126928321Y-34207227D01*
X126949561Y-34161073D01*
X127010109Y-34148872D01*
X127069733Y-34159280D01*
X127069733Y-34159280D01*
G37*
X127069733Y-34159280D02*
X127083712Y-34201191D01*
X127081725Y-34220164D01*
X127051601Y-34279898D01*
X126998459Y-34305472D01*
X126950641Y-34287901D01*
X126931443Y-34240020D01*
X126928321Y-34207227D01*
X126949561Y-34161073D01*
X127010109Y-34148872D01*
X127069733Y-34159280D01*
G36*
X125145500Y-34841920D02*
X125145865Y-34849123D01*
X125121396Y-34879729D01*
X125112157Y-34880953D01*
X125093147Y-34861453D01*
X125098120Y-34849123D01*
X125126723Y-34818758D01*
X125131829Y-34817293D01*
X125145500Y-34841920D01*
X125145500Y-34841920D01*
G37*
X125145500Y-34841920D02*
X125145865Y-34849123D01*
X125121396Y-34879729D01*
X125112157Y-34880953D01*
X125093147Y-34861453D01*
X125098120Y-34849123D01*
X125126723Y-34818758D01*
X125131829Y-34817293D01*
X125145500Y-34841920D01*
G36*
X125160829Y-33368866D02*
X125254226Y-33409316D01*
X125354641Y-33464362D01*
X125444992Y-33523884D01*
X125508197Y-33577760D01*
X125527820Y-33611646D01*
X125552566Y-33638332D01*
X125563026Y-33639599D01*
X125588022Y-33646511D01*
X125630354Y-33671317D01*
X125698753Y-33720122D01*
X125801946Y-33799030D01*
X125893860Y-33870963D01*
X126069664Y-34006218D01*
X126209623Y-34104790D01*
X126325498Y-34172260D01*
X126429050Y-34214209D01*
X126532041Y-34236214D01*
X126646232Y-34243858D01*
X126680522Y-34244184D01*
X126799177Y-34260308D01*
X126868522Y-34312551D01*
X126893798Y-34407236D01*
X126888939Y-34495629D01*
X126885021Y-34562776D01*
X126901422Y-34613372D01*
X126949037Y-34665720D01*
X127028596Y-34730246D01*
X127110339Y-34800760D01*
X127166299Y-34862514D01*
X127182958Y-34896239D01*
X127173128Y-34955731D01*
X127147263Y-35050378D01*
X127110800Y-35164823D01*
X127069177Y-35283712D01*
X127027831Y-35391689D01*
X126992199Y-35473400D01*
X126967719Y-35513490D01*
X126963784Y-35515194D01*
X126932129Y-35496260D01*
X126860388Y-35446444D01*
X126759211Y-35373316D01*
X126639245Y-35284448D01*
X126639220Y-35284429D01*
X126507816Y-35185148D01*
X126384670Y-35090546D01*
X126300025Y-35024186D01*
X126641855Y-35024186D01*
X126657770Y-35040100D01*
X126673684Y-35024186D01*
X126657770Y-35008271D01*
X126641855Y-35024186D01*
X126300025Y-35024186D01*
X126284803Y-35012253D01*
X126229178Y-34966993D01*
X126124153Y-34877970D01*
X126065176Y-34974950D01*
X125996494Y-35043518D01*
X125912865Y-35069355D01*
X125832136Y-35055267D01*
X125772152Y-35004060D01*
X125750627Y-34925485D01*
X125762405Y-34841536D01*
X125791235Y-34772344D01*
X125827358Y-34736685D01*
X125847712Y-34738706D01*
X125876021Y-34738221D01*
X125877945Y-34729720D01*
X125853510Y-34703700D01*
X125784880Y-34645428D01*
X125679068Y-34560473D01*
X125543089Y-34454402D01*
X125383955Y-34332783D01*
X125266294Y-34244188D01*
X125092346Y-34113844D01*
X124933521Y-33994579D01*
X124797549Y-33892219D01*
X124692161Y-33812590D01*
X124632181Y-33766917D01*
X125145865Y-33766917D01*
X125156725Y-33797920D01*
X125159901Y-33798747D01*
X125187076Y-33776443D01*
X125193609Y-33766917D01*
X125191086Y-33737587D01*
X125179573Y-33735088D01*
X125147160Y-33758193D01*
X125145865Y-33766917D01*
X124632181Y-33766917D01*
X124625086Y-33761515D01*
X124605831Y-33746501D01*
X124545333Y-33697712D01*
X124477444Y-33643566D01*
X124424964Y-33586492D01*
X124429699Y-33549450D01*
X124480440Y-33521417D01*
X124575795Y-33484797D01*
X124698230Y-33444793D01*
X124830212Y-33406604D01*
X124954207Y-33375433D01*
X125052681Y-33356479D01*
X125091531Y-33353133D01*
X125160829Y-33368866D01*
X125160829Y-33368866D01*
G37*
X125160829Y-33368866D02*
X125254226Y-33409316D01*
X125354641Y-33464362D01*
X125444992Y-33523884D01*
X125508197Y-33577760D01*
X125527820Y-33611646D01*
X125552566Y-33638332D01*
X125563026Y-33639599D01*
X125588022Y-33646511D01*
X125630354Y-33671317D01*
X125698753Y-33720122D01*
X125801946Y-33799030D01*
X125893860Y-33870963D01*
X126069664Y-34006218D01*
X126209623Y-34104790D01*
X126325498Y-34172260D01*
X126429050Y-34214209D01*
X126532041Y-34236214D01*
X126646232Y-34243858D01*
X126680522Y-34244184D01*
X126799177Y-34260308D01*
X126868522Y-34312551D01*
X126893798Y-34407236D01*
X126888939Y-34495629D01*
X126885021Y-34562776D01*
X126901422Y-34613372D01*
X126949037Y-34665720D01*
X127028596Y-34730246D01*
X127110339Y-34800760D01*
X127166299Y-34862514D01*
X127182958Y-34896239D01*
X127173128Y-34955731D01*
X127147263Y-35050378D01*
X127110800Y-35164823D01*
X127069177Y-35283712D01*
X127027831Y-35391689D01*
X126992199Y-35473400D01*
X126967719Y-35513490D01*
X126963784Y-35515194D01*
X126932129Y-35496260D01*
X126860388Y-35446444D01*
X126759211Y-35373316D01*
X126639245Y-35284448D01*
X126639220Y-35284429D01*
X126507816Y-35185148D01*
X126384670Y-35090546D01*
X126300025Y-35024186D01*
X126641855Y-35024186D01*
X126657770Y-35040100D01*
X126673684Y-35024186D01*
X126657770Y-35008271D01*
X126641855Y-35024186D01*
X126300025Y-35024186D01*
X126284803Y-35012253D01*
X126229178Y-34966993D01*
X126124153Y-34877970D01*
X126065176Y-34974950D01*
X125996494Y-35043518D01*
X125912865Y-35069355D01*
X125832136Y-35055267D01*
X125772152Y-35004060D01*
X125750627Y-34925485D01*
X125762405Y-34841536D01*
X125791235Y-34772344D01*
X125827358Y-34736685D01*
X125847712Y-34738706D01*
X125876021Y-34738221D01*
X125877945Y-34729720D01*
X125853510Y-34703700D01*
X125784880Y-34645428D01*
X125679068Y-34560473D01*
X125543089Y-34454402D01*
X125383955Y-34332783D01*
X125266294Y-34244188D01*
X125092346Y-34113844D01*
X124933521Y-33994579D01*
X124797549Y-33892219D01*
X124692161Y-33812590D01*
X124632181Y-33766917D01*
X125145865Y-33766917D01*
X125156725Y-33797920D01*
X125159901Y-33798747D01*
X125187076Y-33776443D01*
X125193609Y-33766917D01*
X125191086Y-33737587D01*
X125179573Y-33735088D01*
X125147160Y-33758193D01*
X125145865Y-33766917D01*
X124632181Y-33766917D01*
X124625086Y-33761515D01*
X124605831Y-33746501D01*
X124545333Y-33697712D01*
X124477444Y-33643566D01*
X124424964Y-33586492D01*
X124429699Y-33549450D01*
X124480440Y-33521417D01*
X124575795Y-33484797D01*
X124698230Y-33444793D01*
X124830212Y-33406604D01*
X124954207Y-33375433D01*
X125052681Y-33356479D01*
X125091531Y-33353133D01*
X125160829Y-33368866D01*
G36*
X125677665Y-34854626D02*
X125678618Y-34855402D01*
X125713159Y-34920299D01*
X125712952Y-35008964D01*
X125679312Y-35092708D01*
X125667024Y-35108212D01*
X125629178Y-35190121D01*
X125611950Y-35326169D01*
X125611322Y-35346725D01*
X125602890Y-35453919D01*
X125585049Y-35523250D01*
X125570471Y-35540399D01*
X125550164Y-35527063D01*
X125544449Y-35463895D01*
X125550458Y-35366283D01*
X125557792Y-35259904D01*
X125551718Y-35196801D01*
X125526750Y-35157087D01*
X125483935Y-35125130D01*
X125414401Y-35049740D01*
X125400501Y-34983496D01*
X125411179Y-34921971D01*
X125454723Y-34883668D01*
X125519470Y-34859293D01*
X125618856Y-34838841D01*
X125677665Y-34854626D01*
X125677665Y-34854626D01*
G37*
X125677665Y-34854626D02*
X125678618Y-34855402D01*
X125713159Y-34920299D01*
X125712952Y-35008964D01*
X125679312Y-35092708D01*
X125667024Y-35108212D01*
X125629178Y-35190121D01*
X125611950Y-35326169D01*
X125611322Y-35346725D01*
X125602890Y-35453919D01*
X125585049Y-35523250D01*
X125570471Y-35540399D01*
X125550164Y-35527063D01*
X125544449Y-35463895D01*
X125550458Y-35366283D01*
X125557792Y-35259904D01*
X125551718Y-35196801D01*
X125526750Y-35157087D01*
X125483935Y-35125130D01*
X125414401Y-35049740D01*
X125400501Y-34983496D01*
X125411179Y-34921971D01*
X125454723Y-34883668D01*
X125519470Y-34859293D01*
X125618856Y-34838841D01*
X125677665Y-34854626D01*
G36*
X127571344Y-33215504D02*
X127657128Y-33268181D01*
X127767358Y-33356082D01*
X127894402Y-33471940D01*
X128030627Y-33608491D01*
X128168400Y-33758470D01*
X128300089Y-33914610D01*
X128401308Y-34046431D01*
X128523507Y-34234117D01*
X128646739Y-34458161D01*
X128757940Y-34692845D01*
X128844045Y-34912448D01*
X128849491Y-34928697D01*
X128902680Y-35047340D01*
X128986310Y-35156204D01*
X129073880Y-35240496D01*
X129162865Y-35328301D01*
X129231944Y-35412632D01*
X129266362Y-35475444D01*
X129266545Y-35476154D01*
X129266626Y-35593027D01*
X129217211Y-35700448D01*
X129129484Y-35774952D01*
X129122602Y-35778150D01*
X129065588Y-35811983D01*
X129036504Y-35861908D01*
X129023804Y-35949925D01*
X129022531Y-35968855D01*
X129013158Y-36119414D01*
X128694862Y-35878670D01*
X128571144Y-35783253D01*
X128465728Y-35698494D01*
X128389353Y-35633271D01*
X128352761Y-35596462D01*
X128352044Y-35595314D01*
X128330509Y-35538889D01*
X128306213Y-35449106D01*
X128298777Y-35415762D01*
X128208502Y-35113113D01*
X128067221Y-34802429D01*
X127883962Y-34496852D01*
X127667755Y-34209525D01*
X127427625Y-33953590D01*
X127172603Y-33742189D01*
X127127899Y-33711277D01*
X127044426Y-33649494D01*
X126990895Y-33598483D01*
X126978902Y-33571350D01*
X127009202Y-33544110D01*
X127469424Y-33544110D01*
X127493645Y-33575015D01*
X127501253Y-33575940D01*
X127532158Y-33551719D01*
X127533083Y-33544110D01*
X127508861Y-33513206D01*
X127501253Y-33512281D01*
X127470349Y-33536502D01*
X127469424Y-33544110D01*
X127009202Y-33544110D01*
X127012543Y-33541107D01*
X127085256Y-33486814D01*
X127182327Y-33418467D01*
X127289040Y-33346066D01*
X127390681Y-33279607D01*
X127472533Y-33229090D01*
X127517640Y-33205314D01*
X127571344Y-33215504D01*
X127571344Y-33215504D01*
G37*
X127571344Y-33215504D02*
X127657128Y-33268181D01*
X127767358Y-33356082D01*
X127894402Y-33471940D01*
X128030627Y-33608491D01*
X128168400Y-33758470D01*
X128300089Y-33914610D01*
X128401308Y-34046431D01*
X128523507Y-34234117D01*
X128646739Y-34458161D01*
X128757940Y-34692845D01*
X128844045Y-34912448D01*
X128849491Y-34928697D01*
X128902680Y-35047340D01*
X128986310Y-35156204D01*
X129073880Y-35240496D01*
X129162865Y-35328301D01*
X129231944Y-35412632D01*
X129266362Y-35475444D01*
X129266545Y-35476154D01*
X129266626Y-35593027D01*
X129217211Y-35700448D01*
X129129484Y-35774952D01*
X129122602Y-35778150D01*
X129065588Y-35811983D01*
X129036504Y-35861908D01*
X129023804Y-35949925D01*
X129022531Y-35968855D01*
X129013158Y-36119414D01*
X128694862Y-35878670D01*
X128571144Y-35783253D01*
X128465728Y-35698494D01*
X128389353Y-35633271D01*
X128352761Y-35596462D01*
X128352044Y-35595314D01*
X128330509Y-35538889D01*
X128306213Y-35449106D01*
X128298777Y-35415762D01*
X128208502Y-35113113D01*
X128067221Y-34802429D01*
X127883962Y-34496852D01*
X127667755Y-34209525D01*
X127427625Y-33953590D01*
X127172603Y-33742189D01*
X127127899Y-33711277D01*
X127044426Y-33649494D01*
X126990895Y-33598483D01*
X126978902Y-33571350D01*
X127009202Y-33544110D01*
X127469424Y-33544110D01*
X127493645Y-33575015D01*
X127501253Y-33575940D01*
X127532158Y-33551719D01*
X127533083Y-33544110D01*
X127508861Y-33513206D01*
X127501253Y-33512281D01*
X127470349Y-33536502D01*
X127469424Y-33544110D01*
X127009202Y-33544110D01*
X127012543Y-33541107D01*
X127085256Y-33486814D01*
X127182327Y-33418467D01*
X127289040Y-33346066D01*
X127390681Y-33279607D01*
X127472533Y-33229090D01*
X127517640Y-33205314D01*
X127571344Y-33215504D01*
G36*
X125047249Y-35935266D02*
X125135535Y-35978244D01*
X125194760Y-36056378D01*
X125209524Y-36131530D01*
X125183160Y-36226789D01*
X125116049Y-36297856D01*
X125026162Y-36336998D01*
X124931472Y-36336483D01*
X124849950Y-36288576D01*
X124848417Y-36286905D01*
X124805006Y-36199546D01*
X124800611Y-36096189D01*
X124834704Y-36005756D01*
X124853948Y-35984006D01*
X124947516Y-35934751D01*
X125047249Y-35935266D01*
X125047249Y-35935266D01*
G37*
X125047249Y-35935266D02*
X125135535Y-35978244D01*
X125194760Y-36056378D01*
X125209524Y-36131530D01*
X125183160Y-36226789D01*
X125116049Y-36297856D01*
X125026162Y-36336998D01*
X124931472Y-36336483D01*
X124849950Y-36288576D01*
X124848417Y-36286905D01*
X124805006Y-36199546D01*
X124800611Y-36096189D01*
X124834704Y-36005756D01*
X124853948Y-35984006D01*
X124947516Y-35934751D01*
X125047249Y-35935266D01*
G36*
X122293084Y-30921027D02*
X122333755Y-30965313D01*
X122342640Y-31034510D01*
X122319037Y-31097977D01*
X122297559Y-31116542D01*
X122299071Y-31134162D01*
X122333104Y-31173170D01*
X122402569Y-31235923D01*
X122510376Y-31324776D01*
X122659433Y-31442086D01*
X122852651Y-31590209D01*
X123092939Y-31771501D01*
X123268658Y-31902957D01*
X123490730Y-32068975D01*
X123695699Y-32222799D01*
X123878207Y-32360362D01*
X124032896Y-32477600D01*
X124154408Y-32570447D01*
X124237386Y-32634838D01*
X124276472Y-32666707D01*
X124278806Y-32669417D01*
X124248903Y-32685586D01*
X124173819Y-32724642D01*
X124065111Y-32780610D01*
X123943053Y-32843063D01*
X123615554Y-33010191D01*
X123402290Y-32846432D01*
X123304927Y-32775817D01*
X123228321Y-32728060D01*
X123184494Y-32710334D01*
X123178870Y-32713140D01*
X123185399Y-32750074D01*
X123208738Y-32840100D01*
X123246682Y-32975561D01*
X123297023Y-33148798D01*
X123357556Y-33352150D01*
X123426074Y-33577959D01*
X123456502Y-33677004D01*
X123546203Y-33967716D01*
X123618658Y-34203597D01*
X123675038Y-34390751D01*
X123716514Y-34535284D01*
X123744257Y-34643301D01*
X123759438Y-34720907D01*
X123763227Y-34774208D01*
X123756796Y-34809309D01*
X123741315Y-34832314D01*
X123717955Y-34849331D01*
X123687886Y-34866462D01*
X123684941Y-34868189D01*
X123619886Y-34911570D01*
X123587143Y-34943101D01*
X123586216Y-34946365D01*
X123560722Y-34972663D01*
X123508606Y-35001584D01*
X123433922Y-35055575D01*
X123393453Y-35107096D01*
X123372935Y-35148529D01*
X123379191Y-35158384D01*
X123422421Y-35135988D01*
X123479020Y-35101452D01*
X123540566Y-35061193D01*
X123644666Y-34990470D01*
X123782003Y-34895728D01*
X123848914Y-34849123D01*
X124795740Y-34849123D01*
X124807385Y-34875322D01*
X124816959Y-34870343D01*
X124820769Y-34832568D01*
X124816959Y-34827903D01*
X124798037Y-34832273D01*
X124795740Y-34849123D01*
X123848914Y-34849123D01*
X123943261Y-34783409D01*
X124031018Y-34721805D01*
X124190978Y-34721805D01*
X124215199Y-34752709D01*
X124222807Y-34753634D01*
X124253712Y-34729413D01*
X124254637Y-34721805D01*
X124230415Y-34690900D01*
X124222807Y-34689975D01*
X124191903Y-34714197D01*
X124190978Y-34721805D01*
X124031018Y-34721805D01*
X124119125Y-34659956D01*
X124203420Y-34600454D01*
X124378810Y-34477172D01*
X124540232Y-34365110D01*
X124679322Y-34269964D01*
X124787716Y-34197428D01*
X124857049Y-34153198D01*
X124874984Y-34143231D01*
X124913851Y-34133497D01*
X124960380Y-34143429D01*
X125025920Y-34178669D01*
X125121818Y-34244857D01*
X125207908Y-34308728D01*
X125326587Y-34400095D01*
X125399787Y-34463096D01*
X125434510Y-34505392D01*
X125437759Y-34534645D01*
X125427571Y-34549067D01*
X125388480Y-34580969D01*
X125306814Y-34642798D01*
X125191919Y-34727642D01*
X125053138Y-34828591D01*
X124926807Y-34919442D01*
X124762668Y-35037351D01*
X124643198Y-35125474D01*
X124561149Y-35190862D01*
X124509275Y-35240570D01*
X124480328Y-35281651D01*
X124467060Y-35321157D01*
X124462226Y-35366142D01*
X124461887Y-35371912D01*
X124427737Y-35489753D01*
X124350227Y-35573576D01*
X124244096Y-35615374D01*
X124124085Y-35607142D01*
X124069524Y-35585006D01*
X124033430Y-35582406D01*
X123974063Y-35605458D01*
X123884078Y-35658239D01*
X123756128Y-35744829D01*
X123665790Y-35809149D01*
X123513433Y-35916440D01*
X123402081Y-35988357D01*
X123323252Y-36029572D01*
X123268466Y-36044756D01*
X123241508Y-36042824D01*
X123188600Y-36037223D01*
X123181000Y-36066140D01*
X123185122Y-36081275D01*
X123179911Y-36125290D01*
X123133197Y-36179732D01*
X123037393Y-36253293D01*
X123031245Y-36257582D01*
X122931434Y-36326236D01*
X122871446Y-36362494D01*
X122838801Y-36370248D01*
X122821017Y-36353386D01*
X122809797Y-36326595D01*
X122798847Y-36261744D01*
X122793745Y-36152561D01*
X122794276Y-36018081D01*
X122800229Y-35877343D01*
X122811388Y-35749382D01*
X122816708Y-35709658D01*
X122834329Y-35627714D01*
X122866618Y-35566784D01*
X122927547Y-35508067D01*
X123013283Y-35445161D01*
X123106143Y-35378351D01*
X123157591Y-35329898D01*
X123178555Y-35281922D01*
X123179960Y-35216542D01*
X123177147Y-35177002D01*
X123165754Y-35094488D01*
X123141019Y-34978263D01*
X123101602Y-34823414D01*
X123046159Y-34625030D01*
X122973348Y-34378196D01*
X122917991Y-34196617D01*
X123331579Y-34196617D01*
X123347494Y-34212532D01*
X123363409Y-34196617D01*
X123347494Y-34180702D01*
X123331579Y-34196617D01*
X122917991Y-34196617D01*
X122881828Y-34078001D01*
X122839711Y-33941980D01*
X122754591Y-33667179D01*
X122687047Y-33446634D01*
X122635342Y-33273943D01*
X122597738Y-33142704D01*
X122577243Y-33064594D01*
X122798280Y-33064594D01*
X122802634Y-33066667D01*
X122831681Y-33044259D01*
X122838221Y-33034837D01*
X122846332Y-33005080D01*
X122841978Y-33003008D01*
X122812930Y-33025415D01*
X122806391Y-33034837D01*
X122798280Y-33064594D01*
X122577243Y-33064594D01*
X122572499Y-33046516D01*
X122557886Y-32978975D01*
X122552162Y-32933681D01*
X122553590Y-32904230D01*
X122555735Y-32895576D01*
X122559110Y-32854486D01*
X122540861Y-32856672D01*
X122514725Y-32839388D01*
X122479780Y-32767156D01*
X122439636Y-32647464D01*
X122439149Y-32645808D01*
X122392332Y-32489960D01*
X122338189Y-32314716D01*
X122329351Y-32286842D01*
X122949624Y-32286842D01*
X122965539Y-32302757D01*
X122981454Y-32286842D01*
X122965539Y-32270927D01*
X122949624Y-32286842D01*
X122329351Y-32286842D01*
X122294305Y-32176322D01*
X122257761Y-32057938D01*
X122230659Y-31960315D01*
X122217931Y-31901469D01*
X122217544Y-31896008D01*
X122206544Y-31872499D01*
X122165077Y-31890705D01*
X122146803Y-31903083D01*
X122039273Y-31948354D01*
X121937598Y-31941697D01*
X121852254Y-31894165D01*
X121793718Y-31816813D01*
X121772466Y-31720695D01*
X121798976Y-31616866D01*
X121830376Y-31569211D01*
X121914496Y-31509559D01*
X121989524Y-31499897D01*
X122058673Y-31500258D01*
X122089626Y-31497244D01*
X122089748Y-31496931D01*
X122080777Y-31466092D01*
X122057283Y-31388965D01*
X122023692Y-31280035D01*
X122010178Y-31236466D01*
X121964741Y-31086057D01*
X121940482Y-30989344D01*
X121938250Y-30939698D01*
X121958893Y-30930492D01*
X122003258Y-30955095D01*
X122042481Y-30983988D01*
X122114027Y-31032727D01*
X122148149Y-31039079D01*
X122153885Y-31021335D01*
X122179912Y-30955843D01*
X122240153Y-30918475D01*
X122293084Y-30921027D01*
X122293084Y-30921027D01*
G37*
X122293084Y-30921027D02*
X122333755Y-30965313D01*
X122342640Y-31034510D01*
X122319037Y-31097977D01*
X122297559Y-31116542D01*
X122299071Y-31134162D01*
X122333104Y-31173170D01*
X122402569Y-31235923D01*
X122510376Y-31324776D01*
X122659433Y-31442086D01*
X122852651Y-31590209D01*
X123092939Y-31771501D01*
X123268658Y-31902957D01*
X123490730Y-32068975D01*
X123695699Y-32222799D01*
X123878207Y-32360362D01*
X124032896Y-32477600D01*
X124154408Y-32570447D01*
X124237386Y-32634838D01*
X124276472Y-32666707D01*
X124278806Y-32669417D01*
X124248903Y-32685586D01*
X124173819Y-32724642D01*
X124065111Y-32780610D01*
X123943053Y-32843063D01*
X123615554Y-33010191D01*
X123402290Y-32846432D01*
X123304927Y-32775817D01*
X123228321Y-32728060D01*
X123184494Y-32710334D01*
X123178870Y-32713140D01*
X123185399Y-32750074D01*
X123208738Y-32840100D01*
X123246682Y-32975561D01*
X123297023Y-33148798D01*
X123357556Y-33352150D01*
X123426074Y-33577959D01*
X123456502Y-33677004D01*
X123546203Y-33967716D01*
X123618658Y-34203597D01*
X123675038Y-34390751D01*
X123716514Y-34535284D01*
X123744257Y-34643301D01*
X123759438Y-34720907D01*
X123763227Y-34774208D01*
X123756796Y-34809309D01*
X123741315Y-34832314D01*
X123717955Y-34849331D01*
X123687886Y-34866462D01*
X123684941Y-34868189D01*
X123619886Y-34911570D01*
X123587143Y-34943101D01*
X123586216Y-34946365D01*
X123560722Y-34972663D01*
X123508606Y-35001584D01*
X123433922Y-35055575D01*
X123393453Y-35107096D01*
X123372935Y-35148529D01*
X123379191Y-35158384D01*
X123422421Y-35135988D01*
X123479020Y-35101452D01*
X123540566Y-35061193D01*
X123644666Y-34990470D01*
X123782003Y-34895728D01*
X123848914Y-34849123D01*
X124795740Y-34849123D01*
X124807385Y-34875322D01*
X124816959Y-34870343D01*
X124820769Y-34832568D01*
X124816959Y-34827903D01*
X124798037Y-34832273D01*
X124795740Y-34849123D01*
X123848914Y-34849123D01*
X123943261Y-34783409D01*
X124031018Y-34721805D01*
X124190978Y-34721805D01*
X124215199Y-34752709D01*
X124222807Y-34753634D01*
X124253712Y-34729413D01*
X124254637Y-34721805D01*
X124230415Y-34690900D01*
X124222807Y-34689975D01*
X124191903Y-34714197D01*
X124190978Y-34721805D01*
X124031018Y-34721805D01*
X124119125Y-34659956D01*
X124203420Y-34600454D01*
X124378810Y-34477172D01*
X124540232Y-34365110D01*
X124679322Y-34269964D01*
X124787716Y-34197428D01*
X124857049Y-34153198D01*
X124874984Y-34143231D01*
X124913851Y-34133497D01*
X124960380Y-34143429D01*
X125025920Y-34178669D01*
X125121818Y-34244857D01*
X125207908Y-34308728D01*
X125326587Y-34400095D01*
X125399787Y-34463096D01*
X125434510Y-34505392D01*
X125437759Y-34534645D01*
X125427571Y-34549067D01*
X125388480Y-34580969D01*
X125306814Y-34642798D01*
X125191919Y-34727642D01*
X125053138Y-34828591D01*
X124926807Y-34919442D01*
X124762668Y-35037351D01*
X124643198Y-35125474D01*
X124561149Y-35190862D01*
X124509275Y-35240570D01*
X124480328Y-35281651D01*
X124467060Y-35321157D01*
X124462226Y-35366142D01*
X124461887Y-35371912D01*
X124427737Y-35489753D01*
X124350227Y-35573576D01*
X124244096Y-35615374D01*
X124124085Y-35607142D01*
X124069524Y-35585006D01*
X124033430Y-35582406D01*
X123974063Y-35605458D01*
X123884078Y-35658239D01*
X123756128Y-35744829D01*
X123665790Y-35809149D01*
X123513433Y-35916440D01*
X123402081Y-35988357D01*
X123323252Y-36029572D01*
X123268466Y-36044756D01*
X123241508Y-36042824D01*
X123188600Y-36037223D01*
X123181000Y-36066140D01*
X123185122Y-36081275D01*
X123179911Y-36125290D01*
X123133197Y-36179732D01*
X123037393Y-36253293D01*
X123031245Y-36257582D01*
X122931434Y-36326236D01*
X122871446Y-36362494D01*
X122838801Y-36370248D01*
X122821017Y-36353386D01*
X122809797Y-36326595D01*
X122798847Y-36261744D01*
X122793745Y-36152561D01*
X122794276Y-36018081D01*
X122800229Y-35877343D01*
X122811388Y-35749382D01*
X122816708Y-35709658D01*
X122834329Y-35627714D01*
X122866618Y-35566784D01*
X122927547Y-35508067D01*
X123013283Y-35445161D01*
X123106143Y-35378351D01*
X123157591Y-35329898D01*
X123178555Y-35281922D01*
X123179960Y-35216542D01*
X123177147Y-35177002D01*
X123165754Y-35094488D01*
X123141019Y-34978263D01*
X123101602Y-34823414D01*
X123046159Y-34625030D01*
X122973348Y-34378196D01*
X122917991Y-34196617D01*
X123331579Y-34196617D01*
X123347494Y-34212532D01*
X123363409Y-34196617D01*
X123347494Y-34180702D01*
X123331579Y-34196617D01*
X122917991Y-34196617D01*
X122881828Y-34078001D01*
X122839711Y-33941980D01*
X122754591Y-33667179D01*
X122687047Y-33446634D01*
X122635342Y-33273943D01*
X122597738Y-33142704D01*
X122577243Y-33064594D01*
X122798280Y-33064594D01*
X122802634Y-33066667D01*
X122831681Y-33044259D01*
X122838221Y-33034837D01*
X122846332Y-33005080D01*
X122841978Y-33003008D01*
X122812930Y-33025415D01*
X122806391Y-33034837D01*
X122798280Y-33064594D01*
X122577243Y-33064594D01*
X122572499Y-33046516D01*
X122557886Y-32978975D01*
X122552162Y-32933681D01*
X122553590Y-32904230D01*
X122555735Y-32895576D01*
X122559110Y-32854486D01*
X122540861Y-32856672D01*
X122514725Y-32839388D01*
X122479780Y-32767156D01*
X122439636Y-32647464D01*
X122439149Y-32645808D01*
X122392332Y-32489960D01*
X122338189Y-32314716D01*
X122329351Y-32286842D01*
X122949624Y-32286842D01*
X122965539Y-32302757D01*
X122981454Y-32286842D01*
X122965539Y-32270927D01*
X122949624Y-32286842D01*
X122329351Y-32286842D01*
X122294305Y-32176322D01*
X122257761Y-32057938D01*
X122230659Y-31960315D01*
X122217931Y-31901469D01*
X122217544Y-31896008D01*
X122206544Y-31872499D01*
X122165077Y-31890705D01*
X122146803Y-31903083D01*
X122039273Y-31948354D01*
X121937598Y-31941697D01*
X121852254Y-31894165D01*
X121793718Y-31816813D01*
X121772466Y-31720695D01*
X121798976Y-31616866D01*
X121830376Y-31569211D01*
X121914496Y-31509559D01*
X121989524Y-31499897D01*
X122058673Y-31500258D01*
X122089626Y-31497244D01*
X122089748Y-31496931D01*
X122080777Y-31466092D01*
X122057283Y-31388965D01*
X122023692Y-31280035D01*
X122010178Y-31236466D01*
X121964741Y-31086057D01*
X121940482Y-30989344D01*
X121938250Y-30939698D01*
X121958893Y-30930492D01*
X122003258Y-30955095D01*
X122042481Y-30983988D01*
X122114027Y-31032727D01*
X122148149Y-31039079D01*
X122153885Y-31021335D01*
X122179912Y-30955843D01*
X122240153Y-30918475D01*
X122293084Y-30921027D01*
G36*
X130584529Y-36783882D02*
X130604074Y-36846146D01*
X130597296Y-36878258D01*
X130559039Y-36914707D01*
X130501249Y-36904451D01*
X130462561Y-36871695D01*
X130440320Y-36811652D01*
X130472795Y-36769243D01*
X130523536Y-36758897D01*
X130584529Y-36783882D01*
X130584529Y-36783882D01*
G37*
X130584529Y-36783882D02*
X130604074Y-36846146D01*
X130597296Y-36878258D01*
X130559039Y-36914707D01*
X130501249Y-36904451D01*
X130462561Y-36871695D01*
X130440320Y-36811652D01*
X130472795Y-36769243D01*
X130523536Y-36758897D01*
X130584529Y-36783882D01*
G36*
X125006510Y-37127495D02*
X125018547Y-37153362D01*
X124995501Y-37198782D01*
X124947468Y-37222772D01*
X124910255Y-37212928D01*
X124890317Y-37160215D01*
X124919363Y-37117801D01*
X124954887Y-37109023D01*
X125006510Y-37127495D01*
X125006510Y-37127495D01*
G37*
X125006510Y-37127495D02*
X125018547Y-37153362D01*
X124995501Y-37198782D01*
X124947468Y-37222772D01*
X124910255Y-37212928D01*
X124890317Y-37160215D01*
X124919363Y-37117801D01*
X124954887Y-37109023D01*
X125006510Y-37127495D01*
G36*
X119579668Y-37142368D02*
X119661743Y-37199665D01*
X119697060Y-37271813D01*
X119702520Y-37338667D01*
X119676330Y-37419056D01*
X119609559Y-37472214D01*
X119521467Y-37492629D01*
X119431313Y-37474789D01*
X119373730Y-37432770D01*
X119330018Y-37366631D01*
X119325437Y-37317149D01*
X119356595Y-37300000D01*
X119378819Y-37275003D01*
X119376357Y-37239660D01*
X119385833Y-37176370D01*
X119438455Y-37134496D01*
X119514886Y-37123295D01*
X119579668Y-37142368D01*
X119579668Y-37142368D01*
G37*
X119579668Y-37142368D02*
X119661743Y-37199665D01*
X119697060Y-37271813D01*
X119702520Y-37338667D01*
X119676330Y-37419056D01*
X119609559Y-37472214D01*
X119521467Y-37492629D01*
X119431313Y-37474789D01*
X119373730Y-37432770D01*
X119330018Y-37366631D01*
X119325437Y-37317149D01*
X119356595Y-37300000D01*
X119378819Y-37275003D01*
X119376357Y-37239660D01*
X119385833Y-37176370D01*
X119438455Y-37134496D01*
X119514886Y-37123295D01*
X119579668Y-37142368D01*
G36*
X122760305Y-34014528D02*
X122789853Y-34065678D01*
X122806727Y-34124338D01*
X122820195Y-34181793D01*
X122830619Y-34223133D01*
X122843384Y-34266034D01*
X122863874Y-34328171D01*
X122897473Y-34427220D01*
X122912170Y-34470474D01*
X122955026Y-34586226D01*
X122997581Y-34684207D01*
X123029233Y-34741025D01*
X123075171Y-34843546D01*
X123064711Y-34942417D01*
X123000417Y-35021801D01*
X122981891Y-35033623D01*
X122903551Y-35100982D01*
X122841099Y-35208776D01*
X122790589Y-35365490D01*
X122759753Y-35511442D01*
X122722117Y-35784329D01*
X122708873Y-36043768D01*
X122719353Y-36279026D01*
X122752889Y-36479372D01*
X122808813Y-36634076D01*
X122832095Y-36673325D01*
X122884667Y-36765207D01*
X122902421Y-36850433D01*
X122896837Y-36943818D01*
X122890256Y-37036678D01*
X122904573Y-37100862D01*
X122949914Y-37164098D01*
X122994542Y-37211397D01*
X123109755Y-37329686D01*
X123448600Y-37338715D01*
X123787445Y-37347745D01*
X123877808Y-37616856D01*
X123918557Y-37744391D01*
X123949758Y-37853806D01*
X123966564Y-37927602D01*
X123968171Y-37943109D01*
X123968296Y-37954512D01*
X123966019Y-37964448D01*
X123957357Y-37972942D01*
X123938328Y-37980019D01*
X123904950Y-37985705D01*
X123853242Y-37990027D01*
X123779221Y-37993008D01*
X123678906Y-37994675D01*
X123548314Y-37995054D01*
X123383465Y-37994169D01*
X123180375Y-37992046D01*
X122935063Y-37988712D01*
X122643547Y-37984191D01*
X122301846Y-37978509D01*
X121905976Y-37971691D01*
X121451958Y-37963763D01*
X121262657Y-37960452D01*
X120942593Y-37954565D01*
X120642052Y-37948472D01*
X120366988Y-37942332D01*
X120123356Y-37936305D01*
X119917113Y-37930551D01*
X119754212Y-37925230D01*
X119640610Y-37920502D01*
X119582260Y-37916526D01*
X119575689Y-37915150D01*
X119588135Y-37884872D01*
X119651388Y-37824805D01*
X119761750Y-37738051D01*
X119817746Y-37697870D01*
X122472181Y-37697870D01*
X122488095Y-37713785D01*
X122504010Y-37697870D01*
X122488095Y-37681955D01*
X122472181Y-37697870D01*
X119817746Y-37697870D01*
X119915523Y-37627710D01*
X119932619Y-37615862D01*
X120012525Y-37554637D01*
X121724186Y-37554637D01*
X121726709Y-37583967D01*
X121738222Y-37586466D01*
X121770635Y-37563361D01*
X121771930Y-37554637D01*
X121761070Y-37523635D01*
X121757894Y-37522807D01*
X123331579Y-37522807D01*
X123342439Y-37553809D01*
X123345615Y-37554637D01*
X123372791Y-37532333D01*
X123379323Y-37522807D01*
X123376800Y-37493477D01*
X123365287Y-37490978D01*
X123332874Y-37514083D01*
X123331579Y-37522807D01*
X121757894Y-37522807D01*
X121730719Y-37545111D01*
X121724186Y-37554637D01*
X120012525Y-37554637D01*
X120041376Y-37532532D01*
X120093010Y-37471947D01*
X120096318Y-37442831D01*
X120100202Y-37404518D01*
X120140060Y-37397141D01*
X120196262Y-37420639D01*
X120223649Y-37443233D01*
X120275313Y-37485919D01*
X120293923Y-37475589D01*
X120288393Y-37435276D01*
X120305437Y-37377688D01*
X120381750Y-37304287D01*
X120409088Y-37284085D01*
X120520303Y-37205391D01*
X120612120Y-37140852D01*
X121008020Y-37140852D01*
X121018880Y-37171854D01*
X121022057Y-37172682D01*
X121049232Y-37150378D01*
X121055765Y-37140852D01*
X121053241Y-37111522D01*
X121041728Y-37109023D01*
X121009316Y-37132128D01*
X121008020Y-37140852D01*
X120612120Y-37140852D01*
X120675905Y-37096018D01*
X120867947Y-36961536D01*
X121021370Y-36854386D01*
X121549123Y-36854386D01*
X121573344Y-36885291D01*
X121580953Y-36886216D01*
X121611857Y-36861994D01*
X121612782Y-36854386D01*
X121588561Y-36823482D01*
X121580953Y-36822557D01*
X121550048Y-36846778D01*
X121549123Y-36854386D01*
X121021370Y-36854386D01*
X121088486Y-36807513D01*
X121174987Y-36747197D01*
X121252822Y-36688001D01*
X121300080Y-36642246D01*
X121307356Y-36623229D01*
X121299088Y-36577694D01*
X121320349Y-36518038D01*
X121357190Y-36476640D01*
X121372308Y-36472431D01*
X121427276Y-36450114D01*
X121449939Y-36429139D01*
X121507640Y-36400645D01*
X121564207Y-36400823D01*
X121649275Y-36390908D01*
X121758569Y-36330198D01*
X121775692Y-36317882D01*
X121854577Y-36264915D01*
X121912410Y-36235314D01*
X121930052Y-36233076D01*
X121942114Y-36268112D01*
X121958602Y-36353091D01*
X121977206Y-36474655D01*
X121993050Y-36597539D01*
X122034833Y-36948892D01*
X121959083Y-37012713D01*
X121888582Y-37067022D01*
X121791498Y-37135803D01*
X121732143Y-37175671D01*
X121650163Y-37231451D01*
X121595257Y-37272691D01*
X121580953Y-37287403D01*
X121611152Y-37291326D01*
X121695235Y-37294750D01*
X121823423Y-37297473D01*
X121985942Y-37299290D01*
X122173015Y-37299997D01*
X122185714Y-37300000D01*
X122399109Y-37299376D01*
X122556803Y-37297087D01*
X122666749Y-37292503D01*
X122736898Y-37284999D01*
X122775200Y-37273945D01*
X122789608Y-37258714D01*
X122790476Y-37252256D01*
X122779261Y-37228884D01*
X122738342Y-37214361D01*
X122656810Y-37206853D01*
X122523758Y-37204529D01*
X122506269Y-37204511D01*
X122222061Y-37204511D01*
X122174209Y-37037406D01*
X122165626Y-36997619D01*
X122790476Y-36997619D01*
X122806391Y-37013534D01*
X122822306Y-36997619D01*
X122806391Y-36981704D01*
X122790476Y-36997619D01*
X122165626Y-36997619D01*
X122075212Y-36578536D01*
X122039122Y-36116354D01*
X122065576Y-35654572D01*
X122154211Y-35196901D01*
X122304664Y-34747052D01*
X122424138Y-34483083D01*
X122526859Y-34283080D01*
X122608727Y-34139139D01*
X122672851Y-34048344D01*
X122722341Y-34007779D01*
X122760305Y-34014528D01*
X122760305Y-34014528D01*
G37*
X122760305Y-34014528D02*
X122789853Y-34065678D01*
X122806727Y-34124338D01*
X122820195Y-34181793D01*
X122830619Y-34223133D01*
X122843384Y-34266034D01*
X122863874Y-34328171D01*
X122897473Y-34427220D01*
X122912170Y-34470474D01*
X122955026Y-34586226D01*
X122997581Y-34684207D01*
X123029233Y-34741025D01*
X123075171Y-34843546D01*
X123064711Y-34942417D01*
X123000417Y-35021801D01*
X122981891Y-35033623D01*
X122903551Y-35100982D01*
X122841099Y-35208776D01*
X122790589Y-35365490D01*
X122759753Y-35511442D01*
X122722117Y-35784329D01*
X122708873Y-36043768D01*
X122719353Y-36279026D01*
X122752889Y-36479372D01*
X122808813Y-36634076D01*
X122832095Y-36673325D01*
X122884667Y-36765207D01*
X122902421Y-36850433D01*
X122896837Y-36943818D01*
X122890256Y-37036678D01*
X122904573Y-37100862D01*
X122949914Y-37164098D01*
X122994542Y-37211397D01*
X123109755Y-37329686D01*
X123448600Y-37338715D01*
X123787445Y-37347745D01*
X123877808Y-37616856D01*
X123918557Y-37744391D01*
X123949758Y-37853806D01*
X123966564Y-37927602D01*
X123968171Y-37943109D01*
X123968296Y-37954512D01*
X123966019Y-37964448D01*
X123957357Y-37972942D01*
X123938328Y-37980019D01*
X123904950Y-37985705D01*
X123853242Y-37990027D01*
X123779221Y-37993008D01*
X123678906Y-37994675D01*
X123548314Y-37995054D01*
X123383465Y-37994169D01*
X123180375Y-37992046D01*
X122935063Y-37988712D01*
X122643547Y-37984191D01*
X122301846Y-37978509D01*
X121905976Y-37971691D01*
X121451958Y-37963763D01*
X121262657Y-37960452D01*
X120942593Y-37954565D01*
X120642052Y-37948472D01*
X120366988Y-37942332D01*
X120123356Y-37936305D01*
X119917113Y-37930551D01*
X119754212Y-37925230D01*
X119640610Y-37920502D01*
X119582260Y-37916526D01*
X119575689Y-37915150D01*
X119588135Y-37884872D01*
X119651388Y-37824805D01*
X119761750Y-37738051D01*
X119817746Y-37697870D01*
X122472181Y-37697870D01*
X122488095Y-37713785D01*
X122504010Y-37697870D01*
X122488095Y-37681955D01*
X122472181Y-37697870D01*
X119817746Y-37697870D01*
X119915523Y-37627710D01*
X119932619Y-37615862D01*
X120012525Y-37554637D01*
X121724186Y-37554637D01*
X121726709Y-37583967D01*
X121738222Y-37586466D01*
X121770635Y-37563361D01*
X121771930Y-37554637D01*
X121761070Y-37523635D01*
X121757894Y-37522807D01*
X123331579Y-37522807D01*
X123342439Y-37553809D01*
X123345615Y-37554637D01*
X123372791Y-37532333D01*
X123379323Y-37522807D01*
X123376800Y-37493477D01*
X123365287Y-37490978D01*
X123332874Y-37514083D01*
X123331579Y-37522807D01*
X121757894Y-37522807D01*
X121730719Y-37545111D01*
X121724186Y-37554637D01*
X120012525Y-37554637D01*
X120041376Y-37532532D01*
X120093010Y-37471947D01*
X120096318Y-37442831D01*
X120100202Y-37404518D01*
X120140060Y-37397141D01*
X120196262Y-37420639D01*
X120223649Y-37443233D01*
X120275313Y-37485919D01*
X120293923Y-37475589D01*
X120288393Y-37435276D01*
X120305437Y-37377688D01*
X120381750Y-37304287D01*
X120409088Y-37284085D01*
X120520303Y-37205391D01*
X120612120Y-37140852D01*
X121008020Y-37140852D01*
X121018880Y-37171854D01*
X121022057Y-37172682D01*
X121049232Y-37150378D01*
X121055765Y-37140852D01*
X121053241Y-37111522D01*
X121041728Y-37109023D01*
X121009316Y-37132128D01*
X121008020Y-37140852D01*
X120612120Y-37140852D01*
X120675905Y-37096018D01*
X120867947Y-36961536D01*
X121021370Y-36854386D01*
X121549123Y-36854386D01*
X121573344Y-36885291D01*
X121580953Y-36886216D01*
X121611857Y-36861994D01*
X121612782Y-36854386D01*
X121588561Y-36823482D01*
X121580953Y-36822557D01*
X121550048Y-36846778D01*
X121549123Y-36854386D01*
X121021370Y-36854386D01*
X121088486Y-36807513D01*
X121174987Y-36747197D01*
X121252822Y-36688001D01*
X121300080Y-36642246D01*
X121307356Y-36623229D01*
X121299088Y-36577694D01*
X121320349Y-36518038D01*
X121357190Y-36476640D01*
X121372308Y-36472431D01*
X121427276Y-36450114D01*
X121449939Y-36429139D01*
X121507640Y-36400645D01*
X121564207Y-36400823D01*
X121649275Y-36390908D01*
X121758569Y-36330198D01*
X121775692Y-36317882D01*
X121854577Y-36264915D01*
X121912410Y-36235314D01*
X121930052Y-36233076D01*
X121942114Y-36268112D01*
X121958602Y-36353091D01*
X121977206Y-36474655D01*
X121993050Y-36597539D01*
X122034833Y-36948892D01*
X121959083Y-37012713D01*
X121888582Y-37067022D01*
X121791498Y-37135803D01*
X121732143Y-37175671D01*
X121650163Y-37231451D01*
X121595257Y-37272691D01*
X121580953Y-37287403D01*
X121611152Y-37291326D01*
X121695235Y-37294750D01*
X121823423Y-37297473D01*
X121985942Y-37299290D01*
X122173015Y-37299997D01*
X122185714Y-37300000D01*
X122399109Y-37299376D01*
X122556803Y-37297087D01*
X122666749Y-37292503D01*
X122736898Y-37284999D01*
X122775200Y-37273945D01*
X122789608Y-37258714D01*
X122790476Y-37252256D01*
X122779261Y-37228884D01*
X122738342Y-37214361D01*
X122656810Y-37206853D01*
X122523758Y-37204529D01*
X122506269Y-37204511D01*
X122222061Y-37204511D01*
X122174209Y-37037406D01*
X122165626Y-36997619D01*
X122790476Y-36997619D01*
X122806391Y-37013534D01*
X122822306Y-36997619D01*
X122806391Y-36981704D01*
X122790476Y-36997619D01*
X122165626Y-36997619D01*
X122075212Y-36578536D01*
X122039122Y-36116354D01*
X122065576Y-35654572D01*
X122154211Y-35196901D01*
X122304664Y-34747052D01*
X122424138Y-34483083D01*
X122526859Y-34283080D01*
X122608727Y-34139139D01*
X122672851Y-34048344D01*
X122722341Y-34007779D01*
X122760305Y-34014528D01*
G36*
X132473187Y-38030709D02*
X132498406Y-38090495D01*
X132498496Y-38094741D01*
X132475232Y-38144379D01*
X132423580Y-38160303D01*
X132370749Y-38139806D01*
X132350038Y-38109515D01*
X132350962Y-38047986D01*
X132364812Y-38025714D01*
X132420346Y-38004824D01*
X132473187Y-38030709D01*
X132473187Y-38030709D01*
G37*
X132473187Y-38030709D02*
X132498406Y-38090495D01*
X132498496Y-38094741D01*
X132475232Y-38144379D01*
X132423580Y-38160303D01*
X132370749Y-38139806D01*
X132350038Y-38109515D01*
X132350962Y-38047986D01*
X132364812Y-38025714D01*
X132420346Y-38004824D01*
X132473187Y-38030709D01*
G36*
X127115250Y-38088677D02*
X127117657Y-38148234D01*
X127097847Y-38220466D01*
X127058982Y-38283257D01*
X127055639Y-38286717D01*
X126991609Y-38340105D01*
X126957916Y-38337999D01*
X126950609Y-38278542D01*
X126954110Y-38238973D01*
X126975107Y-38158909D01*
X127009983Y-38127608D01*
X127011377Y-38127569D01*
X127051450Y-38109217D01*
X127055639Y-38095740D01*
X127079861Y-38064835D01*
X127087469Y-38063910D01*
X127115250Y-38088677D01*
X127115250Y-38088677D01*
G37*
X127115250Y-38088677D02*
X127117657Y-38148234D01*
X127097847Y-38220466D01*
X127058982Y-38283257D01*
X127055639Y-38286717D01*
X126991609Y-38340105D01*
X126957916Y-38337999D01*
X126950609Y-38278542D01*
X126954110Y-38238973D01*
X126975107Y-38158909D01*
X127009983Y-38127608D01*
X127011377Y-38127569D01*
X127051450Y-38109217D01*
X127055639Y-38095740D01*
X127079861Y-38064835D01*
X127087469Y-38063910D01*
X127115250Y-38088677D01*
G36*
X132220609Y-38165460D02*
X132320682Y-38200793D01*
X132381780Y-38273221D01*
X132394846Y-38366555D01*
X132371178Y-38434576D01*
X132293666Y-38521263D01*
X132196595Y-38551878D01*
X132127217Y-38539245D01*
X132044231Y-38486400D01*
X132017544Y-38408331D01*
X132046128Y-38301191D01*
X132057350Y-38277960D01*
X132103178Y-38200420D01*
X132148006Y-38167629D01*
X132213316Y-38164785D01*
X132220609Y-38165460D01*
X132220609Y-38165460D01*
G37*
X132220609Y-38165460D02*
X132320682Y-38200793D01*
X132381780Y-38273221D01*
X132394846Y-38366555D01*
X132371178Y-38434576D01*
X132293666Y-38521263D01*
X132196595Y-38551878D01*
X132127217Y-38539245D01*
X132044231Y-38486400D01*
X132017544Y-38408331D01*
X132046128Y-38301191D01*
X132057350Y-38277960D01*
X132103178Y-38200420D01*
X132148006Y-38167629D01*
X132213316Y-38164785D01*
X132220609Y-38165460D01*
G36*
X122801323Y-38457145D02*
X122867990Y-38520808D01*
X122885965Y-38603977D01*
X122859792Y-38699142D01*
X122793539Y-38765203D01*
X122705604Y-38794683D01*
X122614386Y-38780106D01*
X122556688Y-38737782D01*
X122508855Y-38646673D01*
X122513917Y-38554761D01*
X122564249Y-38479505D01*
X122652226Y-38438368D01*
X122688786Y-38435255D01*
X122801323Y-38457145D01*
X122801323Y-38457145D01*
G37*
X122801323Y-38457145D02*
X122867990Y-38520808D01*
X122885965Y-38603977D01*
X122859792Y-38699142D01*
X122793539Y-38765203D01*
X122705604Y-38794683D01*
X122614386Y-38780106D01*
X122556688Y-38737782D01*
X122508855Y-38646673D01*
X122513917Y-38554761D01*
X122564249Y-38479505D01*
X122652226Y-38438368D01*
X122688786Y-38435255D01*
X122801323Y-38457145D01*
G36*
X125202665Y-38749581D02*
X125203358Y-38797037D01*
X125163116Y-38826425D01*
X125147743Y-38827820D01*
X125088923Y-38816290D01*
X125070270Y-38802428D01*
X125069197Y-38753763D01*
X125106750Y-38715229D01*
X125158567Y-38710779D01*
X125202665Y-38749581D01*
X125202665Y-38749581D01*
G37*
X125202665Y-38749581D02*
X125203358Y-38797037D01*
X125163116Y-38826425D01*
X125147743Y-38827820D01*
X125088923Y-38816290D01*
X125070270Y-38802428D01*
X125069197Y-38753763D01*
X125106750Y-38715229D01*
X125158567Y-38710779D01*
X125202665Y-38749581D01*
G36*
X129696238Y-38349704D02*
X129766649Y-38419250D01*
X129799649Y-38518132D01*
X129795093Y-38624724D01*
X129752836Y-38717398D01*
X129699018Y-38763345D01*
X129644917Y-38824335D01*
X129633835Y-38876684D01*
X129614413Y-38936385D01*
X129571130Y-38957424D01*
X129526461Y-38929654D01*
X129524206Y-38926181D01*
X129517929Y-38873339D01*
X129523191Y-38853231D01*
X129510893Y-38806087D01*
X129455842Y-38747367D01*
X129443721Y-38738002D01*
X129372098Y-38654382D01*
X129351129Y-38559457D01*
X129372528Y-38465973D01*
X129428006Y-38386674D01*
X129509276Y-38334302D01*
X129608050Y-38321604D01*
X129696238Y-38349704D01*
X129696238Y-38349704D01*
G37*
X129696238Y-38349704D02*
X129766649Y-38419250D01*
X129799649Y-38518132D01*
X129795093Y-38624724D01*
X129752836Y-38717398D01*
X129699018Y-38763345D01*
X129644917Y-38824335D01*
X129633835Y-38876684D01*
X129614413Y-38936385D01*
X129571130Y-38957424D01*
X129526461Y-38929654D01*
X129524206Y-38926181D01*
X129517929Y-38873339D01*
X129523191Y-38853231D01*
X129510893Y-38806087D01*
X129455842Y-38747367D01*
X129443721Y-38738002D01*
X129372098Y-38654382D01*
X129351129Y-38559457D01*
X129372528Y-38465973D01*
X129428006Y-38386674D01*
X129509276Y-38334302D01*
X129608050Y-38321604D01*
X129696238Y-38349704D01*
G36*
X130977952Y-38834570D02*
X130999979Y-38869357D01*
X131002506Y-38917789D01*
X130980819Y-39002755D01*
X130927232Y-39045994D01*
X130858955Y-39040166D01*
X130809315Y-39000214D01*
X130787027Y-38935314D01*
X130817859Y-38876330D01*
X130891940Y-38838364D01*
X130918185Y-38833663D01*
X130977952Y-38834570D01*
X130977952Y-38834570D01*
G37*
X130977952Y-38834570D02*
X130999979Y-38869357D01*
X131002506Y-38917789D01*
X130980819Y-39002755D01*
X130927232Y-39045994D01*
X130858955Y-39040166D01*
X130809315Y-39000214D01*
X130787027Y-38935314D01*
X130817859Y-38876330D01*
X130891940Y-38838364D01*
X130918185Y-38833663D01*
X130977952Y-38834570D01*
G36*
X119303794Y-38427510D02*
X119372178Y-38494302D01*
X119405535Y-38564366D01*
X119398147Y-38633319D01*
X119385582Y-38666573D01*
X119345044Y-38737526D01*
X119302224Y-38776789D01*
X119270209Y-38817788D01*
X119254392Y-38894046D01*
X119254221Y-38898437D01*
X119243826Y-38999807D01*
X119225564Y-39082456D01*
X119210756Y-39116214D01*
X119202024Y-39098681D01*
X119197583Y-39024403D01*
X119196907Y-38994925D01*
X119189663Y-38901540D01*
X119174460Y-38840889D01*
X119161905Y-38827820D01*
X119136044Y-38854479D01*
X119130075Y-38891479D01*
X119118531Y-38946393D01*
X119092785Y-38948309D01*
X119066167Y-38901626D01*
X119057754Y-38867607D01*
X119033529Y-38773428D01*
X119000631Y-38679842D01*
X118976629Y-38601324D01*
X118988435Y-38540196D01*
X119014761Y-38495111D01*
X119067940Y-38429674D01*
X119116086Y-38392977D01*
X119207945Y-38387911D01*
X119303794Y-38427510D01*
X119303794Y-38427510D01*
G37*
X119303794Y-38427510D02*
X119372178Y-38494302D01*
X119405535Y-38564366D01*
X119398147Y-38633319D01*
X119385582Y-38666573D01*
X119345044Y-38737526D01*
X119302224Y-38776789D01*
X119270209Y-38817788D01*
X119254392Y-38894046D01*
X119254221Y-38898437D01*
X119243826Y-38999807D01*
X119225564Y-39082456D01*
X119210756Y-39116214D01*
X119202024Y-39098681D01*
X119197583Y-39024403D01*
X119196907Y-38994925D01*
X119189663Y-38901540D01*
X119174460Y-38840889D01*
X119161905Y-38827820D01*
X119136044Y-38854479D01*
X119130075Y-38891479D01*
X119118531Y-38946393D01*
X119092785Y-38948309D01*
X119066167Y-38901626D01*
X119057754Y-38867607D01*
X119033529Y-38773428D01*
X119000631Y-38679842D01*
X118976629Y-38601324D01*
X118988435Y-38540196D01*
X119014761Y-38495111D01*
X119067940Y-38429674D01*
X119116086Y-38392977D01*
X119207945Y-38387911D01*
X119303794Y-38427510D01*
G36*
X119127205Y-39089085D02*
X119123304Y-39118686D01*
X119105773Y-39142646D01*
X119084971Y-39118558D01*
X119073292Y-39071699D01*
X119079144Y-39059119D01*
X119110610Y-39053892D01*
X119127205Y-39089085D01*
X119127205Y-39089085D01*
G37*
X119127205Y-39089085D02*
X119123304Y-39118686D01*
X119105773Y-39142646D01*
X119084971Y-39118558D01*
X119073292Y-39071699D01*
X119079144Y-39059119D01*
X119110610Y-39053892D01*
X119127205Y-39089085D01*
G36*
X119249166Y-39205129D02*
X119257394Y-39255640D01*
X119246727Y-39316351D01*
X119225564Y-39337093D01*
X119199447Y-39310518D01*
X119193735Y-39275312D01*
X119208350Y-39214379D01*
X119225564Y-39193860D01*
X119249166Y-39205129D01*
X119249166Y-39205129D01*
G37*
X119249166Y-39205129D02*
X119257394Y-39255640D01*
X119246727Y-39316351D01*
X119225564Y-39337093D01*
X119199447Y-39310518D01*
X119193735Y-39275312D01*
X119208350Y-39214379D01*
X119225564Y-39193860D01*
X119249166Y-39205129D01*
G36*
X127612711Y-34264804D02*
X127671933Y-34332352D01*
X127735308Y-34414572D01*
X127788629Y-34492724D01*
X127817687Y-34548064D01*
X127819549Y-34557421D01*
X127841325Y-34600573D01*
X127864361Y-34623883D01*
X127908231Y-34677278D01*
X127954724Y-34757207D01*
X127958337Y-34764678D01*
X127970988Y-34793944D01*
X127978668Y-34824757D01*
X127979634Y-34863667D01*
X127972145Y-34917223D01*
X127954460Y-34991975D01*
X127924836Y-35094472D01*
X127881533Y-35231263D01*
X127822808Y-35408897D01*
X127746919Y-35633925D01*
X127656132Y-35901121D01*
X127570503Y-36153059D01*
X127489150Y-36392853D01*
X127414937Y-36612030D01*
X127350727Y-36802117D01*
X127299384Y-36954642D01*
X127263771Y-37061129D01*
X127250024Y-37102847D01*
X127195284Y-37271735D01*
X126889331Y-37277910D01*
X126715285Y-37285005D01*
X126602242Y-37298325D01*
X126547801Y-37318360D01*
X126549566Y-37345598D01*
X126550835Y-37346909D01*
X126585745Y-37352362D01*
X126674703Y-37359002D01*
X126808118Y-37366322D01*
X126976400Y-37373813D01*
X127169962Y-37380969D01*
X127232519Y-37383005D01*
X127431674Y-37389762D01*
X127608287Y-37396667D01*
X127752817Y-37403270D01*
X127855723Y-37409124D01*
X127907467Y-37413780D01*
X127911616Y-37414901D01*
X127904762Y-37444398D01*
X127884183Y-37473888D01*
X127863383Y-37523366D01*
X127865154Y-37575435D01*
X127884215Y-37607889D01*
X127914110Y-37599746D01*
X127951313Y-37544996D01*
X128004019Y-37445849D01*
X128065288Y-37317479D01*
X128128178Y-37175061D01*
X128185748Y-37033769D01*
X128231056Y-36908777D01*
X128233232Y-36902131D01*
X128269757Y-36792407D01*
X128299167Y-36708982D01*
X128315744Y-36667997D01*
X128316652Y-36666635D01*
X128347038Y-36676227D01*
X128412774Y-36718431D01*
X128501700Y-36783486D01*
X128601656Y-36861631D01*
X128700482Y-36943107D01*
X128786017Y-37018155D01*
X128846102Y-37077013D01*
X128868576Y-37109625D01*
X128853998Y-37185132D01*
X128811607Y-37302167D01*
X128747657Y-37448484D01*
X128668400Y-37611833D01*
X128580091Y-37779967D01*
X128488984Y-37940638D01*
X128401331Y-38081598D01*
X128323387Y-38190599D01*
X128305827Y-38211796D01*
X128239072Y-38289968D01*
X128155950Y-38388444D01*
X128110996Y-38442128D01*
X127958809Y-38600391D01*
X127762405Y-38768140D01*
X127537576Y-38933617D01*
X127300115Y-39085064D01*
X127103384Y-39192363D01*
X126958960Y-39262409D01*
X126826967Y-39322888D01*
X126722297Y-39367197D01*
X126661120Y-39388445D01*
X126597645Y-39398977D01*
X126580384Y-39377567D01*
X126592092Y-39317828D01*
X126612102Y-39249289D01*
X126647561Y-39138216D01*
X126692791Y-39002124D01*
X126725698Y-38905769D01*
X126777376Y-38760610D01*
X126817877Y-38663104D01*
X126855021Y-38600149D01*
X126896628Y-38558641D01*
X126950519Y-38525475D01*
X126953651Y-38523814D01*
X127027402Y-38477694D01*
X127310276Y-38477694D01*
X127334497Y-38508599D01*
X127342105Y-38509524D01*
X127373010Y-38485302D01*
X127373935Y-38477694D01*
X127349713Y-38446790D01*
X127342105Y-38445865D01*
X127311201Y-38470086D01*
X127310276Y-38477694D01*
X127027402Y-38477694D01*
X127030745Y-38475604D01*
X127132829Y-38401908D01*
X127245441Y-38314411D01*
X127354122Y-38224800D01*
X127444409Y-38144759D01*
X127501844Y-38085973D01*
X127511000Y-38073433D01*
X127550831Y-38024151D01*
X127614066Y-37959643D01*
X127622078Y-37952136D01*
X127671652Y-37898232D01*
X127675748Y-37875490D01*
X127643645Y-37882604D01*
X127584619Y-37918267D01*
X127525008Y-37965807D01*
X127419230Y-38058682D01*
X126990756Y-38041429D01*
X126795184Y-38036668D01*
X126628133Y-38038697D01*
X126502307Y-38047145D01*
X126442920Y-38057392D01*
X126316201Y-38074294D01*
X126220113Y-38064338D01*
X126161967Y-38056377D01*
X126052148Y-38047267D01*
X125902620Y-38037596D01*
X125725345Y-38027950D01*
X125532288Y-38018913D01*
X125335410Y-38011073D01*
X125146675Y-38005014D01*
X124978046Y-38001324D01*
X124919825Y-38000650D01*
X124882178Y-37975381D01*
X124844427Y-37896485D01*
X124813421Y-37795492D01*
X124778357Y-37681267D01*
X124754612Y-37634211D01*
X125336842Y-37634211D01*
X125354029Y-37676569D01*
X125368672Y-37681955D01*
X125391914Y-37660735D01*
X127575522Y-37660735D01*
X127579892Y-37679658D01*
X127596742Y-37681955D01*
X127622941Y-37670309D01*
X127617962Y-37660735D01*
X127580187Y-37656926D01*
X127575522Y-37660735D01*
X125391914Y-37660735D01*
X125396910Y-37656174D01*
X125400501Y-37634211D01*
X125383314Y-37591853D01*
X125368672Y-37586466D01*
X125340433Y-37612247D01*
X125336842Y-37634211D01*
X124754612Y-37634211D01*
X124748084Y-37621275D01*
X124717849Y-37606813D01*
X124711379Y-37608622D01*
X124680513Y-37647783D01*
X124685831Y-37678105D01*
X124705924Y-37735062D01*
X124736604Y-37830307D01*
X124764389Y-37920677D01*
X124799507Y-38037168D01*
X124845507Y-38189521D01*
X124894820Y-38352673D01*
X124918049Y-38429460D01*
X124956622Y-38561781D01*
X124985302Y-38669671D01*
X125000738Y-38739893D01*
X125001653Y-38759834D01*
X124966743Y-38757112D01*
X124887318Y-38736989D01*
X124778482Y-38704384D01*
X124655337Y-38664218D01*
X124532988Y-38621412D01*
X124426536Y-38580885D01*
X124352877Y-38548470D01*
X124313712Y-38528208D01*
X124282901Y-38506620D01*
X124256364Y-38474793D01*
X124230023Y-38423813D01*
X124199799Y-38344768D01*
X124161612Y-38228743D01*
X124111386Y-38066826D01*
X124068791Y-37927654D01*
X124038263Y-37813748D01*
X124020919Y-37719936D01*
X124020375Y-37665962D01*
X124020695Y-37665060D01*
X124021818Y-37624630D01*
X124009800Y-37618296D01*
X123981822Y-37590429D01*
X123945966Y-37518729D01*
X123929929Y-37475063D01*
X124127318Y-37475063D01*
X124143469Y-37514677D01*
X124161535Y-37516707D01*
X124194420Y-37483846D01*
X124195752Y-37475063D01*
X124170972Y-37437742D01*
X124161535Y-37433419D01*
X124132512Y-37448784D01*
X124127318Y-37475063D01*
X123929929Y-37475063D01*
X123910089Y-37421047D01*
X123887821Y-37341164D01*
X123873488Y-37290751D01*
X123843773Y-37192810D01*
X123802708Y-37060437D01*
X123754329Y-36906730D01*
X123742770Y-36870301D01*
X123689438Y-36701504D01*
X123638739Y-36539332D01*
X123596076Y-36401176D01*
X123566852Y-36304428D01*
X123564780Y-36297369D01*
X123550716Y-36249624D01*
X124095489Y-36249624D01*
X124106349Y-36280626D01*
X124109525Y-36281454D01*
X124136700Y-36259150D01*
X124143233Y-36249624D01*
X124140710Y-36220294D01*
X124129197Y-36217795D01*
X124096784Y-36240900D01*
X124095489Y-36249624D01*
X123550716Y-36249624D01*
X123534699Y-36195252D01*
X123509949Y-36112652D01*
X123501495Y-36085222D01*
X123515013Y-36026672D01*
X123575253Y-35974026D01*
X123651016Y-35922508D01*
X123751415Y-35850705D01*
X123824938Y-35796398D01*
X123944074Y-35717320D01*
X124031632Y-35681148D01*
X124083162Y-35689054D01*
X124095489Y-35725231D01*
X124105592Y-35780600D01*
X124131646Y-35872359D01*
X124156739Y-35948038D01*
X124188199Y-36041179D01*
X124207114Y-36104412D01*
X124209799Y-36122306D01*
X124215442Y-36150035D01*
X124237629Y-36223846D01*
X124272056Y-36329669D01*
X124285182Y-36368666D01*
X124327626Y-36490219D01*
X124360337Y-36564576D01*
X124393595Y-36604972D01*
X124437681Y-36624642D01*
X124492116Y-36635078D01*
X124614355Y-36676435D01*
X124682318Y-36746664D01*
X124693373Y-36837419D01*
X124644888Y-36940351D01*
X124603385Y-36987979D01*
X124542524Y-37057606D01*
X124523468Y-37112724D01*
X124534220Y-37168550D01*
X124571871Y-37231699D01*
X124642878Y-37259399D01*
X124669021Y-37262685D01*
X124763181Y-37282857D01*
X124837690Y-37316238D01*
X124876993Y-37332010D01*
X124948651Y-37343974D01*
X125059633Y-37352582D01*
X125216904Y-37358284D01*
X125427433Y-37361528D01*
X125551964Y-37362356D01*
X126204671Y-37365351D01*
X126150774Y-37283095D01*
X126114310Y-37194680D01*
X126106772Y-37115144D01*
X126117202Y-37065814D01*
X126144849Y-37039444D01*
X126206259Y-37027853D01*
X126291729Y-37023694D01*
X126396452Y-37020093D01*
X126477246Y-37017029D01*
X126505762Y-37015737D01*
X126547417Y-36986055D01*
X126595938Y-36912476D01*
X126640722Y-36812318D01*
X126653449Y-36774522D01*
X126658001Y-36730543D01*
X126624352Y-36713178D01*
X126569950Y-36710863D01*
X126495591Y-36702177D01*
X126462973Y-36666454D01*
X126458783Y-36647494D01*
X126673684Y-36647494D01*
X126689599Y-36663409D01*
X126705514Y-36647494D01*
X126689599Y-36631579D01*
X126673684Y-36647494D01*
X126458783Y-36647494D01*
X126456034Y-36635056D01*
X126452052Y-36590385D01*
X126466263Y-36574624D01*
X126512606Y-36586205D01*
X126595024Y-36619420D01*
X126644035Y-36612996D01*
X126678494Y-36592494D01*
X126702882Y-36551566D01*
X126742697Y-36460066D01*
X126794658Y-36327611D01*
X126855486Y-36163820D01*
X126921902Y-35978310D01*
X126990624Y-35780697D01*
X127058375Y-35580599D01*
X127121873Y-35387634D01*
X127177839Y-35211419D01*
X127222993Y-35061572D01*
X127254056Y-34947709D01*
X127267747Y-34879448D01*
X127267290Y-34865960D01*
X127224990Y-34823043D01*
X127208080Y-34819172D01*
X127787719Y-34819172D01*
X127811997Y-34848266D01*
X127819549Y-34849123D01*
X127847483Y-34823215D01*
X127851379Y-34799500D01*
X127835948Y-34766555D01*
X127819549Y-34769549D01*
X127788934Y-34810242D01*
X127787719Y-34819172D01*
X127208080Y-34819172D01*
X127199871Y-34817293D01*
X127155486Y-34800889D01*
X127156822Y-34761031D01*
X127198147Y-34711749D01*
X127258462Y-34673858D01*
X127325660Y-34630844D01*
X127382044Y-34564830D01*
X127435834Y-34463102D01*
X127495250Y-34312945D01*
X127499695Y-34300671D01*
X127535400Y-34240928D01*
X127571851Y-34230673D01*
X127612711Y-34264804D01*
X127612711Y-34264804D01*
G37*
X127612711Y-34264804D02*
X127671933Y-34332352D01*
X127735308Y-34414572D01*
X127788629Y-34492724D01*
X127817687Y-34548064D01*
X127819549Y-34557421D01*
X127841325Y-34600573D01*
X127864361Y-34623883D01*
X127908231Y-34677278D01*
X127954724Y-34757207D01*
X127958337Y-34764678D01*
X127970988Y-34793944D01*
X127978668Y-34824757D01*
X127979634Y-34863667D01*
X127972145Y-34917223D01*
X127954460Y-34991975D01*
X127924836Y-35094472D01*
X127881533Y-35231263D01*
X127822808Y-35408897D01*
X127746919Y-35633925D01*
X127656132Y-35901121D01*
X127570503Y-36153059D01*
X127489150Y-36392853D01*
X127414937Y-36612030D01*
X127350727Y-36802117D01*
X127299384Y-36954642D01*
X127263771Y-37061129D01*
X127250024Y-37102847D01*
X127195284Y-37271735D01*
X126889331Y-37277910D01*
X126715285Y-37285005D01*
X126602242Y-37298325D01*
X126547801Y-37318360D01*
X126549566Y-37345598D01*
X126550835Y-37346909D01*
X126585745Y-37352362D01*
X126674703Y-37359002D01*
X126808118Y-37366322D01*
X126976400Y-37373813D01*
X127169962Y-37380969D01*
X127232519Y-37383005D01*
X127431674Y-37389762D01*
X127608287Y-37396667D01*
X127752817Y-37403270D01*
X127855723Y-37409124D01*
X127907467Y-37413780D01*
X127911616Y-37414901D01*
X127904762Y-37444398D01*
X127884183Y-37473888D01*
X127863383Y-37523366D01*
X127865154Y-37575435D01*
X127884215Y-37607889D01*
X127914110Y-37599746D01*
X127951313Y-37544996D01*
X128004019Y-37445849D01*
X128065288Y-37317479D01*
X128128178Y-37175061D01*
X128185748Y-37033769D01*
X128231056Y-36908777D01*
X128233232Y-36902131D01*
X128269757Y-36792407D01*
X128299167Y-36708982D01*
X128315744Y-36667997D01*
X128316652Y-36666635D01*
X128347038Y-36676227D01*
X128412774Y-36718431D01*
X128501700Y-36783486D01*
X128601656Y-36861631D01*
X128700482Y-36943107D01*
X128786017Y-37018155D01*
X128846102Y-37077013D01*
X128868576Y-37109625D01*
X128853998Y-37185132D01*
X128811607Y-37302167D01*
X128747657Y-37448484D01*
X128668400Y-37611833D01*
X128580091Y-37779967D01*
X128488984Y-37940638D01*
X128401331Y-38081598D01*
X128323387Y-38190599D01*
X128305827Y-38211796D01*
X128239072Y-38289968D01*
X128155950Y-38388444D01*
X128110996Y-38442128D01*
X127958809Y-38600391D01*
X127762405Y-38768140D01*
X127537576Y-38933617D01*
X127300115Y-39085064D01*
X127103384Y-39192363D01*
X126958960Y-39262409D01*
X126826967Y-39322888D01*
X126722297Y-39367197D01*
X126661120Y-39388445D01*
X126597645Y-39398977D01*
X126580384Y-39377567D01*
X126592092Y-39317828D01*
X126612102Y-39249289D01*
X126647561Y-39138216D01*
X126692791Y-39002124D01*
X126725698Y-38905769D01*
X126777376Y-38760610D01*
X126817877Y-38663104D01*
X126855021Y-38600149D01*
X126896628Y-38558641D01*
X126950519Y-38525475D01*
X126953651Y-38523814D01*
X127027402Y-38477694D01*
X127310276Y-38477694D01*
X127334497Y-38508599D01*
X127342105Y-38509524D01*
X127373010Y-38485302D01*
X127373935Y-38477694D01*
X127349713Y-38446790D01*
X127342105Y-38445865D01*
X127311201Y-38470086D01*
X127310276Y-38477694D01*
X127027402Y-38477694D01*
X127030745Y-38475604D01*
X127132829Y-38401908D01*
X127245441Y-38314411D01*
X127354122Y-38224800D01*
X127444409Y-38144759D01*
X127501844Y-38085973D01*
X127511000Y-38073433D01*
X127550831Y-38024151D01*
X127614066Y-37959643D01*
X127622078Y-37952136D01*
X127671652Y-37898232D01*
X127675748Y-37875490D01*
X127643645Y-37882604D01*
X127584619Y-37918267D01*
X127525008Y-37965807D01*
X127419230Y-38058682D01*
X126990756Y-38041429D01*
X126795184Y-38036668D01*
X126628133Y-38038697D01*
X126502307Y-38047145D01*
X126442920Y-38057392D01*
X126316201Y-38074294D01*
X126220113Y-38064338D01*
X126161967Y-38056377D01*
X126052148Y-38047267D01*
X125902620Y-38037596D01*
X125725345Y-38027950D01*
X125532288Y-38018913D01*
X125335410Y-38011073D01*
X125146675Y-38005014D01*
X124978046Y-38001324D01*
X124919825Y-38000650D01*
X124882178Y-37975381D01*
X124844427Y-37896485D01*
X124813421Y-37795492D01*
X124778357Y-37681267D01*
X124754612Y-37634211D01*
X125336842Y-37634211D01*
X125354029Y-37676569D01*
X125368672Y-37681955D01*
X125391914Y-37660735D01*
X127575522Y-37660735D01*
X127579892Y-37679658D01*
X127596742Y-37681955D01*
X127622941Y-37670309D01*
X127617962Y-37660735D01*
X127580187Y-37656926D01*
X127575522Y-37660735D01*
X125391914Y-37660735D01*
X125396910Y-37656174D01*
X125400501Y-37634211D01*
X125383314Y-37591853D01*
X125368672Y-37586466D01*
X125340433Y-37612247D01*
X125336842Y-37634211D01*
X124754612Y-37634211D01*
X124748084Y-37621275D01*
X124717849Y-37606813D01*
X124711379Y-37608622D01*
X124680513Y-37647783D01*
X124685831Y-37678105D01*
X124705924Y-37735062D01*
X124736604Y-37830307D01*
X124764389Y-37920677D01*
X124799507Y-38037168D01*
X124845507Y-38189521D01*
X124894820Y-38352673D01*
X124918049Y-38429460D01*
X124956622Y-38561781D01*
X124985302Y-38669671D01*
X125000738Y-38739893D01*
X125001653Y-38759834D01*
X124966743Y-38757112D01*
X124887318Y-38736989D01*
X124778482Y-38704384D01*
X124655337Y-38664218D01*
X124532988Y-38621412D01*
X124426536Y-38580885D01*
X124352877Y-38548470D01*
X124313712Y-38528208D01*
X124282901Y-38506620D01*
X124256364Y-38474793D01*
X124230023Y-38423813D01*
X124199799Y-38344768D01*
X124161612Y-38228743D01*
X124111386Y-38066826D01*
X124068791Y-37927654D01*
X124038263Y-37813748D01*
X124020919Y-37719936D01*
X124020375Y-37665962D01*
X124020695Y-37665060D01*
X124021818Y-37624630D01*
X124009800Y-37618296D01*
X123981822Y-37590429D01*
X123945966Y-37518729D01*
X123929929Y-37475063D01*
X124127318Y-37475063D01*
X124143469Y-37514677D01*
X124161535Y-37516707D01*
X124194420Y-37483846D01*
X124195752Y-37475063D01*
X124170972Y-37437742D01*
X124161535Y-37433419D01*
X124132512Y-37448784D01*
X124127318Y-37475063D01*
X123929929Y-37475063D01*
X123910089Y-37421047D01*
X123887821Y-37341164D01*
X123873488Y-37290751D01*
X123843773Y-37192810D01*
X123802708Y-37060437D01*
X123754329Y-36906730D01*
X123742770Y-36870301D01*
X123689438Y-36701504D01*
X123638739Y-36539332D01*
X123596076Y-36401176D01*
X123566852Y-36304428D01*
X123564780Y-36297369D01*
X123550716Y-36249624D01*
X124095489Y-36249624D01*
X124106349Y-36280626D01*
X124109525Y-36281454D01*
X124136700Y-36259150D01*
X124143233Y-36249624D01*
X124140710Y-36220294D01*
X124129197Y-36217795D01*
X124096784Y-36240900D01*
X124095489Y-36249624D01*
X123550716Y-36249624D01*
X123534699Y-36195252D01*
X123509949Y-36112652D01*
X123501495Y-36085222D01*
X123515013Y-36026672D01*
X123575253Y-35974026D01*
X123651016Y-35922508D01*
X123751415Y-35850705D01*
X123824938Y-35796398D01*
X123944074Y-35717320D01*
X124031632Y-35681148D01*
X124083162Y-35689054D01*
X124095489Y-35725231D01*
X124105592Y-35780600D01*
X124131646Y-35872359D01*
X124156739Y-35948038D01*
X124188199Y-36041179D01*
X124207114Y-36104412D01*
X124209799Y-36122306D01*
X124215442Y-36150035D01*
X124237629Y-36223846D01*
X124272056Y-36329669D01*
X124285182Y-36368666D01*
X124327626Y-36490219D01*
X124360337Y-36564576D01*
X124393595Y-36604972D01*
X124437681Y-36624642D01*
X124492116Y-36635078D01*
X124614355Y-36676435D01*
X124682318Y-36746664D01*
X124693373Y-36837419D01*
X124644888Y-36940351D01*
X124603385Y-36987979D01*
X124542524Y-37057606D01*
X124523468Y-37112724D01*
X124534220Y-37168550D01*
X124571871Y-37231699D01*
X124642878Y-37259399D01*
X124669021Y-37262685D01*
X124763181Y-37282857D01*
X124837690Y-37316238D01*
X124876993Y-37332010D01*
X124948651Y-37343974D01*
X125059633Y-37352582D01*
X125216904Y-37358284D01*
X125427433Y-37361528D01*
X125551964Y-37362356D01*
X126204671Y-37365351D01*
X126150774Y-37283095D01*
X126114310Y-37194680D01*
X126106772Y-37115144D01*
X126117202Y-37065814D01*
X126144849Y-37039444D01*
X126206259Y-37027853D01*
X126291729Y-37023694D01*
X126396452Y-37020093D01*
X126477246Y-37017029D01*
X126505762Y-37015737D01*
X126547417Y-36986055D01*
X126595938Y-36912476D01*
X126640722Y-36812318D01*
X126653449Y-36774522D01*
X126658001Y-36730543D01*
X126624352Y-36713178D01*
X126569950Y-36710863D01*
X126495591Y-36702177D01*
X126462973Y-36666454D01*
X126458783Y-36647494D01*
X126673684Y-36647494D01*
X126689599Y-36663409D01*
X126705514Y-36647494D01*
X126689599Y-36631579D01*
X126673684Y-36647494D01*
X126458783Y-36647494D01*
X126456034Y-36635056D01*
X126452052Y-36590385D01*
X126466263Y-36574624D01*
X126512606Y-36586205D01*
X126595024Y-36619420D01*
X126644035Y-36612996D01*
X126678494Y-36592494D01*
X126702882Y-36551566D01*
X126742697Y-36460066D01*
X126794658Y-36327611D01*
X126855486Y-36163820D01*
X126921902Y-35978310D01*
X126990624Y-35780697D01*
X127058375Y-35580599D01*
X127121873Y-35387634D01*
X127177839Y-35211419D01*
X127222993Y-35061572D01*
X127254056Y-34947709D01*
X127267747Y-34879448D01*
X127267290Y-34865960D01*
X127224990Y-34823043D01*
X127208080Y-34819172D01*
X127787719Y-34819172D01*
X127811997Y-34848266D01*
X127819549Y-34849123D01*
X127847483Y-34823215D01*
X127851379Y-34799500D01*
X127835948Y-34766555D01*
X127819549Y-34769549D01*
X127788934Y-34810242D01*
X127787719Y-34819172D01*
X127208080Y-34819172D01*
X127199871Y-34817293D01*
X127155486Y-34800889D01*
X127156822Y-34761031D01*
X127198147Y-34711749D01*
X127258462Y-34673858D01*
X127325660Y-34630844D01*
X127382044Y-34564830D01*
X127435834Y-34463102D01*
X127495250Y-34312945D01*
X127499695Y-34300671D01*
X127535400Y-34240928D01*
X127571851Y-34230673D01*
X127612711Y-34264804D01*
G36*
X122818466Y-38015777D02*
X122827611Y-38028626D01*
X122861697Y-38041755D01*
X122946287Y-38056027D01*
X123068292Y-38069644D01*
X123201550Y-38079997D01*
X123564879Y-38102994D01*
X123772641Y-38274366D01*
X124108149Y-38510428D01*
X124474186Y-38691798D01*
X124865910Y-38816709D01*
X125278479Y-38883396D01*
X125472294Y-38893999D01*
X125601120Y-38899400D01*
X125707210Y-38908562D01*
X125773116Y-38919810D01*
X125783374Y-38923875D01*
X125796530Y-38952350D01*
X125789966Y-39015605D01*
X125762067Y-39122059D01*
X125720028Y-39253823D01*
X125618059Y-39559900D01*
X125358090Y-39555565D01*
X125225024Y-39551909D01*
X125107874Y-39546148D01*
X125028285Y-39539404D01*
X125018547Y-39537996D01*
X124931591Y-39520446D01*
X124810453Y-39492075D01*
X124671135Y-39457106D01*
X124529640Y-39419766D01*
X124401972Y-39384277D01*
X124304134Y-39354863D01*
X124252128Y-39335750D01*
X124251930Y-39335644D01*
X124207822Y-39326528D01*
X124182303Y-39368714D01*
X124177977Y-39384559D01*
X124130690Y-39467623D01*
X124053051Y-39511989D01*
X123964670Y-39516099D01*
X123885160Y-39478397D01*
X123838881Y-39411482D01*
X123825459Y-39324755D01*
X123854339Y-39257519D01*
X124031830Y-39257519D01*
X124047745Y-39273434D01*
X124063659Y-39257519D01*
X124047745Y-39241604D01*
X124031830Y-39257519D01*
X123854339Y-39257519D01*
X123855290Y-39255306D01*
X123879685Y-39210981D01*
X123875040Y-39177538D01*
X123832345Y-39139854D01*
X123758279Y-39092497D01*
X123580052Y-38973036D01*
X123431270Y-38859649D01*
X124254637Y-38859649D01*
X124266283Y-38885849D01*
X124275856Y-38880869D01*
X124279666Y-38843095D01*
X124275856Y-38838430D01*
X124256934Y-38842799D01*
X124254637Y-38859649D01*
X123431270Y-38859649D01*
X123399586Y-38835503D01*
X123224494Y-38687433D01*
X123062387Y-38536360D01*
X122974999Y-38445865D01*
X123602130Y-38445865D01*
X123609346Y-38473114D01*
X123632082Y-38477694D01*
X123675631Y-38461076D01*
X123681704Y-38445865D01*
X123658859Y-38414946D01*
X123651753Y-38414035D01*
X123608645Y-38437172D01*
X123602130Y-38445865D01*
X122974999Y-38445865D01*
X122920877Y-38389819D01*
X122807575Y-38255345D01*
X122730091Y-38140471D01*
X122696038Y-38052734D01*
X122695107Y-38040038D01*
X122719890Y-38009775D01*
X122772167Y-38000728D01*
X122818466Y-38015777D01*
X122818466Y-38015777D01*
G37*
X122818466Y-38015777D02*
X122827611Y-38028626D01*
X122861697Y-38041755D01*
X122946287Y-38056027D01*
X123068292Y-38069644D01*
X123201550Y-38079997D01*
X123564879Y-38102994D01*
X123772641Y-38274366D01*
X124108149Y-38510428D01*
X124474186Y-38691798D01*
X124865910Y-38816709D01*
X125278479Y-38883396D01*
X125472294Y-38893999D01*
X125601120Y-38899400D01*
X125707210Y-38908562D01*
X125773116Y-38919810D01*
X125783374Y-38923875D01*
X125796530Y-38952350D01*
X125789966Y-39015605D01*
X125762067Y-39122059D01*
X125720028Y-39253823D01*
X125618059Y-39559900D01*
X125358090Y-39555565D01*
X125225024Y-39551909D01*
X125107874Y-39546148D01*
X125028285Y-39539404D01*
X125018547Y-39537996D01*
X124931591Y-39520446D01*
X124810453Y-39492075D01*
X124671135Y-39457106D01*
X124529640Y-39419766D01*
X124401972Y-39384277D01*
X124304134Y-39354863D01*
X124252128Y-39335750D01*
X124251930Y-39335644D01*
X124207822Y-39326528D01*
X124182303Y-39368714D01*
X124177977Y-39384559D01*
X124130690Y-39467623D01*
X124053051Y-39511989D01*
X123964670Y-39516099D01*
X123885160Y-39478397D01*
X123838881Y-39411482D01*
X123825459Y-39324755D01*
X123854339Y-39257519D01*
X124031830Y-39257519D01*
X124047745Y-39273434D01*
X124063659Y-39257519D01*
X124047745Y-39241604D01*
X124031830Y-39257519D01*
X123854339Y-39257519D01*
X123855290Y-39255306D01*
X123879685Y-39210981D01*
X123875040Y-39177538D01*
X123832345Y-39139854D01*
X123758279Y-39092497D01*
X123580052Y-38973036D01*
X123431270Y-38859649D01*
X124254637Y-38859649D01*
X124266283Y-38885849D01*
X124275856Y-38880869D01*
X124279666Y-38843095D01*
X124275856Y-38838430D01*
X124256934Y-38842799D01*
X124254637Y-38859649D01*
X123431270Y-38859649D01*
X123399586Y-38835503D01*
X123224494Y-38687433D01*
X123062387Y-38536360D01*
X122974999Y-38445865D01*
X123602130Y-38445865D01*
X123609346Y-38473114D01*
X123632082Y-38477694D01*
X123675631Y-38461076D01*
X123681704Y-38445865D01*
X123658859Y-38414946D01*
X123651753Y-38414035D01*
X123608645Y-38437172D01*
X123602130Y-38445865D01*
X122974999Y-38445865D01*
X122920877Y-38389819D01*
X122807575Y-38255345D01*
X122730091Y-38140471D01*
X122696038Y-38052734D01*
X122695107Y-38040038D01*
X122719890Y-38009775D01*
X122772167Y-38000728D01*
X122818466Y-38015777D01*
G36*
X124351807Y-39766792D02*
X124327150Y-39799579D01*
X124300397Y-39809619D01*
X124261359Y-39801749D01*
X124261581Y-39777789D01*
X124293266Y-39741646D01*
X124333563Y-39738619D01*
X124351807Y-39766792D01*
X124351807Y-39766792D01*
G37*
X124351807Y-39766792D02*
X124327150Y-39799579D01*
X124300397Y-39809619D01*
X124261359Y-39801749D01*
X124261581Y-39777789D01*
X124293266Y-39741646D01*
X124333563Y-39738619D01*
X124351807Y-39766792D01*
G36*
X128001004Y-35475632D02*
X128068819Y-35522176D01*
X128080754Y-35532836D01*
X128140941Y-35585197D01*
X128179559Y-35612084D01*
X128183057Y-35613033D01*
X128211216Y-35631516D01*
X128284643Y-35684228D01*
X128397788Y-35767061D01*
X128545096Y-35875910D01*
X128721016Y-36006667D01*
X128919994Y-36155226D01*
X129136477Y-36317480D01*
X129195035Y-36361470D01*
X129449671Y-36552454D01*
X129658789Y-36708169D01*
X129827445Y-36832010D01*
X129960693Y-36927373D01*
X130063589Y-36997655D01*
X130141187Y-37046250D01*
X130198541Y-37076555D01*
X130240707Y-37091966D01*
X130272739Y-37095878D01*
X130286341Y-37094614D01*
X130395157Y-37101631D01*
X130467944Y-37160250D01*
X130498454Y-37253764D01*
X130509051Y-37292359D01*
X130536568Y-37335585D01*
X130587677Y-37389608D01*
X130669053Y-37460596D01*
X130787368Y-37554713D01*
X130949296Y-37678127D01*
X130994593Y-37712193D01*
X131480039Y-38076641D01*
X131477739Y-38794398D01*
X131478083Y-39019656D01*
X131480358Y-39239703D01*
X131484277Y-39440954D01*
X131489555Y-39609828D01*
X131495908Y-39732742D01*
X131497999Y-39758835D01*
X131520560Y-40005514D01*
X131435597Y-40005514D01*
X131366017Y-39989363D01*
X131332180Y-39957423D01*
X131328082Y-39906788D01*
X131331905Y-39809122D01*
X131342742Y-39680437D01*
X131352994Y-39588769D01*
X131375617Y-39192714D01*
X131351431Y-38771467D01*
X131303777Y-38453289D01*
X131281552Y-38335029D01*
X131259939Y-38246681D01*
X131230069Y-38183853D01*
X131183075Y-38142151D01*
X131110088Y-38117181D01*
X131002240Y-38104550D01*
X130850664Y-38099863D01*
X130646490Y-38098728D01*
X130587650Y-38098491D01*
X130402709Y-38096994D01*
X130191915Y-38094227D01*
X129963941Y-38090411D01*
X129727457Y-38085763D01*
X129491136Y-38080504D01*
X129263649Y-38074853D01*
X129053668Y-38069028D01*
X128869865Y-38063249D01*
X128720911Y-38057735D01*
X128615479Y-38052706D01*
X128562239Y-38048380D01*
X128557636Y-38047175D01*
X128567145Y-38017390D01*
X128600821Y-37944255D01*
X128652643Y-37840466D01*
X128687788Y-37772841D01*
X128750765Y-37651426D01*
X128794000Y-37565247D01*
X130249207Y-37565247D01*
X130253576Y-37584169D01*
X130270426Y-37586466D01*
X130296626Y-37574820D01*
X130291646Y-37565247D01*
X130253872Y-37561437D01*
X130249207Y-37565247D01*
X128794000Y-37565247D01*
X128802747Y-37547813D01*
X128836135Y-37477306D01*
X128843515Y-37459148D01*
X128845293Y-37457372D01*
X130348106Y-37457372D01*
X130356170Y-37470623D01*
X130402375Y-37489986D01*
X130428650Y-37455918D01*
X130429574Y-37443233D01*
X130413384Y-37400861D01*
X130399623Y-37395489D01*
X130358059Y-37416549D01*
X130348106Y-37457372D01*
X128845293Y-37457372D01*
X128869086Y-37433610D01*
X128932734Y-37415262D01*
X129044233Y-37402013D01*
X129140840Y-37395489D01*
X129422497Y-37379574D01*
X129086103Y-37124938D01*
X129188221Y-37124938D01*
X129204136Y-37140852D01*
X129220050Y-37124938D01*
X129204136Y-37109023D01*
X129188221Y-37124938D01*
X129086103Y-37124938D01*
X128917904Y-36997619D01*
X128745647Y-36867327D01*
X128574773Y-36738260D01*
X128507896Y-36687816D01*
X129169732Y-36687816D01*
X129173986Y-36697957D01*
X129212628Y-36713727D01*
X129222769Y-36709473D01*
X129238539Y-36670831D01*
X129234285Y-36660690D01*
X129195643Y-36644920D01*
X129185502Y-36649174D01*
X129169732Y-36687816D01*
X128507896Y-36687816D01*
X128417830Y-36619882D01*
X128287366Y-36521658D01*
X128200559Y-36456516D01*
X128037253Y-36332618D01*
X127919130Y-36237421D01*
X127839147Y-36163225D01*
X127790264Y-36102331D01*
X127765438Y-36047037D01*
X127757628Y-35989645D01*
X127757532Y-35972088D01*
X127769469Y-35876934D01*
X127798753Y-35762779D01*
X127838861Y-35646933D01*
X127883270Y-35546709D01*
X127925460Y-35479420D01*
X127949991Y-35461220D01*
X128001004Y-35475632D01*
X128001004Y-35475632D01*
G37*
X128001004Y-35475632D02*
X128068819Y-35522176D01*
X128080754Y-35532836D01*
X128140941Y-35585197D01*
X128179559Y-35612084D01*
X128183057Y-35613033D01*
X128211216Y-35631516D01*
X128284643Y-35684228D01*
X128397788Y-35767061D01*
X128545096Y-35875910D01*
X128721016Y-36006667D01*
X128919994Y-36155226D01*
X129136477Y-36317480D01*
X129195035Y-36361470D01*
X129449671Y-36552454D01*
X129658789Y-36708169D01*
X129827445Y-36832010D01*
X129960693Y-36927373D01*
X130063589Y-36997655D01*
X130141187Y-37046250D01*
X130198541Y-37076555D01*
X130240707Y-37091966D01*
X130272739Y-37095878D01*
X130286341Y-37094614D01*
X130395157Y-37101631D01*
X130467944Y-37160250D01*
X130498454Y-37253764D01*
X130509051Y-37292359D01*
X130536568Y-37335585D01*
X130587677Y-37389608D01*
X130669053Y-37460596D01*
X130787368Y-37554713D01*
X130949296Y-37678127D01*
X130994593Y-37712193D01*
X131480039Y-38076641D01*
X131477739Y-38794398D01*
X131478083Y-39019656D01*
X131480358Y-39239703D01*
X131484277Y-39440954D01*
X131489555Y-39609828D01*
X131495908Y-39732742D01*
X131497999Y-39758835D01*
X131520560Y-40005514D01*
X131435597Y-40005514D01*
X131366017Y-39989363D01*
X131332180Y-39957423D01*
X131328082Y-39906788D01*
X131331905Y-39809122D01*
X131342742Y-39680437D01*
X131352994Y-39588769D01*
X131375617Y-39192714D01*
X131351431Y-38771467D01*
X131303777Y-38453289D01*
X131281552Y-38335029D01*
X131259939Y-38246681D01*
X131230069Y-38183853D01*
X131183075Y-38142151D01*
X131110088Y-38117181D01*
X131002240Y-38104550D01*
X130850664Y-38099863D01*
X130646490Y-38098728D01*
X130587650Y-38098491D01*
X130402709Y-38096994D01*
X130191915Y-38094227D01*
X129963941Y-38090411D01*
X129727457Y-38085763D01*
X129491136Y-38080504D01*
X129263649Y-38074853D01*
X129053668Y-38069028D01*
X128869865Y-38063249D01*
X128720911Y-38057735D01*
X128615479Y-38052706D01*
X128562239Y-38048380D01*
X128557636Y-38047175D01*
X128567145Y-38017390D01*
X128600821Y-37944255D01*
X128652643Y-37840466D01*
X128687788Y-37772841D01*
X128750765Y-37651426D01*
X128794000Y-37565247D01*
X130249207Y-37565247D01*
X130253576Y-37584169D01*
X130270426Y-37586466D01*
X130296626Y-37574820D01*
X130291646Y-37565247D01*
X130253872Y-37561437D01*
X130249207Y-37565247D01*
X128794000Y-37565247D01*
X128802747Y-37547813D01*
X128836135Y-37477306D01*
X128843515Y-37459148D01*
X128845293Y-37457372D01*
X130348106Y-37457372D01*
X130356170Y-37470623D01*
X130402375Y-37489986D01*
X130428650Y-37455918D01*
X130429574Y-37443233D01*
X130413384Y-37400861D01*
X130399623Y-37395489D01*
X130358059Y-37416549D01*
X130348106Y-37457372D01*
X128845293Y-37457372D01*
X128869086Y-37433610D01*
X128932734Y-37415262D01*
X129044233Y-37402013D01*
X129140840Y-37395489D01*
X129422497Y-37379574D01*
X129086103Y-37124938D01*
X129188221Y-37124938D01*
X129204136Y-37140852D01*
X129220050Y-37124938D01*
X129204136Y-37109023D01*
X129188221Y-37124938D01*
X129086103Y-37124938D01*
X128917904Y-36997619D01*
X128745647Y-36867327D01*
X128574773Y-36738260D01*
X128507896Y-36687816D01*
X129169732Y-36687816D01*
X129173986Y-36697957D01*
X129212628Y-36713727D01*
X129222769Y-36709473D01*
X129238539Y-36670831D01*
X129234285Y-36660690D01*
X129195643Y-36644920D01*
X129185502Y-36649174D01*
X129169732Y-36687816D01*
X128507896Y-36687816D01*
X128417830Y-36619882D01*
X128287366Y-36521658D01*
X128200559Y-36456516D01*
X128037253Y-36332618D01*
X127919130Y-36237421D01*
X127839147Y-36163225D01*
X127790264Y-36102331D01*
X127765438Y-36047037D01*
X127757628Y-35989645D01*
X127757532Y-35972088D01*
X127769469Y-35876934D01*
X127798753Y-35762779D01*
X127838861Y-35646933D01*
X127883270Y-35546709D01*
X127925460Y-35479420D01*
X127949991Y-35461220D01*
X128001004Y-35475632D01*
G36*
X126506242Y-39906000D02*
X126516842Y-39911259D01*
X126565836Y-39968628D01*
X126578484Y-40050007D01*
X126554810Y-40127162D01*
X126516629Y-40163542D01*
X126437622Y-40193578D01*
X126377738Y-40177375D01*
X126341747Y-40146474D01*
X126297448Y-40067953D01*
X126303284Y-39989148D01*
X126347720Y-39925556D01*
X126419218Y-39892674D01*
X126506242Y-39906000D01*
X126506242Y-39906000D01*
G37*
X126506242Y-39906000D02*
X126516842Y-39911259D01*
X126565836Y-39968628D01*
X126578484Y-40050007D01*
X126554810Y-40127162D01*
X126516629Y-40163542D01*
X126437622Y-40193578D01*
X126377738Y-40177375D01*
X126341747Y-40146474D01*
X126297448Y-40067953D01*
X126303284Y-39989148D01*
X126347720Y-39925556D01*
X126419218Y-39892674D01*
X126506242Y-39906000D01*
G36*
X125968712Y-41586725D02*
X125998704Y-41639628D01*
X125975207Y-41706199D01*
X125973097Y-41708802D01*
X125930052Y-41747959D01*
X125881025Y-41745155D01*
X125854073Y-41735060D01*
X125823307Y-41694362D01*
X125814286Y-41642085D01*
X125827866Y-41583588D01*
X125880663Y-41565470D01*
X125894859Y-41565163D01*
X125968712Y-41586725D01*
X125968712Y-41586725D01*
G37*
X125968712Y-41586725D02*
X125998704Y-41639628D01*
X125975207Y-41706199D01*
X125973097Y-41708802D01*
X125930052Y-41747959D01*
X125881025Y-41745155D01*
X125854073Y-41735060D01*
X125823307Y-41694362D01*
X125814286Y-41642085D01*
X125827866Y-41583588D01*
X125880663Y-41565470D01*
X125894859Y-41565163D01*
X125968712Y-41586725D01*
G36*
X125076660Y-42068085D02*
X125082206Y-42090351D01*
X125056727Y-42132550D01*
X125034461Y-42138095D01*
X124992263Y-42112617D01*
X124986717Y-42090351D01*
X125012195Y-42048152D01*
X125034461Y-42042607D01*
X125076660Y-42068085D01*
X125076660Y-42068085D01*
G37*
X125076660Y-42068085D02*
X125082206Y-42090351D01*
X125056727Y-42132550D01*
X125034461Y-42138095D01*
X124992263Y-42112617D01*
X124986717Y-42090351D01*
X125012195Y-42048152D01*
X125034461Y-42042607D01*
X125076660Y-42068085D01*
G36*
X126687399Y-38128319D02*
X126801003Y-38130352D01*
X126874749Y-38133344D01*
X126896491Y-38136402D01*
X126886530Y-38172985D01*
X126859532Y-38257009D01*
X126819827Y-38375949D01*
X126771746Y-38517280D01*
X126719620Y-38668477D01*
X126667777Y-38817015D01*
X126620549Y-38950368D01*
X126582265Y-39056013D01*
X126557256Y-39121422D01*
X126551428Y-39134503D01*
X126528312Y-39190615D01*
X126491224Y-39295437D01*
X126444058Y-39436578D01*
X126390705Y-39601645D01*
X126335056Y-39778248D01*
X126281002Y-39953994D01*
X126232436Y-40116492D01*
X126193249Y-40253350D01*
X126167332Y-40352176D01*
X126162938Y-40371554D01*
X126133197Y-40480887D01*
X126096770Y-40575121D01*
X126080424Y-40605243D01*
X126048849Y-40684867D01*
X126064191Y-40764391D01*
X126084635Y-40851739D01*
X126094251Y-40960871D01*
X126094330Y-40984798D01*
X126089623Y-41069592D01*
X126072049Y-41107153D01*
X126030753Y-41113876D01*
X126010012Y-41112116D01*
X125942923Y-41120106D01*
X125915577Y-41167293D01*
X125885287Y-41245839D01*
X125863593Y-41278697D01*
X125836245Y-41329173D01*
X125793149Y-41429940D01*
X125738195Y-41570737D01*
X125675275Y-41741302D01*
X125608280Y-41931371D01*
X125544721Y-42119693D01*
X125501254Y-42245474D01*
X125470004Y-42315839D01*
X125445845Y-42336624D01*
X125423651Y-42313663D01*
X125407159Y-42276278D01*
X125377007Y-42191050D01*
X125341194Y-42079095D01*
X125325512Y-42026692D01*
X125302855Y-41950914D01*
X125264600Y-41825228D01*
X125214085Y-41660503D01*
X125154647Y-41467608D01*
X125089626Y-41257412D01*
X125051791Y-41135464D01*
X124982390Y-40911648D01*
X124914174Y-40690986D01*
X124851118Y-40486387D01*
X124797198Y-40310763D01*
X124756390Y-40177023D01*
X124743029Y-40132832D01*
X124699589Y-39989769D01*
X124656903Y-39851434D01*
X124622686Y-39742779D01*
X124616225Y-39722763D01*
X124592025Y-39637108D01*
X124582791Y-39580084D01*
X124584923Y-39569129D01*
X124620360Y-39567651D01*
X124704489Y-39575013D01*
X124823181Y-39589768D01*
X124912239Y-39602649D01*
X125060096Y-39622884D01*
X125196648Y-39637611D01*
X125301494Y-39644800D01*
X125336842Y-39644879D01*
X125414165Y-39648049D01*
X125449022Y-39674998D01*
X125458443Y-39711288D01*
X125444261Y-39780910D01*
X125407593Y-39806776D01*
X125375919Y-39822316D01*
X125363601Y-39847092D01*
X125371028Y-39896295D01*
X125398592Y-39985118D01*
X125413311Y-40029100D01*
X125480075Y-40227748D01*
X125724156Y-39503912D01*
X125807214Y-39254063D01*
X125869764Y-39057085D01*
X125913642Y-38906239D01*
X125940683Y-38794786D01*
X125952720Y-38715988D01*
X125952113Y-38666493D01*
X125951501Y-38573222D01*
X125988442Y-38493447D01*
X126018806Y-38454489D01*
X126088343Y-38356238D01*
X126145905Y-38249852D01*
X126149359Y-38241818D01*
X126197095Y-38127569D01*
X126546793Y-38127569D01*
X126687399Y-38128319D01*
X126687399Y-38128319D01*
G37*
X126687399Y-38128319D02*
X126801003Y-38130352D01*
X126874749Y-38133344D01*
X126896491Y-38136402D01*
X126886530Y-38172985D01*
X126859532Y-38257009D01*
X126819827Y-38375949D01*
X126771746Y-38517280D01*
X126719620Y-38668477D01*
X126667777Y-38817015D01*
X126620549Y-38950368D01*
X126582265Y-39056013D01*
X126557256Y-39121422D01*
X126551428Y-39134503D01*
X126528312Y-39190615D01*
X126491224Y-39295437D01*
X126444058Y-39436578D01*
X126390705Y-39601645D01*
X126335056Y-39778248D01*
X126281002Y-39953994D01*
X126232436Y-40116492D01*
X126193249Y-40253350D01*
X126167332Y-40352176D01*
X126162938Y-40371554D01*
X126133197Y-40480887D01*
X126096770Y-40575121D01*
X126080424Y-40605243D01*
X126048849Y-40684867D01*
X126064191Y-40764391D01*
X126084635Y-40851739D01*
X126094251Y-40960871D01*
X126094330Y-40984798D01*
X126089623Y-41069592D01*
X126072049Y-41107153D01*
X126030753Y-41113876D01*
X126010012Y-41112116D01*
X125942923Y-41120106D01*
X125915577Y-41167293D01*
X125885287Y-41245839D01*
X125863593Y-41278697D01*
X125836245Y-41329173D01*
X125793149Y-41429940D01*
X125738195Y-41570737D01*
X125675275Y-41741302D01*
X125608280Y-41931371D01*
X125544721Y-42119693D01*
X125501254Y-42245474D01*
X125470004Y-42315839D01*
X125445845Y-42336624D01*
X125423651Y-42313663D01*
X125407159Y-42276278D01*
X125377007Y-42191050D01*
X125341194Y-42079095D01*
X125325512Y-42026692D01*
X125302855Y-41950914D01*
X125264600Y-41825228D01*
X125214085Y-41660503D01*
X125154647Y-41467608D01*
X125089626Y-41257412D01*
X125051791Y-41135464D01*
X124982390Y-40911648D01*
X124914174Y-40690986D01*
X124851118Y-40486387D01*
X124797198Y-40310763D01*
X124756390Y-40177023D01*
X124743029Y-40132832D01*
X124699589Y-39989769D01*
X124656903Y-39851434D01*
X124622686Y-39742779D01*
X124616225Y-39722763D01*
X124592025Y-39637108D01*
X124582791Y-39580084D01*
X124584923Y-39569129D01*
X124620360Y-39567651D01*
X124704489Y-39575013D01*
X124823181Y-39589768D01*
X124912239Y-39602649D01*
X125060096Y-39622884D01*
X125196648Y-39637611D01*
X125301494Y-39644800D01*
X125336842Y-39644879D01*
X125414165Y-39648049D01*
X125449022Y-39674998D01*
X125458443Y-39711288D01*
X125444261Y-39780910D01*
X125407593Y-39806776D01*
X125375919Y-39822316D01*
X125363601Y-39847092D01*
X125371028Y-39896295D01*
X125398592Y-39985118D01*
X125413311Y-40029100D01*
X125480075Y-40227748D01*
X125724156Y-39503912D01*
X125807214Y-39254063D01*
X125869764Y-39057085D01*
X125913642Y-38906239D01*
X125940683Y-38794786D01*
X125952720Y-38715988D01*
X125952113Y-38666493D01*
X125951501Y-38573222D01*
X125988442Y-38493447D01*
X126018806Y-38454489D01*
X126088343Y-38356238D01*
X126145905Y-38249852D01*
X126149359Y-38241818D01*
X126197095Y-38127569D01*
X126546793Y-38127569D01*
X126687399Y-38128319D01*
G36*
X125035024Y-42516422D02*
X125108534Y-42586795D01*
X125144871Y-42677997D01*
X125145865Y-42695113D01*
X125119315Y-42795070D01*
X125051386Y-42864061D01*
X124959655Y-42895127D01*
X124861703Y-42881309D01*
X124792424Y-42835030D01*
X124743264Y-42747931D01*
X124744132Y-42652051D01*
X124787203Y-42565171D01*
X124864652Y-42505072D01*
X124945056Y-42488221D01*
X125035024Y-42516422D01*
X125035024Y-42516422D01*
G37*
X125035024Y-42516422D02*
X125108534Y-42586795D01*
X125144871Y-42677997D01*
X125145865Y-42695113D01*
X125119315Y-42795070D01*
X125051386Y-42864061D01*
X124959655Y-42895127D01*
X124861703Y-42881309D01*
X124792424Y-42835030D01*
X124743264Y-42747931D01*
X124744132Y-42652051D01*
X124787203Y-42565171D01*
X124864652Y-42505072D01*
X124945056Y-42488221D01*
X125035024Y-42516422D01*
G36*
X125597102Y-42819262D02*
X125681866Y-42886554D01*
X125726407Y-42981955D01*
X125726186Y-43091756D01*
X125676660Y-43202250D01*
X125629671Y-43255658D01*
X125550216Y-43354832D01*
X125527820Y-43444721D01*
X125519078Y-43511076D01*
X125498119Y-43538597D01*
X125478578Y-43510851D01*
X125471187Y-43443398D01*
X125471312Y-43436825D01*
X125460240Y-43356512D01*
X125429702Y-43320218D01*
X125354872Y-43273933D01*
X125280892Y-43196422D01*
X125226460Y-43110679D01*
X125209524Y-43049462D01*
X125238437Y-42942064D01*
X125313617Y-42853847D01*
X125417723Y-42801407D01*
X125476658Y-42793785D01*
X125597102Y-42819262D01*
X125597102Y-42819262D01*
G37*
X125597102Y-42819262D02*
X125681866Y-42886554D01*
X125726407Y-42981955D01*
X125726186Y-43091756D01*
X125676660Y-43202250D01*
X125629671Y-43255658D01*
X125550216Y-43354832D01*
X125527820Y-43444721D01*
X125519078Y-43511076D01*
X125498119Y-43538597D01*
X125478578Y-43510851D01*
X125471187Y-43443398D01*
X125471312Y-43436825D01*
X125460240Y-43356512D01*
X125429702Y-43320218D01*
X125354872Y-43273933D01*
X125280892Y-43196422D01*
X125226460Y-43110679D01*
X125209524Y-43049462D01*
X125238437Y-42942064D01*
X125313617Y-42853847D01*
X125417723Y-42801407D01*
X125476658Y-42793785D01*
X125597102Y-42819262D01*
G36*
X117732239Y-51423052D02*
X117787287Y-51475012D01*
X117828016Y-51539880D01*
X117894606Y-51704329D01*
X117904843Y-51855711D01*
X117858801Y-51987046D01*
X117822706Y-52034544D01*
X117750130Y-52099935D01*
X117672679Y-52127868D01*
X117591279Y-52132582D01*
X117498135Y-52126990D01*
X117441662Y-52100933D01*
X117395208Y-52040490D01*
X117386189Y-52025454D01*
X117344703Y-51926160D01*
X117343473Y-51825198D01*
X117384943Y-51708808D01*
X117467176Y-51569822D01*
X117535323Y-51475176D01*
X117589107Y-51425217D01*
X117643179Y-51407971D01*
X117665761Y-51407470D01*
X117732239Y-51423052D01*
X117732239Y-51423052D01*
G37*
X117732239Y-51423052D02*
X117787287Y-51475012D01*
X117828016Y-51539880D01*
X117894606Y-51704329D01*
X117904843Y-51855711D01*
X117858801Y-51987046D01*
X117822706Y-52034544D01*
X117750130Y-52099935D01*
X117672679Y-52127868D01*
X117591279Y-52132582D01*
X117498135Y-52126990D01*
X117441662Y-52100933D01*
X117395208Y-52040490D01*
X117386189Y-52025454D01*
X117344703Y-51926160D01*
X117343473Y-51825198D01*
X117384943Y-51708808D01*
X117467176Y-51569822D01*
X117535323Y-51475176D01*
X117589107Y-51425217D01*
X117643179Y-51407971D01*
X117665761Y-51407470D01*
X117732239Y-51423052D01*
G36*
X122121552Y-50973311D02*
X122107101Y-51010523D01*
X122079421Y-51044730D01*
X122033297Y-51115067D01*
X122037069Y-51162751D01*
X122082268Y-51178707D01*
X122120233Y-51183444D01*
X122104465Y-51204839D01*
X122085251Y-51219822D01*
X122050318Y-51268748D01*
X122064089Y-51316316D01*
X122079013Y-51359924D01*
X122053150Y-51366918D01*
X121954213Y-51366140D01*
X121904217Y-51395603D01*
X121899248Y-51416486D01*
X121911350Y-51442368D01*
X121955887Y-51455471D01*
X122045207Y-51458124D01*
X122110186Y-51456273D01*
X122225533Y-51453998D01*
X122296491Y-51461722D01*
X122342164Y-51484843D01*
X122381656Y-51528757D01*
X122385702Y-51534102D01*
X122423689Y-51590622D01*
X122433825Y-51638511D01*
X122417509Y-51704185D01*
X122397571Y-51757973D01*
X122365589Y-51851853D01*
X122346876Y-51926386D01*
X122344862Y-51945077D01*
X122323128Y-51998962D01*
X122270219Y-52064162D01*
X122264383Y-52069773D01*
X122163583Y-52128782D01*
X122022655Y-52150557D01*
X121861207Y-52140056D01*
X121798655Y-52118276D01*
X121791812Y-52085977D01*
X121788704Y-52032822D01*
X121761183Y-51951163D01*
X121747132Y-51920818D01*
X121694522Y-51746830D01*
X121694698Y-51737339D01*
X121845674Y-51737339D01*
X121876866Y-51824483D01*
X121953719Y-51909378D01*
X121954257Y-51909802D01*
X122028061Y-51956387D01*
X122074637Y-51953235D01*
X122098886Y-51896130D01*
X122105711Y-51780855D01*
X122105708Y-51779524D01*
X122103668Y-51680303D01*
X122091982Y-51628020D01*
X122061340Y-51605955D01*
X122004377Y-51597577D01*
X121911599Y-51610371D01*
X121857975Y-51661464D01*
X121845674Y-51737339D01*
X121694698Y-51737339D01*
X121698010Y-51558863D01*
X121711944Y-51511905D01*
X121867419Y-51511905D01*
X121883334Y-51527820D01*
X121899248Y-51511905D01*
X121883334Y-51495990D01*
X121867419Y-51511905D01*
X121711944Y-51511905D01*
X121754866Y-51367260D01*
X121862357Y-51182365D01*
X121976384Y-51052552D01*
X122045937Y-50995104D01*
X122097746Y-50968431D01*
X122121552Y-50973311D01*
X122121552Y-50973311D01*
G37*
X122121552Y-50973311D02*
X122107101Y-51010523D01*
X122079421Y-51044730D01*
X122033297Y-51115067D01*
X122037069Y-51162751D01*
X122082268Y-51178707D01*
X122120233Y-51183444D01*
X122104465Y-51204839D01*
X122085251Y-51219822D01*
X122050318Y-51268748D01*
X122064089Y-51316316D01*
X122079013Y-51359924D01*
X122053150Y-51366918D01*
X121954213Y-51366140D01*
X121904217Y-51395603D01*
X121899248Y-51416486D01*
X121911350Y-51442368D01*
X121955887Y-51455471D01*
X122045207Y-51458124D01*
X122110186Y-51456273D01*
X122225533Y-51453998D01*
X122296491Y-51461722D01*
X122342164Y-51484843D01*
X122381656Y-51528757D01*
X122385702Y-51534102D01*
X122423689Y-51590622D01*
X122433825Y-51638511D01*
X122417509Y-51704185D01*
X122397571Y-51757973D01*
X122365589Y-51851853D01*
X122346876Y-51926386D01*
X122344862Y-51945077D01*
X122323128Y-51998962D01*
X122270219Y-52064162D01*
X122264383Y-52069773D01*
X122163583Y-52128782D01*
X122022655Y-52150557D01*
X121861207Y-52140056D01*
X121798655Y-52118276D01*
X121791812Y-52085977D01*
X121788704Y-52032822D01*
X121761183Y-51951163D01*
X121747132Y-51920818D01*
X121694522Y-51746830D01*
X121694698Y-51737339D01*
X121845674Y-51737339D01*
X121876866Y-51824483D01*
X121953719Y-51909378D01*
X121954257Y-51909802D01*
X122028061Y-51956387D01*
X122074637Y-51953235D01*
X122098886Y-51896130D01*
X122105711Y-51780855D01*
X122105708Y-51779524D01*
X122103668Y-51680303D01*
X122091982Y-51628020D01*
X122061340Y-51605955D01*
X122004377Y-51597577D01*
X121911599Y-51610371D01*
X121857975Y-51661464D01*
X121845674Y-51737339D01*
X121694698Y-51737339D01*
X121698010Y-51558863D01*
X121711944Y-51511905D01*
X121867419Y-51511905D01*
X121883334Y-51527820D01*
X121899248Y-51511905D01*
X121883334Y-51495990D01*
X121867419Y-51511905D01*
X121711944Y-51511905D01*
X121754866Y-51367260D01*
X121862357Y-51182365D01*
X121976384Y-51052552D01*
X122045937Y-50995104D01*
X122097746Y-50968431D01*
X122121552Y-50973311D01*
G36*
X122105269Y-53767036D02*
X122134338Y-53828053D01*
X122144549Y-53896481D01*
X122142406Y-53915038D01*
X122147636Y-54001243D01*
X122172259Y-54056397D01*
X122211760Y-54123843D01*
X122199520Y-54158441D01*
X122130642Y-54169474D01*
X122112506Y-54169674D01*
X122027871Y-54180859D01*
X121969320Y-54207846D01*
X121968479Y-54208664D01*
X121920302Y-54231269D01*
X121871734Y-54211585D01*
X121804226Y-54190926D01*
X121756972Y-54210873D01*
X121747217Y-54259626D01*
X121759850Y-54288129D01*
X121809537Y-54327770D01*
X121901571Y-54344009D01*
X121941989Y-54344993D01*
X122069112Y-54360548D01*
X122150179Y-54412833D01*
X122195277Y-54511088D01*
X122208518Y-54589074D01*
X122212779Y-54680069D01*
X122194037Y-54749541D01*
X122142614Y-54825933D01*
X122117446Y-54856762D01*
X122040104Y-54958082D01*
X121970116Y-55063470D01*
X121948770Y-55100539D01*
X121863328Y-55206593D01*
X121756728Y-55265831D01*
X121654328Y-55301888D01*
X121591326Y-55312673D01*
X121549101Y-55299103D01*
X121523659Y-55277344D01*
X121487810Y-55223599D01*
X121502655Y-55194748D01*
X121547681Y-55197066D01*
X121598525Y-55190445D01*
X121667870Y-55143421D01*
X121764245Y-55050115D01*
X121770488Y-55043536D01*
X121859575Y-54942321D01*
X121913703Y-54866819D01*
X121931904Y-54822237D01*
X121913211Y-54813777D01*
X121856656Y-54846644D01*
X121798427Y-54893239D01*
X121725194Y-54927232D01*
X121650319Y-54921861D01*
X121597712Y-54881688D01*
X121587610Y-54853027D01*
X121598272Y-54803210D01*
X121652134Y-54752713D01*
X121726415Y-54708367D01*
X121808814Y-54658242D01*
X121860971Y-54615699D01*
X121870948Y-54597946D01*
X121861283Y-54575321D01*
X121826936Y-54563404D01*
X121749459Y-54556349D01*
X121737336Y-54555608D01*
X121672418Y-54521273D01*
X121634839Y-54456061D01*
X121595030Y-54384281D01*
X121549535Y-54344871D01*
X121549062Y-54344718D01*
X121508707Y-54304210D01*
X121492768Y-54249308D01*
X121500628Y-54187734D01*
X121545231Y-54169691D01*
X121547463Y-54169674D01*
X121594216Y-54151347D01*
X121616361Y-54087232D01*
X121618723Y-54067221D01*
X121638527Y-53993248D01*
X121689777Y-53937676D01*
X121785699Y-53888433D01*
X121835589Y-53869242D01*
X121918038Y-53828986D01*
X121997281Y-53775727D01*
X122035129Y-53739975D01*
X122068484Y-53731614D01*
X122105269Y-53767036D01*
X122105269Y-53767036D01*
G37*
X122105269Y-53767036D02*
X122134338Y-53828053D01*
X122144549Y-53896481D01*
X122142406Y-53915038D01*
X122147636Y-54001243D01*
X122172259Y-54056397D01*
X122211760Y-54123843D01*
X122199520Y-54158441D01*
X122130642Y-54169474D01*
X122112506Y-54169674D01*
X122027871Y-54180859D01*
X121969320Y-54207846D01*
X121968479Y-54208664D01*
X121920302Y-54231269D01*
X121871734Y-54211585D01*
X121804226Y-54190926D01*
X121756972Y-54210873D01*
X121747217Y-54259626D01*
X121759850Y-54288129D01*
X121809537Y-54327770D01*
X121901571Y-54344009D01*
X121941989Y-54344993D01*
X122069112Y-54360548D01*
X122150179Y-54412833D01*
X122195277Y-54511088D01*
X122208518Y-54589074D01*
X122212779Y-54680069D01*
X122194037Y-54749541D01*
X122142614Y-54825933D01*
X122117446Y-54856762D01*
X122040104Y-54958082D01*
X121970116Y-55063470D01*
X121948770Y-55100539D01*
X121863328Y-55206593D01*
X121756728Y-55265831D01*
X121654328Y-55301888D01*
X121591326Y-55312673D01*
X121549101Y-55299103D01*
X121523659Y-55277344D01*
X121487810Y-55223599D01*
X121502655Y-55194748D01*
X121547681Y-55197066D01*
X121598525Y-55190445D01*
X121667870Y-55143421D01*
X121764245Y-55050115D01*
X121770488Y-55043536D01*
X121859575Y-54942321D01*
X121913703Y-54866819D01*
X121931904Y-54822237D01*
X121913211Y-54813777D01*
X121856656Y-54846644D01*
X121798427Y-54893239D01*
X121725194Y-54927232D01*
X121650319Y-54921861D01*
X121597712Y-54881688D01*
X121587610Y-54853027D01*
X121598272Y-54803210D01*
X121652134Y-54752713D01*
X121726415Y-54708367D01*
X121808814Y-54658242D01*
X121860971Y-54615699D01*
X121870948Y-54597946D01*
X121861283Y-54575321D01*
X121826936Y-54563404D01*
X121749459Y-54556349D01*
X121737336Y-54555608D01*
X121672418Y-54521273D01*
X121634839Y-54456061D01*
X121595030Y-54384281D01*
X121549535Y-54344871D01*
X121549062Y-54344718D01*
X121508707Y-54304210D01*
X121492768Y-54249308D01*
X121500628Y-54187734D01*
X121545231Y-54169691D01*
X121547463Y-54169674D01*
X121594216Y-54151347D01*
X121616361Y-54087232D01*
X121618723Y-54067221D01*
X121638527Y-53993248D01*
X121689777Y-53937676D01*
X121785699Y-53888433D01*
X121835589Y-53869242D01*
X121918038Y-53828986D01*
X121997281Y-53775727D01*
X122035129Y-53739975D01*
X122068484Y-53731614D01*
X122105269Y-53767036D01*
G36*
X117013552Y-51344800D02*
X117080224Y-51427184D01*
X117112004Y-51490012D01*
X117117697Y-51560020D01*
X117109695Y-51636771D01*
X117091489Y-51741322D01*
X117068753Y-51826299D01*
X117058408Y-51851246D01*
X117046419Y-51918920D01*
X117053154Y-52043590D01*
X117076447Y-52213291D01*
X117101449Y-52379223D01*
X117128815Y-52578796D01*
X117157333Y-52801221D01*
X117185789Y-53035710D01*
X117212972Y-53271474D01*
X117237669Y-53497725D01*
X117258667Y-53703676D01*
X117274754Y-53878538D01*
X117284717Y-54011523D01*
X117287388Y-54090100D01*
X117278217Y-54212873D01*
X117258411Y-54357765D01*
X117241827Y-54446948D01*
X117225411Y-54535085D01*
X117219903Y-54611745D01*
X117228409Y-54689103D01*
X117254036Y-54779331D01*
X117299889Y-54894604D01*
X117369076Y-55047095D01*
X117425422Y-55166448D01*
X117482630Y-55312429D01*
X117501195Y-55424899D01*
X117499559Y-55445706D01*
X117507234Y-55524845D01*
X117558921Y-55559349D01*
X117652978Y-55548947D01*
X117787767Y-55493371D01*
X117788329Y-55493087D01*
X117929341Y-55435388D01*
X118050104Y-55412369D01*
X118138072Y-55425745D01*
X118161655Y-55442056D01*
X118211904Y-55454864D01*
X118320628Y-55453715D01*
X118484203Y-55438658D01*
X118494274Y-55437480D01*
X118663168Y-55412981D01*
X118801777Y-55379403D01*
X118939468Y-55327979D01*
X119079643Y-55262747D01*
X119205834Y-55205012D01*
X119314938Y-55162643D01*
X119391908Y-55141098D01*
X119416644Y-55140509D01*
X119483779Y-55178693D01*
X119567454Y-55247166D01*
X119645368Y-55325781D01*
X119693030Y-55390190D01*
X119714864Y-55474946D01*
X119687824Y-55567337D01*
X119608601Y-55674677D01*
X119527550Y-55755934D01*
X119433442Y-55849461D01*
X119375917Y-55927441D01*
X119340912Y-56012895D01*
X119321487Y-56093272D01*
X119303559Y-56198205D01*
X119305487Y-56277881D01*
X119333836Y-56350516D01*
X119395174Y-56434325D01*
X119478243Y-56528048D01*
X119553598Y-56635728D01*
X119577033Y-56731431D01*
X119548284Y-56806641D01*
X119488158Y-56846097D01*
X119392410Y-56885830D01*
X119308205Y-56924884D01*
X119244225Y-56955768D01*
X119213139Y-56969184D01*
X119212716Y-56969188D01*
X119184127Y-56957858D01*
X119114074Y-56930389D01*
X119054924Y-56907263D01*
X118954982Y-56863427D01*
X118874198Y-56819662D01*
X118848032Y-56800977D01*
X118791553Y-56761889D01*
X118700530Y-56709109D01*
X118625605Y-56669790D01*
X118529970Y-56618015D01*
X118481916Y-56578424D01*
X118470016Y-56539316D01*
X118474408Y-56514971D01*
X118515176Y-56352100D01*
X118547394Y-56195712D01*
X118551947Y-56166980D01*
X118877799Y-56166980D01*
X118891030Y-56203755D01*
X118922774Y-56196923D01*
X118950385Y-56151441D01*
X118950491Y-56151065D01*
X118966355Y-56081659D01*
X118983414Y-55989392D01*
X118984306Y-55983960D01*
X119002438Y-55872557D01*
X118941299Y-55999875D01*
X118903180Y-56086685D01*
X118880375Y-56152825D01*
X118877799Y-56166980D01*
X118551947Y-56166980D01*
X118569109Y-56058701D01*
X118578370Y-55953961D01*
X118573226Y-55894385D01*
X118569322Y-55887918D01*
X118526563Y-55875506D01*
X118437491Y-55881958D01*
X118295970Y-55907864D01*
X118244329Y-55919080D01*
X118100199Y-55948345D01*
X117965193Y-55970835D01*
X117861276Y-55983066D01*
X117833357Y-55984305D01*
X117729551Y-55994478D01*
X117605941Y-56019784D01*
X117554511Y-56034196D01*
X117452060Y-56065087D01*
X117368185Y-56088637D01*
X117339542Y-56095707D01*
X117274968Y-56115808D01*
X117254138Y-56125953D01*
X117159711Y-56160432D01*
X117034043Y-56177670D01*
X116907720Y-56175576D01*
X116819343Y-56155681D01*
X116694973Y-56117167D01*
X116601580Y-56124086D01*
X116523678Y-56178355D01*
X116509499Y-56194003D01*
X116464532Y-56240054D01*
X116418439Y-56261700D01*
X116349848Y-56263900D01*
X116252789Y-56253545D01*
X116067236Y-56230362D01*
X116081409Y-56059454D01*
X116092451Y-55960828D01*
X116105614Y-55890777D01*
X116113749Y-55870379D01*
X116152124Y-55853204D01*
X116233140Y-55827178D01*
X116317138Y-55803844D01*
X116435664Y-55768912D01*
X116542900Y-55730673D01*
X116593869Y-55708155D01*
X116653478Y-55669889D01*
X116673016Y-55623559D01*
X116664232Y-55543889D01*
X116632065Y-55439912D01*
X116579130Y-55330148D01*
X116565654Y-55308264D01*
X116536027Y-55259458D01*
X116515100Y-55210842D01*
X116501368Y-55150588D01*
X116493325Y-55066866D01*
X116489465Y-54947846D01*
X116488282Y-54781699D01*
X116488221Y-54699974D01*
X116479872Y-54347015D01*
X116453415Y-54026981D01*
X116421848Y-53800106D01*
X116396251Y-53617357D01*
X116371173Y-53394926D01*
X116348984Y-53156763D01*
X116332058Y-52926819D01*
X116327610Y-52848747D01*
X116312028Y-52551378D01*
X116298549Y-52310977D01*
X116286393Y-52120919D01*
X116274780Y-51974578D01*
X116262930Y-51865329D01*
X116250063Y-51786546D01*
X116244325Y-51765047D01*
X116577111Y-51765047D01*
X116580716Y-51875520D01*
X116588879Y-51994522D01*
X116600593Y-52103827D01*
X116614850Y-52185208D01*
X116618341Y-52197927D01*
X116628012Y-52257532D01*
X116638600Y-52371566D01*
X116649550Y-52530816D01*
X116660310Y-52726070D01*
X116670326Y-52948115D01*
X116679044Y-53187738D01*
X116680392Y-53230702D01*
X116690275Y-53533938D01*
X116700029Y-53781120D01*
X116710476Y-53979848D01*
X116722437Y-54137720D01*
X116736732Y-54262334D01*
X116754183Y-54361290D01*
X116775612Y-54442186D01*
X116801840Y-54512621D01*
X116824190Y-54561192D01*
X116860971Y-54625982D01*
X116888826Y-54644033D01*
X116911527Y-54610921D01*
X116932843Y-54522220D01*
X116950783Y-54412600D01*
X116975519Y-54309691D01*
X117010502Y-54266842D01*
X117020735Y-54265163D01*
X117053637Y-54246555D01*
X117048842Y-54193547D01*
X117024136Y-54068730D01*
X117001704Y-53883387D01*
X116981759Y-53640616D01*
X116964515Y-53343516D01*
X116950184Y-52995184D01*
X116938979Y-52598721D01*
X116938874Y-52594110D01*
X116917920Y-51671053D01*
X116758772Y-51651798D01*
X116665478Y-51642595D01*
X116602327Y-51640282D01*
X116587614Y-51642589D01*
X116579074Y-51681328D01*
X116577111Y-51765047D01*
X116244325Y-51765047D01*
X116235399Y-51731604D01*
X116218158Y-51693877D01*
X116197561Y-51666740D01*
X116187254Y-51656467D01*
X116119534Y-51619734D01*
X116005543Y-51584891D01*
X115862640Y-51555631D01*
X115708188Y-51535647D01*
X115587019Y-51528802D01*
X115547549Y-51514606D01*
X115536836Y-51462974D01*
X115539274Y-51424374D01*
X115549248Y-51320927D01*
X115842604Y-51317331D01*
X116009697Y-51311053D01*
X116125313Y-51295871D01*
X116201229Y-51270025D01*
X116215482Y-51261629D01*
X116277560Y-51234252D01*
X116370478Y-51217757D01*
X116507236Y-51210364D01*
X116596024Y-51209524D01*
X116897045Y-51209524D01*
X117013552Y-51344800D01*
X117013552Y-51344800D01*
G37*
X117013552Y-51344800D02*
X117080224Y-51427184D01*
X117112004Y-51490012D01*
X117117697Y-51560020D01*
X117109695Y-51636771D01*
X117091489Y-51741322D01*
X117068753Y-51826299D01*
X117058408Y-51851246D01*
X117046419Y-51918920D01*
X117053154Y-52043590D01*
X117076447Y-52213291D01*
X117101449Y-52379223D01*
X117128815Y-52578796D01*
X117157333Y-52801221D01*
X117185789Y-53035710D01*
X117212972Y-53271474D01*
X117237669Y-53497725D01*
X117258667Y-53703676D01*
X117274754Y-53878538D01*
X117284717Y-54011523D01*
X117287388Y-54090100D01*
X117278217Y-54212873D01*
X117258411Y-54357765D01*
X117241827Y-54446948D01*
X117225411Y-54535085D01*
X117219903Y-54611745D01*
X117228409Y-54689103D01*
X117254036Y-54779331D01*
X117299889Y-54894604D01*
X117369076Y-55047095D01*
X117425422Y-55166448D01*
X117482630Y-55312429D01*
X117501195Y-55424899D01*
X117499559Y-55445706D01*
X117507234Y-55524845D01*
X117558921Y-55559349D01*
X117652978Y-55548947D01*
X117787767Y-55493371D01*
X117788329Y-55493087D01*
X117929341Y-55435388D01*
X118050104Y-55412369D01*
X118138072Y-55425745D01*
X118161655Y-55442056D01*
X118211904Y-55454864D01*
X118320628Y-55453715D01*
X118484203Y-55438658D01*
X118494274Y-55437480D01*
X118663168Y-55412981D01*
X118801777Y-55379403D01*
X118939468Y-55327979D01*
X119079643Y-55262747D01*
X119205834Y-55205012D01*
X119314938Y-55162643D01*
X119391908Y-55141098D01*
X119416644Y-55140509D01*
X119483779Y-55178693D01*
X119567454Y-55247166D01*
X119645368Y-55325781D01*
X119693030Y-55390190D01*
X119714864Y-55474946D01*
X119687824Y-55567337D01*
X119608601Y-55674677D01*
X119527550Y-55755934D01*
X119433442Y-55849461D01*
X119375917Y-55927441D01*
X119340912Y-56012895D01*
X119321487Y-56093272D01*
X119303559Y-56198205D01*
X119305487Y-56277881D01*
X119333836Y-56350516D01*
X119395174Y-56434325D01*
X119478243Y-56528048D01*
X119553598Y-56635728D01*
X119577033Y-56731431D01*
X119548284Y-56806641D01*
X119488158Y-56846097D01*
X119392410Y-56885830D01*
X119308205Y-56924884D01*
X119244225Y-56955768D01*
X119213139Y-56969184D01*
X119212716Y-56969188D01*
X119184127Y-56957858D01*
X119114074Y-56930389D01*
X119054924Y-56907263D01*
X118954982Y-56863427D01*
X118874198Y-56819662D01*
X118848032Y-56800977D01*
X118791553Y-56761889D01*
X118700530Y-56709109D01*
X118625605Y-56669790D01*
X118529970Y-56618015D01*
X118481916Y-56578424D01*
X118470016Y-56539316D01*
X118474408Y-56514971D01*
X118515176Y-56352100D01*
X118547394Y-56195712D01*
X118551947Y-56166980D01*
X118877799Y-56166980D01*
X118891030Y-56203755D01*
X118922774Y-56196923D01*
X118950385Y-56151441D01*
X118950491Y-56151065D01*
X118966355Y-56081659D01*
X118983414Y-55989392D01*
X118984306Y-55983960D01*
X119002438Y-55872557D01*
X118941299Y-55999875D01*
X118903180Y-56086685D01*
X118880375Y-56152825D01*
X118877799Y-56166980D01*
X118551947Y-56166980D01*
X118569109Y-56058701D01*
X118578370Y-55953961D01*
X118573226Y-55894385D01*
X118569322Y-55887918D01*
X118526563Y-55875506D01*
X118437491Y-55881958D01*
X118295970Y-55907864D01*
X118244329Y-55919080D01*
X118100199Y-55948345D01*
X117965193Y-55970835D01*
X117861276Y-55983066D01*
X117833357Y-55984305D01*
X117729551Y-55994478D01*
X117605941Y-56019784D01*
X117554511Y-56034196D01*
X117452060Y-56065087D01*
X117368185Y-56088637D01*
X117339542Y-56095707D01*
X117274968Y-56115808D01*
X117254138Y-56125953D01*
X117159711Y-56160432D01*
X117034043Y-56177670D01*
X116907720Y-56175576D01*
X116819343Y-56155681D01*
X116694973Y-56117167D01*
X116601580Y-56124086D01*
X116523678Y-56178355D01*
X116509499Y-56194003D01*
X116464532Y-56240054D01*
X116418439Y-56261700D01*
X116349848Y-56263900D01*
X116252789Y-56253545D01*
X116067236Y-56230362D01*
X116081409Y-56059454D01*
X116092451Y-55960828D01*
X116105614Y-55890777D01*
X116113749Y-55870379D01*
X116152124Y-55853204D01*
X116233140Y-55827178D01*
X116317138Y-55803844D01*
X116435664Y-55768912D01*
X116542900Y-55730673D01*
X116593869Y-55708155D01*
X116653478Y-55669889D01*
X116673016Y-55623559D01*
X116664232Y-55543889D01*
X116632065Y-55439912D01*
X116579130Y-55330148D01*
X116565654Y-55308264D01*
X116536027Y-55259458D01*
X116515100Y-55210842D01*
X116501368Y-55150588D01*
X116493325Y-55066866D01*
X116489465Y-54947846D01*
X116488282Y-54781699D01*
X116488221Y-54699974D01*
X116479872Y-54347015D01*
X116453415Y-54026981D01*
X116421848Y-53800106D01*
X116396251Y-53617357D01*
X116371173Y-53394926D01*
X116348984Y-53156763D01*
X116332058Y-52926819D01*
X116327610Y-52848747D01*
X116312028Y-52551378D01*
X116298549Y-52310977D01*
X116286393Y-52120919D01*
X116274780Y-51974578D01*
X116262930Y-51865329D01*
X116250063Y-51786546D01*
X116244325Y-51765047D01*
X116577111Y-51765047D01*
X116580716Y-51875520D01*
X116588879Y-51994522D01*
X116600593Y-52103827D01*
X116614850Y-52185208D01*
X116618341Y-52197927D01*
X116628012Y-52257532D01*
X116638600Y-52371566D01*
X116649550Y-52530816D01*
X116660310Y-52726070D01*
X116670326Y-52948115D01*
X116679044Y-53187738D01*
X116680392Y-53230702D01*
X116690275Y-53533938D01*
X116700029Y-53781120D01*
X116710476Y-53979848D01*
X116722437Y-54137720D01*
X116736732Y-54262334D01*
X116754183Y-54361290D01*
X116775612Y-54442186D01*
X116801840Y-54512621D01*
X116824190Y-54561192D01*
X116860971Y-54625982D01*
X116888826Y-54644033D01*
X116911527Y-54610921D01*
X116932843Y-54522220D01*
X116950783Y-54412600D01*
X116975519Y-54309691D01*
X117010502Y-54266842D01*
X117020735Y-54265163D01*
X117053637Y-54246555D01*
X117048842Y-54193547D01*
X117024136Y-54068730D01*
X117001704Y-53883387D01*
X116981759Y-53640616D01*
X116964515Y-53343516D01*
X116950184Y-52995184D01*
X116938979Y-52598721D01*
X116938874Y-52594110D01*
X116917920Y-51671053D01*
X116758772Y-51651798D01*
X116665478Y-51642595D01*
X116602327Y-51640282D01*
X116587614Y-51642589D01*
X116579074Y-51681328D01*
X116577111Y-51765047D01*
X116244325Y-51765047D01*
X116235399Y-51731604D01*
X116218158Y-51693877D01*
X116197561Y-51666740D01*
X116187254Y-51656467D01*
X116119534Y-51619734D01*
X116005543Y-51584891D01*
X115862640Y-51555631D01*
X115708188Y-51535647D01*
X115587019Y-51528802D01*
X115547549Y-51514606D01*
X115536836Y-51462974D01*
X115539274Y-51424374D01*
X115549248Y-51320927D01*
X115842604Y-51317331D01*
X116009697Y-51311053D01*
X116125313Y-51295871D01*
X116201229Y-51270025D01*
X116215482Y-51261629D01*
X116277560Y-51234252D01*
X116370478Y-51217757D01*
X116507236Y-51210364D01*
X116596024Y-51209524D01*
X116897045Y-51209524D01*
X117013552Y-51344800D01*
G36*
X121757170Y-56960900D02*
X121766901Y-57010051D01*
X121769122Y-57109975D01*
X121766317Y-57222059D01*
X121764231Y-57348944D01*
X121767223Y-57447602D01*
X121774632Y-57503947D01*
X121779887Y-57511853D01*
X121803107Y-57487333D01*
X121803760Y-57479950D01*
X121825814Y-57451546D01*
X121871041Y-57453561D01*
X121908038Y-57483640D01*
X121909998Y-57487907D01*
X121918511Y-57480322D01*
X121925211Y-57421853D01*
X121928565Y-57328760D01*
X121933804Y-57213783D01*
X121947650Y-57151220D01*
X121972787Y-57130099D01*
X121977241Y-57129825D01*
X122030524Y-57154681D01*
X122052410Y-57181657D01*
X122084186Y-57212798D01*
X122103614Y-57197571D01*
X122143296Y-57163956D01*
X122154960Y-57161654D01*
X122168982Y-57190176D01*
X122177775Y-57262948D01*
X122181368Y-57360776D01*
X122179788Y-57464467D01*
X122173060Y-57554830D01*
X122161214Y-57612671D01*
X122154310Y-57622920D01*
X122143698Y-57661211D01*
X122150660Y-57734999D01*
X122153847Y-57750332D01*
X122165199Y-57827913D01*
X122150592Y-57859362D01*
X122136497Y-57861905D01*
X122088905Y-57878901D01*
X122062260Y-57935965D01*
X122053489Y-58042212D01*
X122054447Y-58105287D01*
X122053681Y-58208404D01*
X122040670Y-58261035D01*
X122012581Y-58275689D01*
X121961316Y-58250391D01*
X121930925Y-58211745D01*
X121908029Y-58136872D01*
X121897734Y-58039321D01*
X121897691Y-58028725D01*
X121893535Y-57915396D01*
X121882045Y-57792024D01*
X121879705Y-57774374D01*
X121864586Y-57689778D01*
X121838586Y-57650749D01*
X121783083Y-57639666D01*
X121736757Y-57639098D01*
X121612782Y-57639098D01*
X121612782Y-57415269D01*
X121623454Y-57247223D01*
X121652948Y-57104247D01*
X121697479Y-57000109D01*
X121739197Y-56955320D01*
X121757170Y-56960900D01*
X121757170Y-56960900D01*
G37*
X121757170Y-56960900D02*
X121766901Y-57010051D01*
X121769122Y-57109975D01*
X121766317Y-57222059D01*
X121764231Y-57348944D01*
X121767223Y-57447602D01*
X121774632Y-57503947D01*
X121779887Y-57511853D01*
X121803107Y-57487333D01*
X121803760Y-57479950D01*
X121825814Y-57451546D01*
X121871041Y-57453561D01*
X121908038Y-57483640D01*
X121909998Y-57487907D01*
X121918511Y-57480322D01*
X121925211Y-57421853D01*
X121928565Y-57328760D01*
X121933804Y-57213783D01*
X121947650Y-57151220D01*
X121972787Y-57130099D01*
X121977241Y-57129825D01*
X122030524Y-57154681D01*
X122052410Y-57181657D01*
X122084186Y-57212798D01*
X122103614Y-57197571D01*
X122143296Y-57163956D01*
X122154960Y-57161654D01*
X122168982Y-57190176D01*
X122177775Y-57262948D01*
X122181368Y-57360776D01*
X122179788Y-57464467D01*
X122173060Y-57554830D01*
X122161214Y-57612671D01*
X122154310Y-57622920D01*
X122143698Y-57661211D01*
X122150660Y-57734999D01*
X122153847Y-57750332D01*
X122165199Y-57827913D01*
X122150592Y-57859362D01*
X122136497Y-57861905D01*
X122088905Y-57878901D01*
X122062260Y-57935965D01*
X122053489Y-58042212D01*
X122054447Y-58105287D01*
X122053681Y-58208404D01*
X122040670Y-58261035D01*
X122012581Y-58275689D01*
X121961316Y-58250391D01*
X121930925Y-58211745D01*
X121908029Y-58136872D01*
X121897734Y-58039321D01*
X121897691Y-58028725D01*
X121893535Y-57915396D01*
X121882045Y-57792024D01*
X121879705Y-57774374D01*
X121864586Y-57689778D01*
X121838586Y-57650749D01*
X121783083Y-57639666D01*
X121736757Y-57639098D01*
X121612782Y-57639098D01*
X121612782Y-57415269D01*
X121623454Y-57247223D01*
X121652948Y-57104247D01*
X121697479Y-57000109D01*
X121739197Y-56955320D01*
X121757170Y-56960900D01*
G36*
X121899675Y-59772543D02*
X121989655Y-59791935D01*
X122070953Y-59819398D01*
X122111721Y-59841924D01*
X122140636Y-59902743D01*
X122126387Y-59999808D01*
X122070504Y-60124030D01*
X122061707Y-60139256D01*
X122019765Y-60223680D01*
X122013266Y-60292685D01*
X122044823Y-60368811D01*
X122097421Y-60447475D01*
X122117052Y-60492587D01*
X122115761Y-60556919D01*
X122092599Y-60658646D01*
X122084942Y-60686197D01*
X122046163Y-60810396D01*
X121998675Y-60943888D01*
X121948090Y-61073084D01*
X121900017Y-61184393D01*
X121860067Y-61264227D01*
X121833850Y-61298997D01*
X121831751Y-61299499D01*
X121792940Y-61279433D01*
X121758289Y-61249481D01*
X121712157Y-61183100D01*
X121725942Y-61134816D01*
X121738710Y-61125295D01*
X121755830Y-61083944D01*
X121750765Y-61058572D01*
X121755088Y-60998770D01*
X121780146Y-60956146D01*
X121855097Y-60846181D01*
X121902589Y-60726973D01*
X121921439Y-60612267D01*
X121910465Y-60515808D01*
X121868482Y-60451342D01*
X121825153Y-60433276D01*
X121779979Y-60421597D01*
X121763643Y-60393403D01*
X121771200Y-60330783D01*
X121782718Y-60279579D01*
X121786267Y-60218561D01*
X121749586Y-60181348D01*
X121707225Y-60162983D01*
X121638119Y-60123403D01*
X121622570Y-60083263D01*
X121835589Y-60083263D01*
X121839379Y-60117135D01*
X121855270Y-60106584D01*
X121890046Y-60045628D01*
X121900148Y-60026316D01*
X121925624Y-59973211D01*
X121917626Y-59967960D01*
X121888545Y-59990426D01*
X121845113Y-60047371D01*
X121835589Y-60083263D01*
X121622570Y-60083263D01*
X121614021Y-60061195D01*
X121612782Y-60030959D01*
X121602595Y-59955956D01*
X121578879Y-59913631D01*
X121567093Y-59879741D01*
X121595166Y-59835914D01*
X121645242Y-59799078D01*
X121699468Y-59786159D01*
X121710933Y-59788439D01*
X121766466Y-59789481D01*
X121784982Y-59776312D01*
X121823841Y-59765808D01*
X121899675Y-59772543D01*
X121899675Y-59772543D01*
G37*
X121899675Y-59772543D02*
X121989655Y-59791935D01*
X122070953Y-59819398D01*
X122111721Y-59841924D01*
X122140636Y-59902743D01*
X122126387Y-59999808D01*
X122070504Y-60124030D01*
X122061707Y-60139256D01*
X122019765Y-60223680D01*
X122013266Y-60292685D01*
X122044823Y-60368811D01*
X122097421Y-60447475D01*
X122117052Y-60492587D01*
X122115761Y-60556919D01*
X122092599Y-60658646D01*
X122084942Y-60686197D01*
X122046163Y-60810396D01*
X121998675Y-60943888D01*
X121948090Y-61073084D01*
X121900017Y-61184393D01*
X121860067Y-61264227D01*
X121833850Y-61298997D01*
X121831751Y-61299499D01*
X121792940Y-61279433D01*
X121758289Y-61249481D01*
X121712157Y-61183100D01*
X121725942Y-61134816D01*
X121738710Y-61125295D01*
X121755830Y-61083944D01*
X121750765Y-61058572D01*
X121755088Y-60998770D01*
X121780146Y-60956146D01*
X121855097Y-60846181D01*
X121902589Y-60726973D01*
X121921439Y-60612267D01*
X121910465Y-60515808D01*
X121868482Y-60451342D01*
X121825153Y-60433276D01*
X121779979Y-60421597D01*
X121763643Y-60393403D01*
X121771200Y-60330783D01*
X121782718Y-60279579D01*
X121786267Y-60218561D01*
X121749586Y-60181348D01*
X121707225Y-60162983D01*
X121638119Y-60123403D01*
X121622570Y-60083263D01*
X121835589Y-60083263D01*
X121839379Y-60117135D01*
X121855270Y-60106584D01*
X121890046Y-60045628D01*
X121900148Y-60026316D01*
X121925624Y-59973211D01*
X121917626Y-59967960D01*
X121888545Y-59990426D01*
X121845113Y-60047371D01*
X121835589Y-60083263D01*
X121622570Y-60083263D01*
X121614021Y-60061195D01*
X121612782Y-60030959D01*
X121602595Y-59955956D01*
X121578879Y-59913631D01*
X121567093Y-59879741D01*
X121595166Y-59835914D01*
X121645242Y-59799078D01*
X121699468Y-59786159D01*
X121710933Y-59788439D01*
X121766466Y-59789481D01*
X121784982Y-59776312D01*
X121823841Y-59765808D01*
X121899675Y-59772543D01*
G36*
X121826700Y-62902946D02*
X121918707Y-62923657D01*
X122025269Y-62953654D01*
X122088198Y-62987514D01*
X122126885Y-63038083D01*
X122142473Y-63071908D01*
X122163164Y-63175168D01*
X122162330Y-63314123D01*
X122143058Y-63465759D01*
X122108435Y-63607063D01*
X122061547Y-63715020D01*
X122054845Y-63725215D01*
X122012749Y-63799730D01*
X121994746Y-63859603D01*
X121994737Y-63860491D01*
X121968134Y-63900795D01*
X121931078Y-63909524D01*
X121878129Y-63930864D01*
X121867419Y-63960674D01*
X121885874Y-63996469D01*
X121920021Y-63991638D01*
X121987751Y-63984839D01*
X122065653Y-64001400D01*
X122132105Y-64032939D01*
X122165488Y-64071073D01*
X122164667Y-64086485D01*
X122125023Y-64112096D01*
X122042824Y-64128298D01*
X121938328Y-64134938D01*
X121831795Y-64131862D01*
X121743482Y-64118918D01*
X121693650Y-64095952D01*
X121690058Y-64090076D01*
X121690118Y-64032748D01*
X121712941Y-63954800D01*
X121743910Y-63853081D01*
X121757242Y-63766259D01*
X121792858Y-63661227D01*
X121876081Y-63557103D01*
X121957399Y-63450922D01*
X122008853Y-63333513D01*
X122024540Y-63223731D01*
X122004053Y-63148376D01*
X121956046Y-63111183D01*
X121870121Y-63074250D01*
X121820714Y-63059629D01*
X121720391Y-63033552D01*
X121671162Y-63013981D01*
X121662578Y-62991141D01*
X121684191Y-62955257D01*
X121694336Y-62941396D01*
X121724325Y-62908209D01*
X121762224Y-62895884D01*
X121826700Y-62902946D01*
X121826700Y-62902946D01*
G37*
X121826700Y-62902946D02*
X121918707Y-62923657D01*
X122025269Y-62953654D01*
X122088198Y-62987514D01*
X122126885Y-63038083D01*
X122142473Y-63071908D01*
X122163164Y-63175168D01*
X122162330Y-63314123D01*
X122143058Y-63465759D01*
X122108435Y-63607063D01*
X122061547Y-63715020D01*
X122054845Y-63725215D01*
X122012749Y-63799730D01*
X121994746Y-63859603D01*
X121994737Y-63860491D01*
X121968134Y-63900795D01*
X121931078Y-63909524D01*
X121878129Y-63930864D01*
X121867419Y-63960674D01*
X121885874Y-63996469D01*
X121920021Y-63991638D01*
X121987751Y-63984839D01*
X122065653Y-64001400D01*
X122132105Y-64032939D01*
X122165488Y-64071073D01*
X122164667Y-64086485D01*
X122125023Y-64112096D01*
X122042824Y-64128298D01*
X121938328Y-64134938D01*
X121831795Y-64131862D01*
X121743482Y-64118918D01*
X121693650Y-64095952D01*
X121690058Y-64090076D01*
X121690118Y-64032748D01*
X121712941Y-63954800D01*
X121743910Y-63853081D01*
X121757242Y-63766259D01*
X121792858Y-63661227D01*
X121876081Y-63557103D01*
X121957399Y-63450922D01*
X122008853Y-63333513D01*
X122024540Y-63223731D01*
X122004053Y-63148376D01*
X121956046Y-63111183D01*
X121870121Y-63074250D01*
X121820714Y-63059629D01*
X121720391Y-63033552D01*
X121671162Y-63013981D01*
X121662578Y-62991141D01*
X121684191Y-62955257D01*
X121694336Y-62941396D01*
X121724325Y-62908209D01*
X121762224Y-62895884D01*
X121826700Y-62902946D01*
G36*
X121833155Y-65989259D02*
X121902991Y-66012279D01*
X121941626Y-66043188D01*
X121954192Y-66092845D01*
X121945776Y-66182326D01*
X121945118Y-66186745D01*
X121939516Y-66304879D01*
X121968981Y-66410241D01*
X121991402Y-66456638D01*
X122058776Y-66585896D01*
X121979012Y-66659819D01*
X121917197Y-66753550D01*
X121896242Y-66867064D01*
X121916976Y-66976737D01*
X121965428Y-67047018D01*
X122031608Y-67106910D01*
X121961902Y-67163355D01*
X121891818Y-67205424D01*
X121813476Y-67213248D01*
X121708438Y-67191359D01*
X121648048Y-67158438D01*
X121618298Y-67113208D01*
X121625267Y-67074462D01*
X121666150Y-67060652D01*
X121689322Y-67056060D01*
X121705251Y-67035759D01*
X121715172Y-66989959D01*
X121720322Y-66908875D01*
X121721935Y-66782719D01*
X121721386Y-66622996D01*
X121722297Y-66460471D01*
X121726742Y-66319755D01*
X121734047Y-66213648D01*
X121743538Y-66154947D01*
X121746375Y-66148902D01*
X121750176Y-66120400D01*
X121717360Y-66117072D01*
X121666405Y-66094564D01*
X121650371Y-66050063D01*
X121652687Y-65999973D01*
X121690748Y-65980751D01*
X121739979Y-65978446D01*
X121833155Y-65989259D01*
X121833155Y-65989259D01*
G37*
X121833155Y-65989259D02*
X121902991Y-66012279D01*
X121941626Y-66043188D01*
X121954192Y-66092845D01*
X121945776Y-66182326D01*
X121945118Y-66186745D01*
X121939516Y-66304879D01*
X121968981Y-66410241D01*
X121991402Y-66456638D01*
X122058776Y-66585896D01*
X121979012Y-66659819D01*
X121917197Y-66753550D01*
X121896242Y-66867064D01*
X121916976Y-66976737D01*
X121965428Y-67047018D01*
X122031608Y-67106910D01*
X121961902Y-67163355D01*
X121891818Y-67205424D01*
X121813476Y-67213248D01*
X121708438Y-67191359D01*
X121648048Y-67158438D01*
X121618298Y-67113208D01*
X121625267Y-67074462D01*
X121666150Y-67060652D01*
X121689322Y-67056060D01*
X121705251Y-67035759D01*
X121715172Y-66989959D01*
X121720322Y-66908875D01*
X121721935Y-66782719D01*
X121721386Y-66622996D01*
X121722297Y-66460471D01*
X121726742Y-66319755D01*
X121734047Y-66213648D01*
X121743538Y-66154947D01*
X121746375Y-66148902D01*
X121750176Y-66120400D01*
X121717360Y-66117072D01*
X121666405Y-66094564D01*
X121650371Y-66050063D01*
X121652687Y-65999973D01*
X121690748Y-65980751D01*
X121739979Y-65978446D01*
X121833155Y-65989259D01*
G36*
X117236216Y-62771371D02*
X117294961Y-62780954D01*
X117322486Y-62808477D01*
X117330128Y-62872240D01*
X117330044Y-62922807D01*
X117323143Y-63033531D01*
X117308006Y-63132634D01*
X117302721Y-63153572D01*
X117293164Y-63220988D01*
X117319607Y-63237806D01*
X117383155Y-63204090D01*
X117437303Y-63161529D01*
X117521611Y-63099953D01*
X117572976Y-63089725D01*
X117598205Y-63132468D01*
X117604086Y-63201316D01*
X117609704Y-63264959D01*
X117631373Y-63316987D01*
X117679731Y-63371696D01*
X117765414Y-63443382D01*
X117810010Y-63478077D01*
X117986213Y-63596077D01*
X118160521Y-63670374D01*
X118354932Y-63708235D01*
X118533480Y-63717142D01*
X118663725Y-63722885D01*
X118828723Y-63737040D01*
X119000525Y-63757020D01*
X119069030Y-63766683D01*
X119206302Y-63785206D01*
X119320385Y-63796692D01*
X119396467Y-63799870D01*
X119418862Y-63796687D01*
X119442230Y-63756149D01*
X119463792Y-63677993D01*
X119468163Y-63653727D01*
X119490349Y-63559503D01*
X119519484Y-63487081D01*
X119525171Y-63478235D01*
X119545984Y-63462684D01*
X119564170Y-63485571D01*
X119583365Y-63555448D01*
X119604279Y-63664290D01*
X119622253Y-63787421D01*
X119630526Y-63891910D01*
X119627550Y-63957063D01*
X119626460Y-63960969D01*
X119589695Y-64011807D01*
X119517157Y-64076803D01*
X119462379Y-64116416D01*
X119318179Y-64211905D01*
X119337089Y-64514286D01*
X119343187Y-64694791D01*
X119334729Y-64815622D01*
X119311200Y-64879193D01*
X119272087Y-64887920D01*
X119258989Y-64881312D01*
X119220224Y-64835957D01*
X119190719Y-64776906D01*
X119159800Y-64695584D01*
X119062610Y-64827742D01*
X118994078Y-64910114D01*
X118933896Y-64949616D01*
X118861125Y-64959898D01*
X118859884Y-64959900D01*
X118781744Y-64949812D01*
X118738792Y-64906941D01*
X118720157Y-64861820D01*
X118677559Y-64693708D01*
X118661677Y-64523754D01*
X118674246Y-64376948D01*
X118684001Y-64340618D01*
X118707939Y-64247218D01*
X118699826Y-64208703D01*
X118659490Y-64224858D01*
X118620013Y-64260438D01*
X118550260Y-64330191D01*
X118461241Y-64264377D01*
X118372222Y-64198562D01*
X118324916Y-64268893D01*
X118277609Y-64339223D01*
X118200475Y-64267607D01*
X118121023Y-64214410D01*
X118027462Y-64198727D01*
X117902690Y-64218887D01*
X117850710Y-64233433D01*
X117737805Y-64297734D01*
X117665971Y-64410581D01*
X117635308Y-64571797D01*
X117634085Y-64618327D01*
X117624256Y-64705139D01*
X117597909Y-64831017D01*
X117559754Y-64975011D01*
X117537477Y-65048017D01*
X117493912Y-65186854D01*
X117468902Y-65279535D01*
X117460817Y-65340281D01*
X117468028Y-65383311D01*
X117488907Y-65422844D01*
X117493694Y-65430234D01*
X117523237Y-65487199D01*
X117530697Y-65548783D01*
X117517501Y-65639006D01*
X117508554Y-65680513D01*
X117490664Y-65780374D01*
X117485292Y-65855572D01*
X117489737Y-65881153D01*
X117493910Y-65924063D01*
X117490196Y-66015036D01*
X117480028Y-66139162D01*
X117464842Y-66281533D01*
X117446072Y-66427239D01*
X117425155Y-66561370D01*
X117423208Y-66572407D01*
X117417876Y-66618680D01*
X117426777Y-66657120D01*
X117458681Y-66697352D01*
X117522356Y-66748997D01*
X117626572Y-66821681D01*
X117688274Y-66863306D01*
X117826267Y-66960008D01*
X117962808Y-67062329D01*
X118077344Y-67154593D01*
X118122894Y-67194794D01*
X118239367Y-67292535D01*
X118374974Y-67391288D01*
X118455609Y-67442773D01*
X118609107Y-67534697D01*
X118715704Y-67604727D01*
X118783923Y-67662286D01*
X118822288Y-67716795D01*
X118839323Y-67777675D01*
X118843550Y-67854347D01*
X118843609Y-67871652D01*
X118829455Y-68006670D01*
X118789792Y-68099469D01*
X118728822Y-68141343D01*
X118712749Y-68142857D01*
X118628193Y-68119681D01*
X118507326Y-68053143D01*
X118355826Y-67947732D01*
X118179369Y-67807935D01*
X117983634Y-67638239D01*
X117774297Y-67443132D01*
X117566650Y-67236951D01*
X117455740Y-67125912D01*
X117380112Y-67057154D01*
X117332686Y-67025441D01*
X117306383Y-67025538D01*
X117297955Y-67038262D01*
X117299222Y-67103845D01*
X117329927Y-67173810D01*
X117370022Y-67222827D01*
X117448267Y-67308385D01*
X117557010Y-67422811D01*
X117688602Y-67558432D01*
X117835391Y-67707577D01*
X117989726Y-67862573D01*
X118143957Y-68015747D01*
X118290433Y-68159426D01*
X118421503Y-68285938D01*
X118529516Y-68387611D01*
X118606822Y-68456771D01*
X118620802Y-68468363D01*
X118746167Y-68598665D01*
X118860151Y-68769912D01*
X118952819Y-68961779D01*
X119014232Y-69153941D01*
X119034587Y-69314686D01*
X119034587Y-69479699D01*
X118782388Y-69479699D01*
X118651709Y-69477696D01*
X118563318Y-69467901D01*
X118495881Y-69444637D01*
X118428063Y-69402227D01*
X118392476Y-69375941D01*
X118295020Y-69304393D01*
X118202963Y-69239805D01*
X118167231Y-69216060D01*
X118097514Y-69152330D01*
X118088029Y-69085080D01*
X118139120Y-69008410D01*
X118181611Y-68969556D01*
X118283523Y-68884476D01*
X118157739Y-68692156D01*
X118061381Y-68552040D01*
X117940088Y-68386618D01*
X117802092Y-68206075D01*
X117655626Y-68020594D01*
X117508923Y-67840360D01*
X117370216Y-67675557D01*
X117247737Y-67536369D01*
X117149721Y-67432979D01*
X117108989Y-67394862D01*
X116981769Y-67253857D01*
X116862055Y-67061921D01*
X116756722Y-66831779D01*
X116678955Y-66599123D01*
X116628481Y-66380896D01*
X116609432Y-66183562D01*
X116621984Y-65984127D01*
X116666314Y-65759597D01*
X116685955Y-65683461D01*
X116724092Y-65535539D01*
X116745396Y-65430906D01*
X116751587Y-65351954D01*
X116744385Y-65281076D01*
X116731053Y-65221932D01*
X116712859Y-65131486D01*
X116710814Y-65046979D01*
X116726207Y-64944731D01*
X116752185Y-64833267D01*
X116811736Y-64595230D01*
X116681012Y-64473292D01*
X116607313Y-64409155D01*
X116546011Y-64376054D01*
X116480435Y-64373815D01*
X116393912Y-64402265D01*
X116269770Y-64461230D01*
X116254519Y-64468861D01*
X116164898Y-64511927D01*
X116099434Y-64539972D01*
X116078737Y-64546115D01*
X116051409Y-64520814D01*
X116009986Y-64457789D01*
X115997088Y-64434712D01*
X115953567Y-64364161D01*
X115919087Y-64325695D01*
X115912805Y-64323308D01*
X115889649Y-64295959D01*
X115868066Y-64230197D01*
X115868054Y-64230143D01*
X115872313Y-64110738D01*
X115929191Y-63989294D01*
X116030588Y-63882889D01*
X116034013Y-63880274D01*
X116124456Y-63811565D01*
X116215272Y-63742187D01*
X116307594Y-63665379D01*
X116424568Y-63559274D01*
X116555820Y-63434279D01*
X116690978Y-63300800D01*
X116819667Y-63169244D01*
X116931515Y-63050017D01*
X117016148Y-62953525D01*
X117061153Y-62893619D01*
X117116928Y-62812853D01*
X117166145Y-62776459D01*
X117228385Y-62770766D01*
X117236216Y-62771371D01*
X117236216Y-62771371D01*
G37*
X117236216Y-62771371D02*
X117294961Y-62780954D01*
X117322486Y-62808477D01*
X117330128Y-62872240D01*
X117330044Y-62922807D01*
X117323143Y-63033531D01*
X117308006Y-63132634D01*
X117302721Y-63153572D01*
X117293164Y-63220988D01*
X117319607Y-63237806D01*
X117383155Y-63204090D01*
X117437303Y-63161529D01*
X117521611Y-63099953D01*
X117572976Y-63089725D01*
X117598205Y-63132468D01*
X117604086Y-63201316D01*
X117609704Y-63264959D01*
X117631373Y-63316987D01*
X117679731Y-63371696D01*
X117765414Y-63443382D01*
X117810010Y-63478077D01*
X117986213Y-63596077D01*
X118160521Y-63670374D01*
X118354932Y-63708235D01*
X118533480Y-63717142D01*
X118663725Y-63722885D01*
X118828723Y-63737040D01*
X119000525Y-63757020D01*
X119069030Y-63766683D01*
X119206302Y-63785206D01*
X119320385Y-63796692D01*
X119396467Y-63799870D01*
X119418862Y-63796687D01*
X119442230Y-63756149D01*
X119463792Y-63677993D01*
X119468163Y-63653727D01*
X119490349Y-63559503D01*
X119519484Y-63487081D01*
X119525171Y-63478235D01*
X119545984Y-63462684D01*
X119564170Y-63485571D01*
X119583365Y-63555448D01*
X119604279Y-63664290D01*
X119622253Y-63787421D01*
X119630526Y-63891910D01*
X119627550Y-63957063D01*
X119626460Y-63960969D01*
X119589695Y-64011807D01*
X119517157Y-64076803D01*
X119462379Y-64116416D01*
X119318179Y-64211905D01*
X119337089Y-64514286D01*
X119343187Y-64694791D01*
X119334729Y-64815622D01*
X119311200Y-64879193D01*
X119272087Y-64887920D01*
X119258989Y-64881312D01*
X119220224Y-64835957D01*
X119190719Y-64776906D01*
X119159800Y-64695584D01*
X119062610Y-64827742D01*
X118994078Y-64910114D01*
X118933896Y-64949616D01*
X118861125Y-64959898D01*
X118859884Y-64959900D01*
X118781744Y-64949812D01*
X118738792Y-64906941D01*
X118720157Y-64861820D01*
X118677559Y-64693708D01*
X118661677Y-64523754D01*
X118674246Y-64376948D01*
X118684001Y-64340618D01*
X118707939Y-64247218D01*
X118699826Y-64208703D01*
X118659490Y-64224858D01*
X118620013Y-64260438D01*
X118550260Y-64330191D01*
X118461241Y-64264377D01*
X118372222Y-64198562D01*
X118324916Y-64268893D01*
X118277609Y-64339223D01*
X118200475Y-64267607D01*
X118121023Y-64214410D01*
X118027462Y-64198727D01*
X117902690Y-64218887D01*
X117850710Y-64233433D01*
X117737805Y-64297734D01*
X117665971Y-64410581D01*
X117635308Y-64571797D01*
X117634085Y-64618327D01*
X117624256Y-64705139D01*
X117597909Y-64831017D01*
X117559754Y-64975011D01*
X117537477Y-65048017D01*
X117493912Y-65186854D01*
X117468902Y-65279535D01*
X117460817Y-65340281D01*
X117468028Y-65383311D01*
X117488907Y-65422844D01*
X117493694Y-65430234D01*
X117523237Y-65487199D01*
X117530697Y-65548783D01*
X117517501Y-65639006D01*
X117508554Y-65680513D01*
X117490664Y-65780374D01*
X117485292Y-65855572D01*
X117489737Y-65881153D01*
X117493910Y-65924063D01*
X117490196Y-66015036D01*
X117480028Y-66139162D01*
X117464842Y-66281533D01*
X117446072Y-66427239D01*
X117425155Y-66561370D01*
X117423208Y-66572407D01*
X117417876Y-66618680D01*
X117426777Y-66657120D01*
X117458681Y-66697352D01*
X117522356Y-66748997D01*
X117626572Y-66821681D01*
X117688274Y-66863306D01*
X117826267Y-66960008D01*
X117962808Y-67062329D01*
X118077344Y-67154593D01*
X118122894Y-67194794D01*
X118239367Y-67292535D01*
X118374974Y-67391288D01*
X118455609Y-67442773D01*
X118609107Y-67534697D01*
X118715704Y-67604727D01*
X118783923Y-67662286D01*
X118822288Y-67716795D01*
X118839323Y-67777675D01*
X118843550Y-67854347D01*
X118843609Y-67871652D01*
X118829455Y-68006670D01*
X118789792Y-68099469D01*
X118728822Y-68141343D01*
X118712749Y-68142857D01*
X118628193Y-68119681D01*
X118507326Y-68053143D01*
X118355826Y-67947732D01*
X118179369Y-67807935D01*
X117983634Y-67638239D01*
X117774297Y-67443132D01*
X117566650Y-67236951D01*
X117455740Y-67125912D01*
X117380112Y-67057154D01*
X117332686Y-67025441D01*
X117306383Y-67025538D01*
X117297955Y-67038262D01*
X117299222Y-67103845D01*
X117329927Y-67173810D01*
X117370022Y-67222827D01*
X117448267Y-67308385D01*
X117557010Y-67422811D01*
X117688602Y-67558432D01*
X117835391Y-67707577D01*
X117989726Y-67862573D01*
X118143957Y-68015747D01*
X118290433Y-68159426D01*
X118421503Y-68285938D01*
X118529516Y-68387611D01*
X118606822Y-68456771D01*
X118620802Y-68468363D01*
X118746167Y-68598665D01*
X118860151Y-68769912D01*
X118952819Y-68961779D01*
X119014232Y-69153941D01*
X119034587Y-69314686D01*
X119034587Y-69479699D01*
X118782388Y-69479699D01*
X118651709Y-69477696D01*
X118563318Y-69467901D01*
X118495881Y-69444637D01*
X118428063Y-69402227D01*
X118392476Y-69375941D01*
X118295020Y-69304393D01*
X118202963Y-69239805D01*
X118167231Y-69216060D01*
X118097514Y-69152330D01*
X118088029Y-69085080D01*
X118139120Y-69008410D01*
X118181611Y-68969556D01*
X118283523Y-68884476D01*
X118157739Y-68692156D01*
X118061381Y-68552040D01*
X117940088Y-68386618D01*
X117802092Y-68206075D01*
X117655626Y-68020594D01*
X117508923Y-67840360D01*
X117370216Y-67675557D01*
X117247737Y-67536369D01*
X117149721Y-67432979D01*
X117108989Y-67394862D01*
X116981769Y-67253857D01*
X116862055Y-67061921D01*
X116756722Y-66831779D01*
X116678955Y-66599123D01*
X116628481Y-66380896D01*
X116609432Y-66183562D01*
X116621984Y-65984127D01*
X116666314Y-65759597D01*
X116685955Y-65683461D01*
X116724092Y-65535539D01*
X116745396Y-65430906D01*
X116751587Y-65351954D01*
X116744385Y-65281076D01*
X116731053Y-65221932D01*
X116712859Y-65131486D01*
X116710814Y-65046979D01*
X116726207Y-64944731D01*
X116752185Y-64833267D01*
X116811736Y-64595230D01*
X116681012Y-64473292D01*
X116607313Y-64409155D01*
X116546011Y-64376054D01*
X116480435Y-64373815D01*
X116393912Y-64402265D01*
X116269770Y-64461230D01*
X116254519Y-64468861D01*
X116164898Y-64511927D01*
X116099434Y-64539972D01*
X116078737Y-64546115D01*
X116051409Y-64520814D01*
X116009986Y-64457789D01*
X115997088Y-64434712D01*
X115953567Y-64364161D01*
X115919087Y-64325695D01*
X115912805Y-64323308D01*
X115889649Y-64295959D01*
X115868066Y-64230197D01*
X115868054Y-64230143D01*
X115872313Y-64110738D01*
X115929191Y-63989294D01*
X116030588Y-63882889D01*
X116034013Y-63880274D01*
X116124456Y-63811565D01*
X116215272Y-63742187D01*
X116307594Y-63665379D01*
X116424568Y-63559274D01*
X116555820Y-63434279D01*
X116690978Y-63300800D01*
X116819667Y-63169244D01*
X116931515Y-63050017D01*
X117016148Y-62953525D01*
X117061153Y-62893619D01*
X117116928Y-62812853D01*
X117166145Y-62776459D01*
X117228385Y-62770766D01*
X117236216Y-62771371D01*
G04 #@! TD*
M02*
