G04 #@! TF.GenerationSoftware,KiCad,Pcbnew,(5.0.0)*
G04 #@! TF.CreationDate,2018-12-13T13:47:45+00:00*
G04 #@! TF.ProjectId,LoraThing,4C6F72615468696E672E6B696361645F,rev?*
G04 #@! TF.SameCoordinates,Original*
G04 #@! TF.FileFunction,Paste,Top*
G04 #@! TF.FilePolarity,Positive*
%FSLAX46Y46*%
G04 Gerber Fmt 4.6, Leading zero omitted, Abs format (unit mm)*
G04 Created by KiCad (PCBNEW (5.0.0)) date 12/13/18 13:47:45*
%MOMM*%
%LPD*%
G01*
G04 APERTURE LIST*
%ADD10R,0.800000X0.800000*%
%ADD11R,0.750000X0.800000*%
%ADD12R,0.500000X0.900000*%
%ADD13R,0.900000X0.500000*%
%ADD14R,0.900000X0.800000*%
%ADD15R,1.000000X2.000000*%
%ADD16R,0.900000X0.400000*%
G04 APERTURE END LIST*
D10*
G04 #@! TO.C,D7*
X133000000Y-48200000D03*
X133000000Y-49800000D03*
G04 #@! TD*
D11*
G04 #@! TO.C,C1*
X119000000Y-48250000D03*
X119000000Y-49750000D03*
G04 #@! TD*
G04 #@! TO.C,C2*
X125000000Y-48250000D03*
X125000000Y-49750000D03*
G04 #@! TD*
G04 #@! TO.C,C3*
X129000000Y-49750000D03*
X129000000Y-48250000D03*
G04 #@! TD*
G04 #@! TO.C,C4*
X127000000Y-48250000D03*
X127000000Y-49750000D03*
G04 #@! TD*
D10*
G04 #@! TO.C,D1*
X122800000Y-68000000D03*
X121200000Y-68000000D03*
G04 #@! TD*
G04 #@! TO.C,D2*
X121200000Y-65000000D03*
X122800000Y-65000000D03*
G04 #@! TD*
G04 #@! TO.C,D3*
X122600000Y-62000000D03*
X121000000Y-62000000D03*
G04 #@! TD*
G04 #@! TO.C,D4*
X121200000Y-59000000D03*
X122800000Y-59000000D03*
G04 #@! TD*
G04 #@! TO.C,D5*
X122800000Y-56000000D03*
X121200000Y-56000000D03*
G04 #@! TD*
G04 #@! TO.C,D6*
X121200000Y-53000000D03*
X122800000Y-53000000D03*
G04 #@! TD*
D12*
G04 #@! TO.C,R1*
X125750000Y-68000000D03*
X124250000Y-68000000D03*
G04 #@! TD*
G04 #@! TO.C,R2*
X124250000Y-65000000D03*
X125750000Y-65000000D03*
G04 #@! TD*
G04 #@! TO.C,R3*
X125750000Y-62000000D03*
X124250000Y-62000000D03*
G04 #@! TD*
G04 #@! TO.C,R4*
X125750000Y-59000000D03*
X124250000Y-59000000D03*
G04 #@! TD*
G04 #@! TO.C,R5*
X124250000Y-56000000D03*
X125750000Y-56000000D03*
G04 #@! TD*
G04 #@! TO.C,R6*
X125750000Y-53000000D03*
X124250000Y-53000000D03*
G04 #@! TD*
D13*
G04 #@! TO.C,R7*
X131000000Y-49750000D03*
X131000000Y-48250000D03*
G04 #@! TD*
G04 #@! TO.C,R8*
X115000000Y-49750000D03*
X115000000Y-48250000D03*
G04 #@! TD*
D14*
G04 #@! TO.C,U1*
X121000000Y-49000000D03*
X123000000Y-48050000D03*
X123000000Y-49950000D03*
G04 #@! TD*
D15*
G04 #@! TO.C,U2*
X133000000Y-45000000D03*
X131000000Y-45000000D03*
X129000000Y-45000000D03*
X127000000Y-45000000D03*
X125000000Y-45000000D03*
X123000000Y-45000000D03*
X121000000Y-45000000D03*
X119000000Y-45000000D03*
X119000000Y-29000000D03*
X121000000Y-29000000D03*
X123000000Y-29000000D03*
X125000000Y-29000000D03*
X127000000Y-29000000D03*
X129000000Y-29000000D03*
X131000000Y-29000000D03*
X133000000Y-29000000D03*
G04 #@! TD*
D16*
G04 #@! TO.C,RN1*
X117150000Y-58800000D03*
X117150000Y-59600000D03*
X117150000Y-60400000D03*
X117150000Y-61200000D03*
X118850000Y-58800000D03*
X118850000Y-61200000D03*
X118850000Y-59600000D03*
X118850000Y-60400000D03*
G04 #@! TD*
G04 #@! TO.C,RN2*
X129850000Y-64400000D03*
X129850000Y-63600000D03*
X129850000Y-65200000D03*
X129850000Y-62800000D03*
X128150000Y-65200000D03*
X128150000Y-64400000D03*
X128150000Y-63600000D03*
X128150000Y-62800000D03*
G04 #@! TD*
G04 #@! TO.C,RN3*
X128150000Y-55800000D03*
X128150000Y-56600000D03*
X128150000Y-57400000D03*
X128150000Y-58200000D03*
X129850000Y-55800000D03*
X129850000Y-58200000D03*
X129850000Y-56600000D03*
X129850000Y-57400000D03*
G04 #@! TD*
M02*
