G04 #@! TF.GenerationSoftware,KiCad,Pcbnew,(5.0.0)*
G04 #@! TF.CreationDate,2018-12-13T13:47:45+00:00*
G04 #@! TF.ProjectId,LoraThing,4C6F72615468696E672E6B696361645F,rev?*
G04 #@! TF.SameCoordinates,Original*
G04 #@! TF.FileFunction,Copper,L2,Bot,Signal*
G04 #@! TF.FilePolarity,Positive*
%FSLAX46Y46*%
G04 Gerber Fmt 4.6, Leading zero omitted, Abs format (unit mm)*
G04 Created by KiCad (PCBNEW (5.0.0)) date 12/13/18 13:47:45*
%MOMM*%
%LPD*%
G01*
G04 APERTURE LIST*
G04 #@! TA.AperFunction,ComponentPad*
%ADD10R,1.700000X1.700000*%
G04 #@! TD*
G04 #@! TA.AperFunction,ComponentPad*
%ADD11O,1.700000X1.700000*%
G04 #@! TD*
G04 #@! TA.AperFunction,SMDPad,CuDef*
%ADD12C,1.000000*%
G04 #@! TD*
G04 #@! TA.AperFunction,Conductor*
%ADD13C,0.100000*%
G04 #@! TD*
G04 #@! TA.AperFunction,SMDPad,CuDef*
%ADD14R,1.000000X1.500000*%
G04 #@! TD*
G04 #@! TA.AperFunction,ViaPad*
%ADD15C,0.800000*%
G04 #@! TD*
G04 #@! TA.AperFunction,Conductor*
%ADD16C,0.250000*%
G04 #@! TD*
G04 #@! TA.AperFunction,Conductor*
%ADD17C,0.254000*%
G04 #@! TD*
G04 APERTURE END LIST*
D10*
G04 #@! TO.P,J2,1*
G04 #@! TO.N,/EXT_GPIO1*
X133620000Y-68580000D03*
D11*
G04 #@! TO.P,J2,2*
G04 #@! TO.N,/EXT_GPIO2*
X133620000Y-66040000D03*
G04 #@! TO.P,J2,3*
G04 #@! TO.N,/EXT_GPIO3*
X133620000Y-63500000D03*
G04 #@! TO.P,J2,4*
G04 #@! TO.N,/EXT_GPIO4*
X133620000Y-60960000D03*
G04 #@! TO.P,J2,5*
G04 #@! TO.N,/EXT_GPIO5*
X133620000Y-58420000D03*
G04 #@! TO.P,J2,6*
G04 #@! TO.N,/EXT_GPIO6*
X133620000Y-55880000D03*
G04 #@! TO.P,J2,7*
G04 #@! TO.N,GND*
X133620000Y-53340000D03*
G04 #@! TD*
D10*
G04 #@! TO.P,J1,1*
G04 #@! TO.N,VCC*
X113300000Y-68580000D03*
D11*
G04 #@! TO.P,J1,2*
G04 #@! TO.N,/SPI_EXT_SCK*
X113300000Y-66040000D03*
G04 #@! TO.P,J1,3*
G04 #@! TO.N,/SPI_EXT_MOSI*
X113300000Y-63500000D03*
G04 #@! TO.P,J1,4*
G04 #@! TO.N,/SPI_EXT_MISO*
X113300000Y-60960000D03*
G04 #@! TO.P,J1,5*
G04 #@! TO.N,/SPI_EXT_CS*
X113300000Y-58420000D03*
G04 #@! TO.P,J1,6*
G04 #@! TO.N,/RESET*
X113300000Y-55880000D03*
G04 #@! TO.P,J1,7*
G04 #@! TO.N,GND*
X113300000Y-53340000D03*
G04 #@! TD*
D10*
G04 #@! TO.P,J3,1*
G04 #@! TO.N,/ANTENNA*
X115000000Y-45000000D03*
G04 #@! TD*
D12*
G04 #@! TO.P,JP1,1*
G04 #@! TO.N,/GPIO1*
X124350000Y-68000000D03*
D13*
G04 #@! TD*
G04 #@! TO.N,/GPIO1*
G04 #@! TO.C,JP1*
G36*
X124850000Y-67700000D02*
X125250000Y-67700000D01*
X125250000Y-68300000D01*
X124850000Y-68300000D01*
X124850000Y-68750000D01*
X123850000Y-68750000D01*
X123850000Y-67250000D01*
X124850000Y-67250000D01*
X124850000Y-67700000D01*
X124850000Y-67700000D01*
G37*
D14*
G04 #@! TO.P,JP1,2*
G04 #@! TO.N,Net-(JP1-Pad2)*
X125650000Y-68000000D03*
G04 #@! TD*
G04 #@! TO.P,JP2,2*
G04 #@! TO.N,Net-(JP2-Pad2)*
X125650000Y-65000000D03*
D12*
G04 #@! TO.P,JP2,1*
G04 #@! TO.N,/GPIO2*
X124350000Y-65000000D03*
D13*
G04 #@! TD*
G04 #@! TO.N,/GPIO2*
G04 #@! TO.C,JP2*
G36*
X124850000Y-64700000D02*
X125250000Y-64700000D01*
X125250000Y-65300000D01*
X124850000Y-65300000D01*
X124850000Y-65750000D01*
X123850000Y-65750000D01*
X123850000Y-64250000D01*
X124850000Y-64250000D01*
X124850000Y-64700000D01*
X124850000Y-64700000D01*
G37*
D14*
G04 #@! TO.P,eJP3,2*
G04 #@! TO.N,Net-(JP3-Pad2)*
X125650000Y-62000000D03*
D12*
G04 #@! TO.P,eJP3,1*
G04 #@! TO.N,/GPIO3*
X124350000Y-62000000D03*
D13*
G04 #@! TD*
G04 #@! TO.N,/GPIO3*
G04 #@! TO.C,eJP3*
G36*
X124850000Y-61700000D02*
X125250000Y-61700000D01*
X125250000Y-62300000D01*
X124850000Y-62300000D01*
X124850000Y-62750000D01*
X123850000Y-62750000D01*
X123850000Y-61250000D01*
X124850000Y-61250000D01*
X124850000Y-61700000D01*
X124850000Y-61700000D01*
G37*
D12*
G04 #@! TO.P,JP4,1*
G04 #@! TO.N,/GPIO4*
X124350000Y-59000000D03*
D13*
G04 #@! TD*
G04 #@! TO.N,/GPIO4*
G04 #@! TO.C,JP4*
G36*
X124850000Y-58700000D02*
X125250000Y-58700000D01*
X125250000Y-59300000D01*
X124850000Y-59300000D01*
X124850000Y-59750000D01*
X123850000Y-59750000D01*
X123850000Y-58250000D01*
X124850000Y-58250000D01*
X124850000Y-58700000D01*
X124850000Y-58700000D01*
G37*
D14*
G04 #@! TO.P,JP4,2*
G04 #@! TO.N,Net-(JP4-Pad2)*
X125650000Y-59000000D03*
G04 #@! TD*
G04 #@! TO.P,JP5,2*
G04 #@! TO.N,Net-(JP5-Pad2)*
X125650000Y-56000000D03*
D12*
G04 #@! TO.P,JP5,1*
G04 #@! TO.N,/GPIO5*
X124350000Y-56000000D03*
D13*
G04 #@! TD*
G04 #@! TO.N,/GPIO5*
G04 #@! TO.C,JP5*
G36*
X124850000Y-55700000D02*
X125250000Y-55700000D01*
X125250000Y-56300000D01*
X124850000Y-56300000D01*
X124850000Y-56750000D01*
X123850000Y-56750000D01*
X123850000Y-55250000D01*
X124850000Y-55250000D01*
X124850000Y-55700000D01*
X124850000Y-55700000D01*
G37*
D12*
G04 #@! TO.P,JP6,1*
G04 #@! TO.N,/GPIO6*
X124350000Y-53000000D03*
D13*
G04 #@! TD*
G04 #@! TO.N,/GPIO6*
G04 #@! TO.C,JP6*
G36*
X124850000Y-52700000D02*
X125250000Y-52700000D01*
X125250000Y-53300000D01*
X124850000Y-53300000D01*
X124850000Y-53750000D01*
X123850000Y-53750000D01*
X123850000Y-52250000D01*
X124850000Y-52250000D01*
X124850000Y-52700000D01*
X124850000Y-52700000D01*
G37*
D14*
G04 #@! TO.P,JP6,2*
G04 #@! TO.N,Net-(JP6-Pad2)*
X125650000Y-53000000D03*
G04 #@! TD*
D15*
G04 #@! TO.N,GND*
X117000000Y-44000000D03*
X117000000Y-43000000D03*
X116000000Y-43000000D03*
X115000000Y-43000000D03*
X114000000Y-43000000D03*
X113000000Y-43000000D03*
X113000000Y-44000000D03*
X113000000Y-45000000D03*
X113000000Y-46000000D03*
X113000000Y-47000000D03*
X114000000Y-47000000D03*
X115000000Y-47000000D03*
X116000000Y-47000000D03*
X117000000Y-47000000D03*
X117000000Y-46000000D03*
X117750000Y-43500000D03*
X117750000Y-46500000D03*
X117500000Y-41500000D03*
X120000000Y-37500000D03*
X127000000Y-38500000D03*
X132500000Y-38500000D03*
X131000000Y-52000000D03*
X117500000Y-52000000D03*
X119000000Y-66500000D03*
G04 #@! TO.N,VCC*
X118750000Y-54000000D03*
G04 #@! TO.N,/RESET*
X123000000Y-32000000D03*
X116500000Y-49750000D03*
G04 #@! TO.N,/EXT_GPIO1*
X129000000Y-67250000D03*
G04 #@! TO.N,/EXT_GPIO4*
X129000000Y-61000000D03*
G04 #@! TO.N,/GPIO1*
X131250000Y-65750000D03*
X129000000Y-42750000D03*
G04 #@! TO.N,Net-(JP1-Pad2)*
X125750000Y-68000000D03*
G04 #@! TO.N,Net-(JP2-Pad2)*
X125750000Y-65000000D03*
G04 #@! TO.N,/GPIO2*
X131250000Y-64500000D03*
X131000000Y-42750000D03*
G04 #@! TO.N,Net-(JP3-Pad2)*
X125750000Y-62000000D03*
G04 #@! TO.N,/GPIO3*
X131250000Y-63500000D03*
X133000000Y-42750000D03*
G04 #@! TO.N,/GPIO4*
X131250000Y-62500000D03*
X123000000Y-42750000D03*
G04 #@! TO.N,Net-(JP4-Pad2)*
X125750000Y-59000000D03*
G04 #@! TO.N,Net-(JP5-Pad2)*
X125750000Y-56000000D03*
G04 #@! TO.N,/GPIO5*
X131250000Y-58500000D03*
X125000000Y-42750000D03*
G04 #@! TO.N,/GPIO6*
X121000000Y-30750000D03*
X131250000Y-57400000D03*
G04 #@! TO.N,Net-(JP6-Pad2)*
X125750000Y-53000000D03*
G04 #@! TO.N,/SPI_CS*
X118750000Y-57750000D03*
X125000000Y-32000000D03*
G04 #@! TO.N,/SPI_MISO*
X120000000Y-59500000D03*
X131000000Y-32000000D03*
G04 #@! TO.N,/SPI_MOSI*
X120000000Y-60500000D03*
X129000000Y-32000000D03*
G04 #@! TO.N,/SPI_SCK*
X118750000Y-62250000D03*
X127000000Y-32000000D03*
G04 #@! TD*
D16*
G04 #@! TO.N,VCC*
X118750000Y-54000000D02*
X118750000Y-54000000D01*
X118000000Y-54750000D02*
X118750000Y-54000000D01*
X118000000Y-65980000D02*
X118000000Y-54750000D01*
X113300000Y-68580000D02*
X115400000Y-68580000D01*
X115400000Y-68580000D02*
X118000000Y-65980000D01*
G04 #@! TO.N,/RESET*
X123000000Y-32000000D02*
X119000000Y-36000000D01*
X119000000Y-36000000D02*
X119000000Y-47250000D01*
X119000000Y-47250000D02*
X116500000Y-49750000D01*
X116500000Y-49750000D02*
X116500000Y-49750000D01*
G04 #@! TO.N,/EXT_GPIO1*
X130330000Y-68580000D02*
X133620000Y-68580000D01*
X129000000Y-67250000D02*
X130330000Y-68580000D01*
G04 #@! TO.N,/EXT_GPIO4*
X129000000Y-61000000D02*
X129620000Y-60380000D01*
X129620000Y-60380000D02*
X132630000Y-60380000D01*
X133210000Y-60960000D02*
X133620000Y-60960000D01*
X132630000Y-60380000D02*
X133210000Y-60960000D01*
G04 #@! TO.N,/GPIO1*
X124350000Y-68850000D02*
X125000000Y-69500000D01*
X124350000Y-68000000D02*
X124350000Y-68850000D01*
X125000000Y-69500000D02*
X126500000Y-69500000D01*
X127000000Y-69000000D02*
X127000000Y-67000000D01*
X126500000Y-69500000D02*
X127000000Y-69000000D01*
X128250000Y-65750000D02*
X131250000Y-65750000D01*
X127000000Y-67000000D02*
X128250000Y-65750000D01*
X129000000Y-46500000D02*
X129000000Y-42750000D01*
X127000000Y-48500000D02*
X129000000Y-46500000D01*
X123074980Y-66724980D02*
X123074980Y-62074980D01*
X124350000Y-68000000D02*
X123074980Y-66724980D01*
X123074980Y-62074980D02*
X121500000Y-60500000D01*
X121500000Y-60500000D02*
X121500000Y-51504340D01*
X121500000Y-51504340D02*
X124504340Y-48500000D01*
X124504340Y-48500000D02*
X127000000Y-48500000D01*
G04 #@! TO.N,/GPIO2*
X124350000Y-65000000D02*
X124350000Y-66350000D01*
X124350000Y-66350000D02*
X124500000Y-66500000D01*
X124500000Y-66500000D02*
X126500000Y-66500000D01*
X126500000Y-66500000D02*
X128500000Y-64500000D01*
X128500000Y-64500000D02*
X131250000Y-64500000D01*
X131250000Y-64500000D02*
X131250000Y-64500000D01*
X123524990Y-64174990D02*
X123524990Y-61811400D01*
X124350000Y-65000000D02*
X123524990Y-64174990D01*
X123524990Y-61811400D02*
X122000000Y-60286410D01*
X122000000Y-60286410D02*
X122000000Y-51640750D01*
X122000000Y-51640750D02*
X124640750Y-49000000D01*
X131000000Y-43315685D02*
X131000000Y-42750000D01*
X131000000Y-45136410D02*
X131000000Y-43315685D01*
X127136410Y-49000000D02*
X131000000Y-45136410D01*
X124640750Y-49000000D02*
X127136410Y-49000000D01*
G04 #@! TO.N,/GPIO3*
X124350000Y-62000000D02*
X124350000Y-62850000D01*
X125000000Y-63500000D02*
X131250000Y-63500000D01*
X124350000Y-62850000D02*
X125000000Y-63500000D01*
X124350000Y-62000000D02*
X122500000Y-60150000D01*
X122500000Y-51777160D02*
X124777160Y-49500000D01*
X122500000Y-60150000D02*
X122500000Y-51777160D01*
X133000000Y-43315685D02*
X133000000Y-42750000D01*
X133000000Y-43772820D02*
X133000000Y-43315685D01*
X127272820Y-49500000D02*
X133000000Y-43772820D01*
X124777160Y-49500000D02*
X127272820Y-49500000D01*
G04 #@! TO.N,/GPIO4*
X124350000Y-59850000D02*
X125000000Y-60500000D01*
X124350000Y-59000000D02*
X124350000Y-59850000D01*
X125000000Y-60500000D02*
X126750000Y-60500000D01*
X126750000Y-60500000D02*
X128750000Y-62500000D01*
X128750000Y-62500000D02*
X131250000Y-62500000D01*
X124350000Y-59000000D02*
X123000000Y-57650000D01*
X123000000Y-52500000D02*
X123000000Y-52250000D01*
X123000000Y-57650000D02*
X123000000Y-52500000D01*
X124000000Y-43750000D02*
X123000000Y-42750000D01*
X125073002Y-43750000D02*
X124000000Y-43750000D01*
X127073002Y-41750000D02*
X125073002Y-43750000D01*
X133750000Y-41750000D02*
X127073002Y-41750000D01*
X123000000Y-51913570D02*
X124913570Y-50000000D01*
X124913570Y-50000000D02*
X127409230Y-50000000D01*
X123000000Y-52500000D02*
X123000000Y-51913570D01*
X127409230Y-50000000D02*
X134000000Y-43409230D01*
X134000000Y-43409230D02*
X134000000Y-42000000D01*
X134000000Y-42000000D02*
X133750000Y-41750000D01*
G04 #@! TO.N,/GPIO5*
X130684315Y-58500000D02*
X129684315Y-57500000D01*
X131250000Y-58500000D02*
X130684315Y-58500000D01*
X124350000Y-56850000D02*
X124350000Y-56000000D01*
X125000000Y-57500000D02*
X124350000Y-56850000D01*
X129684315Y-57500000D02*
X125000000Y-57500000D01*
X133886410Y-41250000D02*
X126500000Y-41250000D01*
X134450009Y-41813599D02*
X133886410Y-41250000D01*
X123524990Y-55174990D02*
X123524990Y-52024990D01*
X126500000Y-41250000D02*
X125000000Y-42750000D01*
X124350000Y-56000000D02*
X123524990Y-55174990D01*
X123524990Y-52024990D02*
X124999990Y-50549990D01*
X124999990Y-50549990D02*
X127495650Y-50549990D01*
X127495650Y-50549990D02*
X134450010Y-43595630D01*
X134450010Y-43595630D02*
X134450009Y-41813599D01*
G04 #@! TO.N,/GPIO6*
X124350000Y-53850000D02*
X125250000Y-54750000D01*
X124350000Y-53000000D02*
X124350000Y-53850000D01*
X128600000Y-54750000D02*
X131250000Y-57400000D01*
X125250000Y-54750000D02*
X128600000Y-54750000D01*
X120750000Y-30750000D02*
X121000000Y-30750000D01*
X131250000Y-30750000D02*
X120750000Y-30750000D01*
X124350000Y-51900000D02*
X125250000Y-51000000D01*
X125250000Y-51000000D02*
X127682051Y-50999999D01*
X124350000Y-53000000D02*
X124350000Y-51900000D01*
X127682051Y-50999999D02*
X134900019Y-43782031D01*
X134900019Y-43782031D02*
X134900019Y-34400019D01*
X134900019Y-34400019D02*
X131250000Y-30750000D01*
G04 #@! TO.N,/SPI_CS*
X125000000Y-35500000D02*
X125000000Y-32000000D01*
X125000000Y-36090770D02*
X125000000Y-35500000D01*
X119500000Y-41590770D02*
X125000000Y-36090770D01*
X118750000Y-57750000D02*
X119500000Y-57000000D01*
X119500000Y-57000000D02*
X119500000Y-41590770D01*
G04 #@! TO.N,/SPI_MISO*
X120000000Y-59500000D02*
X121049990Y-58450010D01*
X121049990Y-41950010D02*
X131000000Y-32000000D01*
X121049990Y-58450010D02*
X121049990Y-41950010D01*
G04 #@! TO.N,/SPI_MOSI*
X129000000Y-33000000D02*
X129000000Y-32000000D01*
X119434315Y-60500000D02*
X119250000Y-60315685D01*
X120000000Y-60500000D02*
X119434315Y-60500000D01*
X129000000Y-33363590D02*
X129000000Y-33000000D01*
X119250000Y-60315685D02*
X119250000Y-59176998D01*
X119250000Y-59176998D02*
X120500000Y-57926998D01*
X120500000Y-57926998D02*
X120500000Y-41863590D01*
X120500000Y-41863590D02*
X129000000Y-33363590D01*
G04 #@! TO.N,/SPI_SCK*
X118750000Y-61684315D02*
X118750000Y-62250000D01*
X118750000Y-59040588D02*
X118750000Y-61684315D01*
X120000000Y-57790588D02*
X118750000Y-59040588D01*
X120000000Y-41727180D02*
X120000000Y-57790588D01*
X127000000Y-34727180D02*
X120000000Y-41727180D01*
X127000000Y-32000000D02*
X127000000Y-34727180D01*
G04 #@! TD*
D17*
G04 #@! TO.N,GND*
G36*
X120952071Y-61047929D02*
X121015530Y-61090331D01*
X122314981Y-62389783D01*
X122314980Y-66650133D01*
X122300092Y-66724980D01*
X122314980Y-66799827D01*
X122314980Y-66799831D01*
X122359076Y-67021516D01*
X122527051Y-67272909D01*
X122590510Y-67315311D01*
X123202560Y-67927362D01*
X123202560Y-68750000D01*
X123251843Y-68997765D01*
X123392191Y-69207809D01*
X123515198Y-69290000D01*
X115705373Y-69290000D01*
X115947929Y-69127929D01*
X115990331Y-69064470D01*
X118484473Y-66570329D01*
X118547929Y-66527929D01*
X118715904Y-66276537D01*
X118760000Y-66054852D01*
X118760000Y-66054848D01*
X118774888Y-65980001D01*
X118760000Y-65905154D01*
X118760000Y-63285000D01*
X118955874Y-63285000D01*
X119336280Y-63127431D01*
X119627431Y-62836280D01*
X119785000Y-62455874D01*
X119785000Y-62044126D01*
X119627431Y-61663720D01*
X119510000Y-61546289D01*
X119510000Y-61417311D01*
X119794126Y-61535000D01*
X120205874Y-61535000D01*
X120586280Y-61377431D01*
X120877431Y-61086280D01*
X120915801Y-60993647D01*
X120952071Y-61047929D01*
X120952071Y-61047929D01*
G37*
X120952071Y-61047929D02*
X121015530Y-61090331D01*
X122314981Y-62389783D01*
X122314980Y-66650133D01*
X122300092Y-66724980D01*
X122314980Y-66799827D01*
X122314980Y-66799831D01*
X122359076Y-67021516D01*
X122527051Y-67272909D01*
X122590510Y-67315311D01*
X123202560Y-67927362D01*
X123202560Y-68750000D01*
X123251843Y-68997765D01*
X123392191Y-69207809D01*
X123515198Y-69290000D01*
X115705373Y-69290000D01*
X115947929Y-69127929D01*
X115990331Y-69064470D01*
X118484473Y-66570329D01*
X118547929Y-66527929D01*
X118715904Y-66276537D01*
X118760000Y-66054852D01*
X118760000Y-66054848D01*
X118774888Y-65980001D01*
X118760000Y-65905154D01*
X118760000Y-63285000D01*
X118955874Y-63285000D01*
X119336280Y-63127431D01*
X119627431Y-62836280D01*
X119785000Y-62455874D01*
X119785000Y-62044126D01*
X119627431Y-61663720D01*
X119510000Y-61546289D01*
X119510000Y-61417311D01*
X119794126Y-61535000D01*
X120205874Y-61535000D01*
X120586280Y-61377431D01*
X120877431Y-61086280D01*
X120915801Y-60993647D01*
X120952071Y-61047929D01*
G36*
X134605655Y-27744926D02*
X134695225Y-27804774D01*
X134755074Y-27894345D01*
X134765001Y-27944251D01*
X134765001Y-33190198D01*
X131840331Y-30265530D01*
X131797929Y-30202071D01*
X131546537Y-30034096D01*
X131324852Y-29990000D01*
X131324847Y-29990000D01*
X131250000Y-29975112D01*
X131175153Y-29990000D01*
X121703711Y-29990000D01*
X121586280Y-29872569D01*
X121205874Y-29715000D01*
X120794126Y-29715000D01*
X120413720Y-29872569D01*
X120122569Y-30163720D01*
X119965000Y-30544126D01*
X119965000Y-30955874D01*
X120122569Y-31336280D01*
X120413720Y-31627431D01*
X120794126Y-31785000D01*
X121205874Y-31785000D01*
X121586280Y-31627431D01*
X121703711Y-31510000D01*
X122082689Y-31510000D01*
X121965000Y-31794126D01*
X121965000Y-31960198D01*
X118515530Y-35409669D01*
X118452071Y-35452071D01*
X118284096Y-35703464D01*
X118240000Y-35925149D01*
X118240000Y-35925153D01*
X118225112Y-36000000D01*
X118240000Y-36074847D01*
X118240001Y-46935197D01*
X116460199Y-48715000D01*
X116294126Y-48715000D01*
X115913720Y-48872569D01*
X115622569Y-49163720D01*
X115465000Y-49544126D01*
X115465000Y-49955874D01*
X115622569Y-50336280D01*
X115913720Y-50627431D01*
X116294126Y-50785000D01*
X116705874Y-50785000D01*
X117086280Y-50627431D01*
X117377431Y-50336280D01*
X117535000Y-49955874D01*
X117535000Y-49789801D01*
X118740001Y-48584801D01*
X118740000Y-52965000D01*
X118544126Y-52965000D01*
X118163720Y-53122569D01*
X117872569Y-53413720D01*
X117715000Y-53794126D01*
X117715000Y-53960199D01*
X117515528Y-54159671D01*
X117452072Y-54202071D01*
X117409672Y-54265527D01*
X117409671Y-54265528D01*
X117388951Y-54296538D01*
X117284097Y-54453463D01*
X117265307Y-54547929D01*
X117225112Y-54750000D01*
X117240001Y-54824852D01*
X117240000Y-65665198D01*
X115085199Y-67820000D01*
X114797440Y-67820000D01*
X114797440Y-67730000D01*
X114748157Y-67482235D01*
X114607809Y-67272191D01*
X114397765Y-67131843D01*
X114352381Y-67122816D01*
X114370625Y-67110625D01*
X114698839Y-66619418D01*
X114814092Y-66040000D01*
X114698839Y-65460582D01*
X114370625Y-64969375D01*
X114072239Y-64770000D01*
X114370625Y-64570625D01*
X114698839Y-64079418D01*
X114814092Y-63500000D01*
X114698839Y-62920582D01*
X114370625Y-62429375D01*
X114072239Y-62230000D01*
X114370625Y-62030625D01*
X114698839Y-61539418D01*
X114814092Y-60960000D01*
X114698839Y-60380582D01*
X114370625Y-59889375D01*
X114072239Y-59690000D01*
X114370625Y-59490625D01*
X114698839Y-58999418D01*
X114814092Y-58420000D01*
X114698839Y-57840582D01*
X114370625Y-57349375D01*
X114072239Y-57150000D01*
X114370625Y-56950625D01*
X114698839Y-56459418D01*
X114814092Y-55880000D01*
X114698839Y-55300582D01*
X114370625Y-54809375D01*
X114051522Y-54596157D01*
X114181358Y-54535183D01*
X114571645Y-54106924D01*
X114741476Y-53696890D01*
X114620155Y-53467000D01*
X113427000Y-53467000D01*
X113427000Y-53487000D01*
X113173000Y-53487000D01*
X113173000Y-53467000D01*
X113153000Y-53467000D01*
X113153000Y-53213000D01*
X113173000Y-53213000D01*
X113173000Y-52019181D01*
X113427000Y-52019181D01*
X113427000Y-53213000D01*
X114620155Y-53213000D01*
X114741476Y-52983110D01*
X114571645Y-52573076D01*
X114181358Y-52144817D01*
X113656892Y-51898514D01*
X113427000Y-52019181D01*
X113173000Y-52019181D01*
X112943108Y-51898514D01*
X112418642Y-52144817D01*
X112235000Y-52346326D01*
X112235000Y-44150000D01*
X113502560Y-44150000D01*
X113502560Y-45850000D01*
X113551843Y-46097765D01*
X113692191Y-46307809D01*
X113902235Y-46448157D01*
X114150000Y-46497440D01*
X115850000Y-46497440D01*
X116097765Y-46448157D01*
X116307809Y-46307809D01*
X116448157Y-46097765D01*
X116497440Y-45850000D01*
X116497440Y-44150000D01*
X116448157Y-43902235D01*
X116307809Y-43692191D01*
X116097765Y-43551843D01*
X115850000Y-43502560D01*
X114150000Y-43502560D01*
X113902235Y-43551843D01*
X113692191Y-43692191D01*
X113551843Y-43902235D01*
X113502560Y-44150000D01*
X112235000Y-44150000D01*
X112235000Y-43072390D01*
X112268475Y-42904099D01*
X112322798Y-42822799D01*
X112404101Y-42768475D01*
X112643391Y-42720877D01*
X112669650Y-42710000D01*
X115569926Y-42710000D01*
X115638509Y-42696358D01*
X115638513Y-42696358D01*
X116021196Y-42620238D01*
X116097849Y-42588487D01*
X116277138Y-42514224D01*
X116601561Y-42297451D01*
X116696941Y-42202071D01*
X116797451Y-42101562D01*
X117014223Y-41777138D01*
X117065447Y-41653473D01*
X117120238Y-41521196D01*
X117156062Y-41341098D01*
X117192354Y-41286783D01*
X117235000Y-41072388D01*
X117235000Y-27944246D01*
X117244926Y-27894345D01*
X117304774Y-27804775D01*
X117394345Y-27744926D01*
X117444246Y-27735000D01*
X134555754Y-27735000D01*
X134605655Y-27744926D01*
X134605655Y-27744926D01*
G37*
X134605655Y-27744926D02*
X134695225Y-27804774D01*
X134755074Y-27894345D01*
X134765001Y-27944251D01*
X134765001Y-33190198D01*
X131840331Y-30265530D01*
X131797929Y-30202071D01*
X131546537Y-30034096D01*
X131324852Y-29990000D01*
X131324847Y-29990000D01*
X131250000Y-29975112D01*
X131175153Y-29990000D01*
X121703711Y-29990000D01*
X121586280Y-29872569D01*
X121205874Y-29715000D01*
X120794126Y-29715000D01*
X120413720Y-29872569D01*
X120122569Y-30163720D01*
X119965000Y-30544126D01*
X119965000Y-30955874D01*
X120122569Y-31336280D01*
X120413720Y-31627431D01*
X120794126Y-31785000D01*
X121205874Y-31785000D01*
X121586280Y-31627431D01*
X121703711Y-31510000D01*
X122082689Y-31510000D01*
X121965000Y-31794126D01*
X121965000Y-31960198D01*
X118515530Y-35409669D01*
X118452071Y-35452071D01*
X118284096Y-35703464D01*
X118240000Y-35925149D01*
X118240000Y-35925153D01*
X118225112Y-36000000D01*
X118240000Y-36074847D01*
X118240001Y-46935197D01*
X116460199Y-48715000D01*
X116294126Y-48715000D01*
X115913720Y-48872569D01*
X115622569Y-49163720D01*
X115465000Y-49544126D01*
X115465000Y-49955874D01*
X115622569Y-50336280D01*
X115913720Y-50627431D01*
X116294126Y-50785000D01*
X116705874Y-50785000D01*
X117086280Y-50627431D01*
X117377431Y-50336280D01*
X117535000Y-49955874D01*
X117535000Y-49789801D01*
X118740001Y-48584801D01*
X118740000Y-52965000D01*
X118544126Y-52965000D01*
X118163720Y-53122569D01*
X117872569Y-53413720D01*
X117715000Y-53794126D01*
X117715000Y-53960199D01*
X117515528Y-54159671D01*
X117452072Y-54202071D01*
X117409672Y-54265527D01*
X117409671Y-54265528D01*
X117388951Y-54296538D01*
X117284097Y-54453463D01*
X117265307Y-54547929D01*
X117225112Y-54750000D01*
X117240001Y-54824852D01*
X117240000Y-65665198D01*
X115085199Y-67820000D01*
X114797440Y-67820000D01*
X114797440Y-67730000D01*
X114748157Y-67482235D01*
X114607809Y-67272191D01*
X114397765Y-67131843D01*
X114352381Y-67122816D01*
X114370625Y-67110625D01*
X114698839Y-66619418D01*
X114814092Y-66040000D01*
X114698839Y-65460582D01*
X114370625Y-64969375D01*
X114072239Y-64770000D01*
X114370625Y-64570625D01*
X114698839Y-64079418D01*
X114814092Y-63500000D01*
X114698839Y-62920582D01*
X114370625Y-62429375D01*
X114072239Y-62230000D01*
X114370625Y-62030625D01*
X114698839Y-61539418D01*
X114814092Y-60960000D01*
X114698839Y-60380582D01*
X114370625Y-59889375D01*
X114072239Y-59690000D01*
X114370625Y-59490625D01*
X114698839Y-58999418D01*
X114814092Y-58420000D01*
X114698839Y-57840582D01*
X114370625Y-57349375D01*
X114072239Y-57150000D01*
X114370625Y-56950625D01*
X114698839Y-56459418D01*
X114814092Y-55880000D01*
X114698839Y-55300582D01*
X114370625Y-54809375D01*
X114051522Y-54596157D01*
X114181358Y-54535183D01*
X114571645Y-54106924D01*
X114741476Y-53696890D01*
X114620155Y-53467000D01*
X113427000Y-53467000D01*
X113427000Y-53487000D01*
X113173000Y-53487000D01*
X113173000Y-53467000D01*
X113153000Y-53467000D01*
X113153000Y-53213000D01*
X113173000Y-53213000D01*
X113173000Y-52019181D01*
X113427000Y-52019181D01*
X113427000Y-53213000D01*
X114620155Y-53213000D01*
X114741476Y-52983110D01*
X114571645Y-52573076D01*
X114181358Y-52144817D01*
X113656892Y-51898514D01*
X113427000Y-52019181D01*
X113173000Y-52019181D01*
X112943108Y-51898514D01*
X112418642Y-52144817D01*
X112235000Y-52346326D01*
X112235000Y-44150000D01*
X113502560Y-44150000D01*
X113502560Y-45850000D01*
X113551843Y-46097765D01*
X113692191Y-46307809D01*
X113902235Y-46448157D01*
X114150000Y-46497440D01*
X115850000Y-46497440D01*
X116097765Y-46448157D01*
X116307809Y-46307809D01*
X116448157Y-46097765D01*
X116497440Y-45850000D01*
X116497440Y-44150000D01*
X116448157Y-43902235D01*
X116307809Y-43692191D01*
X116097765Y-43551843D01*
X115850000Y-43502560D01*
X114150000Y-43502560D01*
X113902235Y-43551843D01*
X113692191Y-43692191D01*
X113551843Y-43902235D01*
X113502560Y-44150000D01*
X112235000Y-44150000D01*
X112235000Y-43072390D01*
X112268475Y-42904099D01*
X112322798Y-42822799D01*
X112404101Y-42768475D01*
X112643391Y-42720877D01*
X112669650Y-42710000D01*
X115569926Y-42710000D01*
X115638509Y-42696358D01*
X115638513Y-42696358D01*
X116021196Y-42620238D01*
X116097849Y-42588487D01*
X116277138Y-42514224D01*
X116601561Y-42297451D01*
X116696941Y-42202071D01*
X116797451Y-42101562D01*
X117014223Y-41777138D01*
X117065447Y-41653473D01*
X117120238Y-41521196D01*
X117156062Y-41341098D01*
X117192354Y-41286783D01*
X117235000Y-41072388D01*
X117235000Y-27944246D01*
X117244926Y-27894345D01*
X117304774Y-27804775D01*
X117394345Y-27744926D01*
X117444246Y-27735000D01*
X134555754Y-27735000D01*
X134605655Y-27744926D01*
G36*
X134765000Y-52434110D02*
X134501358Y-52144817D01*
X133976892Y-51898514D01*
X133747000Y-52019181D01*
X133747000Y-53213000D01*
X133767000Y-53213000D01*
X133767000Y-53467000D01*
X133747000Y-53467000D01*
X133747000Y-53487000D01*
X133493000Y-53487000D01*
X133493000Y-53467000D01*
X132299845Y-53467000D01*
X132178524Y-53696890D01*
X132348355Y-54106924D01*
X132738642Y-54535183D01*
X132868478Y-54596157D01*
X132549375Y-54809375D01*
X132221161Y-55300582D01*
X132105908Y-55880000D01*
X132221161Y-56459418D01*
X132549375Y-56950625D01*
X132847761Y-57150000D01*
X132549375Y-57349375D01*
X132221161Y-57840582D01*
X132180925Y-58042865D01*
X132142459Y-57950000D01*
X132285000Y-57605874D01*
X132285000Y-57194126D01*
X132127431Y-56813720D01*
X131836280Y-56522569D01*
X131455874Y-56365000D01*
X131289802Y-56365000D01*
X129190331Y-54265530D01*
X129147929Y-54202071D01*
X128896537Y-54034096D01*
X128674852Y-53990000D01*
X128674847Y-53990000D01*
X128600000Y-53975112D01*
X128525153Y-53990000D01*
X126749702Y-53990000D01*
X126797440Y-53750000D01*
X126797440Y-52983110D01*
X132178524Y-52983110D01*
X132299845Y-53213000D01*
X133493000Y-53213000D01*
X133493000Y-52019181D01*
X133263108Y-51898514D01*
X132738642Y-52144817D01*
X132348355Y-52573076D01*
X132178524Y-52983110D01*
X126797440Y-52983110D01*
X126797440Y-52250000D01*
X126748157Y-52002235D01*
X126607809Y-51792191D01*
X126559631Y-51759999D01*
X127607200Y-51759998D01*
X127682051Y-51774887D01*
X127978588Y-51715902D01*
X128166523Y-51590328D01*
X128166524Y-51590327D01*
X128229980Y-51547927D01*
X128272380Y-51484471D01*
X134765001Y-44991851D01*
X134765000Y-52434110D01*
X134765000Y-52434110D01*
G37*
X134765000Y-52434110D02*
X134501358Y-52144817D01*
X133976892Y-51898514D01*
X133747000Y-52019181D01*
X133747000Y-53213000D01*
X133767000Y-53213000D01*
X133767000Y-53467000D01*
X133747000Y-53467000D01*
X133747000Y-53487000D01*
X133493000Y-53487000D01*
X133493000Y-53467000D01*
X132299845Y-53467000D01*
X132178524Y-53696890D01*
X132348355Y-54106924D01*
X132738642Y-54535183D01*
X132868478Y-54596157D01*
X132549375Y-54809375D01*
X132221161Y-55300582D01*
X132105908Y-55880000D01*
X132221161Y-56459418D01*
X132549375Y-56950625D01*
X132847761Y-57150000D01*
X132549375Y-57349375D01*
X132221161Y-57840582D01*
X132180925Y-58042865D01*
X132142459Y-57950000D01*
X132285000Y-57605874D01*
X132285000Y-57194126D01*
X132127431Y-56813720D01*
X131836280Y-56522569D01*
X131455874Y-56365000D01*
X131289802Y-56365000D01*
X129190331Y-54265530D01*
X129147929Y-54202071D01*
X128896537Y-54034096D01*
X128674852Y-53990000D01*
X128674847Y-53990000D01*
X128600000Y-53975112D01*
X128525153Y-53990000D01*
X126749702Y-53990000D01*
X126797440Y-53750000D01*
X126797440Y-52983110D01*
X132178524Y-52983110D01*
X132299845Y-53213000D01*
X133493000Y-53213000D01*
X133493000Y-52019181D01*
X133263108Y-51898514D01*
X132738642Y-52144817D01*
X132348355Y-52573076D01*
X132178524Y-52983110D01*
X126797440Y-52983110D01*
X126797440Y-52250000D01*
X126748157Y-52002235D01*
X126607809Y-51792191D01*
X126559631Y-51759999D01*
X127607200Y-51759998D01*
X127682051Y-51774887D01*
X127978588Y-51715902D01*
X128166523Y-51590328D01*
X128166524Y-51590327D01*
X128229980Y-51547927D01*
X128272380Y-51484471D01*
X134765001Y-44991851D01*
X134765000Y-52434110D01*
G36*
X134140020Y-34714823D02*
X134140019Y-40525557D01*
X133961262Y-40490000D01*
X133961257Y-40490000D01*
X133886410Y-40475112D01*
X133811563Y-40490000D01*
X126574846Y-40490000D01*
X126499999Y-40475112D01*
X126425152Y-40490000D01*
X126425148Y-40490000D01*
X126203463Y-40534096D01*
X126203461Y-40534097D01*
X126203462Y-40534097D01*
X126015526Y-40659671D01*
X126015524Y-40659673D01*
X125952071Y-40702071D01*
X125909673Y-40765524D01*
X124960198Y-41715000D01*
X124794126Y-41715000D01*
X124413720Y-41872569D01*
X124122569Y-42163720D01*
X124000000Y-42459628D01*
X123877431Y-42163720D01*
X123586280Y-41872569D01*
X123205874Y-41715000D01*
X122794126Y-41715000D01*
X122413720Y-41872569D01*
X122122569Y-42163720D01*
X121965000Y-42544126D01*
X121965000Y-42955874D01*
X122122569Y-43336280D01*
X122413720Y-43627431D01*
X122794126Y-43785000D01*
X122960199Y-43785000D01*
X123409671Y-44234473D01*
X123452071Y-44297929D01*
X123703463Y-44465904D01*
X123925148Y-44510000D01*
X123925152Y-44510000D01*
X124000000Y-44524888D01*
X124074848Y-44510000D01*
X124998155Y-44510000D01*
X125073002Y-44524888D01*
X125147849Y-44510000D01*
X125147854Y-44510000D01*
X125369539Y-44465904D01*
X125620931Y-44297929D01*
X125663333Y-44234470D01*
X127387804Y-42510000D01*
X127979135Y-42510000D01*
X127965000Y-42544126D01*
X127965000Y-42955874D01*
X128122569Y-43336280D01*
X128240001Y-43453712D01*
X128240000Y-46185198D01*
X126685199Y-47740000D01*
X124579186Y-47740000D01*
X124504339Y-47725112D01*
X124429492Y-47740000D01*
X124429488Y-47740000D01*
X124207803Y-47784096D01*
X124145242Y-47825898D01*
X124019866Y-47909671D01*
X124019864Y-47909673D01*
X123956411Y-47952071D01*
X123914013Y-48015524D01*
X121809990Y-50119548D01*
X121809990Y-42264811D01*
X131039802Y-33035000D01*
X131205874Y-33035000D01*
X131586280Y-32877431D01*
X131877431Y-32586280D01*
X131916692Y-32491494D01*
X134140020Y-34714823D01*
X134140020Y-34714823D01*
G37*
X134140020Y-34714823D02*
X134140019Y-40525557D01*
X133961262Y-40490000D01*
X133961257Y-40490000D01*
X133886410Y-40475112D01*
X133811563Y-40490000D01*
X126574846Y-40490000D01*
X126499999Y-40475112D01*
X126425152Y-40490000D01*
X126425148Y-40490000D01*
X126203463Y-40534096D01*
X126203461Y-40534097D01*
X126203462Y-40534097D01*
X126015526Y-40659671D01*
X126015524Y-40659673D01*
X125952071Y-40702071D01*
X125909673Y-40765524D01*
X124960198Y-41715000D01*
X124794126Y-41715000D01*
X124413720Y-41872569D01*
X124122569Y-42163720D01*
X124000000Y-42459628D01*
X123877431Y-42163720D01*
X123586280Y-41872569D01*
X123205874Y-41715000D01*
X122794126Y-41715000D01*
X122413720Y-41872569D01*
X122122569Y-42163720D01*
X121965000Y-42544126D01*
X121965000Y-42955874D01*
X122122569Y-43336280D01*
X122413720Y-43627431D01*
X122794126Y-43785000D01*
X122960199Y-43785000D01*
X123409671Y-44234473D01*
X123452071Y-44297929D01*
X123703463Y-44465904D01*
X123925148Y-44510000D01*
X123925152Y-44510000D01*
X124000000Y-44524888D01*
X124074848Y-44510000D01*
X124998155Y-44510000D01*
X125073002Y-44524888D01*
X125147849Y-44510000D01*
X125147854Y-44510000D01*
X125369539Y-44465904D01*
X125620931Y-44297929D01*
X125663333Y-44234470D01*
X127387804Y-42510000D01*
X127979135Y-42510000D01*
X127965000Y-42544126D01*
X127965000Y-42955874D01*
X128122569Y-43336280D01*
X128240001Y-43453712D01*
X128240000Y-46185198D01*
X126685199Y-47740000D01*
X124579186Y-47740000D01*
X124504339Y-47725112D01*
X124429492Y-47740000D01*
X124429488Y-47740000D01*
X124207803Y-47784096D01*
X124145242Y-47825898D01*
X124019866Y-47909671D01*
X124019864Y-47909673D01*
X123956411Y-47952071D01*
X123914013Y-48015524D01*
X121809990Y-50119548D01*
X121809990Y-42264811D01*
X131039802Y-33035000D01*
X131205874Y-33035000D01*
X131586280Y-32877431D01*
X131877431Y-32586280D01*
X131916692Y-32491494D01*
X134140020Y-34714823D01*
G36*
X124122569Y-32586280D02*
X124240001Y-32703712D01*
X124240000Y-35425148D01*
X124240000Y-35775968D01*
X119760000Y-40255969D01*
X119760000Y-36314801D01*
X123039802Y-33035000D01*
X123205874Y-33035000D01*
X123586280Y-32877431D01*
X123877431Y-32586280D01*
X124000000Y-32290372D01*
X124122569Y-32586280D01*
X124122569Y-32586280D01*
G37*
X124122569Y-32586280D02*
X124240001Y-32703712D01*
X124240000Y-35425148D01*
X124240000Y-35775968D01*
X119760000Y-40255969D01*
X119760000Y-36314801D01*
X123039802Y-33035000D01*
X123205874Y-33035000D01*
X123586280Y-32877431D01*
X123877431Y-32586280D01*
X124000000Y-32290372D01*
X124122569Y-32586280D01*
G04 #@! TD*
M02*
