M48
;DRILL file {KiCad (5.0.0)} date 12/13/18 18:39:19
;FORMAT={-:-/ absolute / inch / decimal}
FMAT,2
INCH,TZ
T1C0.0118
T2C0.0157
T3C0.0197
T4C0.0236
T5C0.0335
T6C0.0394
%
G90
G05
M72
T1
X2.8135Y-4.6335
X2.815Y-4.58
X3.13Y-5.445
X3.15Y-6.27
X3.1624Y-5.3876
X3.2Y-5.175
X3.215Y-6.27
X3.335Y-5.52
X3.365Y-5.499
T2
X2.69Y-6.325
X2.89Y-5.505
X2.895Y-5.22
X2.905Y-5.725
X2.92Y-6.045
X3.03Y-5.87
X3.07Y-4.415
X3.085Y-5.9
X3.11Y-5.545
X3.145Y-4.855
X3.155Y-5.99
X3.19Y-5.5596
X3.19Y-5.65
X3.21Y-5.35
X3.235Y-5.39
X3.255Y-5.555
X3.255Y-5.89
X3.265Y-5.06
X3.285Y-4.995
X3.29Y-5.435
X3.2963Y-5.8087
X3.33Y-4.415
X3.425Y-5.145
X3.46Y-5.705
X3.465Y-5.495
X3.51Y-4.405
X3.555Y-5.3
X3.56Y-4.525
X3.565Y-5.53
X3.585Y-6.335
T3
X3.085Y-5.04
X3.1268Y-4.9982
T5
X3.0819Y-6.4575
X3.2787Y-6.4575
T6
X2.7Y-4.3
X2.7Y-4.4
X2.7Y-4.5
X2.7Y-4.6
X2.7Y-4.7
X2.7Y-4.8
X2.7Y-4.9
X2.7Y-5.
X2.7Y-5.1
X2.7Y-5.2
X2.7Y-5.3
X2.7Y-5.4
X2.7Y-5.5
X2.7Y-5.6
X2.7Y-5.7
X2.7Y-5.8
X2.7Y-5.9
X2.7Y-6.
X2.7Y-6.1
X2.7Y-6.2
X2.95Y-6.15
X3.05Y-6.15
X3.15Y-6.15
X3.25Y-6.15
X3.35Y-6.15
X3.45Y-6.15
X3.7Y-4.3
X3.7Y-4.4
X3.7Y-4.5
X3.7Y-4.6
X3.7Y-4.7
X3.7Y-4.8
X3.7Y-4.9
X3.7Y-5.
X3.7Y-5.1
X3.7Y-5.2
X3.7Y-5.3
X3.7Y-5.4
X3.7Y-5.5
X3.7Y-5.6
X3.7Y-5.7
X3.7Y-5.8
X3.7Y-5.9
X3.7Y-6.
X3.7Y-6.1
X3.7Y-6.2
T4
X3.0425Y-6.5776G85X3.0425Y-6.55
G05
X3.3181Y-6.55G85X3.3181Y-6.5776
G05
T0
M30
