G04 #@! TF.GenerationSoftware,KiCad,Pcbnew,(5.0.0)*
G04 #@! TF.CreationDate,2018-12-13T18:38:50+00:00*
G04 #@! TF.ProjectId,mogo,6D6F676F2E6B696361645F7063620000,rev?*
G04 #@! TF.SameCoordinates,Original*
G04 #@! TF.FileFunction,Copper,L2,Bot,Signal*
G04 #@! TF.FilePolarity,Positive*
%FSLAX46Y46*%
G04 Gerber Fmt 4.6, Leading zero omitted, Abs format (unit mm)*
G04 Created by KiCad (PCBNEW (5.0.0)) date 12/13/18 18:38:50*
%MOMM*%
%LPD*%
G01*
G04 APERTURE LIST*
G04 #@! TA.AperFunction,ComponentPad*
%ADD10R,1.700000X1.700000*%
G04 #@! TD*
G04 #@! TA.AperFunction,ComponentPad*
%ADD11O,1.700000X1.700000*%
G04 #@! TD*
G04 #@! TA.AperFunction,SMDPad,CuDef*
%ADD12R,4.000000X4.000000*%
G04 #@! TD*
G04 #@! TA.AperFunction,SMDPad,CuDef*
%ADD13R,3.500000X3.300000*%
G04 #@! TD*
G04 #@! TA.AperFunction,ComponentPad*
%ADD14O,1.200000X1.900000*%
G04 #@! TD*
G04 #@! TA.AperFunction,ComponentPad*
%ADD15C,1.450000*%
G04 #@! TD*
G04 #@! TA.AperFunction,ComponentPad*
%ADD16C,1.000000*%
G04 #@! TD*
G04 #@! TA.AperFunction,ViaPad*
%ADD17C,0.800000*%
G04 #@! TD*
G04 #@! TA.AperFunction,ViaPad*
%ADD18C,0.600000*%
G04 #@! TD*
G04 #@! TA.AperFunction,Conductor*
%ADD19C,0.127000*%
G04 #@! TD*
G04 #@! TA.AperFunction,Conductor*
%ADD20C,0.254000*%
G04 #@! TD*
G04 APERTURE END LIST*
D10*
G04 #@! TO.P,J3,1*
G04 #@! TO.N,/PB15*
X93980000Y-157480000D03*
D11*
G04 #@! TO.P,J3,2*
G04 #@! TO.N,/PA8*
X93980000Y-154940000D03*
G04 #@! TO.P,J3,3*
G04 #@! TO.N,/PA9*
X93980000Y-152400000D03*
G04 #@! TO.P,J3,4*
G04 #@! TO.N,/PA10*
X93980000Y-149860000D03*
G04 #@! TO.P,J3,5*
G04 #@! TO.N,/USB_D-*
X93980000Y-147320000D03*
G04 #@! TO.P,J3,6*
G04 #@! TO.N,/USB_D+*
X93980000Y-144780000D03*
G04 #@! TO.P,J3,7*
G04 #@! TO.N,/SWDIO*
X93980000Y-142240000D03*
G04 #@! TO.P,J3,8*
G04 #@! TO.N,/SWCLK*
X93980000Y-139700000D03*
G04 #@! TO.P,J3,9*
G04 #@! TO.N,/PA15*
X93980000Y-137160000D03*
G04 #@! TO.P,J3,10*
G04 #@! TO.N,/PB3*
X93980000Y-134620000D03*
G04 #@! TO.P,J3,11*
G04 #@! TO.N,/PB4*
X93980000Y-132080000D03*
G04 #@! TO.P,J3,12*
G04 #@! TO.N,/PB5*
X93980000Y-129540000D03*
G04 #@! TO.P,J3,13*
G04 #@! TO.N,/PB6*
X93980000Y-127000000D03*
G04 #@! TO.P,J3,14*
G04 #@! TO.N,/PB7*
X93980000Y-124460000D03*
G04 #@! TO.P,J3,15*
G04 #@! TO.N,/PB8*
X93980000Y-121920000D03*
G04 #@! TO.P,J3,16*
G04 #@! TO.N,/PB9*
X93980000Y-119380000D03*
G04 #@! TO.P,J3,17*
G04 #@! TO.N,+BATT*
X93980000Y-116840000D03*
G04 #@! TO.P,J3,18*
G04 #@! TO.N,/_RESET*
X93980000Y-114300000D03*
G04 #@! TO.P,J3,19*
G04 #@! TO.N,/BOOT0*
X93980000Y-111760000D03*
G04 #@! TO.P,J3,20*
G04 #@! TO.N,VBUS*
X93980000Y-109220000D03*
G04 #@! TD*
D12*
G04 #@! TO.P,BT1,2*
G04 #@! TO.N,GND*
X81280000Y-111760000D03*
D13*
G04 #@! TO.P,BT1,1*
G04 #@! TO.N,Net-(BT1-Pad1)*
X89180000Y-111760000D03*
X73380000Y-111760000D03*
G04 #@! TD*
D14*
G04 #@! TO.P,J1,6*
G04 #@! TO.N,GND*
X84280000Y-166720000D03*
X77280000Y-166720000D03*
D15*
X83280000Y-164020000D03*
X78280000Y-164020000D03*
G04 #@! TD*
D11*
G04 #@! TO.P,J4,20*
G04 #@! TO.N,/PB14*
X68580000Y-157480000D03*
G04 #@! TO.P,J4,19*
G04 #@! TO.N,/PB13*
X68580000Y-154940000D03*
G04 #@! TO.P,J4,18*
G04 #@! TO.N,/PB12*
X68580000Y-152400000D03*
G04 #@! TO.P,J4,17*
G04 #@! TO.N,/PB11*
X68580000Y-149860000D03*
G04 #@! TO.P,J4,16*
G04 #@! TO.N,/PB10*
X68580000Y-147320000D03*
G04 #@! TO.P,J4,15*
G04 #@! TO.N,/PB2*
X68580000Y-144780000D03*
G04 #@! TO.P,J4,14*
G04 #@! TO.N,/PB1*
X68580000Y-142240000D03*
G04 #@! TO.P,J4,13*
G04 #@! TO.N,/PB0*
X68580000Y-139700000D03*
G04 #@! TO.P,J4,12*
G04 #@! TO.N,/PA7*
X68580000Y-137160000D03*
G04 #@! TO.P,J4,11*
G04 #@! TO.N,/PA6*
X68580000Y-134620000D03*
G04 #@! TO.P,J4,10*
G04 #@! TO.N,/PA5*
X68580000Y-132080000D03*
G04 #@! TO.P,J4,9*
G04 #@! TO.N,/PA4*
X68580000Y-129540000D03*
G04 #@! TO.P,J4,8*
G04 #@! TO.N,/PA3*
X68580000Y-127000000D03*
G04 #@! TO.P,J4,7*
G04 #@! TO.N,/PA2*
X68580000Y-124460000D03*
G04 #@! TO.P,J4,6*
G04 #@! TO.N,/PA1*
X68580000Y-121920000D03*
G04 #@! TO.P,J4,5*
G04 #@! TO.N,/PA0*
X68580000Y-119380000D03*
G04 #@! TO.P,J4,4*
G04 #@! TO.N,/RTC_OSC_OUT*
X68580000Y-116840000D03*
G04 #@! TO.P,J4,3*
G04 #@! TO.N,/RTC_OSC_IN*
X68580000Y-114300000D03*
G04 #@! TO.P,J4,2*
G04 #@! TO.N,/PC13*
X68580000Y-111760000D03*
D10*
G04 #@! TO.P,J4,1*
G04 #@! TO.N,+3V3*
X68580000Y-109220000D03*
G04 #@! TD*
D16*
G04 #@! TO.P,Y2,2*
G04 #@! TO.N,Net-(C4-Pad1)*
X79419660Y-126955340D03*
G04 #@! TO.P,Y2,1*
G04 #@! TO.N,Net-(C3-Pad1)*
X78359000Y-128016000D03*
G04 #@! TD*
D10*
G04 #@! TO.P,J2,1*
G04 #@! TO.N,+3V3*
X74930000Y-156210000D03*
D11*
G04 #@! TO.P,J2,2*
G04 #@! TO.N,/_RESET*
X77470000Y-156210000D03*
G04 #@! TO.P,J2,3*
G04 #@! TO.N,/SWCLK*
X80010000Y-156210000D03*
G04 #@! TO.P,J2,4*
G04 #@! TO.N,/SWDIO*
X82550000Y-156210000D03*
G04 #@! TO.P,J2,5*
G04 #@! TO.N,/BOOT0*
X85090000Y-156210000D03*
G04 #@! TO.P,J2,6*
G04 #@! TO.N,GND*
X87630000Y-156210000D03*
G04 #@! TD*
D17*
G04 #@! TO.N,GND*
X76962000Y-149098000D03*
X80137000Y-152146000D03*
X73787000Y-145415000D03*
X78994000Y-140843000D03*
X90551000Y-140462000D03*
X87884000Y-144907000D03*
X91059000Y-160909000D03*
X68326000Y-160655000D03*
X73406000Y-139827000D03*
X73533000Y-132588000D03*
X86995000Y-130683000D03*
X79883000Y-123317000D03*
X83566000Y-138049000D03*
X82169000Y-136906000D03*
X77978000Y-112141000D03*
X84582000Y-112141000D03*
X90424000Y-114935000D03*
G04 #@! TO.N,Net-(BT1-Pad1)*
X89154000Y-111887000D03*
G04 #@! TO.N,+3V3*
X81534000Y-135890000D03*
X83726000Y-147541000D03*
X81026000Y-143510000D03*
X88011000Y-139573000D03*
X81026000Y-141213767D03*
X74168000Y-153543000D03*
X78359000Y-149860000D03*
X83439000Y-126873000D03*
G04 #@! TO.N,/BOOT0*
X82677000Y-149606000D03*
X82677000Y-141097000D03*
X90297000Y-134620000D03*
D18*
G04 #@! TO.N,/SWDIO*
X84709000Y-140208000D03*
G04 #@! TO.N,/SWCLK*
X85471000Y-139674864D03*
G04 #@! TO.N,/_RESET*
X79502000Y-138303000D03*
G04 #@! TO.N,/USB_D+*
X81661000Y-159258000D03*
G04 #@! TO.N,/USB_D-*
X80010000Y-159258000D03*
G04 #@! TO.N,/RTC_OSC_OUT*
X71461999Y-117689999D03*
D17*
X82931000Y-128524000D03*
D18*
G04 #@! TO.N,/RTC_OSC_IN*
X71501000Y-116332000D03*
X81280000Y-131445000D03*
G04 #@! TO.N,/PC13*
X80325405Y-136844595D03*
G04 #@! TD*
D19*
G04 #@! TO.N,Net-(BT1-Pad1)*
X89080000Y-111760000D02*
X89180000Y-111760000D01*
X85344000Y-115496000D02*
X89080000Y-111760000D01*
X85344000Y-116713000D02*
X85344000Y-115496000D01*
X76556000Y-116713000D02*
X85344000Y-116713000D01*
X73380000Y-113537000D02*
X76556000Y-116713000D01*
X73380000Y-111760000D02*
X73380000Y-113537000D01*
G04 #@! TO.N,+3V3*
X87376000Y-138938000D02*
X83312000Y-138938000D01*
X88011000Y-139573000D02*
X87376000Y-138938000D01*
X77851000Y-149860000D02*
X78359000Y-149860000D01*
X74168000Y-153543000D02*
X77851000Y-149860000D01*
X81933999Y-135490001D02*
X81933999Y-130918001D01*
X81534000Y-135890000D02*
X81933999Y-135490001D01*
X83838999Y-127272999D02*
X83439000Y-126873000D01*
X83838999Y-129013001D02*
X83838999Y-127272999D01*
X81933999Y-130918001D02*
X83838999Y-129013001D01*
X83726000Y-139606000D02*
X83185000Y-139065000D01*
X83726000Y-147541000D02*
X83726000Y-139606000D01*
X83312000Y-138938000D02*
X83185000Y-139065000D01*
X83185000Y-139065000D02*
X81026000Y-141224000D01*
G04 #@! TO.N,/BOOT0*
X82677000Y-149606000D02*
X82677000Y-141097000D01*
X82677000Y-141097000D02*
X82677000Y-141097000D01*
X82677000Y-141097000D02*
X82677000Y-141097000D01*
X92066499Y-113673501D02*
X92066499Y-132850501D01*
X93980000Y-111760000D02*
X92066499Y-113673501D01*
X92066499Y-132850501D02*
X90297000Y-134620000D01*
X90297000Y-134620000D02*
X90297000Y-134620000D01*
G04 #@! TO.N,/SWDIO*
X84709000Y-154051000D02*
X82550000Y-156210000D01*
X84709000Y-140208000D02*
X84709000Y-154051000D01*
G04 #@! TO.N,/SWCLK*
X80010000Y-154305000D02*
X80010000Y-156210000D01*
X80391000Y-153924000D02*
X80010000Y-154305000D01*
X83820000Y-153924000D02*
X80391000Y-153924000D01*
X84516194Y-139674864D02*
X84201000Y-139990058D01*
X85471000Y-139674864D02*
X84516194Y-139674864D01*
X84201000Y-139990058D02*
X84201000Y-140462000D01*
X84201000Y-140462000D02*
X84455000Y-140716000D01*
X84455000Y-140716000D02*
X84455000Y-153289000D01*
X84455000Y-153289000D02*
X83820000Y-153924000D01*
G04 #@! TO.N,/_RESET*
X77470000Y-156210000D02*
X77470000Y-152908000D01*
X79711501Y-150666499D02*
X79502000Y-138303000D01*
X77470000Y-152908000D02*
X79711501Y-150666499D01*
X79711501Y-138512501D02*
X79502000Y-138303000D01*
X79502000Y-138303000D02*
X79711501Y-138512501D01*
G04 #@! TO.N,/USB_D+*
X92456000Y-144780000D02*
X93980000Y-144780000D01*
X90678000Y-146558000D02*
X92456000Y-144780000D01*
X90678000Y-156718000D02*
X90678000Y-146558000D01*
X88437999Y-158958001D02*
X90678000Y-156718000D01*
X81661000Y-159258000D02*
X81960999Y-158958001D01*
X81960999Y-158958001D02*
X88437999Y-158958001D01*
G04 #@! TO.N,/USB_D-*
X92329000Y-147320000D02*
X93980000Y-147320000D01*
X91059000Y-148590000D02*
X92329000Y-147320000D01*
X80623501Y-159871501D02*
X82063499Y-159871501D01*
X80010000Y-159258000D02*
X80623501Y-159871501D01*
X82063499Y-159871501D02*
X82599989Y-159335011D01*
X82599989Y-159335011D02*
X88594162Y-159335010D01*
X88594162Y-159335010D02*
X91059000Y-156870172D01*
X91059000Y-156870172D02*
X91059000Y-148590000D01*
G04 #@! TO.N,/RTC_OSC_OUT*
X71461999Y-117689999D02*
X71461999Y-118600775D01*
X74168000Y-121306776D02*
X74168000Y-124595758D01*
X71461999Y-118600775D02*
X74168000Y-121306776D01*
X74168000Y-124595758D02*
X75683242Y-126111000D01*
X79705302Y-126111000D02*
X82118302Y-128524000D01*
X75683242Y-126111000D02*
X79705302Y-126111000D01*
X82118302Y-128524000D02*
X82931000Y-128524000D01*
X82931000Y-128524000D02*
X82931000Y-128651000D01*
X82931000Y-128524000D02*
X82931000Y-128524000D01*
G04 #@! TO.N,/RTC_OSC_IN*
X73914000Y-124700982D02*
X80658018Y-131445000D01*
X80658018Y-131445000D02*
X81280000Y-131445000D01*
X81280000Y-131445000D02*
X81280000Y-131445000D01*
X73914000Y-124700982D02*
X73914000Y-121412000D01*
X71201001Y-116631999D02*
X71501000Y-116332000D01*
X70971498Y-116861502D02*
X71201001Y-116631999D01*
X70971498Y-118469498D02*
X70971498Y-116861502D01*
X73914000Y-121412000D02*
X70971498Y-118469498D01*
G04 #@! TO.N,/PC13*
X80025406Y-137144594D02*
X72628594Y-137144594D01*
X80325405Y-136844595D02*
X80025406Y-137144594D01*
X72628594Y-137144594D02*
X70612000Y-135128000D01*
X70612000Y-113792000D02*
X68580000Y-111760000D01*
X70612000Y-135128000D02*
X70612000Y-113792000D01*
G04 #@! TD*
D20*
G04 #@! TO.N,GND*
G36*
X91368000Y-132561172D02*
X90344173Y-133585000D01*
X90091126Y-133585000D01*
X89710720Y-133742569D01*
X89419569Y-134033720D01*
X89262000Y-134414126D01*
X89262000Y-134825874D01*
X89419569Y-135206280D01*
X89710720Y-135497431D01*
X90091126Y-135655000D01*
X90502874Y-135655000D01*
X90883280Y-135497431D01*
X91174431Y-135206280D01*
X91332000Y-134825874D01*
X91332000Y-134572827D01*
X92511768Y-133393060D01*
X92570089Y-133354091D01*
X92724471Y-133123042D01*
X92762661Y-132931051D01*
X92909375Y-133150625D01*
X93207761Y-133350000D01*
X92909375Y-133549375D01*
X92581161Y-134040582D01*
X92465908Y-134620000D01*
X92581161Y-135199418D01*
X92909375Y-135690625D01*
X93207761Y-135890000D01*
X92909375Y-136089375D01*
X92581161Y-136580582D01*
X92465908Y-137160000D01*
X92581161Y-137739418D01*
X92909375Y-138230625D01*
X93207761Y-138430000D01*
X92909375Y-138629375D01*
X92581161Y-139120582D01*
X92465908Y-139700000D01*
X92581161Y-140279418D01*
X92909375Y-140770625D01*
X93207761Y-140970000D01*
X92909375Y-141169375D01*
X92581161Y-141660582D01*
X92465908Y-142240000D01*
X92581161Y-142819418D01*
X92909375Y-143310625D01*
X93207761Y-143510000D01*
X92909375Y-143709375D01*
X92660729Y-144081500D01*
X92524794Y-144081500D01*
X92456000Y-144067816D01*
X92387206Y-144081500D01*
X92183459Y-144122028D01*
X91952410Y-144276410D01*
X91913441Y-144334731D01*
X90232731Y-146015442D01*
X90174411Y-146054410D01*
X90135442Y-146112731D01*
X90020028Y-146285460D01*
X89965817Y-146558000D01*
X89979501Y-146626795D01*
X89979500Y-156428672D01*
X88148672Y-158259501D01*
X82029793Y-158259501D01*
X81960999Y-158245817D01*
X81892205Y-158259501D01*
X81688458Y-158300029D01*
X81654079Y-158323000D01*
X81475017Y-158323000D01*
X81131365Y-158465345D01*
X80868345Y-158728365D01*
X80835500Y-158807660D01*
X80802655Y-158728365D01*
X80539635Y-158465345D01*
X80195983Y-158323000D01*
X79824017Y-158323000D01*
X79480365Y-158465345D01*
X79217345Y-158728365D01*
X79075000Y-159072017D01*
X79075000Y-159443983D01*
X79217345Y-159787635D01*
X79480365Y-160050655D01*
X79824017Y-160193000D01*
X79957172Y-160193000D01*
X80080942Y-160316770D01*
X80119911Y-160375091D01*
X80350960Y-160529473D01*
X80554707Y-160570001D01*
X80554711Y-160570001D01*
X80623500Y-160583684D01*
X80692289Y-160570001D01*
X81994709Y-160570001D01*
X82063499Y-160583684D01*
X82132289Y-160570001D01*
X82132293Y-160570001D01*
X82336040Y-160529473D01*
X82567089Y-160375091D01*
X82606059Y-160316768D01*
X82889317Y-160033511D01*
X88525367Y-160033509D01*
X88594162Y-160047193D01*
X88866702Y-159992982D01*
X89039431Y-159877568D01*
X89097752Y-159838599D01*
X89136720Y-159780279D01*
X91504271Y-157412729D01*
X91562589Y-157373762D01*
X91601556Y-157315444D01*
X91601558Y-157315442D01*
X91716971Y-157142714D01*
X91716972Y-157142713D01*
X91757500Y-156938966D01*
X91757500Y-156938962D01*
X91771183Y-156870173D01*
X91757500Y-156801384D01*
X91757500Y-148879327D01*
X92618328Y-148018500D01*
X92660729Y-148018500D01*
X92909375Y-148390625D01*
X93207761Y-148590000D01*
X92909375Y-148789375D01*
X92581161Y-149280582D01*
X92465908Y-149860000D01*
X92581161Y-150439418D01*
X92909375Y-150930625D01*
X93207761Y-151130000D01*
X92909375Y-151329375D01*
X92581161Y-151820582D01*
X92465908Y-152400000D01*
X92581161Y-152979418D01*
X92909375Y-153470625D01*
X93207761Y-153670000D01*
X92909375Y-153869375D01*
X92581161Y-154360582D01*
X92465908Y-154940000D01*
X92581161Y-155519418D01*
X92909375Y-156010625D01*
X92927619Y-156022816D01*
X92882235Y-156031843D01*
X92672191Y-156172191D01*
X92531843Y-156382235D01*
X92482560Y-156630000D01*
X92482560Y-158330000D01*
X92531843Y-158577765D01*
X92672191Y-158787809D01*
X92882235Y-158928157D01*
X93130000Y-158977440D01*
X94830000Y-158977440D01*
X95077765Y-158928157D01*
X95287809Y-158787809D01*
X95302001Y-158766569D01*
X95302001Y-159188070D01*
X95302000Y-159188075D01*
X95302001Y-160977309D01*
X95248872Y-161296505D01*
X95123468Y-161528918D01*
X94929541Y-161708183D01*
X94674940Y-161820742D01*
X94443335Y-161850000D01*
X87306074Y-161850000D01*
X87262108Y-161858745D01*
X86908011Y-161903478D01*
X86867742Y-161915521D01*
X86825833Y-161918819D01*
X86709912Y-161958508D01*
X86252205Y-162160859D01*
X86205475Y-162191555D01*
X86154155Y-162213763D01*
X86057340Y-162288861D01*
X85689855Y-162628561D01*
X85655584Y-162672743D01*
X85614229Y-162710373D01*
X85546959Y-162812782D01*
X85309321Y-163253202D01*
X85291209Y-163306101D01*
X85264272Y-163355100D01*
X85233801Y-163473778D01*
X85153457Y-163956481D01*
X85142001Y-164014074D01*
X85142000Y-165501770D01*
X85063474Y-165406920D01*
X84635281Y-165180408D01*
X84597609Y-165176538D01*
X84407000Y-165301269D01*
X84407000Y-166593000D01*
X84427000Y-166593000D01*
X84427000Y-166847000D01*
X84407000Y-166847000D01*
X84407000Y-166867000D01*
X84153000Y-166867000D01*
X84153000Y-166847000D01*
X83045000Y-166847000D01*
X83045000Y-167197000D01*
X83119240Y-167438000D01*
X78440760Y-167438000D01*
X78515000Y-167197000D01*
X78515000Y-166847000D01*
X77407000Y-166847000D01*
X77407000Y-166867000D01*
X77153000Y-166867000D01*
X77153000Y-166847000D01*
X77133000Y-166847000D01*
X77133000Y-166593000D01*
X77153000Y-166593000D01*
X77153000Y-165301269D01*
X77407000Y-165301269D01*
X77407000Y-166593000D01*
X78515000Y-166593000D01*
X78515000Y-166243000D01*
X78372390Y-165780053D01*
X78063474Y-165406920D01*
X77944232Y-165343842D01*
X78081146Y-165392312D01*
X78621444Y-165363949D01*
X78988878Y-165211753D01*
X79053793Y-164973398D01*
X82506207Y-164973398D01*
X82571122Y-165211753D01*
X83081146Y-165392312D01*
X83572945Y-165366495D01*
X83496526Y-165406920D01*
X83187610Y-165780053D01*
X83045000Y-166243000D01*
X83045000Y-166593000D01*
X84153000Y-166593000D01*
X84153000Y-165301269D01*
X83993012Y-165196576D01*
X84053793Y-164973398D01*
X83280000Y-164199605D01*
X82506207Y-164973398D01*
X79053793Y-164973398D01*
X78280000Y-164199605D01*
X77506207Y-164973398D01*
X77566988Y-165196576D01*
X77407000Y-165301269D01*
X77153000Y-165301269D01*
X76962391Y-165176538D01*
X76924719Y-165180408D01*
X76496526Y-165406920D01*
X76187610Y-165780053D01*
X76148000Y-165908637D01*
X76148000Y-164014074D01*
X76139255Y-163970108D01*
X76120437Y-163821146D01*
X76907688Y-163821146D01*
X76936051Y-164361444D01*
X77088247Y-164728878D01*
X77326602Y-164793793D01*
X78100395Y-164020000D01*
X78459605Y-164020000D01*
X79233398Y-164793793D01*
X79471753Y-164728878D01*
X79652312Y-164218854D01*
X79631435Y-163821146D01*
X81907688Y-163821146D01*
X81936051Y-164361444D01*
X82088247Y-164728878D01*
X82326602Y-164793793D01*
X83100395Y-164020000D01*
X83459605Y-164020000D01*
X84233398Y-164793793D01*
X84471753Y-164728878D01*
X84652312Y-164218854D01*
X84623949Y-163678556D01*
X84471753Y-163311122D01*
X84233398Y-163246207D01*
X83459605Y-164020000D01*
X83100395Y-164020000D01*
X82326602Y-163246207D01*
X82088247Y-163311122D01*
X81907688Y-163821146D01*
X79631435Y-163821146D01*
X79623949Y-163678556D01*
X79471753Y-163311122D01*
X79233398Y-163246207D01*
X78459605Y-164020000D01*
X78100395Y-164020000D01*
X77326602Y-163246207D01*
X77088247Y-163311122D01*
X76907688Y-163821146D01*
X76120437Y-163821146D01*
X76094522Y-163616011D01*
X76082479Y-163575742D01*
X76079181Y-163533833D01*
X76039492Y-163417912D01*
X75884179Y-163066602D01*
X77506207Y-163066602D01*
X78280000Y-163840395D01*
X79053793Y-163066602D01*
X82506207Y-163066602D01*
X83280000Y-163840395D01*
X84053793Y-163066602D01*
X83988878Y-162828247D01*
X83478854Y-162647688D01*
X82938556Y-162676051D01*
X82571122Y-162828247D01*
X82506207Y-163066602D01*
X79053793Y-163066602D01*
X78988878Y-162828247D01*
X78478854Y-162647688D01*
X77938556Y-162676051D01*
X77571122Y-162828247D01*
X77506207Y-163066602D01*
X75884179Y-163066602D01*
X75837141Y-162960205D01*
X75806445Y-162913475D01*
X75784237Y-162862155D01*
X75709139Y-162765340D01*
X75369439Y-162397855D01*
X75325257Y-162363584D01*
X75287627Y-162322229D01*
X75185218Y-162254959D01*
X74744798Y-162017321D01*
X74691899Y-161999209D01*
X74642900Y-161972272D01*
X74524226Y-161941802D01*
X74524223Y-161941801D01*
X74524222Y-161941801D01*
X74041550Y-161861462D01*
X73983926Y-161850000D01*
X68130685Y-161850000D01*
X67811495Y-161796872D01*
X67579082Y-161671468D01*
X67399817Y-161477541D01*
X67287258Y-161222940D01*
X67258000Y-160991335D01*
X67258000Y-158174416D01*
X67509375Y-158550625D01*
X68000582Y-158878839D01*
X68433744Y-158965000D01*
X68726256Y-158965000D01*
X69159418Y-158878839D01*
X69650625Y-158550625D01*
X69978839Y-158059418D01*
X70094092Y-157480000D01*
X69978839Y-156900582D01*
X69650625Y-156409375D01*
X69352239Y-156210000D01*
X69650625Y-156010625D01*
X69978839Y-155519418D01*
X70094092Y-154940000D01*
X69978839Y-154360582D01*
X69650625Y-153869375D01*
X69352239Y-153670000D01*
X69650625Y-153470625D01*
X69978839Y-152979418D01*
X70094092Y-152400000D01*
X69978839Y-151820582D01*
X69650625Y-151329375D01*
X69352239Y-151130000D01*
X69650625Y-150930625D01*
X69978839Y-150439418D01*
X70094092Y-149860000D01*
X69978839Y-149280582D01*
X69650625Y-148789375D01*
X69352239Y-148590000D01*
X69650625Y-148390625D01*
X69978839Y-147899418D01*
X70094092Y-147320000D01*
X69978839Y-146740582D01*
X69650625Y-146249375D01*
X69352239Y-146050000D01*
X69650625Y-145850625D01*
X69978839Y-145359418D01*
X70094092Y-144780000D01*
X69978839Y-144200582D01*
X69650625Y-143709375D01*
X69352239Y-143510000D01*
X69650625Y-143310625D01*
X69978839Y-142819418D01*
X70094092Y-142240000D01*
X69978839Y-141660582D01*
X69650625Y-141169375D01*
X69352239Y-140970000D01*
X69650625Y-140770625D01*
X69978839Y-140279418D01*
X70094092Y-139700000D01*
X69978839Y-139120582D01*
X69650625Y-138629375D01*
X69352239Y-138430000D01*
X69650625Y-138230625D01*
X69978839Y-137739418D01*
X70094092Y-137160000D01*
X69978839Y-136580582D01*
X69650625Y-136089375D01*
X69352239Y-135890000D01*
X69650625Y-135690625D01*
X69928891Y-135274170D01*
X69954028Y-135400540D01*
X70108410Y-135631589D01*
X70166731Y-135670558D01*
X72086037Y-137589866D01*
X72125004Y-137648184D01*
X72183322Y-137687151D01*
X72183324Y-137687153D01*
X72356053Y-137802566D01*
X72628594Y-137856778D01*
X72697388Y-137843094D01*
X78680462Y-137843094D01*
X78567000Y-138117017D01*
X78567000Y-138488983D01*
X78709345Y-138832635D01*
X78814151Y-138937441D01*
X78985040Y-149022329D01*
X78945280Y-148982569D01*
X78564874Y-148825000D01*
X78153126Y-148825000D01*
X77772720Y-148982569D01*
X77502522Y-149252767D01*
X77405730Y-149317441D01*
X77405728Y-149317443D01*
X77347410Y-149356410D01*
X77308443Y-149414728D01*
X74215173Y-152508000D01*
X73962126Y-152508000D01*
X73581720Y-152665569D01*
X73290569Y-152956720D01*
X73133000Y-153337126D01*
X73133000Y-153748874D01*
X73290569Y-154129280D01*
X73581720Y-154420431D01*
X73962126Y-154578000D01*
X74373874Y-154578000D01*
X74754280Y-154420431D01*
X75045431Y-154129280D01*
X75203000Y-153748874D01*
X75203000Y-153495827D01*
X77906135Y-150792693D01*
X78153126Y-150895000D01*
X78495172Y-150895000D01*
X77024731Y-152365442D01*
X76966411Y-152404410D01*
X76927442Y-152462731D01*
X76812028Y-152635460D01*
X76757817Y-152908000D01*
X76771501Y-152976795D01*
X76771500Y-154890729D01*
X76399375Y-155139375D01*
X76387184Y-155157619D01*
X76378157Y-155112235D01*
X76237809Y-154902191D01*
X76027765Y-154761843D01*
X75780000Y-154712560D01*
X74080000Y-154712560D01*
X73832235Y-154761843D01*
X73622191Y-154902191D01*
X73481843Y-155112235D01*
X73432560Y-155360000D01*
X73432560Y-157060000D01*
X73481843Y-157307765D01*
X73622191Y-157517809D01*
X73832235Y-157658157D01*
X74080000Y-157707440D01*
X75780000Y-157707440D01*
X76027765Y-157658157D01*
X76237809Y-157517809D01*
X76378157Y-157307765D01*
X76387184Y-157262381D01*
X76399375Y-157280625D01*
X76890582Y-157608839D01*
X77323744Y-157695000D01*
X77616256Y-157695000D01*
X78049418Y-157608839D01*
X78540625Y-157280625D01*
X78740000Y-156982239D01*
X78939375Y-157280625D01*
X79430582Y-157608839D01*
X79863744Y-157695000D01*
X80156256Y-157695000D01*
X80589418Y-157608839D01*
X81080625Y-157280625D01*
X81280000Y-156982239D01*
X81479375Y-157280625D01*
X81970582Y-157608839D01*
X82403744Y-157695000D01*
X82696256Y-157695000D01*
X83129418Y-157608839D01*
X83620625Y-157280625D01*
X83820000Y-156982239D01*
X84019375Y-157280625D01*
X84510582Y-157608839D01*
X84943744Y-157695000D01*
X85236256Y-157695000D01*
X85669418Y-157608839D01*
X86160625Y-157280625D01*
X86373843Y-156961522D01*
X86434817Y-157091358D01*
X86863076Y-157481645D01*
X87273110Y-157651476D01*
X87503000Y-157530155D01*
X87503000Y-156337000D01*
X87757000Y-156337000D01*
X87757000Y-157530155D01*
X87986890Y-157651476D01*
X88396924Y-157481645D01*
X88825183Y-157091358D01*
X89071486Y-156566892D01*
X88950819Y-156337000D01*
X87757000Y-156337000D01*
X87503000Y-156337000D01*
X87483000Y-156337000D01*
X87483000Y-156083000D01*
X87503000Y-156083000D01*
X87503000Y-154889845D01*
X87757000Y-154889845D01*
X87757000Y-156083000D01*
X88950819Y-156083000D01*
X89071486Y-155853108D01*
X88825183Y-155328642D01*
X88396924Y-154938355D01*
X87986890Y-154768524D01*
X87757000Y-154889845D01*
X87503000Y-154889845D01*
X87273110Y-154768524D01*
X86863076Y-154938355D01*
X86434817Y-155328642D01*
X86373843Y-155458478D01*
X86160625Y-155139375D01*
X85669418Y-154811161D01*
X85236256Y-154725000D01*
X85022828Y-154725000D01*
X85154269Y-154593559D01*
X85212590Y-154554590D01*
X85366972Y-154323541D01*
X85407500Y-154119794D01*
X85407500Y-154119790D01*
X85421183Y-154051001D01*
X85407500Y-153982212D01*
X85407500Y-140831790D01*
X85501655Y-140737635D01*
X85554579Y-140609864D01*
X85656983Y-140609864D01*
X86000635Y-140467519D01*
X86263655Y-140204499D01*
X86406000Y-139860847D01*
X86406000Y-139636500D01*
X86976000Y-139636500D01*
X86976000Y-139778874D01*
X87133569Y-140159280D01*
X87424720Y-140450431D01*
X87805126Y-140608000D01*
X88216874Y-140608000D01*
X88597280Y-140450431D01*
X88888431Y-140159280D01*
X89046000Y-139778874D01*
X89046000Y-139367126D01*
X88888431Y-138986720D01*
X88597280Y-138695569D01*
X88216874Y-138538000D01*
X87963827Y-138538000D01*
X87918560Y-138492733D01*
X87879590Y-138434410D01*
X87648541Y-138280028D01*
X87444794Y-138239500D01*
X87444790Y-138239500D01*
X87376000Y-138225817D01*
X87307210Y-138239500D01*
X83380788Y-138239500D01*
X83311999Y-138225817D01*
X83243211Y-138239500D01*
X83243206Y-138239500D01*
X83039459Y-138280028D01*
X82808410Y-138434410D01*
X82769439Y-138492734D01*
X82739733Y-138522440D01*
X82681410Y-138561410D01*
X82642442Y-138619730D01*
X81083406Y-140178767D01*
X80820126Y-140178767D01*
X80439720Y-140336336D01*
X80238465Y-140537591D01*
X80212710Y-139017682D01*
X80215091Y-139016091D01*
X80369472Y-138785041D01*
X80420381Y-138529105D01*
X80437000Y-138488983D01*
X80437000Y-138117017D01*
X80304842Y-137797959D01*
X80332326Y-137779595D01*
X80511388Y-137779595D01*
X80855040Y-137637250D01*
X81118060Y-137374230D01*
X81260405Y-137030578D01*
X81260405Y-136896949D01*
X81328126Y-136925000D01*
X81739874Y-136925000D01*
X82120280Y-136767431D01*
X82411431Y-136476280D01*
X82569000Y-136095874D01*
X82569000Y-135796920D01*
X82591971Y-135762542D01*
X82632499Y-135558795D01*
X82632499Y-135558792D01*
X82646182Y-135490002D01*
X82632499Y-135421212D01*
X82632499Y-131207328D01*
X84284270Y-129555558D01*
X84342588Y-129516591D01*
X84381555Y-129458273D01*
X84381557Y-129458271D01*
X84496971Y-129285542D01*
X84517572Y-129181972D01*
X84537499Y-129081795D01*
X84537499Y-129081791D01*
X84551182Y-129013001D01*
X84537499Y-128944211D01*
X84537499Y-127341788D01*
X84551182Y-127272998D01*
X84537499Y-127204208D01*
X84537499Y-127204205D01*
X84496971Y-127000458D01*
X84474000Y-126966079D01*
X84474000Y-126667126D01*
X84316431Y-126286720D01*
X84025280Y-125995569D01*
X83644874Y-125838000D01*
X83233126Y-125838000D01*
X82852720Y-125995569D01*
X82561569Y-126286720D01*
X82404000Y-126667126D01*
X82404000Y-127078874D01*
X82561569Y-127459280D01*
X82630489Y-127528200D01*
X82344720Y-127646569D01*
X82286709Y-127704580D01*
X80247862Y-125665733D01*
X80208892Y-125607410D01*
X79977843Y-125453028D01*
X79774096Y-125412500D01*
X79774092Y-125412500D01*
X79705302Y-125398817D01*
X79636512Y-125412500D01*
X75972570Y-125412500D01*
X74866500Y-124306431D01*
X74866500Y-121375564D01*
X74880183Y-121306775D01*
X74866500Y-121237986D01*
X74866500Y-121237982D01*
X74825972Y-121034235D01*
X74741898Y-120908410D01*
X74710558Y-120861506D01*
X74710556Y-120861504D01*
X74671589Y-120803186D01*
X74613271Y-120764219D01*
X72161670Y-118312618D01*
X72254654Y-118219634D01*
X72396999Y-117875982D01*
X72396999Y-117504016D01*
X72254654Y-117160364D01*
X72124790Y-117030500D01*
X72293655Y-116861635D01*
X72436000Y-116517983D01*
X72436000Y-116146017D01*
X72293655Y-115802365D01*
X72030635Y-115539345D01*
X71686983Y-115397000D01*
X71315017Y-115397000D01*
X71310500Y-115398871D01*
X71310500Y-113960225D01*
X71382235Y-114008157D01*
X71630000Y-114057440D01*
X72901629Y-114057440D01*
X72934731Y-114079558D01*
X76013441Y-117158269D01*
X76052410Y-117216590D01*
X76283459Y-117370972D01*
X76487206Y-117411500D01*
X76487210Y-117411500D01*
X76555999Y-117425183D01*
X76624788Y-117411500D01*
X85275206Y-117411500D01*
X85344000Y-117425184D01*
X85412794Y-117411500D01*
X85616541Y-117370972D01*
X85847590Y-117216590D01*
X86001972Y-116985541D01*
X86056184Y-116713000D01*
X86042500Y-116644206D01*
X86042500Y-115785327D01*
X87770388Y-114057440D01*
X90930000Y-114057440D01*
X91177765Y-114008157D01*
X91367999Y-113881046D01*
X91368000Y-132561172D01*
X91368000Y-132561172D01*
G37*
X91368000Y-132561172D02*
X90344173Y-133585000D01*
X90091126Y-133585000D01*
X89710720Y-133742569D01*
X89419569Y-134033720D01*
X89262000Y-134414126D01*
X89262000Y-134825874D01*
X89419569Y-135206280D01*
X89710720Y-135497431D01*
X90091126Y-135655000D01*
X90502874Y-135655000D01*
X90883280Y-135497431D01*
X91174431Y-135206280D01*
X91332000Y-134825874D01*
X91332000Y-134572827D01*
X92511768Y-133393060D01*
X92570089Y-133354091D01*
X92724471Y-133123042D01*
X92762661Y-132931051D01*
X92909375Y-133150625D01*
X93207761Y-133350000D01*
X92909375Y-133549375D01*
X92581161Y-134040582D01*
X92465908Y-134620000D01*
X92581161Y-135199418D01*
X92909375Y-135690625D01*
X93207761Y-135890000D01*
X92909375Y-136089375D01*
X92581161Y-136580582D01*
X92465908Y-137160000D01*
X92581161Y-137739418D01*
X92909375Y-138230625D01*
X93207761Y-138430000D01*
X92909375Y-138629375D01*
X92581161Y-139120582D01*
X92465908Y-139700000D01*
X92581161Y-140279418D01*
X92909375Y-140770625D01*
X93207761Y-140970000D01*
X92909375Y-141169375D01*
X92581161Y-141660582D01*
X92465908Y-142240000D01*
X92581161Y-142819418D01*
X92909375Y-143310625D01*
X93207761Y-143510000D01*
X92909375Y-143709375D01*
X92660729Y-144081500D01*
X92524794Y-144081500D01*
X92456000Y-144067816D01*
X92387206Y-144081500D01*
X92183459Y-144122028D01*
X91952410Y-144276410D01*
X91913441Y-144334731D01*
X90232731Y-146015442D01*
X90174411Y-146054410D01*
X90135442Y-146112731D01*
X90020028Y-146285460D01*
X89965817Y-146558000D01*
X89979501Y-146626795D01*
X89979500Y-156428672D01*
X88148672Y-158259501D01*
X82029793Y-158259501D01*
X81960999Y-158245817D01*
X81892205Y-158259501D01*
X81688458Y-158300029D01*
X81654079Y-158323000D01*
X81475017Y-158323000D01*
X81131365Y-158465345D01*
X80868345Y-158728365D01*
X80835500Y-158807660D01*
X80802655Y-158728365D01*
X80539635Y-158465345D01*
X80195983Y-158323000D01*
X79824017Y-158323000D01*
X79480365Y-158465345D01*
X79217345Y-158728365D01*
X79075000Y-159072017D01*
X79075000Y-159443983D01*
X79217345Y-159787635D01*
X79480365Y-160050655D01*
X79824017Y-160193000D01*
X79957172Y-160193000D01*
X80080942Y-160316770D01*
X80119911Y-160375091D01*
X80350960Y-160529473D01*
X80554707Y-160570001D01*
X80554711Y-160570001D01*
X80623500Y-160583684D01*
X80692289Y-160570001D01*
X81994709Y-160570001D01*
X82063499Y-160583684D01*
X82132289Y-160570001D01*
X82132293Y-160570001D01*
X82336040Y-160529473D01*
X82567089Y-160375091D01*
X82606059Y-160316768D01*
X82889317Y-160033511D01*
X88525367Y-160033509D01*
X88594162Y-160047193D01*
X88866702Y-159992982D01*
X89039431Y-159877568D01*
X89097752Y-159838599D01*
X89136720Y-159780279D01*
X91504271Y-157412729D01*
X91562589Y-157373762D01*
X91601556Y-157315444D01*
X91601558Y-157315442D01*
X91716971Y-157142714D01*
X91716972Y-157142713D01*
X91757500Y-156938966D01*
X91757500Y-156938962D01*
X91771183Y-156870173D01*
X91757500Y-156801384D01*
X91757500Y-148879327D01*
X92618328Y-148018500D01*
X92660729Y-148018500D01*
X92909375Y-148390625D01*
X93207761Y-148590000D01*
X92909375Y-148789375D01*
X92581161Y-149280582D01*
X92465908Y-149860000D01*
X92581161Y-150439418D01*
X92909375Y-150930625D01*
X93207761Y-151130000D01*
X92909375Y-151329375D01*
X92581161Y-151820582D01*
X92465908Y-152400000D01*
X92581161Y-152979418D01*
X92909375Y-153470625D01*
X93207761Y-153670000D01*
X92909375Y-153869375D01*
X92581161Y-154360582D01*
X92465908Y-154940000D01*
X92581161Y-155519418D01*
X92909375Y-156010625D01*
X92927619Y-156022816D01*
X92882235Y-156031843D01*
X92672191Y-156172191D01*
X92531843Y-156382235D01*
X92482560Y-156630000D01*
X92482560Y-158330000D01*
X92531843Y-158577765D01*
X92672191Y-158787809D01*
X92882235Y-158928157D01*
X93130000Y-158977440D01*
X94830000Y-158977440D01*
X95077765Y-158928157D01*
X95287809Y-158787809D01*
X95302001Y-158766569D01*
X95302001Y-159188070D01*
X95302000Y-159188075D01*
X95302001Y-160977309D01*
X95248872Y-161296505D01*
X95123468Y-161528918D01*
X94929541Y-161708183D01*
X94674940Y-161820742D01*
X94443335Y-161850000D01*
X87306074Y-161850000D01*
X87262108Y-161858745D01*
X86908011Y-161903478D01*
X86867742Y-161915521D01*
X86825833Y-161918819D01*
X86709912Y-161958508D01*
X86252205Y-162160859D01*
X86205475Y-162191555D01*
X86154155Y-162213763D01*
X86057340Y-162288861D01*
X85689855Y-162628561D01*
X85655584Y-162672743D01*
X85614229Y-162710373D01*
X85546959Y-162812782D01*
X85309321Y-163253202D01*
X85291209Y-163306101D01*
X85264272Y-163355100D01*
X85233801Y-163473778D01*
X85153457Y-163956481D01*
X85142001Y-164014074D01*
X85142000Y-165501770D01*
X85063474Y-165406920D01*
X84635281Y-165180408D01*
X84597609Y-165176538D01*
X84407000Y-165301269D01*
X84407000Y-166593000D01*
X84427000Y-166593000D01*
X84427000Y-166847000D01*
X84407000Y-166847000D01*
X84407000Y-166867000D01*
X84153000Y-166867000D01*
X84153000Y-166847000D01*
X83045000Y-166847000D01*
X83045000Y-167197000D01*
X83119240Y-167438000D01*
X78440760Y-167438000D01*
X78515000Y-167197000D01*
X78515000Y-166847000D01*
X77407000Y-166847000D01*
X77407000Y-166867000D01*
X77153000Y-166867000D01*
X77153000Y-166847000D01*
X77133000Y-166847000D01*
X77133000Y-166593000D01*
X77153000Y-166593000D01*
X77153000Y-165301269D01*
X77407000Y-165301269D01*
X77407000Y-166593000D01*
X78515000Y-166593000D01*
X78515000Y-166243000D01*
X78372390Y-165780053D01*
X78063474Y-165406920D01*
X77944232Y-165343842D01*
X78081146Y-165392312D01*
X78621444Y-165363949D01*
X78988878Y-165211753D01*
X79053793Y-164973398D01*
X82506207Y-164973398D01*
X82571122Y-165211753D01*
X83081146Y-165392312D01*
X83572945Y-165366495D01*
X83496526Y-165406920D01*
X83187610Y-165780053D01*
X83045000Y-166243000D01*
X83045000Y-166593000D01*
X84153000Y-166593000D01*
X84153000Y-165301269D01*
X83993012Y-165196576D01*
X84053793Y-164973398D01*
X83280000Y-164199605D01*
X82506207Y-164973398D01*
X79053793Y-164973398D01*
X78280000Y-164199605D01*
X77506207Y-164973398D01*
X77566988Y-165196576D01*
X77407000Y-165301269D01*
X77153000Y-165301269D01*
X76962391Y-165176538D01*
X76924719Y-165180408D01*
X76496526Y-165406920D01*
X76187610Y-165780053D01*
X76148000Y-165908637D01*
X76148000Y-164014074D01*
X76139255Y-163970108D01*
X76120437Y-163821146D01*
X76907688Y-163821146D01*
X76936051Y-164361444D01*
X77088247Y-164728878D01*
X77326602Y-164793793D01*
X78100395Y-164020000D01*
X78459605Y-164020000D01*
X79233398Y-164793793D01*
X79471753Y-164728878D01*
X79652312Y-164218854D01*
X79631435Y-163821146D01*
X81907688Y-163821146D01*
X81936051Y-164361444D01*
X82088247Y-164728878D01*
X82326602Y-164793793D01*
X83100395Y-164020000D01*
X83459605Y-164020000D01*
X84233398Y-164793793D01*
X84471753Y-164728878D01*
X84652312Y-164218854D01*
X84623949Y-163678556D01*
X84471753Y-163311122D01*
X84233398Y-163246207D01*
X83459605Y-164020000D01*
X83100395Y-164020000D01*
X82326602Y-163246207D01*
X82088247Y-163311122D01*
X81907688Y-163821146D01*
X79631435Y-163821146D01*
X79623949Y-163678556D01*
X79471753Y-163311122D01*
X79233398Y-163246207D01*
X78459605Y-164020000D01*
X78100395Y-164020000D01*
X77326602Y-163246207D01*
X77088247Y-163311122D01*
X76907688Y-163821146D01*
X76120437Y-163821146D01*
X76094522Y-163616011D01*
X76082479Y-163575742D01*
X76079181Y-163533833D01*
X76039492Y-163417912D01*
X75884179Y-163066602D01*
X77506207Y-163066602D01*
X78280000Y-163840395D01*
X79053793Y-163066602D01*
X82506207Y-163066602D01*
X83280000Y-163840395D01*
X84053793Y-163066602D01*
X83988878Y-162828247D01*
X83478854Y-162647688D01*
X82938556Y-162676051D01*
X82571122Y-162828247D01*
X82506207Y-163066602D01*
X79053793Y-163066602D01*
X78988878Y-162828247D01*
X78478854Y-162647688D01*
X77938556Y-162676051D01*
X77571122Y-162828247D01*
X77506207Y-163066602D01*
X75884179Y-163066602D01*
X75837141Y-162960205D01*
X75806445Y-162913475D01*
X75784237Y-162862155D01*
X75709139Y-162765340D01*
X75369439Y-162397855D01*
X75325257Y-162363584D01*
X75287627Y-162322229D01*
X75185218Y-162254959D01*
X74744798Y-162017321D01*
X74691899Y-161999209D01*
X74642900Y-161972272D01*
X74524226Y-161941802D01*
X74524223Y-161941801D01*
X74524222Y-161941801D01*
X74041550Y-161861462D01*
X73983926Y-161850000D01*
X68130685Y-161850000D01*
X67811495Y-161796872D01*
X67579082Y-161671468D01*
X67399817Y-161477541D01*
X67287258Y-161222940D01*
X67258000Y-160991335D01*
X67258000Y-158174416D01*
X67509375Y-158550625D01*
X68000582Y-158878839D01*
X68433744Y-158965000D01*
X68726256Y-158965000D01*
X69159418Y-158878839D01*
X69650625Y-158550625D01*
X69978839Y-158059418D01*
X70094092Y-157480000D01*
X69978839Y-156900582D01*
X69650625Y-156409375D01*
X69352239Y-156210000D01*
X69650625Y-156010625D01*
X69978839Y-155519418D01*
X70094092Y-154940000D01*
X69978839Y-154360582D01*
X69650625Y-153869375D01*
X69352239Y-153670000D01*
X69650625Y-153470625D01*
X69978839Y-152979418D01*
X70094092Y-152400000D01*
X69978839Y-151820582D01*
X69650625Y-151329375D01*
X69352239Y-151130000D01*
X69650625Y-150930625D01*
X69978839Y-150439418D01*
X70094092Y-149860000D01*
X69978839Y-149280582D01*
X69650625Y-148789375D01*
X69352239Y-148590000D01*
X69650625Y-148390625D01*
X69978839Y-147899418D01*
X70094092Y-147320000D01*
X69978839Y-146740582D01*
X69650625Y-146249375D01*
X69352239Y-146050000D01*
X69650625Y-145850625D01*
X69978839Y-145359418D01*
X70094092Y-144780000D01*
X69978839Y-144200582D01*
X69650625Y-143709375D01*
X69352239Y-143510000D01*
X69650625Y-143310625D01*
X69978839Y-142819418D01*
X70094092Y-142240000D01*
X69978839Y-141660582D01*
X69650625Y-141169375D01*
X69352239Y-140970000D01*
X69650625Y-140770625D01*
X69978839Y-140279418D01*
X70094092Y-139700000D01*
X69978839Y-139120582D01*
X69650625Y-138629375D01*
X69352239Y-138430000D01*
X69650625Y-138230625D01*
X69978839Y-137739418D01*
X70094092Y-137160000D01*
X69978839Y-136580582D01*
X69650625Y-136089375D01*
X69352239Y-135890000D01*
X69650625Y-135690625D01*
X69928891Y-135274170D01*
X69954028Y-135400540D01*
X70108410Y-135631589D01*
X70166731Y-135670558D01*
X72086037Y-137589866D01*
X72125004Y-137648184D01*
X72183322Y-137687151D01*
X72183324Y-137687153D01*
X72356053Y-137802566D01*
X72628594Y-137856778D01*
X72697388Y-137843094D01*
X78680462Y-137843094D01*
X78567000Y-138117017D01*
X78567000Y-138488983D01*
X78709345Y-138832635D01*
X78814151Y-138937441D01*
X78985040Y-149022329D01*
X78945280Y-148982569D01*
X78564874Y-148825000D01*
X78153126Y-148825000D01*
X77772720Y-148982569D01*
X77502522Y-149252767D01*
X77405730Y-149317441D01*
X77405728Y-149317443D01*
X77347410Y-149356410D01*
X77308443Y-149414728D01*
X74215173Y-152508000D01*
X73962126Y-152508000D01*
X73581720Y-152665569D01*
X73290569Y-152956720D01*
X73133000Y-153337126D01*
X73133000Y-153748874D01*
X73290569Y-154129280D01*
X73581720Y-154420431D01*
X73962126Y-154578000D01*
X74373874Y-154578000D01*
X74754280Y-154420431D01*
X75045431Y-154129280D01*
X75203000Y-153748874D01*
X75203000Y-153495827D01*
X77906135Y-150792693D01*
X78153126Y-150895000D01*
X78495172Y-150895000D01*
X77024731Y-152365442D01*
X76966411Y-152404410D01*
X76927442Y-152462731D01*
X76812028Y-152635460D01*
X76757817Y-152908000D01*
X76771501Y-152976795D01*
X76771500Y-154890729D01*
X76399375Y-155139375D01*
X76387184Y-155157619D01*
X76378157Y-155112235D01*
X76237809Y-154902191D01*
X76027765Y-154761843D01*
X75780000Y-154712560D01*
X74080000Y-154712560D01*
X73832235Y-154761843D01*
X73622191Y-154902191D01*
X73481843Y-155112235D01*
X73432560Y-155360000D01*
X73432560Y-157060000D01*
X73481843Y-157307765D01*
X73622191Y-157517809D01*
X73832235Y-157658157D01*
X74080000Y-157707440D01*
X75780000Y-157707440D01*
X76027765Y-157658157D01*
X76237809Y-157517809D01*
X76378157Y-157307765D01*
X76387184Y-157262381D01*
X76399375Y-157280625D01*
X76890582Y-157608839D01*
X77323744Y-157695000D01*
X77616256Y-157695000D01*
X78049418Y-157608839D01*
X78540625Y-157280625D01*
X78740000Y-156982239D01*
X78939375Y-157280625D01*
X79430582Y-157608839D01*
X79863744Y-157695000D01*
X80156256Y-157695000D01*
X80589418Y-157608839D01*
X81080625Y-157280625D01*
X81280000Y-156982239D01*
X81479375Y-157280625D01*
X81970582Y-157608839D01*
X82403744Y-157695000D01*
X82696256Y-157695000D01*
X83129418Y-157608839D01*
X83620625Y-157280625D01*
X83820000Y-156982239D01*
X84019375Y-157280625D01*
X84510582Y-157608839D01*
X84943744Y-157695000D01*
X85236256Y-157695000D01*
X85669418Y-157608839D01*
X86160625Y-157280625D01*
X86373843Y-156961522D01*
X86434817Y-157091358D01*
X86863076Y-157481645D01*
X87273110Y-157651476D01*
X87503000Y-157530155D01*
X87503000Y-156337000D01*
X87757000Y-156337000D01*
X87757000Y-157530155D01*
X87986890Y-157651476D01*
X88396924Y-157481645D01*
X88825183Y-157091358D01*
X89071486Y-156566892D01*
X88950819Y-156337000D01*
X87757000Y-156337000D01*
X87503000Y-156337000D01*
X87483000Y-156337000D01*
X87483000Y-156083000D01*
X87503000Y-156083000D01*
X87503000Y-154889845D01*
X87757000Y-154889845D01*
X87757000Y-156083000D01*
X88950819Y-156083000D01*
X89071486Y-155853108D01*
X88825183Y-155328642D01*
X88396924Y-154938355D01*
X87986890Y-154768524D01*
X87757000Y-154889845D01*
X87503000Y-154889845D01*
X87273110Y-154768524D01*
X86863076Y-154938355D01*
X86434817Y-155328642D01*
X86373843Y-155458478D01*
X86160625Y-155139375D01*
X85669418Y-154811161D01*
X85236256Y-154725000D01*
X85022828Y-154725000D01*
X85154269Y-154593559D01*
X85212590Y-154554590D01*
X85366972Y-154323541D01*
X85407500Y-154119794D01*
X85407500Y-154119790D01*
X85421183Y-154051001D01*
X85407500Y-153982212D01*
X85407500Y-140831790D01*
X85501655Y-140737635D01*
X85554579Y-140609864D01*
X85656983Y-140609864D01*
X86000635Y-140467519D01*
X86263655Y-140204499D01*
X86406000Y-139860847D01*
X86406000Y-139636500D01*
X86976000Y-139636500D01*
X86976000Y-139778874D01*
X87133569Y-140159280D01*
X87424720Y-140450431D01*
X87805126Y-140608000D01*
X88216874Y-140608000D01*
X88597280Y-140450431D01*
X88888431Y-140159280D01*
X89046000Y-139778874D01*
X89046000Y-139367126D01*
X88888431Y-138986720D01*
X88597280Y-138695569D01*
X88216874Y-138538000D01*
X87963827Y-138538000D01*
X87918560Y-138492733D01*
X87879590Y-138434410D01*
X87648541Y-138280028D01*
X87444794Y-138239500D01*
X87444790Y-138239500D01*
X87376000Y-138225817D01*
X87307210Y-138239500D01*
X83380788Y-138239500D01*
X83311999Y-138225817D01*
X83243211Y-138239500D01*
X83243206Y-138239500D01*
X83039459Y-138280028D01*
X82808410Y-138434410D01*
X82769439Y-138492734D01*
X82739733Y-138522440D01*
X82681410Y-138561410D01*
X82642442Y-138619730D01*
X81083406Y-140178767D01*
X80820126Y-140178767D01*
X80439720Y-140336336D01*
X80238465Y-140537591D01*
X80212710Y-139017682D01*
X80215091Y-139016091D01*
X80369472Y-138785041D01*
X80420381Y-138529105D01*
X80437000Y-138488983D01*
X80437000Y-138117017D01*
X80304842Y-137797959D01*
X80332326Y-137779595D01*
X80511388Y-137779595D01*
X80855040Y-137637250D01*
X81118060Y-137374230D01*
X81260405Y-137030578D01*
X81260405Y-136896949D01*
X81328126Y-136925000D01*
X81739874Y-136925000D01*
X82120280Y-136767431D01*
X82411431Y-136476280D01*
X82569000Y-136095874D01*
X82569000Y-135796920D01*
X82591971Y-135762542D01*
X82632499Y-135558795D01*
X82632499Y-135558792D01*
X82646182Y-135490002D01*
X82632499Y-135421212D01*
X82632499Y-131207328D01*
X84284270Y-129555558D01*
X84342588Y-129516591D01*
X84381555Y-129458273D01*
X84381557Y-129458271D01*
X84496971Y-129285542D01*
X84517572Y-129181972D01*
X84537499Y-129081795D01*
X84537499Y-129081791D01*
X84551182Y-129013001D01*
X84537499Y-128944211D01*
X84537499Y-127341788D01*
X84551182Y-127272998D01*
X84537499Y-127204208D01*
X84537499Y-127204205D01*
X84496971Y-127000458D01*
X84474000Y-126966079D01*
X84474000Y-126667126D01*
X84316431Y-126286720D01*
X84025280Y-125995569D01*
X83644874Y-125838000D01*
X83233126Y-125838000D01*
X82852720Y-125995569D01*
X82561569Y-126286720D01*
X82404000Y-126667126D01*
X82404000Y-127078874D01*
X82561569Y-127459280D01*
X82630489Y-127528200D01*
X82344720Y-127646569D01*
X82286709Y-127704580D01*
X80247862Y-125665733D01*
X80208892Y-125607410D01*
X79977843Y-125453028D01*
X79774096Y-125412500D01*
X79774092Y-125412500D01*
X79705302Y-125398817D01*
X79636512Y-125412500D01*
X75972570Y-125412500D01*
X74866500Y-124306431D01*
X74866500Y-121375564D01*
X74880183Y-121306775D01*
X74866500Y-121237986D01*
X74866500Y-121237982D01*
X74825972Y-121034235D01*
X74741898Y-120908410D01*
X74710558Y-120861506D01*
X74710556Y-120861504D01*
X74671589Y-120803186D01*
X74613271Y-120764219D01*
X72161670Y-118312618D01*
X72254654Y-118219634D01*
X72396999Y-117875982D01*
X72396999Y-117504016D01*
X72254654Y-117160364D01*
X72124790Y-117030500D01*
X72293655Y-116861635D01*
X72436000Y-116517983D01*
X72436000Y-116146017D01*
X72293655Y-115802365D01*
X72030635Y-115539345D01*
X71686983Y-115397000D01*
X71315017Y-115397000D01*
X71310500Y-115398871D01*
X71310500Y-113960225D01*
X71382235Y-114008157D01*
X71630000Y-114057440D01*
X72901629Y-114057440D01*
X72934731Y-114079558D01*
X76013441Y-117158269D01*
X76052410Y-117216590D01*
X76283459Y-117370972D01*
X76487206Y-117411500D01*
X76487210Y-117411500D01*
X76555999Y-117425183D01*
X76624788Y-117411500D01*
X85275206Y-117411500D01*
X85344000Y-117425184D01*
X85412794Y-117411500D01*
X85616541Y-117370972D01*
X85847590Y-117216590D01*
X86001972Y-116985541D01*
X86056184Y-116713000D01*
X86042500Y-116644206D01*
X86042500Y-115785327D01*
X87770388Y-114057440D01*
X90930000Y-114057440D01*
X91177765Y-114008157D01*
X91367999Y-113881046D01*
X91368000Y-132561172D01*
G36*
X81978500Y-148840789D02*
X81799569Y-149019720D01*
X81642000Y-149400126D01*
X81642000Y-149811874D01*
X81799569Y-150192280D01*
X82090720Y-150483431D01*
X82471126Y-150641000D01*
X82882874Y-150641000D01*
X83263280Y-150483431D01*
X83554431Y-150192280D01*
X83712000Y-149811874D01*
X83712000Y-149400126D01*
X83554431Y-149019720D01*
X83375500Y-148840789D01*
X83375500Y-148516094D01*
X83520126Y-148576000D01*
X83756501Y-148576000D01*
X83756501Y-152999671D01*
X83530672Y-153225500D01*
X80459788Y-153225500D01*
X80390999Y-153211817D01*
X80322210Y-153225500D01*
X80322206Y-153225500D01*
X80118459Y-153266028D01*
X79887410Y-153420410D01*
X79848439Y-153478734D01*
X79564731Y-153762442D01*
X79506410Y-153801411D01*
X79352028Y-154032460D01*
X79311500Y-154236207D01*
X79311500Y-154236210D01*
X79297817Y-154305000D01*
X79311500Y-154373790D01*
X79311500Y-154890729D01*
X78939375Y-155139375D01*
X78740000Y-155437761D01*
X78540625Y-155139375D01*
X78168500Y-154890729D01*
X78168500Y-153197327D01*
X80160995Y-151204833D01*
X80223550Y-151161484D01*
X80295562Y-151049655D01*
X80369472Y-150939040D01*
X80370670Y-150933018D01*
X80373996Y-150927853D01*
X80397739Y-150796932D01*
X80423684Y-150666500D01*
X80408836Y-150591855D01*
X80301357Y-144249068D01*
X80439720Y-144387431D01*
X80820126Y-144545000D01*
X81231874Y-144545000D01*
X81612280Y-144387431D01*
X81903431Y-144096280D01*
X81978501Y-143915045D01*
X81978500Y-148840789D01*
X81978500Y-148840789D01*
G37*
X81978500Y-148840789D02*
X81799569Y-149019720D01*
X81642000Y-149400126D01*
X81642000Y-149811874D01*
X81799569Y-150192280D01*
X82090720Y-150483431D01*
X82471126Y-150641000D01*
X82882874Y-150641000D01*
X83263280Y-150483431D01*
X83554431Y-150192280D01*
X83712000Y-149811874D01*
X83712000Y-149400126D01*
X83554431Y-149019720D01*
X83375500Y-148840789D01*
X83375500Y-148516094D01*
X83520126Y-148576000D01*
X83756501Y-148576000D01*
X83756501Y-152999671D01*
X83530672Y-153225500D01*
X80459788Y-153225500D01*
X80390999Y-153211817D01*
X80322210Y-153225500D01*
X80322206Y-153225500D01*
X80118459Y-153266028D01*
X79887410Y-153420410D01*
X79848439Y-153478734D01*
X79564731Y-153762442D01*
X79506410Y-153801411D01*
X79352028Y-154032460D01*
X79311500Y-154236207D01*
X79311500Y-154236210D01*
X79297817Y-154305000D01*
X79311500Y-154373790D01*
X79311500Y-154890729D01*
X78939375Y-155139375D01*
X78740000Y-155437761D01*
X78540625Y-155139375D01*
X78168500Y-154890729D01*
X78168500Y-153197327D01*
X80160995Y-151204833D01*
X80223550Y-151161484D01*
X80295562Y-151049655D01*
X80369472Y-150939040D01*
X80370670Y-150933018D01*
X80373996Y-150927853D01*
X80397739Y-150796932D01*
X80423684Y-150666500D01*
X80408836Y-150591855D01*
X80301357Y-144249068D01*
X80439720Y-144387431D01*
X80820126Y-144545000D01*
X81231874Y-144545000D01*
X81612280Y-144387431D01*
X81903431Y-144096280D01*
X81978501Y-143915045D01*
X81978500Y-148840789D01*
G36*
X73215501Y-121701329D02*
X73215500Y-124632192D01*
X73201817Y-124700982D01*
X73215500Y-124769772D01*
X73215500Y-124769775D01*
X73256028Y-124973522D01*
X73410410Y-125204571D01*
X73468731Y-125243540D01*
X80115459Y-131890269D01*
X80154428Y-131948590D01*
X80385477Y-132102972D01*
X80563173Y-132138318D01*
X80658018Y-132157184D01*
X80667924Y-132155214D01*
X80750365Y-132237655D01*
X81094017Y-132380000D01*
X81235500Y-132380000D01*
X81235499Y-134893367D01*
X80947720Y-135012569D01*
X80656569Y-135303720D01*
X80499000Y-135684126D01*
X80499000Y-135909595D01*
X80139422Y-135909595D01*
X79795770Y-136051940D01*
X79532750Y-136314960D01*
X79478433Y-136446094D01*
X72917923Y-136446094D01*
X71310500Y-134838673D01*
X71310500Y-119796327D01*
X73215501Y-121701329D01*
X73215501Y-121701329D01*
G37*
X73215501Y-121701329D02*
X73215500Y-124632192D01*
X73201817Y-124700982D01*
X73215500Y-124769772D01*
X73215500Y-124769775D01*
X73256028Y-124973522D01*
X73410410Y-125204571D01*
X73468731Y-125243540D01*
X80115459Y-131890269D01*
X80154428Y-131948590D01*
X80385477Y-132102972D01*
X80563173Y-132138318D01*
X80658018Y-132157184D01*
X80667924Y-132155214D01*
X80750365Y-132237655D01*
X81094017Y-132380000D01*
X81235500Y-132380000D01*
X81235499Y-134893367D01*
X80947720Y-135012569D01*
X80656569Y-135303720D01*
X80499000Y-135684126D01*
X80499000Y-135909595D01*
X80139422Y-135909595D01*
X79795770Y-136051940D01*
X79532750Y-136314960D01*
X79478433Y-136446094D01*
X72917923Y-136446094D01*
X71310500Y-134838673D01*
X71310500Y-119796327D01*
X73215501Y-121701329D01*
G36*
X93925698Y-107452958D02*
X94350893Y-107621305D01*
X94720858Y-107890101D01*
X94792871Y-107977149D01*
X94559418Y-107821161D01*
X94126256Y-107735000D01*
X93833744Y-107735000D01*
X93400582Y-107821161D01*
X92909375Y-108149375D01*
X92581161Y-108640582D01*
X92465908Y-109220000D01*
X92581161Y-109799418D01*
X92909375Y-110290625D01*
X93207761Y-110490000D01*
X92909375Y-110689375D01*
X92581161Y-111180582D01*
X92465908Y-111760000D01*
X92553221Y-112198952D01*
X91621230Y-113130943D01*
X91577440Y-113160203D01*
X91577440Y-110110000D01*
X91528157Y-109862235D01*
X91387809Y-109652191D01*
X91177765Y-109511843D01*
X90930000Y-109462560D01*
X87430000Y-109462560D01*
X87182235Y-109511843D01*
X86972191Y-109652191D01*
X86831843Y-109862235D01*
X86782560Y-110110000D01*
X86782560Y-113069612D01*
X84898731Y-114953442D01*
X84840411Y-114992410D01*
X84801442Y-115050731D01*
X84686028Y-115223460D01*
X84631817Y-115496000D01*
X84645501Y-115564794D01*
X84645501Y-116014500D01*
X76845328Y-116014500D01*
X74888267Y-114057440D01*
X75130000Y-114057440D01*
X75377765Y-114008157D01*
X75587809Y-113867809D01*
X75728157Y-113657765D01*
X75777440Y-113410000D01*
X75777440Y-112045750D01*
X78645000Y-112045750D01*
X78645000Y-113886310D01*
X78741673Y-114119699D01*
X78920302Y-114298327D01*
X79153691Y-114395000D01*
X80994250Y-114395000D01*
X81153000Y-114236250D01*
X81153000Y-111887000D01*
X81407000Y-111887000D01*
X81407000Y-114236250D01*
X81565750Y-114395000D01*
X83406309Y-114395000D01*
X83639698Y-114298327D01*
X83818327Y-114119699D01*
X83915000Y-113886310D01*
X83915000Y-112045750D01*
X83756250Y-111887000D01*
X81407000Y-111887000D01*
X81153000Y-111887000D01*
X78803750Y-111887000D01*
X78645000Y-112045750D01*
X75777440Y-112045750D01*
X75777440Y-110110000D01*
X75728157Y-109862235D01*
X75587809Y-109652191D01*
X75560121Y-109633690D01*
X78645000Y-109633690D01*
X78645000Y-111474250D01*
X78803750Y-111633000D01*
X81153000Y-111633000D01*
X81153000Y-109283750D01*
X81407000Y-109283750D01*
X81407000Y-111633000D01*
X83756250Y-111633000D01*
X83915000Y-111474250D01*
X83915000Y-109633690D01*
X83818327Y-109400301D01*
X83639698Y-109221673D01*
X83406309Y-109125000D01*
X81565750Y-109125000D01*
X81407000Y-109283750D01*
X81153000Y-109283750D01*
X80994250Y-109125000D01*
X79153691Y-109125000D01*
X78920302Y-109221673D01*
X78741673Y-109400301D01*
X78645000Y-109633690D01*
X75560121Y-109633690D01*
X75377765Y-109511843D01*
X75130000Y-109462560D01*
X71630000Y-109462560D01*
X71382235Y-109511843D01*
X71172191Y-109652191D01*
X71031843Y-109862235D01*
X70982560Y-110110000D01*
X70982560Y-113174732D01*
X70006779Y-112198952D01*
X70094092Y-111760000D01*
X69978839Y-111180582D01*
X69650625Y-110689375D01*
X69632381Y-110677184D01*
X69677765Y-110668157D01*
X69887809Y-110527809D01*
X70028157Y-110317765D01*
X70077440Y-110070000D01*
X70077440Y-108370000D01*
X70028157Y-108122235D01*
X69887809Y-107912191D01*
X69677765Y-107771843D01*
X69430000Y-107722560D01*
X68058585Y-107722560D01*
X68110462Y-107679644D01*
X68524244Y-107484933D01*
X69006662Y-107392907D01*
X69099164Y-107390000D01*
X93427334Y-107390000D01*
X93925698Y-107452958D01*
X93925698Y-107452958D01*
G37*
X93925698Y-107452958D02*
X94350893Y-107621305D01*
X94720858Y-107890101D01*
X94792871Y-107977149D01*
X94559418Y-107821161D01*
X94126256Y-107735000D01*
X93833744Y-107735000D01*
X93400582Y-107821161D01*
X92909375Y-108149375D01*
X92581161Y-108640582D01*
X92465908Y-109220000D01*
X92581161Y-109799418D01*
X92909375Y-110290625D01*
X93207761Y-110490000D01*
X92909375Y-110689375D01*
X92581161Y-111180582D01*
X92465908Y-111760000D01*
X92553221Y-112198952D01*
X91621230Y-113130943D01*
X91577440Y-113160203D01*
X91577440Y-110110000D01*
X91528157Y-109862235D01*
X91387809Y-109652191D01*
X91177765Y-109511843D01*
X90930000Y-109462560D01*
X87430000Y-109462560D01*
X87182235Y-109511843D01*
X86972191Y-109652191D01*
X86831843Y-109862235D01*
X86782560Y-110110000D01*
X86782560Y-113069612D01*
X84898731Y-114953442D01*
X84840411Y-114992410D01*
X84801442Y-115050731D01*
X84686028Y-115223460D01*
X84631817Y-115496000D01*
X84645501Y-115564794D01*
X84645501Y-116014500D01*
X76845328Y-116014500D01*
X74888267Y-114057440D01*
X75130000Y-114057440D01*
X75377765Y-114008157D01*
X75587809Y-113867809D01*
X75728157Y-113657765D01*
X75777440Y-113410000D01*
X75777440Y-112045750D01*
X78645000Y-112045750D01*
X78645000Y-113886310D01*
X78741673Y-114119699D01*
X78920302Y-114298327D01*
X79153691Y-114395000D01*
X80994250Y-114395000D01*
X81153000Y-114236250D01*
X81153000Y-111887000D01*
X81407000Y-111887000D01*
X81407000Y-114236250D01*
X81565750Y-114395000D01*
X83406309Y-114395000D01*
X83639698Y-114298327D01*
X83818327Y-114119699D01*
X83915000Y-113886310D01*
X83915000Y-112045750D01*
X83756250Y-111887000D01*
X81407000Y-111887000D01*
X81153000Y-111887000D01*
X78803750Y-111887000D01*
X78645000Y-112045750D01*
X75777440Y-112045750D01*
X75777440Y-110110000D01*
X75728157Y-109862235D01*
X75587809Y-109652191D01*
X75560121Y-109633690D01*
X78645000Y-109633690D01*
X78645000Y-111474250D01*
X78803750Y-111633000D01*
X81153000Y-111633000D01*
X81153000Y-109283750D01*
X81407000Y-109283750D01*
X81407000Y-111633000D01*
X83756250Y-111633000D01*
X83915000Y-111474250D01*
X83915000Y-109633690D01*
X83818327Y-109400301D01*
X83639698Y-109221673D01*
X83406309Y-109125000D01*
X81565750Y-109125000D01*
X81407000Y-109283750D01*
X81153000Y-109283750D01*
X80994250Y-109125000D01*
X79153691Y-109125000D01*
X78920302Y-109221673D01*
X78741673Y-109400301D01*
X78645000Y-109633690D01*
X75560121Y-109633690D01*
X75377765Y-109511843D01*
X75130000Y-109462560D01*
X71630000Y-109462560D01*
X71382235Y-109511843D01*
X71172191Y-109652191D01*
X71031843Y-109862235D01*
X70982560Y-110110000D01*
X70982560Y-113174732D01*
X70006779Y-112198952D01*
X70094092Y-111760000D01*
X69978839Y-111180582D01*
X69650625Y-110689375D01*
X69632381Y-110677184D01*
X69677765Y-110668157D01*
X69887809Y-110527809D01*
X70028157Y-110317765D01*
X70077440Y-110070000D01*
X70077440Y-108370000D01*
X70028157Y-108122235D01*
X69887809Y-107912191D01*
X69677765Y-107771843D01*
X69430000Y-107722560D01*
X68058585Y-107722560D01*
X68110462Y-107679644D01*
X68524244Y-107484933D01*
X69006662Y-107392907D01*
X69099164Y-107390000D01*
X93427334Y-107390000D01*
X93925698Y-107452958D01*
G04 #@! TD*
M02*
