G04 #@! TF.GenerationSoftware,KiCad,Pcbnew,(5.0.0)*
G04 #@! TF.CreationDate,2018-12-13T18:38:50+00:00*
G04 #@! TF.ProjectId,mogo,6D6F676F2E6B696361645F7063620000,rev?*
G04 #@! TF.SameCoordinates,Original*
G04 #@! TF.FileFunction,Copper,L1,Top,Signal*
G04 #@! TF.FilePolarity,Positive*
%FSLAX46Y46*%
G04 Gerber Fmt 4.6, Leading zero omitted, Abs format (unit mm)*
G04 Created by KiCad (PCBNEW (5.0.0)) date 12/13/18 18:38:50*
%MOMM*%
%LPD*%
G01*
G04 APERTURE LIST*
G04 #@! TA.AperFunction,SMDPad,CuDef*
%ADD10C,1.200000*%
G04 #@! TD*
G04 #@! TA.AperFunction,Conductor*
%ADD11C,0.100000*%
G04 #@! TD*
G04 #@! TA.AperFunction,SMDPad,CuDef*
%ADD12C,0.250000*%
G04 #@! TD*
G04 #@! TA.AperFunction,ComponentPad*
%ADD13R,1.700000X1.700000*%
G04 #@! TD*
G04 #@! TA.AperFunction,ComponentPad*
%ADD14O,1.700000X1.700000*%
G04 #@! TD*
G04 #@! TA.AperFunction,SMDPad,CuDef*
%ADD15C,0.750000*%
G04 #@! TD*
G04 #@! TA.AperFunction,SMDPad,CuDef*
%ADD16R,0.750000X0.800000*%
G04 #@! TD*
G04 #@! TA.AperFunction,SMDPad,CuDef*
%ADD17R,0.500000X0.500000*%
G04 #@! TD*
G04 #@! TA.AperFunction,SMDPad,CuDef*
%ADD18R,1.200000X1.900000*%
G04 #@! TD*
G04 #@! TA.AperFunction,ComponentPad*
%ADD19O,1.200000X1.900000*%
G04 #@! TD*
G04 #@! TA.AperFunction,SMDPad,CuDef*
%ADD20R,1.500000X1.900000*%
G04 #@! TD*
G04 #@! TA.AperFunction,ComponentPad*
%ADD21C,1.450000*%
G04 #@! TD*
G04 #@! TA.AperFunction,SMDPad,CuDef*
%ADD22R,0.400000X1.350000*%
G04 #@! TD*
G04 #@! TA.AperFunction,SMDPad,CuDef*
%ADD23R,0.900000X0.800000*%
G04 #@! TD*
G04 #@! TA.AperFunction,SMDPad,CuDef*
%ADD24C,0.500000*%
G04 #@! TD*
G04 #@! TA.AperFunction,SMDPad,CuDef*
%ADD25R,0.900000X0.500000*%
G04 #@! TD*
G04 #@! TA.AperFunction,SMDPad,CuDef*
%ADD26R,0.500000X0.900000*%
G04 #@! TD*
G04 #@! TA.AperFunction,SMDPad,CuDef*
%ADD27R,0.600000X1.550000*%
G04 #@! TD*
G04 #@! TA.AperFunction,SMDPad,CuDef*
%ADD28R,0.800000X0.900000*%
G04 #@! TD*
G04 #@! TA.AperFunction,ComponentPad*
%ADD29C,1.000000*%
G04 #@! TD*
G04 #@! TA.AperFunction,SMDPad,CuDef*
%ADD30R,1.700000X1.000000*%
G04 #@! TD*
G04 #@! TA.AperFunction,ViaPad*
%ADD31C,0.800000*%
G04 #@! TD*
G04 #@! TA.AperFunction,ViaPad*
%ADD32C,0.600000*%
G04 #@! TD*
G04 #@! TA.AperFunction,Conductor*
%ADD33C,0.127000*%
G04 #@! TD*
G04 #@! TA.AperFunction,Conductor*
%ADD34C,0.254000*%
G04 #@! TD*
G04 APERTURE END LIST*
D10*
G04 #@! TO.P,Y1,4*
G04 #@! TO.N,GND*
X77247635Y-132302365D03*
D11*
G04 #@! TD*
G04 #@! TO.N,GND*
G04 #@! TO.C,Y1*
G36*
X77318346Y-131383126D02*
X78166874Y-132231654D01*
X77176924Y-133221604D01*
X76328396Y-132373076D01*
X77318346Y-131383126D01*
X77318346Y-131383126D01*
G37*
D10*
G04 #@! TO.P,Y1,3*
G04 #@! TO.N,Net-(C2-Pad1)*
X75692000Y-133858000D03*
D11*
G04 #@! TD*
G04 #@! TO.N,Net-(C2-Pad1)*
G04 #@! TO.C,Y1*
G36*
X75762711Y-132938761D02*
X76611239Y-133787289D01*
X75621289Y-134777239D01*
X74772761Y-133928711D01*
X75762711Y-132938761D01*
X75762711Y-132938761D01*
G37*
D10*
G04 #@! TO.P,Y1,2*
G04 #@! TO.N,GND*
X74560629Y-132726629D03*
D11*
G04 #@! TD*
G04 #@! TO.N,GND*
G04 #@! TO.C,Y1*
G36*
X74631340Y-131807390D02*
X75479868Y-132655918D01*
X74489918Y-133645868D01*
X73641390Y-132797340D01*
X74631340Y-131807390D01*
X74631340Y-131807390D01*
G37*
D10*
G04 #@! TO.P,Y1,1*
G04 #@! TO.N,Net-(C1-Pad1)*
X76116264Y-131170994D03*
D11*
G04 #@! TD*
G04 #@! TO.N,Net-(C1-Pad1)*
G04 #@! TO.C,Y1*
G36*
X76186975Y-130251755D02*
X77035503Y-131100283D01*
X76045553Y-132090233D01*
X75197025Y-131241705D01*
X76186975Y-130251755D01*
X76186975Y-130251755D01*
G37*
D12*
G04 #@! TO.P,U2,48*
G04 #@! TO.N,+3V3*
X82411371Y-134679542D03*
D11*
G04 #@! TD*
G04 #@! TO.N,+3V3*
G04 #@! TO.C,U2*
G36*
X82040140Y-135227550D02*
X81863363Y-135050773D01*
X82782602Y-134131534D01*
X82959379Y-134308311D01*
X82040140Y-135227550D01*
X82040140Y-135227550D01*
G37*
D12*
G04 #@! TO.P,U2,47*
G04 #@! TO.N,GND*
X82764924Y-135033095D03*
D11*
G04 #@! TD*
G04 #@! TO.N,GND*
G04 #@! TO.C,U2*
G36*
X82393693Y-135581103D02*
X82216916Y-135404326D01*
X83136155Y-134485087D01*
X83312932Y-134661864D01*
X82393693Y-135581103D01*
X82393693Y-135581103D01*
G37*
D12*
G04 #@! TO.P,U2,46*
G04 #@! TO.N,/PB9*
X83118478Y-135386649D03*
D11*
G04 #@! TD*
G04 #@! TO.N,/PB9*
G04 #@! TO.C,U2*
G36*
X82747247Y-135934657D02*
X82570470Y-135757880D01*
X83489709Y-134838641D01*
X83666486Y-135015418D01*
X82747247Y-135934657D01*
X82747247Y-135934657D01*
G37*
D12*
G04 #@! TO.P,U2,45*
G04 #@! TO.N,/PB8*
X83472031Y-135740202D03*
D11*
G04 #@! TD*
G04 #@! TO.N,/PB8*
G04 #@! TO.C,U2*
G36*
X83100800Y-136288210D02*
X82924023Y-136111433D01*
X83843262Y-135192194D01*
X84020039Y-135368971D01*
X83100800Y-136288210D01*
X83100800Y-136288210D01*
G37*
D12*
G04 #@! TO.P,U2,44*
G04 #@! TO.N,/BOOT0*
X83825584Y-136093755D03*
D11*
G04 #@! TD*
G04 #@! TO.N,/BOOT0*
G04 #@! TO.C,U2*
G36*
X83454353Y-136641763D02*
X83277576Y-136464986D01*
X84196815Y-135545747D01*
X84373592Y-135722524D01*
X83454353Y-136641763D01*
X83454353Y-136641763D01*
G37*
D12*
G04 #@! TO.P,U2,43*
G04 #@! TO.N,/PB7*
X84179138Y-136447309D03*
D11*
G04 #@! TD*
G04 #@! TO.N,/PB7*
G04 #@! TO.C,U2*
G36*
X83807907Y-136995317D02*
X83631130Y-136818540D01*
X84550369Y-135899301D01*
X84727146Y-136076078D01*
X83807907Y-136995317D01*
X83807907Y-136995317D01*
G37*
D12*
G04 #@! TO.P,U2,42*
G04 #@! TO.N,/PB6*
X84532691Y-136800862D03*
D11*
G04 #@! TD*
G04 #@! TO.N,/PB6*
G04 #@! TO.C,U2*
G36*
X84161460Y-137348870D02*
X83984683Y-137172093D01*
X84903922Y-136252854D01*
X85080699Y-136429631D01*
X84161460Y-137348870D01*
X84161460Y-137348870D01*
G37*
D12*
G04 #@! TO.P,U2,41*
G04 #@! TO.N,/PB5*
X84886245Y-137154416D03*
D11*
G04 #@! TD*
G04 #@! TO.N,/PB5*
G04 #@! TO.C,U2*
G36*
X84515014Y-137702424D02*
X84338237Y-137525647D01*
X85257476Y-136606408D01*
X85434253Y-136783185D01*
X84515014Y-137702424D01*
X84515014Y-137702424D01*
G37*
D12*
G04 #@! TO.P,U2,40*
G04 #@! TO.N,/PB4*
X85239798Y-137507969D03*
D11*
G04 #@! TD*
G04 #@! TO.N,/PB4*
G04 #@! TO.C,U2*
G36*
X84868567Y-138055977D02*
X84691790Y-137879200D01*
X85611029Y-136959961D01*
X85787806Y-137136738D01*
X84868567Y-138055977D01*
X84868567Y-138055977D01*
G37*
D12*
G04 #@! TO.P,U2,39*
G04 #@! TO.N,/PB3*
X85593351Y-137861522D03*
D11*
G04 #@! TD*
G04 #@! TO.N,/PB3*
G04 #@! TO.C,U2*
G36*
X85222120Y-138409530D02*
X85045343Y-138232753D01*
X85964582Y-137313514D01*
X86141359Y-137490291D01*
X85222120Y-138409530D01*
X85222120Y-138409530D01*
G37*
D12*
G04 #@! TO.P,U2,38*
G04 #@! TO.N,/PA15*
X85946905Y-138215076D03*
D11*
G04 #@! TD*
G04 #@! TO.N,/PA15*
G04 #@! TO.C,U2*
G36*
X85575674Y-138763084D02*
X85398897Y-138586307D01*
X86318136Y-137667068D01*
X86494913Y-137843845D01*
X85575674Y-138763084D01*
X85575674Y-138763084D01*
G37*
D12*
G04 #@! TO.P,U2,37*
G04 #@! TO.N,/SWCLK*
X86300458Y-138568629D03*
D11*
G04 #@! TD*
G04 #@! TO.N,/SWCLK*
G04 #@! TO.C,U2*
G36*
X85929227Y-139116637D02*
X85752450Y-138939860D01*
X86671689Y-138020621D01*
X86848466Y-138197398D01*
X85929227Y-139116637D01*
X85929227Y-139116637D01*
G37*
D12*
G04 #@! TO.P,U2,36*
G04 #@! TO.N,+3V3*
X86300458Y-140831371D03*
D11*
G04 #@! TD*
G04 #@! TO.N,+3V3*
G04 #@! TO.C,U2*
G36*
X85752450Y-140460140D02*
X85929227Y-140283363D01*
X86848466Y-141202602D01*
X86671689Y-141379379D01*
X85752450Y-140460140D01*
X85752450Y-140460140D01*
G37*
D12*
G04 #@! TO.P,U2,35*
G04 #@! TO.N,GND*
X85946905Y-141184924D03*
D11*
G04 #@! TD*
G04 #@! TO.N,GND*
G04 #@! TO.C,U2*
G36*
X85398897Y-140813693D02*
X85575674Y-140636916D01*
X86494913Y-141556155D01*
X86318136Y-141732932D01*
X85398897Y-140813693D01*
X85398897Y-140813693D01*
G37*
D12*
G04 #@! TO.P,U2,34*
G04 #@! TO.N,/SWDIO*
X85593351Y-141538478D03*
D11*
G04 #@! TD*
G04 #@! TO.N,/SWDIO*
G04 #@! TO.C,U2*
G36*
X85045343Y-141167247D02*
X85222120Y-140990470D01*
X86141359Y-141909709D01*
X85964582Y-142086486D01*
X85045343Y-141167247D01*
X85045343Y-141167247D01*
G37*
D12*
G04 #@! TO.P,U2,33*
G04 #@! TO.N,/USB_D+*
X85239798Y-141892031D03*
D11*
G04 #@! TD*
G04 #@! TO.N,/USB_D+*
G04 #@! TO.C,U2*
G36*
X84691790Y-141520800D02*
X84868567Y-141344023D01*
X85787806Y-142263262D01*
X85611029Y-142440039D01*
X84691790Y-141520800D01*
X84691790Y-141520800D01*
G37*
D12*
G04 #@! TO.P,U2,32*
G04 #@! TO.N,/USB_D-*
X84886245Y-142245584D03*
D11*
G04 #@! TD*
G04 #@! TO.N,/USB_D-*
G04 #@! TO.C,U2*
G36*
X84338237Y-141874353D02*
X84515014Y-141697576D01*
X85434253Y-142616815D01*
X85257476Y-142793592D01*
X84338237Y-141874353D01*
X84338237Y-141874353D01*
G37*
D12*
G04 #@! TO.P,U2,31*
G04 #@! TO.N,/PA10*
X84532691Y-142599138D03*
D11*
G04 #@! TD*
G04 #@! TO.N,/PA10*
G04 #@! TO.C,U2*
G36*
X83984683Y-142227907D02*
X84161460Y-142051130D01*
X85080699Y-142970369D01*
X84903922Y-143147146D01*
X83984683Y-142227907D01*
X83984683Y-142227907D01*
G37*
D12*
G04 #@! TO.P,U2,30*
G04 #@! TO.N,/PA9*
X84179138Y-142952691D03*
D11*
G04 #@! TD*
G04 #@! TO.N,/PA9*
G04 #@! TO.C,U2*
G36*
X83631130Y-142581460D02*
X83807907Y-142404683D01*
X84727146Y-143323922D01*
X84550369Y-143500699D01*
X83631130Y-142581460D01*
X83631130Y-142581460D01*
G37*
D12*
G04 #@! TO.P,U2,29*
G04 #@! TO.N,/PA8*
X83825584Y-143306245D03*
D11*
G04 #@! TD*
G04 #@! TO.N,/PA8*
G04 #@! TO.C,U2*
G36*
X83277576Y-142935014D02*
X83454353Y-142758237D01*
X84373592Y-143677476D01*
X84196815Y-143854253D01*
X83277576Y-142935014D01*
X83277576Y-142935014D01*
G37*
D12*
G04 #@! TO.P,U2,28*
G04 #@! TO.N,/PB15*
X83472031Y-143659798D03*
D11*
G04 #@! TD*
G04 #@! TO.N,/PB15*
G04 #@! TO.C,U2*
G36*
X82924023Y-143288567D02*
X83100800Y-143111790D01*
X84020039Y-144031029D01*
X83843262Y-144207806D01*
X82924023Y-143288567D01*
X82924023Y-143288567D01*
G37*
D12*
G04 #@! TO.P,U2,27*
G04 #@! TO.N,/PB14*
X83118478Y-144013351D03*
D11*
G04 #@! TD*
G04 #@! TO.N,/PB14*
G04 #@! TO.C,U2*
G36*
X82570470Y-143642120D02*
X82747247Y-143465343D01*
X83666486Y-144384582D01*
X83489709Y-144561359D01*
X82570470Y-143642120D01*
X82570470Y-143642120D01*
G37*
D12*
G04 #@! TO.P,U2,26*
G04 #@! TO.N,/PB13*
X82764924Y-144366905D03*
D11*
G04 #@! TD*
G04 #@! TO.N,/PB13*
G04 #@! TO.C,U2*
G36*
X82216916Y-143995674D02*
X82393693Y-143818897D01*
X83312932Y-144738136D01*
X83136155Y-144914913D01*
X82216916Y-143995674D01*
X82216916Y-143995674D01*
G37*
D12*
G04 #@! TO.P,U2,25*
G04 #@! TO.N,/PB12*
X82411371Y-144720458D03*
D11*
G04 #@! TD*
G04 #@! TO.N,/PB12*
G04 #@! TO.C,U2*
G36*
X81863363Y-144349227D02*
X82040140Y-144172450D01*
X82959379Y-145091689D01*
X82782602Y-145268466D01*
X81863363Y-144349227D01*
X81863363Y-144349227D01*
G37*
D12*
G04 #@! TO.P,U2,24*
G04 #@! TO.N,+3V3*
X80148629Y-144720458D03*
D11*
G04 #@! TD*
G04 #@! TO.N,+3V3*
G04 #@! TO.C,U2*
G36*
X79777398Y-145268466D02*
X79600621Y-145091689D01*
X80519860Y-144172450D01*
X80696637Y-144349227D01*
X79777398Y-145268466D01*
X79777398Y-145268466D01*
G37*
D12*
G04 #@! TO.P,U2,23*
G04 #@! TO.N,GND*
X79795076Y-144366905D03*
D11*
G04 #@! TD*
G04 #@! TO.N,GND*
G04 #@! TO.C,U2*
G36*
X79423845Y-144914913D02*
X79247068Y-144738136D01*
X80166307Y-143818897D01*
X80343084Y-143995674D01*
X79423845Y-144914913D01*
X79423845Y-144914913D01*
G37*
D12*
G04 #@! TO.P,U2,22*
G04 #@! TO.N,/PB11*
X79441522Y-144013351D03*
D11*
G04 #@! TD*
G04 #@! TO.N,/PB11*
G04 #@! TO.C,U2*
G36*
X79070291Y-144561359D02*
X78893514Y-144384582D01*
X79812753Y-143465343D01*
X79989530Y-143642120D01*
X79070291Y-144561359D01*
X79070291Y-144561359D01*
G37*
D12*
G04 #@! TO.P,U2,21*
G04 #@! TO.N,/PB10*
X79087969Y-143659798D03*
D11*
G04 #@! TD*
G04 #@! TO.N,/PB10*
G04 #@! TO.C,U2*
G36*
X78716738Y-144207806D02*
X78539961Y-144031029D01*
X79459200Y-143111790D01*
X79635977Y-143288567D01*
X78716738Y-144207806D01*
X78716738Y-144207806D01*
G37*
D12*
G04 #@! TO.P,U2,20*
G04 #@! TO.N,/PB2*
X78734416Y-143306245D03*
D11*
G04 #@! TD*
G04 #@! TO.N,/PB2*
G04 #@! TO.C,U2*
G36*
X78363185Y-143854253D02*
X78186408Y-143677476D01*
X79105647Y-142758237D01*
X79282424Y-142935014D01*
X78363185Y-143854253D01*
X78363185Y-143854253D01*
G37*
D12*
G04 #@! TO.P,U2,19*
G04 #@! TO.N,/PB1*
X78380862Y-142952691D03*
D11*
G04 #@! TD*
G04 #@! TO.N,/PB1*
G04 #@! TO.C,U2*
G36*
X78009631Y-143500699D02*
X77832854Y-143323922D01*
X78752093Y-142404683D01*
X78928870Y-142581460D01*
X78009631Y-143500699D01*
X78009631Y-143500699D01*
G37*
D12*
G04 #@! TO.P,U2,18*
G04 #@! TO.N,/PB0*
X78027309Y-142599138D03*
D11*
G04 #@! TD*
G04 #@! TO.N,/PB0*
G04 #@! TO.C,U2*
G36*
X77656078Y-143147146D02*
X77479301Y-142970369D01*
X78398540Y-142051130D01*
X78575317Y-142227907D01*
X77656078Y-143147146D01*
X77656078Y-143147146D01*
G37*
D12*
G04 #@! TO.P,U2,17*
G04 #@! TO.N,/PA7*
X77673755Y-142245584D03*
D11*
G04 #@! TD*
G04 #@! TO.N,/PA7*
G04 #@! TO.C,U2*
G36*
X77302524Y-142793592D02*
X77125747Y-142616815D01*
X78044986Y-141697576D01*
X78221763Y-141874353D01*
X77302524Y-142793592D01*
X77302524Y-142793592D01*
G37*
D12*
G04 #@! TO.P,U2,16*
G04 #@! TO.N,/PA6*
X77320202Y-141892031D03*
D11*
G04 #@! TD*
G04 #@! TO.N,/PA6*
G04 #@! TO.C,U2*
G36*
X76948971Y-142440039D02*
X76772194Y-142263262D01*
X77691433Y-141344023D01*
X77868210Y-141520800D01*
X76948971Y-142440039D01*
X76948971Y-142440039D01*
G37*
D12*
G04 #@! TO.P,U2,15*
G04 #@! TO.N,/PA5*
X76966649Y-141538478D03*
D11*
G04 #@! TD*
G04 #@! TO.N,/PA5*
G04 #@! TO.C,U2*
G36*
X76595418Y-142086486D02*
X76418641Y-141909709D01*
X77337880Y-140990470D01*
X77514657Y-141167247D01*
X76595418Y-142086486D01*
X76595418Y-142086486D01*
G37*
D12*
G04 #@! TO.P,U2,14*
G04 #@! TO.N,/PA4*
X76613095Y-141184924D03*
D11*
G04 #@! TD*
G04 #@! TO.N,/PA4*
G04 #@! TO.C,U2*
G36*
X76241864Y-141732932D02*
X76065087Y-141556155D01*
X76984326Y-140636916D01*
X77161103Y-140813693D01*
X76241864Y-141732932D01*
X76241864Y-141732932D01*
G37*
D12*
G04 #@! TO.P,U2,13*
G04 #@! TO.N,/PA3*
X76259542Y-140831371D03*
D11*
G04 #@! TD*
G04 #@! TO.N,/PA3*
G04 #@! TO.C,U2*
G36*
X75888311Y-141379379D02*
X75711534Y-141202602D01*
X76630773Y-140283363D01*
X76807550Y-140460140D01*
X75888311Y-141379379D01*
X75888311Y-141379379D01*
G37*
D12*
G04 #@! TO.P,U2,12*
G04 #@! TO.N,/PA2*
X76259542Y-138568629D03*
D11*
G04 #@! TD*
G04 #@! TO.N,/PA2*
G04 #@! TO.C,U2*
G36*
X75711534Y-138197398D02*
X75888311Y-138020621D01*
X76807550Y-138939860D01*
X76630773Y-139116637D01*
X75711534Y-138197398D01*
X75711534Y-138197398D01*
G37*
D12*
G04 #@! TO.P,U2,11*
G04 #@! TO.N,/PA1*
X76613095Y-138215076D03*
D11*
G04 #@! TD*
G04 #@! TO.N,/PA1*
G04 #@! TO.C,U2*
G36*
X76065087Y-137843845D02*
X76241864Y-137667068D01*
X77161103Y-138586307D01*
X76984326Y-138763084D01*
X76065087Y-137843845D01*
X76065087Y-137843845D01*
G37*
D12*
G04 #@! TO.P,U2,10*
G04 #@! TO.N,/PA0*
X76966649Y-137861522D03*
D11*
G04 #@! TD*
G04 #@! TO.N,/PA0*
G04 #@! TO.C,U2*
G36*
X76418641Y-137490291D02*
X76595418Y-137313514D01*
X77514657Y-138232753D01*
X77337880Y-138409530D01*
X76418641Y-137490291D01*
X76418641Y-137490291D01*
G37*
D12*
G04 #@! TO.P,U2,9*
G04 #@! TO.N,+3V3*
X77320202Y-137507969D03*
D11*
G04 #@! TD*
G04 #@! TO.N,+3V3*
G04 #@! TO.C,U2*
G36*
X76772194Y-137136738D02*
X76948971Y-136959961D01*
X77868210Y-137879200D01*
X77691433Y-138055977D01*
X76772194Y-137136738D01*
X76772194Y-137136738D01*
G37*
D12*
G04 #@! TO.P,U2,8*
G04 #@! TO.N,Net-(U2-Pad8)*
X77673755Y-137154416D03*
D11*
G04 #@! TD*
G04 #@! TO.N,Net-(U2-Pad8)*
G04 #@! TO.C,U2*
G36*
X77125747Y-136783185D02*
X77302524Y-136606408D01*
X78221763Y-137525647D01*
X78044986Y-137702424D01*
X77125747Y-136783185D01*
X77125747Y-136783185D01*
G37*
D12*
G04 #@! TO.P,U2,7*
G04 #@! TO.N,/_RESET*
X78027309Y-136800862D03*
D11*
G04 #@! TD*
G04 #@! TO.N,/_RESET*
G04 #@! TO.C,U2*
G36*
X77479301Y-136429631D02*
X77656078Y-136252854D01*
X78575317Y-137172093D01*
X78398540Y-137348870D01*
X77479301Y-136429631D01*
X77479301Y-136429631D01*
G37*
D12*
G04 #@! TO.P,U2,6*
G04 #@! TO.N,/OSC_OUT*
X78380862Y-136447309D03*
D11*
G04 #@! TD*
G04 #@! TO.N,/OSC_OUT*
G04 #@! TO.C,U2*
G36*
X77832854Y-136076078D02*
X78009631Y-135899301D01*
X78928870Y-136818540D01*
X78752093Y-136995317D01*
X77832854Y-136076078D01*
X77832854Y-136076078D01*
G37*
D12*
G04 #@! TO.P,U2,5*
G04 #@! TO.N,/OSC_IN*
X78734416Y-136093755D03*
D11*
G04 #@! TD*
G04 #@! TO.N,/OSC_IN*
G04 #@! TO.C,U2*
G36*
X78186408Y-135722524D02*
X78363185Y-135545747D01*
X79282424Y-136464986D01*
X79105647Y-136641763D01*
X78186408Y-135722524D01*
X78186408Y-135722524D01*
G37*
D12*
G04 #@! TO.P,U2,4*
G04 #@! TO.N,/RTC_OSC_OUT*
X79087969Y-135740202D03*
D11*
G04 #@! TD*
G04 #@! TO.N,/RTC_OSC_OUT*
G04 #@! TO.C,U2*
G36*
X78539961Y-135368971D02*
X78716738Y-135192194D01*
X79635977Y-136111433D01*
X79459200Y-136288210D01*
X78539961Y-135368971D01*
X78539961Y-135368971D01*
G37*
D12*
G04 #@! TO.P,U2,3*
G04 #@! TO.N,/RTC_OSC_IN*
X79441522Y-135386649D03*
D11*
G04 #@! TD*
G04 #@! TO.N,/RTC_OSC_IN*
G04 #@! TO.C,U2*
G36*
X78893514Y-135015418D02*
X79070291Y-134838641D01*
X79989530Y-135757880D01*
X79812753Y-135934657D01*
X78893514Y-135015418D01*
X78893514Y-135015418D01*
G37*
D12*
G04 #@! TO.P,U2,2*
G04 #@! TO.N,/PC13*
X79795076Y-135033095D03*
D11*
G04 #@! TD*
G04 #@! TO.N,/PC13*
G04 #@! TO.C,U2*
G36*
X79247068Y-134661864D02*
X79423845Y-134485087D01*
X80343084Y-135404326D01*
X80166307Y-135581103D01*
X79247068Y-134661864D01*
X79247068Y-134661864D01*
G37*
D12*
G04 #@! TO.P,U2,1*
G04 #@! TO.N,+BATT*
X80148629Y-134679542D03*
D11*
G04 #@! TD*
G04 #@! TO.N,+BATT*
G04 #@! TO.C,U2*
G36*
X79600621Y-134308311D02*
X79777398Y-134131534D01*
X80696637Y-135050773D01*
X80519860Y-135227550D01*
X79600621Y-134308311D01*
X79600621Y-134308311D01*
G37*
D13*
G04 #@! TO.P,J3,1*
G04 #@! TO.N,/PB15*
X93980000Y-157480000D03*
D14*
G04 #@! TO.P,J3,2*
G04 #@! TO.N,/PA8*
X93980000Y-154940000D03*
G04 #@! TO.P,J3,3*
G04 #@! TO.N,/PA9*
X93980000Y-152400000D03*
G04 #@! TO.P,J3,4*
G04 #@! TO.N,/PA10*
X93980000Y-149860000D03*
G04 #@! TO.P,J3,5*
G04 #@! TO.N,/USB_D-*
X93980000Y-147320000D03*
G04 #@! TO.P,J3,6*
G04 #@! TO.N,/USB_D+*
X93980000Y-144780000D03*
G04 #@! TO.P,J3,7*
G04 #@! TO.N,/SWDIO*
X93980000Y-142240000D03*
G04 #@! TO.P,J3,8*
G04 #@! TO.N,/SWCLK*
X93980000Y-139700000D03*
G04 #@! TO.P,J3,9*
G04 #@! TO.N,/PA15*
X93980000Y-137160000D03*
G04 #@! TO.P,J3,10*
G04 #@! TO.N,/PB3*
X93980000Y-134620000D03*
G04 #@! TO.P,J3,11*
G04 #@! TO.N,/PB4*
X93980000Y-132080000D03*
G04 #@! TO.P,J3,12*
G04 #@! TO.N,/PB5*
X93980000Y-129540000D03*
G04 #@! TO.P,J3,13*
G04 #@! TO.N,/PB6*
X93980000Y-127000000D03*
G04 #@! TO.P,J3,14*
G04 #@! TO.N,/PB7*
X93980000Y-124460000D03*
G04 #@! TO.P,J3,15*
G04 #@! TO.N,/PB8*
X93980000Y-121920000D03*
G04 #@! TO.P,J3,16*
G04 #@! TO.N,/PB9*
X93980000Y-119380000D03*
G04 #@! TO.P,J3,17*
G04 #@! TO.N,+BATT*
X93980000Y-116840000D03*
G04 #@! TO.P,J3,18*
G04 #@! TO.N,/_RESET*
X93980000Y-114300000D03*
G04 #@! TO.P,J3,19*
G04 #@! TO.N,/BOOT0*
X93980000Y-111760000D03*
G04 #@! TO.P,J3,20*
G04 #@! TO.N,VBUS*
X93980000Y-109220000D03*
G04 #@! TD*
D15*
G04 #@! TO.P,C1,1*
G04 #@! TO.N,Net-(C1-Pad1)*
X74676000Y-130048000D03*
D11*
G04 #@! TD*
G04 #@! TO.N,Net-(C1-Pad1)*
G04 #@! TO.C,C1*
G36*
X74693678Y-129499992D02*
X75224008Y-130030322D01*
X74658322Y-130596008D01*
X74127992Y-130065678D01*
X74693678Y-129499992D01*
X74693678Y-129499992D01*
G37*
D15*
G04 #@! TO.P,C1,2*
G04 #@! TO.N,GND*
X73615340Y-131108660D03*
D11*
G04 #@! TD*
G04 #@! TO.N,GND*
G04 #@! TO.C,C1*
G36*
X73633018Y-130560652D02*
X74163348Y-131090982D01*
X73597662Y-131656668D01*
X73067332Y-131126338D01*
X73633018Y-130560652D01*
X73633018Y-130560652D01*
G37*
D15*
G04 #@! TO.P,C2,2*
G04 #@! TO.N,GND*
X73107340Y-133813340D03*
D11*
G04 #@! TD*
G04 #@! TO.N,GND*
G04 #@! TO.C,C2*
G36*
X73655348Y-133831018D02*
X73125018Y-134361348D01*
X72559332Y-133795662D01*
X73089662Y-133265332D01*
X73655348Y-133831018D01*
X73655348Y-133831018D01*
G37*
D15*
G04 #@! TO.P,C2,1*
G04 #@! TO.N,Net-(C2-Pad1)*
X74168000Y-134874000D03*
D11*
G04 #@! TD*
G04 #@! TO.N,Net-(C2-Pad1)*
G04 #@! TO.C,C2*
G36*
X74716008Y-134891678D02*
X74185678Y-135422008D01*
X73619992Y-134856322D01*
X74150322Y-134325992D01*
X74716008Y-134891678D01*
X74716008Y-134891678D01*
G37*
D15*
G04 #@! TO.P,C3,2*
G04 #@! TO.N,GND*
X75669670Y-127403330D03*
D11*
G04 #@! TD*
G04 #@! TO.N,GND*
G04 #@! TO.C,C3*
G36*
X75687348Y-126855322D02*
X76217678Y-127385652D01*
X75651992Y-127951338D01*
X75121662Y-127421008D01*
X75687348Y-126855322D01*
X75687348Y-126855322D01*
G37*
D15*
G04 #@! TO.P,C3,1*
G04 #@! TO.N,Net-(C3-Pad1)*
X76730330Y-126342670D03*
D11*
G04 #@! TD*
G04 #@! TO.N,Net-(C3-Pad1)*
G04 #@! TO.C,C3*
G36*
X76748008Y-125794662D02*
X77278338Y-126324992D01*
X76712652Y-126890678D01*
X76182322Y-126360348D01*
X76748008Y-125794662D01*
X76748008Y-125794662D01*
G37*
D15*
G04 #@! TO.P,C4,1*
G04 #@! TO.N,Net-(C4-Pad1)*
X77713670Y-125371330D03*
D11*
G04 #@! TD*
G04 #@! TO.N,Net-(C4-Pad1)*
G04 #@! TO.C,C4*
G36*
X77695992Y-125919338D02*
X77165662Y-125389008D01*
X77731348Y-124823322D01*
X78261678Y-125353652D01*
X77695992Y-125919338D01*
X77695992Y-125919338D01*
G37*
D15*
G04 #@! TO.P,C4,2*
G04 #@! TO.N,GND*
X78774330Y-124310670D03*
D11*
G04 #@! TD*
G04 #@! TO.N,GND*
G04 #@! TO.C,C4*
G36*
X78756652Y-124858678D02*
X78226322Y-124328348D01*
X78792008Y-123762662D01*
X79322338Y-124292992D01*
X78756652Y-124858678D01*
X78756652Y-124858678D01*
G37*
D15*
G04 #@! TO.P,C5,2*
G04 #@! TO.N,GND*
X83483660Y-131019340D03*
D11*
G04 #@! TD*
G04 #@! TO.N,GND*
G04 #@! TO.C,C5*
G36*
X83465982Y-131567348D02*
X82935652Y-131037018D01*
X83501338Y-130471332D01*
X84031668Y-131001662D01*
X83465982Y-131567348D01*
X83465982Y-131567348D01*
G37*
D15*
G04 #@! TO.P,C5,1*
G04 #@! TO.N,+BATT*
X82423000Y-132080000D03*
D11*
G04 #@! TD*
G04 #@! TO.N,+BATT*
G04 #@! TO.C,C5*
G36*
X82405322Y-132628008D02*
X81874992Y-132097678D01*
X82440678Y-131531992D01*
X82971008Y-132062322D01*
X82405322Y-132628008D01*
X82405322Y-132628008D01*
G37*
D15*
G04 #@! TO.P,C6,1*
G04 #@! TO.N,+BATT*
X83312000Y-132969000D03*
D11*
G04 #@! TD*
G04 #@! TO.N,+BATT*
G04 #@! TO.C,C6*
G36*
X83294322Y-133517008D02*
X82763992Y-132986678D01*
X83329678Y-132420992D01*
X83860008Y-132951322D01*
X83294322Y-133517008D01*
X83294322Y-133517008D01*
G37*
D15*
G04 #@! TO.P,C6,2*
G04 #@! TO.N,GND*
X84372660Y-131908340D03*
D11*
G04 #@! TD*
G04 #@! TO.N,GND*
G04 #@! TO.C,C6*
G36*
X84354982Y-132456348D02*
X83824652Y-131926018D01*
X84390338Y-131360332D01*
X84920668Y-131890662D01*
X84354982Y-132456348D01*
X84354982Y-132456348D01*
G37*
D16*
G04 #@! TO.P,C7,1*
G04 #@! TO.N,VBUS*
X76200000Y-161024000D03*
G04 #@! TO.P,C7,2*
G04 #@! TO.N,GND*
X76200000Y-159524000D03*
G04 #@! TD*
D15*
G04 #@! TO.P,C8,2*
G04 #@! TO.N,GND*
X85261660Y-132797340D03*
D11*
G04 #@! TD*
G04 #@! TO.N,GND*
G04 #@! TO.C,C8*
G36*
X85243982Y-133345348D02*
X84713652Y-132815018D01*
X85279338Y-132249332D01*
X85809668Y-132779662D01*
X85243982Y-133345348D01*
X85243982Y-133345348D01*
G37*
D15*
G04 #@! TO.P,C8,1*
G04 #@! TO.N,+3V3*
X84201000Y-133858000D03*
D11*
G04 #@! TD*
G04 #@! TO.N,+3V3*
G04 #@! TO.C,C8*
G36*
X84183322Y-134406008D02*
X83652992Y-133875678D01*
X84218678Y-133309992D01*
X84749008Y-133840322D01*
X84183322Y-134406008D01*
X84183322Y-134406008D01*
G37*
D15*
G04 #@! TO.P,C9,1*
G04 #@! TO.N,+3V3*
X79098670Y-146132340D03*
D11*
G04 #@! TD*
G04 #@! TO.N,+3V3*
G04 #@! TO.C,C9*
G36*
X78550662Y-146114662D02*
X79080992Y-145584332D01*
X79646678Y-146150018D01*
X79116348Y-146680348D01*
X78550662Y-146114662D01*
X78550662Y-146114662D01*
G37*
D15*
G04 #@! TO.P,C9,2*
G04 #@! TO.N,GND*
X80159330Y-147193000D03*
D11*
G04 #@! TD*
G04 #@! TO.N,GND*
G04 #@! TO.C,C9*
G36*
X79611322Y-147175322D02*
X80141652Y-146644992D01*
X80707338Y-147210678D01*
X80177008Y-147741008D01*
X79611322Y-147175322D01*
X79611322Y-147175322D01*
G37*
D16*
G04 #@! TO.P,C10,2*
G04 #@! TO.N,GND*
X71120000Y-160770000D03*
G04 #@! TO.P,C10,1*
G04 #@! TO.N,+3V3*
X71120000Y-159270000D03*
G04 #@! TD*
D17*
G04 #@! TO.P,D1,1*
G04 #@! TO.N,Net-(D1-Pad1)*
X78232000Y-161458000D03*
G04 #@! TO.P,D1,2*
G04 #@! TO.N,VBUS*
X78232000Y-159258000D03*
G04 #@! TD*
G04 #@! TO.P,D2,2*
G04 #@! TO.N,+BATT*
X82296000Y-121071998D03*
G04 #@! TO.P,D2,1*
G04 #@! TO.N,+3V3*
X82296000Y-118872000D03*
G04 #@! TD*
D18*
G04 #@! TO.P,J1,6*
G04 #@! TO.N,GND*
X77880000Y-166720000D03*
X83680000Y-166720000D03*
D19*
X84280000Y-166720000D03*
X77280000Y-166720000D03*
D20*
X79780000Y-166720000D03*
D21*
X83280000Y-164020000D03*
D22*
G04 #@! TO.P,J1,3*
G04 #@! TO.N,Net-(J1-Pad3)*
X80780000Y-164020000D03*
G04 #@! TO.P,J1,4*
G04 #@! TO.N,/OTG_SELECT*
X81430000Y-164020000D03*
G04 #@! TO.P,J1,5*
G04 #@! TO.N,GND*
X82080000Y-164020000D03*
G04 #@! TO.P,J1,1*
G04 #@! TO.N,Net-(D1-Pad1)*
X79480000Y-164020000D03*
G04 #@! TO.P,J1,2*
G04 #@! TO.N,Net-(J1-Pad2)*
X80130000Y-164020000D03*
D21*
G04 #@! TO.P,J1,6*
G04 #@! TO.N,GND*
X78280000Y-164020000D03*
D20*
X81780000Y-166720000D03*
G04 #@! TD*
D14*
G04 #@! TO.P,J4,20*
G04 #@! TO.N,/PB14*
X68580000Y-157480000D03*
G04 #@! TO.P,J4,19*
G04 #@! TO.N,/PB13*
X68580000Y-154940000D03*
G04 #@! TO.P,J4,18*
G04 #@! TO.N,/PB12*
X68580000Y-152400000D03*
G04 #@! TO.P,J4,17*
G04 #@! TO.N,/PB11*
X68580000Y-149860000D03*
G04 #@! TO.P,J4,16*
G04 #@! TO.N,/PB10*
X68580000Y-147320000D03*
G04 #@! TO.P,J4,15*
G04 #@! TO.N,/PB2*
X68580000Y-144780000D03*
G04 #@! TO.P,J4,14*
G04 #@! TO.N,/PB1*
X68580000Y-142240000D03*
G04 #@! TO.P,J4,13*
G04 #@! TO.N,/PB0*
X68580000Y-139700000D03*
G04 #@! TO.P,J4,12*
G04 #@! TO.N,/PA7*
X68580000Y-137160000D03*
G04 #@! TO.P,J4,11*
G04 #@! TO.N,/PA6*
X68580000Y-134620000D03*
G04 #@! TO.P,J4,10*
G04 #@! TO.N,/PA5*
X68580000Y-132080000D03*
G04 #@! TO.P,J4,9*
G04 #@! TO.N,/PA4*
X68580000Y-129540000D03*
G04 #@! TO.P,J4,8*
G04 #@! TO.N,/PA3*
X68580000Y-127000000D03*
G04 #@! TO.P,J4,7*
G04 #@! TO.N,/PA2*
X68580000Y-124460000D03*
G04 #@! TO.P,J4,6*
G04 #@! TO.N,/PA1*
X68580000Y-121920000D03*
G04 #@! TO.P,J4,5*
G04 #@! TO.N,/PA0*
X68580000Y-119380000D03*
G04 #@! TO.P,J4,4*
G04 #@! TO.N,/RTC_OSC_OUT*
X68580000Y-116840000D03*
G04 #@! TO.P,J4,3*
G04 #@! TO.N,/RTC_OSC_IN*
X68580000Y-114300000D03*
G04 #@! TO.P,J4,2*
G04 #@! TO.N,/PC13*
X68580000Y-111760000D03*
D13*
G04 #@! TO.P,J4,1*
G04 #@! TO.N,+3V3*
X68580000Y-109220000D03*
G04 #@! TD*
D23*
G04 #@! TO.P,Q1,1*
G04 #@! TO.N,+3V3*
X85106000Y-119065000D03*
G04 #@! TO.P,Q1,2*
G04 #@! TO.N,+BATT*
X85106000Y-120965000D03*
G04 #@! TO.P,Q1,3*
G04 #@! TO.N,Net-(BT1-Pad1)*
X87106000Y-120015000D03*
G04 #@! TD*
D24*
G04 #@! TO.P,R1,2*
G04 #@! TO.N,Net-(C1-Pad1)*
X77171340Y-129517670D03*
D11*
G04 #@! TD*
G04 #@! TO.N,Net-(C1-Pad1)*
G04 #@! TO.C,R1*
G36*
X77666315Y-129376249D02*
X77029919Y-130012645D01*
X76676365Y-129659091D01*
X77312761Y-129022695D01*
X77666315Y-129376249D01*
X77666315Y-129376249D01*
G37*
D24*
G04 #@! TO.P,R1,1*
G04 #@! TO.N,/OSC_IN*
X78232000Y-130578330D03*
D11*
G04 #@! TD*
G04 #@! TO.N,/OSC_IN*
G04 #@! TO.C,R1*
G36*
X78726975Y-130436909D02*
X78090579Y-131073305D01*
X77737025Y-130719751D01*
X78373421Y-130083355D01*
X78726975Y-130436909D01*
X78726975Y-130436909D01*
G37*
D24*
G04 #@! TO.P,R2,1*
G04 #@! TO.N,/OSC_OUT*
X76984330Y-135105670D03*
D11*
G04 #@! TD*
G04 #@! TO.N,/OSC_OUT*
G04 #@! TO.C,R2*
G36*
X76842909Y-134610695D02*
X77479305Y-135247091D01*
X77125751Y-135600645D01*
X76489355Y-134964249D01*
X76842909Y-134610695D01*
X76842909Y-134610695D01*
G37*
D24*
G04 #@! TO.P,R2,2*
G04 #@! TO.N,Net-(C2-Pad1)*
X75923670Y-136166330D03*
D11*
G04 #@! TD*
G04 #@! TO.N,Net-(C2-Pad1)*
G04 #@! TO.C,R2*
G36*
X75782249Y-135671355D02*
X76418645Y-136307751D01*
X76065091Y-136661305D01*
X75428695Y-136024909D01*
X75782249Y-135671355D01*
X75782249Y-135671355D01*
G37*
D25*
G04 #@! TO.P,R3,1*
G04 #@! TO.N,/USB_D+*
X81730000Y-160540000D03*
G04 #@! TO.P,R3,2*
G04 #@! TO.N,Net-(J1-Pad3)*
X81730000Y-162040000D03*
G04 #@! TD*
G04 #@! TO.P,R4,2*
G04 #@! TO.N,Net-(J1-Pad2)*
X80010000Y-162040000D03*
G04 #@! TO.P,R4,1*
G04 #@! TO.N,/USB_D-*
X80010000Y-160540000D03*
G04 #@! TD*
D24*
G04 #@! TO.P,R5,1*
G04 #@! TO.N,/RTC_OSC_IN*
X80921330Y-130600660D03*
D11*
G04 #@! TD*
G04 #@! TO.N,/RTC_OSC_IN*
G04 #@! TO.C,R5*
G36*
X81416305Y-130459239D02*
X80779909Y-131095635D01*
X80426355Y-130742081D01*
X81062751Y-130105685D01*
X81416305Y-130459239D01*
X81416305Y-130459239D01*
G37*
D24*
G04 #@! TO.P,R5,2*
G04 #@! TO.N,Net-(C3-Pad1)*
X79860670Y-129540000D03*
D11*
G04 #@! TD*
G04 #@! TO.N,Net-(C3-Pad1)*
G04 #@! TO.C,R5*
G36*
X80355645Y-129398579D02*
X79719249Y-130034975D01*
X79365695Y-129681421D01*
X80002091Y-129045025D01*
X80355645Y-129398579D01*
X80355645Y-129398579D01*
G37*
D24*
G04 #@! TO.P,R6,2*
G04 #@! TO.N,Net-(C4-Pad1)*
X81026000Y-128397000D03*
D11*
G04 #@! TD*
G04 #@! TO.N,Net-(C4-Pad1)*
G04 #@! TO.C,R6*
G36*
X81520975Y-128255579D02*
X80884579Y-128891975D01*
X80531025Y-128538421D01*
X81167421Y-127902025D01*
X81520975Y-128255579D01*
X81520975Y-128255579D01*
G37*
D24*
G04 #@! TO.P,R6,1*
G04 #@! TO.N,/RTC_OSC_OUT*
X82086660Y-129457660D03*
D11*
G04 #@! TD*
G04 #@! TO.N,/RTC_OSC_OUT*
G04 #@! TO.C,R6*
G36*
X82581635Y-129316239D02*
X81945239Y-129952635D01*
X81591685Y-129599081D01*
X82228081Y-128962685D01*
X82581635Y-129316239D01*
X82581635Y-129316239D01*
G37*
D26*
G04 #@! TO.P,R7,2*
G04 #@! TO.N,/_RESET*
X76823000Y-153543000D03*
G04 #@! TO.P,R7,1*
G04 #@! TO.N,+3V3*
X75323000Y-153543000D03*
G04 #@! TD*
D25*
G04 #@! TO.P,R8,1*
G04 #@! TO.N,+3V3*
X79629000Y-118769000D03*
G04 #@! TO.P,R8,2*
G04 #@! TO.N,GND*
X79629000Y-120269000D03*
G04 #@! TD*
D27*
G04 #@! TO.P,U1,8*
G04 #@! TO.N,+3V3*
X84963000Y-147541000D03*
G04 #@! TO.P,U1,7*
G04 #@! TO.N,GND*
X86233000Y-147541000D03*
G04 #@! TO.P,U1,6*
G04 #@! TO.N,/PB14*
X87503000Y-147541000D03*
G04 #@! TO.P,U1,5*
G04 #@! TO.N,/PB13*
X88773000Y-147541000D03*
G04 #@! TO.P,U1,4*
G04 #@! TO.N,GND*
X88773000Y-152941000D03*
G04 #@! TO.P,U1,3*
X87503000Y-152941000D03*
G04 #@! TO.P,U1,2*
X86233000Y-152941000D03*
G04 #@! TO.P,U1,1*
X84963000Y-152941000D03*
G04 #@! TD*
D28*
G04 #@! TO.P,U3,3*
G04 #@! TO.N,VBUS*
X73676000Y-161020000D03*
G04 #@! TO.P,U3,2*
G04 #@! TO.N,+3V3*
X72726000Y-159020000D03*
G04 #@! TO.P,U3,1*
G04 #@! TO.N,GND*
X74626000Y-159020000D03*
G04 #@! TD*
D29*
G04 #@! TO.P,Y2,2*
G04 #@! TO.N,Net-(C4-Pad1)*
X79419660Y-126955340D03*
G04 #@! TO.P,Y2,1*
G04 #@! TO.N,Net-(C3-Pad1)*
X78359000Y-128016000D03*
G04 #@! TD*
D30*
G04 #@! TO.P,SW1,1*
G04 #@! TO.N,GND*
X84557000Y-113914000D03*
X78257000Y-113914000D03*
G04 #@! TO.P,SW1,2*
G04 #@! TO.N,/_RESET*
X84557000Y-110114000D03*
X78257000Y-110114000D03*
G04 #@! TD*
D13*
G04 #@! TO.P,J2,1*
G04 #@! TO.N,+3V3*
X74930000Y-156210000D03*
D14*
G04 #@! TO.P,J2,2*
G04 #@! TO.N,/_RESET*
X77470000Y-156210000D03*
G04 #@! TO.P,J2,3*
G04 #@! TO.N,/SWCLK*
X80010000Y-156210000D03*
G04 #@! TO.P,J2,4*
G04 #@! TO.N,/SWDIO*
X82550000Y-156210000D03*
G04 #@! TO.P,J2,5*
G04 #@! TO.N,/BOOT0*
X85090000Y-156210000D03*
G04 #@! TO.P,J2,6*
G04 #@! TO.N,GND*
X87630000Y-156210000D03*
G04 #@! TD*
D31*
G04 #@! TO.N,GND*
X76962000Y-149098000D03*
X80137000Y-152146000D03*
X73787000Y-145415000D03*
X78994000Y-140843000D03*
X90551000Y-140462000D03*
X87884000Y-144907000D03*
X91059000Y-160909000D03*
X68326000Y-160655000D03*
X73406000Y-139827000D03*
X73533000Y-132588000D03*
X86995000Y-130683000D03*
X79883000Y-123317000D03*
X83566000Y-138049000D03*
X82169000Y-136906000D03*
X77978000Y-112141000D03*
X84582000Y-112141000D03*
X90424000Y-114935000D03*
G04 #@! TO.N,Net-(BT1-Pad1)*
X89154000Y-111887000D03*
G04 #@! TO.N,+3V3*
X81534000Y-135890000D03*
X83726000Y-147541000D03*
X81026000Y-143510000D03*
X88011000Y-139573000D03*
X81026000Y-141213767D03*
X74168000Y-153543000D03*
X78359000Y-149860000D03*
X83439000Y-126873000D03*
G04 #@! TO.N,/BOOT0*
X82677000Y-149606000D03*
X82677000Y-141097000D03*
X90297000Y-134620000D03*
D32*
G04 #@! TO.N,/SWDIO*
X84709000Y-140208000D03*
G04 #@! TO.N,/SWCLK*
X85471000Y-139674864D03*
G04 #@! TO.N,/_RESET*
X79502000Y-138303000D03*
G04 #@! TO.N,/USB_D+*
X81661000Y-159258000D03*
G04 #@! TO.N,/USB_D-*
X80010000Y-159258000D03*
G04 #@! TO.N,/RTC_OSC_OUT*
X71461999Y-117689999D03*
D31*
X82931000Y-128524000D03*
D32*
G04 #@! TO.N,/RTC_OSC_IN*
X71501000Y-116332000D03*
X81280000Y-131445000D03*
G04 #@! TO.N,/PC13*
X80325405Y-136844595D03*
G04 #@! TD*
D33*
G04 #@! TO.N,GND*
X90151001Y-140861999D02*
X90551000Y-140462000D01*
X89154010Y-141858990D02*
X90151001Y-140861999D01*
X86620971Y-141858990D02*
X89154010Y-141858990D01*
X85946905Y-141184924D02*
X86620971Y-141858990D01*
X82764924Y-135033095D02*
X82234595Y-135563424D01*
X82252960Y-135581789D02*
X82252960Y-136100960D01*
X82234595Y-135563424D02*
X82252960Y-135581789D01*
X82252960Y-136100960D02*
X82296000Y-136144000D01*
X82296000Y-136144000D02*
X82296000Y-136271000D01*
X82169000Y-136340315D02*
X82169000Y-136906000D01*
X82238315Y-136271000D02*
X82169000Y-136340315D01*
X82296000Y-136271000D02*
X82238315Y-136271000D01*
G04 #@! TO.N,Net-(BT1-Pad1)*
X87106000Y-119488000D02*
X89154000Y-117440000D01*
X87106000Y-120015000D02*
X87106000Y-119488000D01*
X89154000Y-117440000D02*
X89154000Y-111887000D01*
X89154000Y-111887000D02*
X89154000Y-111887000D01*
G04 #@! TO.N,Net-(C1-Pad1)*
X76116264Y-131170994D02*
X76116264Y-130512736D01*
X76116264Y-130512736D02*
X76327000Y-130302000D01*
X76387010Y-130302000D02*
X77171340Y-129517670D01*
X76327000Y-130302000D02*
X76387010Y-130302000D01*
X74993270Y-130048000D02*
X74676000Y-130048000D01*
X76116264Y-131170994D02*
X74993270Y-130048000D01*
G04 #@! TO.N,Net-(C2-Pad1)*
X75184000Y-133858000D02*
X75692000Y-133858000D01*
X74168000Y-134874000D02*
X75184000Y-133858000D01*
X75923670Y-134089670D02*
X75692000Y-133858000D01*
X75923670Y-136166330D02*
X75923670Y-134089670D01*
G04 #@! TO.N,Net-(C3-Pad1)*
X78359000Y-128038330D02*
X78359000Y-128016000D01*
X79860670Y-129540000D02*
X78359000Y-128038330D01*
X76730330Y-126387330D02*
X76730330Y-126342670D01*
X78359000Y-128016000D02*
X76730330Y-126387330D01*
G04 #@! TO.N,Net-(C4-Pad1)*
X79584340Y-126955340D02*
X79419660Y-126955340D01*
X81026000Y-128397000D02*
X79584340Y-126955340D01*
X77835650Y-125371330D02*
X77713670Y-125371330D01*
X79419660Y-126955340D02*
X77835650Y-125371330D01*
G04 #@! TO.N,+BATT*
X80148629Y-134354371D02*
X82423000Y-132080000D01*
X80148629Y-134679542D02*
X80148629Y-134354371D01*
X82423000Y-132080000D02*
X83312000Y-132969000D01*
X85106000Y-127873000D02*
X85106000Y-120965000D01*
X82423000Y-132080000D02*
X82423000Y-130556000D01*
X82423000Y-130556000D02*
X85106000Y-127873000D01*
X85106000Y-120965000D02*
X88712000Y-120965000D01*
X92777919Y-116840000D02*
X93980000Y-116840000D01*
X88712000Y-120905919D02*
X92777919Y-116840000D01*
X88712000Y-120965000D02*
X88712000Y-120905919D01*
X82402998Y-120965000D02*
X82296000Y-121071998D01*
X85106000Y-120965000D02*
X82402998Y-120965000D01*
G04 #@! TO.N,VBUS*
X76702000Y-161024000D02*
X76200000Y-161024000D01*
X76843000Y-161024000D02*
X76702000Y-161024000D01*
X78232000Y-159635000D02*
X76843000Y-161024000D01*
X78232000Y-159258000D02*
X78232000Y-159635000D01*
X73680000Y-161024000D02*
X73676000Y-161020000D01*
X76200000Y-161024000D02*
X73680000Y-161024000D01*
X78609000Y-159258000D02*
X78232000Y-159258000D01*
X79498000Y-158369000D02*
X78609000Y-159258000D01*
X93980000Y-109220000D02*
X95147501Y-110387501D01*
X95147501Y-110387501D02*
X95147501Y-158584001D01*
X95147501Y-158584001D02*
X94600502Y-159131000D01*
X94600502Y-159131000D02*
X88900000Y-159131000D01*
X88900000Y-159131000D02*
X88138000Y-158369000D01*
X88138000Y-158369000D02*
X79498000Y-158369000D01*
G04 #@! TO.N,+3V3*
X83570670Y-133858000D02*
X84201000Y-133858000D01*
X82956136Y-133858000D02*
X83570670Y-133858000D01*
X82411371Y-134402765D02*
X82956136Y-133858000D01*
X82411371Y-134679542D02*
X82411371Y-134402765D01*
X72476000Y-159270000D02*
X72726000Y-159020000D01*
X71120000Y-159270000D02*
X72476000Y-159270000D01*
X73953000Y-156210000D02*
X74930000Y-156210000D01*
X72726000Y-157437000D02*
X73953000Y-156210000D01*
X72726000Y-159020000D02*
X72726000Y-157437000D01*
X74930000Y-156210000D02*
X74930000Y-154813000D01*
X75323000Y-154420000D02*
X75323000Y-153543000D01*
X74930000Y-154813000D02*
X75323000Y-154420000D01*
X80148629Y-145082381D02*
X80148629Y-144720458D01*
X79098670Y-146132340D02*
X80148629Y-145082381D01*
X84963000Y-147541000D02*
X83726000Y-147541000D01*
X81026000Y-143510000D02*
X81026000Y-143510000D01*
X83726000Y-147541000D02*
X83726000Y-147541000D01*
X81026000Y-143843087D02*
X80148629Y-144720458D01*
X81026000Y-143510000D02*
X81026000Y-143843087D01*
X81026000Y-143510000D02*
X81026000Y-143843087D01*
X81534000Y-135556913D02*
X82411371Y-134679542D01*
X81534000Y-135890000D02*
X81534000Y-135556913D01*
X81026000Y-141213767D02*
X81026000Y-141213767D01*
X81026000Y-143510000D02*
X81026000Y-141213767D01*
X81534000Y-140705767D02*
X81026000Y-141213767D01*
X81534000Y-135890000D02*
X81534000Y-140705767D01*
X86459556Y-140672273D02*
X86911727Y-140672273D01*
X86300458Y-140831371D02*
X86459556Y-140672273D01*
X86911727Y-140672273D02*
X88011000Y-139573000D01*
X88011000Y-139573000D02*
X88011000Y-139573000D01*
X81026000Y-141213767D02*
X77320202Y-137507969D01*
X82489000Y-119065000D02*
X82296000Y-118872000D01*
X85106000Y-119065000D02*
X82489000Y-119065000D01*
X68580000Y-109220000D02*
X68707000Y-109220000D01*
X78462000Y-118769000D02*
X79629000Y-118769000D01*
X78359000Y-118872000D02*
X78462000Y-118769000D01*
X82193000Y-118769000D02*
X82296000Y-118872000D01*
X79629000Y-118769000D02*
X82193000Y-118769000D01*
X78359000Y-118872000D02*
X82296000Y-118872000D01*
X77978000Y-118491000D02*
X78359000Y-118872000D01*
X68707000Y-109220000D02*
X77978000Y-118491000D01*
X79098670Y-146132340D02*
X79098670Y-149120330D01*
X79098670Y-149120330D02*
X78359000Y-149860000D01*
X75323000Y-153543000D02*
X74168000Y-153543000D01*
X74168000Y-153543000D02*
X74168000Y-153543000D01*
X78359000Y-149860000D02*
X78359000Y-149860000D01*
X81728499Y-119816501D02*
X81728499Y-125162499D01*
X82296000Y-118872000D02*
X82296000Y-119249000D01*
X82296000Y-119249000D02*
X81728499Y-119816501D01*
X81728499Y-125162499D02*
X83439000Y-126873000D01*
X83439000Y-126873000D02*
X83439000Y-126873000D01*
G04 #@! TO.N,Net-(D1-Pad1)*
X79480000Y-163218000D02*
X79480000Y-164020000D01*
X79480000Y-163083000D02*
X79480000Y-163218000D01*
X78232000Y-161835000D02*
X79480000Y-163083000D01*
X78232000Y-161458000D02*
X78232000Y-161835000D01*
G04 #@! TO.N,Net-(J1-Pad3)*
X81530000Y-162040000D02*
X81730000Y-162040000D01*
X80780000Y-162790000D02*
X81530000Y-162040000D01*
X80780000Y-164020000D02*
X80780000Y-162790000D01*
G04 #@! TO.N,Net-(J1-Pad2)*
X80130000Y-164020000D02*
X80130000Y-162160000D01*
X80130000Y-162160000D02*
X80010000Y-162040000D01*
G04 #@! TO.N,/BOOT0*
X85090000Y-156210000D02*
X82677000Y-153797000D01*
X82677000Y-153797000D02*
X82677000Y-149606000D01*
X82677000Y-149606000D02*
X82677000Y-149606000D01*
X82677000Y-137242339D02*
X82677000Y-141097000D01*
X83825584Y-136093755D02*
X82677000Y-137242339D01*
X89897001Y-135019999D02*
X90297000Y-134620000D01*
X89612462Y-135304538D02*
X89897001Y-135019999D01*
X84614801Y-135304538D02*
X89612462Y-135304538D01*
X83825584Y-136093755D02*
X84614801Y-135304538D01*
G04 #@! TO.N,/SWDIO*
X86294873Y-142240000D02*
X93980000Y-142240000D01*
X85593351Y-141538478D02*
X86294873Y-142240000D01*
X84709000Y-140654127D02*
X85593351Y-141538478D01*
X84709000Y-140208000D02*
X84709000Y-140654127D01*
G04 #@! TO.N,/SWCLK*
X92848629Y-138568629D02*
X93980000Y-139700000D01*
X86300458Y-138568629D02*
X92848629Y-138568629D01*
X85471000Y-139674864D02*
X85471000Y-139700000D01*
X85471000Y-139674864D02*
X85471000Y-139674864D01*
X85550087Y-139319000D02*
X86300458Y-138568629D01*
X85550087Y-139595777D02*
X85471000Y-139674864D01*
X85550087Y-139319000D02*
X85550087Y-139595777D01*
G04 #@! TO.N,/_RESET*
X76823000Y-155563000D02*
X77470000Y-156210000D01*
X76823000Y-153543000D02*
X76823000Y-155563000D01*
X78257000Y-110114000D02*
X84557000Y-110114000D01*
X89794000Y-110114000D02*
X93980000Y-114300000D01*
X84557000Y-110114000D02*
X89794000Y-110114000D01*
X76823000Y-153343000D02*
X76823000Y-153543000D01*
X75245000Y-151765000D02*
X76823000Y-153343000D01*
X70485020Y-152378204D02*
X71098224Y-151765000D01*
X70485020Y-157733980D02*
X70485020Y-152378204D01*
X69342000Y-158877000D02*
X70485020Y-157733980D01*
X67437000Y-158877000D02*
X69342000Y-158877000D01*
X78257000Y-110114000D02*
X77280000Y-110114000D01*
X77280000Y-110114000D02*
X75218499Y-108052499D01*
X75218499Y-108052499D02*
X67475999Y-108052499D01*
X71098224Y-151765000D02*
X75245000Y-151765000D01*
X67475999Y-108052499D02*
X67056000Y-108472498D01*
X67056000Y-108472498D02*
X67056000Y-158496000D01*
X67056000Y-158496000D02*
X67437000Y-158877000D01*
X79502000Y-138275553D02*
X79502000Y-138303000D01*
X78027309Y-136800862D02*
X79502000Y-138275553D01*
G04 #@! TO.N,/PB0*
X77496980Y-143129467D02*
X78027309Y-142599138D01*
X72009467Y-143129467D02*
X77496980Y-143129467D01*
X68580000Y-139700000D02*
X72009467Y-143129467D01*
G04 #@! TO.N,/PB1*
X77724000Y-143510000D02*
X77597477Y-143383477D01*
X77823553Y-143510000D02*
X77724000Y-143510000D01*
X77823553Y-143510000D02*
X78380862Y-142952691D01*
X77597477Y-143383477D02*
X71882477Y-143383477D01*
X70739000Y-142240000D02*
X68580000Y-142240000D01*
X71882477Y-143383477D02*
X70739000Y-142240000D01*
G04 #@! TO.N,/PB2*
X70358000Y-145542000D02*
X69596000Y-144780000D01*
X70358000Y-148717000D02*
X70358000Y-145542000D01*
X70993000Y-149352000D02*
X70358000Y-148717000D01*
X78204087Y-143836574D02*
X78204087Y-144184456D01*
X78204087Y-144184456D02*
X77851000Y-144537543D01*
X69596000Y-144780000D02*
X68580000Y-144780000D01*
X78734416Y-143306245D02*
X78204087Y-143836574D01*
X77851000Y-144537543D02*
X77851000Y-144780000D01*
X77851000Y-144780000D02*
X73279000Y-149352000D01*
X73279000Y-149352000D02*
X70993000Y-149352000D01*
G04 #@! TO.N,/PB3*
X85593351Y-137861522D02*
X86548873Y-136906000D01*
X93218000Y-134620000D02*
X93980000Y-134620000D01*
X92710000Y-135128000D02*
X93218000Y-134620000D01*
X92710000Y-136144000D02*
X92710000Y-135128000D01*
X91948000Y-136906000D02*
X92710000Y-136144000D01*
X86548873Y-136906000D02*
X91948000Y-136906000D01*
G04 #@! TO.N,/PB5*
X92710000Y-129540000D02*
X92202000Y-130048000D01*
X93980000Y-129540000D02*
X92710000Y-129540000D01*
X92202000Y-130048000D02*
X92202000Y-135890000D01*
X85416574Y-136624087D02*
X84886245Y-137154416D01*
X92202000Y-135890000D02*
X91694000Y-136398000D01*
X91694000Y-136398000D02*
X85642661Y-136398000D01*
X85642661Y-136398000D02*
X85416574Y-136624087D01*
G04 #@! TO.N,/PB6*
X85063020Y-136270533D02*
X84532691Y-136800862D01*
X92329000Y-127000000D02*
X91948000Y-127381000D01*
X93980000Y-127000000D02*
X92329000Y-127000000D01*
X91948000Y-127381000D02*
X91948000Y-135763000D01*
X91948000Y-135763000D02*
X91567000Y-136144000D01*
X91567000Y-136144000D02*
X85189553Y-136144000D01*
X85189553Y-136144000D02*
X85063020Y-136270533D01*
G04 #@! TO.N,/PB7*
X84736447Y-135890000D02*
X84179138Y-136447309D01*
X91440000Y-135890000D02*
X84736447Y-135890000D01*
X91694000Y-135636000D02*
X91440000Y-135890000D01*
X91694000Y-124841000D02*
X91694000Y-135636000D01*
X92075000Y-124460000D02*
X91694000Y-124841000D01*
X93980000Y-124460000D02*
X92075000Y-124460000D01*
G04 #@! TO.N,/PB8*
X93980000Y-121920000D02*
X91948000Y-121920000D01*
X91948000Y-121920000D02*
X91440000Y-122428000D01*
X88415472Y-134977528D02*
X91440000Y-131953000D01*
X84234705Y-134977528D02*
X88415472Y-134977528D01*
X83472031Y-135740202D02*
X84234705Y-134977528D01*
X91440000Y-122428000D02*
X91440000Y-131953000D01*
G04 #@! TO.N,/PB9*
X91821000Y-119380000D02*
X93980000Y-119380000D01*
X91186000Y-120015000D02*
X91821000Y-119380000D01*
X88288482Y-134723518D02*
X91186000Y-131826000D01*
X83781609Y-134723518D02*
X88288482Y-134723518D01*
X83118478Y-135386649D02*
X83781609Y-134723518D01*
X91186000Y-131826000D02*
X91186000Y-120015000D01*
G04 #@! TO.N,/PB10*
X70866000Y-149606000D02*
X73406000Y-149606000D01*
X73406000Y-149606000D02*
X78105000Y-144907000D01*
X78105000Y-144642767D02*
X79087969Y-143659798D01*
X78105000Y-144907000D02*
X78105000Y-144642767D01*
X70104000Y-148844000D02*
X70104000Y-147574000D01*
X70104000Y-148844000D02*
X70866000Y-149606000D01*
X69850000Y-147320000D02*
X68580000Y-147320000D01*
X70104000Y-147574000D02*
X69850000Y-147320000D01*
G04 #@! TO.N,/PB11*
X73533000Y-149860000D02*
X68580000Y-149860000D01*
X78359000Y-145034000D02*
X78740000Y-144653000D01*
X78359000Y-145034000D02*
X73533000Y-149860000D01*
X78849320Y-144543680D02*
X78359000Y-145034000D01*
X78911193Y-144543680D02*
X79441522Y-144013351D01*
X78849320Y-144543680D02*
X78911193Y-144543680D01*
G04 #@! TO.N,/PB12*
X82411371Y-144720458D02*
X82411371Y-147204629D01*
X82411371Y-147204629D02*
X78740000Y-150876000D01*
X70104000Y-150876000D02*
X68580000Y-152400000D01*
X78740000Y-150876000D02*
X70104000Y-150876000D01*
G04 #@! TO.N,/PB13*
X69977000Y-153543000D02*
X68580000Y-154940000D01*
X69977000Y-152146000D02*
X69977000Y-153543000D01*
X83312000Y-144913981D02*
X83312000Y-145415000D01*
X83312000Y-145415000D02*
X82665381Y-146061619D01*
X82665381Y-146061619D02*
X82665380Y-147309844D01*
X82665380Y-147309844D02*
X78845214Y-151130010D01*
X70992990Y-151130010D02*
X69977000Y-152146000D01*
X78845214Y-151130010D02*
X70992990Y-151130010D01*
X83813019Y-145415000D02*
X83305019Y-144907000D01*
X87330098Y-145415000D02*
X83813019Y-145415000D01*
X88773000Y-146857902D02*
X87330098Y-145415000D01*
X88773000Y-147541000D02*
X88773000Y-146857902D01*
X82764924Y-144366905D02*
X83305019Y-144907000D01*
X83305019Y-144907000D02*
X83312000Y-144913981D01*
G04 #@! TO.N,/PB14*
X83820000Y-144714873D02*
X83118478Y-144013351D01*
X87503000Y-146639000D02*
X87503000Y-147541000D01*
X84095776Y-146155224D02*
X87019224Y-146155224D01*
X69782081Y-157480000D02*
X70231010Y-157031071D01*
X68580000Y-157480000D02*
X69782081Y-157480000D01*
X70231010Y-157031071D02*
X70231010Y-152272990D01*
X82931000Y-147403448D02*
X82931000Y-147320000D01*
X70231010Y-152272990D02*
X71119980Y-151384020D01*
X82931000Y-147320000D02*
X84095776Y-146155224D01*
X71119980Y-151384020D02*
X78950429Y-151384019D01*
X87019224Y-146155224D02*
X87503000Y-146639000D01*
X78950429Y-151384019D02*
X82931000Y-147403448D01*
X87503000Y-148016000D02*
X87503000Y-147541000D01*
X89281000Y-148844000D02*
X88331000Y-148844000D01*
X89662000Y-148463000D02*
X89281000Y-148844000D01*
X83118478Y-144013351D02*
X83631127Y-144526000D01*
X83631127Y-144526000D02*
X84770873Y-144526000D01*
X88331000Y-148844000D02*
X87503000Y-148016000D01*
X84770873Y-144526000D02*
X85107374Y-144189499D01*
X85107374Y-144189499D02*
X88228401Y-144189499D01*
X88228401Y-144189499D02*
X89662000Y-145623098D01*
X89662000Y-145623098D02*
X89662000Y-148463000D01*
G04 #@! TO.N,/PB15*
X84663873Y-144190127D02*
X84962503Y-143891497D01*
X83472031Y-143659798D02*
X84002360Y-144190127D01*
X84002360Y-144190127D02*
X84663873Y-144190127D01*
X84962503Y-143891497D02*
X90805497Y-143891497D01*
X91185990Y-144271990D02*
X91185990Y-152653990D01*
X90805497Y-143891497D02*
X91185990Y-144271990D01*
X91185990Y-152653990D02*
X91186000Y-152654000D01*
X93003000Y-157480000D02*
X93980000Y-157480000D01*
X91186000Y-155663000D02*
X93003000Y-157480000D01*
X91186000Y-152654000D02*
X91186000Y-155663000D01*
G04 #@! TO.N,/PA15*
X87001981Y-137160000D02*
X93980000Y-137160000D01*
X85946905Y-138215076D02*
X87001981Y-137160000D01*
G04 #@! TO.N,/USB_D+*
X85841767Y-142494000D02*
X85239798Y-141892031D01*
X91567000Y-142494000D02*
X85841767Y-142494000D01*
X92583000Y-143510000D02*
X91567000Y-142494000D01*
X92583000Y-144585081D02*
X92583000Y-143510000D01*
X93980000Y-144780000D02*
X92777919Y-144780000D01*
X92777919Y-144780000D02*
X92583000Y-144585081D01*
X81730000Y-160163000D02*
X81661000Y-160094000D01*
X81730000Y-160540000D02*
X81730000Y-160163000D01*
X81661000Y-160094000D02*
X81661000Y-159258000D01*
X81661000Y-159258000D02*
X81661000Y-159258000D01*
G04 #@! TO.N,/USB_D-*
X85515661Y-142875000D02*
X84886245Y-142245584D01*
X91313000Y-142875000D02*
X85515661Y-142875000D01*
X92205990Y-143767990D02*
X91313000Y-142875000D01*
X92205990Y-146748071D02*
X92205990Y-143767990D01*
X93980000Y-147320000D02*
X92777919Y-147320000D01*
X92777919Y-147320000D02*
X92205990Y-146748071D01*
X80010000Y-160540000D02*
X80010000Y-160163000D01*
X80010000Y-160163000D02*
X80010000Y-159258000D01*
X80010000Y-159258000D02*
X80010000Y-159258000D01*
G04 #@! TO.N,/PA10*
X85063020Y-143129467D02*
X91186467Y-143129467D01*
X84532691Y-142599138D02*
X85063020Y-143129467D01*
X91186467Y-143129467D02*
X91948000Y-143891000D01*
X91948000Y-143891000D02*
X91948000Y-149352000D01*
X92456000Y-149860000D02*
X93980000Y-149860000D01*
X91948000Y-149352000D02*
X92456000Y-149860000D01*
G04 #@! TO.N,/PA9*
X84609924Y-143383477D02*
X84179138Y-142952691D01*
X91059477Y-143383477D02*
X84609924Y-143383477D01*
X91694000Y-144018000D02*
X91059477Y-143383477D01*
X91694000Y-151638000D02*
X91694000Y-144018000D01*
X93980000Y-152400000D02*
X92456000Y-152400000D01*
X92456000Y-152400000D02*
X91694000Y-151638000D01*
G04 #@! TO.N,/PA8*
X84355913Y-143836574D02*
X83825584Y-143306245D01*
X84483917Y-143836574D02*
X84355913Y-143836574D01*
X93980000Y-154940000D02*
X92456000Y-154940000D01*
X92456000Y-154940000D02*
X91440000Y-153924000D01*
X91440000Y-144145000D02*
X90932487Y-143637487D01*
X91440000Y-153924000D02*
X91440000Y-144145000D01*
X90932487Y-143637487D02*
X84683004Y-143637487D01*
X84683004Y-143637487D02*
X84483917Y-143836574D01*
G04 #@! TO.N,/PA7*
X69782081Y-137160000D02*
X68580000Y-137160000D01*
X70231000Y-137608919D02*
X69782081Y-137160000D01*
X70231000Y-140991776D02*
X70231000Y-137608919D01*
X72114224Y-142875000D02*
X70231000Y-140991776D01*
X77044339Y-142875000D02*
X72114224Y-142875000D01*
X77673755Y-142245584D02*
X77044339Y-142875000D01*
G04 #@! TO.N,/PA6*
X69977000Y-134620000D02*
X68580000Y-134620000D01*
X76718223Y-142494010D02*
X76707990Y-142494010D01*
X76707990Y-142494010D02*
X76581000Y-142621000D01*
X76581000Y-142621000D02*
X72219448Y-142621000D01*
X72219448Y-142621000D02*
X70485010Y-140886562D01*
X70485010Y-140886562D02*
X70485010Y-135128010D01*
X70485010Y-135128010D02*
X69977000Y-134620000D01*
X76591233Y-142621000D02*
X76835000Y-142377233D01*
X76581000Y-142621000D02*
X76591233Y-142621000D01*
X76718223Y-142494010D02*
X76835000Y-142377233D01*
X76835000Y-142377233D02*
X77320202Y-141892031D01*
G04 #@! TO.N,/PA5*
X69782081Y-132080000D02*
X68580000Y-132080000D01*
X72324672Y-142367000D02*
X70739020Y-140781348D01*
X70739020Y-140781348D02*
X70739019Y-133036938D01*
X70739019Y-133036938D02*
X69782081Y-132080000D01*
X76261873Y-142178127D02*
X76073000Y-142367000D01*
X76327000Y-142178127D02*
X76261873Y-142178127D01*
X76073000Y-142367000D02*
X72324672Y-142367000D01*
X76966649Y-141538478D02*
X76327000Y-142178127D01*
G04 #@! TO.N,/PA4*
X69782081Y-129540000D02*
X68580000Y-129540000D01*
X70993029Y-130750948D02*
X69782081Y-129540000D01*
X76082766Y-141976234D02*
X75946000Y-142113000D01*
X75946000Y-142113000D02*
X72429896Y-142113000D01*
X76082766Y-141715253D02*
X76082766Y-141976234D01*
X72429896Y-142113000D02*
X70993029Y-140676133D01*
X76613095Y-141184924D02*
X76082766Y-141715253D01*
X70993029Y-140676133D02*
X70993029Y-130750948D01*
G04 #@! TO.N,/PA3*
X70612000Y-127000000D02*
X68580000Y-127000000D01*
X76259542Y-140831371D02*
X75982765Y-140831371D01*
X75982765Y-140831371D02*
X74955136Y-141859000D01*
X74955136Y-141859000D02*
X72535120Y-141859000D01*
X72535120Y-141859000D02*
X71247039Y-140570919D01*
X71247039Y-140570919D02*
X71247039Y-127635039D01*
X71247039Y-127635039D02*
X70612000Y-127000000D01*
G04 #@! TO.N,/PA2*
X68580000Y-124460000D02*
X69782081Y-124460000D01*
X76259542Y-138568629D02*
X72528678Y-138568629D01*
X72528678Y-138568629D02*
X71501049Y-137541000D01*
X71501049Y-126178968D02*
X69782081Y-124460000D01*
X71501049Y-137541000D02*
X71501049Y-126178968D01*
G04 #@! TO.N,/PA1*
X70485000Y-121920000D02*
X68580000Y-121920000D01*
X71755059Y-123190059D02*
X70485000Y-121920000D01*
X76613095Y-138215076D02*
X76066019Y-137668000D01*
X75438000Y-137668000D02*
X74803000Y-138303000D01*
X74803000Y-138303000D02*
X72644000Y-138303000D01*
X72644000Y-138303000D02*
X71755059Y-137414059D01*
X76066019Y-137668000D02*
X75438000Y-137668000D01*
X71755059Y-137414059D02*
X71755059Y-123190059D01*
G04 #@! TO.N,/PA0*
X70993000Y-119380000D02*
X68580000Y-119380000D01*
X72009069Y-120396069D02*
X70993000Y-119380000D01*
X76966649Y-137861522D02*
X76436320Y-137331193D01*
X76436320Y-137331193D02*
X75393807Y-137331193D01*
X75393807Y-137331193D02*
X74676000Y-138049000D01*
X74676000Y-138049000D02*
X72749224Y-138049000D01*
X72749224Y-138049000D02*
X72009069Y-137308845D01*
X72009069Y-137308845D02*
X72009069Y-120396069D01*
G04 #@! TO.N,/RTC_OSC_OUT*
X80981340Y-129457660D02*
X82086660Y-129457660D01*
X79702008Y-130736992D02*
X80981340Y-129457660D01*
X79702008Y-132596452D02*
X79702008Y-130736992D01*
X78557640Y-133740820D02*
X79702008Y-132596452D01*
X79087969Y-135740202D02*
X78557640Y-135209873D01*
X78557640Y-135209873D02*
X78557640Y-133740820D01*
X69429999Y-117689999D02*
X71461999Y-117689999D01*
X68580000Y-116840000D02*
X69429999Y-117689999D01*
X71461999Y-117689999D02*
X71461999Y-117689999D01*
X82931000Y-128613320D02*
X82931000Y-128524000D01*
X82086660Y-129457660D02*
X82931000Y-128613320D01*
G04 #@! TO.N,/RTC_OSC_IN*
X78911193Y-134856320D02*
X78911193Y-133813807D01*
X79441522Y-135386649D02*
X78911193Y-134856320D01*
X79756000Y-132969000D02*
X79883000Y-132842000D01*
X78911193Y-133813807D02*
X79756000Y-132969000D01*
X80010000Y-132715000D02*
X79756000Y-132969000D01*
X80010000Y-131511990D02*
X80010000Y-132715000D01*
X80921330Y-130600660D02*
X80010000Y-131511990D01*
X68580000Y-114300000D02*
X70612000Y-116332000D01*
X70612000Y-116332000D02*
X71501000Y-116332000D01*
X71501000Y-116332000D02*
X71501000Y-116332000D01*
X80921330Y-131086330D02*
X81280000Y-131445000D01*
X80921330Y-130600660D02*
X80921330Y-131086330D01*
G04 #@! TO.N,/PC13*
X80325405Y-135563424D02*
X80325405Y-136844595D01*
X79795076Y-135033095D02*
X80325405Y-135563424D01*
X80325405Y-136844595D02*
X80264000Y-136906000D01*
X80325405Y-136844595D02*
X80325405Y-136844595D01*
G04 #@! TO.N,/OSC_IN*
X79375000Y-131721330D02*
X78232000Y-130578330D01*
X78204087Y-135563426D02*
X78168300Y-135563426D01*
X78168300Y-135563426D02*
X77597000Y-134992126D01*
X77597000Y-134992126D02*
X77597000Y-134239000D01*
X78734416Y-136093755D02*
X78204087Y-135563426D01*
X77597000Y-134239000D02*
X79375000Y-132461000D01*
X79375000Y-132461000D02*
X79375000Y-131721330D01*
G04 #@! TO.N,/OSC_OUT*
X77039223Y-135105670D02*
X76984330Y-135105670D01*
X78380862Y-136447309D02*
X77039223Y-135105670D01*
G04 #@! TO.N,/PB4*
X85770127Y-136977640D02*
X85780360Y-136977640D01*
X85239798Y-137507969D02*
X85770127Y-136977640D01*
X85780360Y-136977640D02*
X86106000Y-136652000D01*
X86106000Y-136652000D02*
X91821000Y-136652000D01*
X91821000Y-136652000D02*
X92456000Y-136017000D01*
X92456000Y-136017000D02*
X92456000Y-132334000D01*
X92710000Y-132080000D02*
X93980000Y-132080000D01*
X92456000Y-132334000D02*
X92710000Y-132080000D01*
G04 #@! TD*
D34*
G04 #@! TO.N,GND*
G36*
X90741490Y-144456108D02*
X90741491Y-152610212D01*
X90732783Y-152653990D01*
X90741491Y-152697769D01*
X90741500Y-152697814D01*
X90741501Y-155619222D01*
X90732793Y-155663000D01*
X90767291Y-155836435D01*
X90840735Y-155946352D01*
X90840738Y-155946355D01*
X90865535Y-155983466D01*
X90902646Y-156008263D01*
X92657737Y-157763355D01*
X92682534Y-157800466D01*
X92719645Y-157825263D01*
X92719647Y-157825265D01*
X92741536Y-157839891D01*
X92741536Y-158330000D01*
X92771106Y-158478659D01*
X92855314Y-158604686D01*
X92977758Y-158686500D01*
X89084118Y-158686500D01*
X88483265Y-158085648D01*
X88458466Y-158048534D01*
X88311435Y-157950290D01*
X88181779Y-157924500D01*
X88181774Y-157924500D01*
X88138000Y-157915793D01*
X88094226Y-157924500D01*
X79541774Y-157924500D01*
X79498000Y-157915793D01*
X79454226Y-157924500D01*
X79454221Y-157924500D01*
X79324565Y-157950290D01*
X79324563Y-157950291D01*
X79324564Y-157950291D01*
X79214647Y-158023735D01*
X79214645Y-158023737D01*
X79177534Y-158048534D01*
X79152737Y-158085645D01*
X78596142Y-158642240D01*
X78482000Y-158619536D01*
X77982000Y-158619536D01*
X77833341Y-158649106D01*
X77707314Y-158733314D01*
X77623106Y-158859341D01*
X77593536Y-159008000D01*
X77593536Y-159508000D01*
X77616240Y-159622142D01*
X76865460Y-160372922D01*
X76849686Y-160349314D01*
X76723659Y-160265106D01*
X76575000Y-160235536D01*
X75825000Y-160235536D01*
X75676341Y-160265106D01*
X75550314Y-160349314D01*
X75466106Y-160475341D01*
X75445388Y-160579500D01*
X74464464Y-160579500D01*
X74464464Y-160570000D01*
X74434894Y-160421341D01*
X74350686Y-160295314D01*
X74224659Y-160211106D01*
X74076000Y-160181536D01*
X73276000Y-160181536D01*
X73127341Y-160211106D01*
X73001314Y-160295314D01*
X72917106Y-160421341D01*
X72887536Y-160570000D01*
X72887536Y-161470000D01*
X72917106Y-161618659D01*
X73001314Y-161744686D01*
X73127341Y-161828894D01*
X73276000Y-161858464D01*
X74076000Y-161858464D01*
X74224659Y-161828894D01*
X74350686Y-161744686D01*
X74434894Y-161618659D01*
X74464464Y-161470000D01*
X74464464Y-161468500D01*
X75445388Y-161468500D01*
X75466106Y-161572659D01*
X75550314Y-161698686D01*
X75676341Y-161782894D01*
X75825000Y-161812464D01*
X76575000Y-161812464D01*
X76723659Y-161782894D01*
X76849686Y-161698686D01*
X76933894Y-161572659D01*
X76957407Y-161454451D01*
X77016435Y-161442710D01*
X77163466Y-161344466D01*
X77188265Y-161307352D01*
X78515355Y-159980263D01*
X78552466Y-159955466D01*
X78577263Y-159918355D01*
X78577265Y-159918353D01*
X78608735Y-159871255D01*
X78630659Y-159866894D01*
X78756686Y-159782686D01*
X78840894Y-159656659D01*
X78845255Y-159634735D01*
X78929466Y-159578466D01*
X78954265Y-159541352D01*
X79329000Y-159166617D01*
X79329000Y-159393459D01*
X79432676Y-159643756D01*
X79565500Y-159776580D01*
X79565500Y-159901536D01*
X79560000Y-159901536D01*
X79411341Y-159931106D01*
X79285314Y-160015314D01*
X79201106Y-160141341D01*
X79171536Y-160290000D01*
X79171536Y-160790000D01*
X79201106Y-160938659D01*
X79285314Y-161064686D01*
X79411341Y-161148894D01*
X79560000Y-161178464D01*
X80460000Y-161178464D01*
X80608659Y-161148894D01*
X80734686Y-161064686D01*
X80818894Y-160938659D01*
X80848464Y-160790000D01*
X80848464Y-160290000D01*
X80818894Y-160141341D01*
X80734686Y-160015314D01*
X80608659Y-159931106D01*
X80460000Y-159901536D01*
X80454500Y-159901536D01*
X80454500Y-159776580D01*
X80587324Y-159643756D01*
X80691000Y-159393459D01*
X80691000Y-159122541D01*
X80587324Y-158872244D01*
X80528580Y-158813500D01*
X81142420Y-158813500D01*
X81083676Y-158872244D01*
X80980000Y-159122541D01*
X80980000Y-159393459D01*
X81083676Y-159643756D01*
X81216500Y-159776580D01*
X81216500Y-159914167D01*
X81131341Y-159931106D01*
X81005314Y-160015314D01*
X80921106Y-160141341D01*
X80891536Y-160290000D01*
X80891536Y-160790000D01*
X80921106Y-160938659D01*
X81005314Y-161064686D01*
X81131341Y-161148894D01*
X81280000Y-161178464D01*
X82180000Y-161178464D01*
X82328659Y-161148894D01*
X82454686Y-161064686D01*
X82538894Y-160938659D01*
X82568464Y-160790000D01*
X82568464Y-160290000D01*
X82538894Y-160141341D01*
X82454686Y-160015314D01*
X82328659Y-159931106D01*
X82180000Y-159901536D01*
X82105500Y-159901536D01*
X82105500Y-159776580D01*
X82238324Y-159643756D01*
X82342000Y-159393459D01*
X82342000Y-159122541D01*
X82238324Y-158872244D01*
X82179580Y-158813500D01*
X87953883Y-158813500D01*
X88554737Y-159414355D01*
X88579534Y-159451466D01*
X88616645Y-159476263D01*
X88616647Y-159476265D01*
X88664142Y-159508000D01*
X88726565Y-159549710D01*
X88856221Y-159575500D01*
X88856226Y-159575500D01*
X88900000Y-159584207D01*
X88943774Y-159575500D01*
X94556728Y-159575500D01*
X94600502Y-159584207D01*
X94644276Y-159575500D01*
X94644281Y-159575500D01*
X94773937Y-159549710D01*
X94920968Y-159451466D01*
X94945767Y-159414352D01*
X95430856Y-158929264D01*
X95467967Y-158904467D01*
X95492764Y-158867356D01*
X95492766Y-158867354D01*
X95556001Y-158772716D01*
X95556001Y-159213087D01*
X95556000Y-159213092D01*
X95556001Y-160998303D01*
X95492484Y-161379912D01*
X95326928Y-161686740D01*
X95070913Y-161923398D01*
X94743649Y-162068080D01*
X94459313Y-162104000D01*
X87331091Y-162104000D01*
X87302857Y-162109616D01*
X86939845Y-162155475D01*
X86913981Y-162163210D01*
X86887066Y-162165328D01*
X86812616Y-162190818D01*
X86354908Y-162393169D01*
X86324893Y-162412885D01*
X86291936Y-162427147D01*
X86229756Y-162475379D01*
X85862271Y-162815079D01*
X85840262Y-162843453D01*
X85813699Y-162867623D01*
X85770499Y-162933389D01*
X85770495Y-162933395D01*
X85770495Y-162933396D01*
X85532857Y-163373815D01*
X85521225Y-163407790D01*
X85503924Y-163439260D01*
X85484354Y-163515481D01*
X85403355Y-164002122D01*
X85396001Y-164039091D01*
X85396000Y-165856698D01*
X85372390Y-165780053D01*
X85063474Y-165406920D01*
X84635281Y-165180408D01*
X84597609Y-165176538D01*
X84407000Y-165301269D01*
X84407000Y-166593000D01*
X84427000Y-166593000D01*
X84427000Y-166847000D01*
X84407000Y-166847000D01*
X84407000Y-166867000D01*
X84153000Y-166867000D01*
X84153000Y-166847000D01*
X83045000Y-166847000D01*
X83045000Y-167197000D01*
X83187610Y-167659947D01*
X83214147Y-167692000D01*
X78345853Y-167692000D01*
X78372390Y-167659947D01*
X78515000Y-167197000D01*
X78515000Y-166847000D01*
X77407000Y-166847000D01*
X77407000Y-166867000D01*
X77153000Y-166867000D01*
X77153000Y-166847000D01*
X76045000Y-166847000D01*
X76045000Y-167139955D01*
X75929920Y-166879649D01*
X75894000Y-166595313D01*
X75894000Y-166243000D01*
X76045000Y-166243000D01*
X76045000Y-166593000D01*
X77153000Y-166593000D01*
X77153000Y-165301269D01*
X77407000Y-165301269D01*
X77407000Y-166593000D01*
X78515000Y-166593000D01*
X78515000Y-166243000D01*
X78372390Y-165780053D01*
X78063474Y-165406920D01*
X77944232Y-165343842D01*
X78081146Y-165392312D01*
X78621444Y-165363949D01*
X78988878Y-165211753D01*
X79047185Y-164997663D01*
X79131341Y-165053894D01*
X79135017Y-165054625D01*
X79168942Y-165088550D01*
X79191610Y-165065882D01*
X79280000Y-165083464D01*
X79680000Y-165083464D01*
X79805000Y-165058600D01*
X79930000Y-165083464D01*
X80330000Y-165083464D01*
X80455000Y-165058600D01*
X80580000Y-165083464D01*
X80980000Y-165083464D01*
X81105000Y-165058600D01*
X81230000Y-165083464D01*
X81630000Y-165083464D01*
X81778659Y-165053894D01*
X81899130Y-164973398D01*
X82506207Y-164973398D01*
X82571122Y-165211753D01*
X83081146Y-165392312D01*
X83572945Y-165366495D01*
X83496526Y-165406920D01*
X83187610Y-165780053D01*
X83045000Y-166243000D01*
X83045000Y-166593000D01*
X84153000Y-166593000D01*
X84153000Y-165301269D01*
X83993012Y-165196576D01*
X84053793Y-164973398D01*
X83280000Y-164199605D01*
X82506207Y-164973398D01*
X81899130Y-164973398D01*
X81904686Y-164969686D01*
X81988894Y-164843659D01*
X82018464Y-164695000D01*
X82018464Y-164560407D01*
X82088247Y-164728878D01*
X82326602Y-164793793D01*
X83100395Y-164020000D01*
X83459605Y-164020000D01*
X84233398Y-164793793D01*
X84471753Y-164728878D01*
X84652312Y-164218854D01*
X84623949Y-163678556D01*
X84471753Y-163311122D01*
X84233398Y-163246207D01*
X83459605Y-164020000D01*
X83100395Y-164020000D01*
X82326602Y-163246207D01*
X82088247Y-163311122D01*
X82018464Y-163508238D01*
X82018464Y-163345000D01*
X81988894Y-163196341D01*
X81904686Y-163070314D01*
X81899131Y-163066602D01*
X82506207Y-163066602D01*
X83280000Y-163840395D01*
X84053793Y-163066602D01*
X83988878Y-162828247D01*
X83478854Y-162647688D01*
X82938556Y-162676051D01*
X82571122Y-162828247D01*
X82506207Y-163066602D01*
X81899131Y-163066602D01*
X81778659Y-162986106D01*
X81630000Y-162956536D01*
X81242081Y-162956536D01*
X81520154Y-162678464D01*
X82180000Y-162678464D01*
X82328659Y-162648894D01*
X82454686Y-162564686D01*
X82538894Y-162438659D01*
X82568464Y-162290000D01*
X82568464Y-161790000D01*
X82538894Y-161641341D01*
X82454686Y-161515314D01*
X82328659Y-161431106D01*
X82180000Y-161401536D01*
X81280000Y-161401536D01*
X81131341Y-161431106D01*
X81005314Y-161515314D01*
X80921106Y-161641341D01*
X80891536Y-161790000D01*
X80891536Y-162049846D01*
X80848464Y-162092918D01*
X80848464Y-161790000D01*
X80818894Y-161641341D01*
X80734686Y-161515314D01*
X80608659Y-161431106D01*
X80460000Y-161401536D01*
X79560000Y-161401536D01*
X79411341Y-161431106D01*
X79285314Y-161515314D01*
X79201106Y-161641341D01*
X79171536Y-161790000D01*
X79171536Y-162145918D01*
X78847760Y-161822142D01*
X78870464Y-161708000D01*
X78870464Y-161208000D01*
X78840894Y-161059341D01*
X78756686Y-160933314D01*
X78630659Y-160849106D01*
X78482000Y-160819536D01*
X77982000Y-160819536D01*
X77833341Y-160849106D01*
X77707314Y-160933314D01*
X77623106Y-161059341D01*
X77593536Y-161208000D01*
X77593536Y-161708000D01*
X77623106Y-161856659D01*
X77707314Y-161982686D01*
X77833341Y-162066894D01*
X77855266Y-162071255D01*
X77886735Y-162118352D01*
X77886738Y-162118355D01*
X77911535Y-162155466D01*
X77948646Y-162180263D01*
X78419202Y-162650819D01*
X77938556Y-162676051D01*
X77571122Y-162828247D01*
X77506207Y-163066602D01*
X78280000Y-163840395D01*
X78294143Y-163826253D01*
X78473748Y-164005858D01*
X78459605Y-164020000D01*
X78473748Y-164034143D01*
X78294143Y-164213748D01*
X78280000Y-164199605D01*
X77506207Y-164973398D01*
X77566988Y-165196576D01*
X77407000Y-165301269D01*
X77153000Y-165301269D01*
X76962391Y-165176538D01*
X76924719Y-165180408D01*
X76496526Y-165406920D01*
X76187610Y-165780053D01*
X76045000Y-166243000D01*
X75894000Y-166243000D01*
X75894000Y-164039091D01*
X75888384Y-164010857D01*
X75864418Y-163821146D01*
X76907688Y-163821146D01*
X76936051Y-164361444D01*
X77088247Y-164728878D01*
X77326602Y-164793793D01*
X78100395Y-164020000D01*
X77326602Y-163246207D01*
X77088247Y-163311122D01*
X76907688Y-163821146D01*
X75864418Y-163821146D01*
X75842525Y-163647845D01*
X75834790Y-163621981D01*
X75832672Y-163595066D01*
X75807182Y-163520616D01*
X75604831Y-163062908D01*
X75585115Y-163032893D01*
X75570853Y-162999936D01*
X75522621Y-162937756D01*
X75182921Y-162570271D01*
X75154547Y-162548262D01*
X75130377Y-162521699D01*
X75064611Y-162478499D01*
X75064605Y-162478495D01*
X75064602Y-162478494D01*
X74624185Y-162240857D01*
X74590210Y-162229225D01*
X74558740Y-162211924D01*
X74482523Y-162192355D01*
X74482520Y-162192354D01*
X74482519Y-162192354D01*
X73995909Y-162111360D01*
X73958909Y-162104000D01*
X68109692Y-162104000D01*
X67728088Y-162040484D01*
X67421260Y-161874928D01*
X67184602Y-161618913D01*
X67039920Y-161291649D01*
X67004000Y-161007313D01*
X67004000Y-159072618D01*
X67091737Y-159160354D01*
X67116534Y-159197466D01*
X67153645Y-159222263D01*
X67153647Y-159222265D01*
X67225088Y-159270000D01*
X67263565Y-159295710D01*
X67393221Y-159321500D01*
X67393225Y-159321500D01*
X67436999Y-159330207D01*
X67480773Y-159321500D01*
X69298226Y-159321500D01*
X69342000Y-159330207D01*
X69385774Y-159321500D01*
X69385779Y-159321500D01*
X69515435Y-159295710D01*
X69662466Y-159197466D01*
X69687265Y-159160352D01*
X70768375Y-158079243D01*
X70805486Y-158054446D01*
X70830283Y-158017335D01*
X70830285Y-158017333D01*
X70903729Y-157907416D01*
X70903730Y-157907415D01*
X70929520Y-157777759D01*
X70929520Y-157777755D01*
X70938227Y-157733981D01*
X70929520Y-157690207D01*
X70929520Y-152562321D01*
X71282342Y-152209500D01*
X75060883Y-152209500D01*
X75555919Y-152704536D01*
X75073000Y-152704536D01*
X74924341Y-152734106D01*
X74798314Y-152818314D01*
X74714106Y-152944341D01*
X74707426Y-152977925D01*
X74610401Y-152880900D01*
X74323351Y-152762000D01*
X74012649Y-152762000D01*
X73725599Y-152880900D01*
X73505900Y-153100599D01*
X73387000Y-153387649D01*
X73387000Y-153698351D01*
X73505900Y-153985401D01*
X73725599Y-154205100D01*
X74012649Y-154324000D01*
X74323351Y-154324000D01*
X74610401Y-154205100D01*
X74707426Y-154108075D01*
X74714106Y-154141659D01*
X74798314Y-154267686D01*
X74827317Y-154287065D01*
X74646646Y-154467737D01*
X74609535Y-154492534D01*
X74584738Y-154529645D01*
X74584735Y-154529648D01*
X74511291Y-154639565D01*
X74476793Y-154813000D01*
X74485501Y-154856778D01*
X74485501Y-154971536D01*
X74080000Y-154971536D01*
X73931341Y-155001106D01*
X73805314Y-155085314D01*
X73721106Y-155211341D01*
X73691536Y-155360000D01*
X73691536Y-155850109D01*
X73669647Y-155864735D01*
X73669645Y-155864737D01*
X73632534Y-155889534D01*
X73607737Y-155926645D01*
X72442646Y-157091737D01*
X72405535Y-157116534D01*
X72380738Y-157153645D01*
X72380735Y-157153648D01*
X72307291Y-157263565D01*
X72272793Y-157437000D01*
X72281501Y-157480778D01*
X72281501Y-158190387D01*
X72177341Y-158211106D01*
X72051314Y-158295314D01*
X71967106Y-158421341D01*
X71937536Y-158570000D01*
X71937536Y-158825500D01*
X71874612Y-158825500D01*
X71853894Y-158721341D01*
X71769686Y-158595314D01*
X71643659Y-158511106D01*
X71495000Y-158481536D01*
X70745000Y-158481536D01*
X70596341Y-158511106D01*
X70470314Y-158595314D01*
X70386106Y-158721341D01*
X70356536Y-158870000D01*
X70356536Y-159670000D01*
X70386106Y-159818659D01*
X70470314Y-159944686D01*
X70596341Y-160028894D01*
X70745000Y-160058464D01*
X71495000Y-160058464D01*
X71643659Y-160028894D01*
X71769686Y-159944686D01*
X71853894Y-159818659D01*
X71874612Y-159714500D01*
X72031144Y-159714500D01*
X72051314Y-159744686D01*
X72177341Y-159828894D01*
X72326000Y-159858464D01*
X73126000Y-159858464D01*
X73274659Y-159828894D01*
X73400686Y-159744686D01*
X73484894Y-159618659D01*
X73514464Y-159470000D01*
X73514464Y-158570000D01*
X73484894Y-158421341D01*
X73400686Y-158295314D01*
X73274659Y-158211106D01*
X73170500Y-158190388D01*
X73170500Y-157621117D01*
X73698186Y-157093432D01*
X73721106Y-157208659D01*
X73805314Y-157334686D01*
X73931341Y-157418894D01*
X74080000Y-157448464D01*
X75780000Y-157448464D01*
X75928659Y-157418894D01*
X76054686Y-157334686D01*
X76138894Y-157208659D01*
X76168464Y-157060000D01*
X76168464Y-155360000D01*
X76138894Y-155211341D01*
X76054686Y-155085314D01*
X75928659Y-155001106D01*
X75780000Y-154971536D01*
X75400081Y-154971536D01*
X75606355Y-154765263D01*
X75643466Y-154740466D01*
X75668263Y-154703355D01*
X75668265Y-154703353D01*
X75741709Y-154593436D01*
X75741710Y-154593435D01*
X75767500Y-154463779D01*
X75767500Y-154463774D01*
X75776207Y-154420000D01*
X75767500Y-154376226D01*
X75767500Y-154321264D01*
X75847686Y-154267686D01*
X75931894Y-154141659D01*
X75961464Y-153993000D01*
X75961464Y-153110082D01*
X76184536Y-153333154D01*
X76184536Y-153993000D01*
X76214106Y-154141659D01*
X76298314Y-154267686D01*
X76378500Y-154321264D01*
X76378501Y-155519222D01*
X76369793Y-155563000D01*
X76381724Y-155622980D01*
X76310424Y-155729688D01*
X76214884Y-156210000D01*
X76310424Y-156690312D01*
X76582499Y-157097501D01*
X76989688Y-157369576D01*
X77348761Y-157441000D01*
X77591239Y-157441000D01*
X77950312Y-157369576D01*
X78357501Y-157097501D01*
X78629576Y-156690312D01*
X78725116Y-156210000D01*
X78754884Y-156210000D01*
X78850424Y-156690312D01*
X79122499Y-157097501D01*
X79529688Y-157369576D01*
X79888761Y-157441000D01*
X80131239Y-157441000D01*
X80490312Y-157369576D01*
X80897501Y-157097501D01*
X81169576Y-156690312D01*
X81265116Y-156210000D01*
X81294884Y-156210000D01*
X81390424Y-156690312D01*
X81662499Y-157097501D01*
X82069688Y-157369576D01*
X82428761Y-157441000D01*
X82671239Y-157441000D01*
X83030312Y-157369576D01*
X83437501Y-157097501D01*
X83709576Y-156690312D01*
X83805116Y-156210000D01*
X83709576Y-155729688D01*
X83437501Y-155322499D01*
X83030312Y-155050424D01*
X82671239Y-154979000D01*
X82428761Y-154979000D01*
X82069688Y-155050424D01*
X81662499Y-155322499D01*
X81390424Y-155729688D01*
X81294884Y-156210000D01*
X81265116Y-156210000D01*
X81169576Y-155729688D01*
X80897501Y-155322499D01*
X80490312Y-155050424D01*
X80131239Y-154979000D01*
X79888761Y-154979000D01*
X79529688Y-155050424D01*
X79122499Y-155322499D01*
X78850424Y-155729688D01*
X78754884Y-156210000D01*
X78725116Y-156210000D01*
X78629576Y-155729688D01*
X78357501Y-155322499D01*
X77950312Y-155050424D01*
X77591239Y-154979000D01*
X77348761Y-154979000D01*
X77267500Y-154995164D01*
X77267500Y-154321264D01*
X77347686Y-154267686D01*
X77431894Y-154141659D01*
X77461464Y-153993000D01*
X77461464Y-153093000D01*
X77431894Y-152944341D01*
X77347686Y-152818314D01*
X77221659Y-152734106D01*
X77073000Y-152704536D01*
X76813154Y-152704536D01*
X75937136Y-151828519D01*
X78906651Y-151828518D01*
X78950429Y-151837226D01*
X79009210Y-151825534D01*
X79123864Y-151802728D01*
X79233781Y-151729284D01*
X79233784Y-151729281D01*
X79270895Y-151704484D01*
X79295692Y-151667373D01*
X81512416Y-149450649D01*
X81896000Y-149450649D01*
X81896000Y-149761351D01*
X82014900Y-150048401D01*
X82232501Y-150266002D01*
X82232500Y-153753226D01*
X82223793Y-153797000D01*
X82232500Y-153840774D01*
X82232500Y-153840778D01*
X82258290Y-153970434D01*
X82356534Y-154117466D01*
X82393648Y-154142265D01*
X83950710Y-155699328D01*
X83930424Y-155729688D01*
X83834884Y-156210000D01*
X83930424Y-156690312D01*
X84202499Y-157097501D01*
X84609688Y-157369576D01*
X84968761Y-157441000D01*
X85211239Y-157441000D01*
X85570312Y-157369576D01*
X85977501Y-157097501D01*
X86247755Y-156693037D01*
X86434817Y-157091358D01*
X86863076Y-157481645D01*
X87273110Y-157651476D01*
X87503000Y-157530155D01*
X87503000Y-156337000D01*
X87757000Y-156337000D01*
X87757000Y-157530155D01*
X87986890Y-157651476D01*
X88396924Y-157481645D01*
X88825183Y-157091358D01*
X89071486Y-156566892D01*
X88950819Y-156337000D01*
X87757000Y-156337000D01*
X87503000Y-156337000D01*
X87483000Y-156337000D01*
X87483000Y-156083000D01*
X87503000Y-156083000D01*
X87503000Y-154889845D01*
X87757000Y-154889845D01*
X87757000Y-156083000D01*
X88950819Y-156083000D01*
X89071486Y-155853108D01*
X88825183Y-155328642D01*
X88396924Y-154938355D01*
X87986890Y-154768524D01*
X87757000Y-154889845D01*
X87503000Y-154889845D01*
X87273110Y-154768524D01*
X86863076Y-154938355D01*
X86434817Y-155328642D01*
X86247755Y-155726963D01*
X85977501Y-155322499D01*
X85570312Y-155050424D01*
X85211239Y-154979000D01*
X84968761Y-154979000D01*
X84609688Y-155050424D01*
X84579328Y-155070710D01*
X83121500Y-153612883D01*
X83121500Y-150266001D01*
X83339100Y-150048401D01*
X83458000Y-149761351D01*
X83458000Y-149450649D01*
X83339100Y-149163599D01*
X83119401Y-148943900D01*
X82832351Y-148825000D01*
X82521649Y-148825000D01*
X82234599Y-148943900D01*
X82014900Y-149163599D01*
X81896000Y-149450649D01*
X81512416Y-149450649D01*
X83039228Y-147923838D01*
X83063900Y-147983401D01*
X83283599Y-148203100D01*
X83570649Y-148322000D01*
X83881351Y-148322000D01*
X84168401Y-148203100D01*
X84274536Y-148096965D01*
X84274536Y-148316000D01*
X84304106Y-148464659D01*
X84388314Y-148590686D01*
X84514341Y-148674894D01*
X84663000Y-148704464D01*
X85263000Y-148704464D01*
X85411659Y-148674894D01*
X85537686Y-148590686D01*
X85621894Y-148464659D01*
X85651464Y-148316000D01*
X85651464Y-146766000D01*
X85621894Y-146617341D01*
X85610123Y-146599724D01*
X86835107Y-146599724D01*
X86847558Y-146612175D01*
X86844106Y-146617341D01*
X86814536Y-146766000D01*
X86814536Y-148316000D01*
X86844106Y-148464659D01*
X86928314Y-148590686D01*
X87054341Y-148674894D01*
X87203000Y-148704464D01*
X87562847Y-148704464D01*
X87985737Y-149127355D01*
X88010534Y-149164466D01*
X88047645Y-149189263D01*
X88047647Y-149189265D01*
X88119528Y-149237294D01*
X88157565Y-149262710D01*
X88287221Y-149288500D01*
X88287226Y-149288500D01*
X88331000Y-149297207D01*
X88374774Y-149288500D01*
X89237226Y-149288500D01*
X89281000Y-149297207D01*
X89324774Y-149288500D01*
X89324779Y-149288500D01*
X89454435Y-149262710D01*
X89601466Y-149164466D01*
X89626265Y-149127352D01*
X89945354Y-148808263D01*
X89982466Y-148783466D01*
X90007263Y-148746355D01*
X90007265Y-148746353D01*
X90080709Y-148636436D01*
X90080710Y-148636435D01*
X90106500Y-148506779D01*
X90106500Y-148506775D01*
X90115207Y-148463001D01*
X90106500Y-148419227D01*
X90106500Y-145666871D01*
X90115207Y-145623097D01*
X90106500Y-145579323D01*
X90106500Y-145579319D01*
X90080710Y-145449663D01*
X90033671Y-145379265D01*
X90007265Y-145339745D01*
X90007263Y-145339743D01*
X89982466Y-145302632D01*
X89945355Y-145277835D01*
X89003516Y-144335997D01*
X90621380Y-144335997D01*
X90741490Y-144456108D01*
X90741490Y-144456108D01*
G37*
X90741490Y-144456108D02*
X90741491Y-152610212D01*
X90732783Y-152653990D01*
X90741491Y-152697769D01*
X90741500Y-152697814D01*
X90741501Y-155619222D01*
X90732793Y-155663000D01*
X90767291Y-155836435D01*
X90840735Y-155946352D01*
X90840738Y-155946355D01*
X90865535Y-155983466D01*
X90902646Y-156008263D01*
X92657737Y-157763355D01*
X92682534Y-157800466D01*
X92719645Y-157825263D01*
X92719647Y-157825265D01*
X92741536Y-157839891D01*
X92741536Y-158330000D01*
X92771106Y-158478659D01*
X92855314Y-158604686D01*
X92977758Y-158686500D01*
X89084118Y-158686500D01*
X88483265Y-158085648D01*
X88458466Y-158048534D01*
X88311435Y-157950290D01*
X88181779Y-157924500D01*
X88181774Y-157924500D01*
X88138000Y-157915793D01*
X88094226Y-157924500D01*
X79541774Y-157924500D01*
X79498000Y-157915793D01*
X79454226Y-157924500D01*
X79454221Y-157924500D01*
X79324565Y-157950290D01*
X79324563Y-157950291D01*
X79324564Y-157950291D01*
X79214647Y-158023735D01*
X79214645Y-158023737D01*
X79177534Y-158048534D01*
X79152737Y-158085645D01*
X78596142Y-158642240D01*
X78482000Y-158619536D01*
X77982000Y-158619536D01*
X77833341Y-158649106D01*
X77707314Y-158733314D01*
X77623106Y-158859341D01*
X77593536Y-159008000D01*
X77593536Y-159508000D01*
X77616240Y-159622142D01*
X76865460Y-160372922D01*
X76849686Y-160349314D01*
X76723659Y-160265106D01*
X76575000Y-160235536D01*
X75825000Y-160235536D01*
X75676341Y-160265106D01*
X75550314Y-160349314D01*
X75466106Y-160475341D01*
X75445388Y-160579500D01*
X74464464Y-160579500D01*
X74464464Y-160570000D01*
X74434894Y-160421341D01*
X74350686Y-160295314D01*
X74224659Y-160211106D01*
X74076000Y-160181536D01*
X73276000Y-160181536D01*
X73127341Y-160211106D01*
X73001314Y-160295314D01*
X72917106Y-160421341D01*
X72887536Y-160570000D01*
X72887536Y-161470000D01*
X72917106Y-161618659D01*
X73001314Y-161744686D01*
X73127341Y-161828894D01*
X73276000Y-161858464D01*
X74076000Y-161858464D01*
X74224659Y-161828894D01*
X74350686Y-161744686D01*
X74434894Y-161618659D01*
X74464464Y-161470000D01*
X74464464Y-161468500D01*
X75445388Y-161468500D01*
X75466106Y-161572659D01*
X75550314Y-161698686D01*
X75676341Y-161782894D01*
X75825000Y-161812464D01*
X76575000Y-161812464D01*
X76723659Y-161782894D01*
X76849686Y-161698686D01*
X76933894Y-161572659D01*
X76957407Y-161454451D01*
X77016435Y-161442710D01*
X77163466Y-161344466D01*
X77188265Y-161307352D01*
X78515355Y-159980263D01*
X78552466Y-159955466D01*
X78577263Y-159918355D01*
X78577265Y-159918353D01*
X78608735Y-159871255D01*
X78630659Y-159866894D01*
X78756686Y-159782686D01*
X78840894Y-159656659D01*
X78845255Y-159634735D01*
X78929466Y-159578466D01*
X78954265Y-159541352D01*
X79329000Y-159166617D01*
X79329000Y-159393459D01*
X79432676Y-159643756D01*
X79565500Y-159776580D01*
X79565500Y-159901536D01*
X79560000Y-159901536D01*
X79411341Y-159931106D01*
X79285314Y-160015314D01*
X79201106Y-160141341D01*
X79171536Y-160290000D01*
X79171536Y-160790000D01*
X79201106Y-160938659D01*
X79285314Y-161064686D01*
X79411341Y-161148894D01*
X79560000Y-161178464D01*
X80460000Y-161178464D01*
X80608659Y-161148894D01*
X80734686Y-161064686D01*
X80818894Y-160938659D01*
X80848464Y-160790000D01*
X80848464Y-160290000D01*
X80818894Y-160141341D01*
X80734686Y-160015314D01*
X80608659Y-159931106D01*
X80460000Y-159901536D01*
X80454500Y-159901536D01*
X80454500Y-159776580D01*
X80587324Y-159643756D01*
X80691000Y-159393459D01*
X80691000Y-159122541D01*
X80587324Y-158872244D01*
X80528580Y-158813500D01*
X81142420Y-158813500D01*
X81083676Y-158872244D01*
X80980000Y-159122541D01*
X80980000Y-159393459D01*
X81083676Y-159643756D01*
X81216500Y-159776580D01*
X81216500Y-159914167D01*
X81131341Y-159931106D01*
X81005314Y-160015314D01*
X80921106Y-160141341D01*
X80891536Y-160290000D01*
X80891536Y-160790000D01*
X80921106Y-160938659D01*
X81005314Y-161064686D01*
X81131341Y-161148894D01*
X81280000Y-161178464D01*
X82180000Y-161178464D01*
X82328659Y-161148894D01*
X82454686Y-161064686D01*
X82538894Y-160938659D01*
X82568464Y-160790000D01*
X82568464Y-160290000D01*
X82538894Y-160141341D01*
X82454686Y-160015314D01*
X82328659Y-159931106D01*
X82180000Y-159901536D01*
X82105500Y-159901536D01*
X82105500Y-159776580D01*
X82238324Y-159643756D01*
X82342000Y-159393459D01*
X82342000Y-159122541D01*
X82238324Y-158872244D01*
X82179580Y-158813500D01*
X87953883Y-158813500D01*
X88554737Y-159414355D01*
X88579534Y-159451466D01*
X88616645Y-159476263D01*
X88616647Y-159476265D01*
X88664142Y-159508000D01*
X88726565Y-159549710D01*
X88856221Y-159575500D01*
X88856226Y-159575500D01*
X88900000Y-159584207D01*
X88943774Y-159575500D01*
X94556728Y-159575500D01*
X94600502Y-159584207D01*
X94644276Y-159575500D01*
X94644281Y-159575500D01*
X94773937Y-159549710D01*
X94920968Y-159451466D01*
X94945767Y-159414352D01*
X95430856Y-158929264D01*
X95467967Y-158904467D01*
X95492764Y-158867356D01*
X95492766Y-158867354D01*
X95556001Y-158772716D01*
X95556001Y-159213087D01*
X95556000Y-159213092D01*
X95556001Y-160998303D01*
X95492484Y-161379912D01*
X95326928Y-161686740D01*
X95070913Y-161923398D01*
X94743649Y-162068080D01*
X94459313Y-162104000D01*
X87331091Y-162104000D01*
X87302857Y-162109616D01*
X86939845Y-162155475D01*
X86913981Y-162163210D01*
X86887066Y-162165328D01*
X86812616Y-162190818D01*
X86354908Y-162393169D01*
X86324893Y-162412885D01*
X86291936Y-162427147D01*
X86229756Y-162475379D01*
X85862271Y-162815079D01*
X85840262Y-162843453D01*
X85813699Y-162867623D01*
X85770499Y-162933389D01*
X85770495Y-162933395D01*
X85770495Y-162933396D01*
X85532857Y-163373815D01*
X85521225Y-163407790D01*
X85503924Y-163439260D01*
X85484354Y-163515481D01*
X85403355Y-164002122D01*
X85396001Y-164039091D01*
X85396000Y-165856698D01*
X85372390Y-165780053D01*
X85063474Y-165406920D01*
X84635281Y-165180408D01*
X84597609Y-165176538D01*
X84407000Y-165301269D01*
X84407000Y-166593000D01*
X84427000Y-166593000D01*
X84427000Y-166847000D01*
X84407000Y-166847000D01*
X84407000Y-166867000D01*
X84153000Y-166867000D01*
X84153000Y-166847000D01*
X83045000Y-166847000D01*
X83045000Y-167197000D01*
X83187610Y-167659947D01*
X83214147Y-167692000D01*
X78345853Y-167692000D01*
X78372390Y-167659947D01*
X78515000Y-167197000D01*
X78515000Y-166847000D01*
X77407000Y-166847000D01*
X77407000Y-166867000D01*
X77153000Y-166867000D01*
X77153000Y-166847000D01*
X76045000Y-166847000D01*
X76045000Y-167139955D01*
X75929920Y-166879649D01*
X75894000Y-166595313D01*
X75894000Y-166243000D01*
X76045000Y-166243000D01*
X76045000Y-166593000D01*
X77153000Y-166593000D01*
X77153000Y-165301269D01*
X77407000Y-165301269D01*
X77407000Y-166593000D01*
X78515000Y-166593000D01*
X78515000Y-166243000D01*
X78372390Y-165780053D01*
X78063474Y-165406920D01*
X77944232Y-165343842D01*
X78081146Y-165392312D01*
X78621444Y-165363949D01*
X78988878Y-165211753D01*
X79047185Y-164997663D01*
X79131341Y-165053894D01*
X79135017Y-165054625D01*
X79168942Y-165088550D01*
X79191610Y-165065882D01*
X79280000Y-165083464D01*
X79680000Y-165083464D01*
X79805000Y-165058600D01*
X79930000Y-165083464D01*
X80330000Y-165083464D01*
X80455000Y-165058600D01*
X80580000Y-165083464D01*
X80980000Y-165083464D01*
X81105000Y-165058600D01*
X81230000Y-165083464D01*
X81630000Y-165083464D01*
X81778659Y-165053894D01*
X81899130Y-164973398D01*
X82506207Y-164973398D01*
X82571122Y-165211753D01*
X83081146Y-165392312D01*
X83572945Y-165366495D01*
X83496526Y-165406920D01*
X83187610Y-165780053D01*
X83045000Y-166243000D01*
X83045000Y-166593000D01*
X84153000Y-166593000D01*
X84153000Y-165301269D01*
X83993012Y-165196576D01*
X84053793Y-164973398D01*
X83280000Y-164199605D01*
X82506207Y-164973398D01*
X81899130Y-164973398D01*
X81904686Y-164969686D01*
X81988894Y-164843659D01*
X82018464Y-164695000D01*
X82018464Y-164560407D01*
X82088247Y-164728878D01*
X82326602Y-164793793D01*
X83100395Y-164020000D01*
X83459605Y-164020000D01*
X84233398Y-164793793D01*
X84471753Y-164728878D01*
X84652312Y-164218854D01*
X84623949Y-163678556D01*
X84471753Y-163311122D01*
X84233398Y-163246207D01*
X83459605Y-164020000D01*
X83100395Y-164020000D01*
X82326602Y-163246207D01*
X82088247Y-163311122D01*
X82018464Y-163508238D01*
X82018464Y-163345000D01*
X81988894Y-163196341D01*
X81904686Y-163070314D01*
X81899131Y-163066602D01*
X82506207Y-163066602D01*
X83280000Y-163840395D01*
X84053793Y-163066602D01*
X83988878Y-162828247D01*
X83478854Y-162647688D01*
X82938556Y-162676051D01*
X82571122Y-162828247D01*
X82506207Y-163066602D01*
X81899131Y-163066602D01*
X81778659Y-162986106D01*
X81630000Y-162956536D01*
X81242081Y-162956536D01*
X81520154Y-162678464D01*
X82180000Y-162678464D01*
X82328659Y-162648894D01*
X82454686Y-162564686D01*
X82538894Y-162438659D01*
X82568464Y-162290000D01*
X82568464Y-161790000D01*
X82538894Y-161641341D01*
X82454686Y-161515314D01*
X82328659Y-161431106D01*
X82180000Y-161401536D01*
X81280000Y-161401536D01*
X81131341Y-161431106D01*
X81005314Y-161515314D01*
X80921106Y-161641341D01*
X80891536Y-161790000D01*
X80891536Y-162049846D01*
X80848464Y-162092918D01*
X80848464Y-161790000D01*
X80818894Y-161641341D01*
X80734686Y-161515314D01*
X80608659Y-161431106D01*
X80460000Y-161401536D01*
X79560000Y-161401536D01*
X79411341Y-161431106D01*
X79285314Y-161515314D01*
X79201106Y-161641341D01*
X79171536Y-161790000D01*
X79171536Y-162145918D01*
X78847760Y-161822142D01*
X78870464Y-161708000D01*
X78870464Y-161208000D01*
X78840894Y-161059341D01*
X78756686Y-160933314D01*
X78630659Y-160849106D01*
X78482000Y-160819536D01*
X77982000Y-160819536D01*
X77833341Y-160849106D01*
X77707314Y-160933314D01*
X77623106Y-161059341D01*
X77593536Y-161208000D01*
X77593536Y-161708000D01*
X77623106Y-161856659D01*
X77707314Y-161982686D01*
X77833341Y-162066894D01*
X77855266Y-162071255D01*
X77886735Y-162118352D01*
X77886738Y-162118355D01*
X77911535Y-162155466D01*
X77948646Y-162180263D01*
X78419202Y-162650819D01*
X77938556Y-162676051D01*
X77571122Y-162828247D01*
X77506207Y-163066602D01*
X78280000Y-163840395D01*
X78294143Y-163826253D01*
X78473748Y-164005858D01*
X78459605Y-164020000D01*
X78473748Y-164034143D01*
X78294143Y-164213748D01*
X78280000Y-164199605D01*
X77506207Y-164973398D01*
X77566988Y-165196576D01*
X77407000Y-165301269D01*
X77153000Y-165301269D01*
X76962391Y-165176538D01*
X76924719Y-165180408D01*
X76496526Y-165406920D01*
X76187610Y-165780053D01*
X76045000Y-166243000D01*
X75894000Y-166243000D01*
X75894000Y-164039091D01*
X75888384Y-164010857D01*
X75864418Y-163821146D01*
X76907688Y-163821146D01*
X76936051Y-164361444D01*
X77088247Y-164728878D01*
X77326602Y-164793793D01*
X78100395Y-164020000D01*
X77326602Y-163246207D01*
X77088247Y-163311122D01*
X76907688Y-163821146D01*
X75864418Y-163821146D01*
X75842525Y-163647845D01*
X75834790Y-163621981D01*
X75832672Y-163595066D01*
X75807182Y-163520616D01*
X75604831Y-163062908D01*
X75585115Y-163032893D01*
X75570853Y-162999936D01*
X75522621Y-162937756D01*
X75182921Y-162570271D01*
X75154547Y-162548262D01*
X75130377Y-162521699D01*
X75064611Y-162478499D01*
X75064605Y-162478495D01*
X75064602Y-162478494D01*
X74624185Y-162240857D01*
X74590210Y-162229225D01*
X74558740Y-162211924D01*
X74482523Y-162192355D01*
X74482520Y-162192354D01*
X74482519Y-162192354D01*
X73995909Y-162111360D01*
X73958909Y-162104000D01*
X68109692Y-162104000D01*
X67728088Y-162040484D01*
X67421260Y-161874928D01*
X67184602Y-161618913D01*
X67039920Y-161291649D01*
X67004000Y-161007313D01*
X67004000Y-159072618D01*
X67091737Y-159160354D01*
X67116534Y-159197466D01*
X67153645Y-159222263D01*
X67153647Y-159222265D01*
X67225088Y-159270000D01*
X67263565Y-159295710D01*
X67393221Y-159321500D01*
X67393225Y-159321500D01*
X67436999Y-159330207D01*
X67480773Y-159321500D01*
X69298226Y-159321500D01*
X69342000Y-159330207D01*
X69385774Y-159321500D01*
X69385779Y-159321500D01*
X69515435Y-159295710D01*
X69662466Y-159197466D01*
X69687265Y-159160352D01*
X70768375Y-158079243D01*
X70805486Y-158054446D01*
X70830283Y-158017335D01*
X70830285Y-158017333D01*
X70903729Y-157907416D01*
X70903730Y-157907415D01*
X70929520Y-157777759D01*
X70929520Y-157777755D01*
X70938227Y-157733981D01*
X70929520Y-157690207D01*
X70929520Y-152562321D01*
X71282342Y-152209500D01*
X75060883Y-152209500D01*
X75555919Y-152704536D01*
X75073000Y-152704536D01*
X74924341Y-152734106D01*
X74798314Y-152818314D01*
X74714106Y-152944341D01*
X74707426Y-152977925D01*
X74610401Y-152880900D01*
X74323351Y-152762000D01*
X74012649Y-152762000D01*
X73725599Y-152880900D01*
X73505900Y-153100599D01*
X73387000Y-153387649D01*
X73387000Y-153698351D01*
X73505900Y-153985401D01*
X73725599Y-154205100D01*
X74012649Y-154324000D01*
X74323351Y-154324000D01*
X74610401Y-154205100D01*
X74707426Y-154108075D01*
X74714106Y-154141659D01*
X74798314Y-154267686D01*
X74827317Y-154287065D01*
X74646646Y-154467737D01*
X74609535Y-154492534D01*
X74584738Y-154529645D01*
X74584735Y-154529648D01*
X74511291Y-154639565D01*
X74476793Y-154813000D01*
X74485501Y-154856778D01*
X74485501Y-154971536D01*
X74080000Y-154971536D01*
X73931341Y-155001106D01*
X73805314Y-155085314D01*
X73721106Y-155211341D01*
X73691536Y-155360000D01*
X73691536Y-155850109D01*
X73669647Y-155864735D01*
X73669645Y-155864737D01*
X73632534Y-155889534D01*
X73607737Y-155926645D01*
X72442646Y-157091737D01*
X72405535Y-157116534D01*
X72380738Y-157153645D01*
X72380735Y-157153648D01*
X72307291Y-157263565D01*
X72272793Y-157437000D01*
X72281501Y-157480778D01*
X72281501Y-158190387D01*
X72177341Y-158211106D01*
X72051314Y-158295314D01*
X71967106Y-158421341D01*
X71937536Y-158570000D01*
X71937536Y-158825500D01*
X71874612Y-158825500D01*
X71853894Y-158721341D01*
X71769686Y-158595314D01*
X71643659Y-158511106D01*
X71495000Y-158481536D01*
X70745000Y-158481536D01*
X70596341Y-158511106D01*
X70470314Y-158595314D01*
X70386106Y-158721341D01*
X70356536Y-158870000D01*
X70356536Y-159670000D01*
X70386106Y-159818659D01*
X70470314Y-159944686D01*
X70596341Y-160028894D01*
X70745000Y-160058464D01*
X71495000Y-160058464D01*
X71643659Y-160028894D01*
X71769686Y-159944686D01*
X71853894Y-159818659D01*
X71874612Y-159714500D01*
X72031144Y-159714500D01*
X72051314Y-159744686D01*
X72177341Y-159828894D01*
X72326000Y-159858464D01*
X73126000Y-159858464D01*
X73274659Y-159828894D01*
X73400686Y-159744686D01*
X73484894Y-159618659D01*
X73514464Y-159470000D01*
X73514464Y-158570000D01*
X73484894Y-158421341D01*
X73400686Y-158295314D01*
X73274659Y-158211106D01*
X73170500Y-158190388D01*
X73170500Y-157621117D01*
X73698186Y-157093432D01*
X73721106Y-157208659D01*
X73805314Y-157334686D01*
X73931341Y-157418894D01*
X74080000Y-157448464D01*
X75780000Y-157448464D01*
X75928659Y-157418894D01*
X76054686Y-157334686D01*
X76138894Y-157208659D01*
X76168464Y-157060000D01*
X76168464Y-155360000D01*
X76138894Y-155211341D01*
X76054686Y-155085314D01*
X75928659Y-155001106D01*
X75780000Y-154971536D01*
X75400081Y-154971536D01*
X75606355Y-154765263D01*
X75643466Y-154740466D01*
X75668263Y-154703355D01*
X75668265Y-154703353D01*
X75741709Y-154593436D01*
X75741710Y-154593435D01*
X75767500Y-154463779D01*
X75767500Y-154463774D01*
X75776207Y-154420000D01*
X75767500Y-154376226D01*
X75767500Y-154321264D01*
X75847686Y-154267686D01*
X75931894Y-154141659D01*
X75961464Y-153993000D01*
X75961464Y-153110082D01*
X76184536Y-153333154D01*
X76184536Y-153993000D01*
X76214106Y-154141659D01*
X76298314Y-154267686D01*
X76378500Y-154321264D01*
X76378501Y-155519222D01*
X76369793Y-155563000D01*
X76381724Y-155622980D01*
X76310424Y-155729688D01*
X76214884Y-156210000D01*
X76310424Y-156690312D01*
X76582499Y-157097501D01*
X76989688Y-157369576D01*
X77348761Y-157441000D01*
X77591239Y-157441000D01*
X77950312Y-157369576D01*
X78357501Y-157097501D01*
X78629576Y-156690312D01*
X78725116Y-156210000D01*
X78754884Y-156210000D01*
X78850424Y-156690312D01*
X79122499Y-157097501D01*
X79529688Y-157369576D01*
X79888761Y-157441000D01*
X80131239Y-157441000D01*
X80490312Y-157369576D01*
X80897501Y-157097501D01*
X81169576Y-156690312D01*
X81265116Y-156210000D01*
X81294884Y-156210000D01*
X81390424Y-156690312D01*
X81662499Y-157097501D01*
X82069688Y-157369576D01*
X82428761Y-157441000D01*
X82671239Y-157441000D01*
X83030312Y-157369576D01*
X83437501Y-157097501D01*
X83709576Y-156690312D01*
X83805116Y-156210000D01*
X83709576Y-155729688D01*
X83437501Y-155322499D01*
X83030312Y-155050424D01*
X82671239Y-154979000D01*
X82428761Y-154979000D01*
X82069688Y-155050424D01*
X81662499Y-155322499D01*
X81390424Y-155729688D01*
X81294884Y-156210000D01*
X81265116Y-156210000D01*
X81169576Y-155729688D01*
X80897501Y-155322499D01*
X80490312Y-155050424D01*
X80131239Y-154979000D01*
X79888761Y-154979000D01*
X79529688Y-155050424D01*
X79122499Y-155322499D01*
X78850424Y-155729688D01*
X78754884Y-156210000D01*
X78725116Y-156210000D01*
X78629576Y-155729688D01*
X78357501Y-155322499D01*
X77950312Y-155050424D01*
X77591239Y-154979000D01*
X77348761Y-154979000D01*
X77267500Y-154995164D01*
X77267500Y-154321264D01*
X77347686Y-154267686D01*
X77431894Y-154141659D01*
X77461464Y-153993000D01*
X77461464Y-153093000D01*
X77431894Y-152944341D01*
X77347686Y-152818314D01*
X77221659Y-152734106D01*
X77073000Y-152704536D01*
X76813154Y-152704536D01*
X75937136Y-151828519D01*
X78906651Y-151828518D01*
X78950429Y-151837226D01*
X79009210Y-151825534D01*
X79123864Y-151802728D01*
X79233781Y-151729284D01*
X79233784Y-151729281D01*
X79270895Y-151704484D01*
X79295692Y-151667373D01*
X81512416Y-149450649D01*
X81896000Y-149450649D01*
X81896000Y-149761351D01*
X82014900Y-150048401D01*
X82232501Y-150266002D01*
X82232500Y-153753226D01*
X82223793Y-153797000D01*
X82232500Y-153840774D01*
X82232500Y-153840778D01*
X82258290Y-153970434D01*
X82356534Y-154117466D01*
X82393648Y-154142265D01*
X83950710Y-155699328D01*
X83930424Y-155729688D01*
X83834884Y-156210000D01*
X83930424Y-156690312D01*
X84202499Y-157097501D01*
X84609688Y-157369576D01*
X84968761Y-157441000D01*
X85211239Y-157441000D01*
X85570312Y-157369576D01*
X85977501Y-157097501D01*
X86247755Y-156693037D01*
X86434817Y-157091358D01*
X86863076Y-157481645D01*
X87273110Y-157651476D01*
X87503000Y-157530155D01*
X87503000Y-156337000D01*
X87757000Y-156337000D01*
X87757000Y-157530155D01*
X87986890Y-157651476D01*
X88396924Y-157481645D01*
X88825183Y-157091358D01*
X89071486Y-156566892D01*
X88950819Y-156337000D01*
X87757000Y-156337000D01*
X87503000Y-156337000D01*
X87483000Y-156337000D01*
X87483000Y-156083000D01*
X87503000Y-156083000D01*
X87503000Y-154889845D01*
X87757000Y-154889845D01*
X87757000Y-156083000D01*
X88950819Y-156083000D01*
X89071486Y-155853108D01*
X88825183Y-155328642D01*
X88396924Y-154938355D01*
X87986890Y-154768524D01*
X87757000Y-154889845D01*
X87503000Y-154889845D01*
X87273110Y-154768524D01*
X86863076Y-154938355D01*
X86434817Y-155328642D01*
X86247755Y-155726963D01*
X85977501Y-155322499D01*
X85570312Y-155050424D01*
X85211239Y-154979000D01*
X84968761Y-154979000D01*
X84609688Y-155050424D01*
X84579328Y-155070710D01*
X83121500Y-153612883D01*
X83121500Y-150266001D01*
X83339100Y-150048401D01*
X83458000Y-149761351D01*
X83458000Y-149450649D01*
X83339100Y-149163599D01*
X83119401Y-148943900D01*
X82832351Y-148825000D01*
X82521649Y-148825000D01*
X82234599Y-148943900D01*
X82014900Y-149163599D01*
X81896000Y-149450649D01*
X81512416Y-149450649D01*
X83039228Y-147923838D01*
X83063900Y-147983401D01*
X83283599Y-148203100D01*
X83570649Y-148322000D01*
X83881351Y-148322000D01*
X84168401Y-148203100D01*
X84274536Y-148096965D01*
X84274536Y-148316000D01*
X84304106Y-148464659D01*
X84388314Y-148590686D01*
X84514341Y-148674894D01*
X84663000Y-148704464D01*
X85263000Y-148704464D01*
X85411659Y-148674894D01*
X85537686Y-148590686D01*
X85621894Y-148464659D01*
X85651464Y-148316000D01*
X85651464Y-146766000D01*
X85621894Y-146617341D01*
X85610123Y-146599724D01*
X86835107Y-146599724D01*
X86847558Y-146612175D01*
X86844106Y-146617341D01*
X86814536Y-146766000D01*
X86814536Y-148316000D01*
X86844106Y-148464659D01*
X86928314Y-148590686D01*
X87054341Y-148674894D01*
X87203000Y-148704464D01*
X87562847Y-148704464D01*
X87985737Y-149127355D01*
X88010534Y-149164466D01*
X88047645Y-149189263D01*
X88047647Y-149189265D01*
X88119528Y-149237294D01*
X88157565Y-149262710D01*
X88287221Y-149288500D01*
X88287226Y-149288500D01*
X88331000Y-149297207D01*
X88374774Y-149288500D01*
X89237226Y-149288500D01*
X89281000Y-149297207D01*
X89324774Y-149288500D01*
X89324779Y-149288500D01*
X89454435Y-149262710D01*
X89601466Y-149164466D01*
X89626265Y-149127352D01*
X89945354Y-148808263D01*
X89982466Y-148783466D01*
X90007263Y-148746355D01*
X90007265Y-148746353D01*
X90080709Y-148636436D01*
X90080710Y-148636435D01*
X90106500Y-148506779D01*
X90106500Y-148506775D01*
X90115207Y-148463001D01*
X90106500Y-148419227D01*
X90106500Y-145666871D01*
X90115207Y-145623097D01*
X90106500Y-145579323D01*
X90106500Y-145579319D01*
X90080710Y-145449663D01*
X90033671Y-145379265D01*
X90007265Y-145339745D01*
X90007263Y-145339743D01*
X89982466Y-145302632D01*
X89945355Y-145277835D01*
X89003516Y-144335997D01*
X90621380Y-144335997D01*
X90741490Y-144456108D01*
G36*
X79241727Y-144943030D02*
X79212157Y-145091689D01*
X79240158Y-145232458D01*
X79229651Y-145225438D01*
X79080992Y-145195868D01*
X78932333Y-145225438D01*
X78806306Y-145309646D01*
X78275976Y-145839976D01*
X78191768Y-145966003D01*
X78162198Y-146114662D01*
X78191768Y-146263321D01*
X78275976Y-146389348D01*
X78654170Y-146767542D01*
X78654171Y-148936211D01*
X78511382Y-149079000D01*
X78203649Y-149079000D01*
X77916599Y-149197900D01*
X77696900Y-149417599D01*
X77578000Y-149704649D01*
X77578000Y-150015351D01*
X77696900Y-150302401D01*
X77825999Y-150431500D01*
X70147773Y-150431500D01*
X70103999Y-150422793D01*
X70060225Y-150431500D01*
X70060221Y-150431500D01*
X69930565Y-150457290D01*
X69930563Y-150457291D01*
X69930564Y-150457291D01*
X69820647Y-150530735D01*
X69820645Y-150530737D01*
X69783534Y-150555534D01*
X69758737Y-150592645D01*
X69090672Y-151260710D01*
X69060312Y-151240424D01*
X68701239Y-151169000D01*
X68458761Y-151169000D01*
X68099688Y-151240424D01*
X67692499Y-151512499D01*
X67500500Y-151799846D01*
X67500500Y-150460154D01*
X67692499Y-150747501D01*
X68099688Y-151019576D01*
X68458761Y-151091000D01*
X68701239Y-151091000D01*
X69060312Y-151019576D01*
X69467501Y-150747501D01*
X69739576Y-150340312D01*
X69746699Y-150304500D01*
X73489226Y-150304500D01*
X73533000Y-150313207D01*
X73576774Y-150304500D01*
X73576779Y-150304500D01*
X73706435Y-150278710D01*
X73853466Y-150180466D01*
X73878265Y-150143352D01*
X78704265Y-145317353D01*
X78704267Y-145317350D01*
X79052921Y-144968697D01*
X79084628Y-144962390D01*
X79117485Y-144940436D01*
X79218950Y-144920253D01*
X79287591Y-144874389D01*
X79241727Y-144943030D01*
X79241727Y-144943030D01*
G37*
X79241727Y-144943030D02*
X79212157Y-145091689D01*
X79240158Y-145232458D01*
X79229651Y-145225438D01*
X79080992Y-145195868D01*
X78932333Y-145225438D01*
X78806306Y-145309646D01*
X78275976Y-145839976D01*
X78191768Y-145966003D01*
X78162198Y-146114662D01*
X78191768Y-146263321D01*
X78275976Y-146389348D01*
X78654170Y-146767542D01*
X78654171Y-148936211D01*
X78511382Y-149079000D01*
X78203649Y-149079000D01*
X77916599Y-149197900D01*
X77696900Y-149417599D01*
X77578000Y-149704649D01*
X77578000Y-150015351D01*
X77696900Y-150302401D01*
X77825999Y-150431500D01*
X70147773Y-150431500D01*
X70103999Y-150422793D01*
X70060225Y-150431500D01*
X70060221Y-150431500D01*
X69930565Y-150457290D01*
X69930563Y-150457291D01*
X69930564Y-150457291D01*
X69820647Y-150530735D01*
X69820645Y-150530737D01*
X69783534Y-150555534D01*
X69758737Y-150592645D01*
X69090672Y-151260710D01*
X69060312Y-151240424D01*
X68701239Y-151169000D01*
X68458761Y-151169000D01*
X68099688Y-151240424D01*
X67692499Y-151512499D01*
X67500500Y-151799846D01*
X67500500Y-150460154D01*
X67692499Y-150747501D01*
X68099688Y-151019576D01*
X68458761Y-151091000D01*
X68701239Y-151091000D01*
X69060312Y-151019576D01*
X69467501Y-150747501D01*
X69739576Y-150340312D01*
X69746699Y-150304500D01*
X73489226Y-150304500D01*
X73533000Y-150313207D01*
X73576774Y-150304500D01*
X73576779Y-150304500D01*
X73706435Y-150278710D01*
X73853466Y-150180466D01*
X73878265Y-150143352D01*
X78704265Y-145317353D01*
X78704267Y-145317350D01*
X79052921Y-144968697D01*
X79084628Y-144962390D01*
X79117485Y-144940436D01*
X79218950Y-144920253D01*
X79287591Y-144874389D01*
X79241727Y-144943030D01*
G36*
X83533221Y-137270003D02*
X83639191Y-137340809D01*
X83709997Y-137446779D01*
X83886774Y-137623556D01*
X83992744Y-137694363D01*
X84063551Y-137800333D01*
X84240328Y-137977110D01*
X84346298Y-138047916D01*
X84417104Y-138153886D01*
X84593881Y-138330663D01*
X84699851Y-138401469D01*
X84770657Y-138507439D01*
X84947434Y-138684216D01*
X85053404Y-138755023D01*
X85124211Y-138860993D01*
X85248882Y-138985664D01*
X85229621Y-138998534D01*
X85193402Y-139052740D01*
X85085244Y-139097540D01*
X84893676Y-139289108D01*
X84795138Y-139527000D01*
X84573541Y-139527000D01*
X84323244Y-139630676D01*
X84131676Y-139822244D01*
X84028000Y-140072541D01*
X84028000Y-140343459D01*
X84131676Y-140593756D01*
X84271621Y-140733701D01*
X84279113Y-140771366D01*
X84290291Y-140827562D01*
X84363735Y-140937479D01*
X84363738Y-140937482D01*
X84388535Y-140974593D01*
X84425646Y-140999390D01*
X84544737Y-141118481D01*
X84417104Y-141246114D01*
X84346298Y-141352084D01*
X84240328Y-141422890D01*
X84063551Y-141599667D01*
X83992744Y-141705637D01*
X83886774Y-141776444D01*
X83709997Y-141953221D01*
X83639191Y-142059191D01*
X83533221Y-142129997D01*
X83356444Y-142306774D01*
X83285637Y-142412744D01*
X83179667Y-142483551D01*
X83002890Y-142660328D01*
X82932084Y-142766298D01*
X82826114Y-142837104D01*
X82649337Y-143013881D01*
X82578531Y-143119851D01*
X82472561Y-143190657D01*
X82295784Y-143367434D01*
X82224977Y-143473404D01*
X82119007Y-143544211D01*
X81942230Y-143720988D01*
X81871424Y-143826958D01*
X81765454Y-143897764D01*
X81588677Y-144074541D01*
X81504469Y-144200568D01*
X81474899Y-144349227D01*
X81504469Y-144497886D01*
X81588677Y-144623913D01*
X81966871Y-145002107D01*
X81966872Y-147020510D01*
X79140000Y-149847383D01*
X79140000Y-149707618D01*
X79382025Y-149465593D01*
X79419136Y-149440796D01*
X79443933Y-149403685D01*
X79443935Y-149403683D01*
X79517379Y-149293766D01*
X79517380Y-149293765D01*
X79543170Y-149164109D01*
X79543170Y-149164105D01*
X79551877Y-149120331D01*
X79543170Y-149076557D01*
X79543170Y-146802898D01*
X79921364Y-146424704D01*
X80005572Y-146298677D01*
X80035142Y-146150018D01*
X80005572Y-146001359D01*
X79946571Y-145913057D01*
X80431984Y-145427644D01*
X80469095Y-145402847D01*
X80493892Y-145365736D01*
X80493894Y-145365734D01*
X80541923Y-145293853D01*
X80567339Y-145255816D01*
X80593129Y-145126160D01*
X80593129Y-145126156D01*
X80601836Y-145082382D01*
X80593129Y-145038608D01*
X80593129Y-145002107D01*
X80971323Y-144623913D01*
X81055531Y-144497886D01*
X81069364Y-144428340D01*
X81224633Y-144273072D01*
X81468401Y-144172100D01*
X81688100Y-143952401D01*
X81807000Y-143665351D01*
X81807000Y-143354649D01*
X81688100Y-143067599D01*
X81470500Y-142849999D01*
X81470500Y-141873768D01*
X81688100Y-141656168D01*
X81807000Y-141369118D01*
X81807000Y-141061385D01*
X81817355Y-141051030D01*
X81854466Y-141026233D01*
X81879263Y-140989122D01*
X81879265Y-140989120D01*
X81896000Y-140964074D01*
X81896000Y-141252351D01*
X82014900Y-141539401D01*
X82234599Y-141759100D01*
X82521649Y-141878000D01*
X82832351Y-141878000D01*
X83119401Y-141759100D01*
X83339100Y-141539401D01*
X83458000Y-141252351D01*
X83458000Y-140941649D01*
X83339100Y-140654599D01*
X83121500Y-140436999D01*
X83121500Y-137426456D01*
X83405587Y-137142369D01*
X83533221Y-137270003D01*
X83533221Y-137270003D01*
G37*
X83533221Y-137270003D02*
X83639191Y-137340809D01*
X83709997Y-137446779D01*
X83886774Y-137623556D01*
X83992744Y-137694363D01*
X84063551Y-137800333D01*
X84240328Y-137977110D01*
X84346298Y-138047916D01*
X84417104Y-138153886D01*
X84593881Y-138330663D01*
X84699851Y-138401469D01*
X84770657Y-138507439D01*
X84947434Y-138684216D01*
X85053404Y-138755023D01*
X85124211Y-138860993D01*
X85248882Y-138985664D01*
X85229621Y-138998534D01*
X85193402Y-139052740D01*
X85085244Y-139097540D01*
X84893676Y-139289108D01*
X84795138Y-139527000D01*
X84573541Y-139527000D01*
X84323244Y-139630676D01*
X84131676Y-139822244D01*
X84028000Y-140072541D01*
X84028000Y-140343459D01*
X84131676Y-140593756D01*
X84271621Y-140733701D01*
X84279113Y-140771366D01*
X84290291Y-140827562D01*
X84363735Y-140937479D01*
X84363738Y-140937482D01*
X84388535Y-140974593D01*
X84425646Y-140999390D01*
X84544737Y-141118481D01*
X84417104Y-141246114D01*
X84346298Y-141352084D01*
X84240328Y-141422890D01*
X84063551Y-141599667D01*
X83992744Y-141705637D01*
X83886774Y-141776444D01*
X83709997Y-141953221D01*
X83639191Y-142059191D01*
X83533221Y-142129997D01*
X83356444Y-142306774D01*
X83285637Y-142412744D01*
X83179667Y-142483551D01*
X83002890Y-142660328D01*
X82932084Y-142766298D01*
X82826114Y-142837104D01*
X82649337Y-143013881D01*
X82578531Y-143119851D01*
X82472561Y-143190657D01*
X82295784Y-143367434D01*
X82224977Y-143473404D01*
X82119007Y-143544211D01*
X81942230Y-143720988D01*
X81871424Y-143826958D01*
X81765454Y-143897764D01*
X81588677Y-144074541D01*
X81504469Y-144200568D01*
X81474899Y-144349227D01*
X81504469Y-144497886D01*
X81588677Y-144623913D01*
X81966871Y-145002107D01*
X81966872Y-147020510D01*
X79140000Y-149847383D01*
X79140000Y-149707618D01*
X79382025Y-149465593D01*
X79419136Y-149440796D01*
X79443933Y-149403685D01*
X79443935Y-149403683D01*
X79517379Y-149293766D01*
X79517380Y-149293765D01*
X79543170Y-149164109D01*
X79543170Y-149164105D01*
X79551877Y-149120331D01*
X79543170Y-149076557D01*
X79543170Y-146802898D01*
X79921364Y-146424704D01*
X80005572Y-146298677D01*
X80035142Y-146150018D01*
X80005572Y-146001359D01*
X79946571Y-145913057D01*
X80431984Y-145427644D01*
X80469095Y-145402847D01*
X80493892Y-145365736D01*
X80493894Y-145365734D01*
X80541923Y-145293853D01*
X80567339Y-145255816D01*
X80593129Y-145126160D01*
X80593129Y-145126156D01*
X80601836Y-145082382D01*
X80593129Y-145038608D01*
X80593129Y-145002107D01*
X80971323Y-144623913D01*
X81055531Y-144497886D01*
X81069364Y-144428340D01*
X81224633Y-144273072D01*
X81468401Y-144172100D01*
X81688100Y-143952401D01*
X81807000Y-143665351D01*
X81807000Y-143354649D01*
X81688100Y-143067599D01*
X81470500Y-142849999D01*
X81470500Y-141873768D01*
X81688100Y-141656168D01*
X81807000Y-141369118D01*
X81807000Y-141061385D01*
X81817355Y-141051030D01*
X81854466Y-141026233D01*
X81879263Y-140989122D01*
X81879265Y-140989120D01*
X81896000Y-140964074D01*
X81896000Y-141252351D01*
X82014900Y-141539401D01*
X82234599Y-141759100D01*
X82521649Y-141878000D01*
X82832351Y-141878000D01*
X83119401Y-141759100D01*
X83339100Y-141539401D01*
X83458000Y-141252351D01*
X83458000Y-140941649D01*
X83339100Y-140654599D01*
X83121500Y-140436999D01*
X83121500Y-137426456D01*
X83405587Y-137142369D01*
X83533221Y-137270003D01*
G36*
X71537214Y-143666832D02*
X71562011Y-143703943D01*
X71599122Y-143728740D01*
X71599124Y-143728742D01*
X71662992Y-143771417D01*
X71709042Y-143802187D01*
X71838698Y-143827977D01*
X71838703Y-143827977D01*
X71882477Y-143836684D01*
X71926251Y-143827977D01*
X77401871Y-143827977D01*
X77403534Y-143830466D01*
X77550565Y-143928710D01*
X77680221Y-143954500D01*
X77680225Y-143954500D01*
X77724000Y-143963207D01*
X77759587Y-143956129D01*
X77759587Y-144000338D01*
X77567648Y-144192278D01*
X77530534Y-144217077D01*
X77505735Y-144254191D01*
X77500653Y-144261797D01*
X77432290Y-144364109D01*
X77406500Y-144493765D01*
X77406500Y-144493769D01*
X77397793Y-144537543D01*
X77406500Y-144581317D01*
X77406500Y-144595882D01*
X73094883Y-148907500D01*
X71177118Y-148907500D01*
X70802500Y-148532883D01*
X70802500Y-145585774D01*
X70811207Y-145542000D01*
X70802500Y-145498226D01*
X70802500Y-145498221D01*
X70776710Y-145368565D01*
X70737341Y-145309646D01*
X70703265Y-145258647D01*
X70703263Y-145258645D01*
X70678466Y-145221534D01*
X70641355Y-145196737D01*
X69941265Y-144496648D01*
X69916466Y-144459534D01*
X69769435Y-144361290D01*
X69751104Y-144357644D01*
X69739576Y-144299688D01*
X69467501Y-143892499D01*
X69060312Y-143620424D01*
X68701239Y-143549000D01*
X68458761Y-143549000D01*
X68099688Y-143620424D01*
X67692499Y-143892499D01*
X67500500Y-144179846D01*
X67500500Y-142840154D01*
X67692499Y-143127501D01*
X68099688Y-143399576D01*
X68458761Y-143471000D01*
X68701239Y-143471000D01*
X69060312Y-143399576D01*
X69467501Y-143127501D01*
X69739576Y-142720312D01*
X69746699Y-142684500D01*
X70554883Y-142684500D01*
X71537214Y-143666832D01*
X71537214Y-143666832D01*
G37*
X71537214Y-143666832D02*
X71562011Y-143703943D01*
X71599122Y-143728740D01*
X71599124Y-143728742D01*
X71662992Y-143771417D01*
X71709042Y-143802187D01*
X71838698Y-143827977D01*
X71838703Y-143827977D01*
X71882477Y-143836684D01*
X71926251Y-143827977D01*
X77401871Y-143827977D01*
X77403534Y-143830466D01*
X77550565Y-143928710D01*
X77680221Y-143954500D01*
X77680225Y-143954500D01*
X77724000Y-143963207D01*
X77759587Y-143956129D01*
X77759587Y-144000338D01*
X77567648Y-144192278D01*
X77530534Y-144217077D01*
X77505735Y-144254191D01*
X77500653Y-144261797D01*
X77432290Y-144364109D01*
X77406500Y-144493765D01*
X77406500Y-144493769D01*
X77397793Y-144537543D01*
X77406500Y-144581317D01*
X77406500Y-144595882D01*
X73094883Y-148907500D01*
X71177118Y-148907500D01*
X70802500Y-148532883D01*
X70802500Y-145585774D01*
X70811207Y-145542000D01*
X70802500Y-145498226D01*
X70802500Y-145498221D01*
X70776710Y-145368565D01*
X70737341Y-145309646D01*
X70703265Y-145258647D01*
X70703263Y-145258645D01*
X70678466Y-145221534D01*
X70641355Y-145196737D01*
X69941265Y-144496648D01*
X69916466Y-144459534D01*
X69769435Y-144361290D01*
X69751104Y-144357644D01*
X69739576Y-144299688D01*
X69467501Y-143892499D01*
X69060312Y-143620424D01*
X68701239Y-143549000D01*
X68458761Y-143549000D01*
X68099688Y-143620424D01*
X67692499Y-143892499D01*
X67500500Y-144179846D01*
X67500500Y-142840154D01*
X67692499Y-143127501D01*
X68099688Y-143399576D01*
X68458761Y-143471000D01*
X68701239Y-143471000D01*
X69060312Y-143399576D01*
X69467501Y-143127501D01*
X69739576Y-142720312D01*
X69746699Y-142684500D01*
X70554883Y-142684500D01*
X71537214Y-143666832D01*
G36*
X89217500Y-145807216D02*
X89217500Y-146406279D01*
X89073000Y-146377536D01*
X88921252Y-146377536D01*
X87675362Y-145131647D01*
X87650564Y-145094534D01*
X87503533Y-144996290D01*
X87373877Y-144970500D01*
X87373872Y-144970500D01*
X87330098Y-144961793D01*
X87286324Y-144970500D01*
X84814652Y-144970500D01*
X84944308Y-144944710D01*
X85091339Y-144846466D01*
X85116138Y-144809352D01*
X85291492Y-144633999D01*
X88044284Y-144633999D01*
X89217500Y-145807216D01*
X89217500Y-145807216D01*
G37*
X89217500Y-145807216D02*
X89217500Y-146406279D01*
X89073000Y-146377536D01*
X88921252Y-146377536D01*
X87675362Y-145131647D01*
X87650564Y-145094534D01*
X87503533Y-144996290D01*
X87373877Y-144970500D01*
X87373872Y-144970500D01*
X87330098Y-144961793D01*
X87286324Y-144970500D01*
X84814652Y-144970500D01*
X84944308Y-144944710D01*
X85091339Y-144846466D01*
X85116138Y-144809352D01*
X85291492Y-144633999D01*
X88044284Y-144633999D01*
X89217500Y-145807216D01*
G36*
X72183415Y-138851984D02*
X72208212Y-138889095D01*
X72245323Y-138913892D01*
X72245325Y-138913894D01*
X72284186Y-138939860D01*
X72355243Y-138987339D01*
X72484899Y-139013129D01*
X72484904Y-139013129D01*
X72528678Y-139021836D01*
X72572452Y-139013129D01*
X75977893Y-139013129D01*
X76356087Y-139391323D01*
X76482114Y-139475531D01*
X76630773Y-139505101D01*
X76779432Y-139475531D01*
X76905459Y-139391323D01*
X77082236Y-139214546D01*
X77153042Y-139108576D01*
X77259012Y-139037770D01*
X77435789Y-138860993D01*
X77506596Y-138755023D01*
X77612566Y-138684216D01*
X77740199Y-138556583D01*
X80245000Y-141061385D01*
X80245000Y-141369118D01*
X80363900Y-141656168D01*
X80581501Y-141873769D01*
X80581500Y-142849999D01*
X80363900Y-143067599D01*
X80246884Y-143350102D01*
X80087439Y-143190657D01*
X79981469Y-143119851D01*
X79910663Y-143013881D01*
X79733886Y-142837104D01*
X79627916Y-142766298D01*
X79557110Y-142660328D01*
X79380333Y-142483551D01*
X79274363Y-142412744D01*
X79203556Y-142306774D01*
X79026779Y-142129997D01*
X78920809Y-142059191D01*
X78850003Y-141953221D01*
X78673226Y-141776444D01*
X78567256Y-141705637D01*
X78496449Y-141599667D01*
X78319672Y-141422890D01*
X78213702Y-141352084D01*
X78142896Y-141246114D01*
X77966119Y-141069337D01*
X77860149Y-140998531D01*
X77789343Y-140892561D01*
X77612566Y-140715784D01*
X77506596Y-140644977D01*
X77435789Y-140539007D01*
X77259012Y-140362230D01*
X77153042Y-140291424D01*
X77082236Y-140185454D01*
X76905459Y-140008677D01*
X76779432Y-139924469D01*
X76630773Y-139894899D01*
X76482114Y-139924469D01*
X76356087Y-140008677D01*
X75985964Y-140378800D01*
X75982765Y-140378164D01*
X75938991Y-140386871D01*
X75938986Y-140386871D01*
X75809330Y-140412661D01*
X75809328Y-140412662D01*
X75809329Y-140412662D01*
X75699412Y-140486106D01*
X75699410Y-140486108D01*
X75662299Y-140510905D01*
X75637502Y-140548016D01*
X74771019Y-141414500D01*
X72719238Y-141414500D01*
X71691539Y-140386802D01*
X71691539Y-138360107D01*
X72183415Y-138851984D01*
X72183415Y-138851984D01*
G37*
X72183415Y-138851984D02*
X72208212Y-138889095D01*
X72245323Y-138913892D01*
X72245325Y-138913894D01*
X72284186Y-138939860D01*
X72355243Y-138987339D01*
X72484899Y-139013129D01*
X72484904Y-139013129D01*
X72528678Y-139021836D01*
X72572452Y-139013129D01*
X75977893Y-139013129D01*
X76356087Y-139391323D01*
X76482114Y-139475531D01*
X76630773Y-139505101D01*
X76779432Y-139475531D01*
X76905459Y-139391323D01*
X77082236Y-139214546D01*
X77153042Y-139108576D01*
X77259012Y-139037770D01*
X77435789Y-138860993D01*
X77506596Y-138755023D01*
X77612566Y-138684216D01*
X77740199Y-138556583D01*
X80245000Y-141061385D01*
X80245000Y-141369118D01*
X80363900Y-141656168D01*
X80581501Y-141873769D01*
X80581500Y-142849999D01*
X80363900Y-143067599D01*
X80246884Y-143350102D01*
X80087439Y-143190657D01*
X79981469Y-143119851D01*
X79910663Y-143013881D01*
X79733886Y-142837104D01*
X79627916Y-142766298D01*
X79557110Y-142660328D01*
X79380333Y-142483551D01*
X79274363Y-142412744D01*
X79203556Y-142306774D01*
X79026779Y-142129997D01*
X78920809Y-142059191D01*
X78850003Y-141953221D01*
X78673226Y-141776444D01*
X78567256Y-141705637D01*
X78496449Y-141599667D01*
X78319672Y-141422890D01*
X78213702Y-141352084D01*
X78142896Y-141246114D01*
X77966119Y-141069337D01*
X77860149Y-140998531D01*
X77789343Y-140892561D01*
X77612566Y-140715784D01*
X77506596Y-140644977D01*
X77435789Y-140539007D01*
X77259012Y-140362230D01*
X77153042Y-140291424D01*
X77082236Y-140185454D01*
X76905459Y-140008677D01*
X76779432Y-139924469D01*
X76630773Y-139894899D01*
X76482114Y-139924469D01*
X76356087Y-140008677D01*
X75985964Y-140378800D01*
X75982765Y-140378164D01*
X75938991Y-140386871D01*
X75938986Y-140386871D01*
X75809330Y-140412661D01*
X75809328Y-140412662D01*
X75809329Y-140412662D01*
X75699412Y-140486106D01*
X75699410Y-140486108D01*
X75662299Y-140510905D01*
X75637502Y-140548016D01*
X74771019Y-141414500D01*
X72719238Y-141414500D01*
X71691539Y-140386802D01*
X71691539Y-138360107D01*
X72183415Y-138851984D01*
G36*
X92840710Y-139189328D02*
X92820424Y-139219688D01*
X92724884Y-139700000D01*
X92820424Y-140180312D01*
X93092499Y-140587501D01*
X93499688Y-140859576D01*
X93858761Y-140931000D01*
X94101239Y-140931000D01*
X94460312Y-140859576D01*
X94703002Y-140697416D01*
X94703002Y-141242584D01*
X94460312Y-141080424D01*
X94101239Y-141009000D01*
X93858761Y-141009000D01*
X93499688Y-141080424D01*
X93092499Y-141352499D01*
X92820424Y-141759688D01*
X92813301Y-141795500D01*
X86507106Y-141795500D01*
X86500253Y-141761050D01*
X86454389Y-141692409D01*
X86523030Y-141738273D01*
X86671689Y-141767843D01*
X86820348Y-141738273D01*
X86946375Y-141654065D01*
X87123152Y-141477288D01*
X87207360Y-141351261D01*
X87236930Y-141202602D01*
X87207360Y-141053943D01*
X87186753Y-141023102D01*
X87232193Y-140992739D01*
X87256992Y-140955625D01*
X87858618Y-140354000D01*
X88166351Y-140354000D01*
X88453401Y-140235100D01*
X88673100Y-140015401D01*
X88792000Y-139728351D01*
X88792000Y-139417649D01*
X88673100Y-139130599D01*
X88555630Y-139013129D01*
X92664512Y-139013129D01*
X92840710Y-139189328D01*
X92840710Y-139189328D01*
G37*
X92840710Y-139189328D02*
X92820424Y-139219688D01*
X92724884Y-139700000D01*
X92820424Y-140180312D01*
X93092499Y-140587501D01*
X93499688Y-140859576D01*
X93858761Y-140931000D01*
X94101239Y-140931000D01*
X94460312Y-140859576D01*
X94703002Y-140697416D01*
X94703002Y-141242584D01*
X94460312Y-141080424D01*
X94101239Y-141009000D01*
X93858761Y-141009000D01*
X93499688Y-141080424D01*
X93092499Y-141352499D01*
X92820424Y-141759688D01*
X92813301Y-141795500D01*
X86507106Y-141795500D01*
X86500253Y-141761050D01*
X86454389Y-141692409D01*
X86523030Y-141738273D01*
X86671689Y-141767843D01*
X86820348Y-141738273D01*
X86946375Y-141654065D01*
X87123152Y-141477288D01*
X87207360Y-141351261D01*
X87236930Y-141202602D01*
X87207360Y-141053943D01*
X87186753Y-141023102D01*
X87232193Y-140992739D01*
X87256992Y-140955625D01*
X87858618Y-140354000D01*
X88166351Y-140354000D01*
X88453401Y-140235100D01*
X88673100Y-140015401D01*
X88792000Y-139728351D01*
X88792000Y-139417649D01*
X88673100Y-139130599D01*
X88555630Y-139013129D01*
X92664512Y-139013129D01*
X92840710Y-139189328D01*
G36*
X82472561Y-136209343D02*
X82578531Y-136280149D01*
X82649337Y-136386119D01*
X82776970Y-136513752D01*
X82393648Y-136897074D01*
X82356534Y-136921873D01*
X82331735Y-136958987D01*
X82319271Y-136977641D01*
X82258290Y-137068905D01*
X82232500Y-137198561D01*
X82232500Y-137198565D01*
X82223793Y-137242339D01*
X82232500Y-137286113D01*
X82232501Y-140436998D01*
X82014900Y-140654599D01*
X81981204Y-140735949D01*
X81987207Y-140705768D01*
X81978500Y-140661994D01*
X81978500Y-136550001D01*
X82196100Y-136332401D01*
X82313116Y-136049898D01*
X82472561Y-136209343D01*
X82472561Y-136209343D01*
G37*
X82472561Y-136209343D02*
X82578531Y-136280149D01*
X82649337Y-136386119D01*
X82776970Y-136513752D01*
X82393648Y-136897074D01*
X82356534Y-136921873D01*
X82331735Y-136958987D01*
X82319271Y-136977641D01*
X82258290Y-137068905D01*
X82232500Y-137198561D01*
X82232500Y-137198565D01*
X82223793Y-137242339D01*
X82232500Y-137286113D01*
X82232501Y-140436998D01*
X82014900Y-140654599D01*
X81981204Y-140735949D01*
X81987207Y-140705768D01*
X81978500Y-140661994D01*
X81978500Y-136550001D01*
X82196100Y-136332401D01*
X82313116Y-136049898D01*
X82472561Y-136209343D01*
G36*
X67581341Y-110428894D02*
X67730000Y-110458464D01*
X69316847Y-110458464D01*
X77694647Y-118836265D01*
X77694650Y-118836267D01*
X78013737Y-119155354D01*
X78038534Y-119192466D01*
X78075645Y-119217263D01*
X78075647Y-119217265D01*
X78123142Y-119249000D01*
X78185565Y-119290710D01*
X78315221Y-119316500D01*
X78315225Y-119316500D01*
X78358999Y-119325207D01*
X78359000Y-119325207D01*
X78402774Y-119316500D01*
X78938458Y-119316500D01*
X79030341Y-119377894D01*
X79179000Y-119407464D01*
X80079000Y-119407464D01*
X80227659Y-119377894D01*
X80319542Y-119316500D01*
X81599883Y-119316500D01*
X81445147Y-119471236D01*
X81408033Y-119496035D01*
X81309789Y-119643067D01*
X81283999Y-119772723D01*
X81283999Y-119772727D01*
X81275292Y-119816501D01*
X81283999Y-119860275D01*
X81284000Y-125118721D01*
X81275292Y-125162499D01*
X81309790Y-125335934D01*
X81383234Y-125445851D01*
X81383237Y-125445854D01*
X81408034Y-125482965D01*
X81445145Y-125507762D01*
X82658000Y-126720618D01*
X82658000Y-127028351D01*
X82776900Y-127315401D01*
X82996599Y-127535100D01*
X83283649Y-127654000D01*
X83594351Y-127654000D01*
X83881401Y-127535100D01*
X84101100Y-127315401D01*
X84220000Y-127028351D01*
X84220000Y-126717649D01*
X84101100Y-126430599D01*
X83881401Y-126210900D01*
X83594351Y-126092000D01*
X83286618Y-126092000D01*
X82172999Y-124978382D01*
X82172999Y-121710462D01*
X82546000Y-121710462D01*
X82694659Y-121680892D01*
X82820686Y-121596684D01*
X82904894Y-121470657D01*
X82917059Y-121409500D01*
X84276388Y-121409500D01*
X84297106Y-121513659D01*
X84381314Y-121639686D01*
X84507341Y-121723894D01*
X84656000Y-121753464D01*
X84661501Y-121753464D01*
X84661500Y-127688882D01*
X83712000Y-128638382D01*
X83712000Y-128368649D01*
X83593100Y-128081599D01*
X83373401Y-127861900D01*
X83086351Y-127743000D01*
X82775649Y-127743000D01*
X82488599Y-127861900D01*
X82268900Y-128081599D01*
X82150000Y-128368649D01*
X82150000Y-128589752D01*
X82079422Y-128603791D01*
X81953395Y-128687999D01*
X81628234Y-129013160D01*
X81312766Y-129013160D01*
X81795661Y-128530265D01*
X81879869Y-128404238D01*
X81909439Y-128255579D01*
X81879869Y-128106920D01*
X81795661Y-127980893D01*
X81442107Y-127627339D01*
X81316080Y-127543131D01*
X81167421Y-127513561D01*
X81018762Y-127543131D01*
X80892735Y-127627339D01*
X80888846Y-127631228D01*
X80300660Y-127043043D01*
X80300660Y-126780098D01*
X80166536Y-126456293D01*
X79918707Y-126208464D01*
X79594902Y-126074340D01*
X79244418Y-126074340D01*
X79189871Y-126096934D01*
X78610429Y-125517491D01*
X78620572Y-125502311D01*
X78650142Y-125353652D01*
X78620572Y-125204993D01*
X78536364Y-125078966D01*
X78006034Y-124548636D01*
X77880007Y-124464428D01*
X77731348Y-124434858D01*
X77582689Y-124464428D01*
X77456662Y-124548636D01*
X76890976Y-125114322D01*
X76806768Y-125240349D01*
X76777198Y-125389008D01*
X76781961Y-125412952D01*
X76748008Y-125406198D01*
X76599349Y-125435768D01*
X76473322Y-125519976D01*
X75907636Y-126085662D01*
X75823428Y-126211689D01*
X75793858Y-126360348D01*
X75823428Y-126509007D01*
X75907636Y-126635034D01*
X76437966Y-127165364D01*
X76563993Y-127249572D01*
X76712652Y-127279142D01*
X76861311Y-127249572D01*
X76922842Y-127208459D01*
X77500594Y-127786211D01*
X77478000Y-127840758D01*
X77478000Y-128191242D01*
X77612124Y-128515047D01*
X77859953Y-128762876D01*
X78183758Y-128897000D01*
X78534242Y-128897000D01*
X78572999Y-128880946D01*
X79094898Y-129402846D01*
X79091009Y-129406735D01*
X79006801Y-129532762D01*
X78977231Y-129681421D01*
X79006801Y-129830080D01*
X79091009Y-129956107D01*
X79444563Y-130309661D01*
X79478228Y-130332155D01*
X79418654Y-130391729D01*
X79381543Y-130416526D01*
X79356746Y-130453637D01*
X79356743Y-130453640D01*
X79283299Y-130563557D01*
X79248801Y-130736992D01*
X79257509Y-130780770D01*
X79257509Y-130975221D01*
X78997772Y-130715484D01*
X79001661Y-130711595D01*
X79085869Y-130585568D01*
X79115439Y-130436909D01*
X79085869Y-130288250D01*
X79001661Y-130162223D01*
X78648107Y-129808669D01*
X78522080Y-129724461D01*
X78373421Y-129694891D01*
X78224762Y-129724461D01*
X78098735Y-129808669D01*
X77462339Y-130445065D01*
X77378131Y-130571092D01*
X77348561Y-130719751D01*
X77378131Y-130868410D01*
X77462339Y-130994437D01*
X77815893Y-131347991D01*
X77941920Y-131432199D01*
X78090579Y-131461769D01*
X78239238Y-131432199D01*
X78365265Y-131347991D01*
X78369154Y-131344102D01*
X78930501Y-131905449D01*
X78930500Y-132276882D01*
X77313646Y-133893737D01*
X77276535Y-133918534D01*
X77251738Y-133955645D01*
X77251735Y-133955648D01*
X77191437Y-134045891D01*
X77178291Y-134065565D01*
X77152739Y-134194027D01*
X77143793Y-134239000D01*
X77152501Y-134282778D01*
X77152501Y-134370915D01*
X77117595Y-134336009D01*
X76991568Y-134251801D01*
X76842909Y-134222231D01*
X76696558Y-134251342D01*
X76885925Y-134061975D01*
X76970133Y-133935948D01*
X76999703Y-133787289D01*
X76970133Y-133638630D01*
X76885925Y-133512603D01*
X76037397Y-132664075D01*
X75911370Y-132579867D01*
X75762711Y-132550297D01*
X75614052Y-132579867D01*
X75488025Y-132664075D01*
X74498075Y-133654025D01*
X74413867Y-133780052D01*
X74384297Y-133928711D01*
X74400950Y-134012432D01*
X74387283Y-134026099D01*
X74298981Y-133967098D01*
X74150322Y-133937528D01*
X74001663Y-133967098D01*
X73875636Y-134051306D01*
X73345306Y-134581636D01*
X73261098Y-134707663D01*
X73231528Y-134856322D01*
X73261098Y-135004981D01*
X73345306Y-135131008D01*
X73910992Y-135696694D01*
X74037019Y-135780902D01*
X74185678Y-135810472D01*
X74334337Y-135780902D01*
X74460364Y-135696694D01*
X74990694Y-135166364D01*
X75074902Y-135040337D01*
X75104472Y-134891678D01*
X75084140Y-134789462D01*
X75346603Y-135051925D01*
X75472630Y-135136133D01*
X75479170Y-135137434D01*
X75479170Y-135425062D01*
X75154009Y-135750223D01*
X75069801Y-135876250D01*
X75040231Y-136024909D01*
X75069801Y-136173568D01*
X75154009Y-136299595D01*
X75741107Y-136886693D01*
X75437580Y-136886693D01*
X75393806Y-136877986D01*
X75350032Y-136886693D01*
X75350028Y-136886693D01*
X75220372Y-136912483D01*
X75191397Y-136931844D01*
X75110454Y-136985928D01*
X75110452Y-136985930D01*
X75073341Y-137010727D01*
X75048544Y-137047838D01*
X74491883Y-137604500D01*
X72933342Y-137604500D01*
X72453569Y-137124728D01*
X72453569Y-130065678D01*
X73739528Y-130065678D01*
X73769098Y-130214337D01*
X73853306Y-130340364D01*
X74383636Y-130870694D01*
X74509663Y-130954902D01*
X74658322Y-130984472D01*
X74806981Y-130954902D01*
X74933008Y-130870694D01*
X75060177Y-130743525D01*
X75103005Y-130786353D01*
X74922339Y-130967019D01*
X74838131Y-131093046D01*
X74808561Y-131241705D01*
X74838131Y-131390364D01*
X74922339Y-131516391D01*
X75770867Y-132364919D01*
X75896894Y-132449127D01*
X76045553Y-132478697D01*
X76194212Y-132449127D01*
X76320239Y-132364919D01*
X77310189Y-131374969D01*
X77394397Y-131248942D01*
X77423967Y-131100283D01*
X77394397Y-130951624D01*
X77310189Y-130825597D01*
X76901110Y-130416518D01*
X76935333Y-130382295D01*
X77029919Y-130401109D01*
X77178578Y-130371539D01*
X77304605Y-130287331D01*
X77941001Y-129650935D01*
X78025209Y-129524908D01*
X78054779Y-129376249D01*
X78025209Y-129227590D01*
X77941001Y-129101563D01*
X77587447Y-128748009D01*
X77461420Y-128663801D01*
X77312761Y-128634231D01*
X77164102Y-128663801D01*
X77038075Y-128748009D01*
X76401679Y-129384405D01*
X76317471Y-129510432D01*
X76287901Y-129659091D01*
X76306715Y-129753677D01*
X76195422Y-129864971D01*
X76186975Y-129863291D01*
X76038316Y-129892861D01*
X75912289Y-129977069D01*
X75731623Y-130157735D01*
X75611101Y-130037214D01*
X75612472Y-130030322D01*
X75582902Y-129881663D01*
X75498694Y-129755636D01*
X74968364Y-129225306D01*
X74842337Y-129141098D01*
X74693678Y-129111528D01*
X74545019Y-129141098D01*
X74418992Y-129225306D01*
X73853306Y-129790992D01*
X73769098Y-129917019D01*
X73739528Y-130065678D01*
X72453569Y-130065678D01*
X72453569Y-120439844D01*
X72462276Y-120396069D01*
X72453569Y-120352294D01*
X72453569Y-120352290D01*
X72427779Y-120222634D01*
X72427779Y-120222633D01*
X72354334Y-120112716D01*
X72354332Y-120112714D01*
X72329535Y-120075603D01*
X72292424Y-120050806D01*
X71338265Y-119096648D01*
X71313466Y-119059534D01*
X71166435Y-118961290D01*
X71036779Y-118935500D01*
X71036774Y-118935500D01*
X70993000Y-118926793D01*
X70949226Y-118935500D01*
X69746699Y-118935500D01*
X69739576Y-118899688D01*
X69467501Y-118492499D01*
X69060312Y-118220424D01*
X68701239Y-118149000D01*
X68458761Y-118149000D01*
X68099688Y-118220424D01*
X67692499Y-118492499D01*
X67500500Y-118779846D01*
X67500500Y-117440154D01*
X67692499Y-117727501D01*
X68099688Y-117999576D01*
X68458761Y-118071000D01*
X68701239Y-118071000D01*
X69060312Y-117999576D01*
X69089310Y-117980200D01*
X69109533Y-118010465D01*
X69146644Y-118035262D01*
X69146646Y-118035264D01*
X69200129Y-118071000D01*
X69256564Y-118108709D01*
X69386220Y-118134499D01*
X69386224Y-118134499D01*
X69429998Y-118143206D01*
X69473772Y-118134499D01*
X70943419Y-118134499D01*
X71076243Y-118267323D01*
X71326540Y-118370999D01*
X71597458Y-118370999D01*
X71847755Y-118267323D01*
X72039323Y-118075755D01*
X72142999Y-117825458D01*
X72142999Y-117554540D01*
X72039323Y-117304243D01*
X71847755Y-117112675D01*
X71607117Y-117013000D01*
X71636459Y-117013000D01*
X71886756Y-116909324D01*
X72078324Y-116717756D01*
X72182000Y-116467459D01*
X72182000Y-116196541D01*
X72078324Y-115946244D01*
X71886756Y-115754676D01*
X71636459Y-115651000D01*
X71365541Y-115651000D01*
X71115244Y-115754676D01*
X70982420Y-115887500D01*
X70796118Y-115887500D01*
X69719290Y-114810672D01*
X69739576Y-114780312D01*
X69835116Y-114300000D01*
X69739576Y-113819688D01*
X69467501Y-113412499D01*
X69060312Y-113140424D01*
X68701239Y-113069000D01*
X68458761Y-113069000D01*
X68099688Y-113140424D01*
X67692499Y-113412499D01*
X67500500Y-113699846D01*
X67500500Y-112360154D01*
X67692499Y-112647501D01*
X68099688Y-112919576D01*
X68458761Y-112991000D01*
X68701239Y-112991000D01*
X69060312Y-112919576D01*
X69467501Y-112647501D01*
X69739576Y-112240312D01*
X69835116Y-111760000D01*
X69739576Y-111279688D01*
X69467501Y-110872499D01*
X69060312Y-110600424D01*
X68701239Y-110529000D01*
X68458761Y-110529000D01*
X68099688Y-110600424D01*
X67692499Y-110872499D01*
X67500500Y-111159846D01*
X67500500Y-110374878D01*
X67581341Y-110428894D01*
X67581341Y-110428894D01*
G37*
X67581341Y-110428894D02*
X67730000Y-110458464D01*
X69316847Y-110458464D01*
X77694647Y-118836265D01*
X77694650Y-118836267D01*
X78013737Y-119155354D01*
X78038534Y-119192466D01*
X78075645Y-119217263D01*
X78075647Y-119217265D01*
X78123142Y-119249000D01*
X78185565Y-119290710D01*
X78315221Y-119316500D01*
X78315225Y-119316500D01*
X78358999Y-119325207D01*
X78359000Y-119325207D01*
X78402774Y-119316500D01*
X78938458Y-119316500D01*
X79030341Y-119377894D01*
X79179000Y-119407464D01*
X80079000Y-119407464D01*
X80227659Y-119377894D01*
X80319542Y-119316500D01*
X81599883Y-119316500D01*
X81445147Y-119471236D01*
X81408033Y-119496035D01*
X81309789Y-119643067D01*
X81283999Y-119772723D01*
X81283999Y-119772727D01*
X81275292Y-119816501D01*
X81283999Y-119860275D01*
X81284000Y-125118721D01*
X81275292Y-125162499D01*
X81309790Y-125335934D01*
X81383234Y-125445851D01*
X81383237Y-125445854D01*
X81408034Y-125482965D01*
X81445145Y-125507762D01*
X82658000Y-126720618D01*
X82658000Y-127028351D01*
X82776900Y-127315401D01*
X82996599Y-127535100D01*
X83283649Y-127654000D01*
X83594351Y-127654000D01*
X83881401Y-127535100D01*
X84101100Y-127315401D01*
X84220000Y-127028351D01*
X84220000Y-126717649D01*
X84101100Y-126430599D01*
X83881401Y-126210900D01*
X83594351Y-126092000D01*
X83286618Y-126092000D01*
X82172999Y-124978382D01*
X82172999Y-121710462D01*
X82546000Y-121710462D01*
X82694659Y-121680892D01*
X82820686Y-121596684D01*
X82904894Y-121470657D01*
X82917059Y-121409500D01*
X84276388Y-121409500D01*
X84297106Y-121513659D01*
X84381314Y-121639686D01*
X84507341Y-121723894D01*
X84656000Y-121753464D01*
X84661501Y-121753464D01*
X84661500Y-127688882D01*
X83712000Y-128638382D01*
X83712000Y-128368649D01*
X83593100Y-128081599D01*
X83373401Y-127861900D01*
X83086351Y-127743000D01*
X82775649Y-127743000D01*
X82488599Y-127861900D01*
X82268900Y-128081599D01*
X82150000Y-128368649D01*
X82150000Y-128589752D01*
X82079422Y-128603791D01*
X81953395Y-128687999D01*
X81628234Y-129013160D01*
X81312766Y-129013160D01*
X81795661Y-128530265D01*
X81879869Y-128404238D01*
X81909439Y-128255579D01*
X81879869Y-128106920D01*
X81795661Y-127980893D01*
X81442107Y-127627339D01*
X81316080Y-127543131D01*
X81167421Y-127513561D01*
X81018762Y-127543131D01*
X80892735Y-127627339D01*
X80888846Y-127631228D01*
X80300660Y-127043043D01*
X80300660Y-126780098D01*
X80166536Y-126456293D01*
X79918707Y-126208464D01*
X79594902Y-126074340D01*
X79244418Y-126074340D01*
X79189871Y-126096934D01*
X78610429Y-125517491D01*
X78620572Y-125502311D01*
X78650142Y-125353652D01*
X78620572Y-125204993D01*
X78536364Y-125078966D01*
X78006034Y-124548636D01*
X77880007Y-124464428D01*
X77731348Y-124434858D01*
X77582689Y-124464428D01*
X77456662Y-124548636D01*
X76890976Y-125114322D01*
X76806768Y-125240349D01*
X76777198Y-125389008D01*
X76781961Y-125412952D01*
X76748008Y-125406198D01*
X76599349Y-125435768D01*
X76473322Y-125519976D01*
X75907636Y-126085662D01*
X75823428Y-126211689D01*
X75793858Y-126360348D01*
X75823428Y-126509007D01*
X75907636Y-126635034D01*
X76437966Y-127165364D01*
X76563993Y-127249572D01*
X76712652Y-127279142D01*
X76861311Y-127249572D01*
X76922842Y-127208459D01*
X77500594Y-127786211D01*
X77478000Y-127840758D01*
X77478000Y-128191242D01*
X77612124Y-128515047D01*
X77859953Y-128762876D01*
X78183758Y-128897000D01*
X78534242Y-128897000D01*
X78572999Y-128880946D01*
X79094898Y-129402846D01*
X79091009Y-129406735D01*
X79006801Y-129532762D01*
X78977231Y-129681421D01*
X79006801Y-129830080D01*
X79091009Y-129956107D01*
X79444563Y-130309661D01*
X79478228Y-130332155D01*
X79418654Y-130391729D01*
X79381543Y-130416526D01*
X79356746Y-130453637D01*
X79356743Y-130453640D01*
X79283299Y-130563557D01*
X79248801Y-130736992D01*
X79257509Y-130780770D01*
X79257509Y-130975221D01*
X78997772Y-130715484D01*
X79001661Y-130711595D01*
X79085869Y-130585568D01*
X79115439Y-130436909D01*
X79085869Y-130288250D01*
X79001661Y-130162223D01*
X78648107Y-129808669D01*
X78522080Y-129724461D01*
X78373421Y-129694891D01*
X78224762Y-129724461D01*
X78098735Y-129808669D01*
X77462339Y-130445065D01*
X77378131Y-130571092D01*
X77348561Y-130719751D01*
X77378131Y-130868410D01*
X77462339Y-130994437D01*
X77815893Y-131347991D01*
X77941920Y-131432199D01*
X78090579Y-131461769D01*
X78239238Y-131432199D01*
X78365265Y-131347991D01*
X78369154Y-131344102D01*
X78930501Y-131905449D01*
X78930500Y-132276882D01*
X77313646Y-133893737D01*
X77276535Y-133918534D01*
X77251738Y-133955645D01*
X77251735Y-133955648D01*
X77191437Y-134045891D01*
X77178291Y-134065565D01*
X77152739Y-134194027D01*
X77143793Y-134239000D01*
X77152501Y-134282778D01*
X77152501Y-134370915D01*
X77117595Y-134336009D01*
X76991568Y-134251801D01*
X76842909Y-134222231D01*
X76696558Y-134251342D01*
X76885925Y-134061975D01*
X76970133Y-133935948D01*
X76999703Y-133787289D01*
X76970133Y-133638630D01*
X76885925Y-133512603D01*
X76037397Y-132664075D01*
X75911370Y-132579867D01*
X75762711Y-132550297D01*
X75614052Y-132579867D01*
X75488025Y-132664075D01*
X74498075Y-133654025D01*
X74413867Y-133780052D01*
X74384297Y-133928711D01*
X74400950Y-134012432D01*
X74387283Y-134026099D01*
X74298981Y-133967098D01*
X74150322Y-133937528D01*
X74001663Y-133967098D01*
X73875636Y-134051306D01*
X73345306Y-134581636D01*
X73261098Y-134707663D01*
X73231528Y-134856322D01*
X73261098Y-135004981D01*
X73345306Y-135131008D01*
X73910992Y-135696694D01*
X74037019Y-135780902D01*
X74185678Y-135810472D01*
X74334337Y-135780902D01*
X74460364Y-135696694D01*
X74990694Y-135166364D01*
X75074902Y-135040337D01*
X75104472Y-134891678D01*
X75084140Y-134789462D01*
X75346603Y-135051925D01*
X75472630Y-135136133D01*
X75479170Y-135137434D01*
X75479170Y-135425062D01*
X75154009Y-135750223D01*
X75069801Y-135876250D01*
X75040231Y-136024909D01*
X75069801Y-136173568D01*
X75154009Y-136299595D01*
X75741107Y-136886693D01*
X75437580Y-136886693D01*
X75393806Y-136877986D01*
X75350032Y-136886693D01*
X75350028Y-136886693D01*
X75220372Y-136912483D01*
X75191397Y-136931844D01*
X75110454Y-136985928D01*
X75110452Y-136985930D01*
X75073341Y-137010727D01*
X75048544Y-137047838D01*
X74491883Y-137604500D01*
X72933342Y-137604500D01*
X72453569Y-137124728D01*
X72453569Y-130065678D01*
X73739528Y-130065678D01*
X73769098Y-130214337D01*
X73853306Y-130340364D01*
X74383636Y-130870694D01*
X74509663Y-130954902D01*
X74658322Y-130984472D01*
X74806981Y-130954902D01*
X74933008Y-130870694D01*
X75060177Y-130743525D01*
X75103005Y-130786353D01*
X74922339Y-130967019D01*
X74838131Y-131093046D01*
X74808561Y-131241705D01*
X74838131Y-131390364D01*
X74922339Y-131516391D01*
X75770867Y-132364919D01*
X75896894Y-132449127D01*
X76045553Y-132478697D01*
X76194212Y-132449127D01*
X76320239Y-132364919D01*
X77310189Y-131374969D01*
X77394397Y-131248942D01*
X77423967Y-131100283D01*
X77394397Y-130951624D01*
X77310189Y-130825597D01*
X76901110Y-130416518D01*
X76935333Y-130382295D01*
X77029919Y-130401109D01*
X77178578Y-130371539D01*
X77304605Y-130287331D01*
X77941001Y-129650935D01*
X78025209Y-129524908D01*
X78054779Y-129376249D01*
X78025209Y-129227590D01*
X77941001Y-129101563D01*
X77587447Y-128748009D01*
X77461420Y-128663801D01*
X77312761Y-128634231D01*
X77164102Y-128663801D01*
X77038075Y-128748009D01*
X76401679Y-129384405D01*
X76317471Y-129510432D01*
X76287901Y-129659091D01*
X76306715Y-129753677D01*
X76195422Y-129864971D01*
X76186975Y-129863291D01*
X76038316Y-129892861D01*
X75912289Y-129977069D01*
X75731623Y-130157735D01*
X75611101Y-130037214D01*
X75612472Y-130030322D01*
X75582902Y-129881663D01*
X75498694Y-129755636D01*
X74968364Y-129225306D01*
X74842337Y-129141098D01*
X74693678Y-129111528D01*
X74545019Y-129141098D01*
X74418992Y-129225306D01*
X73853306Y-129790992D01*
X73769098Y-129917019D01*
X73739528Y-130065678D01*
X72453569Y-130065678D01*
X72453569Y-120439844D01*
X72462276Y-120396069D01*
X72453569Y-120352294D01*
X72453569Y-120352290D01*
X72427779Y-120222634D01*
X72427779Y-120222633D01*
X72354334Y-120112716D01*
X72354332Y-120112714D01*
X72329535Y-120075603D01*
X72292424Y-120050806D01*
X71338265Y-119096648D01*
X71313466Y-119059534D01*
X71166435Y-118961290D01*
X71036779Y-118935500D01*
X71036774Y-118935500D01*
X70993000Y-118926793D01*
X70949226Y-118935500D01*
X69746699Y-118935500D01*
X69739576Y-118899688D01*
X69467501Y-118492499D01*
X69060312Y-118220424D01*
X68701239Y-118149000D01*
X68458761Y-118149000D01*
X68099688Y-118220424D01*
X67692499Y-118492499D01*
X67500500Y-118779846D01*
X67500500Y-117440154D01*
X67692499Y-117727501D01*
X68099688Y-117999576D01*
X68458761Y-118071000D01*
X68701239Y-118071000D01*
X69060312Y-117999576D01*
X69089310Y-117980200D01*
X69109533Y-118010465D01*
X69146644Y-118035262D01*
X69146646Y-118035264D01*
X69200129Y-118071000D01*
X69256564Y-118108709D01*
X69386220Y-118134499D01*
X69386224Y-118134499D01*
X69429998Y-118143206D01*
X69473772Y-118134499D01*
X70943419Y-118134499D01*
X71076243Y-118267323D01*
X71326540Y-118370999D01*
X71597458Y-118370999D01*
X71847755Y-118267323D01*
X72039323Y-118075755D01*
X72142999Y-117825458D01*
X72142999Y-117554540D01*
X72039323Y-117304243D01*
X71847755Y-117112675D01*
X71607117Y-117013000D01*
X71636459Y-117013000D01*
X71886756Y-116909324D01*
X72078324Y-116717756D01*
X72182000Y-116467459D01*
X72182000Y-116196541D01*
X72078324Y-115946244D01*
X71886756Y-115754676D01*
X71636459Y-115651000D01*
X71365541Y-115651000D01*
X71115244Y-115754676D01*
X70982420Y-115887500D01*
X70796118Y-115887500D01*
X69719290Y-114810672D01*
X69739576Y-114780312D01*
X69835116Y-114300000D01*
X69739576Y-113819688D01*
X69467501Y-113412499D01*
X69060312Y-113140424D01*
X68701239Y-113069000D01*
X68458761Y-113069000D01*
X68099688Y-113140424D01*
X67692499Y-113412499D01*
X67500500Y-113699846D01*
X67500500Y-112360154D01*
X67692499Y-112647501D01*
X68099688Y-112919576D01*
X68458761Y-112991000D01*
X68701239Y-112991000D01*
X69060312Y-112919576D01*
X69467501Y-112647501D01*
X69739576Y-112240312D01*
X69835116Y-111760000D01*
X69739576Y-111279688D01*
X69467501Y-110872499D01*
X69060312Y-110600424D01*
X68701239Y-110529000D01*
X68458761Y-110529000D01*
X68099688Y-110600424D01*
X67692499Y-110872499D01*
X67500500Y-111159846D01*
X67500500Y-110374878D01*
X67581341Y-110428894D01*
G36*
X82243349Y-135561669D02*
X82239562Y-135552525D01*
X82257440Y-135540580D01*
X82243349Y-135561669D01*
X82243349Y-135561669D01*
G37*
X82243349Y-135561669D02*
X82239562Y-135552525D01*
X82257440Y-135540580D01*
X82243349Y-135561669D01*
G36*
X93092499Y-117727501D02*
X93499688Y-117999576D01*
X93858761Y-118071000D01*
X94101239Y-118071000D01*
X94460312Y-117999576D01*
X94703001Y-117837416D01*
X94703001Y-118382584D01*
X94460312Y-118220424D01*
X94101239Y-118149000D01*
X93858761Y-118149000D01*
X93499688Y-118220424D01*
X93092499Y-118492499D01*
X92820424Y-118899688D01*
X92813301Y-118935500D01*
X91864775Y-118935500D01*
X91821000Y-118926793D01*
X91777225Y-118935500D01*
X91777221Y-118935500D01*
X91673659Y-118956100D01*
X91647564Y-118961290D01*
X91537647Y-119034735D01*
X91537645Y-119034737D01*
X91500534Y-119059534D01*
X91475737Y-119096645D01*
X90902646Y-119669737D01*
X90865535Y-119694534D01*
X90840738Y-119731645D01*
X90840735Y-119731648D01*
X90767291Y-119841565D01*
X90732793Y-120015000D01*
X90741501Y-120058778D01*
X90741500Y-131641882D01*
X88104365Y-134279018D01*
X84859684Y-134279018D01*
X85023694Y-134115008D01*
X85107902Y-133988981D01*
X85137472Y-133840322D01*
X85107902Y-133691663D01*
X85023694Y-133565636D01*
X84493364Y-133035306D01*
X84367337Y-132951098D01*
X84243529Y-132926471D01*
X84218902Y-132802663D01*
X84134694Y-132676636D01*
X83604364Y-132146306D01*
X83478337Y-132062098D01*
X83354529Y-132037471D01*
X83329902Y-131913663D01*
X83245694Y-131787636D01*
X82867500Y-131409442D01*
X82867500Y-130740117D01*
X85389355Y-128218263D01*
X85426466Y-128193466D01*
X85451263Y-128156355D01*
X85451265Y-128156353D01*
X85508435Y-128070792D01*
X85524710Y-128046435D01*
X85550500Y-127916779D01*
X85550500Y-127916774D01*
X85559207Y-127873000D01*
X85550500Y-127829226D01*
X85550500Y-121753464D01*
X85556000Y-121753464D01*
X85704659Y-121723894D01*
X85830686Y-121639686D01*
X85914894Y-121513659D01*
X85935612Y-121409500D01*
X88668221Y-121409500D01*
X88712000Y-121418208D01*
X88755778Y-121409500D01*
X88755779Y-121409500D01*
X88885435Y-121383710D01*
X89032466Y-121285466D01*
X89130710Y-121138435D01*
X89136324Y-121110212D01*
X92862802Y-117383735D01*
X93092499Y-117727501D01*
X93092499Y-117727501D01*
G37*
X93092499Y-117727501D02*
X93499688Y-117999576D01*
X93858761Y-118071000D01*
X94101239Y-118071000D01*
X94460312Y-117999576D01*
X94703001Y-117837416D01*
X94703001Y-118382584D01*
X94460312Y-118220424D01*
X94101239Y-118149000D01*
X93858761Y-118149000D01*
X93499688Y-118220424D01*
X93092499Y-118492499D01*
X92820424Y-118899688D01*
X92813301Y-118935500D01*
X91864775Y-118935500D01*
X91821000Y-118926793D01*
X91777225Y-118935500D01*
X91777221Y-118935500D01*
X91673659Y-118956100D01*
X91647564Y-118961290D01*
X91537647Y-119034735D01*
X91537645Y-119034737D01*
X91500534Y-119059534D01*
X91475737Y-119096645D01*
X90902646Y-119669737D01*
X90865535Y-119694534D01*
X90840738Y-119731645D01*
X90840735Y-119731648D01*
X90767291Y-119841565D01*
X90732793Y-120015000D01*
X90741501Y-120058778D01*
X90741500Y-131641882D01*
X88104365Y-134279018D01*
X84859684Y-134279018D01*
X85023694Y-134115008D01*
X85107902Y-133988981D01*
X85137472Y-133840322D01*
X85107902Y-133691663D01*
X85023694Y-133565636D01*
X84493364Y-133035306D01*
X84367337Y-132951098D01*
X84243529Y-132926471D01*
X84218902Y-132802663D01*
X84134694Y-132676636D01*
X83604364Y-132146306D01*
X83478337Y-132062098D01*
X83354529Y-132037471D01*
X83329902Y-131913663D01*
X83245694Y-131787636D01*
X82867500Y-131409442D01*
X82867500Y-130740117D01*
X85389355Y-128218263D01*
X85426466Y-128193466D01*
X85451263Y-128156355D01*
X85451265Y-128156353D01*
X85508435Y-128070792D01*
X85524710Y-128046435D01*
X85550500Y-127916779D01*
X85550500Y-127916774D01*
X85559207Y-127873000D01*
X85550500Y-127829226D01*
X85550500Y-121753464D01*
X85556000Y-121753464D01*
X85704659Y-121723894D01*
X85830686Y-121639686D01*
X85914894Y-121513659D01*
X85935612Y-121409500D01*
X88668221Y-121409500D01*
X88712000Y-121418208D01*
X88755778Y-121409500D01*
X88755779Y-121409500D01*
X88885435Y-121383710D01*
X89032466Y-121285466D01*
X89130710Y-121138435D01*
X89136324Y-121110212D01*
X92862802Y-117383735D01*
X93092499Y-117727501D01*
G36*
X76934737Y-110397355D02*
X76959534Y-110434466D01*
X76996645Y-110459263D01*
X76996647Y-110459265D01*
X77018536Y-110473891D01*
X77018536Y-110614000D01*
X77048106Y-110762659D01*
X77132314Y-110888686D01*
X77258341Y-110972894D01*
X77407000Y-111002464D01*
X79107000Y-111002464D01*
X79255659Y-110972894D01*
X79381686Y-110888686D01*
X79465894Y-110762659D01*
X79495464Y-110614000D01*
X79495464Y-110558500D01*
X83318536Y-110558500D01*
X83318536Y-110614000D01*
X83348106Y-110762659D01*
X83432314Y-110888686D01*
X83558341Y-110972894D01*
X83707000Y-111002464D01*
X85407000Y-111002464D01*
X85555659Y-110972894D01*
X85681686Y-110888686D01*
X85765894Y-110762659D01*
X85795464Y-110614000D01*
X85795464Y-110558500D01*
X89609883Y-110558500D01*
X92840710Y-113789328D01*
X92820424Y-113819688D01*
X92724884Y-114300000D01*
X92820424Y-114780312D01*
X93092499Y-115187501D01*
X93499688Y-115459576D01*
X93858761Y-115531000D01*
X94101239Y-115531000D01*
X94460312Y-115459576D01*
X94703001Y-115297416D01*
X94703001Y-115842584D01*
X94460312Y-115680424D01*
X94101239Y-115609000D01*
X93858761Y-115609000D01*
X93499688Y-115680424D01*
X93092499Y-115952499D01*
X92820424Y-116359688D01*
X92813620Y-116393894D01*
X92777919Y-116386793D01*
X92734145Y-116395500D01*
X92734140Y-116395500D01*
X92604484Y-116421290D01*
X92604482Y-116421291D01*
X92604483Y-116421291D01*
X92494566Y-116494735D01*
X92494564Y-116494737D01*
X92457453Y-116519534D01*
X92432656Y-116556645D01*
X88468802Y-120520500D01*
X87923479Y-120520500D01*
X87944464Y-120415000D01*
X87944464Y-119615000D01*
X87914894Y-119466341D01*
X87851361Y-119371256D01*
X89437355Y-117785263D01*
X89474466Y-117760466D01*
X89499263Y-117723355D01*
X89499265Y-117723353D01*
X89572709Y-117613436D01*
X89572710Y-117613435D01*
X89598500Y-117483779D01*
X89598500Y-117483775D01*
X89607207Y-117440001D01*
X89598500Y-117396227D01*
X89598500Y-112547001D01*
X89816100Y-112329401D01*
X89935000Y-112042351D01*
X89935000Y-111731649D01*
X89816100Y-111444599D01*
X89596401Y-111224900D01*
X89309351Y-111106000D01*
X88998649Y-111106000D01*
X88711599Y-111224900D01*
X88491900Y-111444599D01*
X88373000Y-111731649D01*
X88373000Y-112042351D01*
X88491900Y-112329401D01*
X88709501Y-112547002D01*
X88709500Y-117255882D01*
X86822646Y-119142737D01*
X86785535Y-119167534D01*
X86760738Y-119204645D01*
X86760735Y-119204648D01*
X86746110Y-119226536D01*
X86656000Y-119226536D01*
X86507341Y-119256106D01*
X86381314Y-119340314D01*
X86297106Y-119466341D01*
X86267536Y-119615000D01*
X86267536Y-120415000D01*
X86288521Y-120520500D01*
X85935612Y-120520500D01*
X85914894Y-120416341D01*
X85830686Y-120290314D01*
X85704659Y-120206106D01*
X85556000Y-120176536D01*
X84656000Y-120176536D01*
X84507341Y-120206106D01*
X84381314Y-120290314D01*
X84297106Y-120416341D01*
X84276388Y-120520500D01*
X82780559Y-120520500D01*
X82694659Y-120463104D01*
X82546000Y-120433534D01*
X82172999Y-120433534D01*
X82172999Y-120000618D01*
X82579355Y-119594263D01*
X82616466Y-119569466D01*
X82641263Y-119532355D01*
X82641265Y-119532353D01*
X82656535Y-119509500D01*
X84276388Y-119509500D01*
X84297106Y-119613659D01*
X84381314Y-119739686D01*
X84507341Y-119823894D01*
X84656000Y-119853464D01*
X85556000Y-119853464D01*
X85704659Y-119823894D01*
X85830686Y-119739686D01*
X85914894Y-119613659D01*
X85944464Y-119465000D01*
X85944464Y-118665000D01*
X85914894Y-118516341D01*
X85830686Y-118390314D01*
X85704659Y-118306106D01*
X85556000Y-118276536D01*
X84656000Y-118276536D01*
X84507341Y-118306106D01*
X84381314Y-118390314D01*
X84297106Y-118516341D01*
X84276388Y-118620500D01*
X82934166Y-118620500D01*
X82904894Y-118473341D01*
X82820686Y-118347314D01*
X82694659Y-118263106D01*
X82546000Y-118233536D01*
X82046000Y-118233536D01*
X81897341Y-118263106D01*
X81805458Y-118324500D01*
X80407264Y-118324500D01*
X80353686Y-118244314D01*
X80227659Y-118160106D01*
X80079000Y-118130536D01*
X79179000Y-118130536D01*
X79030341Y-118160106D01*
X78904314Y-118244314D01*
X78850736Y-118324500D01*
X78505774Y-118324500D01*
X78462000Y-118315793D01*
X78436485Y-118320868D01*
X78323267Y-118207650D01*
X78323265Y-118207647D01*
X69818464Y-109702847D01*
X69818464Y-108496999D01*
X75034382Y-108496999D01*
X76934737Y-110397355D01*
X76934737Y-110397355D01*
G37*
X76934737Y-110397355D02*
X76959534Y-110434466D01*
X76996645Y-110459263D01*
X76996647Y-110459265D01*
X77018536Y-110473891D01*
X77018536Y-110614000D01*
X77048106Y-110762659D01*
X77132314Y-110888686D01*
X77258341Y-110972894D01*
X77407000Y-111002464D01*
X79107000Y-111002464D01*
X79255659Y-110972894D01*
X79381686Y-110888686D01*
X79465894Y-110762659D01*
X79495464Y-110614000D01*
X79495464Y-110558500D01*
X83318536Y-110558500D01*
X83318536Y-110614000D01*
X83348106Y-110762659D01*
X83432314Y-110888686D01*
X83558341Y-110972894D01*
X83707000Y-111002464D01*
X85407000Y-111002464D01*
X85555659Y-110972894D01*
X85681686Y-110888686D01*
X85765894Y-110762659D01*
X85795464Y-110614000D01*
X85795464Y-110558500D01*
X89609883Y-110558500D01*
X92840710Y-113789328D01*
X92820424Y-113819688D01*
X92724884Y-114300000D01*
X92820424Y-114780312D01*
X93092499Y-115187501D01*
X93499688Y-115459576D01*
X93858761Y-115531000D01*
X94101239Y-115531000D01*
X94460312Y-115459576D01*
X94703001Y-115297416D01*
X94703001Y-115842584D01*
X94460312Y-115680424D01*
X94101239Y-115609000D01*
X93858761Y-115609000D01*
X93499688Y-115680424D01*
X93092499Y-115952499D01*
X92820424Y-116359688D01*
X92813620Y-116393894D01*
X92777919Y-116386793D01*
X92734145Y-116395500D01*
X92734140Y-116395500D01*
X92604484Y-116421290D01*
X92604482Y-116421291D01*
X92604483Y-116421291D01*
X92494566Y-116494735D01*
X92494564Y-116494737D01*
X92457453Y-116519534D01*
X92432656Y-116556645D01*
X88468802Y-120520500D01*
X87923479Y-120520500D01*
X87944464Y-120415000D01*
X87944464Y-119615000D01*
X87914894Y-119466341D01*
X87851361Y-119371256D01*
X89437355Y-117785263D01*
X89474466Y-117760466D01*
X89499263Y-117723355D01*
X89499265Y-117723353D01*
X89572709Y-117613436D01*
X89572710Y-117613435D01*
X89598500Y-117483779D01*
X89598500Y-117483775D01*
X89607207Y-117440001D01*
X89598500Y-117396227D01*
X89598500Y-112547001D01*
X89816100Y-112329401D01*
X89935000Y-112042351D01*
X89935000Y-111731649D01*
X89816100Y-111444599D01*
X89596401Y-111224900D01*
X89309351Y-111106000D01*
X88998649Y-111106000D01*
X88711599Y-111224900D01*
X88491900Y-111444599D01*
X88373000Y-111731649D01*
X88373000Y-112042351D01*
X88491900Y-112329401D01*
X88709501Y-112547002D01*
X88709500Y-117255882D01*
X86822646Y-119142737D01*
X86785535Y-119167534D01*
X86760738Y-119204645D01*
X86760735Y-119204648D01*
X86746110Y-119226536D01*
X86656000Y-119226536D01*
X86507341Y-119256106D01*
X86381314Y-119340314D01*
X86297106Y-119466341D01*
X86267536Y-119615000D01*
X86267536Y-120415000D01*
X86288521Y-120520500D01*
X85935612Y-120520500D01*
X85914894Y-120416341D01*
X85830686Y-120290314D01*
X85704659Y-120206106D01*
X85556000Y-120176536D01*
X84656000Y-120176536D01*
X84507341Y-120206106D01*
X84381314Y-120290314D01*
X84297106Y-120416341D01*
X84276388Y-120520500D01*
X82780559Y-120520500D01*
X82694659Y-120463104D01*
X82546000Y-120433534D01*
X82172999Y-120433534D01*
X82172999Y-120000618D01*
X82579355Y-119594263D01*
X82616466Y-119569466D01*
X82641263Y-119532355D01*
X82641265Y-119532353D01*
X82656535Y-119509500D01*
X84276388Y-119509500D01*
X84297106Y-119613659D01*
X84381314Y-119739686D01*
X84507341Y-119823894D01*
X84656000Y-119853464D01*
X85556000Y-119853464D01*
X85704659Y-119823894D01*
X85830686Y-119739686D01*
X85914894Y-119613659D01*
X85944464Y-119465000D01*
X85944464Y-118665000D01*
X85914894Y-118516341D01*
X85830686Y-118390314D01*
X85704659Y-118306106D01*
X85556000Y-118276536D01*
X84656000Y-118276536D01*
X84507341Y-118306106D01*
X84381314Y-118390314D01*
X84297106Y-118516341D01*
X84276388Y-118620500D01*
X82934166Y-118620500D01*
X82904894Y-118473341D01*
X82820686Y-118347314D01*
X82694659Y-118263106D01*
X82546000Y-118233536D01*
X82046000Y-118233536D01*
X81897341Y-118263106D01*
X81805458Y-118324500D01*
X80407264Y-118324500D01*
X80353686Y-118244314D01*
X80227659Y-118160106D01*
X80079000Y-118130536D01*
X79179000Y-118130536D01*
X79030341Y-118160106D01*
X78904314Y-118244314D01*
X78850736Y-118324500D01*
X78505774Y-118324500D01*
X78462000Y-118315793D01*
X78436485Y-118320868D01*
X78323267Y-118207650D01*
X78323265Y-118207647D01*
X69818464Y-109702847D01*
X69818464Y-108496999D01*
X75034382Y-108496999D01*
X76934737Y-110397355D01*
G04 #@! TD*
M02*
