  0
SECTION
  2
HEADER
  9
$ACADVER
  1
AC1009
  9
$FILLMODE
 70
0
  9
$EXTMIN
 10
-7.3980
 20
-6.8980
 30
0.0000
  9
$EXTMAX
 10
44.8980
 20
25.3980
 30
0.0000
  0
ENDSEC
  0
SECTION
  2
TABLES
  0
TABLE
  2
LTYPE
 70
1
  0
LTYPE
  2
CONTINUOUS
 70
64
  3
Solid line
 72
65
 73
0
 40
0
  0
ENDTAB
  0
TABLE
  2
LAYER
 70
255
  0
LAYER
  2
17
 70
64
 62
82
  6
CONTINUOUS
  0
LAYER
  2
20
 70
64
 62
30
  6
CONTINUOUS
  0
LAYER
  2
21
 70
64
 62
253
  6
CONTINUOUS
  0
LAYER
  2
51
 70
64
 62
253
  6
CONTINUOUS
  0
ENDTAB
  0
ENDSEC
  0
SECTION
  2
BLOCKS
  0
BLOCK
  8
0
  2
RECT
 70
64
 10
0.0000
 20
0.0000
 30
0.0000
  3
RECT
  0
SOLID
  8
0
 10
-0.5000
 20
-0.5000
 30
0.0000
 11
0.5000
 21
-0.5000
 31
0.0000
 12
-0.5000
 22
0.5000
 32
0.0000
 13
0.5000
 23
0.5000
 33
0.0000
  0
ENDBLK
  8
0
  0
BLOCK
  8
0
  2
PIE
 70
64
 10
0.0000
 20
0.0000
 30
0.0000
  3
PIE
  0
CIRCLE
  8
0
 10
0.0000
 20
0.0000
 30
0.0000
 40
0.5000
  0
ENDBLK
  8
0
  0
BLOCK
  8
0
  2
OCTAGONP
 70
64
 10
0.0000
 20
0.0000
 30
0.0000
  3
OCTAGONP
  0
POLYLINE
  8
0
 66
1
 10
0.0000
 20
0.0000
 30
0.0000
 40
0.0000
 41
0.0000
 70
1
  0
VERTEX
  8
0
 10
-0.5000
 20
-0.2071
 30
0.0000
  0
VERTEX
  8
0
 10
-0.5000
 20
0.2071
 30
0.0000
  0
VERTEX
  8
0
 10
-0.2071
 20
0.5000
 30
0.0000
  0
VERTEX
  8
0
 10
0.2071
 20
0.5000
 30
0.0000
  0
VERTEX
  8
0
 10
0.5000
 20
0.2071
 30
0.0000
  0
VERTEX
  8
0
 10
0.5000
 20
-0.2071
 30
0.0000
  0
VERTEX
  8
0
 10
0.2071
 20
-0.5000
 30
0.0000
  0
VERTEX
  8
0
 10
-0.2071
 20
-0.5000
 30
0.0000
  0
SEQEND
  8
0
  0
ENDBLK
  8
0
  0
BLOCK
  8
0
  2
SQUAREP
 70
64
 10
0.0000
 20
0.0000
 30
0.0000
  3
SQUAREP
  0
SOLID
  8
0
 10
-0.5000
 20
-0.5000
 30
0.0000
 11
0.5000
 21
-0.5000
 31
0.0000
 12
-0.5000
 22
0.5000
 32
0.0000
 13
0.5000
 23
0.5000
 33
0.0000
  0
ENDBLK
  8
0
  0
BLOCK
  8
0
  2
ROUNDP
 70
64
 10
0.0000
 20
0.0000
 30
0.0000
  3
ROUNDP
  0
CIRCLE
  8
0
 10
0.0000
 20
0.0000
 30
0.0000
 40
0.5000
  0
ENDBLK
  8
0
  0
BLOCK
  8
0
  2
ANNULUSP
 70
64
 10
0.0000
 20
0.0000
 30
0.0000
  3
ANNULUSP
  0
CIRCLE
  8
0
 10
0.0000
 20
0.0000
 30
0.0000
 40
0.5000
  0
ENDBLK
  8
0
  0
BLOCK
  8
0
  2
THERMALP
 70
64
 10
0.0000
 20
0.0000
 30
0.0000
  3
THERMALP
  0
LINE
  8
0
 10
-0.2379
 20
0.4500
 30
0.0000
 11
0.2379
 21
0.4500
 31
0.0000
  0
LINE
  8
0
 10
0.4500
 20
0.2379
 30
0.0000
 11
0.4500
 21
-0.2379
 31
0.0000
  0
LINE
  8
0
 10
0.2379
 20
-0.4500
 30
0.0000
 11
-0.2379
 21
-0.4500
 31
0.0000
  0
LINE
  8
0
 10
-0.4500
 20
-0.2379
 30
0.0000
 11
-0.4500
 21
0.2379
 31
0.0000
  0
ENDBLK
  8
0
  0
BLOCK
  8
0
  2
OCTAGONV
 70
64
 10
0.0000
 20
0.0000
 30
0.0000
  3
OCTAGONV
  0
POLYLINE
  8
0
 66
1
 10
0.0000
 20
0.0000
 30
0.0000
 40
0.0000
 41
0.0000
 70
1
  0
VERTEX
  8
0
 10
-0.5000
 20
-0.2071
 30
0.0000
  0
VERTEX
  8
0
 10
-0.5000
 20
0.2071
 30
0.0000
  0
VERTEX
  8
0
 10
-0.2071
 20
0.5000
 30
0.0000
  0
VERTEX
  8
0
 10
0.2071
 20
0.5000
 30
0.0000
  0
VERTEX
  8
0
 10
0.5000
 20
0.2071
 30
0.0000
  0
VERTEX
  8
0
 10
0.5000
 20
-0.2071
 30
0.0000
  0
VERTEX
  8
0
 10
0.2071
 20
-0.5000
 30
0.0000
  0
VERTEX
  8
0
 10
-0.2071
 20
-0.5000
 30
0.0000
  0
SEQEND
  8
0
  0
ENDBLK
  8
0
  0
BLOCK
  8
0
  2
SQUAREV
 70
64
 10
0.0000
 20
0.0000
 30
0.0000
  3
SQUAREV
  0
SOLID
  8
0
 10
-0.5000
 20
-0.5000
 30
0.0000
 11
0.5000
 21
-0.5000
 31
0.0000
 12
-0.5000
 22
0.5000
 32
0.0000
 13
0.5000
 23
0.5000
 33
0.0000
  0
ENDBLK
  8
0
  0
BLOCK
  8
0
  2
ROUNDV
 70
64
 10
0.0000
 20
0.0000
 30
0.0000
  3
ROUNDV
  0
CIRCLE
  8
0
 10
0.0000
 20
0.0000
 30
0.0000
 40
0.5000
  0
ENDBLK
  8
0
  0
BLOCK
  8
0
  2
ANNULUSV
 70
64
 10
0.0000
 20
0.0000
 30
0.0000
  3
ANNULUSV
  0
CIRCLE
  8
0
 10
0.0000
 20
0.0000
 30
0.0000
 40
0.5000
  0
ENDBLK
  8
0
  0
BLOCK
  8
0
  2
THERMALV
 70
64
 10
0.0000
 20
0.0000
 30
0.0000
  3
THERMALV
  0
LINE
  8
0
 10
-0.2379
 20
0.4500
 30
0.0000
 11
0.2379
 21
0.4500
 31
0.0000
  0
LINE
  8
0
 10
0.4500
 20
0.2379
 30
0.0000
 11
0.4500
 21
-0.2379
 31
0.0000
  0
LINE
  8
0
 10
0.2379
 20
-0.4500
 30
0.0000
 11
-0.2379
 21
-0.4500
 31
0.0000
  0
LINE
  8
0
 10
-0.4500
 20
-0.2379
 30
0.0000
 11
-0.4500
 21
0.2379
 31
0.0000
  0
ENDBLK
  8
0
  0
ENDSEC
  0
SECTION
  2
ENTITIES
  0
LINE
  8
20
 10
0.0000
 20
16.7929
 30
0.0000
 11
0.0000
 21
1.7071
 31
0.0000
  0
ARC
  8
20
 10
1.7071
 20
1.7071
 30
0.0000
 40
1.7071
 50
180.0000
 51
270.0000
  0
LINE
  8
20
 10
1.7071
 20
0.0000
 30
0.0000
 11
35.7929
 21
0.0000
 31
0.0000
  0
ARC
  8
20
 10
35.7929
 20
1.7071
 30
0.0000
 40
1.7071
 50
270.0000
 51
0.0000
  0
LINE
  8
20
 10
37.5000
 20
1.7071
 30
0.0000
 11
37.5000
 21
16.7929
 31
0.0000
  0
ARC
  8
20
 10
35.7929
 20
16.7929
 30
0.0000
 40
1.7071
 50
0.0000
 51
90.0000
  0
LINE
  8
20
 10
35.7929
 20
18.5000
 30
0.0000
 11
1.7071
 21
18.5000
 31
0.0000
  0
ARC
  8
20
 10
1.7071
 20
16.7929
 30
0.0000
 40
1.7071
 50
90.0000
 51
180.0000
  0
LINE
  8
51
 10
14.2750
 20
10.8500
 30
0.0000
 11
15.7250
 21
10.8500
 31
0.0000
  0
LINE
  8
51
 10
15.7250
 20
10.1500
 30
0.0000
 11
14.2750
 21
10.1500
 31
0.0000
  0
INSERT
  8
51
  2
RECT
 10
14.3750
 20
10.5000
 30
0.0000
 41
0.3500
 42
0.8000
 43
1.0000
 50
0.0000
  0
INSERT
  8
51
  2
RECT
 10
15.6250
 20
10.5000
 30
0.0000
 41
0.3500
 42
0.8000
 43
1.0000
 50
0.0000
  0
LINE
  8
51
 10
14.2750
 20
9.3500
 30
0.0000
 11
15.7250
 21
9.3500
 31
0.0000
  0
LINE
  8
51
 10
15.7250
 20
8.6500
 30
0.0000
 11
14.2750
 21
8.6500
 31
0.0000
  0
INSERT
  8
51
  2
RECT
 10
14.3750
 20
9.0000
 30
0.0000
 41
0.3500
 42
0.8000
 43
1.0000
 50
0.0000
  0
INSERT
  8
51
  2
RECT
 10
15.6250
 20
9.0000
 30
0.0000
 41
0.3500
 42
0.8000
 43
1.0000
 50
0.0000
  0
INSERT
  8
51
  2
RECT
 10
9.0400
 20
2.5000
 30
0.0000
 41
0.5080
 42
0.5080
 43
1.0000
 50
0.0000
  0
INSERT
  8
51
  2
RECT
 10
6.5000
 20
2.5000
 30
0.0000
 41
0.5080
 42
0.5080
 43
1.0000
 50
0.0000
  0
INSERT
  8
17
  2
ROUNDP
 10
6.5000
 20
2.5000
 30
0.0000
 41
1.8796
 42
1.8796
 43
1.0000
 50
90.0000
  0
INSERT
  8
17
  2
ROUNDP
 10
6.5000
 20
2.5000
 30
0.0000
 41
1.8796
 42
1.8796
 43
1.0000
 50
90.0000
  0
INSERT
  8
17
  2
ROUNDP
 10
9.0400
 20
2.5000
 30
0.0000
 41
1.8796
 42
1.8796
 43
1.0000
 50
90.0000
  0
INSERT
  8
17
  2
ROUNDP
 10
9.0400
 20
2.5000
 30
0.0000
 41
1.8796
 42
1.8796
 43
1.0000
 50
90.0000
  0
INSERT
  8
51
  2
RECT
 10
28.9600
 20
13.0000
 30
0.0000
 41
0.5080
 42
0.5080
 43
1.0000
 50
180.0000
  0
INSERT
  8
51
  2
RECT
 10
31.5000
 20
13.0000
 30
0.0000
 41
0.5080
 42
0.5080
 43
1.0000
 50
180.0000
  0
INSERT
  8
17
  2
ROUNDP
 10
31.5000
 20
13.0000
 30
0.0000
 41
1.8796
 42
1.8796
 43
1.0000
 50
270.0000
  0
INSERT
  8
17
  2
ROUNDP
 10
31.5000
 20
13.0000
 30
0.0000
 41
1.8796
 42
1.8796
 43
1.0000
 50
270.0000
  0
INSERT
  8
17
  2
ROUNDP
 10
28.9600
 20
13.0000
 30
0.0000
 41
1.8796
 42
1.8796
 43
1.0000
 50
270.0000
  0
INSERT
  8
17
  2
ROUNDP
 10
28.9600
 20
13.0000
 30
0.0000
 41
1.8796
 42
1.8796
 43
1.0000
 50
270.0000
  0
INSERT
  8
51
  2
RECT
 10
28.9600
 20
10.5000
 30
0.0000
 41
0.5080
 42
0.5080
 43
1.0000
 50
180.0000
  0
INSERT
  8
51
  2
RECT
 10
31.5000
 20
10.5000
 30
0.0000
 41
0.5080
 42
0.5080
 43
1.0000
 50
180.0000
  0
INSERT
  8
17
  2
ROUNDP
 10
31.5000
 20
10.5000
 30
0.0000
 41
1.8796
 42
1.8796
 43
1.0000
 50
270.0000
  0
INSERT
  8
17
  2
ROUNDP
 10
31.5000
 20
10.5000
 30
0.0000
 41
1.8796
 42
1.8796
 43
1.0000
 50
270.0000
  0
INSERT
  8
17
  2
ROUNDP
 10
28.9600
 20
10.5000
 30
0.0000
 41
1.8796
 42
1.8796
 43
1.0000
 50
270.0000
  0
INSERT
  8
17
  2
ROUNDP
 10
28.9600
 20
10.5000
 30
0.0000
 41
1.8796
 42
1.8796
 43
1.0000
 50
270.0000
  0
INSERT
  8
51
  2
RECT
 10
28.9600
 20
8.0000
 30
0.0000
 41
0.5080
 42
0.5080
 43
1.0000
 50
180.0000
  0
INSERT
  8
51
  2
RECT
 10
31.5000
 20
8.0000
 30
0.0000
 41
0.5080
 42
0.5080
 43
1.0000
 50
180.0000
  0
INSERT
  8
17
  2
ROUNDP
 10
31.5000
 20
8.0000
 30
0.0000
 41
1.8796
 42
1.8796
 43
1.0000
 50
270.0000
  0
INSERT
  8
17
  2
ROUNDP
 10
31.5000
 20
8.0000
 30
0.0000
 41
1.8796
 42
1.8796
 43
1.0000
 50
270.0000
  0
INSERT
  8
17
  2
ROUNDP
 10
28.9600
 20
8.0000
 30
0.0000
 41
1.8796
 42
1.8796
 43
1.0000
 50
270.0000
  0
INSERT
  8
17
  2
ROUNDP
 10
28.9600
 20
8.0000
 30
0.0000
 41
1.8796
 42
1.8796
 43
1.0000
 50
270.0000
  0
INSERT
  8
51
  2
RECT
 10
28.9600
 20
5.5000
 30
0.0000
 41
0.5080
 42
0.5080
 43
1.0000
 50
180.0000
  0
INSERT
  8
51
  2
RECT
 10
31.5000
 20
5.5000
 30
0.0000
 41
0.5080
 42
0.5080
 43
1.0000
 50
180.0000
  0
INSERT
  8
17
  2
ROUNDP
 10
31.5000
 20
5.5000
 30
0.0000
 41
1.8796
 42
1.8796
 43
1.0000
 50
270.0000
  0
INSERT
  8
17
  2
ROUNDP
 10
31.5000
 20
5.5000
 30
0.0000
 41
1.8796
 42
1.8796
 43
1.0000
 50
270.0000
  0
INSERT
  8
17
  2
ROUNDP
 10
28.9600
 20
5.5000
 30
0.0000
 41
1.8796
 42
1.8796
 43
1.0000
 50
270.0000
  0
INSERT
  8
17
  2
ROUNDP
 10
28.9600
 20
5.5000
 30
0.0000
 41
1.8796
 42
1.8796
 43
1.0000
 50
270.0000
  0
INSERT
  8
51
  2
RECT
 10
2.0000
 20
3.3000
 30
0.0000
 41
0.5080
 42
0.5080
 43
1.0000
 50
270.0000
  0
INSERT
  8
51
  2
RECT
 10
2.0000
 20
5.8400
 30
0.0000
 41
0.5080
 42
0.5080
 43
1.0000
 50
270.0000
  0
INSERT
  8
51
  2
RECT
 10
2.0000
 20
8.3800
 30
0.0000
 41
0.5080
 42
0.5080
 43
1.0000
 50
270.0000
  0
INSERT
  8
51
  2
RECT
 10
2.0000
 20
10.9200
 30
0.0000
 41
0.5080
 42
0.5080
 43
1.0000
 50
270.0000
  0
INSERT
  8
51
  2
RECT
 10
2.0000
 20
13.4600
 30
0.0000
 41
0.5080
 42
0.5080
 43
1.0000
 50
270.0000
  0
INSERT
  8
51
  2
RECT
 10
2.0000
 20
16.0000
 30
0.0000
 41
0.5080
 42
0.5080
 43
1.0000
 50
270.0000
  0
INSERT
  8
17
  2
ROUNDP
 10
2.0000
 20
16.0000
 30
0.0000
 41
1.8796
 42
1.8796
 43
1.0000
 50
0.0000
  0
INSERT
  8
17
  2
ROUNDP
 10
2.0000
 20
16.0000
 30
0.0000
 41
1.8796
 42
1.8796
 43
1.0000
 50
0.0000
  0
INSERT
  8
17
  2
ROUNDP
 10
2.0000
 20
13.4600
 30
0.0000
 41
1.8796
 42
1.8796
 43
1.0000
 50
0.0000
  0
INSERT
  8
17
  2
ROUNDP
 10
2.0000
 20
13.4600
 30
0.0000
 41
1.8796
 42
1.8796
 43
1.0000
 50
0.0000
  0
INSERT
  8
17
  2
ROUNDP
 10
2.0000
 20
10.9200
 30
0.0000
 41
1.8796
 42
1.8796
 43
1.0000
 50
0.0000
  0
INSERT
  8
17
  2
ROUNDP
 10
2.0000
 20
10.9200
 30
0.0000
 41
1.8796
 42
1.8796
 43
1.0000
 50
0.0000
  0
INSERT
  8
17
  2
ROUNDP
 10
2.0000
 20
8.3800
 30
0.0000
 41
1.8796
 42
1.8796
 43
1.0000
 50
0.0000
  0
INSERT
  8
17
  2
ROUNDP
 10
2.0000
 20
8.3800
 30
0.0000
 41
1.8796
 42
1.8796
 43
1.0000
 50
0.0000
  0
INSERT
  8
17
  2
ROUNDP
 10
2.0000
 20
5.8400
 30
0.0000
 41
1.8796
 42
1.8796
 43
1.0000
 50
0.0000
  0
INSERT
  8
17
  2
ROUNDP
 10
2.0000
 20
5.8400
 30
0.0000
 41
1.8796
 42
1.8796
 43
1.0000
 50
0.0000
  0
INSERT
  8
17
  2
ROUNDP
 10
2.0000
 20
3.3000
 30
0.0000
 41
1.8796
 42
1.8796
 43
1.0000
 50
0.0000
  0
INSERT
  8
17
  2
ROUNDP
 10
2.0000
 20
3.3000
 30
0.0000
 41
1.8796
 42
1.8796
 43
1.0000
 50
0.0000
  0
INSERT
  8
51
  2
RECT
 10
35.5000
 20
14.6600
 30
0.0000
 41
0.5080
 42
0.5080
 43
1.0000
 50
90.0000
  0
INSERT
  8
51
  2
RECT
 10
35.5000
 20
12.1200
 30
0.0000
 41
0.5080
 42
0.5080
 43
1.0000
 50
90.0000
  0
INSERT
  8
51
  2
RECT
 10
35.5000
 20
9.5800
 30
0.0000
 41
0.5080
 42
0.5080
 43
1.0000
 50
90.0000
  0
INSERT
  8
51
  2
RECT
 10
35.5000
 20
7.0400
 30
0.0000
 41
0.5080
 42
0.5080
 43
1.0000
 50
90.0000
  0
INSERT
  8
51
  2
RECT
 10
35.5000
 20
4.5000
 30
0.0000
 41
0.5080
 42
0.5080
 43
1.0000
 50
90.0000
  0
INSERT
  8
17
  2
ROUNDP
 10
35.5000
 20
4.5000
 30
0.0000
 41
1.8796
 42
1.8796
 43
1.0000
 50
180.0000
  0
INSERT
  8
17
  2
ROUNDP
 10
35.5000
 20
4.5000
 30
0.0000
 41
1.8796
 42
1.8796
 43
1.0000
 50
180.0000
  0
INSERT
  8
17
  2
ROUNDP
 10
35.5000
 20
7.0400
 30
0.0000
 41
1.8796
 42
1.8796
 43
1.0000
 50
180.0000
  0
INSERT
  8
17
  2
ROUNDP
 10
35.5000
 20
7.0400
 30
0.0000
 41
1.8796
 42
1.8796
 43
1.0000
 50
180.0000
  0
INSERT
  8
17
  2
ROUNDP
 10
35.5000
 20
9.5800
 30
0.0000
 41
1.8796
 42
1.8796
 43
1.0000
 50
180.0000
  0
INSERT
  8
17
  2
ROUNDP
 10
35.5000
 20
9.5800
 30
0.0000
 41
1.8796
 42
1.8796
 43
1.0000
 50
180.0000
  0
INSERT
  8
17
  2
ROUNDP
 10
35.5000
 20
12.1200
 30
0.0000
 41
1.8796
 42
1.8796
 43
1.0000
 50
180.0000
  0
INSERT
  8
17
  2
ROUNDP
 10
35.5000
 20
12.1200
 30
0.0000
 41
1.8796
 42
1.8796
 43
1.0000
 50
180.0000
  0
INSERT
  8
17
  2
ROUNDP
 10
35.5000
 20
14.6600
 30
0.0000
 41
1.8796
 42
1.8796
 43
1.0000
 50
180.0000
  0
INSERT
  8
17
  2
ROUNDP
 10
35.5000
 20
14.6600
 30
0.0000
 41
1.8796
 42
1.8796
 43
1.0000
 50
180.0000
  0
ARC
  8
51
 10
10.9792
 20
15.0000
 30
0.0000
 40
0.3542
 50
98.8027
 51
261.1973
  0
ARC
  8
51
 10
9.0208
 20
15.0000
 30
0.0000
 40
0.3542
 50
278.8027
 51
81.1973
  0
LINE
  8
51
 10
10.5250
 20
14.4250
 30
0.0000
 11
9.4750
 21
14.4250
 31
0.0000
  0
LINE
  8
51
 10
9.5000
 20
15.5750
 30
0.0000
 11
10.9250
 21
15.5750
 31
0.0000
  0
CIRCLE
  8
51
 10
10.8500
 20
15.4500
 30
0.0000
 40
0.1030
  0
INSERT
  8
51
  2
RECT
 10
10.7500
 20
14.5375
 30
0.0000
 41
0.3250
 42
0.5000
 43
1.0000
 50
270.0000
  0
INSERT
  8
51
  2
RECT
 10
10.6250
 20
15.2500
 30
0.0000
 41
0.1500
 42
0.2500
 43
1.0000
 50
270.0000
  0
INSERT
  8
51
  2
RECT
 10
10.6250
 20
14.7500
 30
0.0000
 41
0.1500
 42
0.2500
 43
1.0000
 50
270.0000
  0
INSERT
  8
51
  2
RECT
 10
10.5875
 20
15.0000
 30
0.0000
 41
0.4000
 42
0.1750
 43
1.0000
 50
270.0000
  0
INSERT
  8
51
  2
RECT
 10
9.2500
 20
14.5375
 30
0.0000
 41
0.3250
 42
0.5000
 43
1.0000
 50
270.0000
  0
INSERT
  8
51
  2
RECT
 10
9.2500
 20
15.4625
 30
0.0000
 41
0.3250
 42
0.5000
 43
1.0000
 50
270.0000
  0
INSERT
  8
51
  2
RECT
 10
9.3750
 20
14.7500
 30
0.0000
 41
0.1500
 42
0.2500
 43
1.0000
 50
270.0000
  0
INSERT
  8
51
  2
RECT
 10
9.3750
 20
15.2500
 30
0.0000
 41
0.1500
 42
0.2500
 43
1.0000
 50
270.0000
  0
INSERT
  8
51
  2
RECT
 10
9.4125
 20
15.0000
 30
0.0000
 41
0.4000
 42
0.1750
 43
1.0000
 50
270.0000
  0
INSERT
  8
21
  2
RECT
 10
10.1000
 20
15.0000
 30
0.0000
 41
0.2000
 42
0.2000
 43
1.0000
 50
270.0000
  0
INSERT
  8
51
  2
RECT
 10
10.6500
 20
15.4500
 30
0.0000
 41
0.3000
 42
0.3000
 43
1.0000
 50
270.0000
  0
INSERT
  8
51
  2
RECT
 10
10.9625
 20
15.4625
 30
0.0000
 41
0.3250
 42
0.0750
 43
1.0000
 50
270.0000
  0
ARC
  8
51
 10
21.0208
 20
13.0000
 30
0.0000
 40
0.3542
 50
278.8027
 51
81.1973
  0
ARC
  8
51
 10
22.9792
 20
13.0000
 30
0.0000
 40
0.3542
 50
98.8027
 51
261.1973
  0
LINE
  8
51
 10
21.4750
 20
13.5750
 30
0.0000
 11
22.5250
 21
13.5750
 31
0.0000
  0
LINE
  8
51
 10
22.5000
 20
12.4250
 30
0.0000
 11
21.0750
 21
12.4250
 31
0.0000
  0
CIRCLE
  8
51
 10
21.1500
 20
12.5500
 30
0.0000
 40
0.1030
  0
INSERT
  8
51
  2
RECT
 10
21.2500
 20
13.4625
 30
0.0000
 41
0.3250
 42
0.5000
 43
1.0000
 50
90.0000
  0
INSERT
  8
51
  2
RECT
 10
21.3750
 20
12.7500
 30
0.0000
 41
0.1500
 42
0.2500
 43
1.0000
 50
90.0000
  0
INSERT
  8
51
  2
RECT
 10
21.3750
 20
13.2500
 30
0.0000
 41
0.1500
 42
0.2500
 43
1.0000
 50
90.0000
  0
INSERT
  8
51
  2
RECT
 10
21.4125
 20
13.0000
 30
0.0000
 41
0.4000
 42
0.1750
 43
1.0000
 50
90.0000
  0
INSERT
  8
51
  2
RECT
 10
22.7500
 20
13.4625
 30
0.0000
 41
0.3250
 42
0.5000
 43
1.0000
 50
90.0000
  0
INSERT
  8
51
  2
RECT
 10
22.7500
 20
12.5375
 30
0.0000
 41
0.3250
 42
0.5000
 43
1.0000
 50
90.0000
  0
INSERT
  8
51
  2
RECT
 10
22.6250
 20
13.2500
 30
0.0000
 41
0.1500
 42
0.2500
 43
1.0000
 50
90.0000
  0
INSERT
  8
51
  2
RECT
 10
22.6250
 20
12.7500
 30
0.0000
 41
0.1500
 42
0.2500
 43
1.0000
 50
90.0000
  0
INSERT
  8
51
  2
RECT
 10
22.5875
 20
13.0000
 30
0.0000
 41
0.4000
 42
0.1750
 43
1.0000
 50
90.0000
  0
INSERT
  8
21
  2
RECT
 10
21.9000
 20
13.0000
 30
0.0000
 41
0.2000
 42
0.2000
 43
1.0000
 50
90.0000
  0
INSERT
  8
51
  2
RECT
 10
21.3500
 20
12.5500
 30
0.0000
 41
0.3000
 42
0.3000
 43
1.0000
 50
90.0000
  0
INSERT
  8
51
  2
RECT
 10
21.0375
 20
12.5375
 30
0.0000
 41
0.3250
 42
0.0750
 43
1.0000
 50
90.0000
  0
ARC
  8
51
 10
21.0208
 20
10.5000
 30
0.0000
 40
0.3542
 50
278.8027
 51
81.1973
  0
ARC
  8
51
 10
22.9792
 20
10.5000
 30
0.0000
 40
0.3542
 50
98.8027
 51
261.1973
  0
LINE
  8
51
 10
21.4750
 20
11.0750
 30
0.0000
 11
22.5250
 21
11.0750
 31
0.0000
  0
LINE
  8
51
 10
22.5000
 20
9.9250
 30
0.0000
 11
21.0750
 21
9.9250
 31
0.0000
  0
CIRCLE
  8
51
 10
21.1500
 20
10.0500
 30
0.0000
 40
0.1030
  0
INSERT
  8
51
  2
RECT
 10
21.2500
 20
10.9625
 30
0.0000
 41
0.3250
 42
0.5000
 43
1.0000
 50
90.0000
  0
INSERT
  8
51
  2
RECT
 10
21.3750
 20
10.2500
 30
0.0000
 41
0.1500
 42
0.2500
 43
1.0000
 50
90.0000
  0
INSERT
  8
51
  2
RECT
 10
21.3750
 20
10.7500
 30
0.0000
 41
0.1500
 42
0.2500
 43
1.0000
 50
90.0000
  0
INSERT
  8
51
  2
RECT
 10
21.4125
 20
10.5000
 30
0.0000
 41
0.4000
 42
0.1750
 43
1.0000
 50
90.0000
  0
INSERT
  8
51
  2
RECT
 10
22.7500
 20
10.9625
 30
0.0000
 41
0.3250
 42
0.5000
 43
1.0000
 50
90.0000
  0
INSERT
  8
51
  2
RECT
 10
22.7500
 20
10.0375
 30
0.0000
 41
0.3250
 42
0.5000
 43
1.0000
 50
90.0000
  0
INSERT
  8
51
  2
RECT
 10
22.6250
 20
10.7500
 30
0.0000
 41
0.1500
 42
0.2500
 43
1.0000
 50
90.0000
  0
INSERT
  8
51
  2
RECT
 10
22.6250
 20
10.2500
 30
0.0000
 41
0.1500
 42
0.2500
 43
1.0000
 50
90.0000
  0
INSERT
  8
51
  2
RECT
 10
22.5875
 20
10.5000
 30
0.0000
 41
0.4000
 42
0.1750
 43
1.0000
 50
90.0000
  0
INSERT
  8
21
  2
RECT
 10
21.9000
 20
10.5000
 30
0.0000
 41
0.2000
 42
0.2000
 43
1.0000
 50
90.0000
  0
INSERT
  8
51
  2
RECT
 10
21.3500
 20
10.0500
 30
0.0000
 41
0.3000
 42
0.3000
 43
1.0000
 50
90.0000
  0
INSERT
  8
51
  2
RECT
 10
21.0375
 20
10.0375
 30
0.0000
 41
0.3250
 42
0.0750
 43
1.0000
 50
90.0000
  0
ARC
  8
51
 10
21.0208
 20
8.0000
 30
0.0000
 40
0.3542
 50
278.8027
 51
81.1973
  0
ARC
  8
51
 10
22.9792
 20
8.0000
 30
0.0000
 40
0.3542
 50
98.8027
 51
261.1973
  0
LINE
  8
51
 10
21.4750
 20
8.5750
 30
0.0000
 11
22.5250
 21
8.5750
 31
0.0000
  0
LINE
  8
51
 10
22.5000
 20
7.4250
 30
0.0000
 11
21.0750
 21
7.4250
 31
0.0000
  0
CIRCLE
  8
51
 10
21.1500
 20
7.5500
 30
0.0000
 40
0.1030
  0
INSERT
  8
51
  2
RECT
 10
21.2500
 20
8.4625
 30
0.0000
 41
0.3250
 42
0.5000
 43
1.0000
 50
90.0000
  0
INSERT
  8
51
  2
RECT
 10
21.3750
 20
7.7500
 30
0.0000
 41
0.1500
 42
0.2500
 43
1.0000
 50
90.0000
  0
INSERT
  8
51
  2
RECT
 10
21.3750
 20
8.2500
 30
0.0000
 41
0.1500
 42
0.2500
 43
1.0000
 50
90.0000
  0
INSERT
  8
51
  2
RECT
 10
21.4125
 20
8.0000
 30
0.0000
 41
0.4000
 42
0.1750
 43
1.0000
 50
90.0000
  0
INSERT
  8
51
  2
RECT
 10
22.7500
 20
8.4625
 30
0.0000
 41
0.3250
 42
0.5000
 43
1.0000
 50
90.0000
  0
INSERT
  8
51
  2
RECT
 10
22.7500
 20
7.5375
 30
0.0000
 41
0.3250
 42
0.5000
 43
1.0000
 50
90.0000
  0
INSERT
  8
51
  2
RECT
 10
22.6250
 20
8.2500
 30
0.0000
 41
0.1500
 42
0.2500
 43
1.0000
 50
90.0000
  0
INSERT
  8
51
  2
RECT
 10
22.6250
 20
7.7500
 30
0.0000
 41
0.1500
 42
0.2500
 43
1.0000
 50
90.0000
  0
INSERT
  8
51
  2
RECT
 10
22.5875
 20
8.0000
 30
0.0000
 41
0.4000
 42
0.1750
 43
1.0000
 50
90.0000
  0
INSERT
  8
21
  2
RECT
 10
21.9000
 20
8.0000
 30
0.0000
 41
0.2000
 42
0.2000
 43
1.0000
 50
90.0000
  0
INSERT
  8
51
  2
RECT
 10
21.3500
 20
7.5500
 30
0.0000
 41
0.3000
 42
0.3000
 43
1.0000
 50
90.0000
  0
INSERT
  8
51
  2
RECT
 10
21.0375
 20
7.5375
 30
0.0000
 41
0.3250
 42
0.0750
 43
1.0000
 50
90.0000
  0
ARC
  8
51
 10
21.0208
 20
5.5000
 30
0.0000
 40
0.3542
 50
278.8027
 51
81.1973
  0
ARC
  8
51
 10
22.9792
 20
5.5000
 30
0.0000
 40
0.3542
 50
98.8027
 51
261.1973
  0
LINE
  8
51
 10
21.4750
 20
6.0750
 30
0.0000
 11
22.5250
 21
6.0750
 31
0.0000
  0
LINE
  8
51
 10
22.5000
 20
4.9250
 30
0.0000
 11
21.0750
 21
4.9250
 31
0.0000
  0
CIRCLE
  8
51
 10
21.1500
 20
5.0500
 30
0.0000
 40
0.1030
  0
INSERT
  8
51
  2
RECT
 10
21.2500
 20
5.9625
 30
0.0000
 41
0.3250
 42
0.5000
 43
1.0000
 50
90.0000
  0
INSERT
  8
51
  2
RECT
 10
21.3750
 20
5.2500
 30
0.0000
 41
0.1500
 42
0.2500
 43
1.0000
 50
90.0000
  0
INSERT
  8
51
  2
RECT
 10
21.3750
 20
5.7500
 30
0.0000
 41
0.1500
 42
0.2500
 43
1.0000
 50
90.0000
  0
INSERT
  8
51
  2
RECT
 10
21.4125
 20
5.5000
 30
0.0000
 41
0.4000
 42
0.1750
 43
1.0000
 50
90.0000
  0
INSERT
  8
51
  2
RECT
 10
22.7500
 20
5.9625
 30
0.0000
 41
0.3250
 42
0.5000
 43
1.0000
 50
90.0000
  0
INSERT
  8
51
  2
RECT
 10
22.7500
 20
5.0375
 30
0.0000
 41
0.3250
 42
0.5000
 43
1.0000
 50
90.0000
  0
INSERT
  8
51
  2
RECT
 10
22.6250
 20
5.7500
 30
0.0000
 41
0.1500
 42
0.2500
 43
1.0000
 50
90.0000
  0
INSERT
  8
51
  2
RECT
 10
22.6250
 20
5.2500
 30
0.0000
 41
0.1500
 42
0.2500
 43
1.0000
 50
90.0000
  0
INSERT
  8
51
  2
RECT
 10
22.5875
 20
5.5000
 30
0.0000
 41
0.4000
 42
0.1750
 43
1.0000
 50
90.0000
  0
INSERT
  8
21
  2
RECT
 10
21.9000
 20
5.5000
 30
0.0000
 41
0.2000
 42
0.2000
 43
1.0000
 50
90.0000
  0
INSERT
  8
51
  2
RECT
 10
21.3500
 20
5.0500
 30
0.0000
 41
0.3000
 42
0.3000
 43
1.0000
 50
90.0000
  0
INSERT
  8
51
  2
RECT
 10
21.0375
 20
5.0375
 30
0.0000
 41
0.3250
 42
0.0750
 43
1.0000
 50
90.0000
  0
LINE
  8
21
 10
32.6778
 20
15.9874
 30
0.0000
 11
32.6778
 21
16.3074
 31
0.0000
  0
LINE
  8
21
 10
32.6778
 20
16.3074
 30
0.0000
 11
32.3178
 21
16.3674
 31
0.0000
  0
LINE
  8
21
 10
32.3178
 20
16.3674
 30
0.0000
 11
32.3178
 21
16.4074
 31
0.0000
  0
LINE
  8
21
 10
32.3178
 20
16.4074
 30
0.0000
 11
32.3078
 21
16.4174
 31
0.0000
  0
LINE
  8
21
 10
32.3078
 20
16.4174
 30
0.0000
 11
32.3078
 21
16.4374
 31
0.0000
  0
LINE
  8
21
 10
32.3078
 20
16.4374
 30
0.0000
 11
32.2978
 21
16.4474
 31
0.0000
  0
LINE
  8
21
 10
32.2978
 20
16.4474
 30
0.0000
 11
32.2878
 21
16.4674
 31
0.0000
  0
LINE
  8
21
 10
32.2878
 20
16.4674
 30
0.0000
 11
32.2878
 21
16.4874
 31
0.0000
  0
LINE
  8
21
 10
32.2878
 20
16.4874
 30
0.0000
 11
32.2778
 21
16.4974
 31
0.0000
  0
LINE
  8
21
 10
32.2778
 20
16.4974
 30
0.0000
 11
32.2778
 21
16.5174
 31
0.0000
  0
LINE
  8
21
 10
32.2778
 20
16.5174
 30
0.0000
 11
32.2678
 21
16.5274
 31
0.0000
  0
LINE
  8
21
 10
32.2678
 20
16.5274
 30
0.0000
 11
32.2578
 21
16.5474
 31
0.0000
  0
LINE
  8
21
 10
32.2578
 20
16.5474
 30
0.0000
 11
32.2478
 21
16.5574
 31
0.0000
  0
LINE
  8
21
 10
32.2478
 20
16.5574
 30
0.0000
 11
32.2478
 21
16.5774
 31
0.0000
  0
LINE
  8
21
 10
32.2478
 20
16.5774
 30
0.0000
 11
32.2378
 21
16.5874
 31
0.0000
  0
LINE
  8
21
 10
32.2378
 20
16.5874
 30
0.0000
 11
32.2278
 21
16.6074
 31
0.0000
  0
LINE
  8
21
 10
32.2278
 20
16.6074
 30
0.0000
 11
32.2178
 21
16.6174
 31
0.0000
  0
LINE
  8
21
 10
32.2178
 20
16.6174
 30
0.0000
 11
32.4278
 21
16.9074
 31
0.0000
  0
LINE
  8
21
 10
32.4278
 20
16.9074
 30
0.0000
 11
32.1978
 21
17.1274
 31
0.0000
  0
LINE
  8
21
 10
32.1978
 20
17.1274
 30
0.0000
 11
31.9078
 21
16.9274
 31
0.0000
  0
LINE
  8
21
 10
31.9078
 20
16.9274
 30
0.0000
 11
31.8978
 21
16.9374
 31
0.0000
  0
LINE
  8
21
 10
31.8978
 20
16.9374
 30
0.0000
 11
31.8778
 21
16.9474
 31
0.0000
  0
LINE
  8
21
 10
31.8778
 20
16.9474
 30
0.0000
 11
31.8678
 21
16.9474
 31
0.0000
  0
LINE
  8
21
 10
31.8678
 20
16.9474
 30
0.0000
 11
31.8478
 21
16.9574
 31
0.0000
  0
LINE
  8
21
 10
31.8478
 20
16.9574
 30
0.0000
 11
31.8378
 21
16.9674
 31
0.0000
  0
LINE
  8
21
 10
31.8378
 20
16.9674
 30
0.0000
 11
31.8178
 21
16.9774
 31
0.0000
  0
LINE
  8
21
 10
31.8178
 20
16.9774
 30
0.0000
 11
31.8078
 21
16.9774
 31
0.0000
  0
LINE
  8
21
 10
31.8078
 20
16.9774
 30
0.0000
 11
31.7878
 21
16.9874
 31
0.0000
  0
LINE
  8
21
 10
31.7878
 20
16.9874
 30
0.0000
 11
31.7778
 21
16.9974
 31
0.0000
  0
LINE
  8
21
 10
31.7778
 20
16.9974
 30
0.0000
 11
31.7578
 21
16.9974
 31
0.0000
  0
LINE
  8
21
 10
31.7578
 20
16.9974
 30
0.0000
 11
31.7378
 21
17.0074
 31
0.0000
  0
LINE
  8
21
 10
31.7378
 20
17.0074
 30
0.0000
 11
31.7278
 21
17.0074
 31
0.0000
  0
LINE
  8
21
 10
31.7278
 20
17.0074
 30
0.0000
 11
31.7078
 21
17.0174
 31
0.0000
  0
LINE
  8
21
 10
31.7078
 20
17.0174
 30
0.0000
 11
31.6978
 21
17.0174
 31
0.0000
  0
LINE
  8
21
 10
31.6978
 20
17.0174
 30
0.0000
 11
31.6778
 21
17.0274
 31
0.0000
  0
LINE
  8
21
 10
31.6778
 20
17.0274
 30
0.0000
 11
31.6578
 21
17.0274
 31
0.0000
  0
LINE
  8
21
 10
31.6578
 20
17.0274
 30
0.0000
 11
31.5978
 21
17.3774
 31
0.0000
  0
LINE
  8
21
 10
31.5978
 20
17.3774
 30
0.0000
 11
31.2778
 21
17.3774
 31
0.0000
  0
LINE
  8
21
 10
31.2778
 20
17.3774
 30
0.0000
 11
31.2178
 21
17.0274
 31
0.0000
  0
LINE
  8
21
 10
31.2178
 20
17.0274
 30
0.0000
 11
31.2078
 21
17.0274
 31
0.0000
  0
LINE
  8
21
 10
31.2078
 20
17.0274
 30
0.0000
 11
31.1878
 21
17.0174
 31
0.0000
  0
LINE
  8
21
 10
31.1878
 20
17.0174
 30
0.0000
 11
31.1678
 21
17.0174
 31
0.0000
  0
LINE
  8
21
 10
31.1678
 20
17.0174
 30
0.0000
 11
31.1578
 21
17.0074
 31
0.0000
  0
LINE
  8
21
 10
31.1578
 20
17.0074
 30
0.0000
 11
31.1378
 21
17.0074
 31
0.0000
  0
LINE
  8
21
 10
31.1378
 20
17.0074
 30
0.0000
 11
31.1178
 21
16.9974
 31
0.0000
  0
LINE
  8
21
 10
31.1178
 20
16.9974
 30
0.0000
 11
31.1078
 21
16.9974
 31
0.0000
  0
LINE
  8
21
 10
31.1078
 20
16.9974
 30
0.0000
 11
31.0878
 21
16.9874
 31
0.0000
  0
LINE
  8
21
 10
31.0878
 20
16.9874
 30
0.0000
 11
31.0778
 21
16.9774
 31
0.0000
  0
LINE
  8
21
 10
31.0778
 20
16.9774
 30
0.0000
 11
31.0578
 21
16.9774
 31
0.0000
  0
LINE
  8
21
 10
31.0578
 20
16.9774
 30
0.0000
 11
31.0478
 21
16.9674
 31
0.0000
  0
LINE
  8
21
 10
31.0478
 20
16.9674
 30
0.0000
 11
31.0278
 21
16.9574
 31
0.0000
  0
LINE
  8
21
 10
31.0278
 20
16.9574
 30
0.0000
 11
31.0178
 21
16.9474
 31
0.0000
  0
LINE
  8
21
 10
31.0178
 20
16.9474
 30
0.0000
 11
30.9978
 21
16.9474
 31
0.0000
  0
LINE
  8
21
 10
30.9978
 20
16.9474
 30
0.0000
 11
30.9878
 21
16.9374
 31
0.0000
  0
LINE
  8
21
 10
30.9878
 20
16.9374
 30
0.0000
 11
30.9678
 21
16.9274
 31
0.0000
  0
LINE
  8
21
 10
30.9678
 20
16.9274
 30
0.0000
 11
30.6778
 21
17.1274
 31
0.0000
  0
LINE
  8
21
 10
30.6778
 20
17.1274
 30
0.0000
 11
30.4578
 21
16.9074
 31
0.0000
  0
LINE
  8
21
 10
30.4578
 20
16.9074
 30
0.0000
 11
30.6578
 21
16.6174
 31
0.0000
  0
LINE
  8
21
 10
30.6578
 20
16.6174
 30
0.0000
 11
30.6478
 21
16.6074
 31
0.0000
  0
LINE
  8
21
 10
30.6478
 20
16.6074
 30
0.0000
 11
30.6478
 21
16.5874
 31
0.0000
  0
LINE
  8
21
 10
30.6478
 20
16.5874
 30
0.0000
 11
30.6378
 21
16.5774
 31
0.0000
  0
LINE
  8
21
 10
30.6378
 20
16.5774
 30
0.0000
 11
30.6278
 21
16.5574
 31
0.0000
  0
LINE
  8
21
 10
30.6278
 20
16.5574
 30
0.0000
 11
30.6178
 21
16.5474
 31
0.0000
  0
LINE
  8
21
 10
30.6178
 20
16.5474
 30
0.0000
 11
30.6178
 21
16.5274
 31
0.0000
  0
LINE
  8
21
 10
30.6178
 20
16.5274
 30
0.0000
 11
30.6078
 21
16.5174
 31
0.0000
  0
LINE
  8
21
 10
30.6078
 20
16.5174
 30
0.0000
 11
30.5978
 21
16.4974
 31
0.0000
  0
LINE
  8
21
 10
30.5978
 20
16.4974
 30
0.0000
 11
30.5978
 21
16.4874
 31
0.0000
  0
LINE
  8
21
 10
30.5978
 20
16.4874
 30
0.0000
 11
30.5778
 21
16.4474
 31
0.0000
  0
LINE
  8
21
 10
30.5778
 20
16.4474
 30
0.0000
 11
30.5778
 21
16.4374
 31
0.0000
  0
LINE
  8
21
 10
30.5778
 20
16.4374
 30
0.0000
 11
30.5678
 21
16.4174
 31
0.0000
  0
LINE
  8
21
 10
30.5678
 20
16.4174
 30
0.0000
 11
30.5678
 21
16.4074
 31
0.0000
  0
LINE
  8
21
 10
30.5678
 20
16.4074
 30
0.0000
 11
30.5578
 21
16.3874
 31
0.0000
  0
LINE
  8
21
 10
30.5578
 20
16.3874
 30
0.0000
 11
30.5578
 21
16.3674
 31
0.0000
  0
LINE
  8
21
 10
30.5578
 20
16.3674
 30
0.0000
 11
30.2078
 21
16.3074
 31
0.0000
  0
LINE
  8
21
 10
30.2078
 20
16.3074
 30
0.0000
 11
30.2078
 21
15.9874
 31
0.0000
  0
LINE
  8
21
 10
30.2078
 20
15.9874
 30
0.0000
 11
30.5578
 21
15.9274
 31
0.0000
  0
LINE
  8
21
 10
30.5578
 20
15.9274
 30
0.0000
 11
30.5578
 21
15.9174
 31
0.0000
  0
LINE
  8
21
 10
30.5578
 20
15.9174
 30
0.0000
 11
30.5678
 21
15.8974
 31
0.0000
  0
LINE
  8
21
 10
30.5678
 20
15.8974
 30
0.0000
 11
30.5678
 21
15.8774
 31
0.0000
  0
LINE
  8
21
 10
30.5678
 20
15.8774
 30
0.0000
 11
30.5778
 21
15.8674
 31
0.0000
  0
LINE
  8
21
 10
30.5778
 20
15.8674
 30
0.0000
 11
30.5778
 21
15.8474
 31
0.0000
  0
LINE
  8
21
 10
30.5778
 20
15.8474
 30
0.0000
 11
30.5878
 21
15.8374
 31
0.0000
  0
LINE
  8
21
 10
30.5878
 20
15.8374
 30
0.0000
 11
30.5978
 21
15.8174
 31
0.0000
  0
LINE
  8
21
 10
30.5978
 20
15.8174
 30
0.0000
 11
30.5978
 21
15.7974
 31
0.0000
  0
LINE
  8
21
 10
30.5978
 20
15.7974
 30
0.0000
 11
30.6078
 21
15.7874
 31
0.0000
  0
LINE
  8
21
 10
30.6078
 20
15.7874
 30
0.0000
 11
30.6078
 21
15.7674
 31
0.0000
  0
LINE
  8
21
 10
30.6078
 20
15.7674
 30
0.0000
 11
30.6178
 21
15.7574
 31
0.0000
  0
LINE
  8
21
 10
30.6178
 20
15.7574
 30
0.0000
 11
30.6278
 21
15.7374
 31
0.0000
  0
LINE
  8
21
 10
30.6278
 20
15.7374
 30
0.0000
 11
30.6378
 21
15.7274
 31
0.0000
  0
LINE
  8
21
 10
30.6378
 20
15.7274
 30
0.0000
 11
30.6478
 21
15.7074
 31
0.0000
  0
LINE
  8
21
 10
30.6478
 20
15.7074
 30
0.0000
 11
30.6478
 21
15.6974
 31
0.0000
  0
LINE
  8
21
 10
30.6478
 20
15.6974
 30
0.0000
 11
30.6578
 21
15.6774
 31
0.0000
  0
LINE
  8
21
 10
30.6578
 20
15.6774
 30
0.0000
 11
30.4578
 21
15.3974
 31
0.0000
  0
LINE
  8
21
 10
30.4578
 20
15.3974
 30
0.0000
 11
30.6778
 21
15.1674
 31
0.0000
  0
LINE
  8
21
 10
30.6778
 20
15.1674
 30
0.0000
 11
30.9678
 21
15.3674
 31
0.0000
  0
LINE
  8
21
 10
30.9678
 20
15.3674
 30
0.0000
 11
30.9778
 21
15.3674
 31
0.0000
  0
LINE
  8
21
 10
30.9778
 20
15.3674
 30
0.0000
 11
30.9878
 21
15.3574
 31
0.0000
  0
LINE
  8
21
 10
30.9878
 20
15.3574
 30
0.0000
 11
30.9978
 21
15.3574
 31
0.0000
  0
LINE
  8
21
 10
30.9978
 20
15.3574
 30
0.0000
 11
31.0078
 21
15.3474
 31
0.0000
  0
LINE
  8
21
 10
31.0078
 20
15.3474
 30
0.0000
 11
31.0178
 21
15.3474
 31
0.0000
  0
LINE
  8
21
 10
31.0178
 20
15.3474
 30
0.0000
 11
31.0278
 21
15.3374
 31
0.0000
  0
LINE
  8
21
 10
31.0278
 20
15.3374
 30
0.0000
 11
31.0378
 21
15.3374
 31
0.0000
  0
LINE
  8
21
 10
31.0378
 20
15.3374
 30
0.0000
 11
31.0478
 21
15.3274
 31
0.0000
  0
LINE
  8
21
 10
31.0478
 20
15.3274
 30
0.0000
 11
31.0578
 21
15.3274
 31
0.0000
  0
LINE
  8
21
 10
31.0578
 20
15.3274
 30
0.0000
 11
31.0678
 21
15.3174
 31
0.0000
  0
LINE
  8
21
 10
31.0678
 20
15.3174
 30
0.0000
 11
31.0778
 21
15.3174
 31
0.0000
  0
LINE
  8
21
 10
31.0778
 20
15.3174
 30
0.0000
 11
31.0878
 21
15.3074
 31
0.0000
  0
LINE
  8
21
 10
31.0878
 20
15.3074
 30
0.0000
 11
31.1078
 21
15.3074
 31
0.0000
  0
LINE
  8
21
 10
31.1078
 20
15.3074
 30
0.0000
 11
31.1178
 21
15.2974
 31
0.0000
  0
LINE
  8
21
 10
31.1178
 20
15.2974
 30
0.0000
 11
31.3178
 21
15.8374
 31
0.0000
  0
LINE
  8
21
 10
31.3178
 20
15.8374
 30
0.0000
 11
31.2878
 21
15.8474
 31
0.0000
  0
LINE
  8
21
 10
31.2878
 20
15.8474
 30
0.0000
 11
31.2478
 21
15.8674
 31
0.0000
  0
LINE
  8
21
 10
31.2478
 20
15.8674
 30
0.0000
 11
31.2278
 21
15.8874
 31
0.0000
  0
LINE
  8
21
 10
31.2278
 20
15.8874
 30
0.0000
 11
31.2078
 21
15.8974
 31
0.0000
  0
LINE
  8
21
 10
31.2078
 20
15.8974
 30
0.0000
 11
31.1878
 21
15.9174
 31
0.0000
  0
LINE
  8
21
 10
31.1878
 20
15.9174
 30
0.0000
 11
31.1778
 21
15.9374
 31
0.0000
  0
LINE
  8
21
 10
31.1778
 20
15.9374
 30
0.0000
 11
31.1578
 21
15.9574
 31
0.0000
  0
LINE
  8
21
 10
31.1578
 20
15.9574
 30
0.0000
 11
31.1378
 21
15.9974
 31
0.0000
  0
LINE
  8
21
 10
31.1378
 20
15.9974
 30
0.0000
 11
31.1278
 21
16.0274
 31
0.0000
  0
LINE
  8
21
 10
31.1278
 20
16.0274
 30
0.0000
 11
31.1078
 21
16.0674
 31
0.0000
  0
LINE
  8
21
 10
31.1078
 20
16.0674
 30
0.0000
 11
31.1078
 21
16.0974
 31
0.0000
  0
LINE
  8
21
 10
31.1078
 20
16.0974
 30
0.0000
 11
31.0978
 21
16.1274
 31
0.0000
  0
LINE
  8
21
 10
31.0978
 20
16.1274
 30
0.0000
 11
31.0978
 21
16.1874
 31
0.0000
  0
LINE
  8
21
 10
31.0978
 20
16.1874
 30
0.0000
 11
31.1378
 21
16.3074
 31
0.0000
  0
LINE
  8
21
 10
31.1378
 20
16.3074
 30
0.0000
 11
31.1778
 21
16.3674
 31
0.0000
  0
LINE
  8
21
 10
31.1778
 20
16.3674
 30
0.0000
 11
31.1978
 21
16.3874
 31
0.0000
  0
LINE
  8
21
 10
31.1978
 20
16.3874
 30
0.0000
 11
31.2278
 21
16.4074
 31
0.0000
  0
LINE
  8
21
 10
31.2278
 20
16.4074
 30
0.0000
 11
31.2478
 21
16.4274
 31
0.0000
  0
LINE
  8
21
 10
31.2478
 20
16.4274
 30
0.0000
 11
31.2778
 21
16.4474
 31
0.0000
  0
LINE
  8
21
 10
31.2778
 20
16.4474
 30
0.0000
 11
31.3078
 21
16.4574
 31
0.0000
  0
LINE
  8
21
 10
31.3078
 20
16.4574
 30
0.0000
 11
31.3378
 21
16.4774
 31
0.0000
  0
LINE
  8
21
 10
31.3378
 20
16.4774
 30
0.0000
 11
31.3678
 21
16.4774
 31
0.0000
  0
LINE
  8
21
 10
31.3678
 20
16.4774
 30
0.0000
 11
31.4078
 21
16.4874
 31
0.0000
  0
LINE
  8
21
 10
31.4078
 20
16.4874
 30
0.0000
 11
31.4778
 21
16.4874
 31
0.0000
  0
LINE
  8
21
 10
31.4778
 20
16.4874
 30
0.0000
 11
31.5078
 21
16.4774
 31
0.0000
  0
LINE
  8
21
 10
31.5078
 20
16.4774
 30
0.0000
 11
31.5378
 21
16.4774
 31
0.0000
  0
LINE
  8
21
 10
31.5378
 20
16.4774
 30
0.0000
 11
31.5678
 21
16.4574
 31
0.0000
  0
LINE
  8
21
 10
31.5678
 20
16.4574
 30
0.0000
 11
31.5978
 21
16.4474
 31
0.0000
  0
LINE
  8
21
 10
31.5978
 20
16.4474
 30
0.0000
 11
31.6578
 21
16.4074
 31
0.0000
  0
LINE
  8
21
 10
31.6578
 20
16.4074
 30
0.0000
 11
31.6978
 21
16.3674
 31
0.0000
  0
LINE
  8
21
 10
31.6978
 20
16.3674
 30
0.0000
 11
31.7378
 21
16.3074
 31
0.0000
  0
LINE
  8
21
 10
31.7378
 20
16.3074
 30
0.0000
 11
31.7478
 21
16.2774
 31
0.0000
  0
LINE
  8
21
 10
31.7478
 20
16.2774
 30
0.0000
 11
31.7678
 21
16.2474
 31
0.0000
  0
LINE
  8
21
 10
31.7678
 20
16.2474
 30
0.0000
 11
31.7678
 21
16.2174
 31
0.0000
  0
LINE
  8
21
 10
31.7678
 20
16.2174
 30
0.0000
 11
31.7778
 21
16.1874
 31
0.0000
  0
LINE
  8
21
 10
31.7778
 20
16.1874
 30
0.0000
 11
31.7778
 21
16.0974
 31
0.0000
  0
LINE
  8
21
 10
31.7778
 20
16.0974
 30
0.0000
 11
31.7678
 21
16.0674
 31
0.0000
  0
LINE
  8
21
 10
31.7678
 20
16.0674
 30
0.0000
 11
31.7678
 21
16.0474
 31
0.0000
  0
LINE
  8
21
 10
31.7678
 20
16.0474
 30
0.0000
 11
31.7578
 21
16.0274
 31
0.0000
  0
LINE
  8
21
 10
31.7578
 20
16.0274
 30
0.0000
 11
31.7478
 21
15.9974
 31
0.0000
  0
LINE
  8
21
 10
31.7478
 20
15.9974
 30
0.0000
 11
31.7378
 21
15.9774
 31
0.0000
  0
LINE
  8
21
 10
31.7378
 20
15.9774
 30
0.0000
 11
31.7178
 21
15.9574
 31
0.0000
  0
LINE
  8
21
 10
31.7178
 20
15.9574
 30
0.0000
 11
31.7078
 21
15.9374
 31
0.0000
  0
LINE
  8
21
 10
31.7078
 20
15.9374
 30
0.0000
 11
31.6678
 21
15.8974
 31
0.0000
  0
LINE
  8
21
 10
31.6678
 20
15.8974
 30
0.0000
 11
31.6478
 21
15.8874
 31
0.0000
  0
LINE
  8
21
 10
31.6478
 20
15.8874
 30
0.0000
 11
31.6278
 21
15.8674
 31
0.0000
  0
LINE
  8
21
 10
31.6278
 20
15.8674
 30
0.0000
 11
31.5678
 21
15.8374
 31
0.0000
  0
LINE
  8
21
 10
31.5678
 20
15.8374
 30
0.0000
 11
31.7678
 21
15.2974
 31
0.0000
  0
LINE
  8
21
 10
31.7678
 20
15.2974
 30
0.0000
 11
31.7678
 21
15.3074
 31
0.0000
  0
LINE
  8
21
 10
31.7678
 20
15.3074
 30
0.0000
 11
31.7878
 21
15.3074
 31
0.0000
  0
LINE
  8
21
 10
31.7878
 20
15.3074
 30
0.0000
 11
31.7978
 21
15.3174
 31
0.0000
  0
LINE
  8
21
 10
31.7978
 20
15.3174
 30
0.0000
 11
31.8078
 21
15.3174
 31
0.0000
  0
LINE
  8
21
 10
31.8078
 20
15.3174
 30
0.0000
 11
31.8178
 21
15.3274
 31
0.0000
  0
LINE
  8
21
 10
31.8178
 20
15.3274
 30
0.0000
 11
31.8278
 21
15.3274
 31
0.0000
  0
LINE
  8
21
 10
31.8278
 20
15.3274
 30
0.0000
 11
31.8378
 21
15.3374
 31
0.0000
  0
LINE
  8
21
 10
31.8378
 20
15.3374
 30
0.0000
 11
31.8578
 21
15.3374
 31
0.0000
  0
LINE
  8
21
 10
31.8578
 20
15.3374
 30
0.0000
 11
31.8678
 21
15.3474
 31
0.0000
  0
LINE
  8
21
 10
31.8678
 20
15.3474
 30
0.0000
 11
31.8778
 21
15.3474
 31
0.0000
  0
LINE
  8
21
 10
31.8778
 20
15.3474
 30
0.0000
 11
31.8978
 21
15.3674
 31
0.0000
  0
LINE
  8
21
 10
31.8978
 20
15.3674
 30
0.0000
 11
31.9078
 21
15.3674
 31
0.0000
  0
LINE
  8
21
 10
31.9078
 20
15.3674
 30
0.0000
 11
32.1978
 21
15.1674
 31
0.0000
  0
LINE
  8
21
 10
32.1978
 20
15.1674
 30
0.0000
 11
32.4278
 21
15.3974
 31
0.0000
  0
LINE
  8
21
 10
32.4278
 20
15.3974
 30
0.0000
 11
32.2178
 21
15.6774
 31
0.0000
  0
LINE
  8
21
 10
32.2178
 20
15.6774
 30
0.0000
 11
32.2278
 21
15.6974
 31
0.0000
  0
LINE
  8
21
 10
32.2278
 20
15.6974
 30
0.0000
 11
32.2378
 21
15.7074
 31
0.0000
  0
LINE
  8
21
 10
32.2378
 20
15.7074
 30
0.0000
 11
32.2478
 21
15.7274
 31
0.0000
  0
LINE
  8
21
 10
32.2478
 20
15.7274
 30
0.0000
 11
32.2478
 21
15.7374
 31
0.0000
  0
LINE
  8
21
 10
32.2478
 20
15.7374
 30
0.0000
 11
32.2578
 21
15.7574
 31
0.0000
  0
LINE
  8
21
 10
32.2578
 20
15.7574
 30
0.0000
 11
32.2678
 21
15.7674
 31
0.0000
  0
LINE
  8
21
 10
32.2678
 20
15.7674
 30
0.0000
 11
32.2778
 21
15.7874
 31
0.0000
  0
LINE
  8
21
 10
32.2778
 20
15.7874
 30
0.0000
 11
32.2778
 21
15.7974
 31
0.0000
  0
LINE
  8
21
 10
32.2778
 20
15.7974
 30
0.0000
 11
32.2978
 21
15.8374
 31
0.0000
  0
LINE
  8
21
 10
32.2978
 20
15.8374
 30
0.0000
 11
32.2978
 21
15.8474
 31
0.0000
  0
LINE
  8
21
 10
32.2978
 20
15.8474
 30
0.0000
 11
32.3078
 21
15.8674
 31
0.0000
  0
LINE
  8
21
 10
32.3078
 20
15.8674
 30
0.0000
 11
32.3078
 21
15.8774
 31
0.0000
  0
LINE
  8
21
 10
32.3078
 20
15.8774
 30
0.0000
 11
32.3178
 21
15.8974
 31
0.0000
  0
LINE
  8
21
 10
32.3178
 20
15.8974
 30
0.0000
 11
32.3178
 21
15.9174
 31
0.0000
  0
LINE
  8
21
 10
32.3178
 20
15.9174
 30
0.0000
 11
32.3278
 21
15.9274
 31
0.0000
  0
LINE
  8
21
 10
32.3278
 20
15.9274
 30
0.0000
 11
32.6778
 21
15.9874
 31
0.0000
  0
LINE
  8
21
 10
30.6734
 20
15.1720
 30
0.0000
 11
30.6845
 21
15.1720
 31
0.0000
  0
LINE
  8
21
 10
32.1911
 20
15.1720
 30
0.0000
 11
32.2024
 21
15.1720
 31
0.0000
  0
LINE
  8
21
 10
30.6007
 20
15.2480
 30
0.0000
 11
30.7947
 21
15.2480
 31
0.0000
  0
LINE
  8
21
 10
32.0809
 20
15.2480
 30
0.0000
 11
32.2784
 21
15.2480
 31
0.0000
  0
LINE
  8
21
 10
30.5280
 20
15.3240
 30
0.0000
 11
30.9049
 21
15.3240
 31
0.0000
  0
LINE
  8
21
 10
31.0612
 20
15.3240
 30
0.0000
 11
31.1277
 21
15.3240
 31
0.0000
  0
LINE
  8
21
 10
31.7579
 20
15.3240
 30
0.0000
 11
31.8144
 21
15.3240
 31
0.0000
  0
LINE
  8
21
 10
31.9707
 20
15.3240
 30
0.0000
 11
32.3544
 21
15.3240
 31
0.0000
  0
LINE
  8
21
 10
30.4597
 20
15.4000
 30
0.0000
 11
31.1558
 21
15.4000
 31
0.0000
  0
LINE
  8
21
 10
31.7298
 20
15.4000
 30
0.0000
 11
32.4258
 21
15.4000
 31
0.0000
  0
LINE
  8
21
 10
30.5140
 20
15.4760
 30
0.0000
 11
31.1840
 21
15.4760
 31
0.0000
  0
LINE
  8
21
 10
31.7016
 20
15.4760
 30
0.0000
 11
32.3688
 21
15.4760
 31
0.0000
  0
LINE
  8
21
 10
30.5683
 20
15.5520
 30
0.0000
 11
31.2121
 21
15.5520
 31
0.0000
  0
LINE
  8
21
 10
31.6735
 20
15.5520
 30
0.0000
 11
32.3118
 21
15.5520
 31
0.0000
  0
LINE
  8
21
 10
30.6225
 20
15.6280
 30
0.0000
 11
31.2403
 21
15.6280
 31
0.0000
  0
LINE
  8
21
 10
31.6453
 20
15.6280
 30
0.0000
 11
32.2548
 21
15.6280
 31
0.0000
  0
LINE
  8
21
 10
30.6478
 20
15.7040
 30
0.0000
 11
31.2684
 21
15.7040
 31
0.0000
  0
LINE
  8
21
 10
31.6172
 20
15.7040
 30
0.0000
 11
32.2344
 21
15.7040
 31
0.0000
  0
LINE
  8
21
 10
30.6078
 20
15.7800
 30
0.0000
 11
31.2965
 21
15.7800
 31
0.0000
  0
LINE
  8
21
 10
31.5890
 20
15.7800
 30
0.0000
 11
32.2741
 21
15.7800
 31
0.0000
  0
LINE
  8
21
 10
30.5778
 20
15.8560
 30
0.0000
 11
31.2705
 21
15.8560
 31
0.0000
  0
LINE
  8
21
 10
31.6051
 20
15.8560
 30
0.0000
 11
32.3021
 21
15.8560
 31
0.0000
  0
LINE
  8
21
 10
30.5308
 20
15.9320
 30
0.0000
 11
31.1805
 21
15.9320
 31
0.0000
  0
LINE
  8
21
 10
31.7024
 20
15.9320
 30
0.0000
 11
32.3548
 21
15.9320
 31
0.0000
  0
LINE
  8
21
 10
30.2078
 20
16.0080
 30
0.0000
 11
31.1343
 21
16.0080
 31
0.0000
  0
LINE
  8
21
 10
31.7513
 20
16.0080
 30
0.0000
 11
32.6778
 21
16.0080
 31
0.0000
  0
LINE
  8
21
 10
30.2078
 20
16.0840
 30
0.0000
 11
31.1078
 21
16.0840
 31
0.0000
  0
LINE
  8
21
 10
31.7733
 20
16.0840
 30
0.0000
 11
32.6778
 21
16.0840
 31
0.0000
  0
LINE
  8
21
 10
30.2078
 20
16.1600
 30
0.0000
 11
31.0978
 21
16.1600
 31
0.0000
  0
LINE
  8
21
 10
31.7778
 20
16.1600
 30
0.0000
 11
32.6778
 21
16.1600
 31
0.0000
  0
LINE
  8
21
 10
30.2078
 20
16.2360
 30
0.0000
 11
31.1140
 21
16.2360
 31
0.0000
  0
LINE
  8
21
 10
31.7678
 20
16.2360
 30
0.0000
 11
32.6778
 21
16.2360
 31
0.0000
  0
LINE
  8
21
 10
30.2348
 20
16.3120
 30
0.0000
 11
31.1409
 21
16.3120
 31
0.0000
  0
LINE
  8
21
 10
31.7347
 20
16.3120
 30
0.0000
 11
32.6500
 21
16.3120
 31
0.0000
  0
LINE
  8
21
 10
30.5581
 20
16.3880
 30
0.0000
 11
31.1987
 21
16.3880
 31
0.0000
  0
LINE
  8
21
 10
31.6772
 20
16.3880
 30
0.0000
 11
32.3178
 21
16.3880
 31
0.0000
  0
LINE
  8
21
 10
30.5861
 20
16.4640
 30
0.0000
 11
31.3177
 21
16.4640
 31
0.0000
  0
LINE
  8
21
 10
31.5579
 20
16.4640
 30
0.0000
 11
32.2895
 21
16.4640
 31
0.0000
  0
LINE
  8
21
 10
30.6178
 20
16.5400
 30
0.0000
 11
32.2615
 21
16.5400
 31
0.0000
  0
LINE
  8
21
 10
30.6564
 20
16.6160
 30
0.0000
 11
32.2192
 21
16.6160
 31
0.0000
  0
LINE
  8
21
 10
30.6063
 20
16.6920
 30
0.0000
 11
32.2718
 21
16.6920
 31
0.0000
  0
LINE
  8
21
 10
30.5539
 20
16.7680
 30
0.0000
 11
32.3269
 21
16.7680
 31
0.0000
  0
LINE
  8
21
 10
30.5015
 20
16.8440
 30
0.0000
 11
32.3819
 21
16.8440
 31
0.0000
  0
LINE
  8
21
 10
30.4704
 20
16.9200
 30
0.0000
 11
32.4146
 21
16.9200
 31
0.0000
  0
LINE
  8
21
 10
30.5464
 20
16.9960
 30
0.0000
 11
30.8683
 21
16.9960
 31
0.0000
  0
LINE
  8
21
 10
31.1051
 20
16.9960
 30
0.0000
 11
31.7792
 21
16.9960
 31
0.0000
  0
LINE
  8
21
 10
32.0073
 20
16.9960
 30
0.0000
 11
32.3351
 21
16.9960
 31
0.0000
  0
LINE
  8
21
 10
30.6224
 20
17.0720
 30
0.0000
 11
30.7581
 21
17.0720
 31
0.0000
  0
LINE
  8
21
 10
31.2255
 20
17.0720
 30
0.0000
 11
31.6502
 21
17.0720
 31
0.0000
  0
LINE
  8
21
 10
32.1175
 20
17.0720
 30
0.0000
 11
32.2557
 21
17.0720
 31
0.0000
  0
LINE
  8
21
 10
31.2385
 20
17.1480
 30
0.0000
 11
31.6371
 21
17.1480
 31
0.0000
  0
LINE
  8
21
 10
31.2515
 20
17.2240
 30
0.0000
 11
31.6241
 21
17.2240
 31
0.0000
  0
LINE
  8
21
 10
31.2645
 20
17.3000
 30
0.0000
 11
31.6111
 21
17.3000
 31
0.0000
  0
LINE
  8
21
 10
31.2776
 20
17.3760
 30
0.0000
 11
31.5980
 21
17.3760
 31
0.0000
  0
LINE
  8
21
 10
16.4224
 20
14.8104
 30
0.0000
 11
16.4224
 21
13.1896
 31
0.0000
  0
LINE
  8
21
 10
13.5776
 20
13.1896
 30
0.0000
 11
13.5776
 21
14.8104
 31
0.0000
  0
LINE
  8
21
 10
13.6724
 20
13.1896
 30
0.0000
 11
13.5776
 21
13.1896
 31
0.0000
  0
LINE
  8
21
 10
16.4224
 20
13.1896
 30
0.0000
 11
16.3276
 21
13.1896
 31
0.0000
  0
LINE
  8
21
 10
16.3276
 20
14.8104
 30
0.0000
 11
16.4224
 21
14.8104
 31
0.0000
  0
LINE
  8
21
 10
13.5776
 20
14.8104
 30
0.0000
 11
13.6724
 21
14.8104
 31
0.0000
  0
CIRCLE
  8
21
 10
16.0541
 20
14.3937
 30
0.0000
 40
0.0359
  0
LINE
  8
51
 10
6.9320
 20
12.8560
 30
0.0000
 11
6.0680
 21
12.8560
 31
0.0000
  0
LINE
  8
51
 10
6.0680
 20
12.1440
 30
0.0000
 11
6.9320
 21
12.1440
 31
0.0000
  0
INSERT
  8
51
  2
RECT
 10
5.8650
 20
12.5000
 30
0.0000
 41
0.4064
 42
0.8636
 43
1.0000
 50
180.0000
  0
INSERT
  8
51
  2
RECT
 10
7.1350
 20
12.5000
 30
0.0000
 41
0.4064
 42
0.8636
 43
1.0000
 50
180.0000
  0
LINE
  8
51
 10
6.9320
 20
10.3560
 30
0.0000
 11
6.0680
 21
10.3560
 31
0.0000
  0
LINE
  8
51
 10
6.0680
 20
9.6440
 30
0.0000
 11
6.9320
 21
9.6440
 31
0.0000
  0
INSERT
  8
51
  2
RECT
 10
5.8650
 20
10.0000
 30
0.0000
 41
0.4064
 42
0.8636
 43
1.0000
 50
180.0000
  0
INSERT
  8
51
  2
RECT
 10
7.1350
 20
10.0000
 30
0.0000
 41
0.4064
 42
0.8636
 43
1.0000
 50
180.0000
  0
LINE
  8
51
 10
6.9320
 20
7.8560
 30
0.0000
 11
6.0680
 21
7.8560
 31
0.0000
  0
LINE
  8
51
 10
6.0680
 20
7.1440
 30
0.0000
 11
6.9320
 21
7.1440
 31
0.0000
  0
INSERT
  8
51
  2
RECT
 10
5.8650
 20
7.5000
 30
0.0000
 41
0.4064
 42
0.8636
 43
1.0000
 50
180.0000
  0
INSERT
  8
51
  2
RECT
 10
7.1350
 20
7.5000
 30
0.0000
 41
0.4064
 42
0.8636
 43
1.0000
 50
180.0000
  0
LINE
  8
51
 10
6.9320
 20
5.3560
 30
0.0000
 11
6.0680
 21
5.3560
 31
0.0000
  0
LINE
  8
51
 10
6.0680
 20
4.6440
 30
0.0000
 11
6.9320
 21
4.6440
 31
0.0000
  0
INSERT
  8
51
  2
RECT
 10
5.8650
 20
5.0000
 30
0.0000
 41
0.4064
 42
0.8636
 43
1.0000
 50
180.0000
  0
INSERT
  8
51
  2
RECT
 10
7.1350
 20
5.0000
 30
0.0000
 41
0.4064
 42
0.8636
 43
1.0000
 50
180.0000
  0
LINE
  8
51
 10
10.4320
 20
5.3560
 30
0.0000
 11
9.5680
 21
5.3560
 31
0.0000
  0
LINE
  8
51
 10
9.5680
 20
4.6440
 30
0.0000
 11
10.4320
 21
4.6440
 31
0.0000
  0
INSERT
  8
51
  2
RECT
 10
9.3650
 20
5.0000
 30
0.0000
 41
0.4064
 42
0.8636
 43
1.0000
 50
180.0000
  0
INSERT
  8
51
  2
RECT
 10
10.6350
 20
5.0000
 30
0.0000
 41
0.4064
 42
0.8636
 43
1.0000
 50
180.0000
  0
LINE
  8
51
 10
6.9320
 20
15.3560
 30
0.0000
 11
6.0680
 21
15.3560
 31
0.0000
  0
LINE
  8
51
 10
6.0680
 20
14.6440
 30
0.0000
 11
6.9320
 21
14.6440
 31
0.0000
  0
INSERT
  8
51
  2
RECT
 10
5.8650
 20
15.0000
 30
0.0000
 41
0.4064
 42
0.8636
 43
1.0000
 50
180.0000
  0
INSERT
  8
51
  2
RECT
 10
7.1350
 20
15.0000
 30
0.0000
 41
0.4064
 42
0.8636
 43
1.0000
 50
180.0000
  0
LINE
  8
51
 10
25.5680
 20
12.6440
 30
0.0000
 11
26.4320
 21
12.6440
 31
0.0000
  0
LINE
  8
51
 10
26.4320
 20
13.3560
 30
0.0000
 11
25.5680
 21
13.3560
 31
0.0000
  0
INSERT
  8
51
  2
RECT
 10
26.6350
 20
13.0000
 30
0.0000
 41
0.4064
 42
0.8636
 43
1.0000
 50
0.0000
  0
INSERT
  8
51
  2
RECT
 10
25.3650
 20
13.0000
 30
0.0000
 41
0.4064
 42
0.8636
 43
1.0000
 50
0.0000
  0
LINE
  8
51
 10
25.5680
 20
10.1440
 30
0.0000
 11
26.4320
 21
10.1440
 31
0.0000
  0
LINE
  8
51
 10
26.4320
 20
10.8560
 30
0.0000
 11
25.5680
 21
10.8560
 31
0.0000
  0
INSERT
  8
51
  2
RECT
 10
26.6350
 20
10.5000
 30
0.0000
 41
0.4064
 42
0.8636
 43
1.0000
 50
0.0000
  0
INSERT
  8
51
  2
RECT
 10
25.3650
 20
10.5000
 30
0.0000
 41
0.4064
 42
0.8636
 43
1.0000
 50
0.0000
  0
LINE
  8
51
 10
25.5680
 20
7.6440
 30
0.0000
 11
26.4320
 21
7.6440
 31
0.0000
  0
LINE
  8
51
 10
26.4320
 20
8.3560
 30
0.0000
 11
25.5680
 21
8.3560
 31
0.0000
  0
INSERT
  8
51
  2
RECT
 10
26.6350
 20
8.0000
 30
0.0000
 41
0.4064
 42
0.8636
 43
1.0000
 50
0.0000
  0
INSERT
  8
51
  2
RECT
 10
25.3650
 20
8.0000
 30
0.0000
 41
0.4064
 42
0.8636
 43
1.0000
 50
0.0000
  0
LINE
  8
51
 10
25.5680
 20
5.1440
 30
0.0000
 11
26.4320
 21
5.1440
 31
0.0000
  0
LINE
  8
51
 10
26.4320
 20
5.8560
 30
0.0000
 11
25.5680
 21
5.8560
 31
0.0000
  0
INSERT
  8
51
  2
RECT
 10
26.6350
 20
5.5000
 30
0.0000
 41
0.4064
 42
0.8636
 43
1.0000
 50
0.0000
  0
INSERT
  8
51
  2
RECT
 10
25.3650
 20
5.5000
 30
0.0000
 41
0.4064
 42
0.8636
 43
1.0000
 50
0.0000
  0
LINE
  8
51
 10
18.0480
 20
6.0160
 30
0.0000
 11
18.0480
 21
7.5400
 31
0.0000
  0
LINE
  8
51
 10
18.0480
 20
7.5400
 30
0.0000
 11
17.5400
 21
8.0480
 31
0.0000
  0
LINE
  8
51
 10
17.5400
 20
1.9520
 30
0.0000
 11
18.0480
 21
2.4600
 31
0.0000
  0
LINE
  8
51
 10
18.0480
 20
2.4600
 30
0.0000
 11
18.0480
 21
3.9840
 31
0.0000
  0
LINE
  8
51
 10
12.4600
 20
8.0480
 30
0.0000
 11
11.9520
 21
7.5400
 31
0.0000
  0
LINE
  8
51
 10
11.9520
 20
7.5400
 30
0.0000
 11
11.9520
 21
6.0160
 31
0.0000
  0
LINE
  8
51
 10
12.4600
 20
1.9520
 30
0.0000
 11
11.9520
 21
2.4600
 31
0.0000
  0
LINE
  8
51
 10
11.9520
 20
2.4600
 30
0.0000
 11
11.9520
 21
3.9840
 31
0.0000
  0
LINE
  8
51
 10
17.5400
 20
1.9520
 30
0.0000
 11
17.1590
 21
1.9520
 31
0.0000
  0
LINE
  8
51
 10
12.4600
 20
1.9520
 30
0.0000
 11
12.8410
 21
1.9520
 31
0.0000
  0
LINE
  8
51
 10
12.4600
 20
8.0480
 30
0.0000
 11
12.8410
 21
8.0480
 31
0.0000
  0
LINE
  8
51
 10
17.5400
 20
8.0480
 30
0.0000
 11
17.1590
 21
8.0480
 31
0.0000
  0
LINE
  8
21
 10
17.1590
 20
8.0480
 30
0.0000
 11
12.8410
 21
8.0480
 31
0.0000
  0
LINE
  8
21
 10
12.8410
 20
1.9520
 30
0.0000
 11
17.1590
 21
1.9520
 31
0.0000
  0
LINE
  8
21
 10
18.0480
 20
5.9980
 30
0.0000
 11
18.0480
 21
3.9840
 31
0.0000
  0
LINE
  8
21
 10
11.9520
 20
6.0280
 30
0.0000
 11
11.9520
 21
3.9840
 31
0.0000
  0
LINE
  8
51
 10
12.4600
 20
6.2700
 30
0.0000
 11
12.4600
 21
5.5080
 31
0.0000
  0
LINE
  8
51
 10
12.4600
 20
4.4920
 30
0.0000
 11
12.4600
 21
3.7300
 31
0.0000
  0
LINE
  8
51
 10
12.4600
 20
5.5080
 30
0.0000
 11
12.8410
 21
4.6190
 31
0.0000
  0
CIRCLE
  8
21
 10
15.0000
 20
5.0000
 30
0.0000
 40
1.7780
  0
INSERT
  8
17
  2
ROUNDP
 10
11.7488
 20
7.2606
 30
0.0000
 41
1.8796
 42
1.8796
 43
1.0000
 50
0.0000
  0
INSERT
  8
17
  2
ROUNDP
 10
11.7488
 20
7.2606
 30
0.0000
 41
1.8796
 42
1.8796
 43
1.0000
 50
0.0000
  0
INSERT
  8
17
  2
ROUNDP
 10
18.2512
 20
7.2606
 30
0.0000
 41
1.8796
 42
1.8796
 43
1.0000
 50
0.0000
  0
INSERT
  8
17
  2
ROUNDP
 10
18.2512
 20
7.2606
 30
0.0000
 41
1.8796
 42
1.8796
 43
1.0000
 50
0.0000
  0
INSERT
  8
17
  2
ROUNDP
 10
11.7488
 20
2.7394
 30
0.0000
 41
1.8796
 42
1.8796
 43
1.0000
 50
0.0000
  0
INSERT
  8
17
  2
ROUNDP
 10
11.7488
 20
2.7394
 30
0.0000
 41
1.8796
 42
1.8796
 43
1.0000
 50
0.0000
  0
INSERT
  8
17
  2
ROUNDP
 10
18.2512
 20
2.7394
 30
0.0000
 41
1.8796
 42
1.8796
 43
1.0000
 50
0.0000
  0
INSERT
  8
17
  2
ROUNDP
 10
18.2512
 20
2.7394
 30
0.0000
 41
1.8796
 42
1.8796
 43
1.0000
 50
0.0000
  0
ENDSEC
  0
EOF
