G04 #@! TF.GenerationSoftware,KiCad,Pcbnew,(5.0.0)*
G04 #@! TF.CreationDate,2018-08-29T17:32:18+01:00*
G04 #@! TF.ProjectId,Week5LetsTryANewIC,5765656B354C657473547279414E6577,rev?*
G04 #@! TF.SameCoordinates,Original*
G04 #@! TF.FileFunction,Legend,Top*
G04 #@! TF.FilePolarity,Positive*
%FSLAX46Y46*%
G04 Gerber Fmt 4.6, Leading zero omitted, Abs format (unit mm)*
G04 Created by KiCad (PCBNEW (5.0.0)) date 08/29/18 17:32:18*
%MOMM*%
%LPD*%
G01*
G04 APERTURE LIST*
%ADD10C,0.120000*%
%ADD11C,0.010000*%
%ADD12C,0.150000*%
G04 APERTURE END LIST*
D10*
G04 #@! TO.C,C1*
X157837221Y-78490000D02*
X158162779Y-78490000D01*
X157837221Y-79510000D02*
X158162779Y-79510000D01*
G04 #@! TO.C,C2*
X157837221Y-73510000D02*
X158162779Y-73510000D01*
X157837221Y-72490000D02*
X158162779Y-72490000D01*
G04 #@! TO.C,U1*
X159100000Y-76600000D02*
X159100000Y-77100000D01*
X159100000Y-77100000D02*
X158600000Y-77100000D01*
X158600000Y-77100000D02*
X158600000Y-77100000D01*
X157400000Y-77100000D02*
X156900000Y-77100000D01*
X156900000Y-77100000D02*
X156900000Y-76600000D01*
X156900000Y-76600000D02*
X156900000Y-76600000D01*
X156900000Y-75400000D02*
X156900000Y-74900000D01*
X156900000Y-74900000D02*
X157400000Y-74900000D01*
X157400000Y-74900000D02*
X157400000Y-74900000D01*
X159100000Y-75400000D02*
X159100000Y-74900000D01*
X159100000Y-74900000D02*
X159100000Y-74900000D01*
G04 #@! TO.C,J1*
X166670000Y-88650000D02*
X169330000Y-88650000D01*
X166670000Y-68270000D02*
X166670000Y-88650000D01*
X169330000Y-68270000D02*
X169330000Y-88650000D01*
X166670000Y-68270000D02*
X169330000Y-68270000D01*
X166670000Y-67000000D02*
X166670000Y-65670000D01*
X166670000Y-65670000D02*
X168000000Y-65670000D01*
G04 #@! TO.C,R1*
X164510000Y-73837221D02*
X164510000Y-74162779D01*
X163490000Y-73837221D02*
X163490000Y-74162779D01*
G04 #@! TO.C,R2*
X163490000Y-77837221D02*
X163490000Y-78162779D01*
X164510000Y-77837221D02*
X164510000Y-78162779D01*
G04 #@! TO.C,R3*
X164510000Y-69837221D02*
X164510000Y-70162779D01*
X163490000Y-69837221D02*
X163490000Y-70162779D01*
G04 #@! TO.C,R4*
X162510000Y-70162779D02*
X162510000Y-69837221D01*
X161490000Y-70162779D02*
X161490000Y-69837221D01*
G04 #@! TO.C,R5*
X162510000Y-82162779D02*
X162510000Y-81837221D01*
X161490000Y-82162779D02*
X161490000Y-81837221D01*
G04 #@! TO.C,R6*
X164510000Y-81837221D02*
X164510000Y-82162779D01*
X163490000Y-81837221D02*
X163490000Y-82162779D01*
D11*
G04 #@! TO.C,G\002A\002A\002A*
G36*
X154865099Y-63612476D02*
X154853122Y-63655657D01*
X154848250Y-63665000D01*
X154815911Y-63714870D01*
X154799507Y-63728500D01*
X154787498Y-63701791D01*
X154784750Y-63665000D01*
X154805115Y-63612863D01*
X154833492Y-63601500D01*
X154865099Y-63612476D01*
X154865099Y-63612476D01*
G37*
X154865099Y-63612476D02*
X154853122Y-63655657D01*
X154848250Y-63665000D01*
X154815911Y-63714870D01*
X154799507Y-63728500D01*
X154787498Y-63701791D01*
X154784750Y-63665000D01*
X154805115Y-63612863D01*
X154833492Y-63601500D01*
X154865099Y-63612476D01*
G36*
X169701954Y-63606824D02*
X169837277Y-63610291D01*
X169925553Y-63615277D01*
X169955736Y-63620103D01*
X170011863Y-63641686D01*
X170030143Y-63646382D01*
X170066640Y-63667204D01*
X170125842Y-63713854D01*
X170128981Y-63716570D01*
X170156180Y-63741959D01*
X170176202Y-63770236D01*
X170190221Y-63810888D01*
X170199411Y-63873404D01*
X170204943Y-63967272D01*
X170207991Y-64101982D01*
X170209727Y-64287021D01*
X170210300Y-64374395D01*
X170211362Y-64581712D01*
X170210841Y-64735239D01*
X170207696Y-64844685D01*
X170200888Y-64919759D01*
X170189378Y-64970168D01*
X170172126Y-65005621D01*
X170148091Y-65035827D01*
X170138328Y-65046477D01*
X170055684Y-65112752D01*
X169965351Y-65156073D01*
X169904977Y-65164196D01*
X169793216Y-65170887D01*
X169641809Y-65176105D01*
X169462495Y-65179806D01*
X169267015Y-65181951D01*
X169067110Y-65182494D01*
X168874518Y-65181396D01*
X168700981Y-65178613D01*
X168558238Y-65174103D01*
X168458029Y-65167824D01*
X168416844Y-65161641D01*
X168336653Y-65125036D01*
X168256676Y-65069335D01*
X168193647Y-65008928D01*
X168164299Y-64958207D01*
X168165161Y-64945193D01*
X168166946Y-64907683D01*
X168158441Y-64903177D01*
X168153055Y-64873480D01*
X168148480Y-64792702D01*
X168144827Y-64673258D01*
X168142208Y-64527564D01*
X168140735Y-64368035D01*
X168140607Y-64271491D01*
X168532786Y-64271491D01*
X168534500Y-64403822D01*
X168536779Y-64570585D01*
X168540638Y-64685288D01*
X168548320Y-64759365D01*
X168562068Y-64804253D01*
X168584124Y-64831388D01*
X168616731Y-64852204D01*
X168623119Y-64855736D01*
X168689386Y-64874667D01*
X168801845Y-64888816D01*
X168947100Y-64898214D01*
X169111758Y-64902896D01*
X169282424Y-64902893D01*
X169445704Y-64898238D01*
X169588204Y-64888964D01*
X169696530Y-64875105D01*
X169757288Y-64856691D01*
X169762084Y-64852951D01*
X169779178Y-64804367D01*
X169792900Y-64702865D01*
X169802763Y-64558958D01*
X169808281Y-64383164D01*
X169808969Y-64185997D01*
X169804342Y-63977973D01*
X169803524Y-63955831D01*
X169770895Y-63917121D01*
X169678146Y-63887982D01*
X169527984Y-63868777D01*
X169323118Y-63859866D01*
X169093406Y-63860965D01*
X168891620Y-63865434D01*
X168744651Y-63874120D01*
X168643949Y-63895329D01*
X168580962Y-63937364D01*
X168547140Y-64008533D01*
X168533932Y-64117140D01*
X168532786Y-64271491D01*
X168140607Y-64271491D01*
X168140521Y-64207086D01*
X168141678Y-64057133D01*
X168144318Y-63930590D01*
X168148554Y-63839874D01*
X168148800Y-63836625D01*
X168169798Y-63791586D01*
X168218224Y-63724574D01*
X168230724Y-63709625D01*
X168309949Y-63617375D01*
X169106274Y-63606970D01*
X169327196Y-63605020D01*
X169528842Y-63605019D01*
X169701954Y-63606824D01*
X169701954Y-63606824D01*
G37*
X169701954Y-63606824D02*
X169837277Y-63610291D01*
X169925553Y-63615277D01*
X169955736Y-63620103D01*
X170011863Y-63641686D01*
X170030143Y-63646382D01*
X170066640Y-63667204D01*
X170125842Y-63713854D01*
X170128981Y-63716570D01*
X170156180Y-63741959D01*
X170176202Y-63770236D01*
X170190221Y-63810888D01*
X170199411Y-63873404D01*
X170204943Y-63967272D01*
X170207991Y-64101982D01*
X170209727Y-64287021D01*
X170210300Y-64374395D01*
X170211362Y-64581712D01*
X170210841Y-64735239D01*
X170207696Y-64844685D01*
X170200888Y-64919759D01*
X170189378Y-64970168D01*
X170172126Y-65005621D01*
X170148091Y-65035827D01*
X170138328Y-65046477D01*
X170055684Y-65112752D01*
X169965351Y-65156073D01*
X169904977Y-65164196D01*
X169793216Y-65170887D01*
X169641809Y-65176105D01*
X169462495Y-65179806D01*
X169267015Y-65181951D01*
X169067110Y-65182494D01*
X168874518Y-65181396D01*
X168700981Y-65178613D01*
X168558238Y-65174103D01*
X168458029Y-65167824D01*
X168416844Y-65161641D01*
X168336653Y-65125036D01*
X168256676Y-65069335D01*
X168193647Y-65008928D01*
X168164299Y-64958207D01*
X168165161Y-64945193D01*
X168166946Y-64907683D01*
X168158441Y-64903177D01*
X168153055Y-64873480D01*
X168148480Y-64792702D01*
X168144827Y-64673258D01*
X168142208Y-64527564D01*
X168140735Y-64368035D01*
X168140607Y-64271491D01*
X168532786Y-64271491D01*
X168534500Y-64403822D01*
X168536779Y-64570585D01*
X168540638Y-64685288D01*
X168548320Y-64759365D01*
X168562068Y-64804253D01*
X168584124Y-64831388D01*
X168616731Y-64852204D01*
X168623119Y-64855736D01*
X168689386Y-64874667D01*
X168801845Y-64888816D01*
X168947100Y-64898214D01*
X169111758Y-64902896D01*
X169282424Y-64902893D01*
X169445704Y-64898238D01*
X169588204Y-64888964D01*
X169696530Y-64875105D01*
X169757288Y-64856691D01*
X169762084Y-64852951D01*
X169779178Y-64804367D01*
X169792900Y-64702865D01*
X169802763Y-64558958D01*
X169808281Y-64383164D01*
X169808969Y-64185997D01*
X169804342Y-63977973D01*
X169803524Y-63955831D01*
X169770895Y-63917121D01*
X169678146Y-63887982D01*
X169527984Y-63868777D01*
X169323118Y-63859866D01*
X169093406Y-63860965D01*
X168891620Y-63865434D01*
X168744651Y-63874120D01*
X168643949Y-63895329D01*
X168580962Y-63937364D01*
X168547140Y-64008533D01*
X168533932Y-64117140D01*
X168532786Y-64271491D01*
X168140607Y-64271491D01*
X168140521Y-64207086D01*
X168141678Y-64057133D01*
X168144318Y-63930590D01*
X168148554Y-63839874D01*
X168148800Y-63836625D01*
X168169798Y-63791586D01*
X168218224Y-63724574D01*
X168230724Y-63709625D01*
X168309949Y-63617375D01*
X169106274Y-63606970D01*
X169327196Y-63605020D01*
X169528842Y-63605019D01*
X169701954Y-63606824D01*
G36*
X167373581Y-63609951D02*
X167484516Y-63614380D01*
X167560887Y-63621550D01*
X167609922Y-63631786D01*
X167638852Y-63645414D01*
X167644035Y-63649609D01*
X167693062Y-63678779D01*
X167717097Y-63676069D01*
X167741053Y-63688065D01*
X167774437Y-63743871D01*
X167783057Y-63763312D01*
X167801871Y-63830830D01*
X167815427Y-63934896D01*
X167824266Y-64083069D01*
X167828927Y-64282906D01*
X167829909Y-64418710D01*
X167830203Y-64617549D01*
X167828860Y-64763079D01*
X167824690Y-64865489D01*
X167816502Y-64934969D01*
X167803106Y-64981707D01*
X167783312Y-65015894D01*
X167756489Y-65047113D01*
X167672425Y-65113727D01*
X167580565Y-65157087D01*
X167519391Y-65165664D01*
X167405721Y-65173198D01*
X167250554Y-65179290D01*
X167064893Y-65183543D01*
X166859736Y-65185558D01*
X166791698Y-65185665D01*
X166553046Y-65184752D01*
X166369099Y-65181898D01*
X166231076Y-65176541D01*
X166130198Y-65168119D01*
X166057684Y-65156073D01*
X166004754Y-65139840D01*
X165992500Y-65134583D01*
X165915311Y-65102919D01*
X165864139Y-65088436D01*
X165858510Y-65088474D01*
X165827699Y-65067763D01*
X165795471Y-65021996D01*
X165779003Y-64966881D01*
X165767033Y-64864994D01*
X165759264Y-64711593D01*
X165756588Y-64566417D01*
X166151146Y-64566417D01*
X166156143Y-64694352D01*
X166174198Y-64785524D01*
X166213273Y-64845896D01*
X166281327Y-64881433D01*
X166386319Y-64898098D01*
X166536209Y-64901855D01*
X166738957Y-64898669D01*
X166820332Y-64897083D01*
X167025579Y-64892147D01*
X167175981Y-64885454D01*
X167280184Y-64876135D01*
X167346838Y-64863323D01*
X167384591Y-64846151D01*
X167391832Y-64839750D01*
X167409891Y-64789664D01*
X167423826Y-64691864D01*
X167433411Y-64561803D01*
X167438418Y-64414934D01*
X167438620Y-64266711D01*
X167433789Y-64132586D01*
X167423698Y-64028014D01*
X167408121Y-63968448D01*
X167404719Y-63963701D01*
X167356392Y-63922216D01*
X167294073Y-63892563D01*
X167207149Y-63872911D01*
X167085006Y-63861433D01*
X166917030Y-63856300D01*
X166776744Y-63855500D01*
X166594324Y-63856267D01*
X166463834Y-63859507D01*
X166373711Y-63866623D01*
X166312393Y-63879019D01*
X166268318Y-63898099D01*
X166234906Y-63921304D01*
X166200637Y-63950367D01*
X166177296Y-63981879D01*
X166162784Y-64027738D01*
X166155005Y-64099842D01*
X166151860Y-64210088D01*
X166151252Y-64370375D01*
X166151250Y-64395754D01*
X166151146Y-64566417D01*
X165756588Y-64566417D01*
X165755399Y-64501937D01*
X165754836Y-64372259D01*
X165754375Y-63793643D01*
X165930389Y-63617375D01*
X166761090Y-63609852D01*
X167019098Y-63608013D01*
X167220852Y-63607937D01*
X167373581Y-63609951D01*
X167373581Y-63609951D01*
G37*
X167373581Y-63609951D02*
X167484516Y-63614380D01*
X167560887Y-63621550D01*
X167609922Y-63631786D01*
X167638852Y-63645414D01*
X167644035Y-63649609D01*
X167693062Y-63678779D01*
X167717097Y-63676069D01*
X167741053Y-63688065D01*
X167774437Y-63743871D01*
X167783057Y-63763312D01*
X167801871Y-63830830D01*
X167815427Y-63934896D01*
X167824266Y-64083069D01*
X167828927Y-64282906D01*
X167829909Y-64418710D01*
X167830203Y-64617549D01*
X167828860Y-64763079D01*
X167824690Y-64865489D01*
X167816502Y-64934969D01*
X167803106Y-64981707D01*
X167783312Y-65015894D01*
X167756489Y-65047113D01*
X167672425Y-65113727D01*
X167580565Y-65157087D01*
X167519391Y-65165664D01*
X167405721Y-65173198D01*
X167250554Y-65179290D01*
X167064893Y-65183543D01*
X166859736Y-65185558D01*
X166791698Y-65185665D01*
X166553046Y-65184752D01*
X166369099Y-65181898D01*
X166231076Y-65176541D01*
X166130198Y-65168119D01*
X166057684Y-65156073D01*
X166004754Y-65139840D01*
X165992500Y-65134583D01*
X165915311Y-65102919D01*
X165864139Y-65088436D01*
X165858510Y-65088474D01*
X165827699Y-65067763D01*
X165795471Y-65021996D01*
X165779003Y-64966881D01*
X165767033Y-64864994D01*
X165759264Y-64711593D01*
X165756588Y-64566417D01*
X166151146Y-64566417D01*
X166156143Y-64694352D01*
X166174198Y-64785524D01*
X166213273Y-64845896D01*
X166281327Y-64881433D01*
X166386319Y-64898098D01*
X166536209Y-64901855D01*
X166738957Y-64898669D01*
X166820332Y-64897083D01*
X167025579Y-64892147D01*
X167175981Y-64885454D01*
X167280184Y-64876135D01*
X167346838Y-64863323D01*
X167384591Y-64846151D01*
X167391832Y-64839750D01*
X167409891Y-64789664D01*
X167423826Y-64691864D01*
X167433411Y-64561803D01*
X167438418Y-64414934D01*
X167438620Y-64266711D01*
X167433789Y-64132586D01*
X167423698Y-64028014D01*
X167408121Y-63968448D01*
X167404719Y-63963701D01*
X167356392Y-63922216D01*
X167294073Y-63892563D01*
X167207149Y-63872911D01*
X167085006Y-63861433D01*
X166917030Y-63856300D01*
X166776744Y-63855500D01*
X166594324Y-63856267D01*
X166463834Y-63859507D01*
X166373711Y-63866623D01*
X166312393Y-63879019D01*
X166268318Y-63898099D01*
X166234906Y-63921304D01*
X166200637Y-63950367D01*
X166177296Y-63981879D01*
X166162784Y-64027738D01*
X166155005Y-64099842D01*
X166151860Y-64210088D01*
X166151252Y-64370375D01*
X166151250Y-64395754D01*
X166151146Y-64566417D01*
X165756588Y-64566417D01*
X165755399Y-64501937D01*
X165754836Y-64372259D01*
X165754375Y-63793643D01*
X165930389Y-63617375D01*
X166761090Y-63609852D01*
X167019098Y-63608013D01*
X167220852Y-63607937D01*
X167373581Y-63609951D01*
G36*
X163706500Y-63950750D02*
X163706389Y-64113689D01*
X163707004Y-64224845D01*
X163709764Y-64295930D01*
X163716087Y-64338656D01*
X163727391Y-64364735D01*
X163745097Y-64385881D01*
X163761308Y-64403187D01*
X163786346Y-64423582D01*
X163825246Y-64438353D01*
X163887486Y-64448375D01*
X163982544Y-64454526D01*
X164119899Y-64457682D01*
X164309028Y-64458719D01*
X164362295Y-64458750D01*
X164913000Y-64458750D01*
X164913000Y-63601500D01*
X165294000Y-63601500D01*
X165294000Y-64458750D01*
X165389250Y-64458750D01*
X165447820Y-64462891D01*
X165475561Y-64486805D01*
X165483961Y-64547723D01*
X165484500Y-64601625D01*
X165481697Y-64689495D01*
X165465753Y-64731114D01*
X165425360Y-64743706D01*
X165390700Y-64744500D01*
X165340948Y-64746879D01*
X165312174Y-64763412D01*
X165297595Y-64808189D01*
X165290425Y-64895302D01*
X165287513Y-64958812D01*
X165278125Y-65173125D01*
X165095562Y-65182646D01*
X164913000Y-65192168D01*
X164913000Y-64744500D01*
X164276980Y-64744500D01*
X164007860Y-64743689D01*
X163795468Y-64737999D01*
X163633031Y-64722542D01*
X163513775Y-64692431D01*
X163430929Y-64642779D01*
X163377719Y-64568699D01*
X163347373Y-64465303D01*
X163333118Y-64327704D01*
X163328182Y-64151015D01*
X163327213Y-64059139D01*
X163322861Y-63601500D01*
X163706500Y-63601500D01*
X163706500Y-63950750D01*
X163706500Y-63950750D01*
G37*
X163706500Y-63950750D02*
X163706389Y-64113689D01*
X163707004Y-64224845D01*
X163709764Y-64295930D01*
X163716087Y-64338656D01*
X163727391Y-64364735D01*
X163745097Y-64385881D01*
X163761308Y-64403187D01*
X163786346Y-64423582D01*
X163825246Y-64438353D01*
X163887486Y-64448375D01*
X163982544Y-64454526D01*
X164119899Y-64457682D01*
X164309028Y-64458719D01*
X164362295Y-64458750D01*
X164913000Y-64458750D01*
X164913000Y-63601500D01*
X165294000Y-63601500D01*
X165294000Y-64458750D01*
X165389250Y-64458750D01*
X165447820Y-64462891D01*
X165475561Y-64486805D01*
X165483961Y-64547723D01*
X165484500Y-64601625D01*
X165481697Y-64689495D01*
X165465753Y-64731114D01*
X165425360Y-64743706D01*
X165390700Y-64744500D01*
X165340948Y-64746879D01*
X165312174Y-64763412D01*
X165297595Y-64808189D01*
X165290425Y-64895302D01*
X165287513Y-64958812D01*
X165278125Y-65173125D01*
X165095562Y-65182646D01*
X164913000Y-65192168D01*
X164913000Y-64744500D01*
X164276980Y-64744500D01*
X164007860Y-64743689D01*
X163795468Y-64737999D01*
X163633031Y-64722542D01*
X163513775Y-64692431D01*
X163430929Y-64642779D01*
X163377719Y-64568699D01*
X163347373Y-64465303D01*
X163333118Y-64327704D01*
X163328182Y-64151015D01*
X163327213Y-64059139D01*
X163322861Y-63601500D01*
X163706500Y-63601500D01*
X163706500Y-63950750D01*
G36*
X162284743Y-63604856D02*
X162502793Y-63608262D01*
X162674187Y-63613765D01*
X162794020Y-63621184D01*
X162857390Y-63630337D01*
X162866069Y-63634778D01*
X162901433Y-63653769D01*
X162910700Y-63650391D01*
X162947690Y-63659665D01*
X162995819Y-63700772D01*
X163015412Y-63726933D01*
X163030216Y-63762061D01*
X163040893Y-63814674D01*
X163048104Y-63893293D01*
X163052513Y-64006438D01*
X163054782Y-64162629D01*
X163055573Y-64370384D01*
X163055625Y-64469961D01*
X163055625Y-65173125D01*
X162857187Y-65182577D01*
X162658750Y-65192030D01*
X162658750Y-64651749D01*
X161356936Y-64633375D01*
X161356968Y-64911187D01*
X161357000Y-65189000D01*
X160942105Y-65189000D01*
X160945545Y-64538535D01*
X160946898Y-64427000D01*
X161352739Y-64427000D01*
X162658750Y-64427000D01*
X162658750Y-64195931D01*
X162657271Y-64080420D01*
X162647491Y-63994060D01*
X162621397Y-63932813D01*
X162570974Y-63892641D01*
X162488207Y-63869504D01*
X162365083Y-63859366D01*
X162193587Y-63858186D01*
X161994820Y-63861380D01*
X161788416Y-63866397D01*
X161636823Y-63873121D01*
X161531354Y-63882422D01*
X161463325Y-63895170D01*
X161424052Y-63912233D01*
X161415534Y-63919345D01*
X161383242Y-63988034D01*
X161364428Y-64116696D01*
X161360194Y-64197157D01*
X161352739Y-64427000D01*
X160946898Y-64427000D01*
X160948030Y-64333826D01*
X160952911Y-64155838D01*
X160959748Y-64013457D01*
X160968097Y-63915567D01*
X160977515Y-63871053D01*
X160978885Y-63869591D01*
X160995570Y-63832835D01*
X160991875Y-63823749D01*
X160997279Y-63785038D01*
X161007750Y-63776124D01*
X161027589Y-63739645D01*
X161023809Y-63728798D01*
X161037531Y-63698469D01*
X161092982Y-63659158D01*
X161105105Y-63652833D01*
X161146225Y-63637382D01*
X161205198Y-63625424D01*
X161289677Y-63616551D01*
X161407315Y-63610352D01*
X161565767Y-63606421D01*
X161772685Y-63604348D01*
X162024939Y-63603727D01*
X162284743Y-63604856D01*
X162284743Y-63604856D01*
G37*
X162284743Y-63604856D02*
X162502793Y-63608262D01*
X162674187Y-63613765D01*
X162794020Y-63621184D01*
X162857390Y-63630337D01*
X162866069Y-63634778D01*
X162901433Y-63653769D01*
X162910700Y-63650391D01*
X162947690Y-63659665D01*
X162995819Y-63700772D01*
X163015412Y-63726933D01*
X163030216Y-63762061D01*
X163040893Y-63814674D01*
X163048104Y-63893293D01*
X163052513Y-64006438D01*
X163054782Y-64162629D01*
X163055573Y-64370384D01*
X163055625Y-64469961D01*
X163055625Y-65173125D01*
X162857187Y-65182577D01*
X162658750Y-65192030D01*
X162658750Y-64651749D01*
X161356936Y-64633375D01*
X161356968Y-64911187D01*
X161357000Y-65189000D01*
X160942105Y-65189000D01*
X160945545Y-64538535D01*
X160946898Y-64427000D01*
X161352739Y-64427000D01*
X162658750Y-64427000D01*
X162658750Y-64195931D01*
X162657271Y-64080420D01*
X162647491Y-63994060D01*
X162621397Y-63932813D01*
X162570974Y-63892641D01*
X162488207Y-63869504D01*
X162365083Y-63859366D01*
X162193587Y-63858186D01*
X161994820Y-63861380D01*
X161788416Y-63866397D01*
X161636823Y-63873121D01*
X161531354Y-63882422D01*
X161463325Y-63895170D01*
X161424052Y-63912233D01*
X161415534Y-63919345D01*
X161383242Y-63988034D01*
X161364428Y-64116696D01*
X161360194Y-64197157D01*
X161352739Y-64427000D01*
X160946898Y-64427000D01*
X160948030Y-64333826D01*
X160952911Y-64155838D01*
X160959748Y-64013457D01*
X160968097Y-63915567D01*
X160977515Y-63871053D01*
X160978885Y-63869591D01*
X160995570Y-63832835D01*
X160991875Y-63823749D01*
X160997279Y-63785038D01*
X161007750Y-63776124D01*
X161027589Y-63739645D01*
X161023809Y-63728798D01*
X161037531Y-63698469D01*
X161092982Y-63659158D01*
X161105105Y-63652833D01*
X161146225Y-63637382D01*
X161205198Y-63625424D01*
X161289677Y-63616551D01*
X161407315Y-63610352D01*
X161565767Y-63606421D01*
X161772685Y-63604348D01*
X162024939Y-63603727D01*
X162284743Y-63604856D01*
G36*
X158265608Y-63605172D02*
X158335784Y-63621973D01*
X158390587Y-63660575D01*
X158427817Y-63699768D01*
X158479764Y-63764583D01*
X158504613Y-63808787D01*
X158504592Y-63815976D01*
X158518565Y-63843884D01*
X158544280Y-63862161D01*
X158587317Y-63899922D01*
X158594750Y-63918941D01*
X158614546Y-63959075D01*
X158663297Y-64021161D01*
X158674440Y-64033465D01*
X158722792Y-64092402D01*
X158741697Y-64129536D01*
X158740548Y-64133034D01*
X158749460Y-64165965D01*
X158796933Y-64231855D01*
X158872562Y-64317150D01*
X158906766Y-64367571D01*
X158912250Y-64388061D01*
X158933593Y-64428651D01*
X158979040Y-64477603D01*
X159034514Y-64541261D01*
X159098913Y-64633652D01*
X159127566Y-64680961D01*
X159175236Y-64763805D01*
X159208416Y-64820523D01*
X159217144Y-64834722D01*
X159246725Y-64831952D01*
X159292932Y-64805484D01*
X159325392Y-64774321D01*
X159327844Y-64765458D01*
X159325945Y-64702812D01*
X159340461Y-64686932D01*
X159345291Y-64690708D01*
X159369949Y-64677979D01*
X159408354Y-64622146D01*
X159425828Y-64589231D01*
X159484362Y-64489930D01*
X159562086Y-64380812D01*
X159596037Y-64338997D01*
X159657611Y-64263821D01*
X159697516Y-64208884D01*
X159706000Y-64191765D01*
X159725030Y-64156686D01*
X159761562Y-64111775D01*
X159838269Y-64023961D01*
X159875685Y-63971450D01*
X159880032Y-63945265D01*
X159878401Y-63943234D01*
X159887694Y-63913121D01*
X159929361Y-63858541D01*
X159935872Y-63851377D01*
X159945667Y-63839625D01*
X159960000Y-63839625D01*
X159975875Y-63855500D01*
X159991750Y-63839625D01*
X159975875Y-63823750D01*
X159960000Y-63839625D01*
X159945667Y-63839625D01*
X160008192Y-63764608D01*
X160065333Y-63685492D01*
X160102295Y-63636804D01*
X160144742Y-63611193D01*
X160212184Y-63602401D01*
X160319333Y-63604003D01*
X160411793Y-63606407D01*
X160483333Y-63611256D01*
X160536655Y-63625824D01*
X160574459Y-63657385D01*
X160599449Y-63713214D01*
X160614326Y-63800585D01*
X160621791Y-63926773D01*
X160624546Y-64099053D01*
X160625293Y-64324698D01*
X160625624Y-64428688D01*
X160628689Y-65192385D01*
X160293375Y-65173125D01*
X160284690Y-64606115D01*
X160276006Y-64039105D01*
X160182010Y-64145740D01*
X160125017Y-64215226D01*
X160091343Y-64265604D01*
X160087507Y-64276476D01*
X160067080Y-64312374D01*
X160016434Y-64373668D01*
X159992913Y-64399030D01*
X159936639Y-64463661D01*
X159906906Y-64509214D01*
X159905407Y-64517803D01*
X159892410Y-64556430D01*
X159850061Y-64625584D01*
X159790271Y-64707526D01*
X159729812Y-64779274D01*
X159687676Y-64834624D01*
X159674250Y-64866863D01*
X159654279Y-64905345D01*
X159604630Y-64967388D01*
X159587671Y-64985926D01*
X159532232Y-65051649D01*
X159502119Y-65100640D01*
X159500358Y-65108193D01*
X159469973Y-65140812D01*
X159389171Y-65166855D01*
X159270959Y-65182850D01*
X159209454Y-65185835D01*
X159087558Y-65168790D01*
X158992229Y-65117717D01*
X158940103Y-65042076D01*
X158937411Y-65031148D01*
X158913859Y-64982625D01*
X159547250Y-64982625D01*
X159563125Y-64998500D01*
X159579000Y-64982625D01*
X159563125Y-64966750D01*
X159547250Y-64982625D01*
X158913859Y-64982625D01*
X158910774Y-64976271D01*
X158859010Y-64907447D01*
X158856076Y-64904148D01*
X158755882Y-64786492D01*
X158672338Y-64677051D01*
X158612968Y-64586769D01*
X158585297Y-64526593D01*
X158585837Y-64510983D01*
X158584406Y-64494914D01*
X158572690Y-64500385D01*
X158537632Y-64489899D01*
X158497261Y-64437272D01*
X158496347Y-64435552D01*
X158440761Y-64348560D01*
X158380437Y-64273250D01*
X158331031Y-64208401D01*
X158309068Y-64157693D01*
X158309000Y-64155885D01*
X158283479Y-64111052D01*
X158261375Y-64098018D01*
X158244047Y-64098565D01*
X158231427Y-64120838D01*
X158222802Y-64172859D01*
X158217459Y-64262647D01*
X158214686Y-64398223D01*
X158213772Y-64587608D01*
X158213750Y-64634371D01*
X158213750Y-65189000D01*
X158038128Y-65189000D01*
X157919549Y-65181932D01*
X157856958Y-65159801D01*
X157845378Y-65144363D01*
X157840831Y-65100698D01*
X157837656Y-65003348D01*
X157835941Y-64862115D01*
X157835780Y-64686802D01*
X157837261Y-64487211D01*
X157838437Y-64395631D01*
X157842135Y-64151069D01*
X157845399Y-64030125D01*
X158213750Y-64030125D01*
X158229625Y-64046000D01*
X158245500Y-64030125D01*
X158626500Y-64030125D01*
X158642375Y-64046000D01*
X158658250Y-64030125D01*
X158642375Y-64014250D01*
X158626500Y-64030125D01*
X158245500Y-64030125D01*
X158229625Y-64014250D01*
X158213750Y-64030125D01*
X157845399Y-64030125D01*
X157847220Y-63962669D01*
X157856621Y-63823110D01*
X157873266Y-63725071D01*
X157900082Y-63661234D01*
X157939996Y-63624277D01*
X157995938Y-63606880D01*
X158070835Y-63601724D01*
X158156073Y-63601500D01*
X158265608Y-63605172D01*
X158265608Y-63605172D01*
G37*
X158265608Y-63605172D02*
X158335784Y-63621973D01*
X158390587Y-63660575D01*
X158427817Y-63699768D01*
X158479764Y-63764583D01*
X158504613Y-63808787D01*
X158504592Y-63815976D01*
X158518565Y-63843884D01*
X158544280Y-63862161D01*
X158587317Y-63899922D01*
X158594750Y-63918941D01*
X158614546Y-63959075D01*
X158663297Y-64021161D01*
X158674440Y-64033465D01*
X158722792Y-64092402D01*
X158741697Y-64129536D01*
X158740548Y-64133034D01*
X158749460Y-64165965D01*
X158796933Y-64231855D01*
X158872562Y-64317150D01*
X158906766Y-64367571D01*
X158912250Y-64388061D01*
X158933593Y-64428651D01*
X158979040Y-64477603D01*
X159034514Y-64541261D01*
X159098913Y-64633652D01*
X159127566Y-64680961D01*
X159175236Y-64763805D01*
X159208416Y-64820523D01*
X159217144Y-64834722D01*
X159246725Y-64831952D01*
X159292932Y-64805484D01*
X159325392Y-64774321D01*
X159327844Y-64765458D01*
X159325945Y-64702812D01*
X159340461Y-64686932D01*
X159345291Y-64690708D01*
X159369949Y-64677979D01*
X159408354Y-64622146D01*
X159425828Y-64589231D01*
X159484362Y-64489930D01*
X159562086Y-64380812D01*
X159596037Y-64338997D01*
X159657611Y-64263821D01*
X159697516Y-64208884D01*
X159706000Y-64191765D01*
X159725030Y-64156686D01*
X159761562Y-64111775D01*
X159838269Y-64023961D01*
X159875685Y-63971450D01*
X159880032Y-63945265D01*
X159878401Y-63943234D01*
X159887694Y-63913121D01*
X159929361Y-63858541D01*
X159935872Y-63851377D01*
X159945667Y-63839625D01*
X159960000Y-63839625D01*
X159975875Y-63855500D01*
X159991750Y-63839625D01*
X159975875Y-63823750D01*
X159960000Y-63839625D01*
X159945667Y-63839625D01*
X160008192Y-63764608D01*
X160065333Y-63685492D01*
X160102295Y-63636804D01*
X160144742Y-63611193D01*
X160212184Y-63602401D01*
X160319333Y-63604003D01*
X160411793Y-63606407D01*
X160483333Y-63611256D01*
X160536655Y-63625824D01*
X160574459Y-63657385D01*
X160599449Y-63713214D01*
X160614326Y-63800585D01*
X160621791Y-63926773D01*
X160624546Y-64099053D01*
X160625293Y-64324698D01*
X160625624Y-64428688D01*
X160628689Y-65192385D01*
X160293375Y-65173125D01*
X160284690Y-64606115D01*
X160276006Y-64039105D01*
X160182010Y-64145740D01*
X160125017Y-64215226D01*
X160091343Y-64265604D01*
X160087507Y-64276476D01*
X160067080Y-64312374D01*
X160016434Y-64373668D01*
X159992913Y-64399030D01*
X159936639Y-64463661D01*
X159906906Y-64509214D01*
X159905407Y-64517803D01*
X159892410Y-64556430D01*
X159850061Y-64625584D01*
X159790271Y-64707526D01*
X159729812Y-64779274D01*
X159687676Y-64834624D01*
X159674250Y-64866863D01*
X159654279Y-64905345D01*
X159604630Y-64967388D01*
X159587671Y-64985926D01*
X159532232Y-65051649D01*
X159502119Y-65100640D01*
X159500358Y-65108193D01*
X159469973Y-65140812D01*
X159389171Y-65166855D01*
X159270959Y-65182850D01*
X159209454Y-65185835D01*
X159087558Y-65168790D01*
X158992229Y-65117717D01*
X158940103Y-65042076D01*
X158937411Y-65031148D01*
X158913859Y-64982625D01*
X159547250Y-64982625D01*
X159563125Y-64998500D01*
X159579000Y-64982625D01*
X159563125Y-64966750D01*
X159547250Y-64982625D01*
X158913859Y-64982625D01*
X158910774Y-64976271D01*
X158859010Y-64907447D01*
X158856076Y-64904148D01*
X158755882Y-64786492D01*
X158672338Y-64677051D01*
X158612968Y-64586769D01*
X158585297Y-64526593D01*
X158585837Y-64510983D01*
X158584406Y-64494914D01*
X158572690Y-64500385D01*
X158537632Y-64489899D01*
X158497261Y-64437272D01*
X158496347Y-64435552D01*
X158440761Y-64348560D01*
X158380437Y-64273250D01*
X158331031Y-64208401D01*
X158309068Y-64157693D01*
X158309000Y-64155885D01*
X158283479Y-64111052D01*
X158261375Y-64098018D01*
X158244047Y-64098565D01*
X158231427Y-64120838D01*
X158222802Y-64172859D01*
X158217459Y-64262647D01*
X158214686Y-64398223D01*
X158213772Y-64587608D01*
X158213750Y-64634371D01*
X158213750Y-65189000D01*
X158038128Y-65189000D01*
X157919549Y-65181932D01*
X157856958Y-65159801D01*
X157845378Y-65144363D01*
X157840831Y-65100698D01*
X157837656Y-65003348D01*
X157835941Y-64862115D01*
X157835780Y-64686802D01*
X157837261Y-64487211D01*
X157838437Y-64395631D01*
X157842135Y-64151069D01*
X157845399Y-64030125D01*
X158213750Y-64030125D01*
X158229625Y-64046000D01*
X158245500Y-64030125D01*
X158626500Y-64030125D01*
X158642375Y-64046000D01*
X158658250Y-64030125D01*
X158642375Y-64014250D01*
X158626500Y-64030125D01*
X158245500Y-64030125D01*
X158229625Y-64014250D01*
X158213750Y-64030125D01*
X157845399Y-64030125D01*
X157847220Y-63962669D01*
X157856621Y-63823110D01*
X157873266Y-63725071D01*
X157900082Y-63661234D01*
X157939996Y-63624277D01*
X157995938Y-63606880D01*
X158070835Y-63601724D01*
X158156073Y-63601500D01*
X158265608Y-63605172D01*
G36*
X156690081Y-63601922D02*
X156907345Y-63603404D01*
X157074446Y-63606272D01*
X157198049Y-63610848D01*
X157284820Y-63617457D01*
X157341426Y-63626424D01*
X157374532Y-63638072D01*
X157387959Y-63648775D01*
X157432678Y-63680197D01*
X157455347Y-63678651D01*
X157479529Y-63687938D01*
X157483500Y-63710751D01*
X157498979Y-63754208D01*
X157513115Y-63760250D01*
X157525873Y-63788688D01*
X157532275Y-63861430D01*
X157532493Y-63959615D01*
X157526699Y-64064383D01*
X157515065Y-64156874D01*
X157509241Y-64184505D01*
X157470349Y-64249403D01*
X157438183Y-64275211D01*
X157402428Y-64301192D01*
X157418223Y-64323748D01*
X157454230Y-64343080D01*
X157515362Y-64399162D01*
X157554259Y-64474625D01*
X157566266Y-64562553D01*
X157567017Y-64684900D01*
X157558192Y-64818146D01*
X157541471Y-64938769D01*
X157518533Y-65023248D01*
X157514479Y-65031690D01*
X157482450Y-65073884D01*
X157431993Y-65107921D01*
X157356810Y-65134639D01*
X157250600Y-65154877D01*
X157107065Y-65169472D01*
X156919907Y-65179264D01*
X156682825Y-65185091D01*
X156389521Y-65187791D01*
X156340438Y-65187978D01*
X155483250Y-65190769D01*
X155483250Y-64398081D01*
X155896000Y-64398081D01*
X155896000Y-64906824D01*
X156489602Y-64901077D01*
X156723856Y-64897306D01*
X156899607Y-64890892D01*
X157021815Y-64881480D01*
X157095436Y-64868716D01*
X157122692Y-64855843D01*
X157147941Y-64802354D01*
X157166973Y-64711712D01*
X157172027Y-64661365D01*
X157173908Y-64563672D01*
X157157756Y-64504406D01*
X157114711Y-64459157D01*
X157092721Y-64442875D01*
X157055912Y-64419857D01*
X157013360Y-64403457D01*
X156954775Y-64392807D01*
X156869863Y-64387042D01*
X156748333Y-64385294D01*
X156579895Y-64386696D01*
X156449783Y-64388728D01*
X155896000Y-64398081D01*
X155483250Y-64398081D01*
X155483250Y-64176014D01*
X155880125Y-64176014D01*
X156504636Y-64170956D01*
X157129148Y-64165898D01*
X157149075Y-64086502D01*
X157148443Y-63996184D01*
X157127451Y-63944527D01*
X157109007Y-63922650D01*
X157080900Y-63906410D01*
X157034142Y-63894861D01*
X156959749Y-63887056D01*
X156848735Y-63882048D01*
X156692113Y-63878893D01*
X156483012Y-63876661D01*
X155880125Y-63871375D01*
X155880125Y-64176014D01*
X155483250Y-64176014D01*
X155483250Y-63601500D01*
X156415987Y-63601500D01*
X156690081Y-63601922D01*
X156690081Y-63601922D01*
G37*
X156690081Y-63601922D02*
X156907345Y-63603404D01*
X157074446Y-63606272D01*
X157198049Y-63610848D01*
X157284820Y-63617457D01*
X157341426Y-63626424D01*
X157374532Y-63638072D01*
X157387959Y-63648775D01*
X157432678Y-63680197D01*
X157455347Y-63678651D01*
X157479529Y-63687938D01*
X157483500Y-63710751D01*
X157498979Y-63754208D01*
X157513115Y-63760250D01*
X157525873Y-63788688D01*
X157532275Y-63861430D01*
X157532493Y-63959615D01*
X157526699Y-64064383D01*
X157515065Y-64156874D01*
X157509241Y-64184505D01*
X157470349Y-64249403D01*
X157438183Y-64275211D01*
X157402428Y-64301192D01*
X157418223Y-64323748D01*
X157454230Y-64343080D01*
X157515362Y-64399162D01*
X157554259Y-64474625D01*
X157566266Y-64562553D01*
X157567017Y-64684900D01*
X157558192Y-64818146D01*
X157541471Y-64938769D01*
X157518533Y-65023248D01*
X157514479Y-65031690D01*
X157482450Y-65073884D01*
X157431993Y-65107921D01*
X157356810Y-65134639D01*
X157250600Y-65154877D01*
X157107065Y-65169472D01*
X156919907Y-65179264D01*
X156682825Y-65185091D01*
X156389521Y-65187791D01*
X156340438Y-65187978D01*
X155483250Y-65190769D01*
X155483250Y-64398081D01*
X155896000Y-64398081D01*
X155896000Y-64906824D01*
X156489602Y-64901077D01*
X156723856Y-64897306D01*
X156899607Y-64890892D01*
X157021815Y-64881480D01*
X157095436Y-64868716D01*
X157122692Y-64855843D01*
X157147941Y-64802354D01*
X157166973Y-64711712D01*
X157172027Y-64661365D01*
X157173908Y-64563672D01*
X157157756Y-64504406D01*
X157114711Y-64459157D01*
X157092721Y-64442875D01*
X157055912Y-64419857D01*
X157013360Y-64403457D01*
X156954775Y-64392807D01*
X156869863Y-64387042D01*
X156748333Y-64385294D01*
X156579895Y-64386696D01*
X156449783Y-64388728D01*
X155896000Y-64398081D01*
X155483250Y-64398081D01*
X155483250Y-64176014D01*
X155880125Y-64176014D01*
X156504636Y-64170956D01*
X157129148Y-64165898D01*
X157149075Y-64086502D01*
X157148443Y-63996184D01*
X157127451Y-63944527D01*
X157109007Y-63922650D01*
X157080900Y-63906410D01*
X157034142Y-63894861D01*
X156959749Y-63887056D01*
X156848735Y-63882048D01*
X156692113Y-63878893D01*
X156483012Y-63876661D01*
X155880125Y-63871375D01*
X155880125Y-64176014D01*
X155483250Y-64176014D01*
X155483250Y-63601500D01*
X156415987Y-63601500D01*
X156690081Y-63601922D01*
G36*
X166640357Y-66228812D02*
X166633784Y-66429631D01*
X166627547Y-66646258D01*
X166622382Y-66851531D01*
X166619219Y-67006687D01*
X166613501Y-67348000D01*
X166430000Y-67348000D01*
X166330681Y-67346747D01*
X166262262Y-67343505D01*
X166242070Y-67340062D01*
X166239477Y-67307164D01*
X166235676Y-67223396D01*
X166231174Y-67101365D01*
X166226479Y-66953679D01*
X166226403Y-66951125D01*
X166220208Y-66750472D01*
X166212696Y-66521074D01*
X166205021Y-66297636D01*
X166200829Y-66181187D01*
X166186492Y-65792250D01*
X166655777Y-65792250D01*
X166640357Y-66228812D01*
X166640357Y-66228812D01*
G37*
X166640357Y-66228812D02*
X166633784Y-66429631D01*
X166627547Y-66646258D01*
X166622382Y-66851531D01*
X166619219Y-67006687D01*
X166613501Y-67348000D01*
X166430000Y-67348000D01*
X166330681Y-67346747D01*
X166262262Y-67343505D01*
X166242070Y-67340062D01*
X166239477Y-67307164D01*
X166235676Y-67223396D01*
X166231174Y-67101365D01*
X166226479Y-66953679D01*
X166226403Y-66951125D01*
X166220208Y-66750472D01*
X166212696Y-66521074D01*
X166205021Y-66297636D01*
X166200829Y-66181187D01*
X166186492Y-65792250D01*
X166655777Y-65792250D01*
X166640357Y-66228812D01*
G36*
X165784741Y-66403437D02*
X165777972Y-66606923D01*
X165772091Y-66800291D01*
X165767468Y-66970013D01*
X165764472Y-67102559D01*
X165763470Y-67181312D01*
X165763435Y-67348000D01*
X165581634Y-67348000D01*
X165461952Y-67341384D01*
X165403052Y-67321347D01*
X165396055Y-67308312D01*
X165393463Y-67262774D01*
X165388874Y-67163236D01*
X165382677Y-67019152D01*
X165375259Y-66839977D01*
X165367010Y-66635166D01*
X165358318Y-66414173D01*
X165349572Y-66186453D01*
X165345188Y-66070062D01*
X165334802Y-65792250D01*
X165805977Y-65792250D01*
X165784741Y-66403437D01*
X165784741Y-66403437D01*
G37*
X165784741Y-66403437D02*
X165777972Y-66606923D01*
X165772091Y-66800291D01*
X165767468Y-66970013D01*
X165764472Y-67102559D01*
X165763470Y-67181312D01*
X165763435Y-67348000D01*
X165581634Y-67348000D01*
X165461952Y-67341384D01*
X165403052Y-67321347D01*
X165396055Y-67308312D01*
X165393463Y-67262774D01*
X165388874Y-67163236D01*
X165382677Y-67019152D01*
X165375259Y-66839977D01*
X165367010Y-66635166D01*
X165358318Y-66414173D01*
X165349572Y-66186453D01*
X165345188Y-66070062D01*
X165334802Y-65792250D01*
X165805977Y-65792250D01*
X165784741Y-66403437D01*
G36*
X166420621Y-67637060D02*
X166626493Y-67643724D01*
X166647308Y-67754675D01*
X166653580Y-67855916D01*
X166639852Y-67946356D01*
X166639246Y-67948125D01*
X166615758Y-67995965D01*
X166576110Y-68022361D01*
X166502239Y-68035297D01*
X166431236Y-68040063D01*
X166309983Y-68039150D01*
X166240043Y-68021912D01*
X166228541Y-68011379D01*
X166212464Y-67946548D01*
X166207863Y-67821781D01*
X166212307Y-67679697D01*
X166225416Y-67652707D01*
X166269876Y-67638896D01*
X166358502Y-67635640D01*
X166420621Y-67637060D01*
X166420621Y-67637060D01*
G37*
X166420621Y-67637060D02*
X166626493Y-67643724D01*
X166647308Y-67754675D01*
X166653580Y-67855916D01*
X166639852Y-67946356D01*
X166639246Y-67948125D01*
X166615758Y-67995965D01*
X166576110Y-68022361D01*
X166502239Y-68035297D01*
X166431236Y-68040063D01*
X166309983Y-68039150D01*
X166240043Y-68021912D01*
X166228541Y-68011379D01*
X166212464Y-67946548D01*
X166207863Y-67821781D01*
X166212307Y-67679697D01*
X166225416Y-67652707D01*
X166269876Y-67638896D01*
X166358502Y-67635640D01*
X166420621Y-67637060D01*
G36*
X165726260Y-67645676D02*
X165758673Y-67658048D01*
X165780731Y-67703042D01*
X165791603Y-67785827D01*
X165791075Y-67881649D01*
X165778937Y-67965755D01*
X165761658Y-68006812D01*
X165711089Y-68030580D01*
X165613413Y-68044296D01*
X165544112Y-68046500D01*
X165357500Y-68046500D01*
X165357500Y-67878225D01*
X165364307Y-67775714D01*
X165381725Y-67697340D01*
X165395600Y-67671849D01*
X165449690Y-67649436D01*
X165540359Y-67636936D01*
X165641313Y-67635350D01*
X165726260Y-67645676D01*
X165726260Y-67645676D01*
G37*
X165726260Y-67645676D02*
X165758673Y-67658048D01*
X165780731Y-67703042D01*
X165791603Y-67785827D01*
X165791075Y-67881649D01*
X165778937Y-67965755D01*
X165761658Y-68006812D01*
X165711089Y-68030580D01*
X165613413Y-68044296D01*
X165544112Y-68046500D01*
X165357500Y-68046500D01*
X165357500Y-67878225D01*
X165364307Y-67775714D01*
X165381725Y-67697340D01*
X165395600Y-67671849D01*
X165449690Y-67649436D01*
X165540359Y-67636936D01*
X165641313Y-67635350D01*
X165726260Y-67645676D01*
G36*
X164737881Y-65792250D02*
X164978240Y-65792250D01*
X164975564Y-66727441D01*
X164973927Y-66969842D01*
X164970612Y-67195744D01*
X164965891Y-67396162D01*
X164960036Y-67562110D01*
X164953319Y-67684602D01*
X164946011Y-67754652D01*
X164944270Y-67762420D01*
X164908595Y-67837032D01*
X164851598Y-67911599D01*
X164788596Y-67970462D01*
X164734906Y-67997967D01*
X164716542Y-67995193D01*
X164692190Y-68002710D01*
X164690750Y-68012876D01*
X164663960Y-68022383D01*
X164582554Y-68030251D01*
X164444977Y-68036521D01*
X164249673Y-68041233D01*
X163995088Y-68044429D01*
X163679667Y-68046150D01*
X163420750Y-68046500D01*
X163066102Y-68045712D01*
X162767271Y-68043372D01*
X162525653Y-68039515D01*
X162342650Y-68034176D01*
X162219660Y-68027389D01*
X162158082Y-68019190D01*
X162150750Y-68014750D01*
X162125125Y-67986370D01*
X162104409Y-67983000D01*
X162050878Y-67960603D01*
X161988656Y-67906716D01*
X161935721Y-67841290D01*
X161910054Y-67784279D01*
X161911296Y-67768687D01*
X161910104Y-67732795D01*
X161900487Y-67729000D01*
X161883572Y-67701756D01*
X161880638Y-67641687D01*
X161882436Y-67587665D01*
X161884393Y-67479313D01*
X161886404Y-67325801D01*
X161888364Y-67136300D01*
X161890167Y-66919980D01*
X161891708Y-66686010D01*
X161891780Y-66673312D01*
X161896750Y-65792250D01*
X162343019Y-65792250D01*
X162340252Y-66641998D01*
X162340248Y-66870231D01*
X162341649Y-67079238D01*
X162344284Y-67260110D01*
X162347980Y-67403939D01*
X162352566Y-67501817D01*
X162357697Y-67544419D01*
X162379660Y-67582018D01*
X162418706Y-67608570D01*
X162485012Y-67626146D01*
X162588756Y-67636823D01*
X162740113Y-67642674D01*
X162849250Y-67644613D01*
X163214375Y-67649625D01*
X163205513Y-66720937D01*
X163196651Y-65792250D01*
X163611250Y-65792250D01*
X163611250Y-67633750D01*
X164036171Y-67633750D01*
X164207573Y-67633315D01*
X164325992Y-67630887D01*
X164401946Y-67624780D01*
X164445950Y-67613307D01*
X164468522Y-67594783D01*
X164480179Y-67567520D01*
X164481711Y-67562312D01*
X164487129Y-67512290D01*
X164491834Y-67407936D01*
X164495644Y-67258415D01*
X164498378Y-67072891D01*
X164499854Y-66860531D01*
X164499925Y-66641562D01*
X164497522Y-65792249D01*
X164737881Y-65792250D01*
X164737881Y-65792250D01*
G37*
X164737881Y-65792250D02*
X164978240Y-65792250D01*
X164975564Y-66727441D01*
X164973927Y-66969842D01*
X164970612Y-67195744D01*
X164965891Y-67396162D01*
X164960036Y-67562110D01*
X164953319Y-67684602D01*
X164946011Y-67754652D01*
X164944270Y-67762420D01*
X164908595Y-67837032D01*
X164851598Y-67911599D01*
X164788596Y-67970462D01*
X164734906Y-67997967D01*
X164716542Y-67995193D01*
X164692190Y-68002710D01*
X164690750Y-68012876D01*
X164663960Y-68022383D01*
X164582554Y-68030251D01*
X164444977Y-68036521D01*
X164249673Y-68041233D01*
X163995088Y-68044429D01*
X163679667Y-68046150D01*
X163420750Y-68046500D01*
X163066102Y-68045712D01*
X162767271Y-68043372D01*
X162525653Y-68039515D01*
X162342650Y-68034176D01*
X162219660Y-68027389D01*
X162158082Y-68019190D01*
X162150750Y-68014750D01*
X162125125Y-67986370D01*
X162104409Y-67983000D01*
X162050878Y-67960603D01*
X161988656Y-67906716D01*
X161935721Y-67841290D01*
X161910054Y-67784279D01*
X161911296Y-67768687D01*
X161910104Y-67732795D01*
X161900487Y-67729000D01*
X161883572Y-67701756D01*
X161880638Y-67641687D01*
X161882436Y-67587665D01*
X161884393Y-67479313D01*
X161886404Y-67325801D01*
X161888364Y-67136300D01*
X161890167Y-66919980D01*
X161891708Y-66686010D01*
X161891780Y-66673312D01*
X161896750Y-65792250D01*
X162343019Y-65792250D01*
X162340252Y-66641998D01*
X162340248Y-66870231D01*
X162341649Y-67079238D01*
X162344284Y-67260110D01*
X162347980Y-67403939D01*
X162352566Y-67501817D01*
X162357697Y-67544419D01*
X162379660Y-67582018D01*
X162418706Y-67608570D01*
X162485012Y-67626146D01*
X162588756Y-67636823D01*
X162740113Y-67642674D01*
X162849250Y-67644613D01*
X163214375Y-67649625D01*
X163205513Y-66720937D01*
X163196651Y-65792250D01*
X163611250Y-65792250D01*
X163611250Y-67633750D01*
X164036171Y-67633750D01*
X164207573Y-67633315D01*
X164325992Y-67630887D01*
X164401946Y-67624780D01*
X164445950Y-67613307D01*
X164468522Y-67594783D01*
X164480179Y-67567520D01*
X164481711Y-67562312D01*
X164487129Y-67512290D01*
X164491834Y-67407936D01*
X164495644Y-67258415D01*
X164498378Y-67072891D01*
X164499854Y-66860531D01*
X164499925Y-66641562D01*
X164497522Y-65792249D01*
X164737881Y-65792250D01*
G36*
X161041199Y-65802071D02*
X161193309Y-65810358D01*
X161284716Y-65822947D01*
X161316082Y-65839865D01*
X161312473Y-65847360D01*
X161322471Y-65873090D01*
X161365125Y-65901423D01*
X161404496Y-65926770D01*
X161436156Y-65963836D01*
X161460865Y-66019081D01*
X161479381Y-66098967D01*
X161492462Y-66209955D01*
X161500867Y-66358507D01*
X161505356Y-66551085D01*
X161506687Y-66794150D01*
X161505619Y-67094164D01*
X161505597Y-67097679D01*
X161499875Y-68030625D01*
X161269687Y-68039953D01*
X161039500Y-68049281D01*
X161039500Y-67284500D01*
X159543516Y-67284500D01*
X159553320Y-67665560D01*
X159563125Y-68046620D01*
X159354104Y-68046560D01*
X159244039Y-68043424D01*
X159160562Y-68035287D01*
X159123188Y-68024605D01*
X159116501Y-67987577D01*
X159111258Y-67897697D01*
X159107403Y-67764481D01*
X159104879Y-67597450D01*
X159103629Y-67406122D01*
X159103597Y-67200016D01*
X159104727Y-66988651D01*
X159105303Y-66935250D01*
X159539864Y-66935250D01*
X161039500Y-66935250D01*
X161039500Y-66632181D01*
X161038207Y-66488827D01*
X161032246Y-66393681D01*
X161018494Y-66331474D01*
X160993826Y-66286933D01*
X160961568Y-66251181D01*
X160932469Y-66223834D01*
X160901467Y-66203773D01*
X160858905Y-66189871D01*
X160795125Y-66180998D01*
X160700467Y-66176025D01*
X160565273Y-66173824D01*
X160379886Y-66173266D01*
X160294818Y-66173250D01*
X160062606Y-66173603D01*
X159886034Y-66177850D01*
X159757247Y-66190766D01*
X159668393Y-66217129D01*
X159611616Y-66261716D01*
X159579062Y-66329304D01*
X159562878Y-66424669D01*
X159555209Y-66552590D01*
X159552331Y-66624850D01*
X159539864Y-66935250D01*
X159105303Y-66935250D01*
X159106961Y-66781545D01*
X159110244Y-66588217D01*
X159114518Y-66418186D01*
X159119728Y-66280970D01*
X159125816Y-66186089D01*
X159132727Y-66143062D01*
X159134375Y-66141500D01*
X159152108Y-66115740D01*
X159150417Y-66078219D01*
X159163124Y-66013232D01*
X159208833Y-65933543D01*
X159270265Y-65863233D01*
X159330140Y-65826382D01*
X159331307Y-65826130D01*
X159373045Y-65823327D01*
X159469471Y-65819762D01*
X159611779Y-65815667D01*
X159791165Y-65811277D01*
X159998823Y-65806825D01*
X160214000Y-65802753D01*
X160552208Y-65798296D01*
X160827720Y-65798059D01*
X161041199Y-65802071D01*
X161041199Y-65802071D01*
G37*
X161041199Y-65802071D02*
X161193309Y-65810358D01*
X161284716Y-65822947D01*
X161316082Y-65839865D01*
X161312473Y-65847360D01*
X161322471Y-65873090D01*
X161365125Y-65901423D01*
X161404496Y-65926770D01*
X161436156Y-65963836D01*
X161460865Y-66019081D01*
X161479381Y-66098967D01*
X161492462Y-66209955D01*
X161500867Y-66358507D01*
X161505356Y-66551085D01*
X161506687Y-66794150D01*
X161505619Y-67094164D01*
X161505597Y-67097679D01*
X161499875Y-68030625D01*
X161269687Y-68039953D01*
X161039500Y-68049281D01*
X161039500Y-67284500D01*
X159543516Y-67284500D01*
X159553320Y-67665560D01*
X159563125Y-68046620D01*
X159354104Y-68046560D01*
X159244039Y-68043424D01*
X159160562Y-68035287D01*
X159123188Y-68024605D01*
X159116501Y-67987577D01*
X159111258Y-67897697D01*
X159107403Y-67764481D01*
X159104879Y-67597450D01*
X159103629Y-67406122D01*
X159103597Y-67200016D01*
X159104727Y-66988651D01*
X159105303Y-66935250D01*
X159539864Y-66935250D01*
X161039500Y-66935250D01*
X161039500Y-66632181D01*
X161038207Y-66488827D01*
X161032246Y-66393681D01*
X161018494Y-66331474D01*
X160993826Y-66286933D01*
X160961568Y-66251181D01*
X160932469Y-66223834D01*
X160901467Y-66203773D01*
X160858905Y-66189871D01*
X160795125Y-66180998D01*
X160700467Y-66176025D01*
X160565273Y-66173824D01*
X160379886Y-66173266D01*
X160294818Y-66173250D01*
X160062606Y-66173603D01*
X159886034Y-66177850D01*
X159757247Y-66190766D01*
X159668393Y-66217129D01*
X159611616Y-66261716D01*
X159579062Y-66329304D01*
X159562878Y-66424669D01*
X159555209Y-66552590D01*
X159552331Y-66624850D01*
X159539864Y-66935250D01*
X159105303Y-66935250D01*
X159106961Y-66781545D01*
X159110244Y-66588217D01*
X159114518Y-66418186D01*
X159119728Y-66280970D01*
X159125816Y-66186089D01*
X159132727Y-66143062D01*
X159134375Y-66141500D01*
X159152108Y-66115740D01*
X159150417Y-66078219D01*
X159163124Y-66013232D01*
X159208833Y-65933543D01*
X159270265Y-65863233D01*
X159330140Y-65826382D01*
X159331307Y-65826130D01*
X159373045Y-65823327D01*
X159469471Y-65819762D01*
X159611779Y-65815667D01*
X159791165Y-65811277D01*
X159998823Y-65806825D01*
X160214000Y-65802753D01*
X160552208Y-65798296D01*
X160827720Y-65798059D01*
X161041199Y-65802071D01*
G36*
X157484576Y-65792250D02*
X158531827Y-65792250D01*
X158628064Y-65884218D01*
X158697972Y-65968532D01*
X158747202Y-66058755D01*
X158752468Y-66074402D01*
X158770745Y-66184734D01*
X158774875Y-66321295D01*
X158766311Y-66462663D01*
X158746505Y-66587417D01*
X158716908Y-66674137D01*
X158711198Y-66683284D01*
X158674243Y-66727110D01*
X158657807Y-66728972D01*
X158657763Y-66728002D01*
X158645740Y-66723373D01*
X158621154Y-66753194D01*
X158599848Y-66795123D01*
X158595236Y-66816187D01*
X158619983Y-66838280D01*
X158634885Y-66840000D01*
X158678806Y-66869478D01*
X158717000Y-66949131D01*
X158748115Y-67065785D01*
X158770805Y-67206264D01*
X158783719Y-67357394D01*
X158785508Y-67506002D01*
X158774823Y-67638913D01*
X158750315Y-67742952D01*
X158731327Y-67781780D01*
X158702472Y-67834828D01*
X158702223Y-67856000D01*
X158704590Y-67871154D01*
X158669391Y-67907849D01*
X158612248Y-67952934D01*
X158548780Y-67993258D01*
X158525101Y-68005118D01*
X158473241Y-68017197D01*
X158374586Y-68026979D01*
X158225830Y-68034585D01*
X158023665Y-68040138D01*
X157764785Y-68043760D01*
X157445882Y-68045573D01*
X157430162Y-68045614D01*
X156419875Y-68048117D01*
X156428482Y-66935250D01*
X156880250Y-66935250D01*
X156880250Y-67670097D01*
X157539062Y-67659861D01*
X157774459Y-67655250D01*
X157954207Y-67649264D01*
X158086156Y-67641286D01*
X158178151Y-67630697D01*
X158238041Y-67616878D01*
X158269312Y-67602300D01*
X158305682Y-67571689D01*
X158327152Y-67529067D01*
X158337539Y-67458634D01*
X158340658Y-67344590D01*
X158340750Y-67306525D01*
X158341373Y-67189965D01*
X158338288Y-67100670D01*
X158324062Y-67035023D01*
X158291261Y-66989409D01*
X158232452Y-66960211D01*
X158140201Y-66943813D01*
X158007075Y-66936597D01*
X157825642Y-66934947D01*
X157588468Y-66935248D01*
X157577632Y-66935250D01*
X156880250Y-66935250D01*
X156428482Y-66935250D01*
X156428599Y-66920183D01*
X156431193Y-66584737D01*
X156880250Y-66584737D01*
X157554937Y-66593306D01*
X157796827Y-66595962D01*
X157982435Y-66595511D01*
X158118971Y-66589703D01*
X158213649Y-66576288D01*
X158273678Y-66553015D01*
X158306271Y-66517634D01*
X158318640Y-66467895D01*
X158317996Y-66401549D01*
X158314636Y-66356268D01*
X158300951Y-66261225D01*
X158273790Y-66211739D01*
X158234598Y-66192486D01*
X158182785Y-66186851D01*
X158078308Y-66181872D01*
X157932000Y-66177835D01*
X157754695Y-66175026D01*
X157557228Y-66173731D01*
X157523187Y-66173683D01*
X156880250Y-66173250D01*
X156880250Y-66584737D01*
X156431193Y-66584737D01*
X156437324Y-65792249D01*
X157484576Y-65792250D01*
X157484576Y-65792250D01*
G37*
X157484576Y-65792250D02*
X158531827Y-65792250D01*
X158628064Y-65884218D01*
X158697972Y-65968532D01*
X158747202Y-66058755D01*
X158752468Y-66074402D01*
X158770745Y-66184734D01*
X158774875Y-66321295D01*
X158766311Y-66462663D01*
X158746505Y-66587417D01*
X158716908Y-66674137D01*
X158711198Y-66683284D01*
X158674243Y-66727110D01*
X158657807Y-66728972D01*
X158657763Y-66728002D01*
X158645740Y-66723373D01*
X158621154Y-66753194D01*
X158599848Y-66795123D01*
X158595236Y-66816187D01*
X158619983Y-66838280D01*
X158634885Y-66840000D01*
X158678806Y-66869478D01*
X158717000Y-66949131D01*
X158748115Y-67065785D01*
X158770805Y-67206264D01*
X158783719Y-67357394D01*
X158785508Y-67506002D01*
X158774823Y-67638913D01*
X158750315Y-67742952D01*
X158731327Y-67781780D01*
X158702472Y-67834828D01*
X158702223Y-67856000D01*
X158704590Y-67871154D01*
X158669391Y-67907849D01*
X158612248Y-67952934D01*
X158548780Y-67993258D01*
X158525101Y-68005118D01*
X158473241Y-68017197D01*
X158374586Y-68026979D01*
X158225830Y-68034585D01*
X158023665Y-68040138D01*
X157764785Y-68043760D01*
X157445882Y-68045573D01*
X157430162Y-68045614D01*
X156419875Y-68048117D01*
X156428482Y-66935250D01*
X156880250Y-66935250D01*
X156880250Y-67670097D01*
X157539062Y-67659861D01*
X157774459Y-67655250D01*
X157954207Y-67649264D01*
X158086156Y-67641286D01*
X158178151Y-67630697D01*
X158238041Y-67616878D01*
X158269312Y-67602300D01*
X158305682Y-67571689D01*
X158327152Y-67529067D01*
X158337539Y-67458634D01*
X158340658Y-67344590D01*
X158340750Y-67306525D01*
X158341373Y-67189965D01*
X158338288Y-67100670D01*
X158324062Y-67035023D01*
X158291261Y-66989409D01*
X158232452Y-66960211D01*
X158140201Y-66943813D01*
X158007075Y-66936597D01*
X157825642Y-66934947D01*
X157588468Y-66935248D01*
X157577632Y-66935250D01*
X156880250Y-66935250D01*
X156428482Y-66935250D01*
X156428599Y-66920183D01*
X156431193Y-66584737D01*
X156880250Y-66584737D01*
X157554937Y-66593306D01*
X157796827Y-66595962D01*
X157982435Y-66595511D01*
X158118971Y-66589703D01*
X158213649Y-66576288D01*
X158273678Y-66553015D01*
X158306271Y-66517634D01*
X158318640Y-66467895D01*
X158317996Y-66401549D01*
X158314636Y-66356268D01*
X158300951Y-66261225D01*
X158273790Y-66211739D01*
X158234598Y-66192486D01*
X158182785Y-66186851D01*
X158078308Y-66181872D01*
X157932000Y-66177835D01*
X157754695Y-66175026D01*
X157557228Y-66173731D01*
X157523187Y-66173683D01*
X156880250Y-66173250D01*
X156880250Y-66584737D01*
X156431193Y-66584737D01*
X156437324Y-65792249D01*
X157484576Y-65792250D01*
G36*
X155223958Y-65798428D02*
X155301091Y-65810473D01*
X155332197Y-65838260D01*
X155335310Y-65887500D01*
X155330914Y-65957422D01*
X155324020Y-66068210D01*
X155316028Y-66197350D01*
X155315066Y-66212937D01*
X155299888Y-66459000D01*
X155486819Y-66459000D01*
X155593825Y-66455935D01*
X155651640Y-66443988D01*
X155674395Y-66419028D01*
X155676910Y-66403437D01*
X155679963Y-66342546D01*
X155684568Y-66242964D01*
X155688363Y-66157375D01*
X155694874Y-66000213D01*
X155700956Y-65895736D01*
X155710865Y-65833303D01*
X155728856Y-65802273D01*
X155759186Y-65792003D01*
X155806110Y-65791851D01*
X155834373Y-65792250D01*
X155911965Y-65798686D01*
X155945617Y-65815338D01*
X155944488Y-65822602D01*
X155934796Y-65866140D01*
X155924722Y-65956962D01*
X155915886Y-66078888D01*
X155912720Y-66140131D01*
X155905426Y-66269830D01*
X155896875Y-66374793D01*
X155888467Y-66439298D01*
X155885011Y-66451091D01*
X155903864Y-66463036D01*
X155968466Y-66465991D01*
X156010155Y-66463740D01*
X156150000Y-66452605D01*
X156150000Y-66713000D01*
X156007125Y-66713000D01*
X155907852Y-66721453D01*
X155863806Y-66745801D01*
X155862098Y-66752687D01*
X155859479Y-66805614D01*
X155855170Y-66896913D01*
X155852369Y-66957512D01*
X155844792Y-67122649D01*
X155957708Y-67132137D01*
X156034348Y-67145045D01*
X156068554Y-67179010D01*
X156080574Y-67244812D01*
X156083222Y-67310483D01*
X156062929Y-67339953D01*
X156002963Y-67347721D01*
X155961511Y-67348000D01*
X155870688Y-67357176D01*
X155831683Y-67382887D01*
X155830868Y-67387687D01*
X155827766Y-67437710D01*
X155821187Y-67531012D01*
X155812545Y-67647564D01*
X155812389Y-67649625D01*
X155803033Y-67774314D01*
X155794993Y-67883706D01*
X155790208Y-67951250D01*
X155776696Y-68005432D01*
X155733343Y-68031210D01*
X155667586Y-68040373D01*
X155591320Y-68042870D01*
X155561764Y-68026349D01*
X155562792Y-67980971D01*
X155563518Y-67976873D01*
X155571622Y-67909915D01*
X155580662Y-67801699D01*
X155588811Y-67674403D01*
X155589535Y-67660935D01*
X155598381Y-67539880D01*
X155610030Y-67442375D01*
X155622188Y-67386888D01*
X155624040Y-67383122D01*
X155612759Y-67362527D01*
X155545154Y-67351065D01*
X155437498Y-67348000D01*
X155311181Y-67352959D01*
X155242936Y-67368427D01*
X155227023Y-67387687D01*
X155224613Y-67437788D01*
X155220423Y-67531238D01*
X155215352Y-67647943D01*
X155215280Y-67649625D01*
X155209809Y-67776094D01*
X155204837Y-67888795D01*
X155201632Y-67959187D01*
X155191301Y-68018102D01*
X155154842Y-68042220D01*
X155086046Y-68046500D01*
X154974592Y-68046500D01*
X154990304Y-67697250D01*
X155006017Y-67348000D01*
X154895383Y-67348000D01*
X154821108Y-67342983D01*
X154790732Y-67315104D01*
X154784758Y-67245115D01*
X154784750Y-67238791D01*
X154789820Y-67166783D01*
X154817578Y-67133858D01*
X154846642Y-67128545D01*
X155238291Y-67128545D01*
X155430839Y-67119210D01*
X155623386Y-67109875D01*
X155630462Y-66997505D01*
X155636815Y-66913649D01*
X155642943Y-66857940D01*
X155643528Y-66854630D01*
X155650775Y-66780636D01*
X155628806Y-66737780D01*
X155566415Y-66717943D01*
X155452400Y-66713002D01*
X155448103Y-66713000D01*
X155340014Y-66715812D01*
X155284038Y-66726199D01*
X155268961Y-66747082D01*
X155271832Y-66758932D01*
X155277282Y-66815350D01*
X155271598Y-66908179D01*
X155263874Y-66966705D01*
X155238291Y-67128545D01*
X154846642Y-67128545D01*
X154886844Y-67121196D01*
X154903812Y-67119729D01*
X154983309Y-67107322D01*
X155020966Y-67075011D01*
X155038444Y-67003432D01*
X155039136Y-66998750D01*
X155047123Y-66894376D01*
X155043470Y-66800312D01*
X155026241Y-66740176D01*
X154983079Y-66716403D01*
X154924021Y-66713000D01*
X154855166Y-66708931D01*
X154824564Y-66684529D01*
X154816729Y-66621503D01*
X154816500Y-66586000D01*
X154816500Y-66459000D01*
X154943500Y-66459000D01*
X155029261Y-66452347D01*
X155067427Y-66428146D01*
X155073638Y-66403437D01*
X155077965Y-66338219D01*
X155085047Y-66241422D01*
X155087831Y-66205000D01*
X155096168Y-66077224D01*
X155102489Y-65946230D01*
X155103213Y-65925428D01*
X155107541Y-65788732D01*
X155223958Y-65798428D01*
X155223958Y-65798428D01*
G37*
X155223958Y-65798428D02*
X155301091Y-65810473D01*
X155332197Y-65838260D01*
X155335310Y-65887500D01*
X155330914Y-65957422D01*
X155324020Y-66068210D01*
X155316028Y-66197350D01*
X155315066Y-66212937D01*
X155299888Y-66459000D01*
X155486819Y-66459000D01*
X155593825Y-66455935D01*
X155651640Y-66443988D01*
X155674395Y-66419028D01*
X155676910Y-66403437D01*
X155679963Y-66342546D01*
X155684568Y-66242964D01*
X155688363Y-66157375D01*
X155694874Y-66000213D01*
X155700956Y-65895736D01*
X155710865Y-65833303D01*
X155728856Y-65802273D01*
X155759186Y-65792003D01*
X155806110Y-65791851D01*
X155834373Y-65792250D01*
X155911965Y-65798686D01*
X155945617Y-65815338D01*
X155944488Y-65822602D01*
X155934796Y-65866140D01*
X155924722Y-65956962D01*
X155915886Y-66078888D01*
X155912720Y-66140131D01*
X155905426Y-66269830D01*
X155896875Y-66374793D01*
X155888467Y-66439298D01*
X155885011Y-66451091D01*
X155903864Y-66463036D01*
X155968466Y-66465991D01*
X156010155Y-66463740D01*
X156150000Y-66452605D01*
X156150000Y-66713000D01*
X156007125Y-66713000D01*
X155907852Y-66721453D01*
X155863806Y-66745801D01*
X155862098Y-66752687D01*
X155859479Y-66805614D01*
X155855170Y-66896913D01*
X155852369Y-66957512D01*
X155844792Y-67122649D01*
X155957708Y-67132137D01*
X156034348Y-67145045D01*
X156068554Y-67179010D01*
X156080574Y-67244812D01*
X156083222Y-67310483D01*
X156062929Y-67339953D01*
X156002963Y-67347721D01*
X155961511Y-67348000D01*
X155870688Y-67357176D01*
X155831683Y-67382887D01*
X155830868Y-67387687D01*
X155827766Y-67437710D01*
X155821187Y-67531012D01*
X155812545Y-67647564D01*
X155812389Y-67649625D01*
X155803033Y-67774314D01*
X155794993Y-67883706D01*
X155790208Y-67951250D01*
X155776696Y-68005432D01*
X155733343Y-68031210D01*
X155667586Y-68040373D01*
X155591320Y-68042870D01*
X155561764Y-68026349D01*
X155562792Y-67980971D01*
X155563518Y-67976873D01*
X155571622Y-67909915D01*
X155580662Y-67801699D01*
X155588811Y-67674403D01*
X155589535Y-67660935D01*
X155598381Y-67539880D01*
X155610030Y-67442375D01*
X155622188Y-67386888D01*
X155624040Y-67383122D01*
X155612759Y-67362527D01*
X155545154Y-67351065D01*
X155437498Y-67348000D01*
X155311181Y-67352959D01*
X155242936Y-67368427D01*
X155227023Y-67387687D01*
X155224613Y-67437788D01*
X155220423Y-67531238D01*
X155215352Y-67647943D01*
X155215280Y-67649625D01*
X155209809Y-67776094D01*
X155204837Y-67888795D01*
X155201632Y-67959187D01*
X155191301Y-68018102D01*
X155154842Y-68042220D01*
X155086046Y-68046500D01*
X154974592Y-68046500D01*
X154990304Y-67697250D01*
X155006017Y-67348000D01*
X154895383Y-67348000D01*
X154821108Y-67342983D01*
X154790732Y-67315104D01*
X154784758Y-67245115D01*
X154784750Y-67238791D01*
X154789820Y-67166783D01*
X154817578Y-67133858D01*
X154846642Y-67128545D01*
X155238291Y-67128545D01*
X155430839Y-67119210D01*
X155623386Y-67109875D01*
X155630462Y-66997505D01*
X155636815Y-66913649D01*
X155642943Y-66857940D01*
X155643528Y-66854630D01*
X155650775Y-66780636D01*
X155628806Y-66737780D01*
X155566415Y-66717943D01*
X155452400Y-66713002D01*
X155448103Y-66713000D01*
X155340014Y-66715812D01*
X155284038Y-66726199D01*
X155268961Y-66747082D01*
X155271832Y-66758932D01*
X155277282Y-66815350D01*
X155271598Y-66908179D01*
X155263874Y-66966705D01*
X155238291Y-67128545D01*
X154846642Y-67128545D01*
X154886844Y-67121196D01*
X154903812Y-67119729D01*
X154983309Y-67107322D01*
X155020966Y-67075011D01*
X155038444Y-67003432D01*
X155039136Y-66998750D01*
X155047123Y-66894376D01*
X155043470Y-66800312D01*
X155026241Y-66740176D01*
X154983079Y-66716403D01*
X154924021Y-66713000D01*
X154855166Y-66708931D01*
X154824564Y-66684529D01*
X154816729Y-66621503D01*
X154816500Y-66586000D01*
X154816500Y-66459000D01*
X154943500Y-66459000D01*
X155029261Y-66452347D01*
X155067427Y-66428146D01*
X155073638Y-66403437D01*
X155077965Y-66338219D01*
X155085047Y-66241422D01*
X155087831Y-66205000D01*
X155096168Y-66077224D01*
X155102489Y-65946230D01*
X155103213Y-65925428D01*
X155107541Y-65788732D01*
X155223958Y-65798428D01*
G36*
X157993721Y-69189500D02*
X157999295Y-69390550D01*
X158004707Y-69568891D01*
X158009634Y-69715218D01*
X158013757Y-69820224D01*
X158016754Y-69874604D01*
X158017534Y-69880062D01*
X158049236Y-69887177D01*
X158070875Y-69888000D01*
X158113153Y-69903285D01*
X158118500Y-69916250D01*
X158148870Y-69924151D01*
X158234465Y-69931580D01*
X158367009Y-69938194D01*
X158538226Y-69943655D01*
X158739841Y-69947621D01*
X158927524Y-69949554D01*
X159736549Y-69954606D01*
X159745087Y-69230740D01*
X159753625Y-68506875D01*
X160325125Y-68506875D01*
X160333666Y-69232090D01*
X160342207Y-69957306D01*
X160516271Y-69946465D01*
X160690336Y-69935625D01*
X160690293Y-70149937D01*
X160690250Y-70364250D01*
X160341000Y-70364250D01*
X160341000Y-71094500D01*
X160060541Y-71094500D01*
X159932774Y-71092247D01*
X159830257Y-71086228D01*
X159768762Y-71077550D01*
X159758916Y-71073333D01*
X159750296Y-71034723D01*
X159743368Y-70946613D01*
X159738943Y-70822995D01*
X159737750Y-70708208D01*
X159737750Y-70364250D01*
X158739498Y-70364250D01*
X158430558Y-70363219D01*
X158174307Y-70360175D01*
X157973014Y-70355189D01*
X157828947Y-70348334D01*
X157744374Y-70339681D01*
X157721304Y-70331982D01*
X157683390Y-70313579D01*
X157672023Y-70317846D01*
X157626687Y-70312270D01*
X157564760Y-70264074D01*
X157498083Y-70187421D01*
X157438495Y-70096470D01*
X157397836Y-70005383D01*
X157391606Y-69982453D01*
X157382327Y-69908225D01*
X157374740Y-69782558D01*
X157369220Y-69617500D01*
X157366148Y-69425099D01*
X157365901Y-69217403D01*
X157366229Y-69174517D01*
X157372375Y-68506875D01*
X157975625Y-68506875D01*
X157993721Y-69189500D01*
X157993721Y-69189500D01*
G37*
X157993721Y-69189500D02*
X157999295Y-69390550D01*
X158004707Y-69568891D01*
X158009634Y-69715218D01*
X158013757Y-69820224D01*
X158016754Y-69874604D01*
X158017534Y-69880062D01*
X158049236Y-69887177D01*
X158070875Y-69888000D01*
X158113153Y-69903285D01*
X158118500Y-69916250D01*
X158148870Y-69924151D01*
X158234465Y-69931580D01*
X158367009Y-69938194D01*
X158538226Y-69943655D01*
X158739841Y-69947621D01*
X158927524Y-69949554D01*
X159736549Y-69954606D01*
X159745087Y-69230740D01*
X159753625Y-68506875D01*
X160325125Y-68506875D01*
X160333666Y-69232090D01*
X160342207Y-69957306D01*
X160516271Y-69946465D01*
X160690336Y-69935625D01*
X160690293Y-70149937D01*
X160690250Y-70364250D01*
X160341000Y-70364250D01*
X160341000Y-71094500D01*
X160060541Y-71094500D01*
X159932774Y-71092247D01*
X159830257Y-71086228D01*
X159768762Y-71077550D01*
X159758916Y-71073333D01*
X159750296Y-71034723D01*
X159743368Y-70946613D01*
X159738943Y-70822995D01*
X159737750Y-70708208D01*
X159737750Y-70364250D01*
X158739498Y-70364250D01*
X158430558Y-70363219D01*
X158174307Y-70360175D01*
X157973014Y-70355189D01*
X157828947Y-70348334D01*
X157744374Y-70339681D01*
X157721304Y-70331982D01*
X157683390Y-70313579D01*
X157672023Y-70317846D01*
X157626687Y-70312270D01*
X157564760Y-70264074D01*
X157498083Y-70187421D01*
X157438495Y-70096470D01*
X157397836Y-70005383D01*
X157391606Y-69982453D01*
X157382327Y-69908225D01*
X157374740Y-69782558D01*
X157369220Y-69617500D01*
X157366148Y-69425099D01*
X157365901Y-69217403D01*
X157366229Y-69174517D01*
X157372375Y-68506875D01*
X157975625Y-68506875D01*
X157993721Y-69189500D01*
G36*
X155976551Y-68625937D02*
X155963682Y-68724057D01*
X155950956Y-68858753D01*
X155940865Y-69003143D01*
X155939793Y-69022812D01*
X155926095Y-69284750D01*
X156398954Y-69284750D01*
X156423046Y-69181562D01*
X156439230Y-69081907D01*
X156449276Y-68963617D01*
X156450266Y-68935500D01*
X156453940Y-68808099D01*
X156459126Y-68671318D01*
X156460448Y-68641812D01*
X156467500Y-68491000D01*
X156793360Y-68491000D01*
X156770301Y-68625937D01*
X156757432Y-68724057D01*
X156744706Y-68858753D01*
X156734615Y-69003143D01*
X156733543Y-69022812D01*
X156719845Y-69284750D01*
X157039000Y-69284750D01*
X157039000Y-69570500D01*
X156864375Y-69570500D01*
X156768271Y-69574425D01*
X156703949Y-69584550D01*
X156687645Y-69594312D01*
X156684787Y-69636036D01*
X156679334Y-69722324D01*
X156672593Y-69832437D01*
X156659646Y-70046750D01*
X156959625Y-70046750D01*
X156959625Y-70316625D01*
X156792937Y-70305749D01*
X156695705Y-70301651D01*
X156645463Y-70309830D01*
X156626007Y-70336305D01*
X156622012Y-70369249D01*
X156611604Y-70559511D01*
X156604827Y-70704628D01*
X156600937Y-70822803D01*
X156599230Y-70927812D01*
X156597763Y-71094500D01*
X156279187Y-71094500D01*
X156293470Y-70959562D01*
X156302686Y-70861532D01*
X156313865Y-70726960D01*
X156324794Y-70582668D01*
X156326216Y-70562687D01*
X156344677Y-70300750D01*
X156106337Y-70300750D01*
X155990009Y-70303700D01*
X155900899Y-70311498D01*
X155855776Y-70322562D01*
X155853740Y-70324562D01*
X155845497Y-70364774D01*
X155835108Y-70453134D01*
X155824218Y-70574402D01*
X155818585Y-70650000D01*
X155805808Y-70825475D01*
X155793133Y-70947362D01*
X155776326Y-71025425D01*
X155751154Y-71069429D01*
X155713383Y-71089136D01*
X155658780Y-71094310D01*
X155625847Y-71094500D01*
X155489578Y-71094500D01*
X155500089Y-70943687D01*
X155507023Y-70834804D01*
X155515203Y-70692749D01*
X155522890Y-70547778D01*
X155523073Y-70544125D01*
X155535546Y-70295376D01*
X155380947Y-70306000D01*
X155226348Y-70316625D01*
X155235736Y-70189625D01*
X155245125Y-70062625D01*
X155394329Y-70053013D01*
X155460716Y-70046750D01*
X155856312Y-70046750D01*
X156096532Y-70046750D01*
X156214066Y-70043058D01*
X156305149Y-70033301D01*
X156352713Y-70019449D01*
X156355235Y-70016843D01*
X156366113Y-69971572D01*
X156376354Y-69882742D01*
X156383243Y-69778718D01*
X156392768Y-69570500D01*
X155896000Y-69570500D01*
X155896000Y-69709406D01*
X155891238Y-69823231D01*
X155879460Y-69929070D01*
X155876156Y-69947531D01*
X155856312Y-70046750D01*
X155460716Y-70046750D01*
X155474263Y-70045472D01*
X155525665Y-70027002D01*
X155556945Y-69985090D01*
X155576510Y-69907221D01*
X155592771Y-69780881D01*
X155595880Y-69753062D01*
X155616201Y-69570500D01*
X155308167Y-69570500D01*
X155319530Y-69427625D01*
X155330894Y-69284750D01*
X155464569Y-69284750D01*
X155543712Y-69282127D01*
X155587950Y-69263789D01*
X155614655Y-69214030D01*
X155638556Y-69127464D01*
X155661622Y-69011743D01*
X155673046Y-68902222D01*
X155673091Y-68865526D01*
X155670085Y-68762688D01*
X155670154Y-68644963D01*
X155670533Y-68625937D01*
X155673750Y-68491000D01*
X155999610Y-68491000D01*
X155976551Y-68625937D01*
X155976551Y-68625937D01*
G37*
X155976551Y-68625937D02*
X155963682Y-68724057D01*
X155950956Y-68858753D01*
X155940865Y-69003143D01*
X155939793Y-69022812D01*
X155926095Y-69284750D01*
X156398954Y-69284750D01*
X156423046Y-69181562D01*
X156439230Y-69081907D01*
X156449276Y-68963617D01*
X156450266Y-68935500D01*
X156453940Y-68808099D01*
X156459126Y-68671318D01*
X156460448Y-68641812D01*
X156467500Y-68491000D01*
X156793360Y-68491000D01*
X156770301Y-68625937D01*
X156757432Y-68724057D01*
X156744706Y-68858753D01*
X156734615Y-69003143D01*
X156733543Y-69022812D01*
X156719845Y-69284750D01*
X157039000Y-69284750D01*
X157039000Y-69570500D01*
X156864375Y-69570500D01*
X156768271Y-69574425D01*
X156703949Y-69584550D01*
X156687645Y-69594312D01*
X156684787Y-69636036D01*
X156679334Y-69722324D01*
X156672593Y-69832437D01*
X156659646Y-70046750D01*
X156959625Y-70046750D01*
X156959625Y-70316625D01*
X156792937Y-70305749D01*
X156695705Y-70301651D01*
X156645463Y-70309830D01*
X156626007Y-70336305D01*
X156622012Y-70369249D01*
X156611604Y-70559511D01*
X156604827Y-70704628D01*
X156600937Y-70822803D01*
X156599230Y-70927812D01*
X156597763Y-71094500D01*
X156279187Y-71094500D01*
X156293470Y-70959562D01*
X156302686Y-70861532D01*
X156313865Y-70726960D01*
X156324794Y-70582668D01*
X156326216Y-70562687D01*
X156344677Y-70300750D01*
X156106337Y-70300750D01*
X155990009Y-70303700D01*
X155900899Y-70311498D01*
X155855776Y-70322562D01*
X155853740Y-70324562D01*
X155845497Y-70364774D01*
X155835108Y-70453134D01*
X155824218Y-70574402D01*
X155818585Y-70650000D01*
X155805808Y-70825475D01*
X155793133Y-70947362D01*
X155776326Y-71025425D01*
X155751154Y-71069429D01*
X155713383Y-71089136D01*
X155658780Y-71094310D01*
X155625847Y-71094500D01*
X155489578Y-71094500D01*
X155500089Y-70943687D01*
X155507023Y-70834804D01*
X155515203Y-70692749D01*
X155522890Y-70547778D01*
X155523073Y-70544125D01*
X155535546Y-70295376D01*
X155380947Y-70306000D01*
X155226348Y-70316625D01*
X155235736Y-70189625D01*
X155245125Y-70062625D01*
X155394329Y-70053013D01*
X155460716Y-70046750D01*
X155856312Y-70046750D01*
X156096532Y-70046750D01*
X156214066Y-70043058D01*
X156305149Y-70033301D01*
X156352713Y-70019449D01*
X156355235Y-70016843D01*
X156366113Y-69971572D01*
X156376354Y-69882742D01*
X156383243Y-69778718D01*
X156392768Y-69570500D01*
X155896000Y-69570500D01*
X155896000Y-69709406D01*
X155891238Y-69823231D01*
X155879460Y-69929070D01*
X155876156Y-69947531D01*
X155856312Y-70046750D01*
X155460716Y-70046750D01*
X155474263Y-70045472D01*
X155525665Y-70027002D01*
X155556945Y-69985090D01*
X155576510Y-69907221D01*
X155592771Y-69780881D01*
X155595880Y-69753062D01*
X155616201Y-69570500D01*
X155308167Y-69570500D01*
X155319530Y-69427625D01*
X155330894Y-69284750D01*
X155464569Y-69284750D01*
X155543712Y-69282127D01*
X155587950Y-69263789D01*
X155614655Y-69214030D01*
X155638556Y-69127464D01*
X155661622Y-69011743D01*
X155673046Y-68902222D01*
X155673091Y-68865526D01*
X155670085Y-68762688D01*
X155670154Y-68644963D01*
X155670533Y-68625937D01*
X155673750Y-68491000D01*
X155999610Y-68491000D01*
X155976551Y-68625937D01*
G36*
X160499750Y-87937875D02*
X160483875Y-87953750D01*
X160468000Y-87937875D01*
X160483875Y-87922000D01*
X160499750Y-87937875D01*
X160499750Y-87937875D01*
G37*
X160499750Y-87937875D02*
X160483875Y-87953750D01*
X160468000Y-87937875D01*
X160483875Y-87922000D01*
X160499750Y-87937875D01*
G36*
X162841733Y-83947775D02*
X162884240Y-83960947D01*
X162907112Y-83988200D01*
X162919022Y-84016909D01*
X162936055Y-84098253D01*
X162933351Y-84151203D01*
X162933525Y-84206394D01*
X162945460Y-84223718D01*
X162969069Y-84266017D01*
X162972882Y-84295187D01*
X162979879Y-84370256D01*
X163000999Y-84484112D01*
X163020422Y-84572375D01*
X163033514Y-84635672D01*
X163037320Y-84659687D01*
X163065569Y-84680908D01*
X163087375Y-84683500D01*
X163129675Y-84697045D01*
X163135000Y-84708493D01*
X163161929Y-84730343D01*
X163203580Y-84738652D01*
X163266932Y-84753397D01*
X163290893Y-84769221D01*
X163334802Y-84795184D01*
X163373125Y-84805470D01*
X163430065Y-84827032D01*
X163447274Y-84845356D01*
X163477583Y-84860536D01*
X163486961Y-84856449D01*
X163513185Y-84863505D01*
X163516000Y-84879190D01*
X163530572Y-84887166D01*
X163565425Y-84849314D01*
X163612517Y-84796910D01*
X163646127Y-84778750D01*
X163690728Y-84758995D01*
X163740113Y-84720328D01*
X163817179Y-84661093D01*
X163889598Y-84617597D01*
X163982486Y-84564590D01*
X164060175Y-84513894D01*
X164114346Y-84479093D01*
X164154435Y-84475292D01*
X164204213Y-84506398D01*
X164250675Y-84545188D01*
X164329624Y-84615190D01*
X164430712Y-84708680D01*
X164523832Y-84797500D01*
X164606360Y-84873647D01*
X164670796Y-84925691D01*
X164704768Y-84943769D01*
X164706394Y-84943021D01*
X164720006Y-84954129D01*
X164722500Y-84979833D01*
X164701302Y-85041086D01*
X164661645Y-85093604D01*
X164623120Y-85143918D01*
X164619312Y-85172979D01*
X164613542Y-85190083D01*
X164600791Y-85191500D01*
X164567310Y-85216862D01*
X164563750Y-85235728D01*
X164538057Y-85284292D01*
X164514112Y-85299003D01*
X164479384Y-85327637D01*
X164480378Y-85343783D01*
X164469722Y-85379525D01*
X164425281Y-85443674D01*
X164382810Y-85493376D01*
X164325298Y-85564761D01*
X164300125Y-85614621D01*
X164305419Y-85629264D01*
X164337808Y-85667039D01*
X164341500Y-85689409D01*
X164354523Y-85746640D01*
X164386094Y-85830716D01*
X164424965Y-85915573D01*
X164459890Y-85975146D01*
X164469161Y-85985250D01*
X164496051Y-86025700D01*
X164509506Y-86056687D01*
X164555827Y-86101374D01*
X164608504Y-86112250D01*
X164675601Y-86123072D01*
X164705418Y-86142048D01*
X164747772Y-86161407D01*
X164786000Y-86159875D01*
X164844933Y-86162396D01*
X164865724Y-86176314D01*
X164905954Y-86191890D01*
X164929891Y-86186841D01*
X164997059Y-86183829D01*
X165032062Y-86194208D01*
X165112927Y-86217227D01*
X165150963Y-86221417D01*
X165178227Y-86226351D01*
X165196454Y-86246344D01*
X165207590Y-86292189D01*
X165213582Y-86374679D01*
X165216377Y-86504607D01*
X165217167Y-86588500D01*
X165217402Y-86770378D01*
X165214124Y-86896624D01*
X165206353Y-86975053D01*
X165193107Y-87013481D01*
X165173408Y-87019725D01*
X165163673Y-87015068D01*
X165137430Y-87021689D01*
X165135250Y-87034523D01*
X165112109Y-87056953D01*
X165084759Y-87052168D01*
X165021501Y-87046630D01*
X164999050Y-87054560D01*
X164939318Y-87075912D01*
X164898728Y-87082877D01*
X164715498Y-87119242D01*
X164590585Y-87162178D01*
X164528125Y-87201378D01*
X164485321Y-87268330D01*
X164452762Y-87370285D01*
X164435494Y-87416356D01*
X164401634Y-87496134D01*
X164361597Y-87585857D01*
X164325795Y-87661759D01*
X164319819Y-87673661D01*
X164333100Y-87707222D01*
X164379102Y-87769590D01*
X164418326Y-87814734D01*
X164492019Y-87902271D01*
X164552190Y-87985903D01*
X164569554Y-88015448D01*
X164613725Y-88084157D01*
X164651010Y-88122015D01*
X164684905Y-88172401D01*
X164690750Y-88207308D01*
X164669531Y-88253265D01*
X164613702Y-88328996D01*
X164535006Y-88421904D01*
X164445186Y-88519395D01*
X164355983Y-88608872D01*
X164279140Y-88677741D01*
X164226399Y-88713405D01*
X164216749Y-88715750D01*
X164193141Y-88733638D01*
X164197269Y-88745306D01*
X164197480Y-88781230D01*
X164149562Y-88792659D01*
X164111312Y-88787210D01*
X164064165Y-88762602D01*
X164055750Y-88745171D01*
X164029999Y-88719058D01*
X164008125Y-88715750D01*
X163965873Y-88698605D01*
X163960500Y-88684000D01*
X163934783Y-88655832D01*
X163912875Y-88652250D01*
X163870623Y-88635105D01*
X163865250Y-88620500D01*
X163839533Y-88592332D01*
X163817625Y-88588750D01*
X163775373Y-88571605D01*
X163770000Y-88557000D01*
X163744283Y-88528832D01*
X163722375Y-88525250D01*
X163680094Y-88510073D01*
X163674750Y-88497203D01*
X163648364Y-88465048D01*
X163587432Y-88451559D01*
X163519292Y-88461166D01*
X163501669Y-88469138D01*
X163428158Y-88497643D01*
X163358374Y-88513873D01*
X163303487Y-88515706D01*
X163263281Y-88491307D01*
X163222498Y-88427655D01*
X163196472Y-88375699D01*
X163154363Y-88287669D01*
X163125627Y-88225431D01*
X163118285Y-88207750D01*
X163103523Y-88170531D01*
X163073792Y-88101795D01*
X163071500Y-88096625D01*
X163041536Y-88026736D01*
X163026286Y-87986516D01*
X163026049Y-87985500D01*
X163008354Y-87947713D01*
X162997378Y-87929413D01*
X162972598Y-87868855D01*
X162956167Y-87802693D01*
X162928061Y-87718658D01*
X162895623Y-87666617D01*
X162851885Y-87594988D01*
X162839073Y-87555213D01*
X162821532Y-87477001D01*
X162803237Y-87406517D01*
X162795857Y-87356381D01*
X162810426Y-87308670D01*
X162838603Y-87271125D01*
X162849250Y-87271125D01*
X162865125Y-87287000D01*
X162881000Y-87271125D01*
X162865125Y-87255250D01*
X162849250Y-87271125D01*
X162838603Y-87271125D01*
X162855198Y-87249014D01*
X162938425Y-87163044D01*
X162949109Y-87152517D01*
X163033084Y-87065247D01*
X163046988Y-87048875D01*
X163071500Y-87048875D01*
X163087375Y-87064750D01*
X163103250Y-87048875D01*
X163087375Y-87033000D01*
X163071500Y-87048875D01*
X163046988Y-87048875D01*
X163097075Y-86989902D01*
X163128636Y-86941277D01*
X163129672Y-86937858D01*
X163158939Y-86871525D01*
X163176288Y-86846881D01*
X163195048Y-86796067D01*
X163208873Y-86708451D01*
X163216511Y-86606057D01*
X163216707Y-86510910D01*
X163208205Y-86445035D01*
X163200047Y-86429750D01*
X163174058Y-86392667D01*
X163137052Y-86322937D01*
X163132167Y-86312728D01*
X163083106Y-86242707D01*
X162999669Y-86154968D01*
X162899585Y-86068085D01*
X162895893Y-86065205D01*
X162796964Y-85990499D01*
X162724673Y-85947306D01*
X162655954Y-85927616D01*
X162567744Y-85923419D01*
X162492461Y-85925105D01*
X162358437Y-85935527D01*
X162269779Y-85956434D01*
X162242293Y-85973841D01*
X162200658Y-86002997D01*
X162183145Y-86001524D01*
X162146858Y-86011076D01*
X162103125Y-86048750D01*
X162052395Y-86089112D01*
X162019506Y-86093752D01*
X161995865Y-86103416D01*
X161992000Y-86126251D01*
X161975841Y-86169698D01*
X161961065Y-86175750D01*
X161928642Y-86201159D01*
X161886157Y-86261454D01*
X161847557Y-86332734D01*
X161826792Y-86391101D01*
X161826722Y-86405937D01*
X161808969Y-86428501D01*
X161798103Y-86429750D01*
X161776199Y-86452583D01*
X161780040Y-86474270D01*
X161783136Y-86526739D01*
X161775499Y-86540416D01*
X161759555Y-86583354D01*
X161754383Y-86650686D01*
X161759688Y-86714483D01*
X161775174Y-86746811D01*
X161777687Y-86747250D01*
X161796903Y-86769226D01*
X161796596Y-86771062D01*
X161805084Y-86817161D01*
X161833590Y-86889191D01*
X161870952Y-86964124D01*
X161906007Y-87018930D01*
X161923560Y-87033000D01*
X161956499Y-87057783D01*
X161987914Y-87104437D01*
X162039682Y-87168584D01*
X162118228Y-87235376D01*
X162134853Y-87246751D01*
X162243397Y-87317627D01*
X162183362Y-87451721D01*
X162150677Y-87536626D01*
X162137013Y-87597264D01*
X162138912Y-87611032D01*
X162130582Y-87634598D01*
X162119000Y-87636250D01*
X162098295Y-87655590D01*
X162103125Y-87668000D01*
X162103527Y-87697382D01*
X162094205Y-87699750D01*
X162069379Y-87726623D01*
X162037564Y-87791893D01*
X162007883Y-87872534D01*
X161989462Y-87945520D01*
X161987275Y-87969625D01*
X161968274Y-88017672D01*
X161945066Y-88049000D01*
X161910683Y-88108589D01*
X161875918Y-88200114D01*
X161866278Y-88233237D01*
X161830103Y-88332500D01*
X161784355Y-88413026D01*
X161770721Y-88429028D01*
X161733119Y-88478724D01*
X161730062Y-88506729D01*
X161728582Y-88524001D01*
X161686340Y-88526311D01*
X161623574Y-88516335D01*
X161560525Y-88496753D01*
X161528942Y-88480116D01*
X161477600Y-88453714D01*
X161423513Y-88458296D01*
X161355190Y-88487068D01*
X161281710Y-88526870D01*
X161238470Y-88559323D01*
X161235225Y-88564149D01*
X161204573Y-88575326D01*
X161195313Y-88571060D01*
X161161234Y-88579373D01*
X161147073Y-88602430D01*
X161117111Y-88636132D01*
X161099448Y-88634180D01*
X161065879Y-88642832D01*
X161051823Y-88665930D01*
X161021963Y-88699700D01*
X161004423Y-88697818D01*
X160977657Y-88703612D01*
X160976000Y-88713876D01*
X160959050Y-88742480D01*
X160952187Y-88742459D01*
X160906247Y-88749635D01*
X160869749Y-88762906D01*
X160821016Y-88766753D01*
X160763907Y-88730154D01*
X160708192Y-88672697D01*
X160641163Y-88605004D01*
X160586803Y-88563348D01*
X160569498Y-88557000D01*
X160528543Y-88531989D01*
X160497040Y-88488437D01*
X160446849Y-88417095D01*
X160382514Y-88347743D01*
X160331531Y-88289976D01*
X160326178Y-88241563D01*
X160339833Y-88209930D01*
X160359354Y-88159876D01*
X160354474Y-88144250D01*
X160360698Y-88126493D01*
X160403383Y-88083250D01*
X160408920Y-88078331D01*
X160446508Y-88040649D01*
X160441829Y-88033395D01*
X160436250Y-88035899D01*
X160424408Y-88033210D01*
X160453961Y-87997428D01*
X160468871Y-87982755D01*
X160539698Y-87895946D01*
X160591786Y-87802937D01*
X160627603Y-87734240D01*
X160659749Y-87700468D01*
X160663469Y-87699750D01*
X160674484Y-87677094D01*
X160660734Y-87640424D01*
X160644070Y-87583760D01*
X160650760Y-87559323D01*
X160650734Y-87525471D01*
X160640051Y-87515461D01*
X160605559Y-87472075D01*
X160562586Y-87394576D01*
X160523668Y-87308770D01*
X160501342Y-87240465D01*
X160499750Y-87226639D01*
X160476127Y-87193335D01*
X160466126Y-87191750D01*
X160447055Y-87172348D01*
X160451900Y-87160363D01*
X160446789Y-87142321D01*
X160422024Y-87147885D01*
X160380057Y-87150994D01*
X160372750Y-87139584D01*
X160345481Y-87116828D01*
X160293375Y-87105760D01*
X160207794Y-87098679D01*
X160158437Y-87094643D01*
X160092753Y-87083877D01*
X159999585Y-87062832D01*
X159975875Y-87056765D01*
X159882701Y-87035981D01*
X159809760Y-87026001D01*
X159797933Y-87025873D01*
X159761213Y-87009101D01*
X159757092Y-86946154D01*
X159757425Y-86943366D01*
X159762852Y-86874969D01*
X159768743Y-86762105D01*
X159774179Y-86623792D01*
X159776527Y-86547923D01*
X159785195Y-86237471D01*
X159896410Y-86209789D01*
X159984606Y-86190265D01*
X160051000Y-86179659D01*
X160055250Y-86179342D01*
X160127344Y-86172573D01*
X160209754Y-86161580D01*
X160276483Y-86150185D01*
X160301312Y-86143180D01*
X160333062Y-86129505D01*
X160441328Y-86097901D01*
X160498847Y-86075273D01*
X160516768Y-86056423D01*
X160513531Y-86045363D01*
X160518857Y-86018593D01*
X160528629Y-86017000D01*
X160547705Y-85993802D01*
X160542981Y-85969375D01*
X160545245Y-85928645D01*
X160561726Y-85921750D01*
X160583843Y-85902498D01*
X160579125Y-85890000D01*
X160581642Y-85860742D01*
X160593126Y-85858250D01*
X160618397Y-85831090D01*
X160626750Y-85778875D01*
X160638344Y-85719218D01*
X160660639Y-85699500D01*
X160678895Y-85675974D01*
X160669577Y-85619334D01*
X160638488Y-85550488D01*
X160607050Y-85506423D01*
X160580112Y-85457942D01*
X160583600Y-85435733D01*
X160577155Y-85409586D01*
X160551919Y-85395225D01*
X160506960Y-85356111D01*
X160499750Y-85330978D01*
X160485802Y-85290897D01*
X160475637Y-85286750D01*
X160442298Y-85262883D01*
X160409793Y-85219927D01*
X160384524Y-85173867D01*
X160396481Y-85169846D01*
X160410093Y-85176971D01*
X160419864Y-85175195D01*
X160389120Y-85139753D01*
X160380687Y-85131432D01*
X160330567Y-85075293D01*
X160309257Y-85036646D01*
X160309250Y-85036276D01*
X160330659Y-84983651D01*
X160386593Y-84903245D01*
X160464611Y-84810014D01*
X160552271Y-84718915D01*
X160574465Y-84699375D01*
X160595000Y-84699375D01*
X160610875Y-84715250D01*
X160626750Y-84699375D01*
X160610875Y-84683500D01*
X160595000Y-84699375D01*
X160574465Y-84699375D01*
X160630620Y-84649937D01*
X160709172Y-84585767D01*
X160764247Y-84535783D01*
X160780274Y-84516850D01*
X160810974Y-84506357D01*
X160819961Y-84510550D01*
X160847233Y-84505658D01*
X160849000Y-84495416D01*
X160871955Y-84488020D01*
X160930762Y-84510506D01*
X161010331Y-84554846D01*
X161095572Y-84613010D01*
X161145345Y-84653095D01*
X161207151Y-84700481D01*
X161249509Y-84721899D01*
X161250977Y-84722000D01*
X161293876Y-84738670D01*
X161357000Y-84777073D01*
X161451209Y-84833675D01*
X161517874Y-84856741D01*
X161546989Y-84843080D01*
X161547500Y-84837856D01*
X161570561Y-84817286D01*
X161594206Y-84821629D01*
X161654557Y-84817448D01*
X161681518Y-84799872D01*
X161737469Y-84762062D01*
X161821093Y-84721646D01*
X161833250Y-84716757D01*
X161915032Y-84679999D01*
X161971326Y-84646226D01*
X161976125Y-84642003D01*
X161986306Y-84625276D01*
X161960250Y-84637311D01*
X161929550Y-84650619D01*
X161943691Y-84625817D01*
X161954341Y-84612459D01*
X161988266Y-84545179D01*
X162011296Y-84455648D01*
X162011309Y-84455552D01*
X162032977Y-84316630D01*
X162054942Y-84193896D01*
X162074262Y-84102501D01*
X162087997Y-84057596D01*
X162088789Y-84056437D01*
X162097487Y-84022571D01*
X162099205Y-84008812D01*
X162132096Y-83981348D01*
X162216863Y-83966342D01*
X162246049Y-83964885D01*
X162350135Y-83961320D01*
X162488596Y-83955961D01*
X162632372Y-83949934D01*
X162639464Y-83949622D01*
X162765005Y-83945170D01*
X162841733Y-83947775D01*
X162841733Y-83947775D01*
G37*
X162841733Y-83947775D02*
X162884240Y-83960947D01*
X162907112Y-83988200D01*
X162919022Y-84016909D01*
X162936055Y-84098253D01*
X162933351Y-84151203D01*
X162933525Y-84206394D01*
X162945460Y-84223718D01*
X162969069Y-84266017D01*
X162972882Y-84295187D01*
X162979879Y-84370256D01*
X163000999Y-84484112D01*
X163020422Y-84572375D01*
X163033514Y-84635672D01*
X163037320Y-84659687D01*
X163065569Y-84680908D01*
X163087375Y-84683500D01*
X163129675Y-84697045D01*
X163135000Y-84708493D01*
X163161929Y-84730343D01*
X163203580Y-84738652D01*
X163266932Y-84753397D01*
X163290893Y-84769221D01*
X163334802Y-84795184D01*
X163373125Y-84805470D01*
X163430065Y-84827032D01*
X163447274Y-84845356D01*
X163477583Y-84860536D01*
X163486961Y-84856449D01*
X163513185Y-84863505D01*
X163516000Y-84879190D01*
X163530572Y-84887166D01*
X163565425Y-84849314D01*
X163612517Y-84796910D01*
X163646127Y-84778750D01*
X163690728Y-84758995D01*
X163740113Y-84720328D01*
X163817179Y-84661093D01*
X163889598Y-84617597D01*
X163982486Y-84564590D01*
X164060175Y-84513894D01*
X164114346Y-84479093D01*
X164154435Y-84475292D01*
X164204213Y-84506398D01*
X164250675Y-84545188D01*
X164329624Y-84615190D01*
X164430712Y-84708680D01*
X164523832Y-84797500D01*
X164606360Y-84873647D01*
X164670796Y-84925691D01*
X164704768Y-84943769D01*
X164706394Y-84943021D01*
X164720006Y-84954129D01*
X164722500Y-84979833D01*
X164701302Y-85041086D01*
X164661645Y-85093604D01*
X164623120Y-85143918D01*
X164619312Y-85172979D01*
X164613542Y-85190083D01*
X164600791Y-85191500D01*
X164567310Y-85216862D01*
X164563750Y-85235728D01*
X164538057Y-85284292D01*
X164514112Y-85299003D01*
X164479384Y-85327637D01*
X164480378Y-85343783D01*
X164469722Y-85379525D01*
X164425281Y-85443674D01*
X164382810Y-85493376D01*
X164325298Y-85564761D01*
X164300125Y-85614621D01*
X164305419Y-85629264D01*
X164337808Y-85667039D01*
X164341500Y-85689409D01*
X164354523Y-85746640D01*
X164386094Y-85830716D01*
X164424965Y-85915573D01*
X164459890Y-85975146D01*
X164469161Y-85985250D01*
X164496051Y-86025700D01*
X164509506Y-86056687D01*
X164555827Y-86101374D01*
X164608504Y-86112250D01*
X164675601Y-86123072D01*
X164705418Y-86142048D01*
X164747772Y-86161407D01*
X164786000Y-86159875D01*
X164844933Y-86162396D01*
X164865724Y-86176314D01*
X164905954Y-86191890D01*
X164929891Y-86186841D01*
X164997059Y-86183829D01*
X165032062Y-86194208D01*
X165112927Y-86217227D01*
X165150963Y-86221417D01*
X165178227Y-86226351D01*
X165196454Y-86246344D01*
X165207590Y-86292189D01*
X165213582Y-86374679D01*
X165216377Y-86504607D01*
X165217167Y-86588500D01*
X165217402Y-86770378D01*
X165214124Y-86896624D01*
X165206353Y-86975053D01*
X165193107Y-87013481D01*
X165173408Y-87019725D01*
X165163673Y-87015068D01*
X165137430Y-87021689D01*
X165135250Y-87034523D01*
X165112109Y-87056953D01*
X165084759Y-87052168D01*
X165021501Y-87046630D01*
X164999050Y-87054560D01*
X164939318Y-87075912D01*
X164898728Y-87082877D01*
X164715498Y-87119242D01*
X164590585Y-87162178D01*
X164528125Y-87201378D01*
X164485321Y-87268330D01*
X164452762Y-87370285D01*
X164435494Y-87416356D01*
X164401634Y-87496134D01*
X164361597Y-87585857D01*
X164325795Y-87661759D01*
X164319819Y-87673661D01*
X164333100Y-87707222D01*
X164379102Y-87769590D01*
X164418326Y-87814734D01*
X164492019Y-87902271D01*
X164552190Y-87985903D01*
X164569554Y-88015448D01*
X164613725Y-88084157D01*
X164651010Y-88122015D01*
X164684905Y-88172401D01*
X164690750Y-88207308D01*
X164669531Y-88253265D01*
X164613702Y-88328996D01*
X164535006Y-88421904D01*
X164445186Y-88519395D01*
X164355983Y-88608872D01*
X164279140Y-88677741D01*
X164226399Y-88713405D01*
X164216749Y-88715750D01*
X164193141Y-88733638D01*
X164197269Y-88745306D01*
X164197480Y-88781230D01*
X164149562Y-88792659D01*
X164111312Y-88787210D01*
X164064165Y-88762602D01*
X164055750Y-88745171D01*
X164029999Y-88719058D01*
X164008125Y-88715750D01*
X163965873Y-88698605D01*
X163960500Y-88684000D01*
X163934783Y-88655832D01*
X163912875Y-88652250D01*
X163870623Y-88635105D01*
X163865250Y-88620500D01*
X163839533Y-88592332D01*
X163817625Y-88588750D01*
X163775373Y-88571605D01*
X163770000Y-88557000D01*
X163744283Y-88528832D01*
X163722375Y-88525250D01*
X163680094Y-88510073D01*
X163674750Y-88497203D01*
X163648364Y-88465048D01*
X163587432Y-88451559D01*
X163519292Y-88461166D01*
X163501669Y-88469138D01*
X163428158Y-88497643D01*
X163358374Y-88513873D01*
X163303487Y-88515706D01*
X163263281Y-88491307D01*
X163222498Y-88427655D01*
X163196472Y-88375699D01*
X163154363Y-88287669D01*
X163125627Y-88225431D01*
X163118285Y-88207750D01*
X163103523Y-88170531D01*
X163073792Y-88101795D01*
X163071500Y-88096625D01*
X163041536Y-88026736D01*
X163026286Y-87986516D01*
X163026049Y-87985500D01*
X163008354Y-87947713D01*
X162997378Y-87929413D01*
X162972598Y-87868855D01*
X162956167Y-87802693D01*
X162928061Y-87718658D01*
X162895623Y-87666617D01*
X162851885Y-87594988D01*
X162839073Y-87555213D01*
X162821532Y-87477001D01*
X162803237Y-87406517D01*
X162795857Y-87356381D01*
X162810426Y-87308670D01*
X162838603Y-87271125D01*
X162849250Y-87271125D01*
X162865125Y-87287000D01*
X162881000Y-87271125D01*
X162865125Y-87255250D01*
X162849250Y-87271125D01*
X162838603Y-87271125D01*
X162855198Y-87249014D01*
X162938425Y-87163044D01*
X162949109Y-87152517D01*
X163033084Y-87065247D01*
X163046988Y-87048875D01*
X163071500Y-87048875D01*
X163087375Y-87064750D01*
X163103250Y-87048875D01*
X163087375Y-87033000D01*
X163071500Y-87048875D01*
X163046988Y-87048875D01*
X163097075Y-86989902D01*
X163128636Y-86941277D01*
X163129672Y-86937858D01*
X163158939Y-86871525D01*
X163176288Y-86846881D01*
X163195048Y-86796067D01*
X163208873Y-86708451D01*
X163216511Y-86606057D01*
X163216707Y-86510910D01*
X163208205Y-86445035D01*
X163200047Y-86429750D01*
X163174058Y-86392667D01*
X163137052Y-86322937D01*
X163132167Y-86312728D01*
X163083106Y-86242707D01*
X162999669Y-86154968D01*
X162899585Y-86068085D01*
X162895893Y-86065205D01*
X162796964Y-85990499D01*
X162724673Y-85947306D01*
X162655954Y-85927616D01*
X162567744Y-85923419D01*
X162492461Y-85925105D01*
X162358437Y-85935527D01*
X162269779Y-85956434D01*
X162242293Y-85973841D01*
X162200658Y-86002997D01*
X162183145Y-86001524D01*
X162146858Y-86011076D01*
X162103125Y-86048750D01*
X162052395Y-86089112D01*
X162019506Y-86093752D01*
X161995865Y-86103416D01*
X161992000Y-86126251D01*
X161975841Y-86169698D01*
X161961065Y-86175750D01*
X161928642Y-86201159D01*
X161886157Y-86261454D01*
X161847557Y-86332734D01*
X161826792Y-86391101D01*
X161826722Y-86405937D01*
X161808969Y-86428501D01*
X161798103Y-86429750D01*
X161776199Y-86452583D01*
X161780040Y-86474270D01*
X161783136Y-86526739D01*
X161775499Y-86540416D01*
X161759555Y-86583354D01*
X161754383Y-86650686D01*
X161759688Y-86714483D01*
X161775174Y-86746811D01*
X161777687Y-86747250D01*
X161796903Y-86769226D01*
X161796596Y-86771062D01*
X161805084Y-86817161D01*
X161833590Y-86889191D01*
X161870952Y-86964124D01*
X161906007Y-87018930D01*
X161923560Y-87033000D01*
X161956499Y-87057783D01*
X161987914Y-87104437D01*
X162039682Y-87168584D01*
X162118228Y-87235376D01*
X162134853Y-87246751D01*
X162243397Y-87317627D01*
X162183362Y-87451721D01*
X162150677Y-87536626D01*
X162137013Y-87597264D01*
X162138912Y-87611032D01*
X162130582Y-87634598D01*
X162119000Y-87636250D01*
X162098295Y-87655590D01*
X162103125Y-87668000D01*
X162103527Y-87697382D01*
X162094205Y-87699750D01*
X162069379Y-87726623D01*
X162037564Y-87791893D01*
X162007883Y-87872534D01*
X161989462Y-87945520D01*
X161987275Y-87969625D01*
X161968274Y-88017672D01*
X161945066Y-88049000D01*
X161910683Y-88108589D01*
X161875918Y-88200114D01*
X161866278Y-88233237D01*
X161830103Y-88332500D01*
X161784355Y-88413026D01*
X161770721Y-88429028D01*
X161733119Y-88478724D01*
X161730062Y-88506729D01*
X161728582Y-88524001D01*
X161686340Y-88526311D01*
X161623574Y-88516335D01*
X161560525Y-88496753D01*
X161528942Y-88480116D01*
X161477600Y-88453714D01*
X161423513Y-88458296D01*
X161355190Y-88487068D01*
X161281710Y-88526870D01*
X161238470Y-88559323D01*
X161235225Y-88564149D01*
X161204573Y-88575326D01*
X161195313Y-88571060D01*
X161161234Y-88579373D01*
X161147073Y-88602430D01*
X161117111Y-88636132D01*
X161099448Y-88634180D01*
X161065879Y-88642832D01*
X161051823Y-88665930D01*
X161021963Y-88699700D01*
X161004423Y-88697818D01*
X160977657Y-88703612D01*
X160976000Y-88713876D01*
X160959050Y-88742480D01*
X160952187Y-88742459D01*
X160906247Y-88749635D01*
X160869749Y-88762906D01*
X160821016Y-88766753D01*
X160763907Y-88730154D01*
X160708192Y-88672697D01*
X160641163Y-88605004D01*
X160586803Y-88563348D01*
X160569498Y-88557000D01*
X160528543Y-88531989D01*
X160497040Y-88488437D01*
X160446849Y-88417095D01*
X160382514Y-88347743D01*
X160331531Y-88289976D01*
X160326178Y-88241563D01*
X160339833Y-88209930D01*
X160359354Y-88159876D01*
X160354474Y-88144250D01*
X160360698Y-88126493D01*
X160403383Y-88083250D01*
X160408920Y-88078331D01*
X160446508Y-88040649D01*
X160441829Y-88033395D01*
X160436250Y-88035899D01*
X160424408Y-88033210D01*
X160453961Y-87997428D01*
X160468871Y-87982755D01*
X160539698Y-87895946D01*
X160591786Y-87802937D01*
X160627603Y-87734240D01*
X160659749Y-87700468D01*
X160663469Y-87699750D01*
X160674484Y-87677094D01*
X160660734Y-87640424D01*
X160644070Y-87583760D01*
X160650760Y-87559323D01*
X160650734Y-87525471D01*
X160640051Y-87515461D01*
X160605559Y-87472075D01*
X160562586Y-87394576D01*
X160523668Y-87308770D01*
X160501342Y-87240465D01*
X160499750Y-87226639D01*
X160476127Y-87193335D01*
X160466126Y-87191750D01*
X160447055Y-87172348D01*
X160451900Y-87160363D01*
X160446789Y-87142321D01*
X160422024Y-87147885D01*
X160380057Y-87150994D01*
X160372750Y-87139584D01*
X160345481Y-87116828D01*
X160293375Y-87105760D01*
X160207794Y-87098679D01*
X160158437Y-87094643D01*
X160092753Y-87083877D01*
X159999585Y-87062832D01*
X159975875Y-87056765D01*
X159882701Y-87035981D01*
X159809760Y-87026001D01*
X159797933Y-87025873D01*
X159761213Y-87009101D01*
X159757092Y-86946154D01*
X159757425Y-86943366D01*
X159762852Y-86874969D01*
X159768743Y-86762105D01*
X159774179Y-86623792D01*
X159776527Y-86547923D01*
X159785195Y-86237471D01*
X159896410Y-86209789D01*
X159984606Y-86190265D01*
X160051000Y-86179659D01*
X160055250Y-86179342D01*
X160127344Y-86172573D01*
X160209754Y-86161580D01*
X160276483Y-86150185D01*
X160301312Y-86143180D01*
X160333062Y-86129505D01*
X160441328Y-86097901D01*
X160498847Y-86075273D01*
X160516768Y-86056423D01*
X160513531Y-86045363D01*
X160518857Y-86018593D01*
X160528629Y-86017000D01*
X160547705Y-85993802D01*
X160542981Y-85969375D01*
X160545245Y-85928645D01*
X160561726Y-85921750D01*
X160583843Y-85902498D01*
X160579125Y-85890000D01*
X160581642Y-85860742D01*
X160593126Y-85858250D01*
X160618397Y-85831090D01*
X160626750Y-85778875D01*
X160638344Y-85719218D01*
X160660639Y-85699500D01*
X160678895Y-85675974D01*
X160669577Y-85619334D01*
X160638488Y-85550488D01*
X160607050Y-85506423D01*
X160580112Y-85457942D01*
X160583600Y-85435733D01*
X160577155Y-85409586D01*
X160551919Y-85395225D01*
X160506960Y-85356111D01*
X160499750Y-85330978D01*
X160485802Y-85290897D01*
X160475637Y-85286750D01*
X160442298Y-85262883D01*
X160409793Y-85219927D01*
X160384524Y-85173867D01*
X160396481Y-85169846D01*
X160410093Y-85176971D01*
X160419864Y-85175195D01*
X160389120Y-85139753D01*
X160380687Y-85131432D01*
X160330567Y-85075293D01*
X160309257Y-85036646D01*
X160309250Y-85036276D01*
X160330659Y-84983651D01*
X160386593Y-84903245D01*
X160464611Y-84810014D01*
X160552271Y-84718915D01*
X160574465Y-84699375D01*
X160595000Y-84699375D01*
X160610875Y-84715250D01*
X160626750Y-84699375D01*
X160610875Y-84683500D01*
X160595000Y-84699375D01*
X160574465Y-84699375D01*
X160630620Y-84649937D01*
X160709172Y-84585767D01*
X160764247Y-84535783D01*
X160780274Y-84516850D01*
X160810974Y-84506357D01*
X160819961Y-84510550D01*
X160847233Y-84505658D01*
X160849000Y-84495416D01*
X160871955Y-84488020D01*
X160930762Y-84510506D01*
X161010331Y-84554846D01*
X161095572Y-84613010D01*
X161145345Y-84653095D01*
X161207151Y-84700481D01*
X161249509Y-84721899D01*
X161250977Y-84722000D01*
X161293876Y-84738670D01*
X161357000Y-84777073D01*
X161451209Y-84833675D01*
X161517874Y-84856741D01*
X161546989Y-84843080D01*
X161547500Y-84837856D01*
X161570561Y-84817286D01*
X161594206Y-84821629D01*
X161654557Y-84817448D01*
X161681518Y-84799872D01*
X161737469Y-84762062D01*
X161821093Y-84721646D01*
X161833250Y-84716757D01*
X161915032Y-84679999D01*
X161971326Y-84646226D01*
X161976125Y-84642003D01*
X161986306Y-84625276D01*
X161960250Y-84637311D01*
X161929550Y-84650619D01*
X161943691Y-84625817D01*
X161954341Y-84612459D01*
X161988266Y-84545179D01*
X162011296Y-84455648D01*
X162011309Y-84455552D01*
X162032977Y-84316630D01*
X162054942Y-84193896D01*
X162074262Y-84102501D01*
X162087997Y-84057596D01*
X162088789Y-84056437D01*
X162097487Y-84022571D01*
X162099205Y-84008812D01*
X162132096Y-83981348D01*
X162216863Y-83966342D01*
X162246049Y-83964885D01*
X162350135Y-83961320D01*
X162488596Y-83955961D01*
X162632372Y-83949934D01*
X162639464Y-83949622D01*
X162765005Y-83945170D01*
X162841733Y-83947775D01*
G36*
X164749344Y-90062093D02*
X164783429Y-90094062D01*
X164776437Y-90112440D01*
X164771998Y-90112750D01*
X164745144Y-90090198D01*
X164735343Y-90076094D01*
X164731600Y-90054367D01*
X164749344Y-90062093D01*
X164749344Y-90062093D01*
G37*
X164749344Y-90062093D02*
X164783429Y-90094062D01*
X164776437Y-90112440D01*
X164771998Y-90112750D01*
X164745144Y-90090198D01*
X164735343Y-90076094D01*
X164731600Y-90054367D01*
X164749344Y-90062093D01*
G36*
X166402094Y-89465179D02*
X166481880Y-89535028D01*
X166496663Y-89561383D01*
X166518475Y-89648653D01*
X166506977Y-89721858D01*
X166466660Y-89761230D01*
X166450735Y-89763500D01*
X166409330Y-89778512D01*
X166415689Y-89810926D01*
X166465501Y-89841807D01*
X166468812Y-89842894D01*
X166513032Y-89871280D01*
X166515791Y-89928048D01*
X166511306Y-89948222D01*
X166471604Y-90030298D01*
X166425097Y-90079605D01*
X166367131Y-90106184D01*
X166286960Y-90126714D01*
X166203179Y-90138956D01*
X166134389Y-90140675D01*
X166099186Y-90129632D01*
X166099939Y-90118713D01*
X166089951Y-90087930D01*
X166055642Y-90071707D01*
X166020852Y-90054811D01*
X166007992Y-90033375D01*
X166024250Y-90033375D01*
X166040125Y-90049250D01*
X166056000Y-90033375D01*
X166040125Y-90017500D01*
X166024250Y-90033375D01*
X166007992Y-90033375D01*
X165998997Y-90018382D01*
X165989312Y-89959592D01*
X166177628Y-89959592D01*
X166211969Y-89976337D01*
X166234481Y-89978788D01*
X166292034Y-89971763D01*
X166310000Y-89951770D01*
X166329472Y-89933139D01*
X166341750Y-89938125D01*
X166364095Y-89926470D01*
X166370993Y-89868561D01*
X166364705Y-89817850D01*
X166352950Y-89817965D01*
X166352406Y-89819260D01*
X166321190Y-89845020D01*
X166307288Y-89841199D01*
X166280254Y-89847061D01*
X166278250Y-89858750D01*
X166261881Y-89881801D01*
X166252854Y-89878552D01*
X166218210Y-89888493D01*
X166193211Y-89917697D01*
X166177628Y-89959592D01*
X165989312Y-89959592D01*
X165987874Y-89950864D01*
X165985281Y-89840700D01*
X165987816Y-89715875D01*
X165992276Y-89668036D01*
X166159995Y-89668036D01*
X166161286Y-89708676D01*
X166185121Y-89712861D01*
X166247927Y-89683386D01*
X166248489Y-89683096D01*
X166311949Y-89646230D01*
X166341479Y-89621097D01*
X166341750Y-89619809D01*
X166314261Y-89608925D01*
X166253256Y-89604750D01*
X166184508Y-89618021D01*
X166160316Y-89664409D01*
X166159995Y-89668036D01*
X165992276Y-89668036D01*
X165997817Y-89608614D01*
X166026350Y-89539453D01*
X166073739Y-89490905D01*
X166177720Y-89439734D01*
X166293940Y-89432287D01*
X166402094Y-89465179D01*
X166402094Y-89465179D01*
G37*
X166402094Y-89465179D02*
X166481880Y-89535028D01*
X166496663Y-89561383D01*
X166518475Y-89648653D01*
X166506977Y-89721858D01*
X166466660Y-89761230D01*
X166450735Y-89763500D01*
X166409330Y-89778512D01*
X166415689Y-89810926D01*
X166465501Y-89841807D01*
X166468812Y-89842894D01*
X166513032Y-89871280D01*
X166515791Y-89928048D01*
X166511306Y-89948222D01*
X166471604Y-90030298D01*
X166425097Y-90079605D01*
X166367131Y-90106184D01*
X166286960Y-90126714D01*
X166203179Y-90138956D01*
X166134389Y-90140675D01*
X166099186Y-90129632D01*
X166099939Y-90118713D01*
X166089951Y-90087930D01*
X166055642Y-90071707D01*
X166020852Y-90054811D01*
X166007992Y-90033375D01*
X166024250Y-90033375D01*
X166040125Y-90049250D01*
X166056000Y-90033375D01*
X166040125Y-90017500D01*
X166024250Y-90033375D01*
X166007992Y-90033375D01*
X165998997Y-90018382D01*
X165989312Y-89959592D01*
X166177628Y-89959592D01*
X166211969Y-89976337D01*
X166234481Y-89978788D01*
X166292034Y-89971763D01*
X166310000Y-89951770D01*
X166329472Y-89933139D01*
X166341750Y-89938125D01*
X166364095Y-89926470D01*
X166370993Y-89868561D01*
X166364705Y-89817850D01*
X166352950Y-89817965D01*
X166352406Y-89819260D01*
X166321190Y-89845020D01*
X166307288Y-89841199D01*
X166280254Y-89847061D01*
X166278250Y-89858750D01*
X166261881Y-89881801D01*
X166252854Y-89878552D01*
X166218210Y-89888493D01*
X166193211Y-89917697D01*
X166177628Y-89959592D01*
X165989312Y-89959592D01*
X165987874Y-89950864D01*
X165985281Y-89840700D01*
X165987816Y-89715875D01*
X165992276Y-89668036D01*
X166159995Y-89668036D01*
X166161286Y-89708676D01*
X166185121Y-89712861D01*
X166247927Y-89683386D01*
X166248489Y-89683096D01*
X166311949Y-89646230D01*
X166341479Y-89621097D01*
X166341750Y-89619809D01*
X166314261Y-89608925D01*
X166253256Y-89604750D01*
X166184508Y-89618021D01*
X166160316Y-89664409D01*
X166159995Y-89668036D01*
X165992276Y-89668036D01*
X165997817Y-89608614D01*
X166026350Y-89539453D01*
X166073739Y-89490905D01*
X166177720Y-89439734D01*
X166293940Y-89432287D01*
X166402094Y-89465179D01*
G36*
X165697984Y-89440258D02*
X165762773Y-89457384D01*
X165811368Y-89485804D01*
X165817818Y-89509592D01*
X165823169Y-89548276D01*
X165833232Y-89556804D01*
X165858217Y-89600843D01*
X165865500Y-89654248D01*
X165846901Y-89716334D01*
X165801497Y-89728873D01*
X165744877Y-89689596D01*
X165732362Y-89673635D01*
X165667624Y-89617947D01*
X165620541Y-89597521D01*
X165562415Y-89601727D01*
X165523177Y-89654020D01*
X165498643Y-89760964D01*
X165494504Y-89795250D01*
X165482569Y-89894122D01*
X165474348Y-89954000D01*
X165463097Y-90039213D01*
X165457719Y-90088937D01*
X165434917Y-90137595D01*
X165394855Y-90137464D01*
X165375965Y-90116941D01*
X165368725Y-90074532D01*
X165364029Y-89985005D01*
X165362571Y-89864716D01*
X165363038Y-89812469D01*
X165368629Y-89663490D01*
X165380890Y-89570178D01*
X165401032Y-89524935D01*
X165409765Y-89519201D01*
X165438240Y-89489325D01*
X165435043Y-89474786D01*
X165442813Y-89459893D01*
X165466975Y-89465635D01*
X165508893Y-89467800D01*
X165516250Y-89455297D01*
X165543525Y-89435247D01*
X165611187Y-89430294D01*
X165697984Y-89440258D01*
X165697984Y-89440258D01*
G37*
X165697984Y-89440258D02*
X165762773Y-89457384D01*
X165811368Y-89485804D01*
X165817818Y-89509592D01*
X165823169Y-89548276D01*
X165833232Y-89556804D01*
X165858217Y-89600843D01*
X165865500Y-89654248D01*
X165846901Y-89716334D01*
X165801497Y-89728873D01*
X165744877Y-89689596D01*
X165732362Y-89673635D01*
X165667624Y-89617947D01*
X165620541Y-89597521D01*
X165562415Y-89601727D01*
X165523177Y-89654020D01*
X165498643Y-89760964D01*
X165494504Y-89795250D01*
X165482569Y-89894122D01*
X165474348Y-89954000D01*
X165463097Y-90039213D01*
X165457719Y-90088937D01*
X165434917Y-90137595D01*
X165394855Y-90137464D01*
X165375965Y-90116941D01*
X165368725Y-90074532D01*
X165364029Y-89985005D01*
X165362571Y-89864716D01*
X165363038Y-89812469D01*
X165368629Y-89663490D01*
X165380890Y-89570178D01*
X165401032Y-89524935D01*
X165409765Y-89519201D01*
X165438240Y-89489325D01*
X165435043Y-89474786D01*
X165442813Y-89459893D01*
X165466975Y-89465635D01*
X165508893Y-89467800D01*
X165516250Y-89455297D01*
X165543525Y-89435247D01*
X165611187Y-89430294D01*
X165697984Y-89440258D01*
G36*
X163189626Y-89443064D02*
X163263467Y-89526435D01*
X163292126Y-89598476D01*
X163302200Y-89684769D01*
X163275945Y-89722893D01*
X163222085Y-89709432D01*
X163194210Y-89684125D01*
X163262000Y-89684125D01*
X163277875Y-89700000D01*
X163293750Y-89684125D01*
X163277875Y-89668250D01*
X163262000Y-89684125D01*
X163194210Y-89684125D01*
X163157826Y-89651093D01*
X163101440Y-89595271D01*
X163056170Y-89584415D01*
X163015877Y-89600534D01*
X162963375Y-89649686D01*
X162948918Y-89692121D01*
X162946188Y-89754054D01*
X162938688Y-89852697D01*
X162932326Y-89922250D01*
X162922666Y-90023002D01*
X162915925Y-90096746D01*
X162914010Y-90120687D01*
X162886270Y-90140223D01*
X162850640Y-90144500D01*
X162819986Y-90139011D01*
X162801515Y-90114153D01*
X162792249Y-90057334D01*
X162789213Y-89955965D01*
X162789102Y-89884139D01*
X162798841Y-89695923D01*
X162830088Y-89561875D01*
X162887321Y-89474988D01*
X162975022Y-89428257D01*
X163089244Y-89414683D01*
X163189626Y-89443064D01*
X163189626Y-89443064D01*
G37*
X163189626Y-89443064D02*
X163263467Y-89526435D01*
X163292126Y-89598476D01*
X163302200Y-89684769D01*
X163275945Y-89722893D01*
X163222085Y-89709432D01*
X163194210Y-89684125D01*
X163262000Y-89684125D01*
X163277875Y-89700000D01*
X163293750Y-89684125D01*
X163277875Y-89668250D01*
X163262000Y-89684125D01*
X163194210Y-89684125D01*
X163157826Y-89651093D01*
X163101440Y-89595271D01*
X163056170Y-89584415D01*
X163015877Y-89600534D01*
X162963375Y-89649686D01*
X162948918Y-89692121D01*
X162946188Y-89754054D01*
X162938688Y-89852697D01*
X162932326Y-89922250D01*
X162922666Y-90023002D01*
X162915925Y-90096746D01*
X162914010Y-90120687D01*
X162886270Y-90140223D01*
X162850640Y-90144500D01*
X162819986Y-90139011D01*
X162801515Y-90114153D01*
X162792249Y-90057334D01*
X162789213Y-89955965D01*
X162789102Y-89884139D01*
X162798841Y-89695923D01*
X162830088Y-89561875D01*
X162887321Y-89474988D01*
X162975022Y-89428257D01*
X163089244Y-89414683D01*
X163189626Y-89443064D01*
G36*
X162534996Y-89441504D02*
X162610922Y-89485500D01*
X162641845Y-89523240D01*
X162661564Y-89576332D01*
X162672861Y-89659188D01*
X162678514Y-89786223D01*
X162679640Y-89841772D01*
X162684656Y-90138732D01*
X162466817Y-90137823D01*
X162333134Y-90132215D01*
X162249265Y-90115008D01*
X162203500Y-90085145D01*
X162176366Y-90023652D01*
X162171502Y-89964436D01*
X162364294Y-89964436D01*
X162399173Y-89989293D01*
X162474351Y-89998031D01*
X162514990Y-89964341D01*
X162517654Y-89927992D01*
X162488407Y-89881759D01*
X162435248Y-89880750D01*
X162383298Y-89921435D01*
X162364294Y-89964436D01*
X162171502Y-89964436D01*
X162169745Y-89943046D01*
X162182636Y-89870301D01*
X162212881Y-89832747D01*
X162243320Y-89795901D01*
X162246000Y-89777725D01*
X162224176Y-89748215D01*
X162198375Y-89752018D01*
X162162597Y-89744328D01*
X162162553Y-89744151D01*
X162288490Y-89744151D01*
X162301331Y-89750421D01*
X162357936Y-89723655D01*
X162368838Y-89718026D01*
X162439228Y-89676267D01*
X162480754Y-89641780D01*
X162481929Y-89640052D01*
X162478857Y-89607585D01*
X162433990Y-89593453D01*
X162367706Y-89603067D01*
X162357125Y-89606912D01*
X162317140Y-89627202D01*
X162318554Y-89634268D01*
X162325135Y-89659205D01*
X162308469Y-89701926D01*
X162288490Y-89744151D01*
X162162553Y-89744151D01*
X162150592Y-89696111D01*
X162160862Y-89625096D01*
X162191907Y-89549011D01*
X162218879Y-89509500D01*
X162306680Y-89448469D01*
X162420694Y-89425275D01*
X162534996Y-89441504D01*
X162534996Y-89441504D01*
G37*
X162534996Y-89441504D02*
X162610922Y-89485500D01*
X162641845Y-89523240D01*
X162661564Y-89576332D01*
X162672861Y-89659188D01*
X162678514Y-89786223D01*
X162679640Y-89841772D01*
X162684656Y-90138732D01*
X162466817Y-90137823D01*
X162333134Y-90132215D01*
X162249265Y-90115008D01*
X162203500Y-90085145D01*
X162176366Y-90023652D01*
X162171502Y-89964436D01*
X162364294Y-89964436D01*
X162399173Y-89989293D01*
X162474351Y-89998031D01*
X162514990Y-89964341D01*
X162517654Y-89927992D01*
X162488407Y-89881759D01*
X162435248Y-89880750D01*
X162383298Y-89921435D01*
X162364294Y-89964436D01*
X162171502Y-89964436D01*
X162169745Y-89943046D01*
X162182636Y-89870301D01*
X162212881Y-89832747D01*
X162243320Y-89795901D01*
X162246000Y-89777725D01*
X162224176Y-89748215D01*
X162198375Y-89752018D01*
X162162597Y-89744328D01*
X162162553Y-89744151D01*
X162288490Y-89744151D01*
X162301331Y-89750421D01*
X162357936Y-89723655D01*
X162368838Y-89718026D01*
X162439228Y-89676267D01*
X162480754Y-89641780D01*
X162481929Y-89640052D01*
X162478857Y-89607585D01*
X162433990Y-89593453D01*
X162367706Y-89603067D01*
X162357125Y-89606912D01*
X162317140Y-89627202D01*
X162318554Y-89634268D01*
X162325135Y-89659205D01*
X162308469Y-89701926D01*
X162288490Y-89744151D01*
X162162553Y-89744151D01*
X162150592Y-89696111D01*
X162160862Y-89625096D01*
X162191907Y-89549011D01*
X162218879Y-89509500D01*
X162306680Y-89448469D01*
X162420694Y-89425275D01*
X162534996Y-89441504D01*
G36*
X160800592Y-89397964D02*
X160882425Y-89433713D01*
X160937558Y-89508307D01*
X160970369Y-89628781D01*
X160985240Y-89802166D01*
X160986991Y-89874625D01*
X160981822Y-90013534D01*
X160959625Y-90098803D01*
X160917143Y-90138778D01*
X160881746Y-90144500D01*
X160828409Y-90134568D01*
X160814820Y-90120687D01*
X160807247Y-90072468D01*
X160799978Y-90033375D01*
X160791624Y-89966819D01*
X160783477Y-89863973D01*
X160779318Y-89789128D01*
X160769990Y-89680389D01*
X160751374Y-89620458D01*
X160718626Y-89594800D01*
X160714149Y-89593497D01*
X160661841Y-89608165D01*
X160613288Y-89663297D01*
X160582027Y-89736614D01*
X160581596Y-89805838D01*
X160582896Y-89809503D01*
X160591864Y-89874429D01*
X160586024Y-89962281D01*
X160569402Y-90051161D01*
X160546021Y-90119169D01*
X160521316Y-90144500D01*
X160475262Y-90120225D01*
X160449716Y-90088937D01*
X160436130Y-90054891D01*
X160428052Y-90000401D01*
X160425236Y-89915360D01*
X160427435Y-89789662D01*
X160434400Y-89613200D01*
X160436803Y-89561118D01*
X160469607Y-89475167D01*
X160557588Y-89418886D01*
X160687678Y-89394029D01*
X160800592Y-89397964D01*
X160800592Y-89397964D01*
G37*
X160800592Y-89397964D02*
X160882425Y-89433713D01*
X160937558Y-89508307D01*
X160970369Y-89628781D01*
X160985240Y-89802166D01*
X160986991Y-89874625D01*
X160981822Y-90013534D01*
X160959625Y-90098803D01*
X160917143Y-90138778D01*
X160881746Y-90144500D01*
X160828409Y-90134568D01*
X160814820Y-90120687D01*
X160807247Y-90072468D01*
X160799978Y-90033375D01*
X160791624Y-89966819D01*
X160783477Y-89863973D01*
X160779318Y-89789128D01*
X160769990Y-89680389D01*
X160751374Y-89620458D01*
X160718626Y-89594800D01*
X160714149Y-89593497D01*
X160661841Y-89608165D01*
X160613288Y-89663297D01*
X160582027Y-89736614D01*
X160581596Y-89805838D01*
X160582896Y-89809503D01*
X160591864Y-89874429D01*
X160586024Y-89962281D01*
X160569402Y-90051161D01*
X160546021Y-90119169D01*
X160521316Y-90144500D01*
X160475262Y-90120225D01*
X160449716Y-90088937D01*
X160436130Y-90054891D01*
X160428052Y-90000401D01*
X160425236Y-89915360D01*
X160427435Y-89789662D01*
X160434400Y-89613200D01*
X160436803Y-89561118D01*
X160469607Y-89475167D01*
X160557588Y-89418886D01*
X160687678Y-89394029D01*
X160800592Y-89397964D01*
G36*
X164646438Y-89440638D02*
X164646910Y-89483217D01*
X164656198Y-89491893D01*
X164671147Y-89531397D01*
X164677833Y-89613437D01*
X164676460Y-89684587D01*
X164673465Y-89785213D01*
X164681812Y-89837674D01*
X164705783Y-89856913D01*
X164726369Y-89858750D01*
X164775706Y-89838732D01*
X164786000Y-89813264D01*
X164813274Y-89768180D01*
X164877193Y-89738316D01*
X164923342Y-89734215D01*
X164955572Y-89714866D01*
X165006336Y-89669610D01*
X165052692Y-89620623D01*
X165071750Y-89590773D01*
X165044906Y-89585355D01*
X165004306Y-89581432D01*
X164930333Y-89597681D01*
X164870061Y-89644347D01*
X164849500Y-89694029D01*
X164823047Y-89725528D01*
X164786000Y-89740949D01*
X164735205Y-89732413D01*
X164713135Y-89684340D01*
X164720219Y-89614039D01*
X164756883Y-89538822D01*
X164780314Y-89510838D01*
X164874829Y-89443765D01*
X164985064Y-89429411D01*
X165067212Y-89444805D01*
X165127673Y-89465218D01*
X165166747Y-89495708D01*
X165189119Y-89548947D01*
X165199474Y-89637606D01*
X165202495Y-89774358D01*
X165202638Y-89811125D01*
X165201754Y-89961611D01*
X165197023Y-90059400D01*
X165186713Y-90115256D01*
X165169091Y-90139948D01*
X165149001Y-90144500D01*
X165118312Y-90122899D01*
X165104773Y-90052087D01*
X165103500Y-90003498D01*
X165095164Y-89904506D01*
X165073401Y-89846576D01*
X165043074Y-89838368D01*
X165023107Y-89860396D01*
X164979394Y-89881970D01*
X164958430Y-89878176D01*
X164908258Y-89881152D01*
X164895408Y-89893277D01*
X164895706Y-89937743D01*
X164926153Y-89983475D01*
X164966192Y-90003975D01*
X164978504Y-90000386D01*
X165008670Y-90012518D01*
X165045564Y-90057110D01*
X165069819Y-90108731D01*
X165071750Y-90122836D01*
X165044762Y-90138686D01*
X164992375Y-90152270D01*
X164933406Y-90153830D01*
X164913000Y-90138223D01*
X164893568Y-90122822D01*
X164883300Y-90127358D01*
X164841562Y-90120834D01*
X164786313Y-90077893D01*
X164734968Y-90017577D01*
X164704945Y-89958927D01*
X164704591Y-89931974D01*
X164703157Y-89897653D01*
X164685331Y-89897597D01*
X164653682Y-89935434D01*
X164642908Y-89980752D01*
X164625538Y-90051244D01*
X164578544Y-90097106D01*
X164490861Y-90124239D01*
X164351426Y-90138542D01*
X164346455Y-90138827D01*
X164202677Y-90140956D01*
X164110653Y-90121407D01*
X164059807Y-90070632D01*
X164039563Y-89979086D01*
X164038552Y-89860891D01*
X164044281Y-89692148D01*
X164050637Y-89576363D01*
X164059113Y-89503001D01*
X164071200Y-89461527D01*
X164088392Y-89441405D01*
X164098706Y-89436309D01*
X164124638Y-89442453D01*
X164139886Y-89492118D01*
X164147359Y-89595039D01*
X164147511Y-89599600D01*
X164152909Y-89711314D01*
X164160476Y-89804734D01*
X164165626Y-89842875D01*
X164177179Y-89915492D01*
X164180320Y-89946062D01*
X164199471Y-89983047D01*
X164209208Y-89985750D01*
X164225589Y-89981285D01*
X164236570Y-89959333D01*
X164244565Y-89907056D01*
X164251987Y-89811618D01*
X164256961Y-89731750D01*
X164273872Y-89576719D01*
X164301926Y-89477747D01*
X164340106Y-89437431D01*
X164369701Y-89443806D01*
X164397042Y-89491859D01*
X164414401Y-89597756D01*
X164421103Y-89713739D01*
X164427142Y-89832082D01*
X164436050Y-89924123D01*
X164446086Y-89972851D01*
X164447939Y-89975772D01*
X164471919Y-89975994D01*
X164492049Y-89922578D01*
X164508868Y-89812665D01*
X164522917Y-89643391D01*
X164528311Y-89550304D01*
X164557317Y-89480846D01*
X164599331Y-89443949D01*
X164644404Y-89426529D01*
X164646438Y-89440638D01*
X164646438Y-89440638D01*
G37*
X164646438Y-89440638D02*
X164646910Y-89483217D01*
X164656198Y-89491893D01*
X164671147Y-89531397D01*
X164677833Y-89613437D01*
X164676460Y-89684587D01*
X164673465Y-89785213D01*
X164681812Y-89837674D01*
X164705783Y-89856913D01*
X164726369Y-89858750D01*
X164775706Y-89838732D01*
X164786000Y-89813264D01*
X164813274Y-89768180D01*
X164877193Y-89738316D01*
X164923342Y-89734215D01*
X164955572Y-89714866D01*
X165006336Y-89669610D01*
X165052692Y-89620623D01*
X165071750Y-89590773D01*
X165044906Y-89585355D01*
X165004306Y-89581432D01*
X164930333Y-89597681D01*
X164870061Y-89644347D01*
X164849500Y-89694029D01*
X164823047Y-89725528D01*
X164786000Y-89740949D01*
X164735205Y-89732413D01*
X164713135Y-89684340D01*
X164720219Y-89614039D01*
X164756883Y-89538822D01*
X164780314Y-89510838D01*
X164874829Y-89443765D01*
X164985064Y-89429411D01*
X165067212Y-89444805D01*
X165127673Y-89465218D01*
X165166747Y-89495708D01*
X165189119Y-89548947D01*
X165199474Y-89637606D01*
X165202495Y-89774358D01*
X165202638Y-89811125D01*
X165201754Y-89961611D01*
X165197023Y-90059400D01*
X165186713Y-90115256D01*
X165169091Y-90139948D01*
X165149001Y-90144500D01*
X165118312Y-90122899D01*
X165104773Y-90052087D01*
X165103500Y-90003498D01*
X165095164Y-89904506D01*
X165073401Y-89846576D01*
X165043074Y-89838368D01*
X165023107Y-89860396D01*
X164979394Y-89881970D01*
X164958430Y-89878176D01*
X164908258Y-89881152D01*
X164895408Y-89893277D01*
X164895706Y-89937743D01*
X164926153Y-89983475D01*
X164966192Y-90003975D01*
X164978504Y-90000386D01*
X165008670Y-90012518D01*
X165045564Y-90057110D01*
X165069819Y-90108731D01*
X165071750Y-90122836D01*
X165044762Y-90138686D01*
X164992375Y-90152270D01*
X164933406Y-90153830D01*
X164913000Y-90138223D01*
X164893568Y-90122822D01*
X164883300Y-90127358D01*
X164841562Y-90120834D01*
X164786313Y-90077893D01*
X164734968Y-90017577D01*
X164704945Y-89958927D01*
X164704591Y-89931974D01*
X164703157Y-89897653D01*
X164685331Y-89897597D01*
X164653682Y-89935434D01*
X164642908Y-89980752D01*
X164625538Y-90051244D01*
X164578544Y-90097106D01*
X164490861Y-90124239D01*
X164351426Y-90138542D01*
X164346455Y-90138827D01*
X164202677Y-90140956D01*
X164110653Y-90121407D01*
X164059807Y-90070632D01*
X164039563Y-89979086D01*
X164038552Y-89860891D01*
X164044281Y-89692148D01*
X164050637Y-89576363D01*
X164059113Y-89503001D01*
X164071200Y-89461527D01*
X164088392Y-89441405D01*
X164098706Y-89436309D01*
X164124638Y-89442453D01*
X164139886Y-89492118D01*
X164147359Y-89595039D01*
X164147511Y-89599600D01*
X164152909Y-89711314D01*
X164160476Y-89804734D01*
X164165626Y-89842875D01*
X164177179Y-89915492D01*
X164180320Y-89946062D01*
X164199471Y-89983047D01*
X164209208Y-89985750D01*
X164225589Y-89981285D01*
X164236570Y-89959333D01*
X164244565Y-89907056D01*
X164251987Y-89811618D01*
X164256961Y-89731750D01*
X164273872Y-89576719D01*
X164301926Y-89477747D01*
X164340106Y-89437431D01*
X164369701Y-89443806D01*
X164397042Y-89491859D01*
X164414401Y-89597756D01*
X164421103Y-89713739D01*
X164427142Y-89832082D01*
X164436050Y-89924123D01*
X164446086Y-89972851D01*
X164447939Y-89975772D01*
X164471919Y-89975994D01*
X164492049Y-89922578D01*
X164508868Y-89812665D01*
X164522917Y-89643391D01*
X164528311Y-89550304D01*
X164557317Y-89480846D01*
X164599331Y-89443949D01*
X164644404Y-89426529D01*
X164646438Y-89440638D01*
G36*
X163953308Y-89174225D02*
X163960105Y-89211121D01*
X163964824Y-89295462D01*
X163967458Y-89411224D01*
X163968003Y-89542385D01*
X163966452Y-89672923D01*
X163962799Y-89786815D01*
X163957038Y-89868039D01*
X163953572Y-89890500D01*
X163926937Y-89961099D01*
X163915014Y-89982718D01*
X163903754Y-90012051D01*
X163931781Y-90001047D01*
X163941691Y-90003023D01*
X163912263Y-90039876D01*
X163895109Y-90057924D01*
X163818004Y-90117067D01*
X163733518Y-90153747D01*
X163661589Y-90161762D01*
X163625447Y-90141785D01*
X163588168Y-90125251D01*
X163578700Y-90129118D01*
X163544135Y-90117863D01*
X163498441Y-90066915D01*
X163495267Y-90062167D01*
X163461068Y-89970256D01*
X163444656Y-89841695D01*
X163446190Y-89737216D01*
X163570626Y-89737216D01*
X163580116Y-89815203D01*
X163587447Y-89838080D01*
X163635270Y-89937618D01*
X163688909Y-89980926D01*
X163743517Y-89964987D01*
X163761040Y-89946062D01*
X163777901Y-89905881D01*
X163783811Y-89835186D01*
X163779298Y-89721053D01*
X163773364Y-89644437D01*
X163747040Y-89609726D01*
X163692065Y-89609091D01*
X163630972Y-89639032D01*
X163599922Y-89671392D01*
X163570626Y-89737216D01*
X163446190Y-89737216D01*
X163446722Y-89700991D01*
X163467954Y-89572650D01*
X163480419Y-89534199D01*
X163524974Y-89473075D01*
X163592590Y-89428609D01*
X163660104Y-89412365D01*
X163697119Y-89426036D01*
X163733952Y-89429178D01*
X163773093Y-89390394D01*
X163798773Y-89328630D01*
X163801750Y-89300354D01*
X163821849Y-89241355D01*
X163868486Y-89190675D01*
X163921174Y-89165366D01*
X163953308Y-89174225D01*
X163953308Y-89174225D01*
G37*
X163953308Y-89174225D02*
X163960105Y-89211121D01*
X163964824Y-89295462D01*
X163967458Y-89411224D01*
X163968003Y-89542385D01*
X163966452Y-89672923D01*
X163962799Y-89786815D01*
X163957038Y-89868039D01*
X163953572Y-89890500D01*
X163926937Y-89961099D01*
X163915014Y-89982718D01*
X163903754Y-90012051D01*
X163931781Y-90001047D01*
X163941691Y-90003023D01*
X163912263Y-90039876D01*
X163895109Y-90057924D01*
X163818004Y-90117067D01*
X163733518Y-90153747D01*
X163661589Y-90161762D01*
X163625447Y-90141785D01*
X163588168Y-90125251D01*
X163578700Y-90129118D01*
X163544135Y-90117863D01*
X163498441Y-90066915D01*
X163495267Y-90062167D01*
X163461068Y-89970256D01*
X163444656Y-89841695D01*
X163446190Y-89737216D01*
X163570626Y-89737216D01*
X163580116Y-89815203D01*
X163587447Y-89838080D01*
X163635270Y-89937618D01*
X163688909Y-89980926D01*
X163743517Y-89964987D01*
X163761040Y-89946062D01*
X163777901Y-89905881D01*
X163783811Y-89835186D01*
X163779298Y-89721053D01*
X163773364Y-89644437D01*
X163747040Y-89609726D01*
X163692065Y-89609091D01*
X163630972Y-89639032D01*
X163599922Y-89671392D01*
X163570626Y-89737216D01*
X163446190Y-89737216D01*
X163446722Y-89700991D01*
X163467954Y-89572650D01*
X163480419Y-89534199D01*
X163524974Y-89473075D01*
X163592590Y-89428609D01*
X163660104Y-89412365D01*
X163697119Y-89426036D01*
X163733952Y-89429178D01*
X163773093Y-89390394D01*
X163798773Y-89328630D01*
X163801750Y-89300354D01*
X163821849Y-89241355D01*
X163868486Y-89190675D01*
X163921174Y-89165366D01*
X163953308Y-89174225D01*
G36*
X161695639Y-89220775D02*
X161693922Y-89265037D01*
X161702894Y-89352830D01*
X161762242Y-89403129D01*
X161834833Y-89414250D01*
X161926752Y-89432558D01*
X161990486Y-89491354D01*
X162028823Y-89596446D01*
X162044552Y-89753640D01*
X162044846Y-89851642D01*
X162038912Y-89985149D01*
X162027701Y-90078600D01*
X162012610Y-90121728D01*
X162007875Y-90123387D01*
X161956588Y-90136500D01*
X161942210Y-90146296D01*
X161915409Y-90144701D01*
X161905271Y-90088034D01*
X161897400Y-89963160D01*
X161883657Y-89830852D01*
X161866967Y-89715163D01*
X161851102Y-89642729D01*
X161814384Y-89601484D01*
X161761190Y-89595593D01*
X161720584Y-89624201D01*
X161714241Y-89646756D01*
X161698826Y-89843174D01*
X161683427Y-89982827D01*
X161667064Y-90072445D01*
X161648763Y-90118755D01*
X161645037Y-90123162D01*
X161615406Y-90137661D01*
X161610513Y-90127037D01*
X161597398Y-90121526D01*
X161583023Y-90139481D01*
X161560078Y-90156740D01*
X161544482Y-90115505D01*
X161543062Y-90107731D01*
X161537257Y-90035676D01*
X161534712Y-89915424D01*
X161535318Y-89762189D01*
X161538965Y-89591186D01*
X161545543Y-89417627D01*
X161548459Y-89360172D01*
X161563887Y-89243311D01*
X161593616Y-89183119D01*
X161602973Y-89177506D01*
X161667120Y-89174033D01*
X161695639Y-89220775D01*
X161695639Y-89220775D01*
G37*
X161695639Y-89220775D02*
X161693922Y-89265037D01*
X161702894Y-89352830D01*
X161762242Y-89403129D01*
X161834833Y-89414250D01*
X161926752Y-89432558D01*
X161990486Y-89491354D01*
X162028823Y-89596446D01*
X162044552Y-89753640D01*
X162044846Y-89851642D01*
X162038912Y-89985149D01*
X162027701Y-90078600D01*
X162012610Y-90121728D01*
X162007875Y-90123387D01*
X161956588Y-90136500D01*
X161942210Y-90146296D01*
X161915409Y-90144701D01*
X161905271Y-90088034D01*
X161897400Y-89963160D01*
X161883657Y-89830852D01*
X161866967Y-89715163D01*
X161851102Y-89642729D01*
X161814384Y-89601484D01*
X161761190Y-89595593D01*
X161720584Y-89624201D01*
X161714241Y-89646756D01*
X161698826Y-89843174D01*
X161683427Y-89982827D01*
X161667064Y-90072445D01*
X161648763Y-90118755D01*
X161645037Y-90123162D01*
X161615406Y-90137661D01*
X161610513Y-90127037D01*
X161597398Y-90121526D01*
X161583023Y-90139481D01*
X161560078Y-90156740D01*
X161544482Y-90115505D01*
X161543062Y-90107731D01*
X161537257Y-90035676D01*
X161534712Y-89915424D01*
X161535318Y-89762189D01*
X161538965Y-89591186D01*
X161545543Y-89417627D01*
X161548459Y-89360172D01*
X161563887Y-89243311D01*
X161593616Y-89183119D01*
X161602973Y-89177506D01*
X161667120Y-89174033D01*
X161695639Y-89220775D01*
G36*
X160142311Y-89408511D02*
X160220166Y-89444930D01*
X160251322Y-89497645D01*
X160280564Y-89585011D01*
X160303887Y-89686878D01*
X160317286Y-89783095D01*
X160316754Y-89853513D01*
X160305986Y-89876641D01*
X160291819Y-89915548D01*
X160295940Y-89933361D01*
X160289176Y-89986228D01*
X160249985Y-90051159D01*
X160195876Y-90107140D01*
X160144356Y-90133160D01*
X160130802Y-90131551D01*
X160092154Y-90129458D01*
X160087000Y-90138739D01*
X160060260Y-90160291D01*
X160023500Y-90167520D01*
X159972096Y-90158268D01*
X159960000Y-90140652D01*
X159940124Y-90124209D01*
X159925818Y-90130127D01*
X159882154Y-90124838D01*
X159847247Y-90096875D01*
X160150500Y-90096875D01*
X160166375Y-90112750D01*
X160182250Y-90096875D01*
X160166375Y-90081000D01*
X160150500Y-90096875D01*
X159847247Y-90096875D01*
X159827801Y-90081298D01*
X159792387Y-90033375D01*
X160214000Y-90033375D01*
X160229875Y-90049250D01*
X160245750Y-90033375D01*
X160229875Y-90017500D01*
X160214000Y-90033375D01*
X159792387Y-90033375D01*
X159780901Y-90017832D01*
X159760648Y-89963269D01*
X159754465Y-89939979D01*
X159966611Y-89939979D01*
X159978883Y-89952016D01*
X159995799Y-89952990D01*
X160058561Y-89931187D01*
X160087000Y-89906375D01*
X160106972Y-89867887D01*
X160084027Y-89861820D01*
X160029935Y-89888318D01*
X160005755Y-89905365D01*
X159966611Y-89939979D01*
X159754465Y-89939979D01*
X159742998Y-89896794D01*
X159732852Y-89874625D01*
X159722268Y-89822398D01*
X159723835Y-89747625D01*
X159734858Y-89679940D01*
X159921663Y-89679940D01*
X159924568Y-89699988D01*
X159925139Y-89700000D01*
X159969301Y-89676834D01*
X159976195Y-89667732D01*
X160012866Y-89648537D01*
X160023500Y-89652375D01*
X160062497Y-89647551D01*
X160069449Y-89639211D01*
X160075771Y-89600368D01*
X160043750Y-89588310D01*
X159993100Y-89604098D01*
X159956331Y-89633123D01*
X159921663Y-89679940D01*
X159734858Y-89679940D01*
X159749497Y-89590054D01*
X159792584Y-89485843D01*
X159860783Y-89425603D01*
X159961782Y-89399945D01*
X160010653Y-89397303D01*
X160142311Y-89408511D01*
X160142311Y-89408511D01*
G37*
X160142311Y-89408511D02*
X160220166Y-89444930D01*
X160251322Y-89497645D01*
X160280564Y-89585011D01*
X160303887Y-89686878D01*
X160317286Y-89783095D01*
X160316754Y-89853513D01*
X160305986Y-89876641D01*
X160291819Y-89915548D01*
X160295940Y-89933361D01*
X160289176Y-89986228D01*
X160249985Y-90051159D01*
X160195876Y-90107140D01*
X160144356Y-90133160D01*
X160130802Y-90131551D01*
X160092154Y-90129458D01*
X160087000Y-90138739D01*
X160060260Y-90160291D01*
X160023500Y-90167520D01*
X159972096Y-90158268D01*
X159960000Y-90140652D01*
X159940124Y-90124209D01*
X159925818Y-90130127D01*
X159882154Y-90124838D01*
X159847247Y-90096875D01*
X160150500Y-90096875D01*
X160166375Y-90112750D01*
X160182250Y-90096875D01*
X160166375Y-90081000D01*
X160150500Y-90096875D01*
X159847247Y-90096875D01*
X159827801Y-90081298D01*
X159792387Y-90033375D01*
X160214000Y-90033375D01*
X160229875Y-90049250D01*
X160245750Y-90033375D01*
X160229875Y-90017500D01*
X160214000Y-90033375D01*
X159792387Y-90033375D01*
X159780901Y-90017832D01*
X159760648Y-89963269D01*
X159754465Y-89939979D01*
X159966611Y-89939979D01*
X159978883Y-89952016D01*
X159995799Y-89952990D01*
X160058561Y-89931187D01*
X160087000Y-89906375D01*
X160106972Y-89867887D01*
X160084027Y-89861820D01*
X160029935Y-89888318D01*
X160005755Y-89905365D01*
X159966611Y-89939979D01*
X159754465Y-89939979D01*
X159742998Y-89896794D01*
X159732852Y-89874625D01*
X159722268Y-89822398D01*
X159723835Y-89747625D01*
X159734858Y-89679940D01*
X159921663Y-89679940D01*
X159924568Y-89699988D01*
X159925139Y-89700000D01*
X159969301Y-89676834D01*
X159976195Y-89667732D01*
X160012866Y-89648537D01*
X160023500Y-89652375D01*
X160062497Y-89647551D01*
X160069449Y-89639211D01*
X160075771Y-89600368D01*
X160043750Y-89588310D01*
X159993100Y-89604098D01*
X159956331Y-89633123D01*
X159921663Y-89679940D01*
X159734858Y-89679940D01*
X159749497Y-89590054D01*
X159792584Y-89485843D01*
X159860783Y-89425603D01*
X159961782Y-89399945D01*
X160010653Y-89397303D01*
X160142311Y-89408511D01*
G36*
X158849055Y-89417404D02*
X158911813Y-89459423D01*
X158926824Y-89515098D01*
X158923707Y-89525438D01*
X158922114Y-89566331D01*
X158934174Y-89573000D01*
X158952912Y-89601260D01*
X158962205Y-89673760D01*
X158962897Y-89772080D01*
X158955833Y-89877798D01*
X158941859Y-89972494D01*
X158921818Y-90037747D01*
X158912234Y-90051533D01*
X158828119Y-90105371D01*
X158720838Y-90142597D01*
X158623690Y-90152292D01*
X158610625Y-90150426D01*
X158540182Y-90122458D01*
X158506753Y-90096875D01*
X158531250Y-90096875D01*
X158547125Y-90112750D01*
X158563000Y-90096875D01*
X158547125Y-90081000D01*
X158531250Y-90096875D01*
X158506753Y-90096875D01*
X158480915Y-90077102D01*
X158451865Y-90031086D01*
X158454497Y-90013256D01*
X158450710Y-89987062D01*
X158442772Y-89985750D01*
X158423635Y-89957278D01*
X158412375Y-89884015D01*
X158409262Y-89789761D01*
X158612165Y-89789761D01*
X158623619Y-89928214D01*
X158652420Y-89944782D01*
X158682083Y-89945866D01*
X158730070Y-89913668D01*
X158745135Y-89860527D01*
X158745263Y-89768820D01*
X158735844Y-89676750D01*
X158719764Y-89609511D01*
X158694818Y-89594009D01*
X158662926Y-89609197D01*
X158623522Y-89671035D01*
X158612165Y-89789761D01*
X158409262Y-89789761D01*
X158409077Y-89784191D01*
X158413823Y-89676033D01*
X158426697Y-89577771D01*
X158440667Y-89524423D01*
X158471092Y-89458945D01*
X158515042Y-89423246D01*
X158593793Y-89403280D01*
X158632926Y-89397491D01*
X158751707Y-89394830D01*
X158849055Y-89417404D01*
X158849055Y-89417404D01*
G37*
X158849055Y-89417404D02*
X158911813Y-89459423D01*
X158926824Y-89515098D01*
X158923707Y-89525438D01*
X158922114Y-89566331D01*
X158934174Y-89573000D01*
X158952912Y-89601260D01*
X158962205Y-89673760D01*
X158962897Y-89772080D01*
X158955833Y-89877798D01*
X158941859Y-89972494D01*
X158921818Y-90037747D01*
X158912234Y-90051533D01*
X158828119Y-90105371D01*
X158720838Y-90142597D01*
X158623690Y-90152292D01*
X158610625Y-90150426D01*
X158540182Y-90122458D01*
X158506753Y-90096875D01*
X158531250Y-90096875D01*
X158547125Y-90112750D01*
X158563000Y-90096875D01*
X158547125Y-90081000D01*
X158531250Y-90096875D01*
X158506753Y-90096875D01*
X158480915Y-90077102D01*
X158451865Y-90031086D01*
X158454497Y-90013256D01*
X158450710Y-89987062D01*
X158442772Y-89985750D01*
X158423635Y-89957278D01*
X158412375Y-89884015D01*
X158409262Y-89789761D01*
X158612165Y-89789761D01*
X158623619Y-89928214D01*
X158652420Y-89944782D01*
X158682083Y-89945866D01*
X158730070Y-89913668D01*
X158745135Y-89860527D01*
X158745263Y-89768820D01*
X158735844Y-89676750D01*
X158719764Y-89609511D01*
X158694818Y-89594009D01*
X158662926Y-89609197D01*
X158623522Y-89671035D01*
X158612165Y-89789761D01*
X158409262Y-89789761D01*
X158409077Y-89784191D01*
X158413823Y-89676033D01*
X158426697Y-89577771D01*
X158440667Y-89524423D01*
X158471092Y-89458945D01*
X158515042Y-89423246D01*
X158593793Y-89403280D01*
X158632926Y-89397491D01*
X158751707Y-89394830D01*
X158849055Y-89417404D01*
G36*
X159465505Y-89403723D02*
X159543775Y-89440311D01*
X159590280Y-89489838D01*
X159615338Y-89557736D01*
X159626335Y-89665286D01*
X159626990Y-89680116D01*
X159626652Y-89761224D01*
X159621102Y-89853910D01*
X159612150Y-89943509D01*
X159601604Y-90015358D01*
X159591275Y-90054795D01*
X159582970Y-90047155D01*
X159582249Y-90042755D01*
X159560832Y-90047520D01*
X159512023Y-90087698D01*
X159499096Y-90100289D01*
X159416917Y-90158112D01*
X159359689Y-90161307D01*
X159311399Y-90162830D01*
X159276456Y-90212838D01*
X159266619Y-90238711D01*
X159249740Y-90304337D01*
X159253607Y-90335164D01*
X159255214Y-90335486D01*
X159262184Y-90345264D01*
X159230459Y-90366034D01*
X159181040Y-90387136D01*
X159134928Y-90397916D01*
X159131995Y-90398013D01*
X159101327Y-90382907D01*
X159082400Y-90328920D01*
X159071207Y-90224150D01*
X159070691Y-90215937D01*
X159061643Y-89953369D01*
X159067905Y-89779375D01*
X159277689Y-89779375D01*
X159287136Y-89889570D01*
X159329455Y-89945759D01*
X159363248Y-89953513D01*
X159382285Y-89925965D01*
X159401577Y-89856992D01*
X159405682Y-89834937D01*
X159424210Y-89706596D01*
X159425362Y-89628877D01*
X159407007Y-89590757D01*
X159367016Y-89581217D01*
X159356750Y-89581729D01*
X159318463Y-89587447D01*
X159296839Y-89607452D01*
X159285768Y-89657018D01*
X159279140Y-89751419D01*
X159277689Y-89779375D01*
X159067905Y-89779375D01*
X159069302Y-89740592D01*
X159093298Y-89581149D01*
X159133260Y-89478585D01*
X159149794Y-89457919D01*
X159235827Y-89409942D01*
X159350483Y-89391455D01*
X159465505Y-89403723D01*
X159465505Y-89403723D01*
G37*
X159465505Y-89403723D02*
X159543775Y-89440311D01*
X159590280Y-89489838D01*
X159615338Y-89557736D01*
X159626335Y-89665286D01*
X159626990Y-89680116D01*
X159626652Y-89761224D01*
X159621102Y-89853910D01*
X159612150Y-89943509D01*
X159601604Y-90015358D01*
X159591275Y-90054795D01*
X159582970Y-90047155D01*
X159582249Y-90042755D01*
X159560832Y-90047520D01*
X159512023Y-90087698D01*
X159499096Y-90100289D01*
X159416917Y-90158112D01*
X159359689Y-90161307D01*
X159311399Y-90162830D01*
X159276456Y-90212838D01*
X159266619Y-90238711D01*
X159249740Y-90304337D01*
X159253607Y-90335164D01*
X159255214Y-90335486D01*
X159262184Y-90345264D01*
X159230459Y-90366034D01*
X159181040Y-90387136D01*
X159134928Y-90397916D01*
X159131995Y-90398013D01*
X159101327Y-90382907D01*
X159082400Y-90328920D01*
X159071207Y-90224150D01*
X159070691Y-90215937D01*
X159061643Y-89953369D01*
X159067905Y-89779375D01*
X159277689Y-89779375D01*
X159287136Y-89889570D01*
X159329455Y-89945759D01*
X159363248Y-89953513D01*
X159382285Y-89925965D01*
X159401577Y-89856992D01*
X159405682Y-89834937D01*
X159424210Y-89706596D01*
X159425362Y-89628877D01*
X159407007Y-89590757D01*
X159367016Y-89581217D01*
X159356750Y-89581729D01*
X159318463Y-89587447D01*
X159296839Y-89607452D01*
X159285768Y-89657018D01*
X159279140Y-89751419D01*
X159277689Y-89779375D01*
X159067905Y-89779375D01*
X159069302Y-89740592D01*
X159093298Y-89581149D01*
X159133260Y-89478585D01*
X159149794Y-89457919D01*
X159235827Y-89409942D01*
X159350483Y-89391455D01*
X159465505Y-89403723D01*
G36*
X154880000Y-90287375D02*
X154939038Y-90346090D01*
X154972447Y-90383490D01*
X154975250Y-90388565D01*
X154947597Y-90395547D01*
X154880992Y-90398499D01*
X154880000Y-90398500D01*
X154813907Y-90391333D01*
X154788452Y-90356556D01*
X154784750Y-90297309D01*
X154784750Y-90196119D01*
X154880000Y-90287375D01*
X154880000Y-90287375D01*
G37*
X154880000Y-90287375D02*
X154939038Y-90346090D01*
X154972447Y-90383490D01*
X154975250Y-90388565D01*
X154947597Y-90395547D01*
X154880992Y-90398499D01*
X154880000Y-90398500D01*
X154813907Y-90391333D01*
X154788452Y-90356556D01*
X154784750Y-90297309D01*
X154784750Y-90196119D01*
X154880000Y-90287375D01*
G04 #@! TO.C,C1*
D12*
X160035831Y-78847140D02*
X159988212Y-78894759D01*
X159845355Y-78942378D01*
X159750117Y-78942378D01*
X159607259Y-78894759D01*
X159512021Y-78799521D01*
X159464402Y-78704283D01*
X159416783Y-78513807D01*
X159416783Y-78370950D01*
X159464402Y-78180474D01*
X159512021Y-78085236D01*
X159607259Y-77989998D01*
X159750117Y-77942378D01*
X159845355Y-77942378D01*
X159988212Y-77989998D01*
X160035831Y-78037617D01*
X160988212Y-78942378D02*
X160416783Y-78942378D01*
X160702498Y-78942378D02*
X160702498Y-77942378D01*
X160607259Y-78085236D01*
X160512021Y-78180474D01*
X160416783Y-78228093D01*
G04 #@! TO.C,C2*
X160035831Y-73337140D02*
X159988212Y-73384759D01*
X159845355Y-73432378D01*
X159750117Y-73432378D01*
X159607259Y-73384759D01*
X159512021Y-73289521D01*
X159464402Y-73194283D01*
X159416783Y-73003807D01*
X159416783Y-72860950D01*
X159464402Y-72670474D01*
X159512021Y-72575236D01*
X159607259Y-72479998D01*
X159750117Y-72432378D01*
X159845355Y-72432378D01*
X159988212Y-72479998D01*
X160035831Y-72527617D01*
X160416783Y-72527617D02*
X160464402Y-72479998D01*
X160559640Y-72432378D01*
X160797736Y-72432378D01*
X160892974Y-72479998D01*
X160940593Y-72527617D01*
X160988212Y-72622855D01*
X160988212Y-72718093D01*
X160940593Y-72860950D01*
X160369164Y-73432378D01*
X160988212Y-73432378D01*
G04 #@! TO.C,U1*
X159302380Y-76761904D02*
X160111904Y-76761904D01*
X160207142Y-76714285D01*
X160254761Y-76666666D01*
X160302380Y-76571428D01*
X160302380Y-76380952D01*
X160254761Y-76285714D01*
X160207142Y-76238095D01*
X160111904Y-76190476D01*
X159302380Y-76190476D01*
X160302380Y-75190476D02*
X160302380Y-75761904D01*
X160302380Y-75476190D02*
X159302380Y-75476190D01*
X159445238Y-75571428D01*
X159540476Y-75666666D01*
X159588095Y-75761904D01*
G04 #@! TO.C,J1*
X167666666Y-64122380D02*
X167666666Y-64836666D01*
X167619047Y-64979523D01*
X167523809Y-65074761D01*
X167380952Y-65122380D01*
X167285714Y-65122380D01*
X168666666Y-65122380D02*
X168095238Y-65122380D01*
X168380952Y-65122380D02*
X168380952Y-64122380D01*
X168285714Y-64265238D01*
X168190476Y-64360476D01*
X168095238Y-64408095D01*
G04 #@! TO.C,R1*
X165882380Y-74166666D02*
X165406190Y-74500000D01*
X165882380Y-74738095D02*
X164882380Y-74738095D01*
X164882380Y-74357142D01*
X164930000Y-74261904D01*
X164977619Y-74214285D01*
X165072857Y-74166666D01*
X165215714Y-74166666D01*
X165310952Y-74214285D01*
X165358571Y-74261904D01*
X165406190Y-74357142D01*
X165406190Y-74738095D01*
X165882380Y-73214285D02*
X165882380Y-73785714D01*
X165882380Y-73500000D02*
X164882380Y-73500000D01*
X165025238Y-73595238D01*
X165120476Y-73690476D01*
X165168095Y-73785714D01*
G04 #@! TO.C,R2*
X165882380Y-78166666D02*
X165406190Y-78500000D01*
X165882380Y-78738095D02*
X164882380Y-78738095D01*
X164882380Y-78357142D01*
X164930000Y-78261904D01*
X164977619Y-78214285D01*
X165072857Y-78166666D01*
X165215714Y-78166666D01*
X165310952Y-78214285D01*
X165358571Y-78261904D01*
X165406190Y-78357142D01*
X165406190Y-78738095D01*
X164977619Y-77785714D02*
X164930000Y-77738095D01*
X164882380Y-77642857D01*
X164882380Y-77404761D01*
X164930000Y-77309523D01*
X164977619Y-77261904D01*
X165072857Y-77214285D01*
X165168095Y-77214285D01*
X165310952Y-77261904D01*
X165882380Y-77833333D01*
X165882380Y-77214285D01*
G04 #@! TO.C,R3*
X165882380Y-70166666D02*
X165406190Y-70500000D01*
X165882380Y-70738095D02*
X164882380Y-70738095D01*
X164882380Y-70357142D01*
X164930000Y-70261904D01*
X164977619Y-70214285D01*
X165072857Y-70166666D01*
X165215714Y-70166666D01*
X165310952Y-70214285D01*
X165358571Y-70261904D01*
X165406190Y-70357142D01*
X165406190Y-70738095D01*
X164882380Y-69833333D02*
X164882380Y-69214285D01*
X165263333Y-69547619D01*
X165263333Y-69404761D01*
X165310952Y-69309523D01*
X165358571Y-69261904D01*
X165453809Y-69214285D01*
X165691904Y-69214285D01*
X165787142Y-69261904D01*
X165834761Y-69309523D01*
X165882380Y-69404761D01*
X165882380Y-69690476D01*
X165834761Y-69785714D01*
X165787142Y-69833333D01*
G04 #@! TO.C,R4*
X162833333Y-72452380D02*
X162500000Y-71976190D01*
X162261904Y-72452380D02*
X162261904Y-71452380D01*
X162642857Y-71452380D01*
X162738095Y-71500000D01*
X162785714Y-71547619D01*
X162833333Y-71642857D01*
X162833333Y-71785714D01*
X162785714Y-71880952D01*
X162738095Y-71928571D01*
X162642857Y-71976190D01*
X162261904Y-71976190D01*
X163690476Y-71785714D02*
X163690476Y-72452380D01*
X163452380Y-71404761D02*
X163214285Y-72119047D01*
X163833333Y-72119047D01*
G04 #@! TO.C,R5*
X161022380Y-82166666D02*
X160546190Y-82500000D01*
X161022380Y-82738095D02*
X160022380Y-82738095D01*
X160022380Y-82357142D01*
X160070000Y-82261904D01*
X160117619Y-82214285D01*
X160212857Y-82166666D01*
X160355714Y-82166666D01*
X160450952Y-82214285D01*
X160498571Y-82261904D01*
X160546190Y-82357142D01*
X160546190Y-82738095D01*
X160022380Y-81261904D02*
X160022380Y-81738095D01*
X160498571Y-81785714D01*
X160450952Y-81738095D01*
X160403333Y-81642857D01*
X160403333Y-81404761D01*
X160450952Y-81309523D01*
X160498571Y-81261904D01*
X160593809Y-81214285D01*
X160831904Y-81214285D01*
X160927142Y-81261904D01*
X160974761Y-81309523D01*
X161022380Y-81404761D01*
X161022380Y-81642857D01*
X160974761Y-81738095D01*
X160927142Y-81785714D01*
G04 #@! TO.C,R6*
X165882380Y-82166666D02*
X165406190Y-82500000D01*
X165882380Y-82738095D02*
X164882380Y-82738095D01*
X164882380Y-82357142D01*
X164930000Y-82261904D01*
X164977619Y-82214285D01*
X165072857Y-82166666D01*
X165215714Y-82166666D01*
X165310952Y-82214285D01*
X165358571Y-82261904D01*
X165406190Y-82357142D01*
X165406190Y-82738095D01*
X164882380Y-81309523D02*
X164882380Y-81500000D01*
X164930000Y-81595238D01*
X164977619Y-81642857D01*
X165120476Y-81738095D01*
X165310952Y-81785714D01*
X165691904Y-81785714D01*
X165787142Y-81738095D01*
X165834761Y-81690476D01*
X165882380Y-81595238D01*
X165882380Y-81404761D01*
X165834761Y-81309523D01*
X165787142Y-81261904D01*
X165691904Y-81214285D01*
X165453809Y-81214285D01*
X165358571Y-81261904D01*
X165310952Y-81309523D01*
X165263333Y-81404761D01*
X165263333Y-81595238D01*
X165310952Y-81690476D01*
X165358571Y-81738095D01*
X165453809Y-81785714D01*
G04 #@! TD*
M02*
