G04 #@! TF.GenerationSoftware,KiCad,Pcbnew,(5.0.0)*
G04 #@! TF.CreationDate,2018-08-29T17:32:18+01:00*
G04 #@! TF.ProjectId,Week5LetsTryANewIC,5765656B354C657473547279414E6577,rev?*
G04 #@! TF.SameCoordinates,Original*
G04 #@! TF.FileFunction,Soldermask,Top*
G04 #@! TF.FilePolarity,Negative*
%FSLAX46Y46*%
G04 Gerber Fmt 4.6, Leading zero omitted, Abs format (unit mm)*
G04 Created by KiCad (PCBNEW (5.0.0)) date 08/29/18 17:32:18*
%MOMM*%
%LPD*%
G01*
G04 APERTURE LIST*
%ADD10C,0.100000*%
%ADD11C,1.275000*%
%ADD12R,0.750000X0.775000*%
%ADD13R,0.775000X0.750000*%
%ADD14R,2.100000X2.100000*%
%ADD15O,2.100000X2.100000*%
G04 APERTURE END LIST*
D10*
G04 #@! TO.C,C1*
G36*
X157562493Y-78326535D02*
X157593435Y-78331125D01*
X157623778Y-78338725D01*
X157653230Y-78349263D01*
X157681508Y-78362638D01*
X157708338Y-78378719D01*
X157733463Y-78397353D01*
X157756640Y-78418360D01*
X157777647Y-78441537D01*
X157796281Y-78466662D01*
X157812362Y-78493492D01*
X157825737Y-78521770D01*
X157836275Y-78551222D01*
X157843875Y-78581565D01*
X157848465Y-78612507D01*
X157850000Y-78643750D01*
X157850000Y-79356250D01*
X157848465Y-79387493D01*
X157843875Y-79418435D01*
X157836275Y-79448778D01*
X157825737Y-79478230D01*
X157812362Y-79506508D01*
X157796281Y-79533338D01*
X157777647Y-79558463D01*
X157756640Y-79581640D01*
X157733463Y-79602647D01*
X157708338Y-79621281D01*
X157681508Y-79637362D01*
X157653230Y-79650737D01*
X157623778Y-79661275D01*
X157593435Y-79668875D01*
X157562493Y-79673465D01*
X157531250Y-79675000D01*
X156893750Y-79675000D01*
X156862507Y-79673465D01*
X156831565Y-79668875D01*
X156801222Y-79661275D01*
X156771770Y-79650737D01*
X156743492Y-79637362D01*
X156716662Y-79621281D01*
X156691537Y-79602647D01*
X156668360Y-79581640D01*
X156647353Y-79558463D01*
X156628719Y-79533338D01*
X156612638Y-79506508D01*
X156599263Y-79478230D01*
X156588725Y-79448778D01*
X156581125Y-79418435D01*
X156576535Y-79387493D01*
X156575000Y-79356250D01*
X156575000Y-78643750D01*
X156576535Y-78612507D01*
X156581125Y-78581565D01*
X156588725Y-78551222D01*
X156599263Y-78521770D01*
X156612638Y-78493492D01*
X156628719Y-78466662D01*
X156647353Y-78441537D01*
X156668360Y-78418360D01*
X156691537Y-78397353D01*
X156716662Y-78378719D01*
X156743492Y-78362638D01*
X156771770Y-78349263D01*
X156801222Y-78338725D01*
X156831565Y-78331125D01*
X156862507Y-78326535D01*
X156893750Y-78325000D01*
X157531250Y-78325000D01*
X157562493Y-78326535D01*
X157562493Y-78326535D01*
G37*
D11*
X157212500Y-79000000D03*
D10*
G36*
X159137493Y-78326535D02*
X159168435Y-78331125D01*
X159198778Y-78338725D01*
X159228230Y-78349263D01*
X159256508Y-78362638D01*
X159283338Y-78378719D01*
X159308463Y-78397353D01*
X159331640Y-78418360D01*
X159352647Y-78441537D01*
X159371281Y-78466662D01*
X159387362Y-78493492D01*
X159400737Y-78521770D01*
X159411275Y-78551222D01*
X159418875Y-78581565D01*
X159423465Y-78612507D01*
X159425000Y-78643750D01*
X159425000Y-79356250D01*
X159423465Y-79387493D01*
X159418875Y-79418435D01*
X159411275Y-79448778D01*
X159400737Y-79478230D01*
X159387362Y-79506508D01*
X159371281Y-79533338D01*
X159352647Y-79558463D01*
X159331640Y-79581640D01*
X159308463Y-79602647D01*
X159283338Y-79621281D01*
X159256508Y-79637362D01*
X159228230Y-79650737D01*
X159198778Y-79661275D01*
X159168435Y-79668875D01*
X159137493Y-79673465D01*
X159106250Y-79675000D01*
X158468750Y-79675000D01*
X158437507Y-79673465D01*
X158406565Y-79668875D01*
X158376222Y-79661275D01*
X158346770Y-79650737D01*
X158318492Y-79637362D01*
X158291662Y-79621281D01*
X158266537Y-79602647D01*
X158243360Y-79581640D01*
X158222353Y-79558463D01*
X158203719Y-79533338D01*
X158187638Y-79506508D01*
X158174263Y-79478230D01*
X158163725Y-79448778D01*
X158156125Y-79418435D01*
X158151535Y-79387493D01*
X158150000Y-79356250D01*
X158150000Y-78643750D01*
X158151535Y-78612507D01*
X158156125Y-78581565D01*
X158163725Y-78551222D01*
X158174263Y-78521770D01*
X158187638Y-78493492D01*
X158203719Y-78466662D01*
X158222353Y-78441537D01*
X158243360Y-78418360D01*
X158266537Y-78397353D01*
X158291662Y-78378719D01*
X158318492Y-78362638D01*
X158346770Y-78349263D01*
X158376222Y-78338725D01*
X158406565Y-78331125D01*
X158437507Y-78326535D01*
X158468750Y-78325000D01*
X159106250Y-78325000D01*
X159137493Y-78326535D01*
X159137493Y-78326535D01*
G37*
D11*
X158787500Y-79000000D03*
G04 #@! TD*
D10*
G04 #@! TO.C,C2*
G36*
X159137493Y-72326535D02*
X159168435Y-72331125D01*
X159198778Y-72338725D01*
X159228230Y-72349263D01*
X159256508Y-72362638D01*
X159283338Y-72378719D01*
X159308463Y-72397353D01*
X159331640Y-72418360D01*
X159352647Y-72441537D01*
X159371281Y-72466662D01*
X159387362Y-72493492D01*
X159400737Y-72521770D01*
X159411275Y-72551222D01*
X159418875Y-72581565D01*
X159423465Y-72612507D01*
X159425000Y-72643750D01*
X159425000Y-73356250D01*
X159423465Y-73387493D01*
X159418875Y-73418435D01*
X159411275Y-73448778D01*
X159400737Y-73478230D01*
X159387362Y-73506508D01*
X159371281Y-73533338D01*
X159352647Y-73558463D01*
X159331640Y-73581640D01*
X159308463Y-73602647D01*
X159283338Y-73621281D01*
X159256508Y-73637362D01*
X159228230Y-73650737D01*
X159198778Y-73661275D01*
X159168435Y-73668875D01*
X159137493Y-73673465D01*
X159106250Y-73675000D01*
X158468750Y-73675000D01*
X158437507Y-73673465D01*
X158406565Y-73668875D01*
X158376222Y-73661275D01*
X158346770Y-73650737D01*
X158318492Y-73637362D01*
X158291662Y-73621281D01*
X158266537Y-73602647D01*
X158243360Y-73581640D01*
X158222353Y-73558463D01*
X158203719Y-73533338D01*
X158187638Y-73506508D01*
X158174263Y-73478230D01*
X158163725Y-73448778D01*
X158156125Y-73418435D01*
X158151535Y-73387493D01*
X158150000Y-73356250D01*
X158150000Y-72643750D01*
X158151535Y-72612507D01*
X158156125Y-72581565D01*
X158163725Y-72551222D01*
X158174263Y-72521770D01*
X158187638Y-72493492D01*
X158203719Y-72466662D01*
X158222353Y-72441537D01*
X158243360Y-72418360D01*
X158266537Y-72397353D01*
X158291662Y-72378719D01*
X158318492Y-72362638D01*
X158346770Y-72349263D01*
X158376222Y-72338725D01*
X158406565Y-72331125D01*
X158437507Y-72326535D01*
X158468750Y-72325000D01*
X159106250Y-72325000D01*
X159137493Y-72326535D01*
X159137493Y-72326535D01*
G37*
D11*
X158787500Y-73000000D03*
D10*
G36*
X157562493Y-72326535D02*
X157593435Y-72331125D01*
X157623778Y-72338725D01*
X157653230Y-72349263D01*
X157681508Y-72362638D01*
X157708338Y-72378719D01*
X157733463Y-72397353D01*
X157756640Y-72418360D01*
X157777647Y-72441537D01*
X157796281Y-72466662D01*
X157812362Y-72493492D01*
X157825737Y-72521770D01*
X157836275Y-72551222D01*
X157843875Y-72581565D01*
X157848465Y-72612507D01*
X157850000Y-72643750D01*
X157850000Y-73356250D01*
X157848465Y-73387493D01*
X157843875Y-73418435D01*
X157836275Y-73448778D01*
X157825737Y-73478230D01*
X157812362Y-73506508D01*
X157796281Y-73533338D01*
X157777647Y-73558463D01*
X157756640Y-73581640D01*
X157733463Y-73602647D01*
X157708338Y-73621281D01*
X157681508Y-73637362D01*
X157653230Y-73650737D01*
X157623778Y-73661275D01*
X157593435Y-73668875D01*
X157562493Y-73673465D01*
X157531250Y-73675000D01*
X156893750Y-73675000D01*
X156862507Y-73673465D01*
X156831565Y-73668875D01*
X156801222Y-73661275D01*
X156771770Y-73650737D01*
X156743492Y-73637362D01*
X156716662Y-73621281D01*
X156691537Y-73602647D01*
X156668360Y-73581640D01*
X156647353Y-73558463D01*
X156628719Y-73533338D01*
X156612638Y-73506508D01*
X156599263Y-73478230D01*
X156588725Y-73448778D01*
X156581125Y-73418435D01*
X156576535Y-73387493D01*
X156575000Y-73356250D01*
X156575000Y-72643750D01*
X156576535Y-72612507D01*
X156581125Y-72581565D01*
X156588725Y-72551222D01*
X156599263Y-72521770D01*
X156612638Y-72493492D01*
X156628719Y-72466662D01*
X156647353Y-72441537D01*
X156668360Y-72418360D01*
X156691537Y-72397353D01*
X156716662Y-72378719D01*
X156743492Y-72362638D01*
X156771770Y-72349263D01*
X156801222Y-72338725D01*
X156831565Y-72331125D01*
X156862507Y-72326535D01*
X156893750Y-72325000D01*
X157531250Y-72325000D01*
X157562493Y-72326535D01*
X157562493Y-72326535D01*
G37*
D11*
X157212500Y-73000000D03*
G04 #@! TD*
D12*
G04 #@! TO.C,U1*
X158250000Y-75237500D03*
X157750000Y-75237500D03*
X158250000Y-76762500D03*
X157750000Y-76762500D03*
X157250000Y-75237500D03*
X157250000Y-76762500D03*
X158750000Y-75237500D03*
X158750000Y-76762500D03*
D13*
X157237500Y-75750000D03*
X157237500Y-76250000D03*
X158762500Y-76250000D03*
X158762500Y-75750000D03*
G04 #@! TD*
D14*
G04 #@! TO.C,J1*
X168000000Y-67000000D03*
D15*
X168000000Y-69540000D03*
X168000000Y-72080000D03*
X168000000Y-74620000D03*
X168000000Y-77160000D03*
X168000000Y-79700000D03*
X168000000Y-82240000D03*
X168000000Y-84780000D03*
X168000000Y-87320000D03*
G04 #@! TD*
D10*
G04 #@! TO.C,R1*
G36*
X164387493Y-72576535D02*
X164418435Y-72581125D01*
X164448778Y-72588725D01*
X164478230Y-72599263D01*
X164506508Y-72612638D01*
X164533338Y-72628719D01*
X164558463Y-72647353D01*
X164581640Y-72668360D01*
X164602647Y-72691537D01*
X164621281Y-72716662D01*
X164637362Y-72743492D01*
X164650737Y-72771770D01*
X164661275Y-72801222D01*
X164668875Y-72831565D01*
X164673465Y-72862507D01*
X164675000Y-72893750D01*
X164675000Y-73531250D01*
X164673465Y-73562493D01*
X164668875Y-73593435D01*
X164661275Y-73623778D01*
X164650737Y-73653230D01*
X164637362Y-73681508D01*
X164621281Y-73708338D01*
X164602647Y-73733463D01*
X164581640Y-73756640D01*
X164558463Y-73777647D01*
X164533338Y-73796281D01*
X164506508Y-73812362D01*
X164478230Y-73825737D01*
X164448778Y-73836275D01*
X164418435Y-73843875D01*
X164387493Y-73848465D01*
X164356250Y-73850000D01*
X163643750Y-73850000D01*
X163612507Y-73848465D01*
X163581565Y-73843875D01*
X163551222Y-73836275D01*
X163521770Y-73825737D01*
X163493492Y-73812362D01*
X163466662Y-73796281D01*
X163441537Y-73777647D01*
X163418360Y-73756640D01*
X163397353Y-73733463D01*
X163378719Y-73708338D01*
X163362638Y-73681508D01*
X163349263Y-73653230D01*
X163338725Y-73623778D01*
X163331125Y-73593435D01*
X163326535Y-73562493D01*
X163325000Y-73531250D01*
X163325000Y-72893750D01*
X163326535Y-72862507D01*
X163331125Y-72831565D01*
X163338725Y-72801222D01*
X163349263Y-72771770D01*
X163362638Y-72743492D01*
X163378719Y-72716662D01*
X163397353Y-72691537D01*
X163418360Y-72668360D01*
X163441537Y-72647353D01*
X163466662Y-72628719D01*
X163493492Y-72612638D01*
X163521770Y-72599263D01*
X163551222Y-72588725D01*
X163581565Y-72581125D01*
X163612507Y-72576535D01*
X163643750Y-72575000D01*
X164356250Y-72575000D01*
X164387493Y-72576535D01*
X164387493Y-72576535D01*
G37*
D11*
X164000000Y-73212500D03*
D10*
G36*
X164387493Y-74151535D02*
X164418435Y-74156125D01*
X164448778Y-74163725D01*
X164478230Y-74174263D01*
X164506508Y-74187638D01*
X164533338Y-74203719D01*
X164558463Y-74222353D01*
X164581640Y-74243360D01*
X164602647Y-74266537D01*
X164621281Y-74291662D01*
X164637362Y-74318492D01*
X164650737Y-74346770D01*
X164661275Y-74376222D01*
X164668875Y-74406565D01*
X164673465Y-74437507D01*
X164675000Y-74468750D01*
X164675000Y-75106250D01*
X164673465Y-75137493D01*
X164668875Y-75168435D01*
X164661275Y-75198778D01*
X164650737Y-75228230D01*
X164637362Y-75256508D01*
X164621281Y-75283338D01*
X164602647Y-75308463D01*
X164581640Y-75331640D01*
X164558463Y-75352647D01*
X164533338Y-75371281D01*
X164506508Y-75387362D01*
X164478230Y-75400737D01*
X164448778Y-75411275D01*
X164418435Y-75418875D01*
X164387493Y-75423465D01*
X164356250Y-75425000D01*
X163643750Y-75425000D01*
X163612507Y-75423465D01*
X163581565Y-75418875D01*
X163551222Y-75411275D01*
X163521770Y-75400737D01*
X163493492Y-75387362D01*
X163466662Y-75371281D01*
X163441537Y-75352647D01*
X163418360Y-75331640D01*
X163397353Y-75308463D01*
X163378719Y-75283338D01*
X163362638Y-75256508D01*
X163349263Y-75228230D01*
X163338725Y-75198778D01*
X163331125Y-75168435D01*
X163326535Y-75137493D01*
X163325000Y-75106250D01*
X163325000Y-74468750D01*
X163326535Y-74437507D01*
X163331125Y-74406565D01*
X163338725Y-74376222D01*
X163349263Y-74346770D01*
X163362638Y-74318492D01*
X163378719Y-74291662D01*
X163397353Y-74266537D01*
X163418360Y-74243360D01*
X163441537Y-74222353D01*
X163466662Y-74203719D01*
X163493492Y-74187638D01*
X163521770Y-74174263D01*
X163551222Y-74163725D01*
X163581565Y-74156125D01*
X163612507Y-74151535D01*
X163643750Y-74150000D01*
X164356250Y-74150000D01*
X164387493Y-74151535D01*
X164387493Y-74151535D01*
G37*
D11*
X164000000Y-74787500D03*
G04 #@! TD*
D10*
G04 #@! TO.C,R2*
G36*
X164387493Y-78151535D02*
X164418435Y-78156125D01*
X164448778Y-78163725D01*
X164478230Y-78174263D01*
X164506508Y-78187638D01*
X164533338Y-78203719D01*
X164558463Y-78222353D01*
X164581640Y-78243360D01*
X164602647Y-78266537D01*
X164621281Y-78291662D01*
X164637362Y-78318492D01*
X164650737Y-78346770D01*
X164661275Y-78376222D01*
X164668875Y-78406565D01*
X164673465Y-78437507D01*
X164675000Y-78468750D01*
X164675000Y-79106250D01*
X164673465Y-79137493D01*
X164668875Y-79168435D01*
X164661275Y-79198778D01*
X164650737Y-79228230D01*
X164637362Y-79256508D01*
X164621281Y-79283338D01*
X164602647Y-79308463D01*
X164581640Y-79331640D01*
X164558463Y-79352647D01*
X164533338Y-79371281D01*
X164506508Y-79387362D01*
X164478230Y-79400737D01*
X164448778Y-79411275D01*
X164418435Y-79418875D01*
X164387493Y-79423465D01*
X164356250Y-79425000D01*
X163643750Y-79425000D01*
X163612507Y-79423465D01*
X163581565Y-79418875D01*
X163551222Y-79411275D01*
X163521770Y-79400737D01*
X163493492Y-79387362D01*
X163466662Y-79371281D01*
X163441537Y-79352647D01*
X163418360Y-79331640D01*
X163397353Y-79308463D01*
X163378719Y-79283338D01*
X163362638Y-79256508D01*
X163349263Y-79228230D01*
X163338725Y-79198778D01*
X163331125Y-79168435D01*
X163326535Y-79137493D01*
X163325000Y-79106250D01*
X163325000Y-78468750D01*
X163326535Y-78437507D01*
X163331125Y-78406565D01*
X163338725Y-78376222D01*
X163349263Y-78346770D01*
X163362638Y-78318492D01*
X163378719Y-78291662D01*
X163397353Y-78266537D01*
X163418360Y-78243360D01*
X163441537Y-78222353D01*
X163466662Y-78203719D01*
X163493492Y-78187638D01*
X163521770Y-78174263D01*
X163551222Y-78163725D01*
X163581565Y-78156125D01*
X163612507Y-78151535D01*
X163643750Y-78150000D01*
X164356250Y-78150000D01*
X164387493Y-78151535D01*
X164387493Y-78151535D01*
G37*
D11*
X164000000Y-78787500D03*
D10*
G36*
X164387493Y-76576535D02*
X164418435Y-76581125D01*
X164448778Y-76588725D01*
X164478230Y-76599263D01*
X164506508Y-76612638D01*
X164533338Y-76628719D01*
X164558463Y-76647353D01*
X164581640Y-76668360D01*
X164602647Y-76691537D01*
X164621281Y-76716662D01*
X164637362Y-76743492D01*
X164650737Y-76771770D01*
X164661275Y-76801222D01*
X164668875Y-76831565D01*
X164673465Y-76862507D01*
X164675000Y-76893750D01*
X164675000Y-77531250D01*
X164673465Y-77562493D01*
X164668875Y-77593435D01*
X164661275Y-77623778D01*
X164650737Y-77653230D01*
X164637362Y-77681508D01*
X164621281Y-77708338D01*
X164602647Y-77733463D01*
X164581640Y-77756640D01*
X164558463Y-77777647D01*
X164533338Y-77796281D01*
X164506508Y-77812362D01*
X164478230Y-77825737D01*
X164448778Y-77836275D01*
X164418435Y-77843875D01*
X164387493Y-77848465D01*
X164356250Y-77850000D01*
X163643750Y-77850000D01*
X163612507Y-77848465D01*
X163581565Y-77843875D01*
X163551222Y-77836275D01*
X163521770Y-77825737D01*
X163493492Y-77812362D01*
X163466662Y-77796281D01*
X163441537Y-77777647D01*
X163418360Y-77756640D01*
X163397353Y-77733463D01*
X163378719Y-77708338D01*
X163362638Y-77681508D01*
X163349263Y-77653230D01*
X163338725Y-77623778D01*
X163331125Y-77593435D01*
X163326535Y-77562493D01*
X163325000Y-77531250D01*
X163325000Y-76893750D01*
X163326535Y-76862507D01*
X163331125Y-76831565D01*
X163338725Y-76801222D01*
X163349263Y-76771770D01*
X163362638Y-76743492D01*
X163378719Y-76716662D01*
X163397353Y-76691537D01*
X163418360Y-76668360D01*
X163441537Y-76647353D01*
X163466662Y-76628719D01*
X163493492Y-76612638D01*
X163521770Y-76599263D01*
X163551222Y-76588725D01*
X163581565Y-76581125D01*
X163612507Y-76576535D01*
X163643750Y-76575000D01*
X164356250Y-76575000D01*
X164387493Y-76576535D01*
X164387493Y-76576535D01*
G37*
D11*
X164000000Y-77212500D03*
G04 #@! TD*
D10*
G04 #@! TO.C,R3*
G36*
X164387493Y-68576535D02*
X164418435Y-68581125D01*
X164448778Y-68588725D01*
X164478230Y-68599263D01*
X164506508Y-68612638D01*
X164533338Y-68628719D01*
X164558463Y-68647353D01*
X164581640Y-68668360D01*
X164602647Y-68691537D01*
X164621281Y-68716662D01*
X164637362Y-68743492D01*
X164650737Y-68771770D01*
X164661275Y-68801222D01*
X164668875Y-68831565D01*
X164673465Y-68862507D01*
X164675000Y-68893750D01*
X164675000Y-69531250D01*
X164673465Y-69562493D01*
X164668875Y-69593435D01*
X164661275Y-69623778D01*
X164650737Y-69653230D01*
X164637362Y-69681508D01*
X164621281Y-69708338D01*
X164602647Y-69733463D01*
X164581640Y-69756640D01*
X164558463Y-69777647D01*
X164533338Y-69796281D01*
X164506508Y-69812362D01*
X164478230Y-69825737D01*
X164448778Y-69836275D01*
X164418435Y-69843875D01*
X164387493Y-69848465D01*
X164356250Y-69850000D01*
X163643750Y-69850000D01*
X163612507Y-69848465D01*
X163581565Y-69843875D01*
X163551222Y-69836275D01*
X163521770Y-69825737D01*
X163493492Y-69812362D01*
X163466662Y-69796281D01*
X163441537Y-69777647D01*
X163418360Y-69756640D01*
X163397353Y-69733463D01*
X163378719Y-69708338D01*
X163362638Y-69681508D01*
X163349263Y-69653230D01*
X163338725Y-69623778D01*
X163331125Y-69593435D01*
X163326535Y-69562493D01*
X163325000Y-69531250D01*
X163325000Y-68893750D01*
X163326535Y-68862507D01*
X163331125Y-68831565D01*
X163338725Y-68801222D01*
X163349263Y-68771770D01*
X163362638Y-68743492D01*
X163378719Y-68716662D01*
X163397353Y-68691537D01*
X163418360Y-68668360D01*
X163441537Y-68647353D01*
X163466662Y-68628719D01*
X163493492Y-68612638D01*
X163521770Y-68599263D01*
X163551222Y-68588725D01*
X163581565Y-68581125D01*
X163612507Y-68576535D01*
X163643750Y-68575000D01*
X164356250Y-68575000D01*
X164387493Y-68576535D01*
X164387493Y-68576535D01*
G37*
D11*
X164000000Y-69212500D03*
D10*
G36*
X164387493Y-70151535D02*
X164418435Y-70156125D01*
X164448778Y-70163725D01*
X164478230Y-70174263D01*
X164506508Y-70187638D01*
X164533338Y-70203719D01*
X164558463Y-70222353D01*
X164581640Y-70243360D01*
X164602647Y-70266537D01*
X164621281Y-70291662D01*
X164637362Y-70318492D01*
X164650737Y-70346770D01*
X164661275Y-70376222D01*
X164668875Y-70406565D01*
X164673465Y-70437507D01*
X164675000Y-70468750D01*
X164675000Y-71106250D01*
X164673465Y-71137493D01*
X164668875Y-71168435D01*
X164661275Y-71198778D01*
X164650737Y-71228230D01*
X164637362Y-71256508D01*
X164621281Y-71283338D01*
X164602647Y-71308463D01*
X164581640Y-71331640D01*
X164558463Y-71352647D01*
X164533338Y-71371281D01*
X164506508Y-71387362D01*
X164478230Y-71400737D01*
X164448778Y-71411275D01*
X164418435Y-71418875D01*
X164387493Y-71423465D01*
X164356250Y-71425000D01*
X163643750Y-71425000D01*
X163612507Y-71423465D01*
X163581565Y-71418875D01*
X163551222Y-71411275D01*
X163521770Y-71400737D01*
X163493492Y-71387362D01*
X163466662Y-71371281D01*
X163441537Y-71352647D01*
X163418360Y-71331640D01*
X163397353Y-71308463D01*
X163378719Y-71283338D01*
X163362638Y-71256508D01*
X163349263Y-71228230D01*
X163338725Y-71198778D01*
X163331125Y-71168435D01*
X163326535Y-71137493D01*
X163325000Y-71106250D01*
X163325000Y-70468750D01*
X163326535Y-70437507D01*
X163331125Y-70406565D01*
X163338725Y-70376222D01*
X163349263Y-70346770D01*
X163362638Y-70318492D01*
X163378719Y-70291662D01*
X163397353Y-70266537D01*
X163418360Y-70243360D01*
X163441537Y-70222353D01*
X163466662Y-70203719D01*
X163493492Y-70187638D01*
X163521770Y-70174263D01*
X163551222Y-70163725D01*
X163581565Y-70156125D01*
X163612507Y-70151535D01*
X163643750Y-70150000D01*
X164356250Y-70150000D01*
X164387493Y-70151535D01*
X164387493Y-70151535D01*
G37*
D11*
X164000000Y-70787500D03*
G04 #@! TD*
D10*
G04 #@! TO.C,R4*
G36*
X162387493Y-68576535D02*
X162418435Y-68581125D01*
X162448778Y-68588725D01*
X162478230Y-68599263D01*
X162506508Y-68612638D01*
X162533338Y-68628719D01*
X162558463Y-68647353D01*
X162581640Y-68668360D01*
X162602647Y-68691537D01*
X162621281Y-68716662D01*
X162637362Y-68743492D01*
X162650737Y-68771770D01*
X162661275Y-68801222D01*
X162668875Y-68831565D01*
X162673465Y-68862507D01*
X162675000Y-68893750D01*
X162675000Y-69531250D01*
X162673465Y-69562493D01*
X162668875Y-69593435D01*
X162661275Y-69623778D01*
X162650737Y-69653230D01*
X162637362Y-69681508D01*
X162621281Y-69708338D01*
X162602647Y-69733463D01*
X162581640Y-69756640D01*
X162558463Y-69777647D01*
X162533338Y-69796281D01*
X162506508Y-69812362D01*
X162478230Y-69825737D01*
X162448778Y-69836275D01*
X162418435Y-69843875D01*
X162387493Y-69848465D01*
X162356250Y-69850000D01*
X161643750Y-69850000D01*
X161612507Y-69848465D01*
X161581565Y-69843875D01*
X161551222Y-69836275D01*
X161521770Y-69825737D01*
X161493492Y-69812362D01*
X161466662Y-69796281D01*
X161441537Y-69777647D01*
X161418360Y-69756640D01*
X161397353Y-69733463D01*
X161378719Y-69708338D01*
X161362638Y-69681508D01*
X161349263Y-69653230D01*
X161338725Y-69623778D01*
X161331125Y-69593435D01*
X161326535Y-69562493D01*
X161325000Y-69531250D01*
X161325000Y-68893750D01*
X161326535Y-68862507D01*
X161331125Y-68831565D01*
X161338725Y-68801222D01*
X161349263Y-68771770D01*
X161362638Y-68743492D01*
X161378719Y-68716662D01*
X161397353Y-68691537D01*
X161418360Y-68668360D01*
X161441537Y-68647353D01*
X161466662Y-68628719D01*
X161493492Y-68612638D01*
X161521770Y-68599263D01*
X161551222Y-68588725D01*
X161581565Y-68581125D01*
X161612507Y-68576535D01*
X161643750Y-68575000D01*
X162356250Y-68575000D01*
X162387493Y-68576535D01*
X162387493Y-68576535D01*
G37*
D11*
X162000000Y-69212500D03*
D10*
G36*
X162387493Y-70151535D02*
X162418435Y-70156125D01*
X162448778Y-70163725D01*
X162478230Y-70174263D01*
X162506508Y-70187638D01*
X162533338Y-70203719D01*
X162558463Y-70222353D01*
X162581640Y-70243360D01*
X162602647Y-70266537D01*
X162621281Y-70291662D01*
X162637362Y-70318492D01*
X162650737Y-70346770D01*
X162661275Y-70376222D01*
X162668875Y-70406565D01*
X162673465Y-70437507D01*
X162675000Y-70468750D01*
X162675000Y-71106250D01*
X162673465Y-71137493D01*
X162668875Y-71168435D01*
X162661275Y-71198778D01*
X162650737Y-71228230D01*
X162637362Y-71256508D01*
X162621281Y-71283338D01*
X162602647Y-71308463D01*
X162581640Y-71331640D01*
X162558463Y-71352647D01*
X162533338Y-71371281D01*
X162506508Y-71387362D01*
X162478230Y-71400737D01*
X162448778Y-71411275D01*
X162418435Y-71418875D01*
X162387493Y-71423465D01*
X162356250Y-71425000D01*
X161643750Y-71425000D01*
X161612507Y-71423465D01*
X161581565Y-71418875D01*
X161551222Y-71411275D01*
X161521770Y-71400737D01*
X161493492Y-71387362D01*
X161466662Y-71371281D01*
X161441537Y-71352647D01*
X161418360Y-71331640D01*
X161397353Y-71308463D01*
X161378719Y-71283338D01*
X161362638Y-71256508D01*
X161349263Y-71228230D01*
X161338725Y-71198778D01*
X161331125Y-71168435D01*
X161326535Y-71137493D01*
X161325000Y-71106250D01*
X161325000Y-70468750D01*
X161326535Y-70437507D01*
X161331125Y-70406565D01*
X161338725Y-70376222D01*
X161349263Y-70346770D01*
X161362638Y-70318492D01*
X161378719Y-70291662D01*
X161397353Y-70266537D01*
X161418360Y-70243360D01*
X161441537Y-70222353D01*
X161466662Y-70203719D01*
X161493492Y-70187638D01*
X161521770Y-70174263D01*
X161551222Y-70163725D01*
X161581565Y-70156125D01*
X161612507Y-70151535D01*
X161643750Y-70150000D01*
X162356250Y-70150000D01*
X162387493Y-70151535D01*
X162387493Y-70151535D01*
G37*
D11*
X162000000Y-70787500D03*
G04 #@! TD*
D10*
G04 #@! TO.C,R5*
G36*
X162387493Y-80576535D02*
X162418435Y-80581125D01*
X162448778Y-80588725D01*
X162478230Y-80599263D01*
X162506508Y-80612638D01*
X162533338Y-80628719D01*
X162558463Y-80647353D01*
X162581640Y-80668360D01*
X162602647Y-80691537D01*
X162621281Y-80716662D01*
X162637362Y-80743492D01*
X162650737Y-80771770D01*
X162661275Y-80801222D01*
X162668875Y-80831565D01*
X162673465Y-80862507D01*
X162675000Y-80893750D01*
X162675000Y-81531250D01*
X162673465Y-81562493D01*
X162668875Y-81593435D01*
X162661275Y-81623778D01*
X162650737Y-81653230D01*
X162637362Y-81681508D01*
X162621281Y-81708338D01*
X162602647Y-81733463D01*
X162581640Y-81756640D01*
X162558463Y-81777647D01*
X162533338Y-81796281D01*
X162506508Y-81812362D01*
X162478230Y-81825737D01*
X162448778Y-81836275D01*
X162418435Y-81843875D01*
X162387493Y-81848465D01*
X162356250Y-81850000D01*
X161643750Y-81850000D01*
X161612507Y-81848465D01*
X161581565Y-81843875D01*
X161551222Y-81836275D01*
X161521770Y-81825737D01*
X161493492Y-81812362D01*
X161466662Y-81796281D01*
X161441537Y-81777647D01*
X161418360Y-81756640D01*
X161397353Y-81733463D01*
X161378719Y-81708338D01*
X161362638Y-81681508D01*
X161349263Y-81653230D01*
X161338725Y-81623778D01*
X161331125Y-81593435D01*
X161326535Y-81562493D01*
X161325000Y-81531250D01*
X161325000Y-80893750D01*
X161326535Y-80862507D01*
X161331125Y-80831565D01*
X161338725Y-80801222D01*
X161349263Y-80771770D01*
X161362638Y-80743492D01*
X161378719Y-80716662D01*
X161397353Y-80691537D01*
X161418360Y-80668360D01*
X161441537Y-80647353D01*
X161466662Y-80628719D01*
X161493492Y-80612638D01*
X161521770Y-80599263D01*
X161551222Y-80588725D01*
X161581565Y-80581125D01*
X161612507Y-80576535D01*
X161643750Y-80575000D01*
X162356250Y-80575000D01*
X162387493Y-80576535D01*
X162387493Y-80576535D01*
G37*
D11*
X162000000Y-81212500D03*
D10*
G36*
X162387493Y-82151535D02*
X162418435Y-82156125D01*
X162448778Y-82163725D01*
X162478230Y-82174263D01*
X162506508Y-82187638D01*
X162533338Y-82203719D01*
X162558463Y-82222353D01*
X162581640Y-82243360D01*
X162602647Y-82266537D01*
X162621281Y-82291662D01*
X162637362Y-82318492D01*
X162650737Y-82346770D01*
X162661275Y-82376222D01*
X162668875Y-82406565D01*
X162673465Y-82437507D01*
X162675000Y-82468750D01*
X162675000Y-83106250D01*
X162673465Y-83137493D01*
X162668875Y-83168435D01*
X162661275Y-83198778D01*
X162650737Y-83228230D01*
X162637362Y-83256508D01*
X162621281Y-83283338D01*
X162602647Y-83308463D01*
X162581640Y-83331640D01*
X162558463Y-83352647D01*
X162533338Y-83371281D01*
X162506508Y-83387362D01*
X162478230Y-83400737D01*
X162448778Y-83411275D01*
X162418435Y-83418875D01*
X162387493Y-83423465D01*
X162356250Y-83425000D01*
X161643750Y-83425000D01*
X161612507Y-83423465D01*
X161581565Y-83418875D01*
X161551222Y-83411275D01*
X161521770Y-83400737D01*
X161493492Y-83387362D01*
X161466662Y-83371281D01*
X161441537Y-83352647D01*
X161418360Y-83331640D01*
X161397353Y-83308463D01*
X161378719Y-83283338D01*
X161362638Y-83256508D01*
X161349263Y-83228230D01*
X161338725Y-83198778D01*
X161331125Y-83168435D01*
X161326535Y-83137493D01*
X161325000Y-83106250D01*
X161325000Y-82468750D01*
X161326535Y-82437507D01*
X161331125Y-82406565D01*
X161338725Y-82376222D01*
X161349263Y-82346770D01*
X161362638Y-82318492D01*
X161378719Y-82291662D01*
X161397353Y-82266537D01*
X161418360Y-82243360D01*
X161441537Y-82222353D01*
X161466662Y-82203719D01*
X161493492Y-82187638D01*
X161521770Y-82174263D01*
X161551222Y-82163725D01*
X161581565Y-82156125D01*
X161612507Y-82151535D01*
X161643750Y-82150000D01*
X162356250Y-82150000D01*
X162387493Y-82151535D01*
X162387493Y-82151535D01*
G37*
D11*
X162000000Y-82787500D03*
G04 #@! TD*
D10*
G04 #@! TO.C,R6*
G36*
X164387493Y-80576535D02*
X164418435Y-80581125D01*
X164448778Y-80588725D01*
X164478230Y-80599263D01*
X164506508Y-80612638D01*
X164533338Y-80628719D01*
X164558463Y-80647353D01*
X164581640Y-80668360D01*
X164602647Y-80691537D01*
X164621281Y-80716662D01*
X164637362Y-80743492D01*
X164650737Y-80771770D01*
X164661275Y-80801222D01*
X164668875Y-80831565D01*
X164673465Y-80862507D01*
X164675000Y-80893750D01*
X164675000Y-81531250D01*
X164673465Y-81562493D01*
X164668875Y-81593435D01*
X164661275Y-81623778D01*
X164650737Y-81653230D01*
X164637362Y-81681508D01*
X164621281Y-81708338D01*
X164602647Y-81733463D01*
X164581640Y-81756640D01*
X164558463Y-81777647D01*
X164533338Y-81796281D01*
X164506508Y-81812362D01*
X164478230Y-81825737D01*
X164448778Y-81836275D01*
X164418435Y-81843875D01*
X164387493Y-81848465D01*
X164356250Y-81850000D01*
X163643750Y-81850000D01*
X163612507Y-81848465D01*
X163581565Y-81843875D01*
X163551222Y-81836275D01*
X163521770Y-81825737D01*
X163493492Y-81812362D01*
X163466662Y-81796281D01*
X163441537Y-81777647D01*
X163418360Y-81756640D01*
X163397353Y-81733463D01*
X163378719Y-81708338D01*
X163362638Y-81681508D01*
X163349263Y-81653230D01*
X163338725Y-81623778D01*
X163331125Y-81593435D01*
X163326535Y-81562493D01*
X163325000Y-81531250D01*
X163325000Y-80893750D01*
X163326535Y-80862507D01*
X163331125Y-80831565D01*
X163338725Y-80801222D01*
X163349263Y-80771770D01*
X163362638Y-80743492D01*
X163378719Y-80716662D01*
X163397353Y-80691537D01*
X163418360Y-80668360D01*
X163441537Y-80647353D01*
X163466662Y-80628719D01*
X163493492Y-80612638D01*
X163521770Y-80599263D01*
X163551222Y-80588725D01*
X163581565Y-80581125D01*
X163612507Y-80576535D01*
X163643750Y-80575000D01*
X164356250Y-80575000D01*
X164387493Y-80576535D01*
X164387493Y-80576535D01*
G37*
D11*
X164000000Y-81212500D03*
D10*
G36*
X164387493Y-82151535D02*
X164418435Y-82156125D01*
X164448778Y-82163725D01*
X164478230Y-82174263D01*
X164506508Y-82187638D01*
X164533338Y-82203719D01*
X164558463Y-82222353D01*
X164581640Y-82243360D01*
X164602647Y-82266537D01*
X164621281Y-82291662D01*
X164637362Y-82318492D01*
X164650737Y-82346770D01*
X164661275Y-82376222D01*
X164668875Y-82406565D01*
X164673465Y-82437507D01*
X164675000Y-82468750D01*
X164675000Y-83106250D01*
X164673465Y-83137493D01*
X164668875Y-83168435D01*
X164661275Y-83198778D01*
X164650737Y-83228230D01*
X164637362Y-83256508D01*
X164621281Y-83283338D01*
X164602647Y-83308463D01*
X164581640Y-83331640D01*
X164558463Y-83352647D01*
X164533338Y-83371281D01*
X164506508Y-83387362D01*
X164478230Y-83400737D01*
X164448778Y-83411275D01*
X164418435Y-83418875D01*
X164387493Y-83423465D01*
X164356250Y-83425000D01*
X163643750Y-83425000D01*
X163612507Y-83423465D01*
X163581565Y-83418875D01*
X163551222Y-83411275D01*
X163521770Y-83400737D01*
X163493492Y-83387362D01*
X163466662Y-83371281D01*
X163441537Y-83352647D01*
X163418360Y-83331640D01*
X163397353Y-83308463D01*
X163378719Y-83283338D01*
X163362638Y-83256508D01*
X163349263Y-83228230D01*
X163338725Y-83198778D01*
X163331125Y-83168435D01*
X163326535Y-83137493D01*
X163325000Y-83106250D01*
X163325000Y-82468750D01*
X163326535Y-82437507D01*
X163331125Y-82406565D01*
X163338725Y-82376222D01*
X163349263Y-82346770D01*
X163362638Y-82318492D01*
X163378719Y-82291662D01*
X163397353Y-82266537D01*
X163418360Y-82243360D01*
X163441537Y-82222353D01*
X163466662Y-82203719D01*
X163493492Y-82187638D01*
X163521770Y-82174263D01*
X163551222Y-82163725D01*
X163581565Y-82156125D01*
X163612507Y-82151535D01*
X163643750Y-82150000D01*
X164356250Y-82150000D01*
X164387493Y-82151535D01*
X164387493Y-82151535D01*
G37*
D11*
X164000000Y-82787500D03*
G04 #@! TD*
M02*
