G04 #@! TF.GenerationSoftware,KiCad,Pcbnew,(5.0.0)*
G04 #@! TF.CreationDate,2018-08-29T17:32:18+01:00*
G04 #@! TF.ProjectId,Week5LetsTryANewIC,5765656B354C657473547279414E6577,rev?*
G04 #@! TF.SameCoordinates,Original*
G04 #@! TF.FileFunction,Copper,L1,Top,Signal*
G04 #@! TF.FilePolarity,Positive*
%FSLAX46Y46*%
G04 Gerber Fmt 4.6, Leading zero omitted, Abs format (unit mm)*
G04 Created by KiCad (PCBNEW (5.0.0)) date 08/29/18 17:32:18*
%MOMM*%
%LPD*%
G01*
G04 APERTURE LIST*
G04 #@! TA.AperFunction,Conductor*
%ADD10C,0.100000*%
G04 #@! TD*
G04 #@! TA.AperFunction,SMDPad,CuDef*
%ADD11C,0.875000*%
G04 #@! TD*
G04 #@! TA.AperFunction,SMDPad,CuDef*
%ADD12R,0.350000X0.375000*%
G04 #@! TD*
G04 #@! TA.AperFunction,SMDPad,CuDef*
%ADD13R,0.375000X0.350000*%
G04 #@! TD*
G04 #@! TA.AperFunction,ComponentPad*
%ADD14R,1.700000X1.700000*%
G04 #@! TD*
G04 #@! TA.AperFunction,ComponentPad*
%ADD15O,1.700000X1.700000*%
G04 #@! TD*
G04 #@! TA.AperFunction,ViaPad*
%ADD16C,0.800000*%
G04 #@! TD*
G04 #@! TA.AperFunction,Conductor*
%ADD17C,0.304800*%
G04 #@! TD*
G04 #@! TA.AperFunction,Conductor*
%ADD18C,0.254000*%
G04 #@! TD*
G04 #@! TA.AperFunction,Conductor*
%ADD19C,0.203200*%
G04 #@! TD*
G04 #@! TA.AperFunction,Conductor*
%ADD20C,0.200000*%
G04 #@! TD*
G04 APERTURE END LIST*
D10*
G04 #@! TO.N,VDD*
G04 #@! TO.C,C1*
G36*
X157452691Y-78526053D02*
X157473926Y-78529203D01*
X157494750Y-78534419D01*
X157514962Y-78541651D01*
X157534368Y-78550830D01*
X157552781Y-78561866D01*
X157570024Y-78574654D01*
X157585930Y-78589070D01*
X157600346Y-78604976D01*
X157613134Y-78622219D01*
X157624170Y-78640632D01*
X157633349Y-78660038D01*
X157640581Y-78680250D01*
X157645797Y-78701074D01*
X157648947Y-78722309D01*
X157650000Y-78743750D01*
X157650000Y-79256250D01*
X157648947Y-79277691D01*
X157645797Y-79298926D01*
X157640581Y-79319750D01*
X157633349Y-79339962D01*
X157624170Y-79359368D01*
X157613134Y-79377781D01*
X157600346Y-79395024D01*
X157585930Y-79410930D01*
X157570024Y-79425346D01*
X157552781Y-79438134D01*
X157534368Y-79449170D01*
X157514962Y-79458349D01*
X157494750Y-79465581D01*
X157473926Y-79470797D01*
X157452691Y-79473947D01*
X157431250Y-79475000D01*
X156993750Y-79475000D01*
X156972309Y-79473947D01*
X156951074Y-79470797D01*
X156930250Y-79465581D01*
X156910038Y-79458349D01*
X156890632Y-79449170D01*
X156872219Y-79438134D01*
X156854976Y-79425346D01*
X156839070Y-79410930D01*
X156824654Y-79395024D01*
X156811866Y-79377781D01*
X156800830Y-79359368D01*
X156791651Y-79339962D01*
X156784419Y-79319750D01*
X156779203Y-79298926D01*
X156776053Y-79277691D01*
X156775000Y-79256250D01*
X156775000Y-78743750D01*
X156776053Y-78722309D01*
X156779203Y-78701074D01*
X156784419Y-78680250D01*
X156791651Y-78660038D01*
X156800830Y-78640632D01*
X156811866Y-78622219D01*
X156824654Y-78604976D01*
X156839070Y-78589070D01*
X156854976Y-78574654D01*
X156872219Y-78561866D01*
X156890632Y-78550830D01*
X156910038Y-78541651D01*
X156930250Y-78534419D01*
X156951074Y-78529203D01*
X156972309Y-78526053D01*
X156993750Y-78525000D01*
X157431250Y-78525000D01*
X157452691Y-78526053D01*
X157452691Y-78526053D01*
G37*
D11*
G04 #@! TD*
G04 #@! TO.P,C1,1*
G04 #@! TO.N,VDD*
X157212500Y-79000000D03*
D10*
G04 #@! TO.N,GND*
G04 #@! TO.C,C1*
G36*
X159027691Y-78526053D02*
X159048926Y-78529203D01*
X159069750Y-78534419D01*
X159089962Y-78541651D01*
X159109368Y-78550830D01*
X159127781Y-78561866D01*
X159145024Y-78574654D01*
X159160930Y-78589070D01*
X159175346Y-78604976D01*
X159188134Y-78622219D01*
X159199170Y-78640632D01*
X159208349Y-78660038D01*
X159215581Y-78680250D01*
X159220797Y-78701074D01*
X159223947Y-78722309D01*
X159225000Y-78743750D01*
X159225000Y-79256250D01*
X159223947Y-79277691D01*
X159220797Y-79298926D01*
X159215581Y-79319750D01*
X159208349Y-79339962D01*
X159199170Y-79359368D01*
X159188134Y-79377781D01*
X159175346Y-79395024D01*
X159160930Y-79410930D01*
X159145024Y-79425346D01*
X159127781Y-79438134D01*
X159109368Y-79449170D01*
X159089962Y-79458349D01*
X159069750Y-79465581D01*
X159048926Y-79470797D01*
X159027691Y-79473947D01*
X159006250Y-79475000D01*
X158568750Y-79475000D01*
X158547309Y-79473947D01*
X158526074Y-79470797D01*
X158505250Y-79465581D01*
X158485038Y-79458349D01*
X158465632Y-79449170D01*
X158447219Y-79438134D01*
X158429976Y-79425346D01*
X158414070Y-79410930D01*
X158399654Y-79395024D01*
X158386866Y-79377781D01*
X158375830Y-79359368D01*
X158366651Y-79339962D01*
X158359419Y-79319750D01*
X158354203Y-79298926D01*
X158351053Y-79277691D01*
X158350000Y-79256250D01*
X158350000Y-78743750D01*
X158351053Y-78722309D01*
X158354203Y-78701074D01*
X158359419Y-78680250D01*
X158366651Y-78660038D01*
X158375830Y-78640632D01*
X158386866Y-78622219D01*
X158399654Y-78604976D01*
X158414070Y-78589070D01*
X158429976Y-78574654D01*
X158447219Y-78561866D01*
X158465632Y-78550830D01*
X158485038Y-78541651D01*
X158505250Y-78534419D01*
X158526074Y-78529203D01*
X158547309Y-78526053D01*
X158568750Y-78525000D01*
X159006250Y-78525000D01*
X159027691Y-78526053D01*
X159027691Y-78526053D01*
G37*
D11*
G04 #@! TD*
G04 #@! TO.P,C1,2*
G04 #@! TO.N,GND*
X158787500Y-79000000D03*
D10*
G04 #@! TO.N,GND*
G04 #@! TO.C,C2*
G36*
X159027691Y-72526053D02*
X159048926Y-72529203D01*
X159069750Y-72534419D01*
X159089962Y-72541651D01*
X159109368Y-72550830D01*
X159127781Y-72561866D01*
X159145024Y-72574654D01*
X159160930Y-72589070D01*
X159175346Y-72604976D01*
X159188134Y-72622219D01*
X159199170Y-72640632D01*
X159208349Y-72660038D01*
X159215581Y-72680250D01*
X159220797Y-72701074D01*
X159223947Y-72722309D01*
X159225000Y-72743750D01*
X159225000Y-73256250D01*
X159223947Y-73277691D01*
X159220797Y-73298926D01*
X159215581Y-73319750D01*
X159208349Y-73339962D01*
X159199170Y-73359368D01*
X159188134Y-73377781D01*
X159175346Y-73395024D01*
X159160930Y-73410930D01*
X159145024Y-73425346D01*
X159127781Y-73438134D01*
X159109368Y-73449170D01*
X159089962Y-73458349D01*
X159069750Y-73465581D01*
X159048926Y-73470797D01*
X159027691Y-73473947D01*
X159006250Y-73475000D01*
X158568750Y-73475000D01*
X158547309Y-73473947D01*
X158526074Y-73470797D01*
X158505250Y-73465581D01*
X158485038Y-73458349D01*
X158465632Y-73449170D01*
X158447219Y-73438134D01*
X158429976Y-73425346D01*
X158414070Y-73410930D01*
X158399654Y-73395024D01*
X158386866Y-73377781D01*
X158375830Y-73359368D01*
X158366651Y-73339962D01*
X158359419Y-73319750D01*
X158354203Y-73298926D01*
X158351053Y-73277691D01*
X158350000Y-73256250D01*
X158350000Y-72743750D01*
X158351053Y-72722309D01*
X158354203Y-72701074D01*
X158359419Y-72680250D01*
X158366651Y-72660038D01*
X158375830Y-72640632D01*
X158386866Y-72622219D01*
X158399654Y-72604976D01*
X158414070Y-72589070D01*
X158429976Y-72574654D01*
X158447219Y-72561866D01*
X158465632Y-72550830D01*
X158485038Y-72541651D01*
X158505250Y-72534419D01*
X158526074Y-72529203D01*
X158547309Y-72526053D01*
X158568750Y-72525000D01*
X159006250Y-72525000D01*
X159027691Y-72526053D01*
X159027691Y-72526053D01*
G37*
D11*
G04 #@! TD*
G04 #@! TO.P,C2,2*
G04 #@! TO.N,GND*
X158787500Y-73000000D03*
D10*
G04 #@! TO.N,VDDA*
G04 #@! TO.C,C2*
G36*
X157452691Y-72526053D02*
X157473926Y-72529203D01*
X157494750Y-72534419D01*
X157514962Y-72541651D01*
X157534368Y-72550830D01*
X157552781Y-72561866D01*
X157570024Y-72574654D01*
X157585930Y-72589070D01*
X157600346Y-72604976D01*
X157613134Y-72622219D01*
X157624170Y-72640632D01*
X157633349Y-72660038D01*
X157640581Y-72680250D01*
X157645797Y-72701074D01*
X157648947Y-72722309D01*
X157650000Y-72743750D01*
X157650000Y-73256250D01*
X157648947Y-73277691D01*
X157645797Y-73298926D01*
X157640581Y-73319750D01*
X157633349Y-73339962D01*
X157624170Y-73359368D01*
X157613134Y-73377781D01*
X157600346Y-73395024D01*
X157585930Y-73410930D01*
X157570024Y-73425346D01*
X157552781Y-73438134D01*
X157534368Y-73449170D01*
X157514962Y-73458349D01*
X157494750Y-73465581D01*
X157473926Y-73470797D01*
X157452691Y-73473947D01*
X157431250Y-73475000D01*
X156993750Y-73475000D01*
X156972309Y-73473947D01*
X156951074Y-73470797D01*
X156930250Y-73465581D01*
X156910038Y-73458349D01*
X156890632Y-73449170D01*
X156872219Y-73438134D01*
X156854976Y-73425346D01*
X156839070Y-73410930D01*
X156824654Y-73395024D01*
X156811866Y-73377781D01*
X156800830Y-73359368D01*
X156791651Y-73339962D01*
X156784419Y-73319750D01*
X156779203Y-73298926D01*
X156776053Y-73277691D01*
X156775000Y-73256250D01*
X156775000Y-72743750D01*
X156776053Y-72722309D01*
X156779203Y-72701074D01*
X156784419Y-72680250D01*
X156791651Y-72660038D01*
X156800830Y-72640632D01*
X156811866Y-72622219D01*
X156824654Y-72604976D01*
X156839070Y-72589070D01*
X156854976Y-72574654D01*
X156872219Y-72561866D01*
X156890632Y-72550830D01*
X156910038Y-72541651D01*
X156930250Y-72534419D01*
X156951074Y-72529203D01*
X156972309Y-72526053D01*
X156993750Y-72525000D01*
X157431250Y-72525000D01*
X157452691Y-72526053D01*
X157452691Y-72526053D01*
G37*
D11*
G04 #@! TD*
G04 #@! TO.P,C2,1*
G04 #@! TO.N,VDDA*
X157212500Y-73000000D03*
D12*
G04 #@! TO.P,U1,2*
G04 #@! TO.N,/SDX*
X158250000Y-75237500D03*
G04 #@! TO.P,U1,3*
G04 #@! TO.N,VDDA*
X157750000Y-75237500D03*
G04 #@! TO.P,U1,9*
G04 #@! TO.N,GND*
X158250000Y-76762500D03*
G04 #@! TO.P,U1,8*
X157750000Y-76762500D03*
G04 #@! TO.P,U1,4*
G04 #@! TO.N,Net-(U1-Pad4)*
X157250000Y-75237500D03*
G04 #@! TO.P,U1,7*
G04 #@! TO.N,VDD*
X157250000Y-76762500D03*
G04 #@! TO.P,U1,1*
G04 #@! TO.N,/SDA*
X158750000Y-75237500D03*
G04 #@! TO.P,U1,10*
G04 #@! TO.N,/CSB*
X158750000Y-76762500D03*
D13*
G04 #@! TO.P,U1,5*
G04 #@! TO.N,/INT1*
X157237500Y-75750000D03*
G04 #@! TO.P,U1,6*
G04 #@! TO.N,/INT2*
X157237500Y-76250000D03*
G04 #@! TO.P,U1,11*
G04 #@! TO.N,Net-(U1-Pad11)*
X158762500Y-76250000D03*
G04 #@! TO.P,U1,12*
G04 #@! TO.N,/SCX*
X158762500Y-75750000D03*
G04 #@! TD*
D14*
G04 #@! TO.P,J1,1*
G04 #@! TO.N,VDD*
X168000000Y-67000000D03*
D15*
G04 #@! TO.P,J1,2*
G04 #@! TO.N,VDDA*
X168000000Y-69540000D03*
G04 #@! TO.P,J1,3*
G04 #@! TO.N,/SDA*
X168000000Y-72080000D03*
G04 #@! TO.P,J1,4*
G04 #@! TO.N,/SDX*
X168000000Y-74620000D03*
G04 #@! TO.P,J1,5*
G04 #@! TO.N,/SCX*
X168000000Y-77160000D03*
G04 #@! TO.P,J1,6*
G04 #@! TO.N,/CSB*
X168000000Y-79700000D03*
G04 #@! TO.P,J1,7*
G04 #@! TO.N,/INT1*
X168000000Y-82240000D03*
G04 #@! TO.P,J1,8*
G04 #@! TO.N,/INT2*
X168000000Y-84780000D03*
G04 #@! TO.P,J1,9*
G04 #@! TO.N,GND*
X168000000Y-87320000D03*
G04 #@! TD*
D10*
G04 #@! TO.N,VDDA*
G04 #@! TO.C,R1*
G36*
X164277691Y-72776053D02*
X164298926Y-72779203D01*
X164319750Y-72784419D01*
X164339962Y-72791651D01*
X164359368Y-72800830D01*
X164377781Y-72811866D01*
X164395024Y-72824654D01*
X164410930Y-72839070D01*
X164425346Y-72854976D01*
X164438134Y-72872219D01*
X164449170Y-72890632D01*
X164458349Y-72910038D01*
X164465581Y-72930250D01*
X164470797Y-72951074D01*
X164473947Y-72972309D01*
X164475000Y-72993750D01*
X164475000Y-73431250D01*
X164473947Y-73452691D01*
X164470797Y-73473926D01*
X164465581Y-73494750D01*
X164458349Y-73514962D01*
X164449170Y-73534368D01*
X164438134Y-73552781D01*
X164425346Y-73570024D01*
X164410930Y-73585930D01*
X164395024Y-73600346D01*
X164377781Y-73613134D01*
X164359368Y-73624170D01*
X164339962Y-73633349D01*
X164319750Y-73640581D01*
X164298926Y-73645797D01*
X164277691Y-73648947D01*
X164256250Y-73650000D01*
X163743750Y-73650000D01*
X163722309Y-73648947D01*
X163701074Y-73645797D01*
X163680250Y-73640581D01*
X163660038Y-73633349D01*
X163640632Y-73624170D01*
X163622219Y-73613134D01*
X163604976Y-73600346D01*
X163589070Y-73585930D01*
X163574654Y-73570024D01*
X163561866Y-73552781D01*
X163550830Y-73534368D01*
X163541651Y-73514962D01*
X163534419Y-73494750D01*
X163529203Y-73473926D01*
X163526053Y-73452691D01*
X163525000Y-73431250D01*
X163525000Y-72993750D01*
X163526053Y-72972309D01*
X163529203Y-72951074D01*
X163534419Y-72930250D01*
X163541651Y-72910038D01*
X163550830Y-72890632D01*
X163561866Y-72872219D01*
X163574654Y-72854976D01*
X163589070Y-72839070D01*
X163604976Y-72824654D01*
X163622219Y-72811866D01*
X163640632Y-72800830D01*
X163660038Y-72791651D01*
X163680250Y-72784419D01*
X163701074Y-72779203D01*
X163722309Y-72776053D01*
X163743750Y-72775000D01*
X164256250Y-72775000D01*
X164277691Y-72776053D01*
X164277691Y-72776053D01*
G37*
D11*
G04 #@! TD*
G04 #@! TO.P,R1,1*
G04 #@! TO.N,VDDA*
X164000000Y-73212500D03*
D10*
G04 #@! TO.N,/SDX*
G04 #@! TO.C,R1*
G36*
X164277691Y-74351053D02*
X164298926Y-74354203D01*
X164319750Y-74359419D01*
X164339962Y-74366651D01*
X164359368Y-74375830D01*
X164377781Y-74386866D01*
X164395024Y-74399654D01*
X164410930Y-74414070D01*
X164425346Y-74429976D01*
X164438134Y-74447219D01*
X164449170Y-74465632D01*
X164458349Y-74485038D01*
X164465581Y-74505250D01*
X164470797Y-74526074D01*
X164473947Y-74547309D01*
X164475000Y-74568750D01*
X164475000Y-75006250D01*
X164473947Y-75027691D01*
X164470797Y-75048926D01*
X164465581Y-75069750D01*
X164458349Y-75089962D01*
X164449170Y-75109368D01*
X164438134Y-75127781D01*
X164425346Y-75145024D01*
X164410930Y-75160930D01*
X164395024Y-75175346D01*
X164377781Y-75188134D01*
X164359368Y-75199170D01*
X164339962Y-75208349D01*
X164319750Y-75215581D01*
X164298926Y-75220797D01*
X164277691Y-75223947D01*
X164256250Y-75225000D01*
X163743750Y-75225000D01*
X163722309Y-75223947D01*
X163701074Y-75220797D01*
X163680250Y-75215581D01*
X163660038Y-75208349D01*
X163640632Y-75199170D01*
X163622219Y-75188134D01*
X163604976Y-75175346D01*
X163589070Y-75160930D01*
X163574654Y-75145024D01*
X163561866Y-75127781D01*
X163550830Y-75109368D01*
X163541651Y-75089962D01*
X163534419Y-75069750D01*
X163529203Y-75048926D01*
X163526053Y-75027691D01*
X163525000Y-75006250D01*
X163525000Y-74568750D01*
X163526053Y-74547309D01*
X163529203Y-74526074D01*
X163534419Y-74505250D01*
X163541651Y-74485038D01*
X163550830Y-74465632D01*
X163561866Y-74447219D01*
X163574654Y-74429976D01*
X163589070Y-74414070D01*
X163604976Y-74399654D01*
X163622219Y-74386866D01*
X163640632Y-74375830D01*
X163660038Y-74366651D01*
X163680250Y-74359419D01*
X163701074Y-74354203D01*
X163722309Y-74351053D01*
X163743750Y-74350000D01*
X164256250Y-74350000D01*
X164277691Y-74351053D01*
X164277691Y-74351053D01*
G37*
D11*
G04 #@! TD*
G04 #@! TO.P,R1,2*
G04 #@! TO.N,/SDX*
X164000000Y-74787500D03*
D10*
G04 #@! TO.N,/SCX*
G04 #@! TO.C,R2*
G36*
X164277691Y-78351053D02*
X164298926Y-78354203D01*
X164319750Y-78359419D01*
X164339962Y-78366651D01*
X164359368Y-78375830D01*
X164377781Y-78386866D01*
X164395024Y-78399654D01*
X164410930Y-78414070D01*
X164425346Y-78429976D01*
X164438134Y-78447219D01*
X164449170Y-78465632D01*
X164458349Y-78485038D01*
X164465581Y-78505250D01*
X164470797Y-78526074D01*
X164473947Y-78547309D01*
X164475000Y-78568750D01*
X164475000Y-79006250D01*
X164473947Y-79027691D01*
X164470797Y-79048926D01*
X164465581Y-79069750D01*
X164458349Y-79089962D01*
X164449170Y-79109368D01*
X164438134Y-79127781D01*
X164425346Y-79145024D01*
X164410930Y-79160930D01*
X164395024Y-79175346D01*
X164377781Y-79188134D01*
X164359368Y-79199170D01*
X164339962Y-79208349D01*
X164319750Y-79215581D01*
X164298926Y-79220797D01*
X164277691Y-79223947D01*
X164256250Y-79225000D01*
X163743750Y-79225000D01*
X163722309Y-79223947D01*
X163701074Y-79220797D01*
X163680250Y-79215581D01*
X163660038Y-79208349D01*
X163640632Y-79199170D01*
X163622219Y-79188134D01*
X163604976Y-79175346D01*
X163589070Y-79160930D01*
X163574654Y-79145024D01*
X163561866Y-79127781D01*
X163550830Y-79109368D01*
X163541651Y-79089962D01*
X163534419Y-79069750D01*
X163529203Y-79048926D01*
X163526053Y-79027691D01*
X163525000Y-79006250D01*
X163525000Y-78568750D01*
X163526053Y-78547309D01*
X163529203Y-78526074D01*
X163534419Y-78505250D01*
X163541651Y-78485038D01*
X163550830Y-78465632D01*
X163561866Y-78447219D01*
X163574654Y-78429976D01*
X163589070Y-78414070D01*
X163604976Y-78399654D01*
X163622219Y-78386866D01*
X163640632Y-78375830D01*
X163660038Y-78366651D01*
X163680250Y-78359419D01*
X163701074Y-78354203D01*
X163722309Y-78351053D01*
X163743750Y-78350000D01*
X164256250Y-78350000D01*
X164277691Y-78351053D01*
X164277691Y-78351053D01*
G37*
D11*
G04 #@! TD*
G04 #@! TO.P,R2,2*
G04 #@! TO.N,/SCX*
X164000000Y-78787500D03*
D10*
G04 #@! TO.N,VDDA*
G04 #@! TO.C,R2*
G36*
X164277691Y-76776053D02*
X164298926Y-76779203D01*
X164319750Y-76784419D01*
X164339962Y-76791651D01*
X164359368Y-76800830D01*
X164377781Y-76811866D01*
X164395024Y-76824654D01*
X164410930Y-76839070D01*
X164425346Y-76854976D01*
X164438134Y-76872219D01*
X164449170Y-76890632D01*
X164458349Y-76910038D01*
X164465581Y-76930250D01*
X164470797Y-76951074D01*
X164473947Y-76972309D01*
X164475000Y-76993750D01*
X164475000Y-77431250D01*
X164473947Y-77452691D01*
X164470797Y-77473926D01*
X164465581Y-77494750D01*
X164458349Y-77514962D01*
X164449170Y-77534368D01*
X164438134Y-77552781D01*
X164425346Y-77570024D01*
X164410930Y-77585930D01*
X164395024Y-77600346D01*
X164377781Y-77613134D01*
X164359368Y-77624170D01*
X164339962Y-77633349D01*
X164319750Y-77640581D01*
X164298926Y-77645797D01*
X164277691Y-77648947D01*
X164256250Y-77650000D01*
X163743750Y-77650000D01*
X163722309Y-77648947D01*
X163701074Y-77645797D01*
X163680250Y-77640581D01*
X163660038Y-77633349D01*
X163640632Y-77624170D01*
X163622219Y-77613134D01*
X163604976Y-77600346D01*
X163589070Y-77585930D01*
X163574654Y-77570024D01*
X163561866Y-77552781D01*
X163550830Y-77534368D01*
X163541651Y-77514962D01*
X163534419Y-77494750D01*
X163529203Y-77473926D01*
X163526053Y-77452691D01*
X163525000Y-77431250D01*
X163525000Y-76993750D01*
X163526053Y-76972309D01*
X163529203Y-76951074D01*
X163534419Y-76930250D01*
X163541651Y-76910038D01*
X163550830Y-76890632D01*
X163561866Y-76872219D01*
X163574654Y-76854976D01*
X163589070Y-76839070D01*
X163604976Y-76824654D01*
X163622219Y-76811866D01*
X163640632Y-76800830D01*
X163660038Y-76791651D01*
X163680250Y-76784419D01*
X163701074Y-76779203D01*
X163722309Y-76776053D01*
X163743750Y-76775000D01*
X164256250Y-76775000D01*
X164277691Y-76776053D01*
X164277691Y-76776053D01*
G37*
D11*
G04 #@! TD*
G04 #@! TO.P,R2,1*
G04 #@! TO.N,VDDA*
X164000000Y-77212500D03*
D10*
G04 #@! TO.N,VDDA*
G04 #@! TO.C,R3*
G36*
X164277691Y-68776053D02*
X164298926Y-68779203D01*
X164319750Y-68784419D01*
X164339962Y-68791651D01*
X164359368Y-68800830D01*
X164377781Y-68811866D01*
X164395024Y-68824654D01*
X164410930Y-68839070D01*
X164425346Y-68854976D01*
X164438134Y-68872219D01*
X164449170Y-68890632D01*
X164458349Y-68910038D01*
X164465581Y-68930250D01*
X164470797Y-68951074D01*
X164473947Y-68972309D01*
X164475000Y-68993750D01*
X164475000Y-69431250D01*
X164473947Y-69452691D01*
X164470797Y-69473926D01*
X164465581Y-69494750D01*
X164458349Y-69514962D01*
X164449170Y-69534368D01*
X164438134Y-69552781D01*
X164425346Y-69570024D01*
X164410930Y-69585930D01*
X164395024Y-69600346D01*
X164377781Y-69613134D01*
X164359368Y-69624170D01*
X164339962Y-69633349D01*
X164319750Y-69640581D01*
X164298926Y-69645797D01*
X164277691Y-69648947D01*
X164256250Y-69650000D01*
X163743750Y-69650000D01*
X163722309Y-69648947D01*
X163701074Y-69645797D01*
X163680250Y-69640581D01*
X163660038Y-69633349D01*
X163640632Y-69624170D01*
X163622219Y-69613134D01*
X163604976Y-69600346D01*
X163589070Y-69585930D01*
X163574654Y-69570024D01*
X163561866Y-69552781D01*
X163550830Y-69534368D01*
X163541651Y-69514962D01*
X163534419Y-69494750D01*
X163529203Y-69473926D01*
X163526053Y-69452691D01*
X163525000Y-69431250D01*
X163525000Y-68993750D01*
X163526053Y-68972309D01*
X163529203Y-68951074D01*
X163534419Y-68930250D01*
X163541651Y-68910038D01*
X163550830Y-68890632D01*
X163561866Y-68872219D01*
X163574654Y-68854976D01*
X163589070Y-68839070D01*
X163604976Y-68824654D01*
X163622219Y-68811866D01*
X163640632Y-68800830D01*
X163660038Y-68791651D01*
X163680250Y-68784419D01*
X163701074Y-68779203D01*
X163722309Y-68776053D01*
X163743750Y-68775000D01*
X164256250Y-68775000D01*
X164277691Y-68776053D01*
X164277691Y-68776053D01*
G37*
D11*
G04 #@! TD*
G04 #@! TO.P,R3,1*
G04 #@! TO.N,VDDA*
X164000000Y-69212500D03*
D10*
G04 #@! TO.N,/SDA*
G04 #@! TO.C,R3*
G36*
X164277691Y-70351053D02*
X164298926Y-70354203D01*
X164319750Y-70359419D01*
X164339962Y-70366651D01*
X164359368Y-70375830D01*
X164377781Y-70386866D01*
X164395024Y-70399654D01*
X164410930Y-70414070D01*
X164425346Y-70429976D01*
X164438134Y-70447219D01*
X164449170Y-70465632D01*
X164458349Y-70485038D01*
X164465581Y-70505250D01*
X164470797Y-70526074D01*
X164473947Y-70547309D01*
X164475000Y-70568750D01*
X164475000Y-71006250D01*
X164473947Y-71027691D01*
X164470797Y-71048926D01*
X164465581Y-71069750D01*
X164458349Y-71089962D01*
X164449170Y-71109368D01*
X164438134Y-71127781D01*
X164425346Y-71145024D01*
X164410930Y-71160930D01*
X164395024Y-71175346D01*
X164377781Y-71188134D01*
X164359368Y-71199170D01*
X164339962Y-71208349D01*
X164319750Y-71215581D01*
X164298926Y-71220797D01*
X164277691Y-71223947D01*
X164256250Y-71225000D01*
X163743750Y-71225000D01*
X163722309Y-71223947D01*
X163701074Y-71220797D01*
X163680250Y-71215581D01*
X163660038Y-71208349D01*
X163640632Y-71199170D01*
X163622219Y-71188134D01*
X163604976Y-71175346D01*
X163589070Y-71160930D01*
X163574654Y-71145024D01*
X163561866Y-71127781D01*
X163550830Y-71109368D01*
X163541651Y-71089962D01*
X163534419Y-71069750D01*
X163529203Y-71048926D01*
X163526053Y-71027691D01*
X163525000Y-71006250D01*
X163525000Y-70568750D01*
X163526053Y-70547309D01*
X163529203Y-70526074D01*
X163534419Y-70505250D01*
X163541651Y-70485038D01*
X163550830Y-70465632D01*
X163561866Y-70447219D01*
X163574654Y-70429976D01*
X163589070Y-70414070D01*
X163604976Y-70399654D01*
X163622219Y-70386866D01*
X163640632Y-70375830D01*
X163660038Y-70366651D01*
X163680250Y-70359419D01*
X163701074Y-70354203D01*
X163722309Y-70351053D01*
X163743750Y-70350000D01*
X164256250Y-70350000D01*
X164277691Y-70351053D01*
X164277691Y-70351053D01*
G37*
D11*
G04 #@! TD*
G04 #@! TO.P,R3,2*
G04 #@! TO.N,/SDA*
X164000000Y-70787500D03*
D10*
G04 #@! TO.N,GND*
G04 #@! TO.C,R4*
G36*
X162277691Y-68776053D02*
X162298926Y-68779203D01*
X162319750Y-68784419D01*
X162339962Y-68791651D01*
X162359368Y-68800830D01*
X162377781Y-68811866D01*
X162395024Y-68824654D01*
X162410930Y-68839070D01*
X162425346Y-68854976D01*
X162438134Y-68872219D01*
X162449170Y-68890632D01*
X162458349Y-68910038D01*
X162465581Y-68930250D01*
X162470797Y-68951074D01*
X162473947Y-68972309D01*
X162475000Y-68993750D01*
X162475000Y-69431250D01*
X162473947Y-69452691D01*
X162470797Y-69473926D01*
X162465581Y-69494750D01*
X162458349Y-69514962D01*
X162449170Y-69534368D01*
X162438134Y-69552781D01*
X162425346Y-69570024D01*
X162410930Y-69585930D01*
X162395024Y-69600346D01*
X162377781Y-69613134D01*
X162359368Y-69624170D01*
X162339962Y-69633349D01*
X162319750Y-69640581D01*
X162298926Y-69645797D01*
X162277691Y-69648947D01*
X162256250Y-69650000D01*
X161743750Y-69650000D01*
X161722309Y-69648947D01*
X161701074Y-69645797D01*
X161680250Y-69640581D01*
X161660038Y-69633349D01*
X161640632Y-69624170D01*
X161622219Y-69613134D01*
X161604976Y-69600346D01*
X161589070Y-69585930D01*
X161574654Y-69570024D01*
X161561866Y-69552781D01*
X161550830Y-69534368D01*
X161541651Y-69514962D01*
X161534419Y-69494750D01*
X161529203Y-69473926D01*
X161526053Y-69452691D01*
X161525000Y-69431250D01*
X161525000Y-68993750D01*
X161526053Y-68972309D01*
X161529203Y-68951074D01*
X161534419Y-68930250D01*
X161541651Y-68910038D01*
X161550830Y-68890632D01*
X161561866Y-68872219D01*
X161574654Y-68854976D01*
X161589070Y-68839070D01*
X161604976Y-68824654D01*
X161622219Y-68811866D01*
X161640632Y-68800830D01*
X161660038Y-68791651D01*
X161680250Y-68784419D01*
X161701074Y-68779203D01*
X161722309Y-68776053D01*
X161743750Y-68775000D01*
X162256250Y-68775000D01*
X162277691Y-68776053D01*
X162277691Y-68776053D01*
G37*
D11*
G04 #@! TD*
G04 #@! TO.P,R4,2*
G04 #@! TO.N,GND*
X162000000Y-69212500D03*
D10*
G04 #@! TO.N,/SDA*
G04 #@! TO.C,R4*
G36*
X162277691Y-70351053D02*
X162298926Y-70354203D01*
X162319750Y-70359419D01*
X162339962Y-70366651D01*
X162359368Y-70375830D01*
X162377781Y-70386866D01*
X162395024Y-70399654D01*
X162410930Y-70414070D01*
X162425346Y-70429976D01*
X162438134Y-70447219D01*
X162449170Y-70465632D01*
X162458349Y-70485038D01*
X162465581Y-70505250D01*
X162470797Y-70526074D01*
X162473947Y-70547309D01*
X162475000Y-70568750D01*
X162475000Y-71006250D01*
X162473947Y-71027691D01*
X162470797Y-71048926D01*
X162465581Y-71069750D01*
X162458349Y-71089962D01*
X162449170Y-71109368D01*
X162438134Y-71127781D01*
X162425346Y-71145024D01*
X162410930Y-71160930D01*
X162395024Y-71175346D01*
X162377781Y-71188134D01*
X162359368Y-71199170D01*
X162339962Y-71208349D01*
X162319750Y-71215581D01*
X162298926Y-71220797D01*
X162277691Y-71223947D01*
X162256250Y-71225000D01*
X161743750Y-71225000D01*
X161722309Y-71223947D01*
X161701074Y-71220797D01*
X161680250Y-71215581D01*
X161660038Y-71208349D01*
X161640632Y-71199170D01*
X161622219Y-71188134D01*
X161604976Y-71175346D01*
X161589070Y-71160930D01*
X161574654Y-71145024D01*
X161561866Y-71127781D01*
X161550830Y-71109368D01*
X161541651Y-71089962D01*
X161534419Y-71069750D01*
X161529203Y-71048926D01*
X161526053Y-71027691D01*
X161525000Y-71006250D01*
X161525000Y-70568750D01*
X161526053Y-70547309D01*
X161529203Y-70526074D01*
X161534419Y-70505250D01*
X161541651Y-70485038D01*
X161550830Y-70465632D01*
X161561866Y-70447219D01*
X161574654Y-70429976D01*
X161589070Y-70414070D01*
X161604976Y-70399654D01*
X161622219Y-70386866D01*
X161640632Y-70375830D01*
X161660038Y-70366651D01*
X161680250Y-70359419D01*
X161701074Y-70354203D01*
X161722309Y-70351053D01*
X161743750Y-70350000D01*
X162256250Y-70350000D01*
X162277691Y-70351053D01*
X162277691Y-70351053D01*
G37*
D11*
G04 #@! TD*
G04 #@! TO.P,R4,1*
G04 #@! TO.N,/SDA*
X162000000Y-70787500D03*
D10*
G04 #@! TO.N,/CSB*
G04 #@! TO.C,R5*
G36*
X162277691Y-80776053D02*
X162298926Y-80779203D01*
X162319750Y-80784419D01*
X162339962Y-80791651D01*
X162359368Y-80800830D01*
X162377781Y-80811866D01*
X162395024Y-80824654D01*
X162410930Y-80839070D01*
X162425346Y-80854976D01*
X162438134Y-80872219D01*
X162449170Y-80890632D01*
X162458349Y-80910038D01*
X162465581Y-80930250D01*
X162470797Y-80951074D01*
X162473947Y-80972309D01*
X162475000Y-80993750D01*
X162475000Y-81431250D01*
X162473947Y-81452691D01*
X162470797Y-81473926D01*
X162465581Y-81494750D01*
X162458349Y-81514962D01*
X162449170Y-81534368D01*
X162438134Y-81552781D01*
X162425346Y-81570024D01*
X162410930Y-81585930D01*
X162395024Y-81600346D01*
X162377781Y-81613134D01*
X162359368Y-81624170D01*
X162339962Y-81633349D01*
X162319750Y-81640581D01*
X162298926Y-81645797D01*
X162277691Y-81648947D01*
X162256250Y-81650000D01*
X161743750Y-81650000D01*
X161722309Y-81648947D01*
X161701074Y-81645797D01*
X161680250Y-81640581D01*
X161660038Y-81633349D01*
X161640632Y-81624170D01*
X161622219Y-81613134D01*
X161604976Y-81600346D01*
X161589070Y-81585930D01*
X161574654Y-81570024D01*
X161561866Y-81552781D01*
X161550830Y-81534368D01*
X161541651Y-81514962D01*
X161534419Y-81494750D01*
X161529203Y-81473926D01*
X161526053Y-81452691D01*
X161525000Y-81431250D01*
X161525000Y-80993750D01*
X161526053Y-80972309D01*
X161529203Y-80951074D01*
X161534419Y-80930250D01*
X161541651Y-80910038D01*
X161550830Y-80890632D01*
X161561866Y-80872219D01*
X161574654Y-80854976D01*
X161589070Y-80839070D01*
X161604976Y-80824654D01*
X161622219Y-80811866D01*
X161640632Y-80800830D01*
X161660038Y-80791651D01*
X161680250Y-80784419D01*
X161701074Y-80779203D01*
X161722309Y-80776053D01*
X161743750Y-80775000D01*
X162256250Y-80775000D01*
X162277691Y-80776053D01*
X162277691Y-80776053D01*
G37*
D11*
G04 #@! TD*
G04 #@! TO.P,R5,2*
G04 #@! TO.N,/CSB*
X162000000Y-81212500D03*
D10*
G04 #@! TO.N,VDDA*
G04 #@! TO.C,R5*
G36*
X162277691Y-82351053D02*
X162298926Y-82354203D01*
X162319750Y-82359419D01*
X162339962Y-82366651D01*
X162359368Y-82375830D01*
X162377781Y-82386866D01*
X162395024Y-82399654D01*
X162410930Y-82414070D01*
X162425346Y-82429976D01*
X162438134Y-82447219D01*
X162449170Y-82465632D01*
X162458349Y-82485038D01*
X162465581Y-82505250D01*
X162470797Y-82526074D01*
X162473947Y-82547309D01*
X162475000Y-82568750D01*
X162475000Y-83006250D01*
X162473947Y-83027691D01*
X162470797Y-83048926D01*
X162465581Y-83069750D01*
X162458349Y-83089962D01*
X162449170Y-83109368D01*
X162438134Y-83127781D01*
X162425346Y-83145024D01*
X162410930Y-83160930D01*
X162395024Y-83175346D01*
X162377781Y-83188134D01*
X162359368Y-83199170D01*
X162339962Y-83208349D01*
X162319750Y-83215581D01*
X162298926Y-83220797D01*
X162277691Y-83223947D01*
X162256250Y-83225000D01*
X161743750Y-83225000D01*
X161722309Y-83223947D01*
X161701074Y-83220797D01*
X161680250Y-83215581D01*
X161660038Y-83208349D01*
X161640632Y-83199170D01*
X161622219Y-83188134D01*
X161604976Y-83175346D01*
X161589070Y-83160930D01*
X161574654Y-83145024D01*
X161561866Y-83127781D01*
X161550830Y-83109368D01*
X161541651Y-83089962D01*
X161534419Y-83069750D01*
X161529203Y-83048926D01*
X161526053Y-83027691D01*
X161525000Y-83006250D01*
X161525000Y-82568750D01*
X161526053Y-82547309D01*
X161529203Y-82526074D01*
X161534419Y-82505250D01*
X161541651Y-82485038D01*
X161550830Y-82465632D01*
X161561866Y-82447219D01*
X161574654Y-82429976D01*
X161589070Y-82414070D01*
X161604976Y-82399654D01*
X161622219Y-82386866D01*
X161640632Y-82375830D01*
X161660038Y-82366651D01*
X161680250Y-82359419D01*
X161701074Y-82354203D01*
X161722309Y-82351053D01*
X161743750Y-82350000D01*
X162256250Y-82350000D01*
X162277691Y-82351053D01*
X162277691Y-82351053D01*
G37*
D11*
G04 #@! TD*
G04 #@! TO.P,R5,1*
G04 #@! TO.N,VDDA*
X162000000Y-82787500D03*
D10*
G04 #@! TO.N,/CSB*
G04 #@! TO.C,R6*
G36*
X164277691Y-80776053D02*
X164298926Y-80779203D01*
X164319750Y-80784419D01*
X164339962Y-80791651D01*
X164359368Y-80800830D01*
X164377781Y-80811866D01*
X164395024Y-80824654D01*
X164410930Y-80839070D01*
X164425346Y-80854976D01*
X164438134Y-80872219D01*
X164449170Y-80890632D01*
X164458349Y-80910038D01*
X164465581Y-80930250D01*
X164470797Y-80951074D01*
X164473947Y-80972309D01*
X164475000Y-80993750D01*
X164475000Y-81431250D01*
X164473947Y-81452691D01*
X164470797Y-81473926D01*
X164465581Y-81494750D01*
X164458349Y-81514962D01*
X164449170Y-81534368D01*
X164438134Y-81552781D01*
X164425346Y-81570024D01*
X164410930Y-81585930D01*
X164395024Y-81600346D01*
X164377781Y-81613134D01*
X164359368Y-81624170D01*
X164339962Y-81633349D01*
X164319750Y-81640581D01*
X164298926Y-81645797D01*
X164277691Y-81648947D01*
X164256250Y-81650000D01*
X163743750Y-81650000D01*
X163722309Y-81648947D01*
X163701074Y-81645797D01*
X163680250Y-81640581D01*
X163660038Y-81633349D01*
X163640632Y-81624170D01*
X163622219Y-81613134D01*
X163604976Y-81600346D01*
X163589070Y-81585930D01*
X163574654Y-81570024D01*
X163561866Y-81552781D01*
X163550830Y-81534368D01*
X163541651Y-81514962D01*
X163534419Y-81494750D01*
X163529203Y-81473926D01*
X163526053Y-81452691D01*
X163525000Y-81431250D01*
X163525000Y-80993750D01*
X163526053Y-80972309D01*
X163529203Y-80951074D01*
X163534419Y-80930250D01*
X163541651Y-80910038D01*
X163550830Y-80890632D01*
X163561866Y-80872219D01*
X163574654Y-80854976D01*
X163589070Y-80839070D01*
X163604976Y-80824654D01*
X163622219Y-80811866D01*
X163640632Y-80800830D01*
X163660038Y-80791651D01*
X163680250Y-80784419D01*
X163701074Y-80779203D01*
X163722309Y-80776053D01*
X163743750Y-80775000D01*
X164256250Y-80775000D01*
X164277691Y-80776053D01*
X164277691Y-80776053D01*
G37*
D11*
G04 #@! TD*
G04 #@! TO.P,R6,1*
G04 #@! TO.N,/CSB*
X164000000Y-81212500D03*
D10*
G04 #@! TO.N,GND*
G04 #@! TO.C,R6*
G36*
X164277691Y-82351053D02*
X164298926Y-82354203D01*
X164319750Y-82359419D01*
X164339962Y-82366651D01*
X164359368Y-82375830D01*
X164377781Y-82386866D01*
X164395024Y-82399654D01*
X164410930Y-82414070D01*
X164425346Y-82429976D01*
X164438134Y-82447219D01*
X164449170Y-82465632D01*
X164458349Y-82485038D01*
X164465581Y-82505250D01*
X164470797Y-82526074D01*
X164473947Y-82547309D01*
X164475000Y-82568750D01*
X164475000Y-83006250D01*
X164473947Y-83027691D01*
X164470797Y-83048926D01*
X164465581Y-83069750D01*
X164458349Y-83089962D01*
X164449170Y-83109368D01*
X164438134Y-83127781D01*
X164425346Y-83145024D01*
X164410930Y-83160930D01*
X164395024Y-83175346D01*
X164377781Y-83188134D01*
X164359368Y-83199170D01*
X164339962Y-83208349D01*
X164319750Y-83215581D01*
X164298926Y-83220797D01*
X164277691Y-83223947D01*
X164256250Y-83225000D01*
X163743750Y-83225000D01*
X163722309Y-83223947D01*
X163701074Y-83220797D01*
X163680250Y-83215581D01*
X163660038Y-83208349D01*
X163640632Y-83199170D01*
X163622219Y-83188134D01*
X163604976Y-83175346D01*
X163589070Y-83160930D01*
X163574654Y-83145024D01*
X163561866Y-83127781D01*
X163550830Y-83109368D01*
X163541651Y-83089962D01*
X163534419Y-83069750D01*
X163529203Y-83048926D01*
X163526053Y-83027691D01*
X163525000Y-83006250D01*
X163525000Y-82568750D01*
X163526053Y-82547309D01*
X163529203Y-82526074D01*
X163534419Y-82505250D01*
X163541651Y-82485038D01*
X163550830Y-82465632D01*
X163561866Y-82447219D01*
X163574654Y-82429976D01*
X163589070Y-82414070D01*
X163604976Y-82399654D01*
X163622219Y-82386866D01*
X163640632Y-82375830D01*
X163660038Y-82366651D01*
X163680250Y-82359419D01*
X163701074Y-82354203D01*
X163722309Y-82351053D01*
X163743750Y-82350000D01*
X164256250Y-82350000D01*
X164277691Y-82351053D01*
X164277691Y-82351053D01*
G37*
D11*
G04 #@! TD*
G04 #@! TO.P,R6,2*
G04 #@! TO.N,GND*
X164000000Y-82787500D03*
D16*
G04 #@! TO.N,VDD*
X157734000Y-80518000D03*
G04 #@! TO.N,GND*
X158000000Y-78000000D03*
G04 #@! TO.N,VDDA*
X165608000Y-73152000D03*
X165608000Y-76200000D03*
X160274000Y-81280000D03*
G04 #@! TO.N,/SDA*
X162052000Y-73152000D03*
X162052000Y-75438000D03*
G04 #@! TO.N,/INT1*
X155898000Y-75750000D03*
G04 #@! TO.N,/INT2*
X155702000Y-76962000D03*
G04 #@! TD*
D17*
G04 #@! TO.N,VDD*
X157212500Y-79000000D02*
X156464000Y-78251500D01*
X156464000Y-78251500D02*
X156464000Y-77470000D01*
X157156599Y-76777401D02*
X157222599Y-76777401D01*
X156464000Y-77470000D02*
X157156599Y-76777401D01*
D18*
X157212500Y-79996500D02*
X157734000Y-80518000D01*
X157212500Y-79000000D02*
X157212500Y-79996500D01*
D17*
G04 #@! TO.N,VDDA*
X167672500Y-69212500D02*
X168000000Y-69540000D01*
X164000000Y-69212500D02*
X167672500Y-69212500D01*
D18*
X157212500Y-73575000D02*
X157734000Y-74096500D01*
X157212500Y-73000000D02*
X157212500Y-73575000D01*
X157734000Y-74096500D02*
X157734000Y-74930000D01*
X164461612Y-76750888D02*
X165057112Y-76750888D01*
X164000000Y-77212500D02*
X164461612Y-76750888D01*
X165057112Y-76750888D02*
X165608000Y-76200000D01*
X164575000Y-73212500D02*
X164635500Y-73152000D01*
X164000000Y-73212500D02*
X164575000Y-73212500D01*
X164635500Y-73152000D02*
X165608000Y-73152000D01*
X157212500Y-68847500D02*
X157212500Y-73000000D01*
X157988000Y-68072000D02*
X157212500Y-68847500D01*
X163397000Y-68072000D02*
X157988000Y-68072000D01*
X164000000Y-69212500D02*
X164000000Y-68675000D01*
X164000000Y-68675000D02*
X163397000Y-68072000D01*
X165608000Y-73152000D02*
X165608000Y-73152000D01*
X165608000Y-76200000D02*
X165608000Y-76200000D01*
D19*
X157734000Y-75221500D02*
X157750000Y-75237500D01*
X157734000Y-74930000D02*
X157734000Y-75221500D01*
X161538388Y-82325888D02*
X161319888Y-82325888D01*
X162000000Y-82787500D02*
X161538388Y-82325888D01*
X161319888Y-82325888D02*
X160274000Y-81280000D01*
X160274000Y-81280000D02*
X160274000Y-81280000D01*
G04 #@! TO.N,/SDX*
X167832500Y-74787500D02*
X168000000Y-74620000D01*
X164000000Y-74787500D02*
X167832500Y-74787500D01*
X158250000Y-74846800D02*
X158242000Y-74838800D01*
X158250000Y-75237500D02*
X158250000Y-74846800D01*
X158242000Y-74838800D02*
X158242000Y-74676000D01*
X158242000Y-74676000D02*
X158496000Y-74422000D01*
X158496000Y-74422000D02*
X162560000Y-74422000D01*
X162925500Y-74787500D02*
X164000000Y-74787500D01*
X162560000Y-74422000D02*
X162925500Y-74787500D01*
G04 #@! TO.N,/SDA*
X166707500Y-70787500D02*
X164000000Y-70787500D01*
X168000000Y-72080000D02*
X166707500Y-70787500D01*
X164000000Y-70787500D02*
X162000000Y-70787500D01*
X162000000Y-71325000D02*
X162052000Y-71377000D01*
X162000000Y-70787500D02*
X162000000Y-71325000D01*
X162052000Y-71377000D02*
X162052000Y-73152000D01*
X162052000Y-73152000D02*
X162052000Y-73152000D01*
X159881725Y-75237500D02*
X160082225Y-75438000D01*
X158750000Y-75237500D02*
X159881725Y-75237500D01*
X160082225Y-75438000D02*
X162052000Y-75438000D01*
X162052000Y-75438000D02*
X162052000Y-75438000D01*
G04 #@! TO.N,/CSB*
X166487500Y-81212500D02*
X164000000Y-81212500D01*
X168000000Y-79700000D02*
X166487500Y-81212500D01*
X164000000Y-81212500D02*
X162000000Y-81212500D01*
X162000000Y-80675000D02*
X162000000Y-81212500D01*
X162000000Y-80403200D02*
X162000000Y-80675000D01*
X158750000Y-77153200D02*
X162000000Y-80403200D01*
X158750000Y-76762500D02*
X158750000Y-77153200D01*
G04 #@! TO.N,/INT1*
X157237500Y-75750000D02*
X155898000Y-75750000D01*
X155898000Y-75750000D02*
X155702000Y-75946000D01*
X155898000Y-75750000D02*
X155898000Y-75750000D01*
G04 #@! TO.N,/INT2*
X156846800Y-76250000D02*
X155702000Y-76962000D01*
X157237500Y-76250000D02*
X156846800Y-76250000D01*
X156134800Y-76962000D02*
X155702000Y-76962000D01*
X155702000Y-76962000D02*
X156134800Y-76962000D01*
G04 #@! TO.N,/SCX*
X166202500Y-77160000D02*
X168000000Y-77160000D01*
X164000000Y-78787500D02*
X164575000Y-78787500D01*
X164575000Y-78787500D02*
X166202500Y-77160000D01*
X159824000Y-75750000D02*
X158762500Y-75750000D01*
X162399888Y-78325888D02*
X159824000Y-75750000D01*
X164000000Y-78787500D02*
X163538388Y-78325888D01*
X163538388Y-78325888D02*
X162399888Y-78325888D01*
G04 #@! TD*
D20*
G04 #@! TO.N,GND*
G36*
X155921586Y-63394212D02*
X155980353Y-63400000D01*
X168980436Y-63400000D01*
X169310401Y-63432354D01*
X169608982Y-63522500D01*
X169884366Y-63668925D01*
X170126062Y-63866047D01*
X170324869Y-64106363D01*
X170473214Y-64380723D01*
X170565440Y-64678657D01*
X170600000Y-65007468D01*
X170600001Y-88980425D01*
X170567646Y-89310403D01*
X170477500Y-89608982D01*
X170331076Y-89884364D01*
X170133950Y-90126064D01*
X169893637Y-90324869D01*
X169619279Y-90473214D01*
X169321343Y-90565440D01*
X168992531Y-90600000D01*
X155980353Y-90600000D01*
X155921586Y-90605788D01*
X155897357Y-90613138D01*
X155684719Y-90592288D01*
X155381444Y-90500724D01*
X155101735Y-90351999D01*
X154856238Y-90151777D01*
X154654305Y-89907683D01*
X154503630Y-89629016D01*
X154409953Y-89326394D01*
X154386545Y-89103688D01*
X154394212Y-89078414D01*
X154400000Y-89019647D01*
X154400000Y-84780000D01*
X166844436Y-84780000D01*
X166866640Y-85005439D01*
X166932398Y-85222215D01*
X167039184Y-85421997D01*
X167182893Y-85597107D01*
X167358003Y-85740816D01*
X167557785Y-85847602D01*
X167774561Y-85913360D01*
X167943508Y-85930000D01*
X168056492Y-85930000D01*
X168225439Y-85913360D01*
X168442215Y-85847602D01*
X168641997Y-85740816D01*
X168817107Y-85597107D01*
X168960816Y-85421997D01*
X169067602Y-85222215D01*
X169133360Y-85005439D01*
X169155564Y-84780000D01*
X169133360Y-84554561D01*
X169067602Y-84337785D01*
X168960816Y-84138003D01*
X168817107Y-83962893D01*
X168641997Y-83819184D01*
X168442215Y-83712398D01*
X168225439Y-83646640D01*
X168056492Y-83630000D01*
X167943508Y-83630000D01*
X167774561Y-83646640D01*
X167557785Y-83712398D01*
X167358003Y-83819184D01*
X167182893Y-83962893D01*
X167039184Y-84138003D01*
X166932398Y-84337785D01*
X166866640Y-84554561D01*
X166844436Y-84780000D01*
X154400000Y-84780000D01*
X154400000Y-76893056D01*
X155002000Y-76893056D01*
X155002000Y-77030944D01*
X155028901Y-77166182D01*
X155081668Y-77293574D01*
X155158274Y-77408224D01*
X155255776Y-77505726D01*
X155370426Y-77582332D01*
X155497818Y-77635099D01*
X155633056Y-77662000D01*
X155770944Y-77662000D01*
X155906182Y-77635099D01*
X156011601Y-77591434D01*
X156011600Y-78229293D01*
X156009413Y-78251500D01*
X156011600Y-78273707D01*
X156011600Y-78273714D01*
X156018147Y-78340185D01*
X156044015Y-78425462D01*
X156086024Y-78504055D01*
X156142558Y-78572942D01*
X156159818Y-78587107D01*
X156473549Y-78900838D01*
X156473549Y-79256250D01*
X156483545Y-79357736D01*
X156513147Y-79455322D01*
X156561219Y-79545258D01*
X156625912Y-79624088D01*
X156704742Y-79688781D01*
X156785501Y-79731948D01*
X156785501Y-79975523D01*
X156783435Y-79996500D01*
X156791679Y-80080206D01*
X156816096Y-80160696D01*
X156855745Y-80234876D01*
X156895732Y-80283600D01*
X156895737Y-80283605D01*
X156909106Y-80299895D01*
X156925395Y-80313263D01*
X157038511Y-80426379D01*
X157034000Y-80449056D01*
X157034000Y-80586944D01*
X157060901Y-80722182D01*
X157113668Y-80849574D01*
X157190274Y-80964224D01*
X157287776Y-81061726D01*
X157402426Y-81138332D01*
X157529818Y-81191099D01*
X157665056Y-81218000D01*
X157802944Y-81218000D01*
X157938182Y-81191099D01*
X158065574Y-81138332D01*
X158180224Y-81061726D01*
X158277726Y-80964224D01*
X158354332Y-80849574D01*
X158407099Y-80722182D01*
X158434000Y-80586944D01*
X158434000Y-80449056D01*
X158407099Y-80313818D01*
X158354332Y-80186426D01*
X158277726Y-80071776D01*
X158180224Y-79974274D01*
X158065574Y-79897668D01*
X157938182Y-79844901D01*
X157802944Y-79818000D01*
X157665056Y-79818000D01*
X157642379Y-79822511D01*
X157639500Y-79819631D01*
X157639500Y-79731947D01*
X157720258Y-79688781D01*
X157799088Y-79624088D01*
X157863781Y-79545258D01*
X157911853Y-79455322D01*
X157941455Y-79357736D01*
X157951451Y-79256250D01*
X157951451Y-78743750D01*
X157941455Y-78642264D01*
X157911853Y-78544678D01*
X157863781Y-78454742D01*
X157799088Y-78375912D01*
X157720258Y-78311219D01*
X157630322Y-78263147D01*
X157532736Y-78233545D01*
X157431250Y-78223549D01*
X157075838Y-78223549D01*
X156916400Y-78064111D01*
X156916400Y-77657389D01*
X157322339Y-77251451D01*
X157425000Y-77251451D01*
X157483810Y-77245659D01*
X157540360Y-77228504D01*
X157592477Y-77200647D01*
X157638158Y-77163158D01*
X157675647Y-77117477D01*
X157703504Y-77065360D01*
X157720659Y-77008810D01*
X157726451Y-76950000D01*
X157726451Y-76575000D01*
X157720659Y-76516190D01*
X157715748Y-76500000D01*
X157720659Y-76483810D01*
X157726451Y-76425000D01*
X157726451Y-76075000D01*
X157720659Y-76016190D01*
X157715748Y-76000000D01*
X157720659Y-75983810D01*
X157726451Y-75925000D01*
X157726451Y-75726451D01*
X157925000Y-75726451D01*
X157983810Y-75720659D01*
X158000000Y-75715748D01*
X158016190Y-75720659D01*
X158075000Y-75726451D01*
X158273549Y-75726451D01*
X158273549Y-75925000D01*
X158279341Y-75983810D01*
X158284252Y-76000000D01*
X158279341Y-76016190D01*
X158273549Y-76075000D01*
X158273549Y-76425000D01*
X158279341Y-76483810D01*
X158284252Y-76500000D01*
X158279341Y-76516190D01*
X158273549Y-76575000D01*
X158273549Y-76950000D01*
X158279341Y-77008810D01*
X158296496Y-77065360D01*
X158324353Y-77117477D01*
X158347230Y-77145353D01*
X158346457Y-77153200D01*
X158348400Y-77172925D01*
X158348400Y-77172927D01*
X158354211Y-77231927D01*
X158377176Y-77307629D01*
X158414467Y-77377396D01*
X158464653Y-77438548D01*
X158479977Y-77451124D01*
X161542932Y-80514080D01*
X161454742Y-80561219D01*
X161375912Y-80625912D01*
X161311219Y-80704742D01*
X161263147Y-80794678D01*
X161233545Y-80892264D01*
X161223549Y-80993750D01*
X161223549Y-81431250D01*
X161233545Y-81532736D01*
X161263147Y-81630322D01*
X161311219Y-81720258D01*
X161375912Y-81799088D01*
X161454742Y-81863781D01*
X161544678Y-81911853D01*
X161598920Y-81928307D01*
X161558115Y-81924288D01*
X161558113Y-81924288D01*
X161538388Y-81922345D01*
X161518663Y-81924288D01*
X161486236Y-81924288D01*
X160963529Y-81401582D01*
X160974000Y-81348944D01*
X160974000Y-81211056D01*
X160947099Y-81075818D01*
X160894332Y-80948426D01*
X160817726Y-80833776D01*
X160720224Y-80736274D01*
X160605574Y-80659668D01*
X160478182Y-80606901D01*
X160342944Y-80580000D01*
X160205056Y-80580000D01*
X160069818Y-80606901D01*
X159942426Y-80659668D01*
X159827776Y-80736274D01*
X159730274Y-80833776D01*
X159653668Y-80948426D01*
X159600901Y-81075818D01*
X159574000Y-81211056D01*
X159574000Y-81348944D01*
X159600901Y-81484182D01*
X159653668Y-81611574D01*
X159730274Y-81726224D01*
X159827776Y-81823726D01*
X159942426Y-81900332D01*
X160069818Y-81953099D01*
X160205056Y-81980000D01*
X160342944Y-81980000D01*
X160395582Y-81969529D01*
X161021964Y-82595912D01*
X161034540Y-82611236D01*
X161095692Y-82661422D01*
X161165459Y-82698713D01*
X161223549Y-82716334D01*
X161223549Y-83006250D01*
X161233545Y-83107736D01*
X161263147Y-83205322D01*
X161311219Y-83295258D01*
X161375912Y-83374088D01*
X161454742Y-83438781D01*
X161544678Y-83486853D01*
X161642264Y-83516455D01*
X161743750Y-83526451D01*
X162256250Y-83526451D01*
X162357736Y-83516455D01*
X162455322Y-83486853D01*
X162545258Y-83438781D01*
X162624088Y-83374088D01*
X162688781Y-83295258D01*
X162736853Y-83205322D01*
X162766455Y-83107736D01*
X162776451Y-83006250D01*
X162776451Y-82568750D01*
X162766455Y-82467264D01*
X162736853Y-82369678D01*
X162688781Y-82279742D01*
X162656167Y-82240000D01*
X166844436Y-82240000D01*
X166866640Y-82465439D01*
X166932398Y-82682215D01*
X167039184Y-82881997D01*
X167182893Y-83057107D01*
X167358003Y-83200816D01*
X167557785Y-83307602D01*
X167774561Y-83373360D01*
X167943508Y-83390000D01*
X168056492Y-83390000D01*
X168225439Y-83373360D01*
X168442215Y-83307602D01*
X168641997Y-83200816D01*
X168817107Y-83057107D01*
X168960816Y-82881997D01*
X169067602Y-82682215D01*
X169133360Y-82465439D01*
X169155564Y-82240000D01*
X169133360Y-82014561D01*
X169067602Y-81797785D01*
X168960816Y-81598003D01*
X168817107Y-81422893D01*
X168641997Y-81279184D01*
X168442215Y-81172398D01*
X168225439Y-81106640D01*
X168056492Y-81090000D01*
X167943508Y-81090000D01*
X167774561Y-81106640D01*
X167557785Y-81172398D01*
X167358003Y-81279184D01*
X167182893Y-81422893D01*
X167039184Y-81598003D01*
X166932398Y-81797785D01*
X166866640Y-82014561D01*
X166844436Y-82240000D01*
X162656167Y-82240000D01*
X162624088Y-82200912D01*
X162545258Y-82136219D01*
X162455322Y-82088147D01*
X162357736Y-82058545D01*
X162256250Y-82048549D01*
X161830309Y-82048549D01*
X161823736Y-82040540D01*
X161762584Y-81990354D01*
X161692817Y-81953063D01*
X161660458Y-81943247D01*
X161743750Y-81951451D01*
X162256250Y-81951451D01*
X162357736Y-81941455D01*
X162455322Y-81911853D01*
X162545258Y-81863781D01*
X162624088Y-81799088D01*
X162688781Y-81720258D01*
X162736853Y-81630322D01*
X162741774Y-81614100D01*
X163258226Y-81614100D01*
X163263147Y-81630322D01*
X163311219Y-81720258D01*
X163375912Y-81799088D01*
X163454742Y-81863781D01*
X163544678Y-81911853D01*
X163642264Y-81941455D01*
X163743750Y-81951451D01*
X164256250Y-81951451D01*
X164357736Y-81941455D01*
X164455322Y-81911853D01*
X164545258Y-81863781D01*
X164624088Y-81799088D01*
X164688781Y-81720258D01*
X164736853Y-81630322D01*
X164741774Y-81614100D01*
X166467775Y-81614100D01*
X166487500Y-81616043D01*
X166507225Y-81614100D01*
X166507227Y-81614100D01*
X166566227Y-81608289D01*
X166641929Y-81585325D01*
X166711696Y-81548034D01*
X166772848Y-81497848D01*
X166785429Y-81482518D01*
X167520353Y-80747594D01*
X167557785Y-80767602D01*
X167774561Y-80833360D01*
X167943508Y-80850000D01*
X168056492Y-80850000D01*
X168225439Y-80833360D01*
X168442215Y-80767602D01*
X168641997Y-80660816D01*
X168817107Y-80517107D01*
X168960816Y-80341997D01*
X169067602Y-80142215D01*
X169133360Y-79925439D01*
X169155564Y-79700000D01*
X169133360Y-79474561D01*
X169067602Y-79257785D01*
X168960816Y-79058003D01*
X168817107Y-78882893D01*
X168641997Y-78739184D01*
X168442215Y-78632398D01*
X168225439Y-78566640D01*
X168056492Y-78550000D01*
X167943508Y-78550000D01*
X167774561Y-78566640D01*
X167557785Y-78632398D01*
X167358003Y-78739184D01*
X167182893Y-78882893D01*
X167039184Y-79058003D01*
X166932398Y-79257785D01*
X166866640Y-79474561D01*
X166844436Y-79700000D01*
X166866640Y-79925439D01*
X166932398Y-80142215D01*
X166952406Y-80179647D01*
X166321153Y-80810900D01*
X164741774Y-80810900D01*
X164736853Y-80794678D01*
X164688781Y-80704742D01*
X164624088Y-80625912D01*
X164545258Y-80561219D01*
X164455322Y-80513147D01*
X164357736Y-80483545D01*
X164256250Y-80473549D01*
X163743750Y-80473549D01*
X163642264Y-80483545D01*
X163544678Y-80513147D01*
X163454742Y-80561219D01*
X163375912Y-80625912D01*
X163311219Y-80704742D01*
X163263147Y-80794678D01*
X163258226Y-80810900D01*
X162741774Y-80810900D01*
X162736853Y-80794678D01*
X162688781Y-80704742D01*
X162624088Y-80625912D01*
X162545258Y-80561219D01*
X162455322Y-80513147D01*
X162401600Y-80496851D01*
X162401600Y-80422917D01*
X162403542Y-80403199D01*
X162401600Y-80383482D01*
X162401600Y-80383473D01*
X162395789Y-80324473D01*
X162372825Y-80248771D01*
X162335534Y-80179004D01*
X162320509Y-80160696D01*
X162297923Y-80133174D01*
X162297920Y-80133171D01*
X162285348Y-80117852D01*
X162270030Y-80105281D01*
X159209696Y-77044949D01*
X159220659Y-77008810D01*
X159226451Y-76950000D01*
X159226451Y-76575000D01*
X159223890Y-76548993D01*
X159228504Y-76540360D01*
X159245659Y-76483810D01*
X159251451Y-76425000D01*
X159251451Y-76151600D01*
X159657653Y-76151600D01*
X162101964Y-78595912D01*
X162114540Y-78611236D01*
X162175692Y-78661422D01*
X162194519Y-78671485D01*
X162245458Y-78698713D01*
X162321160Y-78721677D01*
X162399888Y-78729431D01*
X162419616Y-78727488D01*
X163223549Y-78727488D01*
X163223549Y-79006250D01*
X163233545Y-79107736D01*
X163263147Y-79205322D01*
X163311219Y-79295258D01*
X163375912Y-79374088D01*
X163454742Y-79438781D01*
X163544678Y-79486853D01*
X163642264Y-79516455D01*
X163743750Y-79526451D01*
X164256250Y-79526451D01*
X164357736Y-79516455D01*
X164455322Y-79486853D01*
X164545258Y-79438781D01*
X164624088Y-79374088D01*
X164688781Y-79295258D01*
X164736853Y-79205322D01*
X164754581Y-79146881D01*
X164799196Y-79123034D01*
X164860348Y-79072848D01*
X164872929Y-79057518D01*
X166368848Y-77561600D01*
X166920078Y-77561600D01*
X166932398Y-77602215D01*
X167039184Y-77801997D01*
X167182893Y-77977107D01*
X167358003Y-78120816D01*
X167557785Y-78227602D01*
X167774561Y-78293360D01*
X167943508Y-78310000D01*
X168056492Y-78310000D01*
X168225439Y-78293360D01*
X168442215Y-78227602D01*
X168641997Y-78120816D01*
X168817107Y-77977107D01*
X168960816Y-77801997D01*
X169067602Y-77602215D01*
X169133360Y-77385439D01*
X169155564Y-77160000D01*
X169133360Y-76934561D01*
X169067602Y-76717785D01*
X168960816Y-76518003D01*
X168817107Y-76342893D01*
X168641997Y-76199184D01*
X168442215Y-76092398D01*
X168225439Y-76026640D01*
X168056492Y-76010000D01*
X167943508Y-76010000D01*
X167774561Y-76026640D01*
X167557785Y-76092398D01*
X167358003Y-76199184D01*
X167182893Y-76342893D01*
X167039184Y-76518003D01*
X166932398Y-76717785D01*
X166920078Y-76758400D01*
X166222228Y-76758400D01*
X166202500Y-76756457D01*
X166123772Y-76764211D01*
X166080291Y-76777401D01*
X166048071Y-76787175D01*
X165978304Y-76824466D01*
X165917152Y-76874652D01*
X165904576Y-76889976D01*
X164607365Y-78187188D01*
X164545258Y-78136219D01*
X164455322Y-78088147D01*
X164357736Y-78058545D01*
X164256250Y-78048549D01*
X163830309Y-78048549D01*
X163823736Y-78040540D01*
X163762584Y-77990354D01*
X163692817Y-77953063D01*
X163660458Y-77943247D01*
X163743750Y-77951451D01*
X164256250Y-77951451D01*
X164357736Y-77941455D01*
X164455322Y-77911853D01*
X164545258Y-77863781D01*
X164624088Y-77799088D01*
X164688781Y-77720258D01*
X164736853Y-77630322D01*
X164766455Y-77532736D01*
X164776451Y-77431250D01*
X164776451Y-77177888D01*
X165036145Y-77177888D01*
X165057112Y-77179953D01*
X165078079Y-77177888D01*
X165078090Y-77177888D01*
X165140819Y-77171710D01*
X165221308Y-77147293D01*
X165295488Y-77107643D01*
X165360507Y-77054283D01*
X165373880Y-77037988D01*
X165516379Y-76895489D01*
X165539056Y-76900000D01*
X165676944Y-76900000D01*
X165812182Y-76873099D01*
X165939574Y-76820332D01*
X166054224Y-76743726D01*
X166151726Y-76646224D01*
X166228332Y-76531574D01*
X166281099Y-76404182D01*
X166308000Y-76268944D01*
X166308000Y-76131056D01*
X166281099Y-75995818D01*
X166228332Y-75868426D01*
X166151726Y-75753776D01*
X166054224Y-75656274D01*
X165939574Y-75579668D01*
X165812182Y-75526901D01*
X165676944Y-75500000D01*
X165539056Y-75500000D01*
X165403818Y-75526901D01*
X165276426Y-75579668D01*
X165161776Y-75656274D01*
X165064274Y-75753776D01*
X164987668Y-75868426D01*
X164934901Y-75995818D01*
X164908000Y-76131056D01*
X164908000Y-76268944D01*
X164912511Y-76291621D01*
X164880244Y-76323888D01*
X164482579Y-76323888D01*
X164461612Y-76321823D01*
X164440645Y-76323888D01*
X164440634Y-76323888D01*
X164377905Y-76330066D01*
X164297416Y-76354483D01*
X164274539Y-76366711D01*
X164223235Y-76394133D01*
X164174511Y-76434120D01*
X164174507Y-76434124D01*
X164158217Y-76447493D01*
X164144848Y-76463783D01*
X164135082Y-76473549D01*
X163743750Y-76473549D01*
X163642264Y-76483545D01*
X163544678Y-76513147D01*
X163454742Y-76561219D01*
X163375912Y-76625912D01*
X163311219Y-76704742D01*
X163263147Y-76794678D01*
X163233545Y-76892264D01*
X163223549Y-76993750D01*
X163223549Y-77431250D01*
X163233545Y-77532736D01*
X163263147Y-77630322D01*
X163311219Y-77720258D01*
X163375912Y-77799088D01*
X163454742Y-77863781D01*
X163544678Y-77911853D01*
X163598920Y-77928307D01*
X163558115Y-77924288D01*
X163558113Y-77924288D01*
X163538388Y-77922345D01*
X163518663Y-77924288D01*
X162566236Y-77924288D01*
X160481547Y-75839600D01*
X161478457Y-75839600D01*
X161508274Y-75884224D01*
X161605776Y-75981726D01*
X161720426Y-76058332D01*
X161847818Y-76111099D01*
X161983056Y-76138000D01*
X162120944Y-76138000D01*
X162256182Y-76111099D01*
X162383574Y-76058332D01*
X162498224Y-75981726D01*
X162595726Y-75884224D01*
X162672332Y-75769574D01*
X162725099Y-75642182D01*
X162752000Y-75506944D01*
X162752000Y-75369056D01*
X162725099Y-75233818D01*
X162672332Y-75106426D01*
X162661727Y-75090555D01*
X162681067Y-75106426D01*
X162701304Y-75123034D01*
X162771071Y-75160325D01*
X162846773Y-75183289D01*
X162905773Y-75189100D01*
X162905782Y-75189100D01*
X162925499Y-75191042D01*
X162945217Y-75189100D01*
X163258226Y-75189100D01*
X163263147Y-75205322D01*
X163311219Y-75295258D01*
X163375912Y-75374088D01*
X163454742Y-75438781D01*
X163544678Y-75486853D01*
X163642264Y-75516455D01*
X163743750Y-75526451D01*
X164256250Y-75526451D01*
X164357736Y-75516455D01*
X164455322Y-75486853D01*
X164545258Y-75438781D01*
X164624088Y-75374088D01*
X164688781Y-75295258D01*
X164736853Y-75205322D01*
X164741774Y-75189100D01*
X167000220Y-75189100D01*
X167039184Y-75261997D01*
X167182893Y-75437107D01*
X167358003Y-75580816D01*
X167557785Y-75687602D01*
X167774561Y-75753360D01*
X167943508Y-75770000D01*
X168056492Y-75770000D01*
X168225439Y-75753360D01*
X168442215Y-75687602D01*
X168641997Y-75580816D01*
X168817107Y-75437107D01*
X168960816Y-75261997D01*
X169067602Y-75062215D01*
X169133360Y-74845439D01*
X169155564Y-74620000D01*
X169133360Y-74394561D01*
X169067602Y-74177785D01*
X168960816Y-73978003D01*
X168817107Y-73802893D01*
X168641997Y-73659184D01*
X168442215Y-73552398D01*
X168225439Y-73486640D01*
X168056492Y-73470000D01*
X167943508Y-73470000D01*
X167774561Y-73486640D01*
X167557785Y-73552398D01*
X167358003Y-73659184D01*
X167182893Y-73802893D01*
X167039184Y-73978003D01*
X166932398Y-74177785D01*
X166869267Y-74385900D01*
X164741774Y-74385900D01*
X164736853Y-74369678D01*
X164688781Y-74279742D01*
X164624088Y-74200912D01*
X164545258Y-74136219D01*
X164455322Y-74088147D01*
X164357736Y-74058545D01*
X164256250Y-74048549D01*
X163743750Y-74048549D01*
X163642264Y-74058545D01*
X163544678Y-74088147D01*
X163454742Y-74136219D01*
X163375912Y-74200912D01*
X163311219Y-74279742D01*
X163263147Y-74369678D01*
X163258226Y-74385900D01*
X163091848Y-74385900D01*
X162857928Y-74151981D01*
X162845348Y-74136652D01*
X162784196Y-74086466D01*
X162714429Y-74049175D01*
X162638727Y-74026211D01*
X162579727Y-74020400D01*
X162579725Y-74020400D01*
X162560000Y-74018457D01*
X162540275Y-74020400D01*
X158515717Y-74020400D01*
X158495999Y-74018458D01*
X158476281Y-74020400D01*
X158476273Y-74020400D01*
X158417273Y-74026211D01*
X158341571Y-74049175D01*
X158271804Y-74086466D01*
X158210652Y-74136652D01*
X158198075Y-74151977D01*
X158161000Y-74189052D01*
X158161000Y-74117464D01*
X158163065Y-74096499D01*
X158161000Y-74075534D01*
X158161000Y-74075522D01*
X158154822Y-74012793D01*
X158130405Y-73932304D01*
X158093779Y-73863781D01*
X158090755Y-73858123D01*
X158050768Y-73809398D01*
X158050759Y-73809389D01*
X158037395Y-73793105D01*
X158021112Y-73779742D01*
X157829004Y-73587635D01*
X157863781Y-73545258D01*
X157911853Y-73455322D01*
X157941455Y-73357736D01*
X157951451Y-73256250D01*
X157951451Y-72743750D01*
X157941455Y-72642264D01*
X157911853Y-72544678D01*
X157863781Y-72454742D01*
X157799088Y-72375912D01*
X157720258Y-72311219D01*
X157639500Y-72268053D01*
X157639500Y-70568750D01*
X161223549Y-70568750D01*
X161223549Y-71006250D01*
X161233545Y-71107736D01*
X161263147Y-71205322D01*
X161311219Y-71295258D01*
X161375912Y-71374088D01*
X161454742Y-71438781D01*
X161544678Y-71486853D01*
X161642264Y-71516455D01*
X161647228Y-71516944D01*
X161650400Y-71522878D01*
X161650401Y-72578457D01*
X161605776Y-72608274D01*
X161508274Y-72705776D01*
X161431668Y-72820426D01*
X161378901Y-72947818D01*
X161352000Y-73083056D01*
X161352000Y-73220944D01*
X161378901Y-73356182D01*
X161431668Y-73483574D01*
X161508274Y-73598224D01*
X161605776Y-73695726D01*
X161720426Y-73772332D01*
X161847818Y-73825099D01*
X161983056Y-73852000D01*
X162120944Y-73852000D01*
X162256182Y-73825099D01*
X162383574Y-73772332D01*
X162498224Y-73695726D01*
X162595726Y-73598224D01*
X162672332Y-73483574D01*
X162725099Y-73356182D01*
X162752000Y-73220944D01*
X162752000Y-73083056D01*
X162734236Y-72993750D01*
X163223549Y-72993750D01*
X163223549Y-73431250D01*
X163233545Y-73532736D01*
X163263147Y-73630322D01*
X163311219Y-73720258D01*
X163375912Y-73799088D01*
X163454742Y-73863781D01*
X163544678Y-73911853D01*
X163642264Y-73941455D01*
X163743750Y-73951451D01*
X164256250Y-73951451D01*
X164357736Y-73941455D01*
X164455322Y-73911853D01*
X164545258Y-73863781D01*
X164624088Y-73799088D01*
X164688781Y-73720258D01*
X164736853Y-73630322D01*
X164744153Y-73606255D01*
X164795144Y-73579000D01*
X165051429Y-73579000D01*
X165064274Y-73598224D01*
X165161776Y-73695726D01*
X165276426Y-73772332D01*
X165403818Y-73825099D01*
X165539056Y-73852000D01*
X165676944Y-73852000D01*
X165812182Y-73825099D01*
X165939574Y-73772332D01*
X166054224Y-73695726D01*
X166151726Y-73598224D01*
X166228332Y-73483574D01*
X166281099Y-73356182D01*
X166308000Y-73220944D01*
X166308000Y-73083056D01*
X166281099Y-72947818D01*
X166228332Y-72820426D01*
X166151726Y-72705776D01*
X166054224Y-72608274D01*
X165939574Y-72531668D01*
X165812182Y-72478901D01*
X165676944Y-72452000D01*
X165539056Y-72452000D01*
X165403818Y-72478901D01*
X165276426Y-72531668D01*
X165161776Y-72608274D01*
X165064274Y-72705776D01*
X165051429Y-72725000D01*
X164699609Y-72725000D01*
X164688781Y-72704742D01*
X164624088Y-72625912D01*
X164545258Y-72561219D01*
X164455322Y-72513147D01*
X164357736Y-72483545D01*
X164256250Y-72473549D01*
X163743750Y-72473549D01*
X163642264Y-72483545D01*
X163544678Y-72513147D01*
X163454742Y-72561219D01*
X163375912Y-72625912D01*
X163311219Y-72704742D01*
X163263147Y-72794678D01*
X163233545Y-72892264D01*
X163223549Y-72993750D01*
X162734236Y-72993750D01*
X162725099Y-72947818D01*
X162672332Y-72820426D01*
X162595726Y-72705776D01*
X162498224Y-72608274D01*
X162453600Y-72578457D01*
X162453600Y-71487375D01*
X162455322Y-71486853D01*
X162545258Y-71438781D01*
X162624088Y-71374088D01*
X162688781Y-71295258D01*
X162736853Y-71205322D01*
X162741774Y-71189100D01*
X163258226Y-71189100D01*
X163263147Y-71205322D01*
X163311219Y-71295258D01*
X163375912Y-71374088D01*
X163454742Y-71438781D01*
X163544678Y-71486853D01*
X163642264Y-71516455D01*
X163743750Y-71526451D01*
X164256250Y-71526451D01*
X164357736Y-71516455D01*
X164455322Y-71486853D01*
X164545258Y-71438781D01*
X164624088Y-71374088D01*
X164688781Y-71295258D01*
X164736853Y-71205322D01*
X164741774Y-71189100D01*
X166541153Y-71189100D01*
X166952406Y-71600353D01*
X166932398Y-71637785D01*
X166866640Y-71854561D01*
X166844436Y-72080000D01*
X166866640Y-72305439D01*
X166932398Y-72522215D01*
X167039184Y-72721997D01*
X167182893Y-72897107D01*
X167358003Y-73040816D01*
X167557785Y-73147602D01*
X167774561Y-73213360D01*
X167943508Y-73230000D01*
X168056492Y-73230000D01*
X168225439Y-73213360D01*
X168442215Y-73147602D01*
X168641997Y-73040816D01*
X168817107Y-72897107D01*
X168960816Y-72721997D01*
X169067602Y-72522215D01*
X169133360Y-72305439D01*
X169155564Y-72080000D01*
X169133360Y-71854561D01*
X169067602Y-71637785D01*
X168960816Y-71438003D01*
X168817107Y-71262893D01*
X168641997Y-71119184D01*
X168442215Y-71012398D01*
X168225439Y-70946640D01*
X168056492Y-70930000D01*
X167943508Y-70930000D01*
X167774561Y-70946640D01*
X167557785Y-71012398D01*
X167520353Y-71032406D01*
X167005429Y-70517482D01*
X166992848Y-70502152D01*
X166931696Y-70451966D01*
X166861929Y-70414675D01*
X166786227Y-70391711D01*
X166727227Y-70385900D01*
X166727225Y-70385900D01*
X166707500Y-70383957D01*
X166687775Y-70385900D01*
X164741774Y-70385900D01*
X164736853Y-70369678D01*
X164688781Y-70279742D01*
X164624088Y-70200912D01*
X164545258Y-70136219D01*
X164455322Y-70088147D01*
X164357736Y-70058545D01*
X164256250Y-70048549D01*
X163743750Y-70048549D01*
X163642264Y-70058545D01*
X163544678Y-70088147D01*
X163454742Y-70136219D01*
X163375912Y-70200912D01*
X163311219Y-70279742D01*
X163263147Y-70369678D01*
X163258226Y-70385900D01*
X162741774Y-70385900D01*
X162736853Y-70369678D01*
X162688781Y-70279742D01*
X162624088Y-70200912D01*
X162545258Y-70136219D01*
X162455322Y-70088147D01*
X162357736Y-70058545D01*
X162256250Y-70048549D01*
X161743750Y-70048549D01*
X161642264Y-70058545D01*
X161544678Y-70088147D01*
X161454742Y-70136219D01*
X161375912Y-70200912D01*
X161311219Y-70279742D01*
X161263147Y-70369678D01*
X161233545Y-70467264D01*
X161223549Y-70568750D01*
X157639500Y-70568750D01*
X157639500Y-69024368D01*
X158164869Y-68499000D01*
X163220132Y-68499000D01*
X163362900Y-68641768D01*
X163311219Y-68704742D01*
X163263147Y-68794678D01*
X163233545Y-68892264D01*
X163223549Y-68993750D01*
X163223549Y-69431250D01*
X163233545Y-69532736D01*
X163263147Y-69630322D01*
X163311219Y-69720258D01*
X163375912Y-69799088D01*
X163454742Y-69863781D01*
X163544678Y-69911853D01*
X163642264Y-69941455D01*
X163743750Y-69951451D01*
X164256250Y-69951451D01*
X164357736Y-69941455D01*
X164455322Y-69911853D01*
X164545258Y-69863781D01*
X164624088Y-69799088D01*
X164688781Y-69720258D01*
X164718371Y-69664900D01*
X166856738Y-69664900D01*
X166866640Y-69765439D01*
X166932398Y-69982215D01*
X167039184Y-70181997D01*
X167182893Y-70357107D01*
X167358003Y-70500816D01*
X167557785Y-70607602D01*
X167774561Y-70673360D01*
X167943508Y-70690000D01*
X168056492Y-70690000D01*
X168225439Y-70673360D01*
X168442215Y-70607602D01*
X168641997Y-70500816D01*
X168817107Y-70357107D01*
X168960816Y-70181997D01*
X169067602Y-69982215D01*
X169133360Y-69765439D01*
X169155564Y-69540000D01*
X169133360Y-69314561D01*
X169067602Y-69097785D01*
X168960816Y-68898003D01*
X168817107Y-68722893D01*
X168641997Y-68579184D01*
X168442215Y-68472398D01*
X168225439Y-68406640D01*
X168056492Y-68390000D01*
X167943508Y-68390000D01*
X167774561Y-68406640D01*
X167557785Y-68472398D01*
X167358003Y-68579184D01*
X167182893Y-68722893D01*
X167152358Y-68760100D01*
X164718371Y-68760100D01*
X164688781Y-68704742D01*
X164624088Y-68625912D01*
X164545258Y-68561219D01*
X164455322Y-68513147D01*
X164386498Y-68492270D01*
X164375877Y-68472398D01*
X164356756Y-68436623D01*
X164316768Y-68387899D01*
X164316764Y-68387895D01*
X164303395Y-68371605D01*
X164287105Y-68358236D01*
X163713768Y-67784900D01*
X163700395Y-67768605D01*
X163635376Y-67715245D01*
X163561196Y-67675595D01*
X163480707Y-67651178D01*
X163417978Y-67645000D01*
X163417967Y-67645000D01*
X163397000Y-67642935D01*
X163376033Y-67645000D01*
X158008967Y-67645000D01*
X157988000Y-67642935D01*
X157967033Y-67645000D01*
X157967022Y-67645000D01*
X157904293Y-67651178D01*
X157842537Y-67669912D01*
X157823803Y-67675595D01*
X157749623Y-67715244D01*
X157700899Y-67755232D01*
X157700895Y-67755236D01*
X157684605Y-67768605D01*
X157671236Y-67784895D01*
X156925400Y-68530732D01*
X156909105Y-68544105D01*
X156895733Y-68560399D01*
X156895732Y-68560400D01*
X156855745Y-68609124D01*
X156846772Y-68625912D01*
X156816095Y-68683305D01*
X156791678Y-68763794D01*
X156785500Y-68826523D01*
X156785500Y-68826533D01*
X156783435Y-68847500D01*
X156785500Y-68868467D01*
X156785501Y-72268052D01*
X156704742Y-72311219D01*
X156625912Y-72375912D01*
X156561219Y-72454742D01*
X156513147Y-72544678D01*
X156483545Y-72642264D01*
X156473549Y-72743750D01*
X156473549Y-73256250D01*
X156483545Y-73357736D01*
X156513147Y-73455322D01*
X156561219Y-73545258D01*
X156625912Y-73624088D01*
X156704742Y-73688781D01*
X156794678Y-73736853D01*
X156818746Y-73744154D01*
X156855745Y-73813376D01*
X156895732Y-73862100D01*
X156895737Y-73862105D01*
X156909106Y-73878395D01*
X156925395Y-73891763D01*
X157307000Y-74273370D01*
X157307001Y-74748549D01*
X157075000Y-74748549D01*
X157016190Y-74754341D01*
X156959640Y-74771496D01*
X156907523Y-74799353D01*
X156861842Y-74836842D01*
X156824353Y-74882523D01*
X156796496Y-74934640D01*
X156779341Y-74991190D01*
X156773549Y-75050000D01*
X156773549Y-75348400D01*
X156471543Y-75348400D01*
X156441726Y-75303776D01*
X156344224Y-75206274D01*
X156229574Y-75129668D01*
X156102182Y-75076901D01*
X155966944Y-75050000D01*
X155829056Y-75050000D01*
X155693818Y-75076901D01*
X155566426Y-75129668D01*
X155451776Y-75206274D01*
X155354274Y-75303776D01*
X155277668Y-75418426D01*
X155224901Y-75545818D01*
X155198000Y-75681056D01*
X155198000Y-75818944D01*
X155224901Y-75954182D01*
X155277668Y-76081574D01*
X155354274Y-76196224D01*
X155451776Y-76293726D01*
X155464938Y-76302520D01*
X155370426Y-76341668D01*
X155255776Y-76418274D01*
X155158274Y-76515776D01*
X155081668Y-76630426D01*
X155028901Y-76757818D01*
X155002000Y-76893056D01*
X154400000Y-76893056D01*
X154400000Y-66150000D01*
X166848549Y-66150000D01*
X166848549Y-67850000D01*
X166854341Y-67908810D01*
X166871496Y-67965360D01*
X166899353Y-68017477D01*
X166936842Y-68063158D01*
X166982523Y-68100647D01*
X167034640Y-68128504D01*
X167091190Y-68145659D01*
X167150000Y-68151451D01*
X168850000Y-68151451D01*
X168908810Y-68145659D01*
X168965360Y-68128504D01*
X169017477Y-68100647D01*
X169063158Y-68063158D01*
X169100647Y-68017477D01*
X169128504Y-67965360D01*
X169145659Y-67908810D01*
X169151451Y-67850000D01*
X169151451Y-66150000D01*
X169145659Y-66091190D01*
X169128504Y-66034640D01*
X169100647Y-65982523D01*
X169063158Y-65936842D01*
X169017477Y-65899353D01*
X168965360Y-65871496D01*
X168908810Y-65854341D01*
X168850000Y-65848549D01*
X167150000Y-65848549D01*
X167091190Y-65854341D01*
X167034640Y-65871496D01*
X166982523Y-65899353D01*
X166936842Y-65936842D01*
X166899353Y-65982523D01*
X166871496Y-66034640D01*
X166854341Y-66091190D01*
X166848549Y-66150000D01*
X154400000Y-66150000D01*
X154400000Y-64980353D01*
X154394212Y-64921586D01*
X154386862Y-64897357D01*
X154407712Y-64684720D01*
X154499276Y-64381444D01*
X154648002Y-64101733D01*
X154848225Y-63856236D01*
X155092316Y-63654305D01*
X155370985Y-63503630D01*
X155673606Y-63409953D01*
X155896312Y-63386545D01*
X155921586Y-63394212D01*
X155921586Y-63394212D01*
G37*
X155921586Y-63394212D02*
X155980353Y-63400000D01*
X168980436Y-63400000D01*
X169310401Y-63432354D01*
X169608982Y-63522500D01*
X169884366Y-63668925D01*
X170126062Y-63866047D01*
X170324869Y-64106363D01*
X170473214Y-64380723D01*
X170565440Y-64678657D01*
X170600000Y-65007468D01*
X170600001Y-88980425D01*
X170567646Y-89310403D01*
X170477500Y-89608982D01*
X170331076Y-89884364D01*
X170133950Y-90126064D01*
X169893637Y-90324869D01*
X169619279Y-90473214D01*
X169321343Y-90565440D01*
X168992531Y-90600000D01*
X155980353Y-90600000D01*
X155921586Y-90605788D01*
X155897357Y-90613138D01*
X155684719Y-90592288D01*
X155381444Y-90500724D01*
X155101735Y-90351999D01*
X154856238Y-90151777D01*
X154654305Y-89907683D01*
X154503630Y-89629016D01*
X154409953Y-89326394D01*
X154386545Y-89103688D01*
X154394212Y-89078414D01*
X154400000Y-89019647D01*
X154400000Y-84780000D01*
X166844436Y-84780000D01*
X166866640Y-85005439D01*
X166932398Y-85222215D01*
X167039184Y-85421997D01*
X167182893Y-85597107D01*
X167358003Y-85740816D01*
X167557785Y-85847602D01*
X167774561Y-85913360D01*
X167943508Y-85930000D01*
X168056492Y-85930000D01*
X168225439Y-85913360D01*
X168442215Y-85847602D01*
X168641997Y-85740816D01*
X168817107Y-85597107D01*
X168960816Y-85421997D01*
X169067602Y-85222215D01*
X169133360Y-85005439D01*
X169155564Y-84780000D01*
X169133360Y-84554561D01*
X169067602Y-84337785D01*
X168960816Y-84138003D01*
X168817107Y-83962893D01*
X168641997Y-83819184D01*
X168442215Y-83712398D01*
X168225439Y-83646640D01*
X168056492Y-83630000D01*
X167943508Y-83630000D01*
X167774561Y-83646640D01*
X167557785Y-83712398D01*
X167358003Y-83819184D01*
X167182893Y-83962893D01*
X167039184Y-84138003D01*
X166932398Y-84337785D01*
X166866640Y-84554561D01*
X166844436Y-84780000D01*
X154400000Y-84780000D01*
X154400000Y-76893056D01*
X155002000Y-76893056D01*
X155002000Y-77030944D01*
X155028901Y-77166182D01*
X155081668Y-77293574D01*
X155158274Y-77408224D01*
X155255776Y-77505726D01*
X155370426Y-77582332D01*
X155497818Y-77635099D01*
X155633056Y-77662000D01*
X155770944Y-77662000D01*
X155906182Y-77635099D01*
X156011601Y-77591434D01*
X156011600Y-78229293D01*
X156009413Y-78251500D01*
X156011600Y-78273707D01*
X156011600Y-78273714D01*
X156018147Y-78340185D01*
X156044015Y-78425462D01*
X156086024Y-78504055D01*
X156142558Y-78572942D01*
X156159818Y-78587107D01*
X156473549Y-78900838D01*
X156473549Y-79256250D01*
X156483545Y-79357736D01*
X156513147Y-79455322D01*
X156561219Y-79545258D01*
X156625912Y-79624088D01*
X156704742Y-79688781D01*
X156785501Y-79731948D01*
X156785501Y-79975523D01*
X156783435Y-79996500D01*
X156791679Y-80080206D01*
X156816096Y-80160696D01*
X156855745Y-80234876D01*
X156895732Y-80283600D01*
X156895737Y-80283605D01*
X156909106Y-80299895D01*
X156925395Y-80313263D01*
X157038511Y-80426379D01*
X157034000Y-80449056D01*
X157034000Y-80586944D01*
X157060901Y-80722182D01*
X157113668Y-80849574D01*
X157190274Y-80964224D01*
X157287776Y-81061726D01*
X157402426Y-81138332D01*
X157529818Y-81191099D01*
X157665056Y-81218000D01*
X157802944Y-81218000D01*
X157938182Y-81191099D01*
X158065574Y-81138332D01*
X158180224Y-81061726D01*
X158277726Y-80964224D01*
X158354332Y-80849574D01*
X158407099Y-80722182D01*
X158434000Y-80586944D01*
X158434000Y-80449056D01*
X158407099Y-80313818D01*
X158354332Y-80186426D01*
X158277726Y-80071776D01*
X158180224Y-79974274D01*
X158065574Y-79897668D01*
X157938182Y-79844901D01*
X157802944Y-79818000D01*
X157665056Y-79818000D01*
X157642379Y-79822511D01*
X157639500Y-79819631D01*
X157639500Y-79731947D01*
X157720258Y-79688781D01*
X157799088Y-79624088D01*
X157863781Y-79545258D01*
X157911853Y-79455322D01*
X157941455Y-79357736D01*
X157951451Y-79256250D01*
X157951451Y-78743750D01*
X157941455Y-78642264D01*
X157911853Y-78544678D01*
X157863781Y-78454742D01*
X157799088Y-78375912D01*
X157720258Y-78311219D01*
X157630322Y-78263147D01*
X157532736Y-78233545D01*
X157431250Y-78223549D01*
X157075838Y-78223549D01*
X156916400Y-78064111D01*
X156916400Y-77657389D01*
X157322339Y-77251451D01*
X157425000Y-77251451D01*
X157483810Y-77245659D01*
X157540360Y-77228504D01*
X157592477Y-77200647D01*
X157638158Y-77163158D01*
X157675647Y-77117477D01*
X157703504Y-77065360D01*
X157720659Y-77008810D01*
X157726451Y-76950000D01*
X157726451Y-76575000D01*
X157720659Y-76516190D01*
X157715748Y-76500000D01*
X157720659Y-76483810D01*
X157726451Y-76425000D01*
X157726451Y-76075000D01*
X157720659Y-76016190D01*
X157715748Y-76000000D01*
X157720659Y-75983810D01*
X157726451Y-75925000D01*
X157726451Y-75726451D01*
X157925000Y-75726451D01*
X157983810Y-75720659D01*
X158000000Y-75715748D01*
X158016190Y-75720659D01*
X158075000Y-75726451D01*
X158273549Y-75726451D01*
X158273549Y-75925000D01*
X158279341Y-75983810D01*
X158284252Y-76000000D01*
X158279341Y-76016190D01*
X158273549Y-76075000D01*
X158273549Y-76425000D01*
X158279341Y-76483810D01*
X158284252Y-76500000D01*
X158279341Y-76516190D01*
X158273549Y-76575000D01*
X158273549Y-76950000D01*
X158279341Y-77008810D01*
X158296496Y-77065360D01*
X158324353Y-77117477D01*
X158347230Y-77145353D01*
X158346457Y-77153200D01*
X158348400Y-77172925D01*
X158348400Y-77172927D01*
X158354211Y-77231927D01*
X158377176Y-77307629D01*
X158414467Y-77377396D01*
X158464653Y-77438548D01*
X158479977Y-77451124D01*
X161542932Y-80514080D01*
X161454742Y-80561219D01*
X161375912Y-80625912D01*
X161311219Y-80704742D01*
X161263147Y-80794678D01*
X161233545Y-80892264D01*
X161223549Y-80993750D01*
X161223549Y-81431250D01*
X161233545Y-81532736D01*
X161263147Y-81630322D01*
X161311219Y-81720258D01*
X161375912Y-81799088D01*
X161454742Y-81863781D01*
X161544678Y-81911853D01*
X161598920Y-81928307D01*
X161558115Y-81924288D01*
X161558113Y-81924288D01*
X161538388Y-81922345D01*
X161518663Y-81924288D01*
X161486236Y-81924288D01*
X160963529Y-81401582D01*
X160974000Y-81348944D01*
X160974000Y-81211056D01*
X160947099Y-81075818D01*
X160894332Y-80948426D01*
X160817726Y-80833776D01*
X160720224Y-80736274D01*
X160605574Y-80659668D01*
X160478182Y-80606901D01*
X160342944Y-80580000D01*
X160205056Y-80580000D01*
X160069818Y-80606901D01*
X159942426Y-80659668D01*
X159827776Y-80736274D01*
X159730274Y-80833776D01*
X159653668Y-80948426D01*
X159600901Y-81075818D01*
X159574000Y-81211056D01*
X159574000Y-81348944D01*
X159600901Y-81484182D01*
X159653668Y-81611574D01*
X159730274Y-81726224D01*
X159827776Y-81823726D01*
X159942426Y-81900332D01*
X160069818Y-81953099D01*
X160205056Y-81980000D01*
X160342944Y-81980000D01*
X160395582Y-81969529D01*
X161021964Y-82595912D01*
X161034540Y-82611236D01*
X161095692Y-82661422D01*
X161165459Y-82698713D01*
X161223549Y-82716334D01*
X161223549Y-83006250D01*
X161233545Y-83107736D01*
X161263147Y-83205322D01*
X161311219Y-83295258D01*
X161375912Y-83374088D01*
X161454742Y-83438781D01*
X161544678Y-83486853D01*
X161642264Y-83516455D01*
X161743750Y-83526451D01*
X162256250Y-83526451D01*
X162357736Y-83516455D01*
X162455322Y-83486853D01*
X162545258Y-83438781D01*
X162624088Y-83374088D01*
X162688781Y-83295258D01*
X162736853Y-83205322D01*
X162766455Y-83107736D01*
X162776451Y-83006250D01*
X162776451Y-82568750D01*
X162766455Y-82467264D01*
X162736853Y-82369678D01*
X162688781Y-82279742D01*
X162656167Y-82240000D01*
X166844436Y-82240000D01*
X166866640Y-82465439D01*
X166932398Y-82682215D01*
X167039184Y-82881997D01*
X167182893Y-83057107D01*
X167358003Y-83200816D01*
X167557785Y-83307602D01*
X167774561Y-83373360D01*
X167943508Y-83390000D01*
X168056492Y-83390000D01*
X168225439Y-83373360D01*
X168442215Y-83307602D01*
X168641997Y-83200816D01*
X168817107Y-83057107D01*
X168960816Y-82881997D01*
X169067602Y-82682215D01*
X169133360Y-82465439D01*
X169155564Y-82240000D01*
X169133360Y-82014561D01*
X169067602Y-81797785D01*
X168960816Y-81598003D01*
X168817107Y-81422893D01*
X168641997Y-81279184D01*
X168442215Y-81172398D01*
X168225439Y-81106640D01*
X168056492Y-81090000D01*
X167943508Y-81090000D01*
X167774561Y-81106640D01*
X167557785Y-81172398D01*
X167358003Y-81279184D01*
X167182893Y-81422893D01*
X167039184Y-81598003D01*
X166932398Y-81797785D01*
X166866640Y-82014561D01*
X166844436Y-82240000D01*
X162656167Y-82240000D01*
X162624088Y-82200912D01*
X162545258Y-82136219D01*
X162455322Y-82088147D01*
X162357736Y-82058545D01*
X162256250Y-82048549D01*
X161830309Y-82048549D01*
X161823736Y-82040540D01*
X161762584Y-81990354D01*
X161692817Y-81953063D01*
X161660458Y-81943247D01*
X161743750Y-81951451D01*
X162256250Y-81951451D01*
X162357736Y-81941455D01*
X162455322Y-81911853D01*
X162545258Y-81863781D01*
X162624088Y-81799088D01*
X162688781Y-81720258D01*
X162736853Y-81630322D01*
X162741774Y-81614100D01*
X163258226Y-81614100D01*
X163263147Y-81630322D01*
X163311219Y-81720258D01*
X163375912Y-81799088D01*
X163454742Y-81863781D01*
X163544678Y-81911853D01*
X163642264Y-81941455D01*
X163743750Y-81951451D01*
X164256250Y-81951451D01*
X164357736Y-81941455D01*
X164455322Y-81911853D01*
X164545258Y-81863781D01*
X164624088Y-81799088D01*
X164688781Y-81720258D01*
X164736853Y-81630322D01*
X164741774Y-81614100D01*
X166467775Y-81614100D01*
X166487500Y-81616043D01*
X166507225Y-81614100D01*
X166507227Y-81614100D01*
X166566227Y-81608289D01*
X166641929Y-81585325D01*
X166711696Y-81548034D01*
X166772848Y-81497848D01*
X166785429Y-81482518D01*
X167520353Y-80747594D01*
X167557785Y-80767602D01*
X167774561Y-80833360D01*
X167943508Y-80850000D01*
X168056492Y-80850000D01*
X168225439Y-80833360D01*
X168442215Y-80767602D01*
X168641997Y-80660816D01*
X168817107Y-80517107D01*
X168960816Y-80341997D01*
X169067602Y-80142215D01*
X169133360Y-79925439D01*
X169155564Y-79700000D01*
X169133360Y-79474561D01*
X169067602Y-79257785D01*
X168960816Y-79058003D01*
X168817107Y-78882893D01*
X168641997Y-78739184D01*
X168442215Y-78632398D01*
X168225439Y-78566640D01*
X168056492Y-78550000D01*
X167943508Y-78550000D01*
X167774561Y-78566640D01*
X167557785Y-78632398D01*
X167358003Y-78739184D01*
X167182893Y-78882893D01*
X167039184Y-79058003D01*
X166932398Y-79257785D01*
X166866640Y-79474561D01*
X166844436Y-79700000D01*
X166866640Y-79925439D01*
X166932398Y-80142215D01*
X166952406Y-80179647D01*
X166321153Y-80810900D01*
X164741774Y-80810900D01*
X164736853Y-80794678D01*
X164688781Y-80704742D01*
X164624088Y-80625912D01*
X164545258Y-80561219D01*
X164455322Y-80513147D01*
X164357736Y-80483545D01*
X164256250Y-80473549D01*
X163743750Y-80473549D01*
X163642264Y-80483545D01*
X163544678Y-80513147D01*
X163454742Y-80561219D01*
X163375912Y-80625912D01*
X163311219Y-80704742D01*
X163263147Y-80794678D01*
X163258226Y-80810900D01*
X162741774Y-80810900D01*
X162736853Y-80794678D01*
X162688781Y-80704742D01*
X162624088Y-80625912D01*
X162545258Y-80561219D01*
X162455322Y-80513147D01*
X162401600Y-80496851D01*
X162401600Y-80422917D01*
X162403542Y-80403199D01*
X162401600Y-80383482D01*
X162401600Y-80383473D01*
X162395789Y-80324473D01*
X162372825Y-80248771D01*
X162335534Y-80179004D01*
X162320509Y-80160696D01*
X162297923Y-80133174D01*
X162297920Y-80133171D01*
X162285348Y-80117852D01*
X162270030Y-80105281D01*
X159209696Y-77044949D01*
X159220659Y-77008810D01*
X159226451Y-76950000D01*
X159226451Y-76575000D01*
X159223890Y-76548993D01*
X159228504Y-76540360D01*
X159245659Y-76483810D01*
X159251451Y-76425000D01*
X159251451Y-76151600D01*
X159657653Y-76151600D01*
X162101964Y-78595912D01*
X162114540Y-78611236D01*
X162175692Y-78661422D01*
X162194519Y-78671485D01*
X162245458Y-78698713D01*
X162321160Y-78721677D01*
X162399888Y-78729431D01*
X162419616Y-78727488D01*
X163223549Y-78727488D01*
X163223549Y-79006250D01*
X163233545Y-79107736D01*
X163263147Y-79205322D01*
X163311219Y-79295258D01*
X163375912Y-79374088D01*
X163454742Y-79438781D01*
X163544678Y-79486853D01*
X163642264Y-79516455D01*
X163743750Y-79526451D01*
X164256250Y-79526451D01*
X164357736Y-79516455D01*
X164455322Y-79486853D01*
X164545258Y-79438781D01*
X164624088Y-79374088D01*
X164688781Y-79295258D01*
X164736853Y-79205322D01*
X164754581Y-79146881D01*
X164799196Y-79123034D01*
X164860348Y-79072848D01*
X164872929Y-79057518D01*
X166368848Y-77561600D01*
X166920078Y-77561600D01*
X166932398Y-77602215D01*
X167039184Y-77801997D01*
X167182893Y-77977107D01*
X167358003Y-78120816D01*
X167557785Y-78227602D01*
X167774561Y-78293360D01*
X167943508Y-78310000D01*
X168056492Y-78310000D01*
X168225439Y-78293360D01*
X168442215Y-78227602D01*
X168641997Y-78120816D01*
X168817107Y-77977107D01*
X168960816Y-77801997D01*
X169067602Y-77602215D01*
X169133360Y-77385439D01*
X169155564Y-77160000D01*
X169133360Y-76934561D01*
X169067602Y-76717785D01*
X168960816Y-76518003D01*
X168817107Y-76342893D01*
X168641997Y-76199184D01*
X168442215Y-76092398D01*
X168225439Y-76026640D01*
X168056492Y-76010000D01*
X167943508Y-76010000D01*
X167774561Y-76026640D01*
X167557785Y-76092398D01*
X167358003Y-76199184D01*
X167182893Y-76342893D01*
X167039184Y-76518003D01*
X166932398Y-76717785D01*
X166920078Y-76758400D01*
X166222228Y-76758400D01*
X166202500Y-76756457D01*
X166123772Y-76764211D01*
X166080291Y-76777401D01*
X166048071Y-76787175D01*
X165978304Y-76824466D01*
X165917152Y-76874652D01*
X165904576Y-76889976D01*
X164607365Y-78187188D01*
X164545258Y-78136219D01*
X164455322Y-78088147D01*
X164357736Y-78058545D01*
X164256250Y-78048549D01*
X163830309Y-78048549D01*
X163823736Y-78040540D01*
X163762584Y-77990354D01*
X163692817Y-77953063D01*
X163660458Y-77943247D01*
X163743750Y-77951451D01*
X164256250Y-77951451D01*
X164357736Y-77941455D01*
X164455322Y-77911853D01*
X164545258Y-77863781D01*
X164624088Y-77799088D01*
X164688781Y-77720258D01*
X164736853Y-77630322D01*
X164766455Y-77532736D01*
X164776451Y-77431250D01*
X164776451Y-77177888D01*
X165036145Y-77177888D01*
X165057112Y-77179953D01*
X165078079Y-77177888D01*
X165078090Y-77177888D01*
X165140819Y-77171710D01*
X165221308Y-77147293D01*
X165295488Y-77107643D01*
X165360507Y-77054283D01*
X165373880Y-77037988D01*
X165516379Y-76895489D01*
X165539056Y-76900000D01*
X165676944Y-76900000D01*
X165812182Y-76873099D01*
X165939574Y-76820332D01*
X166054224Y-76743726D01*
X166151726Y-76646224D01*
X166228332Y-76531574D01*
X166281099Y-76404182D01*
X166308000Y-76268944D01*
X166308000Y-76131056D01*
X166281099Y-75995818D01*
X166228332Y-75868426D01*
X166151726Y-75753776D01*
X166054224Y-75656274D01*
X165939574Y-75579668D01*
X165812182Y-75526901D01*
X165676944Y-75500000D01*
X165539056Y-75500000D01*
X165403818Y-75526901D01*
X165276426Y-75579668D01*
X165161776Y-75656274D01*
X165064274Y-75753776D01*
X164987668Y-75868426D01*
X164934901Y-75995818D01*
X164908000Y-76131056D01*
X164908000Y-76268944D01*
X164912511Y-76291621D01*
X164880244Y-76323888D01*
X164482579Y-76323888D01*
X164461612Y-76321823D01*
X164440645Y-76323888D01*
X164440634Y-76323888D01*
X164377905Y-76330066D01*
X164297416Y-76354483D01*
X164274539Y-76366711D01*
X164223235Y-76394133D01*
X164174511Y-76434120D01*
X164174507Y-76434124D01*
X164158217Y-76447493D01*
X164144848Y-76463783D01*
X164135082Y-76473549D01*
X163743750Y-76473549D01*
X163642264Y-76483545D01*
X163544678Y-76513147D01*
X163454742Y-76561219D01*
X163375912Y-76625912D01*
X163311219Y-76704742D01*
X163263147Y-76794678D01*
X163233545Y-76892264D01*
X163223549Y-76993750D01*
X163223549Y-77431250D01*
X163233545Y-77532736D01*
X163263147Y-77630322D01*
X163311219Y-77720258D01*
X163375912Y-77799088D01*
X163454742Y-77863781D01*
X163544678Y-77911853D01*
X163598920Y-77928307D01*
X163558115Y-77924288D01*
X163558113Y-77924288D01*
X163538388Y-77922345D01*
X163518663Y-77924288D01*
X162566236Y-77924288D01*
X160481547Y-75839600D01*
X161478457Y-75839600D01*
X161508274Y-75884224D01*
X161605776Y-75981726D01*
X161720426Y-76058332D01*
X161847818Y-76111099D01*
X161983056Y-76138000D01*
X162120944Y-76138000D01*
X162256182Y-76111099D01*
X162383574Y-76058332D01*
X162498224Y-75981726D01*
X162595726Y-75884224D01*
X162672332Y-75769574D01*
X162725099Y-75642182D01*
X162752000Y-75506944D01*
X162752000Y-75369056D01*
X162725099Y-75233818D01*
X162672332Y-75106426D01*
X162661727Y-75090555D01*
X162681067Y-75106426D01*
X162701304Y-75123034D01*
X162771071Y-75160325D01*
X162846773Y-75183289D01*
X162905773Y-75189100D01*
X162905782Y-75189100D01*
X162925499Y-75191042D01*
X162945217Y-75189100D01*
X163258226Y-75189100D01*
X163263147Y-75205322D01*
X163311219Y-75295258D01*
X163375912Y-75374088D01*
X163454742Y-75438781D01*
X163544678Y-75486853D01*
X163642264Y-75516455D01*
X163743750Y-75526451D01*
X164256250Y-75526451D01*
X164357736Y-75516455D01*
X164455322Y-75486853D01*
X164545258Y-75438781D01*
X164624088Y-75374088D01*
X164688781Y-75295258D01*
X164736853Y-75205322D01*
X164741774Y-75189100D01*
X167000220Y-75189100D01*
X167039184Y-75261997D01*
X167182893Y-75437107D01*
X167358003Y-75580816D01*
X167557785Y-75687602D01*
X167774561Y-75753360D01*
X167943508Y-75770000D01*
X168056492Y-75770000D01*
X168225439Y-75753360D01*
X168442215Y-75687602D01*
X168641997Y-75580816D01*
X168817107Y-75437107D01*
X168960816Y-75261997D01*
X169067602Y-75062215D01*
X169133360Y-74845439D01*
X169155564Y-74620000D01*
X169133360Y-74394561D01*
X169067602Y-74177785D01*
X168960816Y-73978003D01*
X168817107Y-73802893D01*
X168641997Y-73659184D01*
X168442215Y-73552398D01*
X168225439Y-73486640D01*
X168056492Y-73470000D01*
X167943508Y-73470000D01*
X167774561Y-73486640D01*
X167557785Y-73552398D01*
X167358003Y-73659184D01*
X167182893Y-73802893D01*
X167039184Y-73978003D01*
X166932398Y-74177785D01*
X166869267Y-74385900D01*
X164741774Y-74385900D01*
X164736853Y-74369678D01*
X164688781Y-74279742D01*
X164624088Y-74200912D01*
X164545258Y-74136219D01*
X164455322Y-74088147D01*
X164357736Y-74058545D01*
X164256250Y-74048549D01*
X163743750Y-74048549D01*
X163642264Y-74058545D01*
X163544678Y-74088147D01*
X163454742Y-74136219D01*
X163375912Y-74200912D01*
X163311219Y-74279742D01*
X163263147Y-74369678D01*
X163258226Y-74385900D01*
X163091848Y-74385900D01*
X162857928Y-74151981D01*
X162845348Y-74136652D01*
X162784196Y-74086466D01*
X162714429Y-74049175D01*
X162638727Y-74026211D01*
X162579727Y-74020400D01*
X162579725Y-74020400D01*
X162560000Y-74018457D01*
X162540275Y-74020400D01*
X158515717Y-74020400D01*
X158495999Y-74018458D01*
X158476281Y-74020400D01*
X158476273Y-74020400D01*
X158417273Y-74026211D01*
X158341571Y-74049175D01*
X158271804Y-74086466D01*
X158210652Y-74136652D01*
X158198075Y-74151977D01*
X158161000Y-74189052D01*
X158161000Y-74117464D01*
X158163065Y-74096499D01*
X158161000Y-74075534D01*
X158161000Y-74075522D01*
X158154822Y-74012793D01*
X158130405Y-73932304D01*
X158093779Y-73863781D01*
X158090755Y-73858123D01*
X158050768Y-73809398D01*
X158050759Y-73809389D01*
X158037395Y-73793105D01*
X158021112Y-73779742D01*
X157829004Y-73587635D01*
X157863781Y-73545258D01*
X157911853Y-73455322D01*
X157941455Y-73357736D01*
X157951451Y-73256250D01*
X157951451Y-72743750D01*
X157941455Y-72642264D01*
X157911853Y-72544678D01*
X157863781Y-72454742D01*
X157799088Y-72375912D01*
X157720258Y-72311219D01*
X157639500Y-72268053D01*
X157639500Y-70568750D01*
X161223549Y-70568750D01*
X161223549Y-71006250D01*
X161233545Y-71107736D01*
X161263147Y-71205322D01*
X161311219Y-71295258D01*
X161375912Y-71374088D01*
X161454742Y-71438781D01*
X161544678Y-71486853D01*
X161642264Y-71516455D01*
X161647228Y-71516944D01*
X161650400Y-71522878D01*
X161650401Y-72578457D01*
X161605776Y-72608274D01*
X161508274Y-72705776D01*
X161431668Y-72820426D01*
X161378901Y-72947818D01*
X161352000Y-73083056D01*
X161352000Y-73220944D01*
X161378901Y-73356182D01*
X161431668Y-73483574D01*
X161508274Y-73598224D01*
X161605776Y-73695726D01*
X161720426Y-73772332D01*
X161847818Y-73825099D01*
X161983056Y-73852000D01*
X162120944Y-73852000D01*
X162256182Y-73825099D01*
X162383574Y-73772332D01*
X162498224Y-73695726D01*
X162595726Y-73598224D01*
X162672332Y-73483574D01*
X162725099Y-73356182D01*
X162752000Y-73220944D01*
X162752000Y-73083056D01*
X162734236Y-72993750D01*
X163223549Y-72993750D01*
X163223549Y-73431250D01*
X163233545Y-73532736D01*
X163263147Y-73630322D01*
X163311219Y-73720258D01*
X163375912Y-73799088D01*
X163454742Y-73863781D01*
X163544678Y-73911853D01*
X163642264Y-73941455D01*
X163743750Y-73951451D01*
X164256250Y-73951451D01*
X164357736Y-73941455D01*
X164455322Y-73911853D01*
X164545258Y-73863781D01*
X164624088Y-73799088D01*
X164688781Y-73720258D01*
X164736853Y-73630322D01*
X164744153Y-73606255D01*
X164795144Y-73579000D01*
X165051429Y-73579000D01*
X165064274Y-73598224D01*
X165161776Y-73695726D01*
X165276426Y-73772332D01*
X165403818Y-73825099D01*
X165539056Y-73852000D01*
X165676944Y-73852000D01*
X165812182Y-73825099D01*
X165939574Y-73772332D01*
X166054224Y-73695726D01*
X166151726Y-73598224D01*
X166228332Y-73483574D01*
X166281099Y-73356182D01*
X166308000Y-73220944D01*
X166308000Y-73083056D01*
X166281099Y-72947818D01*
X166228332Y-72820426D01*
X166151726Y-72705776D01*
X166054224Y-72608274D01*
X165939574Y-72531668D01*
X165812182Y-72478901D01*
X165676944Y-72452000D01*
X165539056Y-72452000D01*
X165403818Y-72478901D01*
X165276426Y-72531668D01*
X165161776Y-72608274D01*
X165064274Y-72705776D01*
X165051429Y-72725000D01*
X164699609Y-72725000D01*
X164688781Y-72704742D01*
X164624088Y-72625912D01*
X164545258Y-72561219D01*
X164455322Y-72513147D01*
X164357736Y-72483545D01*
X164256250Y-72473549D01*
X163743750Y-72473549D01*
X163642264Y-72483545D01*
X163544678Y-72513147D01*
X163454742Y-72561219D01*
X163375912Y-72625912D01*
X163311219Y-72704742D01*
X163263147Y-72794678D01*
X163233545Y-72892264D01*
X163223549Y-72993750D01*
X162734236Y-72993750D01*
X162725099Y-72947818D01*
X162672332Y-72820426D01*
X162595726Y-72705776D01*
X162498224Y-72608274D01*
X162453600Y-72578457D01*
X162453600Y-71487375D01*
X162455322Y-71486853D01*
X162545258Y-71438781D01*
X162624088Y-71374088D01*
X162688781Y-71295258D01*
X162736853Y-71205322D01*
X162741774Y-71189100D01*
X163258226Y-71189100D01*
X163263147Y-71205322D01*
X163311219Y-71295258D01*
X163375912Y-71374088D01*
X163454742Y-71438781D01*
X163544678Y-71486853D01*
X163642264Y-71516455D01*
X163743750Y-71526451D01*
X164256250Y-71526451D01*
X164357736Y-71516455D01*
X164455322Y-71486853D01*
X164545258Y-71438781D01*
X164624088Y-71374088D01*
X164688781Y-71295258D01*
X164736853Y-71205322D01*
X164741774Y-71189100D01*
X166541153Y-71189100D01*
X166952406Y-71600353D01*
X166932398Y-71637785D01*
X166866640Y-71854561D01*
X166844436Y-72080000D01*
X166866640Y-72305439D01*
X166932398Y-72522215D01*
X167039184Y-72721997D01*
X167182893Y-72897107D01*
X167358003Y-73040816D01*
X167557785Y-73147602D01*
X167774561Y-73213360D01*
X167943508Y-73230000D01*
X168056492Y-73230000D01*
X168225439Y-73213360D01*
X168442215Y-73147602D01*
X168641997Y-73040816D01*
X168817107Y-72897107D01*
X168960816Y-72721997D01*
X169067602Y-72522215D01*
X169133360Y-72305439D01*
X169155564Y-72080000D01*
X169133360Y-71854561D01*
X169067602Y-71637785D01*
X168960816Y-71438003D01*
X168817107Y-71262893D01*
X168641997Y-71119184D01*
X168442215Y-71012398D01*
X168225439Y-70946640D01*
X168056492Y-70930000D01*
X167943508Y-70930000D01*
X167774561Y-70946640D01*
X167557785Y-71012398D01*
X167520353Y-71032406D01*
X167005429Y-70517482D01*
X166992848Y-70502152D01*
X166931696Y-70451966D01*
X166861929Y-70414675D01*
X166786227Y-70391711D01*
X166727227Y-70385900D01*
X166727225Y-70385900D01*
X166707500Y-70383957D01*
X166687775Y-70385900D01*
X164741774Y-70385900D01*
X164736853Y-70369678D01*
X164688781Y-70279742D01*
X164624088Y-70200912D01*
X164545258Y-70136219D01*
X164455322Y-70088147D01*
X164357736Y-70058545D01*
X164256250Y-70048549D01*
X163743750Y-70048549D01*
X163642264Y-70058545D01*
X163544678Y-70088147D01*
X163454742Y-70136219D01*
X163375912Y-70200912D01*
X163311219Y-70279742D01*
X163263147Y-70369678D01*
X163258226Y-70385900D01*
X162741774Y-70385900D01*
X162736853Y-70369678D01*
X162688781Y-70279742D01*
X162624088Y-70200912D01*
X162545258Y-70136219D01*
X162455322Y-70088147D01*
X162357736Y-70058545D01*
X162256250Y-70048549D01*
X161743750Y-70048549D01*
X161642264Y-70058545D01*
X161544678Y-70088147D01*
X161454742Y-70136219D01*
X161375912Y-70200912D01*
X161311219Y-70279742D01*
X161263147Y-70369678D01*
X161233545Y-70467264D01*
X161223549Y-70568750D01*
X157639500Y-70568750D01*
X157639500Y-69024368D01*
X158164869Y-68499000D01*
X163220132Y-68499000D01*
X163362900Y-68641768D01*
X163311219Y-68704742D01*
X163263147Y-68794678D01*
X163233545Y-68892264D01*
X163223549Y-68993750D01*
X163223549Y-69431250D01*
X163233545Y-69532736D01*
X163263147Y-69630322D01*
X163311219Y-69720258D01*
X163375912Y-69799088D01*
X163454742Y-69863781D01*
X163544678Y-69911853D01*
X163642264Y-69941455D01*
X163743750Y-69951451D01*
X164256250Y-69951451D01*
X164357736Y-69941455D01*
X164455322Y-69911853D01*
X164545258Y-69863781D01*
X164624088Y-69799088D01*
X164688781Y-69720258D01*
X164718371Y-69664900D01*
X166856738Y-69664900D01*
X166866640Y-69765439D01*
X166932398Y-69982215D01*
X167039184Y-70181997D01*
X167182893Y-70357107D01*
X167358003Y-70500816D01*
X167557785Y-70607602D01*
X167774561Y-70673360D01*
X167943508Y-70690000D01*
X168056492Y-70690000D01*
X168225439Y-70673360D01*
X168442215Y-70607602D01*
X168641997Y-70500816D01*
X168817107Y-70357107D01*
X168960816Y-70181997D01*
X169067602Y-69982215D01*
X169133360Y-69765439D01*
X169155564Y-69540000D01*
X169133360Y-69314561D01*
X169067602Y-69097785D01*
X168960816Y-68898003D01*
X168817107Y-68722893D01*
X168641997Y-68579184D01*
X168442215Y-68472398D01*
X168225439Y-68406640D01*
X168056492Y-68390000D01*
X167943508Y-68390000D01*
X167774561Y-68406640D01*
X167557785Y-68472398D01*
X167358003Y-68579184D01*
X167182893Y-68722893D01*
X167152358Y-68760100D01*
X164718371Y-68760100D01*
X164688781Y-68704742D01*
X164624088Y-68625912D01*
X164545258Y-68561219D01*
X164455322Y-68513147D01*
X164386498Y-68492270D01*
X164375877Y-68472398D01*
X164356756Y-68436623D01*
X164316768Y-68387899D01*
X164316764Y-68387895D01*
X164303395Y-68371605D01*
X164287105Y-68358236D01*
X163713768Y-67784900D01*
X163700395Y-67768605D01*
X163635376Y-67715245D01*
X163561196Y-67675595D01*
X163480707Y-67651178D01*
X163417978Y-67645000D01*
X163417967Y-67645000D01*
X163397000Y-67642935D01*
X163376033Y-67645000D01*
X158008967Y-67645000D01*
X157988000Y-67642935D01*
X157967033Y-67645000D01*
X157967022Y-67645000D01*
X157904293Y-67651178D01*
X157842537Y-67669912D01*
X157823803Y-67675595D01*
X157749623Y-67715244D01*
X157700899Y-67755232D01*
X157700895Y-67755236D01*
X157684605Y-67768605D01*
X157671236Y-67784895D01*
X156925400Y-68530732D01*
X156909105Y-68544105D01*
X156895733Y-68560399D01*
X156895732Y-68560400D01*
X156855745Y-68609124D01*
X156846772Y-68625912D01*
X156816095Y-68683305D01*
X156791678Y-68763794D01*
X156785500Y-68826523D01*
X156785500Y-68826533D01*
X156783435Y-68847500D01*
X156785500Y-68868467D01*
X156785501Y-72268052D01*
X156704742Y-72311219D01*
X156625912Y-72375912D01*
X156561219Y-72454742D01*
X156513147Y-72544678D01*
X156483545Y-72642264D01*
X156473549Y-72743750D01*
X156473549Y-73256250D01*
X156483545Y-73357736D01*
X156513147Y-73455322D01*
X156561219Y-73545258D01*
X156625912Y-73624088D01*
X156704742Y-73688781D01*
X156794678Y-73736853D01*
X156818746Y-73744154D01*
X156855745Y-73813376D01*
X156895732Y-73862100D01*
X156895737Y-73862105D01*
X156909106Y-73878395D01*
X156925395Y-73891763D01*
X157307000Y-74273370D01*
X157307001Y-74748549D01*
X157075000Y-74748549D01*
X157016190Y-74754341D01*
X156959640Y-74771496D01*
X156907523Y-74799353D01*
X156861842Y-74836842D01*
X156824353Y-74882523D01*
X156796496Y-74934640D01*
X156779341Y-74991190D01*
X156773549Y-75050000D01*
X156773549Y-75348400D01*
X156471543Y-75348400D01*
X156441726Y-75303776D01*
X156344224Y-75206274D01*
X156229574Y-75129668D01*
X156102182Y-75076901D01*
X155966944Y-75050000D01*
X155829056Y-75050000D01*
X155693818Y-75076901D01*
X155566426Y-75129668D01*
X155451776Y-75206274D01*
X155354274Y-75303776D01*
X155277668Y-75418426D01*
X155224901Y-75545818D01*
X155198000Y-75681056D01*
X155198000Y-75818944D01*
X155224901Y-75954182D01*
X155277668Y-76081574D01*
X155354274Y-76196224D01*
X155451776Y-76293726D01*
X155464938Y-76302520D01*
X155370426Y-76341668D01*
X155255776Y-76418274D01*
X155158274Y-76515776D01*
X155081668Y-76630426D01*
X155028901Y-76757818D01*
X155002000Y-76893056D01*
X154400000Y-76893056D01*
X154400000Y-66150000D01*
X166848549Y-66150000D01*
X166848549Y-67850000D01*
X166854341Y-67908810D01*
X166871496Y-67965360D01*
X166899353Y-68017477D01*
X166936842Y-68063158D01*
X166982523Y-68100647D01*
X167034640Y-68128504D01*
X167091190Y-68145659D01*
X167150000Y-68151451D01*
X168850000Y-68151451D01*
X168908810Y-68145659D01*
X168965360Y-68128504D01*
X169017477Y-68100647D01*
X169063158Y-68063158D01*
X169100647Y-68017477D01*
X169128504Y-67965360D01*
X169145659Y-67908810D01*
X169151451Y-67850000D01*
X169151451Y-66150000D01*
X169145659Y-66091190D01*
X169128504Y-66034640D01*
X169100647Y-65982523D01*
X169063158Y-65936842D01*
X169017477Y-65899353D01*
X168965360Y-65871496D01*
X168908810Y-65854341D01*
X168850000Y-65848549D01*
X167150000Y-65848549D01*
X167091190Y-65854341D01*
X167034640Y-65871496D01*
X166982523Y-65899353D01*
X166936842Y-65936842D01*
X166899353Y-65982523D01*
X166871496Y-66034640D01*
X166854341Y-66091190D01*
X166848549Y-66150000D01*
X154400000Y-66150000D01*
X154400000Y-64980353D01*
X154394212Y-64921586D01*
X154386862Y-64897357D01*
X154407712Y-64684720D01*
X154499276Y-64381444D01*
X154648002Y-64101733D01*
X154848225Y-63856236D01*
X155092316Y-63654305D01*
X155370985Y-63503630D01*
X155673606Y-63409953D01*
X155896312Y-63386545D01*
X155921586Y-63394212D01*
G04 #@! TD*
M02*
