G04 #@! TF.GenerationSoftware,KiCad,Pcbnew,(5.0.0)*
G04 #@! TF.CreationDate,2018-08-29T17:32:18+01:00*
G04 #@! TF.ProjectId,Week5LetsTryANewIC,5765656B354C657473547279414E6577,rev?*
G04 #@! TF.SameCoordinates,Original*
G04 #@! TF.FileFunction,Paste,Top*
G04 #@! TF.FilePolarity,Positive*
%FSLAX46Y46*%
G04 Gerber Fmt 4.6, Leading zero omitted, Abs format (unit mm)*
G04 Created by KiCad (PCBNEW (5.0.0)) date 08/29/18 17:32:18*
%MOMM*%
%LPD*%
G01*
G04 APERTURE LIST*
%ADD10C,0.100000*%
%ADD11C,0.875000*%
%ADD12R,0.350000X0.375000*%
%ADD13R,0.375000X0.350000*%
G04 APERTURE END LIST*
D10*
G04 #@! TO.C,C1*
G36*
X157452691Y-78526053D02*
X157473926Y-78529203D01*
X157494750Y-78534419D01*
X157514962Y-78541651D01*
X157534368Y-78550830D01*
X157552781Y-78561866D01*
X157570024Y-78574654D01*
X157585930Y-78589070D01*
X157600346Y-78604976D01*
X157613134Y-78622219D01*
X157624170Y-78640632D01*
X157633349Y-78660038D01*
X157640581Y-78680250D01*
X157645797Y-78701074D01*
X157648947Y-78722309D01*
X157650000Y-78743750D01*
X157650000Y-79256250D01*
X157648947Y-79277691D01*
X157645797Y-79298926D01*
X157640581Y-79319750D01*
X157633349Y-79339962D01*
X157624170Y-79359368D01*
X157613134Y-79377781D01*
X157600346Y-79395024D01*
X157585930Y-79410930D01*
X157570024Y-79425346D01*
X157552781Y-79438134D01*
X157534368Y-79449170D01*
X157514962Y-79458349D01*
X157494750Y-79465581D01*
X157473926Y-79470797D01*
X157452691Y-79473947D01*
X157431250Y-79475000D01*
X156993750Y-79475000D01*
X156972309Y-79473947D01*
X156951074Y-79470797D01*
X156930250Y-79465581D01*
X156910038Y-79458349D01*
X156890632Y-79449170D01*
X156872219Y-79438134D01*
X156854976Y-79425346D01*
X156839070Y-79410930D01*
X156824654Y-79395024D01*
X156811866Y-79377781D01*
X156800830Y-79359368D01*
X156791651Y-79339962D01*
X156784419Y-79319750D01*
X156779203Y-79298926D01*
X156776053Y-79277691D01*
X156775000Y-79256250D01*
X156775000Y-78743750D01*
X156776053Y-78722309D01*
X156779203Y-78701074D01*
X156784419Y-78680250D01*
X156791651Y-78660038D01*
X156800830Y-78640632D01*
X156811866Y-78622219D01*
X156824654Y-78604976D01*
X156839070Y-78589070D01*
X156854976Y-78574654D01*
X156872219Y-78561866D01*
X156890632Y-78550830D01*
X156910038Y-78541651D01*
X156930250Y-78534419D01*
X156951074Y-78529203D01*
X156972309Y-78526053D01*
X156993750Y-78525000D01*
X157431250Y-78525000D01*
X157452691Y-78526053D01*
X157452691Y-78526053D01*
G37*
D11*
X157212500Y-79000000D03*
D10*
G36*
X159027691Y-78526053D02*
X159048926Y-78529203D01*
X159069750Y-78534419D01*
X159089962Y-78541651D01*
X159109368Y-78550830D01*
X159127781Y-78561866D01*
X159145024Y-78574654D01*
X159160930Y-78589070D01*
X159175346Y-78604976D01*
X159188134Y-78622219D01*
X159199170Y-78640632D01*
X159208349Y-78660038D01*
X159215581Y-78680250D01*
X159220797Y-78701074D01*
X159223947Y-78722309D01*
X159225000Y-78743750D01*
X159225000Y-79256250D01*
X159223947Y-79277691D01*
X159220797Y-79298926D01*
X159215581Y-79319750D01*
X159208349Y-79339962D01*
X159199170Y-79359368D01*
X159188134Y-79377781D01*
X159175346Y-79395024D01*
X159160930Y-79410930D01*
X159145024Y-79425346D01*
X159127781Y-79438134D01*
X159109368Y-79449170D01*
X159089962Y-79458349D01*
X159069750Y-79465581D01*
X159048926Y-79470797D01*
X159027691Y-79473947D01*
X159006250Y-79475000D01*
X158568750Y-79475000D01*
X158547309Y-79473947D01*
X158526074Y-79470797D01*
X158505250Y-79465581D01*
X158485038Y-79458349D01*
X158465632Y-79449170D01*
X158447219Y-79438134D01*
X158429976Y-79425346D01*
X158414070Y-79410930D01*
X158399654Y-79395024D01*
X158386866Y-79377781D01*
X158375830Y-79359368D01*
X158366651Y-79339962D01*
X158359419Y-79319750D01*
X158354203Y-79298926D01*
X158351053Y-79277691D01*
X158350000Y-79256250D01*
X158350000Y-78743750D01*
X158351053Y-78722309D01*
X158354203Y-78701074D01*
X158359419Y-78680250D01*
X158366651Y-78660038D01*
X158375830Y-78640632D01*
X158386866Y-78622219D01*
X158399654Y-78604976D01*
X158414070Y-78589070D01*
X158429976Y-78574654D01*
X158447219Y-78561866D01*
X158465632Y-78550830D01*
X158485038Y-78541651D01*
X158505250Y-78534419D01*
X158526074Y-78529203D01*
X158547309Y-78526053D01*
X158568750Y-78525000D01*
X159006250Y-78525000D01*
X159027691Y-78526053D01*
X159027691Y-78526053D01*
G37*
D11*
X158787500Y-79000000D03*
G04 #@! TD*
D10*
G04 #@! TO.C,C2*
G36*
X159027691Y-72526053D02*
X159048926Y-72529203D01*
X159069750Y-72534419D01*
X159089962Y-72541651D01*
X159109368Y-72550830D01*
X159127781Y-72561866D01*
X159145024Y-72574654D01*
X159160930Y-72589070D01*
X159175346Y-72604976D01*
X159188134Y-72622219D01*
X159199170Y-72640632D01*
X159208349Y-72660038D01*
X159215581Y-72680250D01*
X159220797Y-72701074D01*
X159223947Y-72722309D01*
X159225000Y-72743750D01*
X159225000Y-73256250D01*
X159223947Y-73277691D01*
X159220797Y-73298926D01*
X159215581Y-73319750D01*
X159208349Y-73339962D01*
X159199170Y-73359368D01*
X159188134Y-73377781D01*
X159175346Y-73395024D01*
X159160930Y-73410930D01*
X159145024Y-73425346D01*
X159127781Y-73438134D01*
X159109368Y-73449170D01*
X159089962Y-73458349D01*
X159069750Y-73465581D01*
X159048926Y-73470797D01*
X159027691Y-73473947D01*
X159006250Y-73475000D01*
X158568750Y-73475000D01*
X158547309Y-73473947D01*
X158526074Y-73470797D01*
X158505250Y-73465581D01*
X158485038Y-73458349D01*
X158465632Y-73449170D01*
X158447219Y-73438134D01*
X158429976Y-73425346D01*
X158414070Y-73410930D01*
X158399654Y-73395024D01*
X158386866Y-73377781D01*
X158375830Y-73359368D01*
X158366651Y-73339962D01*
X158359419Y-73319750D01*
X158354203Y-73298926D01*
X158351053Y-73277691D01*
X158350000Y-73256250D01*
X158350000Y-72743750D01*
X158351053Y-72722309D01*
X158354203Y-72701074D01*
X158359419Y-72680250D01*
X158366651Y-72660038D01*
X158375830Y-72640632D01*
X158386866Y-72622219D01*
X158399654Y-72604976D01*
X158414070Y-72589070D01*
X158429976Y-72574654D01*
X158447219Y-72561866D01*
X158465632Y-72550830D01*
X158485038Y-72541651D01*
X158505250Y-72534419D01*
X158526074Y-72529203D01*
X158547309Y-72526053D01*
X158568750Y-72525000D01*
X159006250Y-72525000D01*
X159027691Y-72526053D01*
X159027691Y-72526053D01*
G37*
D11*
X158787500Y-73000000D03*
D10*
G36*
X157452691Y-72526053D02*
X157473926Y-72529203D01*
X157494750Y-72534419D01*
X157514962Y-72541651D01*
X157534368Y-72550830D01*
X157552781Y-72561866D01*
X157570024Y-72574654D01*
X157585930Y-72589070D01*
X157600346Y-72604976D01*
X157613134Y-72622219D01*
X157624170Y-72640632D01*
X157633349Y-72660038D01*
X157640581Y-72680250D01*
X157645797Y-72701074D01*
X157648947Y-72722309D01*
X157650000Y-72743750D01*
X157650000Y-73256250D01*
X157648947Y-73277691D01*
X157645797Y-73298926D01*
X157640581Y-73319750D01*
X157633349Y-73339962D01*
X157624170Y-73359368D01*
X157613134Y-73377781D01*
X157600346Y-73395024D01*
X157585930Y-73410930D01*
X157570024Y-73425346D01*
X157552781Y-73438134D01*
X157534368Y-73449170D01*
X157514962Y-73458349D01*
X157494750Y-73465581D01*
X157473926Y-73470797D01*
X157452691Y-73473947D01*
X157431250Y-73475000D01*
X156993750Y-73475000D01*
X156972309Y-73473947D01*
X156951074Y-73470797D01*
X156930250Y-73465581D01*
X156910038Y-73458349D01*
X156890632Y-73449170D01*
X156872219Y-73438134D01*
X156854976Y-73425346D01*
X156839070Y-73410930D01*
X156824654Y-73395024D01*
X156811866Y-73377781D01*
X156800830Y-73359368D01*
X156791651Y-73339962D01*
X156784419Y-73319750D01*
X156779203Y-73298926D01*
X156776053Y-73277691D01*
X156775000Y-73256250D01*
X156775000Y-72743750D01*
X156776053Y-72722309D01*
X156779203Y-72701074D01*
X156784419Y-72680250D01*
X156791651Y-72660038D01*
X156800830Y-72640632D01*
X156811866Y-72622219D01*
X156824654Y-72604976D01*
X156839070Y-72589070D01*
X156854976Y-72574654D01*
X156872219Y-72561866D01*
X156890632Y-72550830D01*
X156910038Y-72541651D01*
X156930250Y-72534419D01*
X156951074Y-72529203D01*
X156972309Y-72526053D01*
X156993750Y-72525000D01*
X157431250Y-72525000D01*
X157452691Y-72526053D01*
X157452691Y-72526053D01*
G37*
D11*
X157212500Y-73000000D03*
G04 #@! TD*
D12*
G04 #@! TO.C,U1*
X158250000Y-75237500D03*
X157750000Y-75237500D03*
X158250000Y-76762500D03*
X157750000Y-76762500D03*
X157250000Y-75237500D03*
X157250000Y-76762500D03*
X158750000Y-75237500D03*
X158750000Y-76762500D03*
D13*
X157237500Y-75750000D03*
X157237500Y-76250000D03*
X158762500Y-76250000D03*
X158762500Y-75750000D03*
G04 #@! TD*
D10*
G04 #@! TO.C,R1*
G36*
X164277691Y-72776053D02*
X164298926Y-72779203D01*
X164319750Y-72784419D01*
X164339962Y-72791651D01*
X164359368Y-72800830D01*
X164377781Y-72811866D01*
X164395024Y-72824654D01*
X164410930Y-72839070D01*
X164425346Y-72854976D01*
X164438134Y-72872219D01*
X164449170Y-72890632D01*
X164458349Y-72910038D01*
X164465581Y-72930250D01*
X164470797Y-72951074D01*
X164473947Y-72972309D01*
X164475000Y-72993750D01*
X164475000Y-73431250D01*
X164473947Y-73452691D01*
X164470797Y-73473926D01*
X164465581Y-73494750D01*
X164458349Y-73514962D01*
X164449170Y-73534368D01*
X164438134Y-73552781D01*
X164425346Y-73570024D01*
X164410930Y-73585930D01*
X164395024Y-73600346D01*
X164377781Y-73613134D01*
X164359368Y-73624170D01*
X164339962Y-73633349D01*
X164319750Y-73640581D01*
X164298926Y-73645797D01*
X164277691Y-73648947D01*
X164256250Y-73650000D01*
X163743750Y-73650000D01*
X163722309Y-73648947D01*
X163701074Y-73645797D01*
X163680250Y-73640581D01*
X163660038Y-73633349D01*
X163640632Y-73624170D01*
X163622219Y-73613134D01*
X163604976Y-73600346D01*
X163589070Y-73585930D01*
X163574654Y-73570024D01*
X163561866Y-73552781D01*
X163550830Y-73534368D01*
X163541651Y-73514962D01*
X163534419Y-73494750D01*
X163529203Y-73473926D01*
X163526053Y-73452691D01*
X163525000Y-73431250D01*
X163525000Y-72993750D01*
X163526053Y-72972309D01*
X163529203Y-72951074D01*
X163534419Y-72930250D01*
X163541651Y-72910038D01*
X163550830Y-72890632D01*
X163561866Y-72872219D01*
X163574654Y-72854976D01*
X163589070Y-72839070D01*
X163604976Y-72824654D01*
X163622219Y-72811866D01*
X163640632Y-72800830D01*
X163660038Y-72791651D01*
X163680250Y-72784419D01*
X163701074Y-72779203D01*
X163722309Y-72776053D01*
X163743750Y-72775000D01*
X164256250Y-72775000D01*
X164277691Y-72776053D01*
X164277691Y-72776053D01*
G37*
D11*
X164000000Y-73212500D03*
D10*
G36*
X164277691Y-74351053D02*
X164298926Y-74354203D01*
X164319750Y-74359419D01*
X164339962Y-74366651D01*
X164359368Y-74375830D01*
X164377781Y-74386866D01*
X164395024Y-74399654D01*
X164410930Y-74414070D01*
X164425346Y-74429976D01*
X164438134Y-74447219D01*
X164449170Y-74465632D01*
X164458349Y-74485038D01*
X164465581Y-74505250D01*
X164470797Y-74526074D01*
X164473947Y-74547309D01*
X164475000Y-74568750D01*
X164475000Y-75006250D01*
X164473947Y-75027691D01*
X164470797Y-75048926D01*
X164465581Y-75069750D01*
X164458349Y-75089962D01*
X164449170Y-75109368D01*
X164438134Y-75127781D01*
X164425346Y-75145024D01*
X164410930Y-75160930D01*
X164395024Y-75175346D01*
X164377781Y-75188134D01*
X164359368Y-75199170D01*
X164339962Y-75208349D01*
X164319750Y-75215581D01*
X164298926Y-75220797D01*
X164277691Y-75223947D01*
X164256250Y-75225000D01*
X163743750Y-75225000D01*
X163722309Y-75223947D01*
X163701074Y-75220797D01*
X163680250Y-75215581D01*
X163660038Y-75208349D01*
X163640632Y-75199170D01*
X163622219Y-75188134D01*
X163604976Y-75175346D01*
X163589070Y-75160930D01*
X163574654Y-75145024D01*
X163561866Y-75127781D01*
X163550830Y-75109368D01*
X163541651Y-75089962D01*
X163534419Y-75069750D01*
X163529203Y-75048926D01*
X163526053Y-75027691D01*
X163525000Y-75006250D01*
X163525000Y-74568750D01*
X163526053Y-74547309D01*
X163529203Y-74526074D01*
X163534419Y-74505250D01*
X163541651Y-74485038D01*
X163550830Y-74465632D01*
X163561866Y-74447219D01*
X163574654Y-74429976D01*
X163589070Y-74414070D01*
X163604976Y-74399654D01*
X163622219Y-74386866D01*
X163640632Y-74375830D01*
X163660038Y-74366651D01*
X163680250Y-74359419D01*
X163701074Y-74354203D01*
X163722309Y-74351053D01*
X163743750Y-74350000D01*
X164256250Y-74350000D01*
X164277691Y-74351053D01*
X164277691Y-74351053D01*
G37*
D11*
X164000000Y-74787500D03*
G04 #@! TD*
D10*
G04 #@! TO.C,R2*
G36*
X164277691Y-78351053D02*
X164298926Y-78354203D01*
X164319750Y-78359419D01*
X164339962Y-78366651D01*
X164359368Y-78375830D01*
X164377781Y-78386866D01*
X164395024Y-78399654D01*
X164410930Y-78414070D01*
X164425346Y-78429976D01*
X164438134Y-78447219D01*
X164449170Y-78465632D01*
X164458349Y-78485038D01*
X164465581Y-78505250D01*
X164470797Y-78526074D01*
X164473947Y-78547309D01*
X164475000Y-78568750D01*
X164475000Y-79006250D01*
X164473947Y-79027691D01*
X164470797Y-79048926D01*
X164465581Y-79069750D01*
X164458349Y-79089962D01*
X164449170Y-79109368D01*
X164438134Y-79127781D01*
X164425346Y-79145024D01*
X164410930Y-79160930D01*
X164395024Y-79175346D01*
X164377781Y-79188134D01*
X164359368Y-79199170D01*
X164339962Y-79208349D01*
X164319750Y-79215581D01*
X164298926Y-79220797D01*
X164277691Y-79223947D01*
X164256250Y-79225000D01*
X163743750Y-79225000D01*
X163722309Y-79223947D01*
X163701074Y-79220797D01*
X163680250Y-79215581D01*
X163660038Y-79208349D01*
X163640632Y-79199170D01*
X163622219Y-79188134D01*
X163604976Y-79175346D01*
X163589070Y-79160930D01*
X163574654Y-79145024D01*
X163561866Y-79127781D01*
X163550830Y-79109368D01*
X163541651Y-79089962D01*
X163534419Y-79069750D01*
X163529203Y-79048926D01*
X163526053Y-79027691D01*
X163525000Y-79006250D01*
X163525000Y-78568750D01*
X163526053Y-78547309D01*
X163529203Y-78526074D01*
X163534419Y-78505250D01*
X163541651Y-78485038D01*
X163550830Y-78465632D01*
X163561866Y-78447219D01*
X163574654Y-78429976D01*
X163589070Y-78414070D01*
X163604976Y-78399654D01*
X163622219Y-78386866D01*
X163640632Y-78375830D01*
X163660038Y-78366651D01*
X163680250Y-78359419D01*
X163701074Y-78354203D01*
X163722309Y-78351053D01*
X163743750Y-78350000D01*
X164256250Y-78350000D01*
X164277691Y-78351053D01*
X164277691Y-78351053D01*
G37*
D11*
X164000000Y-78787500D03*
D10*
G36*
X164277691Y-76776053D02*
X164298926Y-76779203D01*
X164319750Y-76784419D01*
X164339962Y-76791651D01*
X164359368Y-76800830D01*
X164377781Y-76811866D01*
X164395024Y-76824654D01*
X164410930Y-76839070D01*
X164425346Y-76854976D01*
X164438134Y-76872219D01*
X164449170Y-76890632D01*
X164458349Y-76910038D01*
X164465581Y-76930250D01*
X164470797Y-76951074D01*
X164473947Y-76972309D01*
X164475000Y-76993750D01*
X164475000Y-77431250D01*
X164473947Y-77452691D01*
X164470797Y-77473926D01*
X164465581Y-77494750D01*
X164458349Y-77514962D01*
X164449170Y-77534368D01*
X164438134Y-77552781D01*
X164425346Y-77570024D01*
X164410930Y-77585930D01*
X164395024Y-77600346D01*
X164377781Y-77613134D01*
X164359368Y-77624170D01*
X164339962Y-77633349D01*
X164319750Y-77640581D01*
X164298926Y-77645797D01*
X164277691Y-77648947D01*
X164256250Y-77650000D01*
X163743750Y-77650000D01*
X163722309Y-77648947D01*
X163701074Y-77645797D01*
X163680250Y-77640581D01*
X163660038Y-77633349D01*
X163640632Y-77624170D01*
X163622219Y-77613134D01*
X163604976Y-77600346D01*
X163589070Y-77585930D01*
X163574654Y-77570024D01*
X163561866Y-77552781D01*
X163550830Y-77534368D01*
X163541651Y-77514962D01*
X163534419Y-77494750D01*
X163529203Y-77473926D01*
X163526053Y-77452691D01*
X163525000Y-77431250D01*
X163525000Y-76993750D01*
X163526053Y-76972309D01*
X163529203Y-76951074D01*
X163534419Y-76930250D01*
X163541651Y-76910038D01*
X163550830Y-76890632D01*
X163561866Y-76872219D01*
X163574654Y-76854976D01*
X163589070Y-76839070D01*
X163604976Y-76824654D01*
X163622219Y-76811866D01*
X163640632Y-76800830D01*
X163660038Y-76791651D01*
X163680250Y-76784419D01*
X163701074Y-76779203D01*
X163722309Y-76776053D01*
X163743750Y-76775000D01*
X164256250Y-76775000D01*
X164277691Y-76776053D01*
X164277691Y-76776053D01*
G37*
D11*
X164000000Y-77212500D03*
G04 #@! TD*
D10*
G04 #@! TO.C,R3*
G36*
X164277691Y-68776053D02*
X164298926Y-68779203D01*
X164319750Y-68784419D01*
X164339962Y-68791651D01*
X164359368Y-68800830D01*
X164377781Y-68811866D01*
X164395024Y-68824654D01*
X164410930Y-68839070D01*
X164425346Y-68854976D01*
X164438134Y-68872219D01*
X164449170Y-68890632D01*
X164458349Y-68910038D01*
X164465581Y-68930250D01*
X164470797Y-68951074D01*
X164473947Y-68972309D01*
X164475000Y-68993750D01*
X164475000Y-69431250D01*
X164473947Y-69452691D01*
X164470797Y-69473926D01*
X164465581Y-69494750D01*
X164458349Y-69514962D01*
X164449170Y-69534368D01*
X164438134Y-69552781D01*
X164425346Y-69570024D01*
X164410930Y-69585930D01*
X164395024Y-69600346D01*
X164377781Y-69613134D01*
X164359368Y-69624170D01*
X164339962Y-69633349D01*
X164319750Y-69640581D01*
X164298926Y-69645797D01*
X164277691Y-69648947D01*
X164256250Y-69650000D01*
X163743750Y-69650000D01*
X163722309Y-69648947D01*
X163701074Y-69645797D01*
X163680250Y-69640581D01*
X163660038Y-69633349D01*
X163640632Y-69624170D01*
X163622219Y-69613134D01*
X163604976Y-69600346D01*
X163589070Y-69585930D01*
X163574654Y-69570024D01*
X163561866Y-69552781D01*
X163550830Y-69534368D01*
X163541651Y-69514962D01*
X163534419Y-69494750D01*
X163529203Y-69473926D01*
X163526053Y-69452691D01*
X163525000Y-69431250D01*
X163525000Y-68993750D01*
X163526053Y-68972309D01*
X163529203Y-68951074D01*
X163534419Y-68930250D01*
X163541651Y-68910038D01*
X163550830Y-68890632D01*
X163561866Y-68872219D01*
X163574654Y-68854976D01*
X163589070Y-68839070D01*
X163604976Y-68824654D01*
X163622219Y-68811866D01*
X163640632Y-68800830D01*
X163660038Y-68791651D01*
X163680250Y-68784419D01*
X163701074Y-68779203D01*
X163722309Y-68776053D01*
X163743750Y-68775000D01*
X164256250Y-68775000D01*
X164277691Y-68776053D01*
X164277691Y-68776053D01*
G37*
D11*
X164000000Y-69212500D03*
D10*
G36*
X164277691Y-70351053D02*
X164298926Y-70354203D01*
X164319750Y-70359419D01*
X164339962Y-70366651D01*
X164359368Y-70375830D01*
X164377781Y-70386866D01*
X164395024Y-70399654D01*
X164410930Y-70414070D01*
X164425346Y-70429976D01*
X164438134Y-70447219D01*
X164449170Y-70465632D01*
X164458349Y-70485038D01*
X164465581Y-70505250D01*
X164470797Y-70526074D01*
X164473947Y-70547309D01*
X164475000Y-70568750D01*
X164475000Y-71006250D01*
X164473947Y-71027691D01*
X164470797Y-71048926D01*
X164465581Y-71069750D01*
X164458349Y-71089962D01*
X164449170Y-71109368D01*
X164438134Y-71127781D01*
X164425346Y-71145024D01*
X164410930Y-71160930D01*
X164395024Y-71175346D01*
X164377781Y-71188134D01*
X164359368Y-71199170D01*
X164339962Y-71208349D01*
X164319750Y-71215581D01*
X164298926Y-71220797D01*
X164277691Y-71223947D01*
X164256250Y-71225000D01*
X163743750Y-71225000D01*
X163722309Y-71223947D01*
X163701074Y-71220797D01*
X163680250Y-71215581D01*
X163660038Y-71208349D01*
X163640632Y-71199170D01*
X163622219Y-71188134D01*
X163604976Y-71175346D01*
X163589070Y-71160930D01*
X163574654Y-71145024D01*
X163561866Y-71127781D01*
X163550830Y-71109368D01*
X163541651Y-71089962D01*
X163534419Y-71069750D01*
X163529203Y-71048926D01*
X163526053Y-71027691D01*
X163525000Y-71006250D01*
X163525000Y-70568750D01*
X163526053Y-70547309D01*
X163529203Y-70526074D01*
X163534419Y-70505250D01*
X163541651Y-70485038D01*
X163550830Y-70465632D01*
X163561866Y-70447219D01*
X163574654Y-70429976D01*
X163589070Y-70414070D01*
X163604976Y-70399654D01*
X163622219Y-70386866D01*
X163640632Y-70375830D01*
X163660038Y-70366651D01*
X163680250Y-70359419D01*
X163701074Y-70354203D01*
X163722309Y-70351053D01*
X163743750Y-70350000D01*
X164256250Y-70350000D01*
X164277691Y-70351053D01*
X164277691Y-70351053D01*
G37*
D11*
X164000000Y-70787500D03*
G04 #@! TD*
D10*
G04 #@! TO.C,R4*
G36*
X162277691Y-68776053D02*
X162298926Y-68779203D01*
X162319750Y-68784419D01*
X162339962Y-68791651D01*
X162359368Y-68800830D01*
X162377781Y-68811866D01*
X162395024Y-68824654D01*
X162410930Y-68839070D01*
X162425346Y-68854976D01*
X162438134Y-68872219D01*
X162449170Y-68890632D01*
X162458349Y-68910038D01*
X162465581Y-68930250D01*
X162470797Y-68951074D01*
X162473947Y-68972309D01*
X162475000Y-68993750D01*
X162475000Y-69431250D01*
X162473947Y-69452691D01*
X162470797Y-69473926D01*
X162465581Y-69494750D01*
X162458349Y-69514962D01*
X162449170Y-69534368D01*
X162438134Y-69552781D01*
X162425346Y-69570024D01*
X162410930Y-69585930D01*
X162395024Y-69600346D01*
X162377781Y-69613134D01*
X162359368Y-69624170D01*
X162339962Y-69633349D01*
X162319750Y-69640581D01*
X162298926Y-69645797D01*
X162277691Y-69648947D01*
X162256250Y-69650000D01*
X161743750Y-69650000D01*
X161722309Y-69648947D01*
X161701074Y-69645797D01*
X161680250Y-69640581D01*
X161660038Y-69633349D01*
X161640632Y-69624170D01*
X161622219Y-69613134D01*
X161604976Y-69600346D01*
X161589070Y-69585930D01*
X161574654Y-69570024D01*
X161561866Y-69552781D01*
X161550830Y-69534368D01*
X161541651Y-69514962D01*
X161534419Y-69494750D01*
X161529203Y-69473926D01*
X161526053Y-69452691D01*
X161525000Y-69431250D01*
X161525000Y-68993750D01*
X161526053Y-68972309D01*
X161529203Y-68951074D01*
X161534419Y-68930250D01*
X161541651Y-68910038D01*
X161550830Y-68890632D01*
X161561866Y-68872219D01*
X161574654Y-68854976D01*
X161589070Y-68839070D01*
X161604976Y-68824654D01*
X161622219Y-68811866D01*
X161640632Y-68800830D01*
X161660038Y-68791651D01*
X161680250Y-68784419D01*
X161701074Y-68779203D01*
X161722309Y-68776053D01*
X161743750Y-68775000D01*
X162256250Y-68775000D01*
X162277691Y-68776053D01*
X162277691Y-68776053D01*
G37*
D11*
X162000000Y-69212500D03*
D10*
G36*
X162277691Y-70351053D02*
X162298926Y-70354203D01*
X162319750Y-70359419D01*
X162339962Y-70366651D01*
X162359368Y-70375830D01*
X162377781Y-70386866D01*
X162395024Y-70399654D01*
X162410930Y-70414070D01*
X162425346Y-70429976D01*
X162438134Y-70447219D01*
X162449170Y-70465632D01*
X162458349Y-70485038D01*
X162465581Y-70505250D01*
X162470797Y-70526074D01*
X162473947Y-70547309D01*
X162475000Y-70568750D01*
X162475000Y-71006250D01*
X162473947Y-71027691D01*
X162470797Y-71048926D01*
X162465581Y-71069750D01*
X162458349Y-71089962D01*
X162449170Y-71109368D01*
X162438134Y-71127781D01*
X162425346Y-71145024D01*
X162410930Y-71160930D01*
X162395024Y-71175346D01*
X162377781Y-71188134D01*
X162359368Y-71199170D01*
X162339962Y-71208349D01*
X162319750Y-71215581D01*
X162298926Y-71220797D01*
X162277691Y-71223947D01*
X162256250Y-71225000D01*
X161743750Y-71225000D01*
X161722309Y-71223947D01*
X161701074Y-71220797D01*
X161680250Y-71215581D01*
X161660038Y-71208349D01*
X161640632Y-71199170D01*
X161622219Y-71188134D01*
X161604976Y-71175346D01*
X161589070Y-71160930D01*
X161574654Y-71145024D01*
X161561866Y-71127781D01*
X161550830Y-71109368D01*
X161541651Y-71089962D01*
X161534419Y-71069750D01*
X161529203Y-71048926D01*
X161526053Y-71027691D01*
X161525000Y-71006250D01*
X161525000Y-70568750D01*
X161526053Y-70547309D01*
X161529203Y-70526074D01*
X161534419Y-70505250D01*
X161541651Y-70485038D01*
X161550830Y-70465632D01*
X161561866Y-70447219D01*
X161574654Y-70429976D01*
X161589070Y-70414070D01*
X161604976Y-70399654D01*
X161622219Y-70386866D01*
X161640632Y-70375830D01*
X161660038Y-70366651D01*
X161680250Y-70359419D01*
X161701074Y-70354203D01*
X161722309Y-70351053D01*
X161743750Y-70350000D01*
X162256250Y-70350000D01*
X162277691Y-70351053D01*
X162277691Y-70351053D01*
G37*
D11*
X162000000Y-70787500D03*
G04 #@! TD*
D10*
G04 #@! TO.C,R5*
G36*
X162277691Y-80776053D02*
X162298926Y-80779203D01*
X162319750Y-80784419D01*
X162339962Y-80791651D01*
X162359368Y-80800830D01*
X162377781Y-80811866D01*
X162395024Y-80824654D01*
X162410930Y-80839070D01*
X162425346Y-80854976D01*
X162438134Y-80872219D01*
X162449170Y-80890632D01*
X162458349Y-80910038D01*
X162465581Y-80930250D01*
X162470797Y-80951074D01*
X162473947Y-80972309D01*
X162475000Y-80993750D01*
X162475000Y-81431250D01*
X162473947Y-81452691D01*
X162470797Y-81473926D01*
X162465581Y-81494750D01*
X162458349Y-81514962D01*
X162449170Y-81534368D01*
X162438134Y-81552781D01*
X162425346Y-81570024D01*
X162410930Y-81585930D01*
X162395024Y-81600346D01*
X162377781Y-81613134D01*
X162359368Y-81624170D01*
X162339962Y-81633349D01*
X162319750Y-81640581D01*
X162298926Y-81645797D01*
X162277691Y-81648947D01*
X162256250Y-81650000D01*
X161743750Y-81650000D01*
X161722309Y-81648947D01*
X161701074Y-81645797D01*
X161680250Y-81640581D01*
X161660038Y-81633349D01*
X161640632Y-81624170D01*
X161622219Y-81613134D01*
X161604976Y-81600346D01*
X161589070Y-81585930D01*
X161574654Y-81570024D01*
X161561866Y-81552781D01*
X161550830Y-81534368D01*
X161541651Y-81514962D01*
X161534419Y-81494750D01*
X161529203Y-81473926D01*
X161526053Y-81452691D01*
X161525000Y-81431250D01*
X161525000Y-80993750D01*
X161526053Y-80972309D01*
X161529203Y-80951074D01*
X161534419Y-80930250D01*
X161541651Y-80910038D01*
X161550830Y-80890632D01*
X161561866Y-80872219D01*
X161574654Y-80854976D01*
X161589070Y-80839070D01*
X161604976Y-80824654D01*
X161622219Y-80811866D01*
X161640632Y-80800830D01*
X161660038Y-80791651D01*
X161680250Y-80784419D01*
X161701074Y-80779203D01*
X161722309Y-80776053D01*
X161743750Y-80775000D01*
X162256250Y-80775000D01*
X162277691Y-80776053D01*
X162277691Y-80776053D01*
G37*
D11*
X162000000Y-81212500D03*
D10*
G36*
X162277691Y-82351053D02*
X162298926Y-82354203D01*
X162319750Y-82359419D01*
X162339962Y-82366651D01*
X162359368Y-82375830D01*
X162377781Y-82386866D01*
X162395024Y-82399654D01*
X162410930Y-82414070D01*
X162425346Y-82429976D01*
X162438134Y-82447219D01*
X162449170Y-82465632D01*
X162458349Y-82485038D01*
X162465581Y-82505250D01*
X162470797Y-82526074D01*
X162473947Y-82547309D01*
X162475000Y-82568750D01*
X162475000Y-83006250D01*
X162473947Y-83027691D01*
X162470797Y-83048926D01*
X162465581Y-83069750D01*
X162458349Y-83089962D01*
X162449170Y-83109368D01*
X162438134Y-83127781D01*
X162425346Y-83145024D01*
X162410930Y-83160930D01*
X162395024Y-83175346D01*
X162377781Y-83188134D01*
X162359368Y-83199170D01*
X162339962Y-83208349D01*
X162319750Y-83215581D01*
X162298926Y-83220797D01*
X162277691Y-83223947D01*
X162256250Y-83225000D01*
X161743750Y-83225000D01*
X161722309Y-83223947D01*
X161701074Y-83220797D01*
X161680250Y-83215581D01*
X161660038Y-83208349D01*
X161640632Y-83199170D01*
X161622219Y-83188134D01*
X161604976Y-83175346D01*
X161589070Y-83160930D01*
X161574654Y-83145024D01*
X161561866Y-83127781D01*
X161550830Y-83109368D01*
X161541651Y-83089962D01*
X161534419Y-83069750D01*
X161529203Y-83048926D01*
X161526053Y-83027691D01*
X161525000Y-83006250D01*
X161525000Y-82568750D01*
X161526053Y-82547309D01*
X161529203Y-82526074D01*
X161534419Y-82505250D01*
X161541651Y-82485038D01*
X161550830Y-82465632D01*
X161561866Y-82447219D01*
X161574654Y-82429976D01*
X161589070Y-82414070D01*
X161604976Y-82399654D01*
X161622219Y-82386866D01*
X161640632Y-82375830D01*
X161660038Y-82366651D01*
X161680250Y-82359419D01*
X161701074Y-82354203D01*
X161722309Y-82351053D01*
X161743750Y-82350000D01*
X162256250Y-82350000D01*
X162277691Y-82351053D01*
X162277691Y-82351053D01*
G37*
D11*
X162000000Y-82787500D03*
G04 #@! TD*
D10*
G04 #@! TO.C,R6*
G36*
X164277691Y-80776053D02*
X164298926Y-80779203D01*
X164319750Y-80784419D01*
X164339962Y-80791651D01*
X164359368Y-80800830D01*
X164377781Y-80811866D01*
X164395024Y-80824654D01*
X164410930Y-80839070D01*
X164425346Y-80854976D01*
X164438134Y-80872219D01*
X164449170Y-80890632D01*
X164458349Y-80910038D01*
X164465581Y-80930250D01*
X164470797Y-80951074D01*
X164473947Y-80972309D01*
X164475000Y-80993750D01*
X164475000Y-81431250D01*
X164473947Y-81452691D01*
X164470797Y-81473926D01*
X164465581Y-81494750D01*
X164458349Y-81514962D01*
X164449170Y-81534368D01*
X164438134Y-81552781D01*
X164425346Y-81570024D01*
X164410930Y-81585930D01*
X164395024Y-81600346D01*
X164377781Y-81613134D01*
X164359368Y-81624170D01*
X164339962Y-81633349D01*
X164319750Y-81640581D01*
X164298926Y-81645797D01*
X164277691Y-81648947D01*
X164256250Y-81650000D01*
X163743750Y-81650000D01*
X163722309Y-81648947D01*
X163701074Y-81645797D01*
X163680250Y-81640581D01*
X163660038Y-81633349D01*
X163640632Y-81624170D01*
X163622219Y-81613134D01*
X163604976Y-81600346D01*
X163589070Y-81585930D01*
X163574654Y-81570024D01*
X163561866Y-81552781D01*
X163550830Y-81534368D01*
X163541651Y-81514962D01*
X163534419Y-81494750D01*
X163529203Y-81473926D01*
X163526053Y-81452691D01*
X163525000Y-81431250D01*
X163525000Y-80993750D01*
X163526053Y-80972309D01*
X163529203Y-80951074D01*
X163534419Y-80930250D01*
X163541651Y-80910038D01*
X163550830Y-80890632D01*
X163561866Y-80872219D01*
X163574654Y-80854976D01*
X163589070Y-80839070D01*
X163604976Y-80824654D01*
X163622219Y-80811866D01*
X163640632Y-80800830D01*
X163660038Y-80791651D01*
X163680250Y-80784419D01*
X163701074Y-80779203D01*
X163722309Y-80776053D01*
X163743750Y-80775000D01*
X164256250Y-80775000D01*
X164277691Y-80776053D01*
X164277691Y-80776053D01*
G37*
D11*
X164000000Y-81212500D03*
D10*
G36*
X164277691Y-82351053D02*
X164298926Y-82354203D01*
X164319750Y-82359419D01*
X164339962Y-82366651D01*
X164359368Y-82375830D01*
X164377781Y-82386866D01*
X164395024Y-82399654D01*
X164410930Y-82414070D01*
X164425346Y-82429976D01*
X164438134Y-82447219D01*
X164449170Y-82465632D01*
X164458349Y-82485038D01*
X164465581Y-82505250D01*
X164470797Y-82526074D01*
X164473947Y-82547309D01*
X164475000Y-82568750D01*
X164475000Y-83006250D01*
X164473947Y-83027691D01*
X164470797Y-83048926D01*
X164465581Y-83069750D01*
X164458349Y-83089962D01*
X164449170Y-83109368D01*
X164438134Y-83127781D01*
X164425346Y-83145024D01*
X164410930Y-83160930D01*
X164395024Y-83175346D01*
X164377781Y-83188134D01*
X164359368Y-83199170D01*
X164339962Y-83208349D01*
X164319750Y-83215581D01*
X164298926Y-83220797D01*
X164277691Y-83223947D01*
X164256250Y-83225000D01*
X163743750Y-83225000D01*
X163722309Y-83223947D01*
X163701074Y-83220797D01*
X163680250Y-83215581D01*
X163660038Y-83208349D01*
X163640632Y-83199170D01*
X163622219Y-83188134D01*
X163604976Y-83175346D01*
X163589070Y-83160930D01*
X163574654Y-83145024D01*
X163561866Y-83127781D01*
X163550830Y-83109368D01*
X163541651Y-83089962D01*
X163534419Y-83069750D01*
X163529203Y-83048926D01*
X163526053Y-83027691D01*
X163525000Y-83006250D01*
X163525000Y-82568750D01*
X163526053Y-82547309D01*
X163529203Y-82526074D01*
X163534419Y-82505250D01*
X163541651Y-82485038D01*
X163550830Y-82465632D01*
X163561866Y-82447219D01*
X163574654Y-82429976D01*
X163589070Y-82414070D01*
X163604976Y-82399654D01*
X163622219Y-82386866D01*
X163640632Y-82375830D01*
X163660038Y-82366651D01*
X163680250Y-82359419D01*
X163701074Y-82354203D01*
X163722309Y-82351053D01*
X163743750Y-82350000D01*
X164256250Y-82350000D01*
X164277691Y-82351053D01*
X164277691Y-82351053D01*
G37*
D11*
X164000000Y-82787500D03*
G04 #@! TD*
M02*
