G04 #@! TF.GenerationSoftware,KiCad,Pcbnew,(5.0.0)*
G04 #@! TF.CreationDate,2018-08-29T17:32:18+01:00*
G04 #@! TF.ProjectId,Week5LetsTryANewIC,5765656B354C657473547279414E6577,rev?*
G04 #@! TF.SameCoordinates,Original*
G04 #@! TF.FileFunction,Copper,L2,Bot,Signal*
G04 #@! TF.FilePolarity,Positive*
%FSLAX46Y46*%
G04 Gerber Fmt 4.6, Leading zero omitted, Abs format (unit mm)*
G04 Created by KiCad (PCBNEW (5.0.0)) date 08/29/18 17:32:18*
%MOMM*%
%LPD*%
G01*
G04 APERTURE LIST*
G04 #@! TA.AperFunction,ComponentPad*
%ADD10R,1.700000X1.700000*%
G04 #@! TD*
G04 #@! TA.AperFunction,ComponentPad*
%ADD11O,1.700000X1.700000*%
G04 #@! TD*
G04 #@! TA.AperFunction,ViaPad*
%ADD12C,0.800000*%
G04 #@! TD*
G04 #@! TA.AperFunction,Conductor*
%ADD13C,0.254000*%
G04 #@! TD*
G04 #@! TA.AperFunction,Conductor*
%ADD14C,0.203200*%
G04 #@! TD*
G04 APERTURE END LIST*
D10*
G04 #@! TO.P,J1,1*
G04 #@! TO.N,VDD*
X168000000Y-67000000D03*
D11*
G04 #@! TO.P,J1,2*
G04 #@! TO.N,VDDA*
X168000000Y-69540000D03*
G04 #@! TO.P,J1,3*
G04 #@! TO.N,/SDA*
X168000000Y-72080000D03*
G04 #@! TO.P,J1,4*
G04 #@! TO.N,/SDX*
X168000000Y-74620000D03*
G04 #@! TO.P,J1,5*
G04 #@! TO.N,/SCX*
X168000000Y-77160000D03*
G04 #@! TO.P,J1,6*
G04 #@! TO.N,/CSB*
X168000000Y-79700000D03*
G04 #@! TO.P,J1,7*
G04 #@! TO.N,/INT1*
X168000000Y-82240000D03*
G04 #@! TO.P,J1,8*
G04 #@! TO.N,/INT2*
X168000000Y-84780000D03*
G04 #@! TO.P,J1,9*
G04 #@! TO.N,GND*
X168000000Y-87320000D03*
G04 #@! TD*
D12*
G04 #@! TO.N,VDD*
X157734000Y-80518000D03*
G04 #@! TO.N,GND*
X158000000Y-78000000D03*
G04 #@! TO.N,VDDA*
X165608000Y-73152000D03*
X165608000Y-76200000D03*
X160274000Y-81280000D03*
G04 #@! TO.N,/SDA*
X162052000Y-73152000D03*
X162052000Y-75438000D03*
G04 #@! TO.N,/INT1*
X155898000Y-75750000D03*
G04 #@! TO.N,/INT2*
X155702000Y-76962000D03*
G04 #@! TD*
D13*
G04 #@! TO.N,VDD*
X166896000Y-67000000D02*
X160020000Y-73876000D01*
X168000000Y-67000000D02*
X166896000Y-67000000D01*
X160020000Y-73876000D02*
X160020000Y-79502000D01*
X160020000Y-79502000D02*
X159004000Y-80518000D01*
X159004000Y-80518000D02*
X157734000Y-80518000D01*
G04 #@! TO.N,VDDA*
X165608000Y-73152000D02*
X165608000Y-76200000D01*
X165608000Y-73152000D02*
X165608000Y-70358000D01*
X166426000Y-69540000D02*
X168000000Y-69540000D01*
X165608000Y-70358000D02*
X166426000Y-69540000D01*
D14*
X165608000Y-76200000D02*
X160528000Y-81280000D01*
X160528000Y-81280000D02*
X160274000Y-81280000D01*
G04 #@! TO.N,/SDA*
X162052000Y-73152000D02*
X162052000Y-75438000D01*
G04 #@! TO.N,/INT1*
X158417630Y-82240000D02*
X156972000Y-80794370D01*
X168000000Y-82240000D02*
X158417630Y-82240000D01*
X156972000Y-76824000D02*
X155898000Y-75750000D01*
X156972000Y-80794370D02*
X156972000Y-76824000D01*
G04 #@! TO.N,/INT2*
X155702000Y-80094594D02*
X158411406Y-82804000D01*
X155702000Y-76962000D02*
X155702000Y-80094594D01*
X166024000Y-82804000D02*
X168000000Y-84780000D01*
X158411406Y-82804000D02*
X166024000Y-82804000D01*
G04 #@! TD*
D13*
G04 #@! TO.N,GND*
G36*
X155927612Y-63735000D02*
X168947636Y-63735000D01*
X169352940Y-63793044D01*
X169677504Y-63940614D01*
X169947607Y-64173350D01*
X170141532Y-64472539D01*
X170250970Y-64838479D01*
X170265000Y-65027273D01*
X170265001Y-88947629D01*
X170206956Y-89352938D01*
X170059385Y-89677504D01*
X169826650Y-89947606D01*
X169527459Y-90141532D01*
X169161525Y-90250970D01*
X168972727Y-90265000D01*
X155927612Y-90265000D01*
X155906013Y-90269296D01*
X155639973Y-90231197D01*
X155308888Y-90080661D01*
X155033361Y-89843251D01*
X154835544Y-89538056D01*
X154724300Y-89166083D01*
X154722141Y-89137033D01*
X154735000Y-89072388D01*
X154735000Y-87676890D01*
X166558524Y-87676890D01*
X166728355Y-88086924D01*
X167118642Y-88515183D01*
X167643108Y-88761486D01*
X167873000Y-88640819D01*
X167873000Y-87447000D01*
X168127000Y-87447000D01*
X168127000Y-88640819D01*
X168356892Y-88761486D01*
X168881358Y-88515183D01*
X169271645Y-88086924D01*
X169441476Y-87676890D01*
X169320155Y-87447000D01*
X168127000Y-87447000D01*
X167873000Y-87447000D01*
X166679845Y-87447000D01*
X166558524Y-87676890D01*
X154735000Y-87676890D01*
X154735000Y-77332041D01*
X154824569Y-77548280D01*
X154965400Y-77689111D01*
X154965401Y-80022049D01*
X154950971Y-80094594D01*
X155008139Y-80382000D01*
X155129849Y-80564152D01*
X155129852Y-80564155D01*
X155170943Y-80625652D01*
X155232440Y-80666743D01*
X157839257Y-83273560D01*
X157880348Y-83335058D01*
X157941845Y-83376149D01*
X157941847Y-83376151D01*
X158123999Y-83497861D01*
X158338862Y-83540600D01*
X158338865Y-83540600D01*
X158411406Y-83555029D01*
X158483946Y-83540600D01*
X165718891Y-83540600D01*
X166564281Y-84385991D01*
X166485908Y-84780000D01*
X166601161Y-85359418D01*
X166929375Y-85850625D01*
X167248478Y-86063843D01*
X167118642Y-86124817D01*
X166728355Y-86553076D01*
X166558524Y-86963110D01*
X166679845Y-87193000D01*
X167873000Y-87193000D01*
X167873000Y-87173000D01*
X168127000Y-87173000D01*
X168127000Y-87193000D01*
X169320155Y-87193000D01*
X169441476Y-86963110D01*
X169271645Y-86553076D01*
X168881358Y-86124817D01*
X168751522Y-86063843D01*
X169070625Y-85850625D01*
X169398839Y-85359418D01*
X169514092Y-84780000D01*
X169398839Y-84200582D01*
X169070625Y-83709375D01*
X168772239Y-83510000D01*
X169070625Y-83310625D01*
X169398839Y-82819418D01*
X169514092Y-82240000D01*
X169398839Y-81660582D01*
X169070625Y-81169375D01*
X168772239Y-80970000D01*
X169070625Y-80770625D01*
X169398839Y-80279418D01*
X169514092Y-79700000D01*
X169398839Y-79120582D01*
X169070625Y-78629375D01*
X168772239Y-78430000D01*
X169070625Y-78230625D01*
X169398839Y-77739418D01*
X169514092Y-77160000D01*
X169398839Y-76580582D01*
X169070625Y-76089375D01*
X168772239Y-75890000D01*
X169070625Y-75690625D01*
X169398839Y-75199418D01*
X169514092Y-74620000D01*
X169398839Y-74040582D01*
X169070625Y-73549375D01*
X168772239Y-73350000D01*
X169070625Y-73150625D01*
X169398839Y-72659418D01*
X169514092Y-72080000D01*
X169398839Y-71500582D01*
X169070625Y-71009375D01*
X168772239Y-70810000D01*
X169070625Y-70610625D01*
X169398839Y-70119418D01*
X169514092Y-69540000D01*
X169398839Y-68960582D01*
X169070625Y-68469375D01*
X169052381Y-68457184D01*
X169097765Y-68448157D01*
X169307809Y-68307809D01*
X169448157Y-68097765D01*
X169497440Y-67850000D01*
X169497440Y-66150000D01*
X169448157Y-65902235D01*
X169307809Y-65692191D01*
X169097765Y-65551843D01*
X168850000Y-65502560D01*
X167150000Y-65502560D01*
X166902235Y-65551843D01*
X166692191Y-65692191D01*
X166551843Y-65902235D01*
X166502560Y-66150000D01*
X166502560Y-66346439D01*
X166346629Y-66450629D01*
X166304116Y-66514254D01*
X159534254Y-73284116D01*
X159470629Y-73326629D01*
X159302212Y-73578684D01*
X159258000Y-73800953D01*
X159258000Y-73800957D01*
X159243073Y-73876000D01*
X159258000Y-73951043D01*
X159258001Y-79186368D01*
X158688370Y-79756000D01*
X158435711Y-79756000D01*
X158320280Y-79640569D01*
X157939874Y-79483000D01*
X157708600Y-79483000D01*
X157708600Y-76896538D01*
X157723029Y-76823999D01*
X157708600Y-76751460D01*
X157708600Y-76751456D01*
X157665861Y-76536593D01*
X157503058Y-76292942D01*
X157441558Y-76251849D01*
X156933000Y-75743291D01*
X156933000Y-75544126D01*
X156775431Y-75163720D01*
X156484280Y-74872569D01*
X156103874Y-74715000D01*
X155692126Y-74715000D01*
X155311720Y-74872569D01*
X155020569Y-75163720D01*
X154863000Y-75544126D01*
X154863000Y-75955874D01*
X154974714Y-76225575D01*
X154824569Y-76375720D01*
X154735000Y-76591959D01*
X154735000Y-64927612D01*
X154730704Y-64906013D01*
X154768803Y-64639973D01*
X154919338Y-64308890D01*
X155156749Y-64033361D01*
X155461944Y-63835544D01*
X155833917Y-63724300D01*
X155862967Y-63722141D01*
X155927612Y-63735000D01*
X155927612Y-63735000D01*
G37*
X155927612Y-63735000D02*
X168947636Y-63735000D01*
X169352940Y-63793044D01*
X169677504Y-63940614D01*
X169947607Y-64173350D01*
X170141532Y-64472539D01*
X170250970Y-64838479D01*
X170265000Y-65027273D01*
X170265001Y-88947629D01*
X170206956Y-89352938D01*
X170059385Y-89677504D01*
X169826650Y-89947606D01*
X169527459Y-90141532D01*
X169161525Y-90250970D01*
X168972727Y-90265000D01*
X155927612Y-90265000D01*
X155906013Y-90269296D01*
X155639973Y-90231197D01*
X155308888Y-90080661D01*
X155033361Y-89843251D01*
X154835544Y-89538056D01*
X154724300Y-89166083D01*
X154722141Y-89137033D01*
X154735000Y-89072388D01*
X154735000Y-87676890D01*
X166558524Y-87676890D01*
X166728355Y-88086924D01*
X167118642Y-88515183D01*
X167643108Y-88761486D01*
X167873000Y-88640819D01*
X167873000Y-87447000D01*
X168127000Y-87447000D01*
X168127000Y-88640819D01*
X168356892Y-88761486D01*
X168881358Y-88515183D01*
X169271645Y-88086924D01*
X169441476Y-87676890D01*
X169320155Y-87447000D01*
X168127000Y-87447000D01*
X167873000Y-87447000D01*
X166679845Y-87447000D01*
X166558524Y-87676890D01*
X154735000Y-87676890D01*
X154735000Y-77332041D01*
X154824569Y-77548280D01*
X154965400Y-77689111D01*
X154965401Y-80022049D01*
X154950971Y-80094594D01*
X155008139Y-80382000D01*
X155129849Y-80564152D01*
X155129852Y-80564155D01*
X155170943Y-80625652D01*
X155232440Y-80666743D01*
X157839257Y-83273560D01*
X157880348Y-83335058D01*
X157941845Y-83376149D01*
X157941847Y-83376151D01*
X158123999Y-83497861D01*
X158338862Y-83540600D01*
X158338865Y-83540600D01*
X158411406Y-83555029D01*
X158483946Y-83540600D01*
X165718891Y-83540600D01*
X166564281Y-84385991D01*
X166485908Y-84780000D01*
X166601161Y-85359418D01*
X166929375Y-85850625D01*
X167248478Y-86063843D01*
X167118642Y-86124817D01*
X166728355Y-86553076D01*
X166558524Y-86963110D01*
X166679845Y-87193000D01*
X167873000Y-87193000D01*
X167873000Y-87173000D01*
X168127000Y-87173000D01*
X168127000Y-87193000D01*
X169320155Y-87193000D01*
X169441476Y-86963110D01*
X169271645Y-86553076D01*
X168881358Y-86124817D01*
X168751522Y-86063843D01*
X169070625Y-85850625D01*
X169398839Y-85359418D01*
X169514092Y-84780000D01*
X169398839Y-84200582D01*
X169070625Y-83709375D01*
X168772239Y-83510000D01*
X169070625Y-83310625D01*
X169398839Y-82819418D01*
X169514092Y-82240000D01*
X169398839Y-81660582D01*
X169070625Y-81169375D01*
X168772239Y-80970000D01*
X169070625Y-80770625D01*
X169398839Y-80279418D01*
X169514092Y-79700000D01*
X169398839Y-79120582D01*
X169070625Y-78629375D01*
X168772239Y-78430000D01*
X169070625Y-78230625D01*
X169398839Y-77739418D01*
X169514092Y-77160000D01*
X169398839Y-76580582D01*
X169070625Y-76089375D01*
X168772239Y-75890000D01*
X169070625Y-75690625D01*
X169398839Y-75199418D01*
X169514092Y-74620000D01*
X169398839Y-74040582D01*
X169070625Y-73549375D01*
X168772239Y-73350000D01*
X169070625Y-73150625D01*
X169398839Y-72659418D01*
X169514092Y-72080000D01*
X169398839Y-71500582D01*
X169070625Y-71009375D01*
X168772239Y-70810000D01*
X169070625Y-70610625D01*
X169398839Y-70119418D01*
X169514092Y-69540000D01*
X169398839Y-68960582D01*
X169070625Y-68469375D01*
X169052381Y-68457184D01*
X169097765Y-68448157D01*
X169307809Y-68307809D01*
X169448157Y-68097765D01*
X169497440Y-67850000D01*
X169497440Y-66150000D01*
X169448157Y-65902235D01*
X169307809Y-65692191D01*
X169097765Y-65551843D01*
X168850000Y-65502560D01*
X167150000Y-65502560D01*
X166902235Y-65551843D01*
X166692191Y-65692191D01*
X166551843Y-65902235D01*
X166502560Y-66150000D01*
X166502560Y-66346439D01*
X166346629Y-66450629D01*
X166304116Y-66514254D01*
X159534254Y-73284116D01*
X159470629Y-73326629D01*
X159302212Y-73578684D01*
X159258000Y-73800953D01*
X159258000Y-73800957D01*
X159243073Y-73876000D01*
X159258000Y-73951043D01*
X159258001Y-79186368D01*
X158688370Y-79756000D01*
X158435711Y-79756000D01*
X158320280Y-79640569D01*
X157939874Y-79483000D01*
X157708600Y-79483000D01*
X157708600Y-76896538D01*
X157723029Y-76823999D01*
X157708600Y-76751460D01*
X157708600Y-76751456D01*
X157665861Y-76536593D01*
X157503058Y-76292942D01*
X157441558Y-76251849D01*
X156933000Y-75743291D01*
X156933000Y-75544126D01*
X156775431Y-75163720D01*
X156484280Y-74872569D01*
X156103874Y-74715000D01*
X155692126Y-74715000D01*
X155311720Y-74872569D01*
X155020569Y-75163720D01*
X154863000Y-75544126D01*
X154863000Y-75955874D01*
X154974714Y-76225575D01*
X154824569Y-76375720D01*
X154735000Y-76591959D01*
X154735000Y-64927612D01*
X154730704Y-64906013D01*
X154768803Y-64639973D01*
X154919338Y-64308890D01*
X155156749Y-64033361D01*
X155461944Y-63835544D01*
X155833917Y-63724300D01*
X155862967Y-63722141D01*
X155927612Y-63735000D01*
G04 #@! TD*
M02*
