<?xml version="1.0" encoding="UTF-8" standalone="no"?>
<svg
   xmlns:dc="http://purl.org/dc/elements/1.1/"
   xmlns:cc="http://creativecommons.org/ns#"
   xmlns:rdf="http://www.w3.org/1999/02/22-rdf-syntax-ns#"
   xmlns:svg="http://www.w3.org/2000/svg"
   xmlns="http://www.w3.org/2000/svg"
   xmlns:sodipodi="http://sodipodi.sourceforge.net/DTD/sodipodi-0.dtd"
   xmlns:inkscape="http://www.inkscape.org/namespaces/inkscape"
   version="1.1"
   width="4.19862cm"
   height="1.29794cm"
   viewBox="0 0 16530 5110 "
   id="svg148"
   sodipodi:docname="CHARLIE-brd.svg"
   inkscape:version="0.92.2 (5c3e80d, 2017-08-06)">
  <metadata
     id="metadata154">
    <rdf:RDF>
      <cc:Work
         rdf:about="">
        <dc:format>image/svg+xml</dc:format>
        <dc:type
           rdf:resource="http://purl.org/dc/dcmitype/StillImage" />
      </cc:Work>
    </rdf:RDF>
  </metadata>
  <defs
     id="defs152" />
  <sodipodi:namedview
     pagecolor="#ffffff"
     bordercolor="#666666"
     borderopacity="1"
     objecttolerance="10"
     gridtolerance="10"
     guidetolerance="10"
     inkscape:pageopacity="0"
     inkscape:pageshadow="2"
     inkscape:window-width="1957"
     inkscape:window-height="978"
     id="namedview150"
     showgrid="false"
     inkscape:zoom="6.8075939"
     inkscape:cx="88.06353"
     inkscape:cy="15.057327"
     inkscape:window-x="0"
     inkscape:window-y="0"
     inkscape:window-maximized="0"
     inkscape:current-layer="svg148" />
  <title
     id="title2">SVG Picture created as CHARLIE-brd.svg date 2018/07/30 16:47:17 </title>
  <desc
     id="desc4">Picture generated by PCBNEW </desc>
  <g
     style="fill:none;fill-opacity:1;stroke:#c2c200;stroke-width:59.0551;stroke-opacity:1;stroke-linecap:round;stroke-linejoin:round"
     id="g146"
     inkscape:export-xdpi="800"
     inkscape:export-ydpi="800">
    <path
       d="m 15354,393 h -1181 v 0 H 1181 l 0.1,0.701 C 972.26904,393.7018 771.99149,476.65992 624.32571,624.32571 476.65992,771.99149 393.7018,972.26904 393.701,1181.1 L 393,1181 v 2756 l 0.701,0.01 c 5.3e-4,208.8311 82.95854,409.1089 230.62435,556.7749 147.66582,147.666 347.94352,230.6243 556.77465,230.6251 L 1181,4724 h 12992 v 0 h 1181 l 0.3,0.41 c 208.831,-5e-4 409.109,-82.9587 556.775,-230.6247 147.666,-147.666 230.624,-347.944 230.625,-556.7753 L 16141,3937 V 1181 l 0.7,0.1 c -0,-208.83113 -82.959,-409.10883 -230.625,-556.77465 C 15763.409,476.65954 15563.131,393.70153 15354.3,393.701 Z"
       id="path128"
       style="fill:#000000;fill-opacity:1;stroke:#c2c200;stroke-opacity:1"
       inkscape:connector-curvature="0"
       sodipodi:nodetypes="cccccsccccsccccccsccccscc" />
  </g>
  <g
     id="g4806"
     transform="translate(9842.5,0.25)"
     inkscape:export-xdpi="800"
     inkscape:export-ydpi="800"
     style="fill:#ffffff;fill-opacity:0;stroke:#c2c200;stroke-opacity:1">
    <rect
       style="fill:#ffffff;fill-opacity:1;stroke:#c2c200;stroke-width:10.41666698;stroke-miterlimit:4;stroke-dasharray:none;stroke-opacity:1"
       id="rect4802"
       width="1729.074"
       height="1499.5509"
       x="945.96301"
       y="2674.7246"
       ry="489.64929"
       rx="489.64929" />
    <rect
       rx="489.64929"
       ry="489.64929"
       y="1100.2245"
       x="945.96301"
       height="1499.5509"
       width="1729.074"
       id="rect4804"
       style="fill:#ffffff;fill-opacity:1;stroke:#c2c200;stroke-width:10.41666698;stroke-miterlimit:4;stroke-dasharray:none;stroke-opacity:1" />
  </g>
  <g
     transform="translate(7874,0.25)"
     id="g4788"
     inkscape:export-xdpi="800"
     inkscape:export-ydpi="800"
     style="fill:#ffffff;fill-opacity:0;stroke:#c2c200;stroke-opacity:1">
    <rect
       rx="489.64929"
       ry="489.64929"
       y="2674.7246"
       x="945.96301"
       height="1499.5509"
       width="1729.074"
       id="rect4784"
       style="fill:#ffffff;fill-opacity:1;stroke:#c2c200;stroke-width:10.41666698;stroke-miterlimit:4;stroke-dasharray:none;stroke-opacity:1" />
    <rect
       style="fill:#ffffff;fill-opacity:1;stroke:#c2c200;stroke-width:10.41666698;stroke-miterlimit:4;stroke-dasharray:none;stroke-opacity:1"
       id="rect4786"
       width="1729.074"
       height="1499.5509"
       x="945.96301"
       y="1100.2245"
       ry="489.64929"
       rx="489.64929" />
  </g>
  <g
     id="g4782"
     transform="translate(5905.5,0.25)"
     inkscape:export-xdpi="800"
     inkscape:export-ydpi="800"
     style="fill:#ffffff;fill-opacity:0;stroke:#c2c200;stroke-opacity:1">
    <rect
       style="fill:#ffffff;fill-opacity:1;stroke:#c2c200;stroke-width:10.41666698;stroke-miterlimit:4;stroke-dasharray:none;stroke-opacity:1"
       id="rect4778"
       width="1729.074"
       height="1499.5509"
       x="945.96301"
       y="2674.7246"
       ry="489.64929"
       rx="489.64929" />
    <rect
       rx="489.64929"
       ry="489.64929"
       y="1100.2245"
       x="945.96301"
       height="1499.5509"
       width="1729.074"
       id="rect4780"
       style="fill:#ffffff;fill-opacity:1;stroke:#c2c200;stroke-width:10.41666698;stroke-miterlimit:4;stroke-dasharray:none;stroke-opacity:1" />
  </g>
  <g
     transform="translate(3937,0.25)"
     id="g4776"
     inkscape:export-xdpi="800"
     inkscape:export-ydpi="800"
     style="fill:#ffffff;fill-opacity:0;stroke:#c2c200;stroke-opacity:1">
    <rect
       rx="489.64929"
       ry="489.64929"
       y="2674.7246"
       x="945.96301"
       height="1499.5509"
       width="1729.074"
       id="rect4772"
       style="fill:#ffffff;fill-opacity:1;stroke:#c2c200;stroke-width:10.41666698;stroke-miterlimit:4;stroke-dasharray:none;stroke-opacity:1" />
    <rect
       style="fill:#ffffff;fill-opacity:1;stroke:#c2c200;stroke-width:10.41666698;stroke-miterlimit:4;stroke-dasharray:none;stroke-opacity:1"
       id="rect4774"
       width="1729.074"
       height="1499.5509"
       x="945.96301"
       y="1100.2245"
       ry="489.64929"
       rx="489.64929" />
  </g>
  <g
     id="g4762"
     inkscape:export-xdpi="800"
     inkscape:export-ydpi="800"
     style="fill:#ffffff;fill-opacity:0;stroke:#c2c200;stroke-opacity:1">
    <rect
       rx="489.64929"
       ry="489.64929"
       y="2674.7246"
       x="945.96301"
       height="1499.5509"
       width="1729.074"
       id="rect4758"
       style="fill:#ffffff;fill-opacity:1;stroke:#c2c200;stroke-width:10.41666698;stroke-miterlimit:4;stroke-dasharray:none;stroke-opacity:1" />
    <rect
       style="fill:#ffffff;fill-opacity:1;stroke:#c2c200;stroke-width:10.41666698;stroke-miterlimit:4;stroke-dasharray:none;stroke-opacity:1"
       id="rect4760"
       width="1729.074"
       height="1499.5509"
       x="945.96301"
       y="1100.2245"
       ry="489.64929"
       rx="489.64929" />
  </g>
  <g
     id="g4756"
     transform="translate(1968.5)"
     inkscape:export-xdpi="800"
     inkscape:export-ydpi="800"
     style="fill:#ffffff;fill-opacity:0;stroke:#c2c200;stroke-opacity:1">
    <rect
       style="fill:#ffffff;fill-opacity:1;stroke:#c2c200;stroke-width:10.41666698;stroke-miterlimit:4;stroke-dasharray:none;stroke-opacity:1"
       id="rect4713"
       width="1729.074"
       height="1499.5509"
       x="945.96301"
       y="2674.7246"
       ry="489.64929"
       rx="489.64929" />
    <rect
       rx="489.64929"
       ry="489.64929"
       y="1100.2245"
       x="945.96301"
       height="1499.5509"
       width="1729.074"
       id="rect4681"
       style="fill:#ffffff;fill-opacity:1;stroke:#c2c200;stroke-width:10.41666698;stroke-miterlimit:4;stroke-dasharray:none;stroke-opacity:1" />
  </g>
  <g
     style="fill:#000000; fill-opacity:1;stroke:#000000; stroke-opacity:1; stroke-linecap:round; stroke-linejoin:round; "
     transform="translate(0 0) scale(1 1)"
     id="g6" />
  <g
     style="fill:#000000; fill-opacity:0.0;  stroke:#000000; stroke-width:-0.000393701; stroke-opacity:1;  stroke-linecap:round; stroke-linejoin:round;"
     id="g8" />
  <g
     style="fill:#848400; fill-opacity:0.0;  stroke:#848400; stroke-width:-0.000393701; stroke-opacity:1;  stroke-linecap:round; stroke-linejoin:round;"
     id="g10" />
  <g
     style="fill:#848400; fill-opacity:0.0;  stroke:#848400; stroke-width:0; stroke-opacity:1;  stroke-linecap:round; stroke-linejoin:round;"
     id="g12" />
  <g
     style="fill:#848400; fill-opacity:1.0;  stroke:#848400; stroke-width:0; stroke-opacity:1;  stroke-linecap:round; stroke-linejoin:round;"
     id="g16"
     inkscape:export-xdpi="800"
     inkscape:export-ydpi="800">
    <polyline
       style="fill-rule:evenodd;"
       points="14783,1476 14783,649 15610,649 15610,1476 14783,1476 "
       id="polyline14" />
  </g>
  <g
     style="fill:#848400; fill-opacity:1.0;  stroke:#848400; stroke-width:826.772; stroke-opacity:1;  stroke-linecap:round; stroke-linejoin:round;"
     id="g18" />
  <g
     style="fill:#848400; fill-opacity:0.0;  stroke:#848400; stroke-width:826.772; stroke-opacity:1;  stroke-linecap:round; stroke-linejoin:round;"
     id="g26"
     inkscape:export-xdpi="800"
     inkscape:export-ydpi="800">
    <path
       d="M15196 2062 L15196 2062 "
       id="path20" />
    <path
       d="M15196 3062 L15196 3062 "
       id="path22" />
    <path
       d="M15196 4062 L15196 4062 "
       id="path24" />
  </g>
  <g
     style="fill:#000000; fill-opacity:0.0;  stroke:#000000; stroke-width:826.772; stroke-opacity:1;  stroke-linecap:round; stroke-linejoin:round;"
     id="g28" />
  <g
     style="fill:#840000; fill-opacity:0.0;  stroke:#840000; stroke-width:826.772; stroke-opacity:1;  stroke-linecap:round; stroke-linejoin:round;"
     id="g30" />
  <g
     style="fill:#840000; fill-opacity:0.0;  stroke:#840000; stroke-width:0; stroke-opacity:1;  stroke-linecap:round; stroke-linejoin:round;"
     id="g32" />
  <g
     id="g4794"
     inkscape:export-xdpi="800"
     inkscape:export-ydpi="800">
    <polyline
       style="fill:#840000;fill-opacity:1;fill-rule:evenodd;stroke:#840000;stroke-width:0;stroke-linecap:round;stroke-linejoin:round;stroke-opacity:1"
       points="9464,1496 9477,1498 9490,1501 9503,1506 9515,1512 9526,1518 9537,1526 9546,1535 9555,1545 9563,1556 9570,1567 9576,1579 9580,1592 9584,1604 9585,1618 9586,1631 9586,2069 9585,2082 9584,2095 9580,2108 9576,2121 9570,2133 9563,2144 9555,2155 9546,2165 9537,2174 9526,2181 9515,2188 9503,2194 9490,2198 9477,2202 9464,2204 9451,2204 9180,2204 9167,2204 9154,2202 9141,2198 9128,2194 9116,2188 9105,2181 9094,2174 9084,2165 9075,2155 9068,2144 9061,2133 9055,2121 9051,2108 9047,2095 9045,2082 9045,2069 9045,1631 9045,1618 9047,1604 9051,1592 9055,1579 9061,1567 9068,1556 9075,1545 9084,1535 9094,1526 9105,1518 9116,1512 9128,1506 9141,1501 9154,1498 9167,1496 9180,1496 9451,1496 9464,1496 "
       id="polyline34" />
    <polyline
       style="fill:#840000;fill-opacity:1;fill-rule:evenodd;stroke:#840000;stroke-width:0;stroke-linecap:round;stroke-linejoin:round;stroke-opacity:1"
       points="10202,1496 10215,1498 10228,1501 10241,1506 10253,1512 10264,1518 10275,1526 10285,1535 10294,1545 10301,1556 10308,1567 10314,1579 10318,1592 10322,1604 10324,1618 10324,1631 10324,2069 10324,2082 10322,2095 10318,2108 10314,2121 10308,2133 10301,2144 10294,2155 10285,2165 10275,2174 10264,2181 10253,2188 10241,2194 10228,2198 10215,2202 10202,2204 10189,2204 9918,2204 9905,2204 9892,2202 9879,2198 9867,2194 9855,2188 9843,2181 9832,2174 9823,2165 9814,2155 9806,2144 9799,2133 9793,2121 9789,2108 9786,2095 9784,2082 9783,2069 9783,1631 9784,1618 9786,1604 9789,1592 9793,1579 9799,1567 9806,1556 9814,1545 9823,1535 9832,1526 9843,1518 9855,1512 9867,1506 9879,1501 9892,1498 9905,1496 9918,1496 10189,1496 10202,1496 "
       id="polyline36" />
    <polyline
       style="fill:#840000;fill-opacity:1;fill-rule:evenodd;stroke:#840000;stroke-width:0;stroke-linecap:round;stroke-linejoin:round;stroke-opacity:1"
       points="10202,3071 10215,3073 10228,3076 10241,3081 10253,3086 10264,3093 10275,3101 10285,3110 10294,3120 10301,3131 10308,3142 10314,3154 10318,3166 10322,3179 10324,3192 10324,3206 10324,3644 10324,3657 10322,3670 10318,3683 10314,3695 10308,3707 10301,3719 10294,3730 10285,3739 10275,3748 10264,3756 10253,3763 10241,3769 10228,3773 10215,3776 10202,3778 10189,3779 9918,3779 9905,3778 9892,3776 9879,3773 9867,3769 9855,3763 9843,3756 9832,3748 9823,3739 9814,3730 9806,3719 9799,3707 9793,3695 9789,3683 9786,3670 9784,3657 9783,3644 9783,3206 9784,3192 9786,3179 9789,3166 9793,3154 9799,3142 9806,3131 9814,3120 9823,3110 9832,3101 9843,3093 9855,3086 9867,3081 9879,3076 9892,3073 9905,3071 9918,3070 10189,3070 10202,3071 "
       id="polyline38" />
    <polyline
       style="fill:#840000;fill-opacity:1;fill-rule:evenodd;stroke:#840000;stroke-width:0;stroke-linecap:round;stroke-linejoin:round;stroke-opacity:1"
       points="9464,3071 9477,3073 9490,3076 9503,3081 9515,3086 9526,3093 9537,3101 9546,3110 9555,3120 9563,3131 9570,3142 9576,3154 9580,3166 9584,3179 9585,3192 9586,3206 9586,3644 9585,3657 9584,3670 9580,3683 9576,3695 9570,3707 9563,3719 9555,3730 9546,3739 9537,3748 9526,3756 9515,3763 9503,3769 9490,3773 9477,3776 9464,3778 9451,3779 9180,3779 9167,3778 9154,3776 9141,3773 9128,3769 9116,3763 9105,3756 9094,3748 9084,3739 9075,3730 9068,3719 9061,3707 9055,3695 9051,3683 9047,3670 9045,3657 9045,3644 9045,3206 9045,3192 9047,3179 9051,3166 9055,3154 9061,3142 9068,3131 9075,3120 9084,3110 9094,3101 9105,3093 9116,3086 9128,3081 9141,3076 9154,3073 9167,3071 9180,3070 9451,3070 9464,3071 "
       id="polyline40" />
  </g>
  <g
     id="g4800"
     inkscape:export-xdpi="800"
     inkscape:export-ydpi="800">
    <polyline
       style="fill:#840000;fill-opacity:1;fill-rule:evenodd;stroke:#840000;stroke-width:0;stroke-linecap:round;stroke-linejoin:round;stroke-opacity:1"
       points="11433,1496 11446,1498 11459,1501 11471,1506 11483,1512 11494,1518 11505,1526 11515,1535 11524,1545 11532,1556 11539,1567 11544,1579 11549,1592 11552,1604 11554,1618 11555,1631 11555,2069 11554,2082 11552,2095 11549,2108 11544,2121 11539,2133 11532,2144 11524,2155 11515,2165 11505,2174 11494,2181 11483,2188 11471,2194 11459,2198 11446,2202 11433,2204 11419,2204 11149,2204 11135,2204 11122,2202 11109,2198 11097,2194 11085,2188 11073,2181 11063,2174 11053,2165 11044,2155 11036,2144 11029,2133 11024,2121 11019,2108 11016,2095 11014,2082 11013,2069 11013,1631 11014,1618 11016,1604 11019,1592 11024,1579 11029,1567 11036,1556 11044,1545 11053,1535 11063,1526 11073,1518 11085,1512 11097,1506 11109,1501 11122,1498 11135,1496 11149,1496 11419,1496 11433,1496 "
       id="polyline42" />
    <polyline
       style="fill:#840000;fill-opacity:1;fill-rule:evenodd;stroke:#840000;stroke-width:0;stroke-linecap:round;stroke-linejoin:round;stroke-opacity:1"
       points="12171,1496 12184,1498 12197,1501 12209,1506 12221,1512 12233,1518 12243,1526 12253,1535 12262,1545 12270,1556 12277,1567 12283,1579 12287,1592 12290,1604 12292,1618 12293,1631 12293,2069 12292,2082 12290,2095 12287,2108 12283,2121 12277,2133 12270,2144 12262,2155 12253,2165 12243,2174 12233,2181 12221,2188 12209,2194 12197,2198 12184,2202 12171,2204 12157,2204 11887,2204 11874,2204 11860,2202 11848,2198 11835,2194 11823,2188 11812,2181 11801,2174 11791,2165 11782,2155 11774,2144 11767,2133 11762,2121 11757,2108 11754,2095 11752,2082 11751,2069 11751,1631 11752,1618 11754,1604 11757,1592 11762,1579 11767,1567 11774,1556 11782,1545 11791,1535 11801,1526 11812,1518 11823,1512 11835,1506 11848,1501 11860,1498 11874,1496 11887,1496 12157,1496 12171,1496 "
       id="polyline44" />
    <polyline
       style="fill:#840000;fill-opacity:1;fill-rule:evenodd;stroke:#840000;stroke-width:0;stroke-linecap:round;stroke-linejoin:round;stroke-opacity:1"
       points="12171,3071 12184,3073 12197,3076 12209,3081 12221,3086 12233,3093 12243,3101 12253,3110 12262,3120 12270,3131 12277,3142 12283,3154 12287,3166 12290,3179 12292,3192 12293,3206 12293,3644 12292,3657 12290,3670 12287,3683 12283,3695 12277,3707 12270,3719 12262,3730 12253,3739 12243,3748 12233,3756 12221,3763 12209,3769 12197,3773 12184,3776 12171,3778 12157,3779 11887,3779 11874,3778 11860,3776 11848,3773 11835,3769 11823,3763 11812,3756 11801,3748 11791,3739 11782,3730 11774,3719 11767,3707 11762,3695 11757,3683 11754,3670 11752,3657 11751,3644 11751,3206 11752,3192 11754,3179 11757,3166 11762,3154 11767,3142 11774,3131 11782,3120 11791,3110 11801,3101 11812,3093 11823,3086 11835,3081 11848,3076 11860,3073 11874,3071 11887,3070 12157,3070 12171,3071 "
       id="polyline46" />
    <polyline
       style="fill:#840000;fill-opacity:1;fill-rule:evenodd;stroke:#840000;stroke-width:0;stroke-linecap:round;stroke-linejoin:round;stroke-opacity:1"
       points="11433,3071 11446,3073 11459,3076 11471,3081 11483,3086 11494,3093 11505,3101 11515,3110 11524,3120 11532,3131 11539,3142 11544,3154 11549,3166 11552,3179 11554,3192 11555,3206 11555,3644 11554,3657 11552,3670 11549,3683 11544,3695 11539,3707 11532,3719 11524,3730 11515,3739 11505,3748 11494,3756 11483,3763 11471,3769 11459,3773 11446,3776 11433,3778 11419,3779 11149,3779 11135,3778 11122,3776 11109,3773 11097,3769 11085,3763 11073,3756 11063,3748 11053,3739 11044,3730 11036,3719 11029,3707 11024,3695 11019,3683 11016,3670 11014,3657 11013,3644 11013,3206 11014,3192 11016,3179 11019,3166 11024,3154 11029,3142 11036,3131 11044,3120 11053,3110 11063,3101 11073,3093 11085,3086 11097,3081 11109,3076 11122,3073 11135,3071 11149,3070 11419,3070 11433,3071 "
       id="polyline48" />
  </g>
  <g
     id="g4770"
     inkscape:export-xdpi="800"
     inkscape:export-ydpi="800">
    <g
       id="g4711">
      <polyline
         id="polyline50"
         points="1590,1496 1603,1498 1616,1501 1629,1506 1641,1512 1652,1518 1663,1526 1672,1535 1681,1545 1689,1556 1696,1567 1702,1579 1706,1592 1709,1604 1711,1618 1712,1631 1712,2069 1711,2082 1709,2095 1706,2108 1702,2121 1696,2133 1689,2144 1681,2155 1672,2165 1663,2174 1652,2181 1641,2188 1629,2194 1616,2198 1603,2202 1590,2204 1577,2204 1306,2204 1293,2204 1280,2202 1267,2198 1254,2194 1242,2188 1231,2181 1220,2174 1210,2165 1201,2155 1194,2144 1187,2133 1181,2121 1177,2108 1173,2095 1171,2082 1171,2069 1171,1631 1171,1618 1173,1604 1177,1592 1181,1579 1187,1567 1194,1556 1201,1545 1210,1535 1220,1526 1231,1518 1242,1512 1254,1506 1267,1501 1280,1498 1293,1496 1306,1496 1577,1496 1590,1496 "
         style="fill:#840000;fill-opacity:1;fill-rule:evenodd;stroke:#840000;stroke-width:0;stroke-linecap:round;stroke-linejoin:round;stroke-opacity:1" />
      <polyline
         id="polyline52"
         points="2328,1496 2341,1498 2354,1501 2367,1506 2379,1512 2390,1518 2401,1526 2411,1535 2420,1545 2427,1556 2434,1567 2440,1579 2444,1592 2448,1604 2450,1618 2450,1631 2450,2069 2450,2082 2448,2095 2444,2108 2440,2121 2434,2133 2427,2144 2420,2155 2411,2165 2401,2174 2390,2181 2379,2188 2367,2194 2354,2198 2341,2202 2328,2204 2315,2204 2044,2204 2031,2204 2018,2202 2005,2198 1992,2194 1980,2188 1969,2181 1958,2174 1949,2165 1940,2155 1932,2144 1925,2133 1919,2121 1915,2108 1912,2095 1910,2082 1909,2069 1909,1631 1910,1618 1912,1604 1915,1592 1919,1579 1925,1567 1932,1556 1940,1545 1949,1535 1958,1526 1969,1518 1980,1512 1992,1506 2005,1501 2018,1498 2031,1496 2044,1496 2315,1496 2328,1496 "
         style="fill:#840000;fill-opacity:1;fill-rule:evenodd;stroke:#840000;stroke-width:0;stroke-linecap:round;stroke-linejoin:round;stroke-opacity:1" />
    </g>
    <g
       id="g4717">
      <polyline
         id="polyline54"
         points="1590,3071 1603,3073 1616,3076 1629,3081 1641,3086 1652,3093 1663,3101 1672,3110 1681,3120 1689,3131 1696,3142 1702,3154 1706,3166 1709,3179 1711,3192 1712,3206 1712,3644 1711,3657 1709,3670 1706,3683 1702,3695 1696,3707 1689,3719 1681,3730 1672,3739 1663,3748 1652,3756 1641,3763 1629,3769 1616,3773 1603,3776 1590,3778 1577,3779 1306,3779 1293,3778 1280,3776 1267,3773 1254,3769 1242,3763 1231,3756 1220,3748 1210,3739 1201,3730 1194,3719 1187,3707 1181,3695 1177,3683 1173,3670 1171,3657 1171,3644 1171,3206 1171,3192 1173,3179 1177,3166 1181,3154 1187,3142 1194,3131 1201,3120 1210,3110 1220,3101 1231,3093 1242,3086 1254,3081 1267,3076 1280,3073 1293,3071 1306,3070 1577,3070 1590,3071 "
         style="fill:#840000;fill-opacity:1;fill-rule:evenodd;stroke:#840000;stroke-width:0;stroke-linecap:round;stroke-linejoin:round;stroke-opacity:1" />
      <polyline
         id="polyline56"
         points="2328,3071 2341,3073 2354,3076 2367,3081 2379,3086 2390,3093 2401,3101 2411,3110 2420,3120 2427,3131 2434,3142 2440,3154 2444,3166 2448,3179 2450,3192 2450,3206 2450,3644 2450,3657 2448,3670 2444,3683 2440,3695 2434,3707 2427,3719 2420,3730 2411,3739 2401,3748 2390,3756 2379,3763 2367,3769 2354,3773 2341,3776 2328,3778 2315,3779 2044,3779 2031,3778 2018,3776 2005,3773 1992,3769 1980,3763 1969,3756 1958,3748 1949,3739 1940,3730 1932,3719 1925,3707 1919,3695 1915,3683 1912,3670 1910,3657 1909,3644 1909,3206 1910,3192 1912,3179 1915,3166 1919,3154 1925,3142 1932,3131 1940,3120 1949,3110 1958,3101 1969,3093 1980,3086 1992,3081 2005,3076 2018,3073 2031,3071 2044,3070 2315,3070 2328,3071 "
         style="fill:#840000;fill-opacity:1;fill-rule:evenodd;stroke:#840000;stroke-width:0;stroke-linecap:round;stroke-linejoin:round;stroke-opacity:1" />
    </g>
  </g>
  <g
     id="g4752"
     inkscape:export-xdpi="800"
     inkscape:export-ydpi="800">
    <g
       id="g4721">
      <polyline
         id="polyline58"
         points="4297,1496 4310,1498 4323,1501 4335,1506 4347,1512 4359,1518 4369,1526 4379,1535 4388,1545 4396,1556 4403,1567 4408,1579 4413,1592 4416,1604 4418,1618 4419,1631 4419,2069 4418,2082 4416,2095 4413,2108 4408,2121 4403,2133 4396,2144 4388,2155 4379,2165 4369,2174 4359,2181 4347,2188 4335,2194 4323,2198 4310,2202 4297,2204 4283,2204 4013,2204 4000,2204 3986,2202 3974,2198 3961,2194 3949,2188 3938,2181 3927,2174 3917,2165 3908,2155 3900,2144 3893,2133 3888,2121 3883,2108 3880,2095 3878,2082 3877,2069 3877,1631 3878,1618 3880,1604 3883,1592 3888,1579 3893,1567 3900,1556 3908,1545 3917,1535 3927,1526 3938,1518 3949,1512 3961,1506 3974,1501 3986,1498 4000,1496 4013,1496 4283,1496 4297,1496 "
         style="fill:#840000;fill-opacity:1;fill-rule:evenodd;stroke:#840000;stroke-width:0;stroke-linecap:round;stroke-linejoin:round;stroke-opacity:1" />
      <polyline
         id="polyline60"
         points="3559,1496 3572,1498 3585,1501 3597,1506 3609,1512 3620,1518 3631,1526 3641,1535 3650,1545 3658,1556 3665,1567 3670,1579 3675,1592 3678,1604 3680,1618 3681,1631 3681,2069 3680,2082 3678,2095 3675,2108 3670,2121 3665,2133 3658,2144 3650,2155 3641,2165 3631,2174 3620,2181 3609,2188 3597,2194 3585,2198 3572,2202 3559,2204 3545,2204 3275,2204 3261,2204 3248,2202 3235,2198 3223,2194 3211,2188 3199,2181 3189,2174 3179,2165 3170,2155 3162,2144 3155,2133 3150,2121 3145,2108 3142,2095 3140,2082 3139,2069 3139,1631 3140,1618 3142,1604 3145,1592 3150,1579 3155,1567 3162,1556 3170,1545 3179,1535 3189,1526 3199,1518 3211,1512 3223,1506 3235,1501 3248,1498 3261,1496 3275,1496 3545,1496 3559,1496 "
         style="fill:#840000;fill-opacity:1;fill-rule:evenodd;stroke:#840000;stroke-width:0;stroke-linecap:round;stroke-linejoin:round;stroke-opacity:1" />
    </g>
    <polyline
       style="fill:#840000;fill-opacity:1;fill-rule:evenodd;stroke:#840000;stroke-width:0;stroke-linecap:round;stroke-linejoin:round;stroke-opacity:1"
       points="4297,3071 4310,3073 4323,3076 4335,3081 4347,3086 4359,3093 4369,3101 4379,3110 4388,3120 4396,3131 4403,3142 4408,3154 4413,3166 4416,3179 4418,3192 4419,3206 4419,3644 4418,3657 4416,3670 4413,3683 4408,3695 4403,3707 4396,3719 4388,3730 4379,3739 4369,3748 4359,3756 4347,3763 4335,3769 4323,3773 4310,3776 4297,3778 4283,3779 4013,3779 4000,3778 3986,3776 3974,3773 3961,3769 3949,3763 3938,3756 3927,3748 3917,3739 3908,3730 3900,3719 3893,3707 3888,3695 3883,3683 3880,3670 3878,3657 3877,3644 3877,3206 3878,3192 3880,3179 3883,3166 3888,3154 3893,3142 3900,3131 3908,3120 3917,3110 3927,3101 3938,3093 3949,3086 3961,3081 3974,3076 3986,3073 4000,3071 4013,3070 4283,3070 4297,3071 "
       id="polyline62" />
    <polyline
       style="fill:#840000;fill-opacity:1;fill-rule:evenodd;stroke:#840000;stroke-width:0;stroke-linecap:round;stroke-linejoin:round;stroke-opacity:1"
       points="3559,3071 3572,3073 3585,3076 3597,3081 3609,3086 3620,3093 3631,3101 3641,3110 3650,3120 3658,3131 3665,3142 3670,3154 3675,3166 3678,3179 3680,3192 3681,3206 3681,3644 3680,3657 3678,3670 3675,3683 3670,3695 3665,3707 3658,3719 3650,3730 3641,3739 3631,3748 3620,3756 3609,3763 3597,3769 3585,3773 3572,3776 3559,3778 3545,3779 3275,3779 3261,3778 3248,3776 3235,3773 3223,3769 3211,3763 3199,3756 3189,3748 3179,3739 3170,3730 3162,3719 3155,3707 3150,3695 3145,3683 3142,3670 3140,3657 3139,3644 3139,3206 3140,3192 3142,3179 3145,3166 3150,3154 3155,3142 3162,3131 3170,3120 3179,3110 3189,3101 3199,3093 3211,3086 3223,3081 3235,3076 3248,3073 3261,3071 3275,3070 3545,3070 3559,3071 "
       id="polyline64" />
  </g>
  <g
     id="g4745"
     inkscape:export-xdpi="800"
     inkscape:export-ydpi="800">
    <g
       id="g4732">
      <polyline
         id="polyline66"
         points="5527,1496 5540,1498 5553,1501 5566,1506 5578,1512 5589,1518 5600,1526 5609,1535 5618,1545 5626,1556 5633,1567 5639,1579 5643,1592 5647,1604 5648,1618 5649,1631 5649,2069 5648,2082 5647,2095 5643,2108 5639,2121 5633,2133 5626,2144 5618,2155 5609,2165 5600,2174 5589,2181 5578,2188 5566,2194 5553,2198 5540,2202 5527,2204 5514,2204 5243,2204 5230,2204 5217,2202 5204,2198 5191,2194 5179,2188 5168,2181 5157,2174 5147,2165 5138,2155 5131,2144 5124,2133 5118,2121 5114,2108 5110,2095 5108,2082 5108,2069 5108,1631 5108,1618 5110,1604 5114,1592 5118,1579 5124,1567 5131,1556 5138,1545 5147,1535 5157,1526 5168,1518 5179,1512 5191,1506 5204,1501 5217,1498 5230,1496 5243,1496 5514,1496 5527,1496 "
         style="fill:#840000;fill-opacity:1;fill-rule:evenodd;stroke:#840000;stroke-width:0;stroke-linecap:round;stroke-linejoin:round;stroke-opacity:1" />
      <polyline
         id="polyline68"
         points="6265,1496 6278,1498 6291,1501 6304,1506 6316,1512 6327,1518 6338,1526 6348,1535 6357,1545 6364,1556 6371,1567 6377,1579 6381,1592 6385,1604 6387,1618 6387,1631 6387,2069 6387,2082 6385,2095 6381,2108 6377,2121 6371,2133 6364,2144 6357,2155 6348,2165 6338,2174 6327,2181 6316,2188 6304,2194 6291,2198 6278,2202 6265,2204 6252,2204 5981,2204 5968,2204 5955,2202 5942,2198 5930,2194 5917,2188 5906,2181 5895,2174 5886,2165 5877,2155 5869,2144 5862,2133 5856,2121 5852,2108 5849,2095 5847,2082 5846,2069 5846,1631 5847,1618 5849,1604 5852,1592 5856,1579 5862,1567 5869,1556 5877,1545 5886,1535 5895,1526 5906,1518 5917,1512 5930,1506 5942,1501 5955,1498 5968,1496 5981,1496 6252,1496 6265,1496 "
         style="fill:#840000;fill-opacity:1;fill-rule:evenodd;stroke:#840000;stroke-width:0;stroke-linecap:round;stroke-linejoin:round;stroke-opacity:1" />
    </g>
    <polyline
       style="fill:#840000;fill-opacity:1;fill-rule:evenodd;stroke:#840000;stroke-width:0;stroke-linecap:round;stroke-linejoin:round;stroke-opacity:1"
       points="6265,3071 6278,3073 6291,3076 6304,3081 6316,3086 6327,3093 6338,3101 6348,3110 6357,3120 6364,3131 6371,3142 6377,3154 6381,3166 6385,3179 6387,3192 6387,3206 6387,3644 6387,3657 6385,3670 6381,3683 6377,3695 6371,3707 6364,3719 6357,3730 6348,3739 6338,3748 6327,3756 6316,3763 6304,3769 6291,3773 6278,3776 6265,3778 6252,3779 5981,3779 5968,3778 5955,3776 5942,3773 5930,3769 5917,3763 5906,3756 5895,3748 5886,3739 5877,3730 5869,3719 5862,3707 5856,3695 5852,3683 5849,3670 5847,3657 5846,3644 5846,3206 5847,3192 5849,3179 5852,3166 5856,3154 5862,3142 5869,3131 5877,3120 5886,3110 5895,3101 5906,3093 5917,3086 5930,3081 5942,3076 5955,3073 5968,3071 5981,3070 6252,3070 6265,3071 "
       id="polyline70" />
    <polyline
       style="fill:#840000;fill-opacity:1;fill-rule:evenodd;stroke:#840000;stroke-width:0;stroke-linecap:round;stroke-linejoin:round;stroke-opacity:1"
       points="5527,3071 5540,3073 5553,3076 5566,3081 5578,3086 5589,3093 5600,3101 5609,3110 5618,3120 5626,3131 5633,3142 5639,3154 5643,3166 5647,3179 5648,3192 5649,3206 5649,3644 5648,3657 5647,3670 5643,3683 5639,3695 5633,3707 5626,3719 5618,3730 5609,3739 5600,3748 5589,3756 5578,3763 5566,3769 5553,3773 5540,3776 5527,3778 5514,3779 5243,3779 5230,3778 5217,3776 5204,3773 5191,3769 5179,3763 5168,3756 5157,3748 5147,3739 5138,3730 5131,3719 5124,3707 5118,3695 5114,3683 5110,3670 5108,3657 5108,3644 5108,3206 5108,3192 5110,3179 5114,3166 5118,3154 5124,3142 5131,3131 5138,3120 5147,3110 5157,3101 5168,3093 5179,3086 5191,3081 5204,3076 5217,3073 5230,3071 5243,3070 5514,3070 5527,3071 "
       id="polyline72" />
  </g>
  <g
     id="g4738"
     inkscape:export-xdpi="800"
     inkscape:export-ydpi="800">
    <polyline
       style="fill:#840000;fill-opacity:1;fill-rule:evenodd;stroke:#840000;stroke-width:0;stroke-linecap:round;stroke-linejoin:round;stroke-opacity:1"
       points="7496,1496 7509,1498 7522,1501 7534,1506 7546,1512 7557,1518 7568,1526 7578,1535 7587,1545 7595,1556 7602,1567 7607,1579 7612,1592 7615,1604 7617,1618 7618,1631 7618,2069 7617,2082 7615,2095 7612,2108 7607,2121 7602,2133 7595,2144 7587,2155 7578,2165 7568,2174 7557,2181 7546,2188 7534,2194 7522,2198 7509,2202 7496,2204 7482,2204 7212,2204 7198,2204 7185,2202 7172,2198 7160,2194 7148,2188 7136,2181 7126,2174 7116,2165 7107,2155 7099,2144 7092,2133 7087,2121 7082,2108 7079,2095 7077,2082 7076,2069 7076,1631 7077,1618 7079,1604 7082,1592 7087,1579 7092,1567 7099,1556 7107,1545 7116,1535 7126,1526 7136,1518 7148,1512 7160,1506 7172,1501 7185,1498 7198,1496 7212,1496 7482,1496 7496,1496 "
       id="polyline74" />
    <polyline
       style="fill:#840000;fill-opacity:1;fill-rule:evenodd;stroke:#840000;stroke-width:0;stroke-linecap:round;stroke-linejoin:round;stroke-opacity:1"
       points="8234,1496 8247,1498 8260,1501 8272,1506 8284,1512 8296,1518 8306,1526 8316,1535 8325,1545 8333,1556 8340,1567 8345,1579 8350,1592 8353,1604 8355,1618 8356,1631 8356,2069 8355,2082 8353,2095 8350,2108 8345,2121 8340,2133 8333,2144 8325,2155 8316,2165 8306,2174 8296,2181 8284,2188 8272,2194 8260,2198 8247,2202 8234,2204 8220,2204 7950,2204 7937,2204 7923,2202 7911,2198 7898,2194 7886,2188 7875,2181 7864,2174 7854,2165 7845,2155 7837,2144 7830,2133 7825,2121 7820,2108 7817,2095 7815,2082 7814,2069 7814,1631 7815,1618 7817,1604 7820,1592 7825,1579 7830,1567 7837,1556 7845,1545 7854,1535 7864,1526 7875,1518 7886,1512 7898,1506 7911,1501 7923,1498 7937,1496 7950,1496 8220,1496 8234,1496 "
       id="polyline76" />
    <polyline
       style="fill:#840000;fill-opacity:1;fill-rule:evenodd;stroke:#840000;stroke-width:0;stroke-linecap:round;stroke-linejoin:round;stroke-opacity:1"
       points="8234,3071 8247,3073 8260,3076 8272,3081 8284,3086 8296,3093 8306,3101 8316,3110 8325,3120 8333,3131 8340,3142 8345,3154 8350,3166 8353,3179 8355,3192 8356,3206 8356,3644 8355,3657 8353,3670 8350,3683 8345,3695 8340,3707 8333,3719 8325,3730 8316,3739 8306,3748 8296,3756 8284,3763 8272,3769 8260,3773 8247,3776 8234,3778 8220,3779 7950,3779 7937,3778 7923,3776 7911,3773 7898,3769 7886,3763 7875,3756 7864,3748 7854,3739 7845,3730 7837,3719 7830,3707 7825,3695 7820,3683 7817,3670 7815,3657 7814,3644 7814,3206 7815,3192 7817,3179 7820,3166 7825,3154 7830,3142 7837,3131 7845,3120 7854,3110 7864,3101 7875,3093 7886,3086 7898,3081 7911,3076 7923,3073 7937,3071 7950,3070 8220,3070 8234,3071 "
       id="polyline78" />
    <polyline
       style="fill:#840000;fill-opacity:1;fill-rule:evenodd;stroke:#840000;stroke-width:0;stroke-linecap:round;stroke-linejoin:round;stroke-opacity:1"
       points="7496,3071 7509,3073 7522,3076 7534,3081 7546,3086 7557,3093 7568,3101 7578,3110 7587,3120 7595,3131 7602,3142 7607,3154 7612,3166 7615,3179 7617,3192 7618,3206 7618,3644 7617,3657 7615,3670 7612,3683 7607,3695 7602,3707 7595,3719 7587,3730 7578,3739 7568,3748 7557,3756 7546,3763 7534,3769 7522,3773 7509,3776 7496,3778 7482,3779 7212,3779 7198,3778 7185,3776 7172,3773 7160,3769 7148,3763 7136,3756 7126,3748 7116,3739 7107,3730 7099,3719 7092,3707 7087,3695 7082,3683 7079,3670 7077,3657 7076,3644 7076,3206 7077,3192 7079,3179 7082,3166 7087,3154 7092,3142 7099,3131 7107,3120 7116,3110 7126,3101 7136,3093 7148,3086 7160,3081 7172,3076 7185,3073 7198,3071 7212,3070 7482,3070 7496,3071 "
       id="polyline80" />
  </g>
  <g
     style="fill:#848400; fill-opacity:1.0;  stroke:#848400; stroke-width:0; stroke-opacity:1;  stroke-linecap:round; stroke-linejoin:round;"
     id="g86"
     inkscape:export-xdpi="800"
     inkscape:export-ydpi="800">
    <polyline
       style="fill-rule:evenodd;"
       points="14783,1476 14783,649 15610,649 15610,1476 14783,1476 "
       id="polyline84" />
  </g>
  <g
     style="fill:#848400; fill-opacity:1.0;  stroke:#848400; stroke-width:826.772; stroke-opacity:1;  stroke-linecap:round; stroke-linejoin:round;"
     id="g88" />
  <g
     style="fill:#848400; fill-opacity:0.0;  stroke:#848400; stroke-width:826.772; stroke-opacity:1;  stroke-linecap:round; stroke-linejoin:round;"
     id="g96"
     inkscape:export-xdpi="800"
     inkscape:export-ydpi="800">
    <path
       d="M15196 2062 L15196 2062 "
       id="path90" />
    <path
       d="M15196 3062 L15196 3062 "
       id="path92" />
    <path
       d="M15196 4062 L15196 4062 "
       id="path94" />
  </g>
  <g
     style="fill:#840000; fill-opacity:0.0;  stroke:#840000; stroke-width:826.772; stroke-opacity:1;  stroke-linecap:round; stroke-linejoin:round;"
     id="g98" />
  <g
     style="fill:#840000; fill-opacity:0.0;  stroke:#840000; stroke-width:0; stroke-opacity:1;  stroke-linecap:round; stroke-linejoin:round;"
     id="g100" />
  <g
     style="fill:#840000; fill-opacity:1.0;  stroke:#840000; stroke-width:0; stroke-opacity:1;  stroke-linecap:round; stroke-linejoin:round;"
     id="g118"
     inkscape:export-xdpi="800"
     inkscape:export-ydpi="800">
    <polyline
       style="fill-rule:evenodd;"
       points="13607,1309 13619,1311 13631,1314 13643,1318 13654,1323 13664,1330 13674,1337 13683,1345 13691,1354 13699,1364 13705,1375 13710,1386 13715,1398 13718,1410 13719,1422 13720,1434 13720,1715 13719,1727 13718,1739 13715,1751 13710,1763 13705,1774 13699,1784 13691,1794 13683,1803 13674,1812 13664,1819 13654,1825 13643,1830 13631,1835 13619,1838 13607,1839 13594,1840 13343,1840 13331,1839 13319,1838 13307,1835 13295,1830 13284,1825 13274,1819 13264,1812 13255,1803 13246,1794 13239,1784 13233,1774 13228,1763 13223,1751 13220,1739 13219,1727 13218,1715 13218,1434 13219,1422 13220,1410 13223,1398 13228,1386 13233,1375 13239,1364 13246,1354 13255,1345 13264,1337 13274,1330 13284,1323 13295,1318 13307,1314 13319,1311 13331,1309 13343,1309 13594,1309 13607,1309 "
       id="polyline102" />
    <polyline
       style="fill-rule:evenodd;"
       points="14227,1309 14239,1311 14251,1314 14263,1318 14274,1323 14284,1330 14294,1337 14303,1345 14312,1354 14319,1364 14325,1375 14330,1386 14335,1398 14338,1410 14339,1422 14340,1434 14340,1715 14339,1727 14338,1739 14335,1751 14330,1763 14325,1774 14319,1784 14312,1794 14303,1803 14294,1812 14284,1819 14274,1825 14263,1830 14251,1835 14239,1838 14227,1839 14215,1840 13964,1840 13951,1839 13939,1838 13927,1835 13916,1830 13904,1825 13894,1819 13884,1812 13875,1803 13867,1794 13859,1784 13853,1774 13848,1763 13843,1751 13840,1739 13839,1727 13838,1715 13838,1434 13839,1422 13840,1410 13843,1398 13848,1386 13853,1375 13859,1364 13867,1354 13875,1345 13884,1337 13894,1330 13904,1323 13916,1318 13927,1314 13939,1311 13951,1309 13964,1309 14215,1309 14227,1309 "
       id="polyline104" />
    <polyline
       style="fill-rule:evenodd;"
       points="14227,2097 14239,2098 14251,2101 14263,2106 14274,2111 14284,2117 14294,2124 14303,2133 14312,2142 14319,2152 14325,2162 14330,2173 14335,2185 14338,2197 14339,2209 14340,2221 14340,2502 14339,2514 14338,2526 14335,2538 14330,2550 14325,2561 14319,2572 14312,2582 14303,2591 14294,2599 14284,2606 14274,2613 14263,2618 14251,2622 14239,2625 14227,2627 14215,2627 13964,2627 13951,2627 13939,2625 13927,2622 13916,2618 13904,2613 13894,2606 13884,2599 13875,2591 13867,2582 13859,2572 13853,2561 13848,2550 13843,2538 13840,2526 13839,2514 13838,2502 13838,2221 13839,2209 13840,2197 13843,2185 13848,2173 13853,2162 13859,2152 13867,2142 13875,2133 13884,2124 13894,2117 13904,2111 13916,2106 13927,2101 13939,2098 13951,2097 13964,2096 14215,2096 14227,2097 "
       id="polyline106" />
    <polyline
       style="fill-rule:evenodd;"
       points="13607,2097 13619,2098 13631,2101 13643,2106 13654,2111 13664,2117 13674,2124 13683,2133 13691,2142 13699,2152 13705,2162 13710,2173 13715,2185 13718,2197 13719,2209 13720,2221 13720,2502 13719,2514 13718,2526 13715,2538 13710,2550 13705,2561 13699,2572 13691,2582 13683,2591 13674,2599 13664,2606 13654,2613 13643,2618 13631,2622 13619,2625 13607,2627 13594,2627 13343,2627 13331,2627 13319,2625 13307,2622 13295,2618 13284,2613 13274,2606 13264,2599 13255,2591 13246,2582 13239,2572 13233,2561 13228,2550 13223,2538 13220,2526 13219,2514 13218,2502 13218,2221 13219,2209 13220,2197 13223,2185 13228,2173 13233,2162 13239,2152 13246,2142 13255,2133 13264,2124 13274,2117 13284,2111 13295,2106 13307,2101 13319,2098 13331,2097 13343,2096 13594,2096 13607,2097 "
       id="polyline108" />
    <polyline
       style="fill-rule:evenodd;"
       points="13607,2884 13619,2886 13631,2889 13643,2893 13654,2898 13664,2905 13674,2912 13683,2920 13691,2929 13699,2939 13705,2950 13710,2961 13715,2972 13718,2984 13719,2997 13720,3009 13720,3289 13719,3302 13718,3314 13715,3326 13710,3337 13705,3349 13699,3359 13691,3369 13683,3378 13674,3386 13664,3394 13654,3400 13643,3405 13631,3409 13619,3412 13607,3414 13594,3415 13343,3415 13331,3414 13319,3412 13307,3409 13295,3405 13284,3400 13274,3394 13264,3386 13255,3378 13246,3369 13239,3359 13233,3349 13228,3337 13223,3326 13220,3314 13219,3302 13218,3289 13218,3009 13219,2997 13220,2984 13223,2972 13228,2961 13233,2950 13239,2939 13246,2929 13255,2920 13264,2912 13274,2905 13284,2898 13295,2893 13307,2889 13319,2886 13331,2884 13343,2883 13594,2883 13607,2884 "
       id="polyline110" />
    <polyline
       style="fill-rule:evenodd;"
       points="14227,2884 14239,2886 14251,2889 14263,2893 14274,2898 14284,2905 14294,2912 14303,2920 14312,2929 14319,2939 14325,2950 14330,2961 14335,2972 14338,2984 14339,2997 14340,3009 14340,3289 14339,3302 14338,3314 14335,3326 14330,3337 14325,3349 14319,3359 14312,3369 14303,3378 14294,3386 14284,3394 14274,3400 14263,3405 14251,3409 14239,3412 14227,3414 14215,3415 13964,3415 13951,3414 13939,3412 13927,3409 13916,3405 13904,3400 13894,3394 13884,3386 13875,3378 13867,3369 13859,3359 13853,3349 13848,3337 13843,3326 13840,3314 13839,3302 13838,3289 13838,3009 13839,2997 13840,2984 13843,2972 13848,2961 13853,2950 13859,2939 13867,2929 13875,2920 13884,2912 13894,2905 13904,2898 13916,2893 13927,2889 13939,2886 13951,2884 13964,2883 14215,2883 14227,2884 "
       id="polyline112" />
    <polyline
       style="fill-rule:evenodd;"
       points="14227,3671 14239,3673 14251,3676 14263,3680 14274,3686 14284,3692 14294,3699 14303,3708 14312,3717 14319,3727 14325,3737 14330,3748 14335,3760 14338,3772 14339,3784 14340,3796 14340,4077 14339,4089 14338,4101 14335,4113 14330,4125 14325,4136 14319,4146 14312,4156 14303,4166 14294,4174 14284,4181 14274,4187 14263,4193 14251,4197 14239,4200 14227,4202 14215,4202 13964,4202 13951,4202 13939,4200 13927,4197 13916,4193 13904,4187 13894,4181 13884,4174 13875,4166 13867,4156 13859,4146 13853,4136 13848,4125 13843,4113 13840,4101 13839,4089 13838,4077 13838,3796 13839,3784 13840,3772 13843,3760 13848,3748 13853,3737 13859,3727 13867,3717 13875,3708 13884,3699 13894,3692 13904,3686 13916,3680 13927,3676 13939,3673 13951,3671 13964,3671 14215,3671 14227,3671 "
       id="polyline114" />
    <polyline
       style="fill-rule:evenodd;"
       points="13607,3671 13619,3673 13631,3676 13643,3680 13654,3686 13664,3692 13674,3699 13683,3708 13691,3717 13699,3727 13705,3737 13710,3748 13715,3760 13718,3772 13719,3784 13720,3796 13720,4077 13719,4089 13718,4101 13715,4113 13710,4125 13705,4136 13699,4146 13691,4156 13683,4166 13674,4174 13664,4181 13654,4187 13643,4193 13631,4197 13619,4200 13607,4202 13594,4202 13343,4202 13331,4202 13319,4200 13307,4197 13295,4193 13284,4187 13274,4181 13264,4174 13255,4166 13246,4156 13239,4146 13233,4136 13228,4125 13223,4113 13220,4101 13219,4089 13218,4077 13218,3796 13219,3784 13220,3772 13223,3760 13228,3748 13233,3737 13239,3727 13246,3717 13255,3708 13264,3699 13274,3692 13284,3686 13295,3680 13307,3676 13319,3673 13331,3671 13343,3671 13594,3671 13607,3671 "
       id="polyline116" />
  </g>
  <g
     style="fill:#000000; fill-opacity:1.0;  stroke:#000000; stroke-width:0; stroke-opacity:1;  stroke-linecap:round; stroke-linejoin:round;"
     id="g120" />
  <g
     style="fill:#C2C200; fill-opacity:1.0;  stroke:#C2C200; stroke-width:0; stroke-opacity:1;  stroke-linecap:round; stroke-linejoin:round;"
     id="g122" />
  <g
     style="fill:#C2C200; fill-opacity:1.0;  stroke:#C2C200; stroke-width:59.0551; stroke-opacity:1;  stroke-linecap:round; stroke-linejoin:round;"
     id="g124" />
  <g
     id="g4662"
     transform="matrix(-1,0,0,1,17757.614,4824.6854)">
    <text
       transform="scale(0.93616779,1.0681846)"
       id="text4652"
       y="3003.9631"
       x="1216.5322"
       style="font-style:normal;font-variant:normal;font-weight:normal;font-stretch:normal;font-size:1522.89697266px;line-height:1.25;font-family:Rabid_Science;-inkscape-font-specification:Rabid_Science;letter-spacing:0px;word-spacing:0px;fill:#000000;fill-opacity:1;stroke:none;stroke-width:104.16666412"
       xml:space="preserve"><tspan
         style="stroke-width:104.16666412"
         y="3003.9631"
         x="1216.5322"
         id="tspan4650"
         sodipodi:role="line">RABID</tspan></text>
    <text
       transform="scale(0.94510266,1.0580861)"
       id="text4656"
       y="3004.8735"
       x="6913.8408"
       style="font-style:normal;font-variant:normal;font-weight:normal;font-stretch:normal;font-size:1866.37719727px;line-height:1.25;font-family:Rabid_Science;-inkscape-font-specification:Rabid_Science;letter-spacing:0px;word-spacing:0px;fill:#000000;fill-opacity:1;stroke:none;stroke-width:104.16667175"
       xml:space="preserve"><tspan
         style="font-style:normal;font-variant:normal;font-weight:normal;font-stretch:normal;font-family:'San Diego';-inkscape-font-specification:'San Diego';stroke-width:104.16667175"
         y="3004.8735"
         x="6913.8408"
         id="tspan4654"
         sodipodi:role="line">CHARLIE</tspan></text>
  </g>
  <path
     style="fill:#000000;stroke-width:0.99999994"
     d="m 677.13374,7909.9389 c -48.948,-8.8445 -96.3883,-35.9251 -124.7174,-71.1934 -24.9086,-31.0107 -43.4669,-27.6809 154.2795,-27.6809 h 173.9774 l -5.92,9.4351 c -22.5902,36.0044 -66.1465,69.1457 -107.504,81.7983 -22.4842,6.8787 -71.3867,11.0254 -90.1155,7.6409 z m -248.2545,-154.8397 c -11.6932,-6.0522 -17.5235,-16.193 -19.4831,-33.8894 -2.8155,-25.4259 1.3849,-44.1316 12.1666,-54.1801 l 9.2983,-8.6655 h 275.7649 275.7653 l 9.2982,8.6655 c 10.75646,10.025 14.98306,28.7469 12.18786,53.9874 -2.0509,18.5162 -8.58846,29.5245 -20.55206,34.6046 -12.4753,5.2975 -544.1699,4.7964 -554.446,-0.5225 z m 0,-149.6464 c -11.6932,-6.0522 -17.5235,-16.193 -19.4831,-33.8892 -2.8155,-25.4261 1.3849,-44.1318 12.1666,-54.1802 l 9.2983,-8.6654 h 275.0713 c 272.148,0 275.1615,0.066 283.5925,6.2468 22.00746,16.1339 20.59306,75.6766 -2.1043,88.5748 -10.1296,5.7565 -18.703,5.9347 -280.7946,5.8409 -210.5005,-0.075 -271.9837,-0.9449 -277.7467,-3.9277 z m -3.048,-151.5596 c -22.6969,-12.898 -24.1113,-72.4409 -2.1038,-88.5747 8.4305,-6.1802 11.4495,-6.2468 282.8985,-6.2468 271.4493,0 274.4683,0.067 282.8989,6.2468 22.00746,16.1338 20.59306,75.6767 -2.1043,88.5747 -10.1259,5.7545 -18.8006,5.9379 -280.7946,5.9379 -261.9936,0 -270.6683,-0.1836 -280.7947,-5.9379 z m 30.1106,-156.0325 c -49.1608,-6.0263 -78.8445,-25.6408 -98.3512,-64.9883 -13.313,-26.8543 -21.0186,-54.8406 -34.2041,-124.2292 -36.6372,-192.7999 -104.6996,-360.705 -240.149495,-592.4308 -37.3848,-63.9579 -55.3891,-101.2536 -73.3238001,-151.8887 -44.4313999,-125.4434 -48.6667999,-255.832 -12.5112,-385.1765 C 66.274445,5732.7564 279.38034,5541.1773 546.05734,5485.9134 c 61.053,-12.6522 92.6158,-15.6877 162.2072,-15.6001 72.9757,0.092 114.9914,4.7558 179.8988,19.9698 256.55156,60.1346 462.24926,250.909 527.88726,489.5891 17.8325,64.8444 22.6933,101.8457 22.7098,172.867 0.028,129.5635 -28.8178,226.9934 -106.2503,358.8459 -136.7312,232.825 -204.4279,400.0073 -244.2398,603.1661 -6.4189,32.7542 -13.9422,67.7988 -16.7185,77.877 -6.9342,25.1733 -24.1256,58.9152 -36.9531,72.5315 -23.0996,24.5196 -66.49456,35.8858 -137.00616,35.8858 h -30.3976 v -15.1648 c 0,-8.3406 5.2011,-90.4463 11.5582,-182.4572 10.1946,-147.5597 10.9817,-167.6854 6.6708,-170.6229 -3.4187,-2.3299 -10.8531,-2.435 -24.7469,-0.3496 -10.9227,1.6395 -20.5697,2.3187 -21.4383,1.5093 -0.8681,-0.8091 54.4661,-193.63 122.9655,-428.4906 68.49946,-234.8606 124.54426,-428.6892 124.54426,-430.73 0,-11.2341 -9.0449,-9.7962 -80.2934,12.7643 -77.30076,24.4771 -151.36096,43.3167 -201.52176,51.2633 -136.1661,21.5719 -265.2612,8.9004 -396.1051,-38.8801 -32.0432,-11.7013 -34.2525,-12.1037 -38.2787,-6.9722 -2.3498,2.9951 -3.7112,7.0301 -3.0245,8.9664 5.862,16.5339 205.0183,836.5028 203.5132,837.9057 -1.0869,1.0129 -15.6315,-0.2258 -32.3209,-2.753 -16.6894,-2.5269 -32.1882,-3.9692 -34.4408,-3.2051 -2.5248,0.8563 -4.0963,7.1913 -4.0963,16.515 0,15.3269 21.2094,305.1637 24.49,334.6679 l 1.7828,16.0336 -25.4249,-0.3872 c -13.9835,-0.2131 -34.2722,-1.4719 -45.0863,-2.7976 z m 91.8716,-0.5115 c -1.582,-4.4046 -27.1248,-339.3072 -25.9987,-340.878 0.3938,-0.5491 18.9125,1.0985 41.1526,3.6616 86.6124,9.9814 167.6359,9.0719 262.6697,-2.9485 21.2996,-2.6941 39.3905,-4.2795 40.202,-3.5233 3.1101,2.8983 -21.2821,339.1642 -24.8432,342.4858 -5.6631,5.2827 -291.2959,6.4542 -293.1824,1.2024 z m 91.3811,-353.4629 c -31.9142,-3.436 -43.1874,-6.0159 -44.8809,-10.2716 -3.6117,-9.079 -199.8223,-814.7056 -198.6639,-815.701 0.7193,-0.6181 22.6895,5.5294 48.8228,13.6611 151.3172,47.0838 296.1382,48.4057 468.5995,4.2774 22.5288,-5.7644 64.7605,-17.9158 93.84816,-27.003 l 52.8869,-16.5221 -2.8058,9.5915 c -1.5433,5.2754 -56.7284,194.3679 -122.63386,420.2057 -65.9051,225.8377 -120.1459,410.8871 -120.5347,411.2212 -0.3886,0.334 -15.4854,2.7853 -33.5482,5.4471 -40.3038,5.9394 -109.8971,8.4518 -141.09,5.0937 z"
     id="path4677"
     inkscape:connector-curvature="0" />
</svg>
