<?xml version="1.0" encoding="UTF-8" standalone="no"?>
<svg
   xmlns:dc="http://purl.org/dc/elements/1.1/"
   xmlns:cc="http://creativecommons.org/ns#"
   xmlns:rdf="http://www.w3.org/1999/02/22-rdf-syntax-ns#"
   xmlns:svg="http://www.w3.org/2000/svg"
   xmlns="http://www.w3.org/2000/svg"
   xmlns:sodipodi="http://sodipodi.sourceforge.net/DTD/sodipodi-0.dtd"
   xmlns:inkscape="http://www.inkscape.org/namespaces/inkscape"
   version="1.1"
   width="4.19862cm"
   height="1.29794cm"
   viewBox="0 0 16530 5110 "
   id="svg148"
   sodipodi:docname="CHARLIE-brd.svg"
   inkscape:version="0.92.2 (5c3e80d, 2017-08-06)">
  <metadata
     id="metadata154">
    <rdf:RDF>
      <cc:Work
         rdf:about="">
        <dc:format>image/svg+xml</dc:format>
        <dc:type
           rdf:resource="http://purl.org/dc/dcmitype/StillImage" />
      </cc:Work>
    </rdf:RDF>
  </metadata>
  <defs
     id="defs152" />
  <sodipodi:namedview
     pagecolor="#ffffff"
     bordercolor="#666666"
     borderopacity="1"
     objecttolerance="10"
     gridtolerance="10"
     guidetolerance="10"
     inkscape:pageopacity="0"
     inkscape:pageshadow="2"
     inkscape:window-width="1366"
     inkscape:window-height="706"
     id="namedview150"
     showgrid="false"
     inkscape:zoom="3.1789915"
     inkscape:cx="98.516228"
     inkscape:cy="61.908482"
     inkscape:window-x="-8"
     inkscape:window-y="-8"
     inkscape:window-maximized="1"
     inkscape:current-layer="svg148" />
  <title
     id="title2">SVG Picture created as CHARLIE-brd.svg date 2018/07/30 16:47:17 </title>
  <desc
     id="desc4">Picture generated by PCBNEW </desc>
  <g
     style="fill:none;fill-opacity:1;stroke:#c2c200;stroke-width:59.0551;stroke-opacity:1;stroke-linecap:round;stroke-linejoin:round"
     id="g146"
     inkscape:export-xdpi="800"
     inkscape:export-ydpi="800">
    <path
       d="m 15354,393 h -1181 v 0 H 1181 l 0.1,0.701 C 972.26904,393.7018 771.99149,476.65992 624.32571,624.32571 476.65992,771.99149 393.7018,972.26904 393.701,1181.1 L 393,1181 v 2756 l 0.701,0.01 c 5.3e-4,208.8311 82.95854,409.1089 230.62435,556.7749 147.66582,147.666 347.94352,230.6243 556.77465,230.6251 L 1181,4724 h 12992 v 0 h 1181 l 0.3,0.41 c 208.831,-5e-4 409.109,-82.9587 556.775,-230.6247 147.666,-147.666 230.624,-347.944 230.625,-556.7753 L 16141,3937 V 1181 l 0.7,0.1 c -0,-208.83113 -82.959,-409.10883 -230.625,-556.77465 C 15763.409,476.65954 15563.131,393.70153 15354.3,393.701 Z"
       id="path128"
       style="fill:#000000;fill-opacity:1;stroke:#c2c200;stroke-opacity:1"
       inkscape:connector-curvature="0"
       sodipodi:nodetypes="cccccsccccsccccccsccccscc" />
  </g>
  <g
     style="fill:#000000; fill-opacity:1;stroke:#000000; stroke-opacity:1; stroke-linecap:round; stroke-linejoin:round; "
     transform="translate(0 0) scale(1 1)"
     id="g6" />
  <g
     style="fill:#000000; fill-opacity:0.0;  stroke:#000000; stroke-width:-0.000393701; stroke-opacity:1;  stroke-linecap:round; stroke-linejoin:round;"
     id="g8" />
  <g
     style="fill:#848400; fill-opacity:0.0;  stroke:#848400; stroke-width:-0.000393701; stroke-opacity:1;  stroke-linecap:round; stroke-linejoin:round;"
     id="g10" />
  <g
     style="fill:#848400; fill-opacity:0.0;  stroke:#848400; stroke-width:0; stroke-opacity:1;  stroke-linecap:round; stroke-linejoin:round;"
     id="g12" />
  <g
     style="fill:#848400; fill-opacity:1.0;  stroke:#848400; stroke-width:0; stroke-opacity:1;  stroke-linecap:round; stroke-linejoin:round;"
     id="g16"
     inkscape:export-xdpi="800"
     inkscape:export-ydpi="800">
    <polyline
       style="fill-rule:evenodd;"
       points="14783,1476 14783,649 15610,649 15610,1476 14783,1476 "
       id="polyline14" />
  </g>
  <g
     style="fill:#848400; fill-opacity:1.0;  stroke:#848400; stroke-width:826.772; stroke-opacity:1;  stroke-linecap:round; stroke-linejoin:round;"
     id="g18" />
  <g
     style="fill:#848400; fill-opacity:0.0;  stroke:#848400; stroke-width:826.772; stroke-opacity:1;  stroke-linecap:round; stroke-linejoin:round;"
     id="g26"
     inkscape:export-xdpi="800"
     inkscape:export-ydpi="800">
    <path
       d="M15196 2062 L15196 2062 "
       id="path20" />
    <path
       d="M15196 3062 L15196 3062 "
       id="path22" />
    <path
       d="M15196 4062 L15196 4062 "
       id="path24" />
  </g>
  <g
     style="fill:#000000; fill-opacity:0.0;  stroke:#000000; stroke-width:826.772; stroke-opacity:1;  stroke-linecap:round; stroke-linejoin:round;"
     id="g28" />
  <g
     style="fill:#840000; fill-opacity:0.0;  stroke:#840000; stroke-width:826.772; stroke-opacity:1;  stroke-linecap:round; stroke-linejoin:round;"
     id="g30" />
  <g
     style="fill:#840000; fill-opacity:0.0;  stroke:#840000; stroke-width:0; stroke-opacity:1;  stroke-linecap:round; stroke-linejoin:round;"
     id="g32" />
  <g
     style="fill:#848400; fill-opacity:1.0;  stroke:#848400; stroke-width:0; stroke-opacity:1;  stroke-linecap:round; stroke-linejoin:round;"
     id="g86"
     inkscape:export-xdpi="800"
     inkscape:export-ydpi="800">
    <polyline
       style="fill-rule:evenodd;"
       points="14783,1476 14783,649 15610,649 15610,1476 14783,1476 "
       id="polyline84" />
  </g>
  <g
     style="fill:#848400; fill-opacity:1.0;  stroke:#848400; stroke-width:826.772; stroke-opacity:1;  stroke-linecap:round; stroke-linejoin:round;"
     id="g88" />
  <g
     style="fill:#848400; fill-opacity:0.0;  stroke:#848400; stroke-width:826.772; stroke-opacity:1;  stroke-linecap:round; stroke-linejoin:round;"
     id="g96"
     inkscape:export-xdpi="800"
     inkscape:export-ydpi="800">
    <path
       d="M15196 2062 L15196 2062 "
       id="path90" />
    <path
       d="M15196 3062 L15196 3062 "
       id="path92" />
    <path
       d="M15196 4062 L15196 4062 "
       id="path94" />
  </g>
  <g
     style="fill:#840000; fill-opacity:0.0;  stroke:#840000; stroke-width:826.772; stroke-opacity:1;  stroke-linecap:round; stroke-linejoin:round;"
     id="g98" />
  <g
     style="fill:#840000; fill-opacity:0.0;  stroke:#840000; stroke-width:0; stroke-opacity:1;  stroke-linecap:round; stroke-linejoin:round;"
     id="g100" />
  <g
     style="fill:#000000; fill-opacity:1.0;  stroke:#000000; stroke-width:0; stroke-opacity:1;  stroke-linecap:round; stroke-linejoin:round;"
     id="g120" />
  <g
     style="fill:#C2C200; fill-opacity:1.0;  stroke:#C2C200; stroke-width:0; stroke-opacity:1;  stroke-linecap:round; stroke-linejoin:round;"
     id="g122" />
  <g
     style="fill:#C2C200; fill-opacity:1.0;  stroke:#C2C200; stroke-width:59.0551; stroke-opacity:1;  stroke-linecap:round; stroke-linejoin:round;"
     id="g124" />
  <g
     id="g4662"
     transform="matrix(-0.87686705,0,0,0.77476866,15200.69,625.63583)"
     style="fill:#ffffff;fill-opacity:1" />
  <g
     id="g5201"
     transform="matrix(-1,0,0,1,15119.607,0)"
     inkscape:export-xdpi="800"
     inkscape:export-ydpi="800">
    <text
       inkscape:export-ydpi="800"
       inkscape:export-xdpi="800"
       xml:space="preserve"
       style="font-style:normal;font-variant:normal;font-weight:normal;font-stretch:normal;font-size:1522.89697266px;line-height:1.25;font-family:Rabid_Science;-inkscape-font-specification:Rabid_Science;letter-spacing:0px;word-spacing:0px;fill:#ffffff;fill-opacity:1;stroke:none;stroke-width:104.16666412"
       x="1216.5325"
       y="3003.9631"
       id="text4652"
       transform="matrix(-0.82089482,0,0,0.82759587,15200.69,625.63583)"><tspan
         sodipodi:role="line"
         id="tspan4650"
         x="1216.5325"
         y="3003.9631"
         style="fill:#ffffff;fill-opacity:1;stroke-width:104.16666412">RABID</tspan></text>
    <text
       inkscape:export-ydpi="800"
       inkscape:export-xdpi="800"
       xml:space="preserve"
       style="font-style:normal;font-variant:normal;font-weight:normal;font-stretch:normal;font-size:1866.37719727px;line-height:1.25;font-family:Rabid_Science;-inkscape-font-specification:Rabid_Science;letter-spacing:0px;word-spacing:0px;fill:#ffffff;fill-opacity:1;stroke:none;stroke-width:104.16667175"
       x="6652.7227"
       y="3004.8735"
       id="text4656"
       transform="matrix(-0.8287292,0,0,0.81977191,15200.69,625.63583)"><tspan
         sodipodi:role="line"
         id="tspan4654"
         x="6652.7227"
         y="3004.8735"
         style="font-style:normal;font-variant:normal;font-weight:normal;font-stretch:normal;font-family:'Black Ops One';-inkscape-font-specification:'Black Ops One';fill:#ffffff;fill-opacity:1;stroke-width:104.16667175">CHARLIE</tspan></text>
    <text
       transform="matrix(-0.75369586,0,0,0.90138337,15200.69,625.63583)"
       id="text857"
       y="3737.5913"
       x="1338.6145"
       style="font-style:normal;font-variant:normal;font-weight:normal;font-stretch:normal;font-size:996.6204834px;line-height:1.25;font-family:Victorious;-inkscape-font-specification:Victorious;letter-spacing:0px;word-spacing:0px;fill:#ffffff;fill-opacity:1;stroke:none;stroke-width:93.4331665"
       xml:space="preserve"
       inkscape:export-ydpi="800"
       inkscape:export-xdpi="800"><tspan
         style="font-style:normal;font-variant:normal;font-weight:normal;font-stretch:normal;font-family:'Venus Rising';-inkscape-font-specification:'Venus Rising';fill:#ffffff;fill-opacity:1;stroke-width:93.4331665"
         y="3737.5913"
         x="1338.6145"
         id="tspan855"
         sodipodi:role="line">https://git.io/fNaFQ</tspan></text>
    <text
       transform="matrix(-0.84821462,0,0,0.80093961,15200.69,625.63583)"
       id="text861"
       y="1250.8556"
       x="4340.9468"
       style="font-style:normal;font-variant:normal;font-weight:normal;font-stretch:normal;font-size:1563.5994873px;line-height:1.25;font-family:Victorious;-inkscape-font-specification:Victorious;letter-spacing:0px;word-spacing:0px;fill:#ffffff;fill-opacity:1;stroke:none;stroke-width:146.58744812"
       xml:space="preserve"
       inkscape:export-ydpi="800"
       inkscape:export-xdpi="800"><tspan
         style="font-style:normal;font-variant:normal;font-weight:normal;font-stretch:normal;font-family:Prefix;-inkscape-font-specification:Prefix;fill:#ffffff;fill-opacity:1;stroke-width:146.58744812"
         y="1250.8556"
         x="4340.9468"
         id="tspan859"
         sodipodi:role="line">BAW#3</tspan></text>
    <path
       inkscape:export-ydpi="800"
       inkscape:export-xdpi="800"
       inkscape:connector-curvature="0"
       id="path4677"
       d="m 1456.1615,3777.9177 c -48.948,-8.8445 -96.389,-35.9251 -124.718,-71.1934 -24.908,-31.0107 -43.467,-27.6809 154.28,-27.6809 h 173.977 l -5.92,9.4351 c -22.59,36.0044 -66.146,69.1457 -107.504,81.7983 -22.484,6.8787 -71.387,11.0254 -90.115,7.6409 z m -248.255,-154.8397 c -11.693,-6.0522 -17.523,-16.193 -19.483,-33.8894 -2.816,-25.4259 1.385,-44.1316 12.167,-54.1801 l 9.298,-8.6655 h 275.765 275.765 l 9.298,8.6655 c 10.757,10.025 14.983,28.7469 12.188,53.9874 -2.051,18.5162 -8.588,29.5245 -20.552,34.6046 -12.475,5.2975 -544.17,4.7964 -554.446,-0.5225 z m 0,-149.6464 c -11.693,-6.0522 -17.523,-16.193 -19.483,-33.8892 -2.816,-25.4261 1.385,-44.1318 12.167,-54.1802 l 9.298,-8.6654 h 275.071 c 272.148,0 275.162,0.066 283.593,6.2468 22.007,16.1339 20.593,75.6766 -2.105,88.5748 -10.129,5.7565 -18.703,5.9347 -280.794,5.8409 -210.501,-0.075 -271.984,-0.9449 -277.747,-3.9277 z m -3.048,-151.5596 c -22.697,-12.898 -24.111,-72.4409 -2.104,-88.5747 8.431,-6.1802 11.45,-6.2468 282.899,-6.2468 271.449,0 274.468,0.067 282.899,6.2468 22.007,16.1338 20.593,75.6767 -2.105,88.5747 -10.126,5.7545 -18.8,5.9379 -280.794,5.9379 -261.994,0 -270.669,-0.1836 -280.795,-5.9379 z m 30.111,-156.0325 c -49.161,-6.0263 -78.845,-25.6408 -98.352,-64.9883 -13.313,-26.8543 -21.018,-54.8406 -34.204,-124.2292 -36.637,-192.7999 -104.69905,-360.705 -240.14905,-592.4308 -37.385,-63.9579 -55.389,-101.2536 -73.324,-151.8887 -44.431,-125.4434 -48.667,-255.832 -12.511,-385.1765 68.872,-246.3908 281.97805,-437.9699 548.65505,-493.2338 61.053,-12.6522 92.616,-15.6877 162.207,-15.6001 72.976,0.092 114.992,4.7558 179.899,19.9698 256.552,60.1346 462.249,250.909 527.887,489.5891 17.833,64.8444 22.694,101.8457 22.71,172.867 0.03,129.5635 -28.818,226.9934 -106.25,358.8459 -136.731,232.825 -204.428,400.0073 -244.24,603.1661 -6.419,32.7542 -13.942,67.7988 -16.718,77.877 -6.935,25.1733 -24.126,58.9152 -36.954,72.5315 -23.099,24.5196 -66.494,35.8858 -137.006,35.8858 h -30.397 v -15.1648 c 0,-8.3406 5.201,-90.4463 11.558,-182.4572 10.195,-147.5597 10.982,-167.6854 6.671,-170.6229 -3.419,-2.3299 -10.853,-2.435 -24.747,-0.3496 -10.923,1.6395 -20.57,2.3187 -21.438,1.5093 -0.869,-0.8091 54.466,-193.63 122.965,-428.4906 68.499,-234.8606 124.544,-428.6892 124.544,-430.73 0,-11.2341 -9.045,-9.7962 -80.293,12.7643 -77.301,24.4771 -151.361,43.3167 -201.522,51.2633 -136.166,21.5719 -265.261,8.9004 -396.105,-38.8801 -32.043,-11.7013 -34.252,-12.1037 -38.279,-6.9722 -2.349,2.9951 -3.711,7.0301 -3.024,8.9664 5.862,16.5339 205.018,836.5028 203.513,837.9057 -1.087,1.0129 -15.631,-0.2258 -32.321,-2.753 -16.689,-2.5269 -32.188,-3.9692 -34.441,-3.2051 -2.524,0.8563 -4.096,7.1913 -4.096,16.515 0,15.3269 21.209,305.1637 24.49,334.6679 l 1.783,16.0336 -25.425,-0.3872 c -13.984,-0.2131 -34.272,-1.4719 -45.086,-2.7976 z m 91.871,-0.5115 c -1.582,-4.4046 -27.125,-339.3072 -25.998,-340.878 0.393,-0.5491 18.912,1.0985 41.152,3.6616 86.613,9.9814 167.636,9.0719 262.67,-2.9485 21.299,-2.6941 39.39,-4.2795 40.202,-3.5233 3.11,2.8983 -21.282,339.1642 -24.843,342.4858 -5.663,5.2827 -291.296,6.4542 -293.183,1.2024 z m 91.381,-353.4629 c -31.914,-3.436 -43.187,-6.0159 -44.881,-10.2716 -3.611,-9.079 -199.822,-814.7056 -198.663,-815.701 0.719,-0.6181 22.689,5.5294 48.822,13.6611 151.318,47.0838 296.139,48.4057 468.6,4.2774 22.529,-5.7644 64.76,-17.9158 93.848,-27.003 l 52.887,-16.5221 -2.806,9.5915 c -1.543,5.2754 -56.728,194.3679 -122.634,420.2057 -65.905,225.8377 -120.146,410.8871 -120.534,411.2212 -0.389,0.334 -15.486,2.7853 -33.549,5.4471 -40.303,5.9394 -109.897,8.4518 -141.09,5.0937 z"
       style="fill:#ffffff;fill-opacity:1;stroke-width:0.99999994" />
  </g>
</svg>
