<?xml version="1.0" encoding="UTF-8" standalone="no"?>
<svg
   xmlns:dc="http://purl.org/dc/elements/1.1/"
   xmlns:cc="http://creativecommons.org/ns#"
   xmlns:rdf="http://www.w3.org/1999/02/22-rdf-syntax-ns#"
   xmlns:svg="http://www.w3.org/2000/svg"
   xmlns="http://www.w3.org/2000/svg"
   xmlns:sodipodi="http://sodipodi.sourceforge.net/DTD/sodipodi-0.dtd"
   xmlns:inkscape="http://www.inkscape.org/namespaces/inkscape"
   version="1.1"
   width="4.97586cm"
   height="2.61874cm"
   viewBox="0 0 19590 10310 "
   id="svg388"
   sodipodi:docname="rain-brd.svg"
   inkscape:version="0.92.2 (5c3e80d, 2017-08-06)">
  <metadata
     id="metadata394">
    <rdf:RDF>
      <cc:Work
         rdf:about="">
        <dc:format>image/svg+xml</dc:format>
        <dc:type
           rdf:resource="http://purl.org/dc/dcmitype/StillImage" />
      </cc:Work>
    </rdf:RDF>
  </metadata>
  <defs
     id="defs392" />
  <sodipodi:namedview
     pagecolor="#ffffff"
     bordercolor="#666666"
     borderopacity="1"
     objecttolerance="10"
     gridtolerance="10"
     guidetolerance="10"
     inkscape:pageopacity="0"
     inkscape:pageshadow="2"
     inkscape:window-width="2560"
     inkscape:window-height="1377"
     id="namedview390"
     showgrid="false"
     inkscape:zoom="3.9243657"
     inkscape:cx="122.97539"
     inkscape:cy="70.328928"
     inkscape:window-x="-8"
     inkscape:window-y="-8"
     inkscape:window-maximized="1"
     inkscape:current-layer="svg388" />
  <title
     id="title2">SVG Picture created as rain-brd.svg date 2019/02/27 16:22:39 </title>
  <desc
     id="desc4">Picture generated by PCBNEW </desc>
  <g
     style="fill:#000000; fill-opacity:1;stroke:#000000; stroke-opacity:1; stroke-linecap:round; stroke-linejoin:round; "
     transform="translate(0 0) scale(1 1)"
     id="g6" />
  <g
     style="fill:#000000; fill-opacity:0.0;  stroke:#000000; stroke-width:-0.000393701; stroke-opacity:1;  stroke-linecap:round; stroke-linejoin:round;"
     id="g8" />
  <g
     style="fill:#000000;fill-opacity:1;stroke:#000000;stroke-width:0;stroke-linecap:round;stroke-linejoin:round;stroke-opacity:1"
     id="g12">
    <circle
       cx="16633.9"
       cy="9094.4902"
       r="610.23602"
       id="circle10" />
  </g>
  <g
     style="fill:#000000; fill-opacity:1.0;  stroke:#000000; stroke-width:39.3701; stroke-opacity:1;  stroke-linecap:round; stroke-linejoin:round;"
     id="g14" />
  <g
     style="fill:#000000;fill-opacity:1;stroke:#000000;stroke-width:0;stroke-linecap:round;stroke-linejoin:round;stroke-opacity:1"
     id="g18">
    <circle
       cx="11752"
       cy="4842.52"
       r="529.52802"
       id="circle16" />
  </g>
  <g
     style="fill:#000000; fill-opacity:1.0;  stroke:#000000; stroke-width:39.3701; stroke-opacity:1;  stroke-linecap:round; stroke-linejoin:round;"
     id="g20" />
  <g
     style="fill:#000000;fill-opacity:1;stroke:#000000;stroke-width:0;stroke-linecap:round;stroke-linejoin:round;stroke-opacity:1"
     id="g24">
    <circle
       cx="2751.97"
       cy="4842.52"
       r="529.52802"
       id="circle22" />
  </g>
  <g
     style="fill:#000000; fill-opacity:1.0;  stroke:#000000; stroke-width:39.3701; stroke-opacity:1;  stroke-linecap:round; stroke-linejoin:round;"
     id="g26" />
  <g
     style="fill:#000000;fill-opacity:1;stroke:#000000;stroke-width:0;stroke-linecap:round;stroke-linejoin:round;stroke-opacity:1"
     id="g30">
    <polyline
       style="fill-rule:evenodd"
       points="14291,1240 13464,1240 13464,413 14291,413 14291,1240 "
       id="polyline28" />
  </g>
  <g
     style="fill:#000000; fill-opacity:1.0;  stroke:#000000; stroke-width:826.772; stroke-opacity:1;  stroke-linecap:round; stroke-linejoin:round;"
     id="g32" />
  <g
     style="fill:#000000;fill-opacity:0;stroke:#000000;stroke-width:826.77197266;stroke-linecap:round;stroke-linejoin:round;stroke-opacity:1"
     id="g44">
    <path
       d="m 14877,826 v 0"
       id="path34"
       inkscape:connector-curvature="0" />
    <path
       d="m 15877,826 v 0"
       id="path36"
       inkscape:connector-curvature="0" />
    <path
       d="m 16877,826 v 0"
       id="path38"
       inkscape:connector-curvature="0" />
    <path
       d="m 17877,826 v 0"
       id="path40"
       inkscape:connector-curvature="0" />
    <path
       d="m 18877,826 v 0"
       id="path42"
       inkscape:connector-curvature="0" />
  </g>
  <g
     style="fill:#000000; fill-opacity:0.0;  stroke:#000000; stroke-width:0; stroke-opacity:1;  stroke-linecap:round; stroke-linejoin:round;"
     id="g46" />
  <g
     style="fill:#000000;fill-opacity:1;stroke:#000000;stroke-width:0;stroke-linecap:round;stroke-linejoin:round;stroke-opacity:1"
     id="g74">
    <polyline
       style="fill-rule:evenodd"
       points="17637,1889 18582,1889 18582,2618 17637,2618 17637,1889 "
       id="polyline48" />
    <polyline
       style="fill-rule:evenodd"
       points="14370,1889 15314,1889 15314,2618 14370,2618 14370,1889 "
       id="polyline50" />
    <polyline
       style="fill-rule:evenodd"
       points="17637,7303 18582,7303 18582,8031 17637,8031 17637,7303 "
       id="polyline52" />
    <polyline
       style="fill-rule:evenodd"
       points="14370,7303 15314,7303 15314,8031 14370,8031 14370,7303 "
       id="polyline54" />
    <polyline
       style="fill-rule:evenodd"
       points="16712,2982 17460,2982 17460,3454 16712,3454 16712,2982 "
       id="polyline56" />
    <polyline
       style="fill-rule:evenodd"
       points="16712,3415 17460,3415 17460,3887 16712,3887 16712,3415 "
       id="polyline58" />
    <polyline
       style="fill-rule:evenodd"
       points="16712,3848 17460,3848 17460,4320 16712,4320 16712,3848 "
       id="polyline60" />
    <polyline
       style="fill-rule:evenodd"
       points="16712,4281 17460,4281 17460,4753 16712,4753 16712,4281 "
       id="polyline62" />
    <polyline
       style="fill-rule:evenodd"
       points="16712,4714 17460,4714 17460,5187 16712,5187 16712,4714 "
       id="polyline64" />
    <polyline
       style="fill-rule:evenodd"
       points="16712,5147 17460,5147 17460,5620 16712,5620 16712,5147 "
       id="polyline66" />
    <polyline
       style="fill-rule:evenodd"
       points="16712,5580 17460,5580 17460,6053 16712,6053 16712,5580 "
       id="polyline68" />
    <polyline
       style="fill-rule:evenodd"
       points="16712,6013 17460,6013 17460,6486 16712,6486 16712,6013 "
       id="polyline70" />
    <polyline
       style="fill-rule:evenodd"
       points="12381,413 13208,413 13208,1240 12381,1240 12381,413 "
       id="polyline72" />
  </g>
  <g
     style="fill:#000000; fill-opacity:1.0;  stroke:#000000; stroke-width:826.772; stroke-opacity:1;  stroke-linecap:round; stroke-linejoin:round;"
     id="g76" />
  <g
     style="fill:#000000;fill-opacity:0;stroke:#000000;stroke-width:826.77197266;stroke-linecap:round;stroke-linejoin:round;stroke-opacity:1"
     id="g86">
    <path
       d="m 11795,826 v 0"
       id="path78"
       inkscape:connector-curvature="0" />
    <path
       d="m 10795,826 v 0"
       id="path80"
       inkscape:connector-curvature="0" />
    <path
       d="m 9795,826 v 0"
       id="path82"
       inkscape:connector-curvature="0" />
    <path
       d="m 4740,9586 v 0"
       id="path84"
       inkscape:connector-curvature="0" />
  </g>
  <g
     style="fill:#000000; fill-opacity:0.0;  stroke:#000000; stroke-width:0; stroke-opacity:1;  stroke-linecap:round; stroke-linejoin:round;"
     id="g88" />
  <g
     style="fill:#000000;fill-opacity:1;stroke:#000000;stroke-width:0;stroke-linecap:round;stroke-linejoin:round;stroke-opacity:1"
     id="g94">
    <polyline
       style="fill-rule:evenodd"
       points="4153,10000 3326,10000 3326,9173 4153,9173 4153,10000 "
       id="polyline90" />
    <circle
       cx="1279.53"
       cy="1220.47"
       r="610.23602"
       id="circle92" />
  </g>
  <g
     style="fill:#000000; fill-opacity:1.0;  stroke:#000000; stroke-width:39.3701; stroke-opacity:1;  stroke-linecap:round; stroke-linejoin:round;"
     id="g96" />
  <g
     style="fill:#000000;fill-opacity:1;stroke:#000000;stroke-width:0;stroke-linecap:round;stroke-linejoin:round;stroke-opacity:1"
     id="g100">
    <circle
       cx="16633.9"
       cy="9094.4902"
       r="610.23602"
       id="circle98" />
  </g>
  <g
     style="fill:#000000; fill-opacity:1.0;  stroke:#000000; stroke-width:39.3701; stroke-opacity:1;  stroke-linecap:round; stroke-linejoin:round;"
     id="g102" />
  <g
     style="fill:#000000;fill-opacity:1;stroke:#000000;stroke-width:0;stroke-linecap:round;stroke-linejoin:round;stroke-opacity:1"
     id="g106">
    <circle
       cx="11752"
       cy="4842.52"
       r="529.52802"
       id="circle104" />
  </g>
  <g
     style="fill:#000000; fill-opacity:1.0;  stroke:#000000; stroke-width:39.3701; stroke-opacity:1;  stroke-linecap:round; stroke-linejoin:round;"
     id="g108" />
  <g
     style="fill:#000000;fill-opacity:1;stroke:#000000;stroke-width:0;stroke-linecap:round;stroke-linejoin:round;stroke-opacity:1"
     id="g112">
    <circle
       cx="2751.97"
       cy="4842.52"
       r="529.52802"
       id="circle110" />
  </g>
  <g
     style="fill:#000000; fill-opacity:1.0;  stroke:#000000; stroke-width:39.3701; stroke-opacity:1;  stroke-linecap:round; stroke-linejoin:round;"
     id="g114" />
  <g
     style="fill:#000000;fill-opacity:1;stroke:#000000;stroke-width:0;stroke-linecap:round;stroke-linejoin:round;stroke-opacity:1"
     id="g154">
    <polyline
       style="fill-rule:evenodd"
       points="797,4104 809,4106 821,4109 832,4113 844,4119 854,4125 864,4132 873,4141 881,4150 889,4160 895,4170 900,4181 905,4193 908,4205 909,4217 910,4229 910,4510 909,4522 908,4534 905,4546 900,4558 895,4569 889,4580 881,4589 873,4599 864,4607 854,4614 844,4621 832,4626 821,4630 809,4633 797,4635 784,4635 533,4635 521,4635 509,4633 497,4630 485,4626 474,4621 464,4614 454,4607 445,4599 436,4589 429,4580 423,4569 418,4558 413,4546 410,4534 409,4522 408,4510 408,4229 409,4217 410,4205 413,4193 418,4181 423,4170 429,4160 436,4150 445,4141 454,4132 464,4125 474,4119 485,4113 497,4109 509,4106 521,4104 533,4104 784,4104 797,4104 "
       id="polyline116" />
    <polyline
       style="fill-rule:evenodd"
       points="1417,4104 1429,4106 1441,4109 1453,4113 1464,4119 1474,4125 1484,4132 1493,4141 1502,4150 1509,4160 1515,4170 1520,4181 1525,4193 1528,4205 1529,4217 1530,4229 1530,4510 1529,4522 1528,4534 1525,4546 1520,4558 1515,4569 1509,4580 1502,4589 1493,4599 1484,4607 1474,4614 1464,4621 1453,4626 1441,4630 1429,4633 1417,4635 1405,4635 1154,4635 1141,4635 1129,4633 1117,4630 1106,4626 1094,4621 1084,4614 1074,4607 1065,4599 1057,4589 1049,4580 1043,4569 1038,4558 1033,4546 1030,4534 1029,4522 1028,4510 1028,4229 1029,4217 1030,4205 1033,4193 1038,4181 1043,4170 1049,4160 1057,4150 1065,4141 1074,4132 1084,4125 1094,4119 1106,4113 1117,4109 1129,4106 1141,4104 1154,4104 1405,4104 1417,4104 "
       id="polyline118" />
    <polyline
       style="fill-rule:evenodd"
       points="10487,7663 10499,7664 10511,7667 10522,7671 10534,7677 10544,7683 10554,7690 10563,7699 10571,7708 10579,7718 10585,7728 10590,7739 10594,7751 10597,7763 10599,7775 10600,7787 10600,8038 10599,8051 10597,8063 10594,8075 10590,8086 10585,8098 10579,8108 10571,8118 10563,8127 10554,8135 10544,8143 10534,8149 10522,8154 10511,8158 10499,8161 10487,8163 10474,8164 10194,8164 10182,8163 10169,8161 10157,8158 10146,8154 10135,8149 10124,8143 10114,8135 10105,8127 10097,8118 10090,8108 10083,8098 10078,8086 10074,8075 10071,8063 10069,8051 10068,8038 10068,7787 10069,7775 10071,7763 10074,7751 10078,7739 10083,7728 10090,7718 10097,7708 10105,7699 10114,7690 10124,7683 10135,7677 10146,7671 10157,7667 10169,7664 10182,7663 10194,7662 10474,7662 10487,7663 "
       id="polyline120" />
    <polyline
       style="fill-rule:evenodd"
       points="10487,7042 10499,7044 10511,7047 10522,7051 10534,7057 10544,7063 10554,7070 10563,7079 10571,7088 10579,7098 10585,7108 10590,7119 10594,7131 10597,7143 10599,7155 10600,7167 10600,7418 10599,7431 10597,7443 10594,7455 10590,7466 10585,7477 10579,7488 10571,7498 10563,7507 10554,7515 10544,7523 10534,7529 10522,7534 10511,7538 10499,7541 10487,7543 10474,7544 10194,7544 10182,7543 10169,7541 10157,7538 10146,7534 10135,7529 10124,7523 10114,7515 10105,7507 10097,7498 10090,7488 10083,7477 10078,7466 10074,7455 10071,7443 10069,7431 10068,7418 10068,7167 10069,7155 10071,7143 10074,7131 10078,7119 10083,7108 10090,7098 10097,7088 10105,7079 10114,7070 10124,7063 10135,7057 10146,7051 10157,7047 10169,7044 10182,7042 10194,7042 10474,7042 10487,7042 "
       id="polyline122" />
    <polyline
       style="fill-rule:evenodd"
       points="1417,3415 1429,3417 1441,3420 1453,3424 1464,3430 1474,3436 1484,3443 1493,3452 1502,3461 1509,3471 1515,3481 1520,3492 1525,3504 1528,3516 1529,3528 1530,3540 1530,3821 1529,3833 1528,3845 1525,3857 1520,3869 1515,3880 1509,3891 1502,3900 1493,3910 1484,3918 1474,3925 1464,3932 1453,3937 1441,3941 1429,3944 1417,3946 1405,3946 1154,3946 1141,3946 1129,3944 1117,3941 1106,3937 1094,3932 1084,3925 1074,3918 1065,3910 1057,3900 1049,3891 1043,3880 1038,3869 1033,3857 1030,3845 1029,3833 1028,3821 1028,3540 1029,3528 1030,3516 1033,3504 1038,3492 1043,3481 1049,3471 1057,3461 1065,3452 1074,3443 1084,3436 1094,3430 1106,3424 1117,3420 1129,3417 1141,3415 1154,3415 1405,3415 1417,3415 "
       id="polyline124" />
    <polyline
       style="fill-rule:evenodd"
       points="797,3415 809,3417 821,3420 832,3424 844,3430 854,3436 864,3443 873,3452 881,3461 889,3471 895,3481 900,3492 905,3504 908,3516 909,3528 910,3540 910,3821 909,3833 908,3845 905,3857 900,3869 895,3880 889,3891 881,3900 873,3910 864,3918 854,3925 844,3932 832,3937 821,3941 809,3944 797,3946 784,3946 533,3946 521,3946 509,3944 497,3941 485,3937 474,3932 464,3925 454,3918 445,3910 436,3900 429,3891 423,3880 418,3869 413,3857 410,3845 409,3833 408,3821 408,3540 409,3528 410,3516 413,3504 418,3492 423,3481 429,3471 436,3461 445,3452 454,3443 464,3436 474,3430 485,3424 497,3420 509,3417 521,3415 533,3415 784,3415 797,3415 "
       id="polyline126" />
    <polyline
       style="fill-rule:evenodd"
       points="12849,7579 12861,7581 12873,7584 12885,7588 12896,7593 12906,7599 12916,7607 12925,7615 12934,7624 12941,7634 12947,7645 12953,7656 12957,7667 12960,7679 12961,7691 12962,7704 12962,7955 12961,7967 12960,7979 12957,7991 12953,8003 12947,8014 12941,8024 12934,8034 12925,8043 12916,8052 12906,8059 12896,8065 12885,8071 12873,8075 12861,8078 12849,8080 12837,8080 12556,8080 12544,8080 12532,8078 12520,8075 12508,8071 12497,8065 12486,8059 12476,8052 12467,8043 12459,8034 12452,8024 12445,8014 12440,8003 12436,7991 12433,7979 12431,7967 12431,7955 12431,7704 12431,7691 12433,7679 12436,7667 12440,7656 12445,7645 12452,7634 12459,7624 12467,7615 12476,7607 12486,7599 12497,7593 12508,7588 12520,7584 12532,7581 12544,7579 12556,7578 12837,7578 12849,7579 "
       id="polyline128" />
    <polyline
       style="fill-rule:evenodd"
       points="12849,6959 12861,6961 12873,6964 12885,6968 12896,6973 12906,6979 12916,6987 12925,6995 12934,7004 12941,7014 12947,7024 12953,7036 12957,7047 12960,7059 12961,7071 12962,7084 12962,7335 12961,7347 12960,7359 12957,7371 12953,7383 12947,7394 12941,7404 12934,7414 12925,7423 12916,7432 12906,7439 12896,7445 12885,7451 12873,7455 12861,7458 12849,7460 12837,7460 12556,7460 12544,7460 12532,7458 12520,7455 12508,7451 12497,7445 12486,7439 12476,7432 12467,7423 12459,7414 12452,7404 12445,7394 12440,7383 12436,7371 12433,7359 12431,7347 12431,7335 12431,7084 12431,7071 12433,7059 12436,7047 12440,7036 12445,7024 12452,7014 12459,7004 12467,6995 12476,6987 12486,6979 12497,6973 12508,6968 12520,6964 12532,6961 12544,6959 12556,6958 12837,6958 12849,6959 "
       id="polyline130" />
    <polyline
       style="fill-rule:evenodd"
       points="14576,6663 14588,6665 14600,6668 14612,6672 14623,6678 14634,6684 14644,6691 14653,6700 14661,6709 14668,6719 14675,6729 14680,6740 14684,6752 14687,6764 14689,6776 14689,6788 14689,7069 14689,7081 14687,7093 14684,7105 14680,7117 14675,7128 14668,7139 14661,7149 14653,7158 14644,7166 14634,7173 14623,7180 14612,7185 14600,7189 14588,7192 14576,7194 14564,7194 14313,7194 14301,7194 14289,7192 14277,7189 14265,7185 14254,7180 14243,7173 14233,7166 14224,7158 14216,7149 14209,7139 14202,7128 14197,7117 14193,7105 14190,7093 14188,7081 14187,7069 14187,6788 14188,6776 14190,6764 14193,6752 14197,6740 14202,6729 14209,6719 14216,6709 14224,6700 14233,6691 14243,6684 14254,6678 14265,6672 14277,6668 14289,6665 14301,6663 14313,6663 14564,6663 14576,6663 "
       id="polyline132" />
    <polyline
       style="fill-rule:evenodd"
       points="15196,6663 15209,6665 15220,6668 15232,6672 15243,6678 15254,6684 15264,6691 15273,6700 15281,6709 15288,6719 15295,6729 15300,6740 15304,6752 15307,6764 15309,6776 15310,6788 15310,7069 15309,7081 15307,7093 15304,7105 15300,7117 15295,7128 15288,7139 15281,7149 15273,7158 15264,7166 15254,7173 15243,7180 15232,7185 15220,7189 15209,7192 15196,7194 15184,7194 14933,7194 14921,7194 14909,7192 14897,7189 14885,7185 14874,7180 14863,7173 14853,7166 14844,7158 14836,7149 14829,7139 14822,7128 14817,7117 14813,7105 14810,7093 14808,7081 14808,7069 14808,6788 14808,6776 14810,6764 14813,6752 14817,6740 14822,6729 14829,6719 14836,6709 14844,6700 14853,6691 14863,6684 14874,6678 14885,6672 14897,6668 14909,6665 14921,6663 14933,6663 15184,6663 15196,6663 "
       id="polyline134" />
    <polyline
       style="fill-rule:evenodd"
       points="14576,6073 14588,6075 14600,6078 14612,6082 14623,6087 14634,6093 14644,6101 14653,6109 14661,6118 14668,6128 14675,6139 14680,6150 14684,6161 14687,6173 14689,6186 14689,6198 14689,6478 14689,6491 14687,6503 14684,6515 14680,6526 14675,6537 14668,6548 14661,6558 14653,6567 14644,6575 14634,6583 14623,6589 14612,6594 14600,6598 14588,6601 14576,6603 14564,6604 14313,6604 14301,6603 14289,6601 14277,6598 14265,6594 14254,6589 14243,6583 14233,6575 14224,6567 14216,6558 14209,6548 14202,6537 14197,6526 14193,6515 14190,6503 14188,6491 14187,6478 14187,6198 14188,6186 14190,6173 14193,6161 14197,6150 14202,6139 14209,6128 14216,6118 14224,6109 14233,6101 14243,6093 14254,6087 14265,6082 14277,6078 14289,6075 14301,6073 14313,6072 14564,6072 14576,6073 "
       id="polyline136" />
    <polyline
       style="fill-rule:evenodd"
       points="15196,6073 15209,6075 15220,6078 15232,6082 15243,6087 15254,6093 15264,6101 15273,6109 15281,6118 15288,6128 15295,6139 15300,6150 15304,6161 15307,6173 15309,6186 15310,6198 15310,6478 15309,6491 15307,6503 15304,6515 15300,6526 15295,6537 15288,6548 15281,6558 15273,6567 15264,6575 15254,6583 15243,6589 15232,6594 15220,6598 15209,6601 15196,6603 15184,6604 14933,6604 14921,6603 14909,6601 14897,6598 14885,6594 14874,6589 14863,6583 14853,6575 14844,6567 14836,6558 14829,6548 14822,6537 14817,6526 14813,6515 14810,6503 14808,6491 14808,6478 14808,6198 14808,6186 14810,6173 14813,6161 14817,6150 14822,6139 14829,6128 14836,6118 14844,6109 14853,6101 14863,6093 14874,6087 14885,6082 14897,6078 14909,6075 14921,6073 14933,6072 15184,6072 15196,6073 "
       id="polyline138" />
    <polyline
       style="fill-rule:evenodd"
       points="14493,2726 14505,2728 14517,2731 14528,2735 14539,2741 14550,2747 14560,2754 14569,2763 14577,2772 14585,2782 14591,2792 14596,2803 14600,2815 14603,2827 14605,2839 14606,2851 14606,3132 14605,3144 14603,3156 14600,3168 14596,3180 14591,3191 14585,3202 14577,3211 14569,3221 14560,3229 14550,3236 14539,3243 14528,3248 14517,3252 14505,3255 14493,3257 14480,3257 14229,3257 14217,3257 14205,3255 14193,3252 14181,3248 14170,3243 14160,3236 14150,3229 14141,3221 14132,3211 14125,3202 14119,3191 14113,3180 14109,3168 14106,3156 14104,3144 14104,3132 14104,2851 14104,2839 14106,2827 14109,2815 14113,2803 14119,2792 14125,2782 14132,2772 14141,2763 14150,2754 14160,2747 14170,2741 14181,2735 14193,2731 14205,2728 14217,2726 14229,2726 14480,2726 14493,2726 "
       id="polyline140" />
    <polyline
       style="fill-rule:evenodd"
       points="15113,2726 15125,2728 15137,2731 15148,2735 15160,2741 15170,2747 15180,2754 15189,2763 15197,2772 15205,2782 15211,2792 15216,2803 15220,2815 15223,2827 15225,2839 15226,2851 15226,3132 15225,3144 15223,3156 15220,3168 15216,3180 15211,3191 15205,3202 15197,3211 15189,3221 15180,3229 15170,3236 15160,3243 15148,3248 15137,3252 15125,3255 15113,3257 15100,3257 14849,3257 14837,3257 14825,3255 14813,3252 14801,3248 14790,3243 14780,3236 14770,3229 14761,3221 14752,3211 14745,3202 14739,3191 14733,3180 14729,3168 14726,3156 14725,3144 14724,3132 14724,2851 14725,2839 14726,2827 14729,2815 14733,2803 14739,2792 14745,2782 14752,2772 14761,2763 14770,2754 14780,2747 14790,2741 14801,2735 14813,2731 14825,2728 14837,2726 14849,2726 15100,2726 15113,2726 "
       id="polyline142" />
    <polyline
       style="fill-rule:evenodd"
       points="15113,2136 15125,2138 15137,2141 15148,2145 15160,2150 15170,2156 15180,2164 15189,2172 15197,2181 15205,2191 15211,2202 15216,2213 15220,2224 15223,2236 15225,2249 15226,2261 15226,2541 15225,2554 15223,2566 15220,2578 15216,2589 15211,2600 15205,2611 15197,2621 15189,2630 15180,2638 15170,2646 15160,2652 15148,2657 15137,2661 15125,2664 15113,2666 15100,2667 14849,2667 14837,2666 14825,2664 14813,2661 14801,2657 14790,2652 14780,2646 14770,2638 14761,2630 14752,2621 14745,2611 14739,2600 14733,2589 14729,2578 14726,2566 14725,2554 14724,2541 14724,2261 14725,2249 14726,2236 14729,2224 14733,2213 14739,2202 14745,2191 14752,2181 14761,2172 14770,2164 14780,2156 14790,2150 14801,2145 14813,2141 14825,2138 14837,2136 14849,2135 15100,2135 15113,2136 "
       id="polyline144" />
    <polyline
       style="fill-rule:evenodd"
       points="14493,2136 14505,2138 14517,2141 14528,2145 14539,2150 14550,2156 14560,2164 14569,2172 14577,2181 14585,2191 14591,2202 14596,2213 14600,2224 14603,2236 14605,2249 14606,2261 14606,2541 14605,2554 14603,2566 14600,2578 14596,2589 14591,2600 14585,2611 14577,2621 14569,2630 14560,2638 14550,2646 14539,2652 14528,2657 14517,2661 14505,2664 14493,2666 14480,2667 14229,2667 14217,2666 14205,2664 14193,2661 14181,2657 14170,2652 14160,2646 14150,2638 14141,2630 14132,2621 14125,2611 14119,2600 14113,2589 14109,2578 14106,2566 14104,2554 14104,2541 14104,2261 14104,2249 14106,2236 14109,2224 14113,2213 14119,2202 14125,2191 14132,2181 14141,2172 14150,2164 14160,2156 14170,2150 14181,2145 14193,2141 14205,2138 14217,2136 14229,2135 14480,2135 14493,2136 "
       id="polyline146" />
    <polyline
       style="fill-rule:evenodd"
       points="11299,6161 11299,6515 10944,6515 10944,6161 11299,6161 "
       id="polyline148" />
    <polyline
       style="fill-rule:evenodd"
       points="10433,6161 10433,6515 10078,6515 10078,6161 10433,6161 "
       id="polyline150" />
    <polyline
       style="fill-rule:evenodd"
       points="14291,1240 13464,1240 13464,413 14291,413 14291,1240 "
       id="polyline152" />
  </g>
  <g
     style="fill:#000000; fill-opacity:1.0;  stroke:#000000; stroke-width:826.772; stroke-opacity:1;  stroke-linecap:round; stroke-linejoin:round;"
     id="g156" />
  <g
     style="fill:#000000;fill-opacity:0;stroke:#000000;stroke-width:826.77197266;stroke-linecap:round;stroke-linejoin:round;stroke-opacity:1"
     id="g168">
    <path
       d="m 14877,826 v 0"
       id="path158"
       inkscape:connector-curvature="0" />
    <path
       d="m 15877,826 v 0"
       id="path160"
       inkscape:connector-curvature="0" />
    <path
       d="m 16877,826 v 0"
       id="path162"
       inkscape:connector-curvature="0" />
    <path
       d="m 17877,826 v 0"
       id="path164"
       inkscape:connector-curvature="0" />
    <path
       d="m 18877,826 v 0"
       id="path166"
       inkscape:connector-curvature="0" />
  </g>
  <g
     style="fill:#000000; fill-opacity:0.0;  stroke:#000000; stroke-width:0; stroke-opacity:1;  stroke-linecap:round; stroke-linejoin:round;"
     id="g170" />
  <g
     style="fill:#000000;fill-opacity:1;stroke:#000000;stroke-width:0;stroke-linecap:round;stroke-linejoin:round;stroke-opacity:1"
     id="g174">
    <polyline
       style="fill-rule:evenodd"
       points="12381,413 13208,413 13208,1240 12381,1240 12381,413 "
       id="polyline172" />
  </g>
  <g
     style="fill:#000000; fill-opacity:1.0;  stroke:#000000; stroke-width:826.772; stroke-opacity:1;  stroke-linecap:round; stroke-linejoin:round;"
     id="g176" />
  <g
     style="fill:#000000;fill-opacity:0;stroke:#000000;stroke-width:826.77197266;stroke-linecap:round;stroke-linejoin:round;stroke-opacity:1"
     id="g184">
    <path
       d="m 11795,826 v 0"
       id="path178"
       inkscape:connector-curvature="0" />
    <path
       d="m 10795,826 v 0"
       id="path180"
       inkscape:connector-curvature="0" />
    <path
       d="m 9795,826 v 0"
       id="path182"
       inkscape:connector-curvature="0" />
  </g>
  <g
     style="fill:#000000; fill-opacity:0.0;  stroke:#000000; stroke-width:0; stroke-opacity:1;  stroke-linecap:round; stroke-linejoin:round;"
     id="g186" />
  <g
     style="fill:#000000;fill-opacity:1;stroke:#000000;stroke-width:0;stroke-linecap:round;stroke-linejoin:round;stroke-opacity:1"
     id="g350">
    <polyline
       style="fill-rule:evenodd"
       points="3006,8056 3019,8058 3031,8061 3042,8065 3053,8070 3064,8077 3074,8084 3083,8092 3091,8101 3098,8111 3105,8122 3110,8133 3114,8145 3117,8157 3119,8169 3120,8181 3120,8432 3119,8444 3117,8457 3114,8469 3110,8480 3105,8491 3098,8502 3091,8512 3083,8521 3074,8529 3064,8536 3053,8543 3042,8548 3031,8552 3019,8555 3006,8557 2994,8558 2714,8558 2701,8557 2689,8555 2677,8552 2666,8548 2654,8543 2644,8536 2634,8529 2625,8521 2617,8512 2609,8502 2603,8491 2598,8480 2593,8469 2590,8457 2589,8444 2588,8432 2588,8181 2589,8169 2590,8157 2593,8145 2598,8133 2603,8122 2609,8111 2617,8101 2625,8092 2634,8084 2644,8077 2654,8070 2666,8065 2677,8061 2689,8058 2701,8056 2714,8056 2994,8056 3006,8056 "
       id="polyline188" />
    <polyline
       style="fill-rule:evenodd"
       points="3006,7436 3019,7438 3031,7441 3042,7445 3053,7450 3064,7457 3074,7464 3083,7472 3091,7481 3098,7491 3105,7502 3110,7513 3114,7525 3117,7537 3119,7549 3120,7561 3120,7812 3119,7824 3117,7836 3114,7848 3110,7860 3105,7871 3098,7882 3091,7892 3083,7901 3074,7909 3064,7916 3053,7923 3042,7928 3031,7932 3019,7935 3006,7937 2994,7937 2714,7937 2701,7937 2689,7935 2677,7932 2666,7928 2654,7923 2644,7916 2634,7909 2625,7901 2617,7892 2609,7882 2603,7871 2598,7860 2593,7848 2590,7836 2589,7824 2588,7812 2588,7561 2589,7549 2590,7537 2593,7525 2598,7513 2603,7502 2609,7491 2617,7481 2625,7472 2634,7464 2644,7457 2654,7450 2666,7445 2677,7441 2689,7438 2701,7436 2714,7436 2994,7436 3006,7436 "
       id="polyline190" />
    <polyline
       style="fill-rule:evenodd"
       points="2219,7436 2231,7438 2243,7441 2255,7445 2266,7450 2276,7457 2286,7464 2295,7472 2304,7481 2311,7491 2317,7502 2323,7513 2327,7525 2330,7537 2332,7549 2332,7561 2332,7812 2332,7824 2330,7836 2327,7848 2323,7860 2317,7871 2311,7882 2304,7892 2295,7901 2286,7909 2276,7916 2266,7923 2255,7928 2243,7932 2231,7935 2219,7937 2207,7937 1926,7937 1914,7937 1902,7935 1890,7932 1878,7928 1867,7923 1856,7916 1847,7909 1837,7901 1829,7892 1822,7882 1815,7871 1810,7860 1806,7848 1803,7836 1801,7824 1801,7812 1801,7561 1801,7549 1803,7537 1806,7525 1810,7513 1815,7502 1822,7491 1829,7481 1837,7472 1847,7464 1856,7457 1867,7450 1878,7445 1890,7441 1902,7438 1914,7436 1926,7436 2207,7436 2219,7436 "
       id="polyline192" />
    <polyline
       style="fill-rule:evenodd"
       points="2219,8056 2231,8058 2243,8061 2255,8065 2266,8070 2276,8077 2286,8084 2295,8092 2304,8101 2311,8111 2317,8122 2323,8133 2327,8145 2330,8157 2332,8169 2332,8181 2332,8432 2332,8444 2330,8457 2327,8469 2323,8480 2317,8491 2311,8502 2304,8512 2295,8521 2286,8529 2276,8536 2266,8543 2255,8548 2243,8552 2231,8555 2219,8557 2207,8558 1926,8558 1914,8557 1902,8555 1890,8552 1878,8548 1867,8543 1856,8536 1847,8529 1837,8521 1829,8512 1822,8502 1815,8491 1810,8480 1806,8469 1803,8457 1801,8444 1801,8432 1801,8181 1801,8169 1803,8157 1806,8145 1810,8133 1815,8122 1822,8111 1829,8101 1837,8092 1847,8084 1856,8077 1867,8070 1878,8065 1890,8061 1902,8058 1914,8056 1926,8056 2207,8056 2219,8056 "
       id="polyline194" />
    <polyline
       style="fill-rule:evenodd"
       points="13833,2741 13845,2743 13857,2746 13869,2750 13880,2755 13891,2762 13900,2769 13910,2777 13918,2787 13925,2796 13932,2807 13937,2818 13941,2830 13944,2842 13946,2854 13946,2866 13946,3117 13946,3129 13944,3142 13941,3154 13937,3165 13932,3176 13925,3187 13918,3197 13910,3206 13900,3214 13891,3221 13880,3228 13869,3233 13857,3237 13845,3240 13833,3242 13821,3243 13540,3243 13528,3242 13516,3240 13504,3237 13492,3233 13481,3228 13471,3221 13461,3214 13452,3206 13443,3197 13436,3187 13430,3176 13424,3165 13420,3154 13417,3142 13415,3129 13415,3117 13415,2866 13415,2854 13417,2842 13420,2830 13424,2818 13430,2807 13436,2796 13443,2787 13452,2777 13461,2769 13471,2762 13481,2755 13492,2750 13504,2746 13516,2743 13528,2741 13540,2741 13821,2741 13833,2741 "
       id="polyline196" />
    <polyline
       style="fill-rule:evenodd"
       points="13833,2121 13845,2123 13857,2126 13869,2130 13880,2135 13891,2142 13900,2149 13910,2157 13918,2166 13925,2176 13932,2187 13937,2198 13941,2210 13944,2222 13946,2234 13946,2246 13946,2497 13946,2509 13944,2522 13941,2533 13937,2545 13932,2556 13925,2567 13918,2577 13910,2586 13900,2594 13891,2601 13880,2608 13869,2613 13857,2617 13845,2620 13833,2622 13821,2623 13540,2623 13528,2622 13516,2620 13504,2617 13492,2613 13481,2608 13471,2601 13461,2594 13452,2586 13443,2577 13436,2567 13430,2556 13424,2545 13420,2533 13417,2522 13415,2509 13415,2497 13415,2246 13415,2234 13417,2222 13420,2210 13424,2198 13430,2187 13436,2176 13443,2166 13452,2157 13461,2149 13471,2142 13481,2135 13492,2130 13504,2126 13516,2123 13528,2121 13540,2121 13821,2121 13833,2121 "
       id="polyline198" />
    <polyline
       style="fill-rule:evenodd"
       points="17618,4763 17618,4448 18129,4448 18129,4763 17618,4763 "
       id="polyline200" />
    <polyline
       style="fill-rule:evenodd"
       points="17618,5078 17618,4763 18129,4763 18129,5078 17618,5078 "
       id="polyline202" />
    <polyline
       style="fill-rule:evenodd"
       points="17618,4448 17618,4133 18129,4133 18129,4448 17618,4448 "
       id="polyline204" />
    <polyline
       style="fill-rule:evenodd"
       points="17618,5393 17618,5078 18129,5078 18129,5393 17618,5393 "
       id="polyline206" />
    <polyline
       style="fill-rule:evenodd"
       points="18287,4448 18287,4133 18799,4133 18799,4448 18287,4448 "
       id="polyline208" />
    <polyline
       style="fill-rule:evenodd"
       points="18287,4763 18287,4448 18799,4448 18799,4763 18287,4763 "
       id="polyline210" />
    <polyline
       style="fill-rule:evenodd"
       points="18287,5078 18287,4763 18799,4763 18799,5078 18287,5078 "
       id="polyline212" />
    <polyline
       style="fill-rule:evenodd"
       points="18287,5393 18287,5078 18799,5078 18799,5393 18287,5393 "
       id="polyline214" />
    <polyline
       style="fill-rule:evenodd"
       points="11377,7283 11377,7755 10866,7755 10866,7283 11377,7283 "
       id="polyline216" />
    <polyline
       style="fill-rule:evenodd"
       points="12165,6909 12165,7381 11653,7381 11653,6909 12165,6909 "
       id="polyline218" />
    <polyline
       style="fill-rule:evenodd"
       points="12165,7657 12165,8129 11653,8129 11653,7657 12165,7657 "
       id="polyline220" />
    <polyline
       style="fill-rule:evenodd"
       points="1909,6210 1909,6584 1594,6584 1594,6210 1909,6210 "
       id="polyline222" />
    <polyline
       style="fill-rule:evenodd"
       points="1594,6210 1594,6584 1279,6584 1279,6210 1594,6210 "
       id="polyline224" />
    <polyline
       style="fill-rule:evenodd"
       points="1279,6210 1279,6584 964,6584 964,6210 1279,6210 "
       id="polyline226" />
    <polyline
       style="fill-rule:evenodd"
       points="964,6210 964,6584 649,6584 649,6210 964,6210 "
       id="polyline228" />
    <polyline
       style="fill-rule:evenodd"
       points="964,5305 964,5679 649,5679 649,5305 964,5305 "
       id="polyline230" />
    <polyline
       style="fill-rule:evenodd"
       points="1279,5305 1279,5679 964,5679 964,5305 1279,5305 "
       id="polyline232" />
    <polyline
       style="fill-rule:evenodd"
       points="1594,5305 1594,5679 1279,5679 1279,5305 1594,5305 "
       id="polyline234" />
    <polyline
       style="fill-rule:evenodd"
       points="1909,5305 1909,5679 1594,5679 1594,5305 1909,5305 "
       id="polyline236" />
    <polyline
       style="fill-rule:evenodd"
       points="8956,1377 9507,1377 9507,2322 8956,2322 8956,1377 "
       id="polyline238" />
    <polyline
       style="fill-rule:evenodd"
       points="8169,1377 8720,1377 8720,2322 8169,2322 8169,1377 "
       id="polyline240" />
    <polyline
       style="fill-rule:evenodd"
       points="7381,1377 7933,1377 7933,2322 7381,2322 7381,1377 "
       id="polyline242" />
    <polyline
       style="fill-rule:evenodd"
       points="6594,1377 7145,1377 7145,2322 6594,2322 6594,1377 "
       id="polyline244" />
    <polyline
       style="fill-rule:evenodd"
       points="5807,1377 6358,1377 6358,2322 5807,2322 5807,1377 "
       id="polyline246" />
    <polyline
       style="fill-rule:evenodd"
       points="5019,1377 5570,1377 5570,2322 5019,2322 5019,1377 "
       id="polyline248" />
    <polyline
       style="fill-rule:evenodd"
       points="4232,1377 4783,1377 4783,2322 4232,2322 4232,1377 "
       id="polyline250" />
    <polyline
       style="fill-rule:evenodd"
       points="3444,1377 3996,1377 3996,2322 3444,2322 3444,1377 "
       id="polyline252" />
    <polyline
       style="fill-rule:evenodd"
       points="3444,7677 3996,7677 3996,8622 3444,8622 3444,7677 "
       id="polyline254" />
    <polyline
       style="fill-rule:evenodd"
       points="4232,7677 4783,7677 4783,8622 4232,8622 4232,7677 "
       id="polyline256" />
    <polyline
       style="fill-rule:evenodd"
       points="5019,7677 5570,7677 5570,8622 5019,8622 5019,7677 "
       id="polyline258" />
    <polyline
       style="fill-rule:evenodd"
       points="5807,7677 6358,7677 6358,8622 5807,8622 5807,7677 "
       id="polyline260" />
    <polyline
       style="fill-rule:evenodd"
       points="6594,7677 7145,7677 7145,8622 6594,8622 6594,7677 "
       id="polyline262" />
    <polyline
       style="fill-rule:evenodd"
       points="7381,7677 7933,7677 7933,8622 7381,8622 7381,7677 "
       id="polyline264" />
    <polyline
       style="fill-rule:evenodd"
       points="8169,7677 8720,7677 8720,8622 8169,8622 8169,7677 "
       id="polyline266" />
    <polyline
       style="fill-rule:evenodd"
       points="8956,7677 9507,7677 9507,8622 8956,8622 8956,7677 "
       id="polyline268" />
    <polyline
       style="fill-rule:evenodd"
       points="14331,5413 14212,5413 14212,5275 14331,5275 14331,5413 "
       id="polyline270" />
    <polyline
       style="fill-rule:evenodd"
       points="14527,5413 14409,5413 14409,5137 14527,5137 14527,5413 "
       id="polyline272" />
    <polyline
       style="fill-rule:evenodd"
       points="14724,5413 14605,5413 14605,5137 14724,5137 14724,5413 "
       id="polyline274" />
    <polyline
       style="fill-rule:evenodd"
       points="14921,5413 14802,5413 14802,5137 14921,5137 14921,5413 "
       id="polyline276" />
    <polyline
       style="fill-rule:evenodd"
       points="15118,5413 14999,5413 14999,5275 15118,5275 15118,5413 "
       id="polyline278" />
    <polyline
       style="fill-rule:evenodd"
       points="15315,5216 15176,5216 15176,5098 15315,5098 15315,5216 "
       id="polyline280" />
    <polyline
       style="fill-rule:evenodd"
       points="15315,5020 15038,5020 15038,4901 15315,4901 15315,5020 "
       id="polyline282" />
    <polyline
       style="fill-rule:evenodd"
       points="15315,4823 15038,4823 15038,4704 15315,4704 15315,4823 "
       id="polyline284" />
    <polyline
       style="fill-rule:evenodd"
       points="15315,4626 15038,4626 15038,4507 15315,4507 15315,4626 "
       id="polyline286" />
    <polyline
       style="fill-rule:evenodd"
       points="15315,4429 15176,4429 15176,4310 15315,4310 15315,4429 "
       id="polyline288" />
    <polyline
       style="fill-rule:evenodd"
       points="15118,4252 14999,4252 14999,4113 15118,4113 15118,4252 "
       id="polyline290" />
    <polyline
       style="fill-rule:evenodd"
       points="14921,4390 14802,4390 14802,4113 14921,4113 14921,4390 "
       id="polyline292" />
    <polyline
       style="fill-rule:evenodd"
       points="14724,4390 14605,4390 14605,4113 14724,4113 14724,4390 "
       id="polyline294" />
    <polyline
       style="fill-rule:evenodd"
       points="14527,4390 14409,4390 14409,4113 14527,4113 14527,4390 "
       id="polyline296" />
    <polyline
       style="fill-rule:evenodd"
       points="14331,4252 14212,4252 14212,4113 14331,4113 14331,4252 "
       id="polyline298" />
    <polyline
       style="fill-rule:evenodd"
       points="14153,4429 14015,4429 14015,4310 14153,4310 14153,4429 "
       id="polyline300" />
    <polyline
       style="fill-rule:evenodd"
       points="14291,4626 14015,4626 14015,4507 14291,4507 14291,4626 "
       id="polyline302" />
    <polyline
       style="fill-rule:evenodd"
       points="14291,4823 14015,4823 14015,4704 14291,4704 14291,4823 "
       id="polyline304" />
    <polyline
       style="fill-rule:evenodd"
       points="14291,5020 14015,5020 14015,4901 14291,4901 14291,5020 "
       id="polyline306" />
    <polyline
       style="fill-rule:evenodd"
       points="14153,5216 14015,5216 14015,5098 14153,5098 14153,5216 "
       id="polyline308" />
    <polyline
       style="fill-rule:evenodd"
       points="14331,5275 14271,5275 14271,5216 14331,5216 14331,5275 "
       id="polyline310" />
    <polyline
       style="fill-rule:evenodd"
       points="15059,5275 14999,5275 14999,5216 15059,5216 15059,5275 "
       id="polyline312" />
    <polyline
       style="fill-rule:evenodd"
       points="15177,5157 15117,5157 15117,5098 15177,5098 15177,5157 "
       id="polyline314" />
    <polyline
       style="fill-rule:evenodd"
       points="15177,4429 15117,4429 15117,4369 15177,4369 15177,4429 "
       id="polyline316" />
    <polyline
       style="fill-rule:evenodd"
       points="15059,4311 14999,4311 14999,4251 15059,4251 15059,4311 "
       id="polyline318" />
    <polyline
       style="fill-rule:evenodd"
       points="14331,4311 14271,4311 14271,4251 14331,4251 14331,4311 "
       id="polyline320" />
    <polyline
       style="fill-rule:evenodd"
       points="14212,4429 14153,4429 14153,4369 14212,4369 14212,4429 "
       id="polyline322" />
    <polyline
       style="fill-rule:evenodd"
       points="14212,5157 14153,5157 14153,5098 14212,5098 14212,5157 "
       id="polyline324" />
    <polyline
       style="fill-rule:evenodd"
       points="14213,5157 14153,5217 14093,5157 14153,5097 14213,5157 "
       id="polyline326" />
    <polyline
       style="fill-rule:evenodd"
       points="14213,4370 14153,4429 14093,4370 14153,4310 14213,4370 "
       id="polyline328" />
    <polyline
       style="fill-rule:evenodd"
       points="15236,5157 15177,5217 15117,5157 15177,5097 15236,5157 "
       id="polyline330" />
    <polyline
       style="fill-rule:evenodd"
       points="15236,4370 15177,4429 15117,4370 15177,4310 15236,4370 "
       id="polyline332" />
    <polyline
       style="fill-rule:evenodd"
       points="14331,5275 14271,5335 14212,5275 14271,5216 14331,5275 "
       id="polyline334" />
    <polyline
       style="fill-rule:evenodd"
       points="14331,4251 14271,4311 14212,4251 14271,4192 14331,4251 "
       id="polyline336" />
    <polyline
       style="fill-rule:evenodd"
       points="15118,5275 15059,5335 14999,5275 15059,5216 15118,5275 "
       id="polyline338" />
    <polyline
       style="fill-rule:evenodd"
       points="15118,4251 15059,4311 14999,4251 15059,4192 15118,4251 "
       id="polyline340" />
    <polyline
       style="fill-rule:evenodd"
       points="15039,5137 15000,5137 15000,5098 15039,5098 15039,5137 "
       id="polyline342" />
    <polyline
       style="fill-rule:evenodd"
       points="15039,4429 15000,4429 15000,4389 15039,4389 15039,4429 "
       id="polyline344" />
    <polyline
       style="fill-rule:evenodd"
       points="14330,4429 14291,4429 14291,4389 14330,4389 14330,4429 "
       id="polyline346" />
    <polyline
       style="fill-rule:evenodd"
       points="14330,5137 14291,5137 14291,5098 14330,5098 14330,5137 "
       id="polyline348" />
  </g>
  <g
     style="fill:#000000; fill-opacity:1.0;  stroke:#000000; stroke-width:826.772; stroke-opacity:1;  stroke-linecap:round; stroke-linejoin:round;"
     id="g352" />
  <g
     style="fill:#000000;fill-opacity:0;stroke:#000000;stroke-width:826.77197266;stroke-linecap:round;stroke-linejoin:round;stroke-opacity:1"
     id="g356">
    <path
       d="m 4740,9586 v 0"
       id="path354"
       inkscape:connector-curvature="0" />
  </g>
  <g
     style="fill:#000000; fill-opacity:0.0;  stroke:#000000; stroke-width:0; stroke-opacity:1;  stroke-linecap:round; stroke-linejoin:round;"
     id="g358" />
  <g
     style="fill:#000000;fill-opacity:1;stroke:#000000;stroke-width:0;stroke-linecap:round;stroke-linejoin:round;stroke-opacity:1"
     id="g364">
    <polyline
       style="fill-rule:evenodd"
       points="4153,10000 3326,10000 3326,9173 4153,9173 4153,10000 "
       id="polyline360" />
    <circle
       cx="1279.53"
       cy="1220.47"
       r="610.23602"
       id="circle362" />
  </g>
  <g
     style="fill:#000000; fill-opacity:1.0;  stroke:#000000; stroke-width:39.3701; stroke-opacity:1;  stroke-linecap:round; stroke-linejoin:round;"
     id="g366" />
  <g
     style="fill:#000000;fill-opacity:0;stroke:#000000;stroke-width:59.05509949;stroke-linecap:round;stroke-linejoin:round;stroke-opacity:1"
     id="g376">
    <path
       d="M 492.126,39.3705 A 393.701,393.701 0 0 0 98.4252,433.071"
       id="path368"
       inkscape:connector-curvature="0" />
    <path
       d="M 98.4252,9881.89 A 393.701,393.701 0 0 0 492.126,10275.6"
       id="path370"
       inkscape:connector-curvature="0" />
    <path
       d="M 19389.8,433.071 A 393.701,393.701 0 0 0 18996.1,39.3705"
       id="path372"
       inkscape:connector-curvature="0" />
    <path
       d="m 18996.1,10275.6 a 393.701,393.701 0 0 0 393.7,-393.71"
       id="path374"
       inkscape:connector-curvature="0" />
  </g>
  <g
     style="fill:#000000;fill-opacity:0;stroke:#000000;stroke-width:78.74019623;stroke-linecap:round;stroke-linejoin:round;stroke-opacity:1"
     id="g386">
    <path
       d="M 98,9881 V 433"
       id="path378"
       inkscape:connector-curvature="0" />
    <path
       d="M 18996,10275 H 492"
       id="path380"
       inkscape:connector-curvature="0" />
    <path
       d="M 19389,433 V 9881"
       id="path382"
       inkscape:connector-curvature="0" />
    <path
       d="M 492,39 H 18996"
       id="path384"
       inkscape:connector-curvature="0" />
  </g>
  <text
     xml:space="preserve"
     style="font-style:normal;font-variant:normal;font-weight:normal;font-stretch:normal;font-size:1587.23352051px;line-height:1.25;font-family:'Venus Rising';-inkscape-font-specification:'Venus Rising';letter-spacing:0px;word-spacing:0px;fill:#ff2a2a;fill-opacity:1;stroke:none;stroke-width:104.16665649"
     x="-7317.9404"
     y="-7885.1152"
     id="text4892"
     transform="scale(0.90602015,1.1037282)"
     inkscape:export-xdpi="800"
     inkscape:export-ydpi="800"><tspan
       sodipodi:role="line"
       id="tspan4890"
       x="-7317.9404"
       y="-7885.1152"
       style="fill:#ff2a2a;stroke-width:104.16665649">Lora</tspan></text>
  <text
     xml:space="preserve"
     style="font-style:normal;font-variant:normal;font-weight:normal;font-stretch:normal;font-size:718.26080322px;line-height:1.25;font-family:'Venus Rising';-inkscape-font-specification:'Venus Rising';letter-spacing:0px;word-spacing:0px;fill:#ff2a2a;fill-opacity:1;stroke:none;stroke-width:104.16665649"
     x="-3212.3923"
     y="-9395.5225"
     id="text4896"
     transform="scale(1.2014909,0.83229928)"
     inkscape:export-xdpi="800"
     inkscape:export-ydpi="800"><tspan
       sodipodi:role="line"
       id="tspan4894"
       x="-3084.7327"
       y="-9395.5225"
       style="text-align:center;text-anchor:middle;fill:#ff2a2a;stroke-width:104.16665649">Much </tspan><tspan
       sodipodi:role="line"
       x="-3212.3923"
       y="-8497.6963"
       style="text-align:center;text-anchor:middle;fill:#ff2a2a;stroke-width:104.16665649"
       id="tspan4902">range</tspan><tspan
       sodipodi:role="line"
       x="-3212.3923"
       y="-7599.8701"
       style="text-align:center;text-anchor:middle;fill:#ff2a2a;stroke-width:104.16665649"
       id="tspan4898">very</tspan><tspan
       sodipodi:role="line"
       x="-3212.3923"
       y="-6702.0439"
       style="text-align:center;text-anchor:middle;fill:#ff2a2a;stroke-width:104.16665649"
       id="tspan4900">wow</tspan></text>
  <flowRoot
     xml:space="preserve"
     id="flowRoot4904"
     style="fill:black;fill-opacity:1;stroke:none;font-family:'Venus Rising';font-style:normal;font-weight:normal;font-size:18.66666667px;line-height:1.25;letter-spacing:0px;word-spacing:0px;-inkscape-font-specification:'Venus Rising';font-stretch:normal;font-variant:normal"><flowRegion
       id="flowRegion4906"><rect
         id="rect4908"
         width="1.5315616"
         height="19.279657"
         x="112.61482"
         y="95.282234" /></flowRegion><flowPara
       id="flowPara4910"></flowPara></flowRoot>  <text
     xml:space="preserve"
     style="font-style:normal;font-variant:normal;font-weight:normal;font-stretch:normal;font-size:1482.11816406px;line-height:1.25;font-family:'Venus Rising';-inkscape-font-specification:'Venus Rising';letter-spacing:0px;word-spacing:0px;fill:#000000;fill-opacity:1;stroke:none;stroke-width:104.16665649"
     x="-798.71747"
     y="-2715.2632"
     id="text4914"
     transform="scale(0.98286782,1.0174308)"
     inkscape:export-xdpi="800"
     inkscape:export-ydpi="800"><tspan
       sodipodi:role="line"
       id="tspan4912"
       x="-798.71747"
       y="-2715.2632"
       style="fill:#ff2a2a;stroke-width:104.16665649">R.A.I.N</tspan></text>
  <path
     style="fill:none;stroke:#000000;stroke-width:104.16665649px;stroke-linecap:butt;stroke-linejoin:miter;stroke-opacity:1"
     d="m 6212.5839,9427.8503 c -9.3844,497.3821 -9.3844,506.7667 -9.3844,506.7667"
     id="path4916"
     inkscape:connector-curvature="0" />
  <path
     style="fill:none;stroke:#000000;stroke-width:104.16665649px;stroke-linecap:butt;stroke-linejoin:miter;stroke-opacity:1"
     d="m 6522.2746,9136.9287 -309.6907,290.9215 -18.7691,-375.3826"
     id="path4918"
     inkscape:connector-curvature="0" />
  <path
     style="fill:none;stroke:#000000;stroke-width:104.16665649px;stroke-linecap:butt;stroke-linejoin:miter;stroke-opacity:1"
     d="m 6212.5839,9427.8502 -365.9981,-215.845"
     id="path4920"
     inkscape:connector-curvature="0" />
  <text
     xml:space="preserve"
     style="font-style:normal;font-variant:normal;font-weight:normal;font-stretch:normal;font-size:716.56274414px;line-height:1.25;font-family:'Venus Rising';-inkscape-font-specification:'Venus Rising';letter-spacing:0px;word-spacing:0px;fill:#ff0000;fill-opacity:1;stroke:none;stroke-width:104.16666412"
     x="22298.291"
     y="-6306.4702"
     id="text4924"
     transform="scale(0.85099343,1.1750972)"
     inkscape:export-xdpi="800"
     inkscape:export-ydpi="800"><tspan
       sodipodi:role="line"
       x="22298.291"
       y="-6306.4702"
       style="text-align:center;text-anchor:middle;fill:#ff0000;stroke-width:104.16666412"
       id="tspan4932">Random</tspan><tspan
       sodipodi:role="line"
       x="22298.291"
       y="-5410.7671"
       style="text-align:center;text-anchor:middle;fill:#ff0000;stroke-width:104.16666412"
       id="tspan4948">atmosphere</tspan><tspan
       sodipodi:role="line"
       x="22298.291"
       y="-4515.0635"
       style="text-align:center;text-anchor:middle;fill:#ff0000;stroke-width:104.16666412"
       id="tspan4950">integrity</tspan><tspan
       sodipodi:role="line"
       x="22298.291"
       y="-3619.3599"
       style="text-align:center;text-anchor:middle;fill:#ff0000;stroke-width:104.16666412"
       id="tspan4952">node</tspan></text>
</svg>
