<?xml version="1.0" standalone="no"?>
 <!DOCTYPE svg PUBLIC "-//W3C//DTD SVG 1.1//EN" 
 "http://www.w3.org/Graphics/SVG/1.1/DTD/svg11.dtd"> 
<svg xmlns="http://www.w3.org/2000/svg" version="1.1" 
    width="29.7002cm" height="21.0007cm" viewBox="0 0 116930 82680 ">
<title>SVG Picture created as Week5LetsTryANewIC-brd.svg date 2018/08/27 15:59:29 </title>
  <desc>Picture generated by PCBNEW </desc>
<g style="fill:#000000; fill-opacity:1;stroke:#000000; stroke-opacity:1;
stroke-linecap:round; stroke-linejoin:round; "
 transform="translate(0 0) scale(1 1)">
</g>
<g style="fill:#000000; fill-opacity:0.0; 
stroke:#000000; stroke-width:-0.000393701; stroke-opacity:1; 
stroke-linecap:round; stroke-linejoin:round;">
</g>
<g style="fill:#000000; fill-opacity:0.0; 
stroke:#000000; stroke-width:39.3701; stroke-opacity:1; 
stroke-linecap:round; stroke-linejoin:round;">
</g>
<g style="fill:#000000; fill-opacity:0.0; 
stroke:#000000; stroke-width:59.0551; stroke-opacity:1; 
stroke-linecap:round; stroke-linejoin:round;">
<rect x="69685.9" y="65357.2" width="42519.7" height="12598.4" rx="0" />
</g>
<g style="fill:#000000; fill-opacity:0.0; 
stroke:#000000; stroke-width:39.3701; stroke-opacity:1; 
stroke-linecap:round; stroke-linejoin:round;">
</g>
<g style="fill:#000000; fill-opacity:0.0; 
stroke:#000000; stroke-width:59.0551; stroke-opacity:1; 
stroke-linecap:round; stroke-linejoin:round;">
<rect x="3937.01" y="3937.01" width="109056" height="74806" rx="0" />
</g>
<g style="fill:#000000; fill-opacity:0.0; 
stroke:#000000; stroke-width:39.3701; stroke-opacity:1; 
stroke-linecap:round; stroke-linejoin:round;">
</g>
<g style="fill:#000000; fill-opacity:0.0; 
stroke:#000000; stroke-width:59.0551; stroke-opacity:1; 
stroke-linecap:round; stroke-linejoin:round;">
<rect x="4724.41" y="4724.41" width="107481" height="73231.2" rx="0" />
</g>
<g style="fill:#000000; fill-opacity:0.0; 
stroke:#000000; stroke-width:39.3701; stroke-opacity:1; 
stroke-linecap:round; stroke-linejoin:round;">
</g>
<g style="fill:#000000; fill-opacity:0.0; 
stroke:#000000; stroke-width:59.0551; stroke-opacity:1; 
stroke-linecap:round; stroke-linejoin:round;">
<path d="M23622 4724
L23622 3937
" />
</g>
<g style="fill:#000000; fill-opacity:0.0; 
stroke:#000000; stroke-width:39.3701; stroke-opacity:1; 
stroke-linecap:round; stroke-linejoin:round;">
</g>
<g style="fill:#000000; fill-opacity:0.0; 
stroke:#000000; stroke-width:59.0551; stroke-opacity:1; 
stroke-linecap:round; stroke-linejoin:round;">
<path d="M43307 4724
L43307 3937
" />
</g>
<g style="fill:#000000; fill-opacity:0.0; 
stroke:#000000; stroke-width:39.3701; stroke-opacity:1; 
stroke-linecap:round; stroke-linejoin:round;">
</g>
<g style="fill:#000000; fill-opacity:0.0; 
stroke:#000000; stroke-width:59.0551; stroke-opacity:1; 
stroke-linecap:round; stroke-linejoin:round;">
<path d="M62992 4724
L62992 3937
" />
</g>
<g style="fill:#000000; fill-opacity:0.0; 
stroke:#000000; stroke-width:39.3701; stroke-opacity:1; 
stroke-linecap:round; stroke-linejoin:round;">
</g>
<g style="fill:#000000; fill-opacity:0.0; 
stroke:#000000; stroke-width:59.0551; stroke-opacity:1; 
stroke-linecap:round; stroke-linejoin:round;">
<path d="M82677 4724
L82677 3937
" />
</g>
<g style="fill:#000000; fill-opacity:0.0; 
stroke:#000000; stroke-width:39.3701; stroke-opacity:1; 
stroke-linecap:round; stroke-linejoin:round;">
</g>
<g style="fill:#000000; fill-opacity:0.0; 
stroke:#000000; stroke-width:59.0551; stroke-opacity:1; 
stroke-linecap:round; stroke-linejoin:round;">
<path d="M102362 4724
L102362 3937
" />
</g>
<g style="fill:#000000; fill-opacity:0.0; 
stroke:#000000; stroke-width:39.3701; stroke-opacity:1; 
stroke-linecap:round; stroke-linejoin:round;">
</g>
<g style="fill:#000000; fill-opacity:0.0; 
stroke:#000000; stroke-width:59.0551; stroke-opacity:1; 
stroke-linecap:round; stroke-linejoin:round;">
<path d="M14199 4562
L13906 4562
" />
<path d="M14052 4562
L14052 4050
L14004 4123
L13955 4172
L13906 4196
" />
</g>
<g style="fill:#000000; fill-opacity:0.0; 
stroke:#000000; stroke-width:39.3701; stroke-opacity:1; 
stroke-linecap:round; stroke-linejoin:round;">
</g>
<g style="fill:#000000; fill-opacity:0.0; 
stroke:#000000; stroke-width:59.0551; stroke-opacity:1; 
stroke-linecap:round; stroke-linejoin:round;">
<path d="M33591 4099
L33615 4074
L33664 4050
L33786 4050
L33835 4074
L33859 4099
L33884 4147
L33884 4196
L33859 4269
L33567 4562
L33884 4562
" />
</g>
<g style="fill:#000000; fill-opacity:0.0; 
stroke:#000000; stroke-width:39.3701; stroke-opacity:1; 
stroke-linecap:round; stroke-linejoin:round;">
</g>
<g style="fill:#000000; fill-opacity:0.0; 
stroke:#000000; stroke-width:59.0551; stroke-opacity:1; 
stroke-linecap:round; stroke-linejoin:round;">
<path d="M53252 4050
L53569 4050
L53398 4245
L53471 4245
L53520 4269
L53544 4294
L53569 4342
L53569 4464
L53544 4513
L53520 4537
L53471 4562
L53325 4562
L53276 4537
L53252 4513
" />
</g>
<g style="fill:#000000; fill-opacity:0.0; 
stroke:#000000; stroke-width:39.3701; stroke-opacity:1; 
stroke-linecap:round; stroke-linejoin:round;">
</g>
<g style="fill:#000000; fill-opacity:0.0; 
stroke:#000000; stroke-width:59.0551; stroke-opacity:1; 
stroke-linecap:round; stroke-linejoin:round;">
<path d="M73205 4221
L73205 4562
" />
<path d="M73083 4026
L72961 4391
L73278 4391
" />
</g>
<g style="fill:#000000; fill-opacity:0.0; 
stroke:#000000; stroke-width:39.3701; stroke-opacity:1; 
stroke-linecap:round; stroke-linejoin:round;">
</g>
<g style="fill:#000000; fill-opacity:0.0; 
stroke:#000000; stroke-width:59.0551; stroke-opacity:1; 
stroke-linecap:round; stroke-linejoin:round;">
<path d="M92914 4050
L92671 4050
L92646 4294
L92671 4269
L92719 4245
L92841 4245
L92890 4269
L92914 4294
L92939 4342
L92939 4464
L92914 4513
L92890 4537
L92841 4562
L92719 4562
L92671 4537
L92646 4513
" />
</g>
<g style="fill:#000000; fill-opacity:0.0; 
stroke:#000000; stroke-width:39.3701; stroke-opacity:1; 
stroke-linecap:round; stroke-linejoin:round;">
</g>
<g style="fill:#000000; fill-opacity:0.0; 
stroke:#000000; stroke-width:59.0551; stroke-opacity:1; 
stroke-linecap:round; stroke-linejoin:round;">
<path d="M112575 4050
L112477 4050
L112429 4074
L112404 4099
L112356 4172
L112331 4269
L112331 4464
L112356 4513
L112380 4537
L112429 4562
L112526 4562
L112575 4537
L112599 4513
L112624 4464
L112624 4342
L112599 4294
L112575 4269
L112526 4245
L112429 4245
L112380 4269
L112356 4294
L112331 4342
" />
</g>
<g style="fill:#000000; fill-opacity:0.0; 
stroke:#000000; stroke-width:39.3701; stroke-opacity:1; 
stroke-linecap:round; stroke-linejoin:round;">
</g>
<g style="fill:#000000; fill-opacity:0.0; 
stroke:#000000; stroke-width:59.0551; stroke-opacity:1; 
stroke-linecap:round; stroke-linejoin:round;">
<path d="M23622 77955
L23622 78742
" />
</g>
<g style="fill:#000000; fill-opacity:0.0; 
stroke:#000000; stroke-width:39.3701; stroke-opacity:1; 
stroke-linecap:round; stroke-linejoin:round;">
</g>
<g style="fill:#000000; fill-opacity:0.0; 
stroke:#000000; stroke-width:59.0551; stroke-opacity:1; 
stroke-linecap:round; stroke-linejoin:round;">
<path d="M43307 77955
L43307 78742
" />
</g>
<g style="fill:#000000; fill-opacity:0.0; 
stroke:#000000; stroke-width:39.3701; stroke-opacity:1; 
stroke-linecap:round; stroke-linejoin:round;">
</g>
<g style="fill:#000000; fill-opacity:0.0; 
stroke:#000000; stroke-width:59.0551; stroke-opacity:1; 
stroke-linecap:round; stroke-linejoin:round;">
<path d="M62992 77955
L62992 78742
" />
</g>
<g style="fill:#000000; fill-opacity:0.0; 
stroke:#000000; stroke-width:39.3701; stroke-opacity:1; 
stroke-linecap:round; stroke-linejoin:round;">
</g>
<g style="fill:#000000; fill-opacity:0.0; 
stroke:#000000; stroke-width:59.0551; stroke-opacity:1; 
stroke-linecap:round; stroke-linejoin:round;">
<path d="M82677 77955
L82677 78742
" />
</g>
<g style="fill:#000000; fill-opacity:0.0; 
stroke:#000000; stroke-width:39.3701; stroke-opacity:1; 
stroke-linecap:round; stroke-linejoin:round;">
</g>
<g style="fill:#000000; fill-opacity:0.0; 
stroke:#000000; stroke-width:59.0551; stroke-opacity:1; 
stroke-linecap:round; stroke-linejoin:round;">
<path d="M102362 77955
L102362 78742
" />
</g>
<g style="fill:#000000; fill-opacity:0.0; 
stroke:#000000; stroke-width:39.3701; stroke-opacity:1; 
stroke-linecap:round; stroke-linejoin:round;">
</g>
<g style="fill:#000000; fill-opacity:0.0; 
stroke:#000000; stroke-width:59.0551; stroke-opacity:1; 
stroke-linecap:round; stroke-linejoin:round;">
<path d="M14199 78580
L13906 78580
" />
<path d="M14052 78580
L14052 78069
L14004 78142
L13955 78190
L13906 78215
" />
</g>
<g style="fill:#000000; fill-opacity:0.0; 
stroke:#000000; stroke-width:39.3701; stroke-opacity:1; 
stroke-linecap:round; stroke-linejoin:round;">
</g>
<g style="fill:#000000; fill-opacity:0.0; 
stroke:#000000; stroke-width:59.0551; stroke-opacity:1; 
stroke-linecap:round; stroke-linejoin:round;">
<path d="M33591 78117
L33615 78093
L33664 78069
L33786 78069
L33835 78093
L33859 78117
L33884 78166
L33884 78215
L33859 78288
L33567 78580
L33884 78580
" />
</g>
<g style="fill:#000000; fill-opacity:0.0; 
stroke:#000000; stroke-width:39.3701; stroke-opacity:1; 
stroke-linecap:round; stroke-linejoin:round;">
</g>
<g style="fill:#000000; fill-opacity:0.0; 
stroke:#000000; stroke-width:59.0551; stroke-opacity:1; 
stroke-linecap:round; stroke-linejoin:round;">
<path d="M53252 78069
L53569 78069
L53398 78263
L53471 78263
L53520 78288
L53544 78312
L53569 78361
L53569 78483
L53544 78532
L53520 78556
L53471 78580
L53325 78580
L53276 78556
L53252 78532
" />
</g>
<g style="fill:#000000; fill-opacity:0.0; 
stroke:#000000; stroke-width:39.3701; stroke-opacity:1; 
stroke-linecap:round; stroke-linejoin:round;">
</g>
<g style="fill:#000000; fill-opacity:0.0; 
stroke:#000000; stroke-width:59.0551; stroke-opacity:1; 
stroke-linecap:round; stroke-linejoin:round;">
<path d="M73205 78239
L73205 78580
" />
<path d="M73083 78044
L72961 78410
L73278 78410
" />
</g>
<g style="fill:#000000; fill-opacity:0.0; 
stroke:#000000; stroke-width:39.3701; stroke-opacity:1; 
stroke-linecap:round; stroke-linejoin:round;">
</g>
<g style="fill:#000000; fill-opacity:0.0; 
stroke:#000000; stroke-width:59.0551; stroke-opacity:1; 
stroke-linecap:round; stroke-linejoin:round;">
<path d="M92914 78069
L92671 78069
L92646 78312
L92671 78288
L92719 78263
L92841 78263
L92890 78288
L92914 78312
L92939 78361
L92939 78483
L92914 78532
L92890 78556
L92841 78580
L92719 78580
L92671 78556
L92646 78532
" />
</g>
<g style="fill:#000000; fill-opacity:0.0; 
stroke:#000000; stroke-width:39.3701; stroke-opacity:1; 
stroke-linecap:round; stroke-linejoin:round;">
</g>
<g style="fill:#000000; fill-opacity:0.0; 
stroke:#000000; stroke-width:59.0551; stroke-opacity:1; 
stroke-linecap:round; stroke-linejoin:round;">
<path d="M112575 78069
L112477 78069
L112429 78093
L112404 78117
L112356 78190
L112331 78288
L112331 78483
L112356 78532
L112380 78556
L112429 78580
L112526 78580
L112575 78556
L112599 78532
L112624 78483
L112624 78361
L112599 78312
L112575 78288
L112526 78263
L112429 78263
L112380 78288
L112356 78312
L112331 78361
" />
</g>
<g style="fill:#000000; fill-opacity:0.0; 
stroke:#000000; stroke-width:39.3701; stroke-opacity:1; 
stroke-linecap:round; stroke-linejoin:round;">
</g>
<g style="fill:#000000; fill-opacity:0.0; 
stroke:#000000; stroke-width:59.0551; stroke-opacity:1; 
stroke-linecap:round; stroke-linejoin:round;">
<path d="M3937 23622
L4724 23622
" />
</g>
<g style="fill:#000000; fill-opacity:0.0; 
stroke:#000000; stroke-width:39.3701; stroke-opacity:1; 
stroke-linecap:round; stroke-linejoin:round;">
</g>
<g style="fill:#000000; fill-opacity:0.0; 
stroke:#000000; stroke-width:59.0551; stroke-opacity:1; 
stroke-linecap:round; stroke-linejoin:round;">
<path d="M3937 43307
L4724 43307
" />
</g>
<g style="fill:#000000; fill-opacity:0.0; 
stroke:#000000; stroke-width:39.3701; stroke-opacity:1; 
stroke-linecap:round; stroke-linejoin:round;">
</g>
<g style="fill:#000000; fill-opacity:0.0; 
stroke:#000000; stroke-width:59.0551; stroke-opacity:1; 
stroke-linecap:round; stroke-linejoin:round;">
<path d="M3937 62992
L4724 62992
" />
</g>
<g style="fill:#000000; fill-opacity:0.0; 
stroke:#000000; stroke-width:39.3701; stroke-opacity:1; 
stroke-linecap:round; stroke-linejoin:round;">
</g>
<g style="fill:#000000; fill-opacity:0.0; 
stroke:#000000; stroke-width:59.0551; stroke-opacity:1; 
stroke-linecap:round; stroke-linejoin:round;">
<path d="M4208 13864
L4452 13864
" />
<path d="M4160 14011
L4330 13499
L4501 14011
" />
</g>
<g style="fill:#000000; fill-opacity:0.0; 
stroke:#000000; stroke-width:39.3701; stroke-opacity:1; 
stroke-linecap:round; stroke-linejoin:round;">
</g>
<g style="fill:#000000; fill-opacity:0.0; 
stroke:#000000; stroke-width:59.0551; stroke-opacity:1; 
stroke-linecap:round; stroke-linejoin:round;">
<path d="M4367 33428
L4440 33452
L4464 33476
L4489 33525
L4489 33598
L4464 33647
L4440 33671
L4391 33696
L4196 33696
L4196 33184
L4367 33184
L4416 33208
L4440 33233
L4464 33281
L4464 33330
L4440 33379
L4416 33403
L4367 33428
L4196 33428
" />
</g>
<g style="fill:#000000; fill-opacity:0.0; 
stroke:#000000; stroke-width:39.3701; stroke-opacity:1; 
stroke-linecap:round; stroke-linejoin:round;">
</g>
<g style="fill:#000000; fill-opacity:0.0; 
stroke:#000000; stroke-width:59.0551; stroke-opacity:1; 
stroke-linecap:round; stroke-linejoin:round;">
<path d="M4489 53332
L4464 53356
L4391 53381
L4342 53381
L4269 53356
L4221 53308
L4196 53259
L4172 53161
L4172 53088
L4196 52991
L4221 52942
L4269 52893
L4342 52869
L4391 52869
L4464 52893
L4489 52918
" />
</g>
<g style="fill:#000000; fill-opacity:0.0; 
stroke:#000000; stroke-width:39.3701; stroke-opacity:1; 
stroke-linecap:round; stroke-linejoin:round;">
</g>
<g style="fill:#000000; fill-opacity:0.0; 
stroke:#000000; stroke-width:59.0551; stroke-opacity:1; 
stroke-linecap:round; stroke-linejoin:round;">
<path d="M4196 73066
L4196 72554
L4318 72554
L4391 72578
L4440 72627
L4464 72676
L4489 72773
L4489 72846
L4464 72944
L4440 72993
L4391 73041
L4318 73066
L4196 73066
" />
</g>
<g style="fill:#000000; fill-opacity:0.0; 
stroke:#000000; stroke-width:39.3701; stroke-opacity:1; 
stroke-linecap:round; stroke-linejoin:round;">
</g>
<g style="fill:#000000; fill-opacity:0.0; 
stroke:#000000; stroke-width:59.0551; stroke-opacity:1; 
stroke-linecap:round; stroke-linejoin:round;">
<path d="M112992 23622
L112205 23622
" />
</g>
<g style="fill:#000000; fill-opacity:0.0; 
stroke:#000000; stroke-width:39.3701; stroke-opacity:1; 
stroke-linecap:round; stroke-linejoin:round;">
</g>
<g style="fill:#000000; fill-opacity:0.0; 
stroke:#000000; stroke-width:59.0551; stroke-opacity:1; 
stroke-linecap:round; stroke-linejoin:round;">
<path d="M112992 43307
L112205 43307
" />
</g>
<g style="fill:#000000; fill-opacity:0.0; 
stroke:#000000; stroke-width:39.3701; stroke-opacity:1; 
stroke-linecap:round; stroke-linejoin:round;">
</g>
<g style="fill:#000000; fill-opacity:0.0; 
stroke:#000000; stroke-width:59.0551; stroke-opacity:1; 
stroke-linecap:round; stroke-linejoin:round;">
<path d="M112992 62992
L112205 62992
" />
</g>
<g style="fill:#000000; fill-opacity:0.0; 
stroke:#000000; stroke-width:39.3701; stroke-opacity:1; 
stroke-linecap:round; stroke-linejoin:round;">
</g>
<g style="fill:#000000; fill-opacity:0.0; 
stroke:#000000; stroke-width:59.0551; stroke-opacity:1; 
stroke-linecap:round; stroke-linejoin:round;">
<path d="M112477 13864
L112721 13864
" />
<path d="M112428 14011
L112599 13499
L112769 14011
" />
</g>
<g style="fill:#000000; fill-opacity:0.0; 
stroke:#000000; stroke-width:39.3701; stroke-opacity:1; 
stroke-linecap:round; stroke-linejoin:round;">
</g>
<g style="fill:#000000; fill-opacity:0.0; 
stroke:#000000; stroke-width:59.0551; stroke-opacity:1; 
stroke-linecap:round; stroke-linejoin:round;">
<path d="M112635 33428
L112708 33452
L112733 33476
L112757 33525
L112757 33598
L112733 33647
L112708 33671
L112660 33696
L112465 33696
L112465 33184
L112635 33184
L112684 33208
L112708 33233
L112733 33281
L112733 33330
L112708 33379
L112684 33403
L112635 33428
L112465 33428
" />
</g>
<g style="fill:#000000; fill-opacity:0.0; 
stroke:#000000; stroke-width:39.3701; stroke-opacity:1; 
stroke-linecap:round; stroke-linejoin:round;">
</g>
<g style="fill:#000000; fill-opacity:0.0; 
stroke:#000000; stroke-width:59.0551; stroke-opacity:1; 
stroke-linecap:round; stroke-linejoin:round;">
<path d="M112757 53332
L112733 53356
L112660 53381
L112611 53381
L112538 53356
L112489 53308
L112465 53259
L112440 53161
L112440 53088
L112465 52991
L112489 52942
L112538 52893
L112611 52869
L112660 52869
L112733 52893
L112757 52918
" />
</g>
<g style="fill:#000000; fill-opacity:0.0; 
stroke:#000000; stroke-width:39.3701; stroke-opacity:1; 
stroke-linecap:round; stroke-linejoin:round;">
</g>
<g style="fill:#000000; fill-opacity:0.0; 
stroke:#000000; stroke-width:59.0551; stroke-opacity:1; 
stroke-linecap:round; stroke-linejoin:round;">
<path d="M112465 73066
L112465 72554
L112587 72554
L112660 72578
L112708 72627
L112733 72676
L112757 72773
L112757 72846
L112733 72944
L112708 72993
L112660 73041
L112587 73066
L112465 73066
" />
</g>
<g style="fill:#000000; fill-opacity:0.0; 
stroke:#000000; stroke-width:39.3701; stroke-opacity:1; 
stroke-linecap:round; stroke-linejoin:round;">
</g>
<g style="fill:#000000; fill-opacity:0.0; 
stroke:#000000; stroke-width:59.0551; stroke-opacity:1; 
stroke-linecap:round; stroke-linejoin:round;">
<path d="M78911 76293
L78911 75703
L79051 75703
L79136 75731
L79192 75787
L79220 75843
L79248 75956
L79248 76040
L79220 76153
L79192 76209
L79136 76265
L79051 76293
L78911 76293
" />
<path d="M79754 76293
L79754 75984
L79726 75928
L79670 75899
L79557 75899
L79501 75928
" />
<path d="M79754 76265
L79698 76293
L79557 76293
L79501 76265
L79473 76209
L79473 76153
L79501 76096
L79557 76068
L79698 76068
L79754 76040
" />
<path d="M79951 75899
L80176 75899
" />
<path d="M80036 75703
L80036 76209
L80064 76265
L80120 76293
L80176 76293
" />
<path d="M80598 76265
L80542 76293
L80429 76293
L80373 76265
L80345 76209
L80345 75984
L80373 75928
L80429 75899
L80542 75899
L80598 75928
L80626 75984
L80626 76040
L80345 76096
" />
<path d="M80879 76237
L80907 76265
L80879 76293
L80851 76265
L80879 76237
L80879 76293
" />
<path d="M80879 75928
L80907 75956
L80879 75984
L80851 75956
L80879 75928
L80879 75984
" />
</g>
<g style="fill:#000000; fill-opacity:0.0; 
stroke:#000000; stroke-width:39.3701; stroke-opacity:1; 
stroke-linecap:round; stroke-linejoin:round;">
</g>
<g style="fill:#000000; fill-opacity:0.0; 
stroke:#000000; stroke-width:59.0551; stroke-opacity:1; 
stroke-linecap:round; stroke-linejoin:round;">
<path d="M69685 76577
L112205 76577
" />
</g>
<g style="fill:#000000; fill-opacity:0.0; 
stroke:#000000; stroke-width:39.3701; stroke-opacity:1; 
stroke-linecap:round; stroke-linejoin:round;">
</g>
<g style="fill:#000000; fill-opacity:0.0; 
stroke:#000000; stroke-width:59.0551; stroke-opacity:1; 
stroke-linecap:round; stroke-linejoin:round;">
<path d="M70249 77395
L70249 76805
" />
<path d="M70587 77395
L70334 77058
" />
<path d="M70587 76805
L70249 77142
" />
<path d="M70840 77395
L70840 77002
" />
<path d="M70840 76805
L70812 76833
L70840 76861
L70868 76833
L70840 76805
L70840 76861
" />
<path d="M71458 77339
L71430 77367
L71346 77395
L71290 77395
L71205 77367
L71149 77311
L71121 77255
L71093 77142
L71093 77058
L71121 76946
L71149 76889
L71205 76833
L71290 76805
L71346 76805
L71430 76833
L71458 76861
" />
<path d="M71965 77395
L71965 77086
L71937 77030
L71880 77002
L71768 77002
L71712 77030
" />
<path d="M71965 77367
L71908 77395
L71768 77395
L71712 77367
L71683 77311
L71683 77255
L71712 77199
L71768 77171
L71908 77171
L71965 77142
" />
<path d="M72499 77395
L72499 76805
" />
<path d="M72499 77367
L72443 77395
L72330 77395
L72274 77367
L72246 77339
L72218 77283
L72218 77114
L72246 77058
L72274 77030
L72330 77002
L72443 77002
L72499 77030
" />
<path d="M73230 77086
L73427 77086
" />
<path d="M73511 77395
L73230 77395
L73230 76805
L73511 76805
" />
<path d="M73764 77339
L73793 77367
L73764 77395
L73736 77367
L73764 77339
L73764 77395
" />
<path d="M74046 77395
L74046 76805
L74186 76805
L74271 76833
L74327 76889
L74355 76946
L74383 77058
L74383 77142
L74355 77255
L74327 77311
L74271 77367
L74186 77395
L74046 77395
" />
<path d="M74636 77339
L74664 77367
L74636 77395
L74608 77367
L74636 77339
L74636 77395
" />
<path d="M74889 77227
L75171 77227
" />
<path d="M74833 77395
L75030 76805
L75227 77395
" />
<path d="M75424 77339
L75452 77367
L75424 77395
L75395 77367
L75424 77339
L75424 77395
" />
<path d="M76605 77395
L76605 76805
" />
<path d="M76661 77171
L76830 77395
" />
<path d="M76830 77002
L76605 77227
" />
<path d="M77083 77395
L77083 77002
" />
<path d="M77083 76805
L77055 76833
L77083 76861
L77111 76833
L77083 76805
L77083 76861
" />
<path d="M77617 77367
L77561 77395
L77448 77395
L77392 77367
L77364 77339
L77336 77283
L77336 77114
L77364 77058
L77392 77030
L77448 77002
L77561 77002
L77617 77030
" />
<path d="M78123 77395
L78123 77086
L78095 77030
L78039 77002
L77926 77002
L77870 77030
" />
<path d="M78123 77367
L78067 77395
L77926 77395
L77870 77367
L77842 77311
L77842 77255
L77870 77199
L77926 77171
L78067 77171
L78123 77142
" />
<path d="M78658 77395
L78658 76805
" />
<path d="M78658 77367
L78601 77395
L78489 77395
L78433 77367
L78404 77339
L78376 77283
L78376 77114
L78404 77058
L78433 77030
L78489 77002
L78601 77002
L78658 77030
" />
<path d="M79557 77620
L79529 77592
L79473 77508
L79445 77452
L79417 77367
L79389 77227
L79389 77114
L79417 76974
L79445 76889
L79473 76833
L79529 76749
L79557 76721
" />
<path d="M80064 76805
L79782 76805
L79754 77086
L79782 77058
L79839 77030
L79979 77030
L80036 77058
L80064 77086
L80092 77142
L80092 77283
L80064 77339
L80036 77367
L79979 77395
L79839 77395
L79782 77367
L79754 77339
" />
<path d="M80345 77339
L80373 77367
L80345 77395
L80317 77367
L80345 77339
L80345 77395
" />
<path d="M80739 76805
L80795 76805
L80851 76833
L80879 76861
L80907 76917
L80935 77030
L80935 77171
L80907 77283
L80879 77339
L80851 77367
L80795 77395
L80739 77395
L80682 77367
L80654 77339
L80626 77283
L80598 77171
L80598 77030
L80626 76917
L80654 76861
L80682 76833
L80739 76805
" />
<path d="M81188 77339
L81217 77367
L81188 77395
L81160 77367
L81188 77339
L81188 77395
" />
<path d="M81582 76805
L81638 76805
L81695 76833
L81723 76861
L81751 76917
L81779 77030
L81779 77171
L81751 77283
L81723 77339
L81695 77367
L81638 77395
L81582 77395
L81526 77367
L81498 77339
L81470 77283
L81442 77171
L81442 77030
L81470 76917
L81498 76861
L81526 76833
L81582 76805
" />
<path d="M81976 77620
L82004 77592
L82060 77508
L82088 77452
L82117 77367
L82145 77227
L82145 77114
L82117 76974
L82088 76889
L82060 76833
L82004 76749
L81976 76721
" />
</g>
<g style="fill:#000000; fill-opacity:0.0; 
stroke:#000000; stroke-width:39.3701; stroke-opacity:1; 
stroke-linecap:round; stroke-linejoin:round;">
</g>
<g style="fill:#000000; fill-opacity:0.0; 
stroke:#000000; stroke-width:59.0551; stroke-opacity:1; 
stroke-linecap:round; stroke-linejoin:round;">
<path d="M69685 75396
L112205 75396
" />
</g>
<g style="fill:#000000; fill-opacity:0.0; 
stroke:#000000; stroke-width:39.3701; stroke-opacity:1; 
stroke-linecap:round; stroke-linejoin:round;">
</g>
<g style="fill:#000000; fill-opacity:0.0; 
stroke:#000000; stroke-width:118.11; stroke-opacity:1; 
stroke-linecap:round; stroke-linejoin:round;">
<path d="M104099 76293
L103902 76012
" />
<path d="M103761 76293
L103761 75703
L103986 75703
L104042 75731
L104070 75759
L104099 75815
L104099 75899
L104070 75956
L104042 75984
L103986 76012
L103761 76012
" />
<path d="M104577 76265
L104520 76293
L104408 76293
L104352 76265
L104323 76209
L104323 75984
L104352 75928
L104408 75899
L104520 75899
L104577 75928
L104605 75984
L104605 76040
L104323 76096
" />
<path d="M104802 75899
L104942 76293
L105083 75899
" />
<path d="M105308 76237
L105336 76265
L105308 76293
L105280 76265
L105308 76237
L105308 76293
" />
<path d="M105308 75928
L105336 75956
L105308 75984
L105280 75956
L105308 75928
L105308 75984
" />
</g>
<g style="fill:#000000; fill-opacity:0.0; 
stroke:#000000; stroke-width:39.3701; stroke-opacity:1; 
stroke-linecap:round; stroke-linejoin:round;">
</g>
<g style="fill:#000000; fill-opacity:0.0; 
stroke:#000000; stroke-width:59.0551; stroke-opacity:1; 
stroke-linecap:round; stroke-linejoin:round;">
<path d="M70221 76265
L70305 76293
L70446 76293
L70502 76265
L70530 76237
L70559 76181
L70559 76124
L70530 76068
L70502 76040
L70446 76012
L70334 75984
L70277 75956
L70249 75928
L70221 75871
L70221 75815
L70249 75759
L70277 75731
L70334 75703
L70474 75703
L70559 75731
" />
<path d="M70812 76293
L70812 75899
" />
<path d="M70812 75703
L70784 75731
L70812 75759
L70840 75731
L70812 75703
L70812 75759
" />
<path d="M71037 75899
L71346 75899
L71037 76293
L71346 76293
" />
<path d="M71796 76265
L71740 76293
L71627 76293
L71571 76265
L71543 76209
L71543 75984
L71571 75928
L71627 75899
L71740 75899
L71796 75928
L71824 75984
L71824 76040
L71543 76096
" />
<path d="M72077 76237
L72105 76265
L72077 76293
L72049 76265
L72077 76237
L72077 76293
" />
<path d="M72077 75928
L72105 75956
L72077 75984
L72049 75956
L72077 75928
L72077 75984
" />
<path d="M72780 76124
L73061 76124
" />
<path d="M72724 76293
L72921 75703
L73118 76293
" />
<path d="M73568 75899
L73568 76293
" />
<path d="M73427 75674
L73286 76096
L73652 76096
" />
</g>
<g style="fill:#000000; fill-opacity:0.0; 
stroke:#000000; stroke-width:39.3701; stroke-opacity:1; 
stroke-linecap:round; stroke-linejoin:round;">
</g>
<g style="fill:#000000; fill-opacity:0.0; 
stroke:#000000; stroke-width:59.0551; stroke-opacity:1; 
stroke-linecap:round; stroke-linejoin:round;">
<path d="M103714 77395
L103714 76805
" />
<path d="M104248 77395
L104248 76805
" />
<path d="M104248 77367
L104192 77395
L104079 77395
L104023 77367
L103995 77339
L103967 77283
L103967 77114
L103995 77058
L104023 77030
L104079 77002
L104192 77002
L104248 77030
" />
<path d="M104529 77339
L104557 77367
L104529 77395
L104501 77367
L104529 77339
L104529 77395
" />
<path d="M104529 77030
L104557 77058
L104529 77086
L104501 77058
L104529 77030
L104529 77086
" />
<path d="M105570 77395
L105232 77395
" />
<path d="M105401 77395
L105401 76805
L105345 76889
L105289 76946
L105232 76974
" />
<path d="M106245 76777
L105739 77536
" />
<path d="M106751 77395
L106413 77395
" />
<path d="M106582 77395
L106582 76805
L106526 76889
L106470 76946
L106413 76974
" />
</g>
<g style="fill:#000000; fill-opacity:0.0; 
stroke:#000000; stroke-width:39.3701; stroke-opacity:1; 
stroke-linecap:round; stroke-linejoin:round;">
</g>
<g style="fill:#000000; fill-opacity:0.0; 
stroke:#000000; stroke-width:59.0551; stroke-opacity:1; 
stroke-linecap:round; stroke-linejoin:round;">
<path d="M69685 73821
L112205 73821
" />
</g>
<g style="fill:#000000; fill-opacity:0.0; 
stroke:#000000; stroke-width:39.3701; stroke-opacity:1; 
stroke-linecap:round; stroke-linejoin:round;">
</g>
<g style="fill:#000000; fill-opacity:0.0; 
stroke:#000000; stroke-width:157.48; stroke-opacity:1; 
stroke-linecap:round; stroke-linejoin:round;">
<path d="M70360 74099
L70810 74099
" />
<path d="M70486 74886
L70585 74099
" />
<path d="M70974 74886
L71039 74361
" />
<path d="M71072 74099
L71030 74136
L71063 74174
L71105 74136
L71072 74099
L71063 74174
" />
<path d="M71302 74361
L71602 74361
" />
<path d="M71447 74099
L71363 74774
L71391 74849
L71461 74886
L71536 74886
" />
<path d="M71911 74886
L71841 74849
L71813 74774
L71897 74099
" />
<path d="M72516 74849
L72436 74886
L72286 74886
L72216 74849
L72187 74774
L72225 74474
L72272 74399
L72352 74361
L72501 74361
L72572 74399
L72600 74474
L72591 74549
L72206 74624
" />
<path d="M72895 74811
L72928 74849
L72886 74886
L72853 74849
L72895 74811
L72886 74886
" />
<path d="M72947 74399
L72980 74436
L72937 74474
L72905 74436
L72947 74399
L72937 74474
" />
</g>
<g style="fill:#000000; fill-opacity:0.0; 
stroke:#000000; stroke-width:39.3701; stroke-opacity:1; 
stroke-linecap:round; stroke-linejoin:round;">
</g>
<g style="fill:#000000; fill-opacity:0.0; 
stroke:#000000; stroke-width:59.0551; stroke-opacity:1; 
stroke-linecap:round; stroke-linejoin:round;">
<path d="M70446 73070
L70249 73070
" />
<path d="M70249 73380
L70249 72789
L70530 72789
" />
<path d="M70755 73380
L70755 72986
" />
<path d="M70755 72789
L70727 72817
L70755 72845
L70784 72817
L70755 72789
L70755 72845
" />
<path d="M71121 73380
L71065 73352
L71037 73295
L71037 72789
" />
<path d="M71571 73352
L71515 73380
L71402 73380
L71346 73352
L71318 73295
L71318 73070
L71346 73014
L71402 72986
L71515 72986
L71571 73014
L71599 73070
L71599 73127
L71318 73183
" />
<path d="M71852 73323
L71880 73352
L71852 73380
L71824 73352
L71852 73323
L71852 73380
" />
<path d="M71852 73014
L71880 73042
L71852 73070
L71824 73042
L71852 73014
L71852 73070
" />
<path d="M72527 72789
L72668 73380
L72780 72958
L72893 73380
L73033 72789
" />
<path d="M73483 73352
L73427 73380
L73314 73380
L73258 73352
L73230 73295
L73230 73070
L73258 73014
L73314 72986
L73427 72986
L73483 73014
L73511 73070
L73511 73127
L73230 73183
" />
<path d="M73989 73352
L73933 73380
L73821 73380
L73764 73352
L73736 73295
L73736 73070
L73764 73014
L73821 72986
L73933 72986
L73989 73014
L74018 73070
L74018 73127
L73736 73183
" />
<path d="M74271 73380
L74271 72789
" />
<path d="M74327 73155
L74496 73380
" />
<path d="M74496 72986
L74271 73211
" />
<path d="M75030 72789
L74749 72789
L74721 73070
L74749 73042
L74805 73014
L74946 73014
L75002 73042
L75030 73070
L75058 73127
L75058 73267
L75030 73323
L75002 73352
L74946 73380
L74805 73380
L74749 73352
L74721 73323
" />
<path d="M75592 73380
L75311 73380
L75311 72789
" />
<path d="M76014 73352
L75958 73380
L75845 73380
L75789 73352
L75761 73295
L75761 73070
L75789 73014
L75845 72986
L75958 72986
L76014 73014
L76042 73070
L76042 73127
L75761 73183
" />
<path d="M76211 72986
L76436 72986
" />
<path d="M76295 72789
L76295 73295
L76323 73352
L76380 73380
L76436 73380
" />
<path d="M76605 73352
L76661 73380
L76773 73380
L76830 73352
L76858 73295
L76858 73267
L76830 73211
L76773 73183
L76689 73183
L76633 73155
L76605 73099
L76605 73070
L76633 73014
L76689 72986
L76773 72986
L76830 73014
" />
<path d="M77027 72789
L77364 72789
" />
<path d="M77195 73380
L77195 72789
" />
<path d="M77561 73380
L77561 72986
" />
<path d="M77561 73099
L77589 73042
L77617 73014
L77673 72986
L77730 72986
" />
<path d="M77870 72986
L78011 73380
" />
<path d="M78151 72986
L78011 73380
L77955 73520
L77926 73548
L77870 73577
" />
<path d="M78348 73211
L78629 73211
" />
<path d="M78292 73380
L78489 72789
L78686 73380
" />
<path d="M78883 73380
L78883 72789
L79220 73380
L79220 72789
" />
<path d="M79726 73352
L79670 73380
L79557 73380
L79501 73352
L79473 73295
L79473 73070
L79501 73014
L79557 72986
L79670 72986
L79726 73014
L79754 73070
L79754 73127
L79473 73183
" />
<path d="M79951 72986
L80064 73380
L80176 73099
L80289 73380
L80401 72986
" />
<path d="M80626 73380
L80626 72789
" />
<path d="M81245 73323
L81217 73352
L81132 73380
L81076 73380
L80992 73352
L80935 73295
L80907 73239
L80879 73127
L80879 73042
L80907 72930
L80935 72874
L80992 72817
L81076 72789
L81132 72789
L81217 72817
L81245 72845
" />
<path d="M81498 73323
L81526 73352
L81498 73380
L81470 73352
L81498 73323
L81498 73380
" />
<path d="M81779 73380
L81779 72789
" />
<path d="M81835 73155
L82004 73380
" />
<path d="M82004 72986
L81779 73211
" />
<path d="M82257 73380
L82257 72986
" />
<path d="M82257 72789
L82229 72817
L82257 72845
L82285 72817
L82257 72789
L82257 72845
" />
<path d="M82791 73352
L82735 73380
L82623 73380
L82566 73352
L82538 73323
L82510 73267
L82510 73099
L82538 73042
L82566 73014
L82623 72986
L82735 72986
L82791 73014
" />
<path d="M83298 73380
L83298 73070
L83269 73014
L83213 72986
L83101 72986
L83045 73014
" />
<path d="M83298 73352
L83241 73380
L83101 73380
L83045 73352
L83016 73295
L83016 73239
L83045 73183
L83101 73155
L83241 73155
L83298 73127
" />
<path d="M83832 73380
L83832 72789
" />
<path d="M83832 73352
L83776 73380
L83663 73380
L83607 73352
L83579 73323
L83551 73267
L83551 73099
L83579 73042
L83607 73014
L83663 72986
L83776 72986
L83832 73014
" />
<path d="M83973 73436
L84422 73436
" />
<path d="M84563 72986
L84563 73577
" />
<path d="M84563 73014
L84619 72986
L84732 72986
L84788 73014
L84816 73042
L84844 73099
L84844 73267
L84816 73323
L84788 73352
L84732 73380
L84619 73380
L84563 73352
" />
<path d="M85350 73352
L85294 73380
L85182 73380
L85126 73352
L85097 73323
L85069 73267
L85069 73099
L85097 73042
L85126 73014
L85182 72986
L85294 72986
L85350 73014
" />
<path d="M85604 73380
L85604 72789
" />
<path d="M85604 73014
L85660 72986
L85772 72986
L85829 73014
L85857 73042
L85885 73099
L85885 73267
L85857 73323
L85829 73352
L85772 73380
L85660 73380
L85604 73352
" />
</g>
<g style="fill:#000000; fill-opacity:0.0; 
stroke:#000000; stroke-width:39.3701; stroke-opacity:1; 
stroke-linecap:round; stroke-linejoin:round;">
</g>
<g style="fill:#000000; fill-opacity:0.0; 
stroke:#000000; stroke-width:59.0551; stroke-opacity:1; 
stroke-linecap:round; stroke-linejoin:round;">
<path d="M69685 71459
L112205 71459
" />
</g>
<g style="fill:#000000; fill-opacity:0.0; 
stroke:#000000; stroke-width:39.3701; stroke-opacity:1; 
stroke-linecap:round; stroke-linejoin:round;">
</g>
<g style="fill:#000000; fill-opacity:0.0; 
stroke:#000000; stroke-width:59.0551; stroke-opacity:1; 
stroke-linecap:round; stroke-linejoin:round;">
<path d="M70221 72289
L70305 72317
L70446 72317
L70502 72289
L70530 72260
L70559 72204
L70559 72148
L70530 72092
L70502 72064
L70446 72036
L70334 72007
L70277 71979
L70249 71951
L70221 71895
L70221 71839
L70249 71782
L70277 71754
L70334 71726
L70474 71726
L70559 71754
" />
<path d="M70812 72317
L70812 71726
" />
<path d="M71065 72317
L71065 72007
L71037 71951
L70980 71923
L70896 71923
L70840 71951
L70812 71979
" />
<path d="M71571 72289
L71515 72317
L71402 72317
L71346 72289
L71318 72232
L71318 72007
L71346 71951
L71402 71923
L71515 71923
L71571 71951
L71599 72007
L71599 72064
L71318 72120
" />
<path d="M72077 72289
L72021 72317
L71908 72317
L71852 72289
L71824 72232
L71824 72007
L71852 71951
L71908 71923
L72021 71923
L72077 71951
L72105 72007
L72105 72064
L71824 72120
" />
<path d="M72274 71923
L72499 71923
" />
<path d="M72358 71726
L72358 72232
L72386 72289
L72443 72317
L72499 72317
" />
<path d="M72696 72260
L72724 72289
L72696 72317
L72668 72289
L72696 72260
L72696 72317
" />
<path d="M72696 71951
L72724 71979
L72696 72007
L72668 71979
L72696 71951
L72696 72007
" />
</g>
<g style="fill:#000000; fill-opacity:0.0; 
stroke:#000000; stroke-width:39.3701; stroke-opacity:1; 
stroke-linecap:round; stroke-linejoin:round;">
</g>
<g style="fill:#000000; fill-opacity:0.0; 
stroke:#000000; stroke-width:59.0551; stroke-opacity:1; 
stroke-linecap:round; stroke-linejoin:round;">
<path d="M77559 75396
L77559 76577
" />
</g>
<g style="fill:#000000; fill-opacity:0.0; 
stroke:#000000; stroke-width:39.3701; stroke-opacity:1; 
stroke-linecap:round; stroke-linejoin:round;">
</g>
<g style="fill:#000000; fill-opacity:0.0; 
stroke:#000000; stroke-width:59.0551; stroke-opacity:1; 
stroke-linecap:round; stroke-linejoin:round;">
<path d="M102756 75396
L102756 77955
" />
</g>
<g style="fill:#840000; fill-opacity:0.0; 
stroke:#840000; stroke-width:59.0551; stroke-opacity:1; 
stroke-linecap:round; stroke-linejoin:round;">
</g>
<g style="fill:#840000; fill-opacity:0.0; 
stroke:#840000; stroke-width:0; stroke-opacity:1; 
stroke-linecap:round; stroke-linejoin:round;">
</g>
<g style="fill:#840000; fill-opacity:1.0; 
stroke:#840000; stroke-width:0; stroke-opacity:1; 
stroke-linecap:round; stroke-linejoin:round;">
<polyline style="fill-rule:evenodd;"
points="62032,30837
62044,30839
62056,30842
62068,30846
62079,30851
62089,30857
62099,30865
62108,30873
62117,30882
62124,30892
62130,30902
62136,30914
62140,30925
62143,30937
62145,30949
62145,30962
62145,31242
62145,31254
62143,31267
62140,31279
62136,31290
62130,31301
62124,31312
62117,31322
62108,31331
62099,31339
62089,31346
62079,31353
62068,31358
62056,31362
62044,31365
62032,31367
62020,31368
61769,31368
61756,31367
61744,31365
61732,31362
61721,31358
61710,31353
61699,31346
61689,31339
61680,31331
61672,31322
61664,31312
61658,31301
61653,31290
61649,31279
61646,31267
61644,31254
61643,31242
61643,30962
61644,30949
61646,30937
61649,30925
61653,30914
61658,30902
61664,30892
61672,30882
61680,30873
61689,30865
61699,30857
61710,30851
61721,30846
61732,30842
61744,30839
61756,30837
61769,30836
62020,30836
62032,30837
" /> 
<polyline style="fill-rule:evenodd;"
points="62652,30837
62664,30839
62676,30842
62688,30846
62699,30851
62709,30857
62719,30865
62728,30873
62737,30882
62744,30892
62750,30902
62756,30914
62760,30925
62763,30937
62765,30949
62765,30962
62765,31242
62765,31254
62763,31267
62760,31279
62756,31290
62750,31301
62744,31312
62737,31322
62728,31331
62719,31339
62709,31346
62699,31353
62688,31358
62676,31362
62664,31365
62652,31367
62640,31368
62389,31368
62376,31367
62364,31365
62352,31362
62341,31358
62330,31353
62319,31346
62309,31339
62300,31331
62292,31322
62284,31312
62278,31301
62273,31290
62269,31279
62266,31267
62264,31254
62263,31242
62263,30962
62264,30949
62266,30937
62269,30925
62273,30914
62278,30902
62284,30892
62292,30882
62300,30873
62309,30865
62319,30857
62330,30851
62341,30846
62352,30842
62364,30839
62376,30837
62389,30836
62640,30836
62652,30837
" /> 
<polyline style="fill-rule:evenodd;"
points="62652,28475
62664,28476
62676,28479
62688,28483
62699,28489
62709,28495
62719,28502
62728,28511
62737,28520
62744,28530
62750,28540
62756,28551
62760,28563
62763,28575
62765,28587
62765,28599
62765,28880
62765,28892
62763,28904
62760,28916
62756,28928
62750,28939
62744,28950
62737,28960
62728,28969
62719,28977
62709,28984
62699,28991
62688,28996
62676,29000
62664,29003
62652,29005
62640,29005
62389,29005
62376,29005
62364,29003
62352,29000
62341,28996
62330,28991
62319,28984
62309,28977
62300,28969
62292,28960
62284,28950
62278,28939
62273,28928
62269,28916
62266,28904
62264,28892
62263,28880
62263,28599
62264,28587
62266,28575
62269,28563
62273,28551
62278,28540
62284,28530
62292,28520
62300,28511
62309,28502
62319,28495
62330,28489
62341,28483
62352,28479
62364,28476
62376,28475
62389,28474
62640,28474
62652,28475
" /> 
<polyline style="fill-rule:evenodd;"
points="62032,28475
62044,28476
62056,28479
62068,28483
62079,28489
62089,28495
62099,28502
62108,28511
62117,28520
62124,28530
62130,28540
62136,28551
62140,28563
62143,28575
62145,28587
62145,28599
62145,28880
62145,28892
62143,28904
62140,28916
62136,28928
62130,28939
62124,28950
62117,28960
62108,28969
62099,28977
62089,28984
62079,28991
62068,28996
62056,29000
62044,29003
62032,29005
62020,29005
61769,29005
61756,29005
61744,29003
61732,29000
61721,28996
61710,28991
61699,28984
61689,28977
61680,28969
61672,28960
61664,28950
61658,28939
61653,28928
61649,28916
61646,28904
61644,28892
61643,28880
61643,28599
61644,28587
61646,28575
61649,28563
61653,28551
61658,28540
61664,28530
61672,28520
61680,28511
61689,28502
61699,28495
61710,28489
61721,28483
61732,28479
61744,28476
61756,28475
61769,28474
62020,28474
62032,28475
" /> 
<polyline style="fill-rule:evenodd;"
points="62155,29468
62450,29468
62450,29773
62155,29773
62155,29468
" /> 
<polyline style="fill-rule:evenodd;"
points="61958,29468
62253,29468
62253,29773
61958,29773
61958,29468
" /> 
<polyline style="fill-rule:evenodd;"
points="62155,30068
62450,30068
62450,30374
62155,30374
62155,30068
" /> 
<polyline style="fill-rule:evenodd;"
points="61958,30068
62253,30068
62253,30374
61958,30374
61958,30068
" /> 
<polyline style="fill-rule:evenodd;"
points="61761,29468
62057,29468
62057,29773
61761,29773
61761,29468
" /> 
<polyline style="fill-rule:evenodd;"
points="61761,30068
62057,30068
62057,30374
61761,30374
61761,30068
" /> 
<polyline style="fill-rule:evenodd;"
points="62352,29468
62647,29468
62647,29773
62352,29773
62352,29468
" /> 
<polyline style="fill-rule:evenodd;"
points="62352,30068
62647,30068
62647,30374
62352,30374
62352,30068
" /> 
<polyline style="fill-rule:evenodd;"
points="61751,29970
61751,29675
62057,29675
62057,29970
61751,29970
" /> 
<polyline style="fill-rule:evenodd;"
points="61751,30167
61751,29872
62057,29872
62057,30167
61751,30167
" /> 
<polyline style="fill-rule:evenodd;"
points="62352,30167
62352,29872
62657,29872
62657,30167
62352,30167
" /> 
<polyline style="fill-rule:evenodd;"
points="62352,29970
62352,29675
62657,29675
62657,29970
62352,29970
" /> 
</g>
<g style="fill:#848400; fill-opacity:1.0; 
stroke:#848400; stroke-width:0; stroke-opacity:1; 
stroke-linecap:round; stroke-linejoin:round;">
<polyline style="fill-rule:evenodd;"
points="65728,26791
65728,25964
66555,25964
66555,26791
65728,26791
" /> 
</g>
<g style="fill:#848400; fill-opacity:1.0; 
stroke:#848400; stroke-width:826.772; stroke-opacity:1; 
stroke-linecap:round; stroke-linejoin:round;">
</g>
<g style="fill:#848400; fill-opacity:0.0; 
stroke:#848400; stroke-width:826.772; stroke-opacity:1; 
stroke-linecap:round; stroke-linejoin:round;">
<path d="M66141 27377
L66141 27377
" />
<path d="M66141 28377
L66141 28377
" />
<path d="M66141 29377
L66141 29377
" />
<path d="M66141 30377
L66141 30377
" />
<path d="M66141 31377
L66141 31377
" />
<path d="M66141 32377
L66141 32377
" />
<path d="M66141 33377
L66141 33377
" />
<path d="M66141 34377
L66141 34377
" />
</g>
<g style="fill:#840000; fill-opacity:0.0; 
stroke:#840000; stroke-width:826.772; stroke-opacity:1; 
stroke-linecap:round; stroke-linejoin:round;">
</g>
<g style="fill:#840000; fill-opacity:0.0; 
stroke:#840000; stroke-width:0; stroke-opacity:1; 
stroke-linecap:round; stroke-linejoin:round;">
</g>
<g style="fill:#840000; fill-opacity:1.0; 
stroke:#840000; stroke-width:0; stroke-opacity:1; 
stroke-linecap:round; stroke-linejoin:round;">
<polyline style="fill-rule:evenodd;"
points="64719,28573
64731,28575
64743,28578
64755,28582
64766,28587
64776,28593
64786,28601
64795,28609
64804,28618
64811,28628
64817,28639
64823,28650
64827,28661
64830,28673
64832,28686
64832,28698
64832,28949
64832,28961
64830,28973
64827,28985
64823,28997
64817,29008
64811,29019
64804,29028
64795,29038
64786,29046
64776,29053
64766,29059
64755,29065
64743,29069
64731,29072
64719,29074
64707,29074
64426,29074
64414,29074
64402,29072
64390,29069
64378,29065
64367,29059
64356,29053
64347,29046
64337,29038
64329,29028
64322,29019
64315,29008
64310,28997
64306,28985
64303,28973
64301,28961
64301,28949
64301,28698
64301,28686
64303,28673
64306,28661
64310,28650
64315,28639
64322,28628
64329,28618
64337,28609
64347,28601
64356,28593
64367,28587
64378,28582
64390,28578
64402,28575
64414,28573
64426,28572
64707,28572
64719,28573
" /> 
<polyline style="fill-rule:evenodd;"
points="64719,29193
64731,29195
64743,29198
64755,29202
64766,29207
64776,29214
64786,29221
64795,29229
64804,29238
64811,29248
64817,29259
64823,29270
64827,29281
64830,29293
64832,29306
64832,29318
64832,29569
64832,29581
64830,29593
64827,29605
64823,29617
64817,29628
64811,29639
64804,29649
64795,29658
64786,29666
64776,29673
64766,29680
64755,29685
64743,29689
64731,29692
64719,29694
64707,29694
64426,29694
64414,29694
64402,29692
64390,29689
64378,29685
64367,29680
64356,29673
64347,29666
64337,29658
64329,29649
64322,29639
64315,29628
64310,29617
64306,29605
64303,29593
64301,29581
64301,29569
64301,29318
64301,29306
64303,29293
64306,29281
64310,29270
64315,29259
64322,29248
64329,29238
64337,29229
64347,29221
64356,29214
64367,29207
64378,29202
64390,29198
64402,29195
64414,29193
64426,29192
64707,29192
64719,29193
" /> 
<polyline style="fill-rule:evenodd;"
points="64719,30768
64731,30770
64743,30773
64755,30777
64766,30782
64776,30788
64786,30796
64795,30804
64804,30813
64811,30823
64817,30834
64823,30845
64827,30856
64830,30868
64832,30880
64832,30893
64832,31144
64832,31156
64830,31168
64827,31180
64823,31192
64817,31203
64811,31213
64804,31223
64795,31232
64786,31241
64776,31248
64766,31254
64755,31260
64743,31264
64731,31267
64719,31269
64707,31269
64426,31269
64414,31269
64402,31267
64390,31264
64378,31260
64367,31254
64356,31248
64347,31241
64337,31232
64329,31223
64322,31213
64315,31203
64310,31192
64306,31180
64303,31168
64301,31156
64301,31144
64301,30893
64301,30880
64303,30868
64306,30856
64310,30845
64315,30834
64322,30823
64329,30813
64337,30804
64347,30796
64356,30788
64367,30782
64378,30777
64390,30773
64402,30770
64414,30768
64426,30767
64707,30767
64719,30768
" /> 
<polyline style="fill-rule:evenodd;"
points="64719,30148
64731,30150
64743,30153
64755,30157
64766,30162
64776,30168
64786,30176
64795,30184
64804,30193
64811,30203
64817,30213
64823,30225
64827,30236
64830,30248
64832,30260
64832,30273
64832,30524
64832,30536
64830,30548
64827,30560
64823,30572
64817,30583
64811,30593
64804,30603
64795,30612
64786,30621
64776,30628
64766,30634
64755,30640
64743,30644
64731,30647
64719,30649
64707,30649
64426,30649
64414,30649
64402,30647
64390,30644
64378,30640
64367,30634
64356,30628
64347,30621
64337,30612
64329,30603
64322,30593
64315,30583
64310,30572
64306,30560
64303,30548
64301,30536
64301,30524
64301,30273
64301,30260
64303,30248
64306,30236
64310,30225
64315,30213
64322,30203
64329,30193
64337,30184
64347,30176
64356,30168
64367,30162
64378,30157
64390,30153
64402,30150
64414,30148
64426,30147
64707,30147
64719,30148
" /> 
<polyline style="fill-rule:evenodd;"
points="64719,26998
64731,27000
64743,27003
64755,27007
64766,27012
64776,27019
64786,27026
64795,27034
64804,27043
64811,27053
64817,27064
64823,27075
64827,27087
64830,27099
64832,27111
64832,27123
64832,27374
64832,27386
64830,27398
64827,27410
64823,27422
64817,27433
64811,27444
64804,27454
64795,27463
64786,27471
64776,27478
64766,27485
64755,27490
64743,27494
64731,27497
64719,27499
64707,27500
64426,27500
64414,27499
64402,27497
64390,27494
64378,27490
64367,27485
64356,27478
64347,27471
64337,27463
64329,27454
64322,27444
64315,27433
64310,27422
64306,27410
64303,27398
64301,27386
64301,27374
64301,27123
64301,27111
64303,27099
64306,27087
64310,27075
64315,27064
64322,27053
64329,27043
64337,27034
64347,27026
64356,27019
64367,27012
64378,27007
64390,27003
64402,27000
64414,26998
64426,26998
64707,26998
64719,26998
" /> 
<polyline style="fill-rule:evenodd;"
points="64719,27618
64731,27620
64743,27623
64755,27627
64766,27632
64776,27639
64786,27646
64795,27654
64804,27663
64811,27673
64817,27684
64823,27695
64827,27707
64830,27719
64832,27731
64832,27743
64832,27994
64832,28006
64830,28019
64827,28031
64823,28042
64817,28053
64811,28064
64804,28074
64795,28083
64786,28091
64776,28098
64766,28105
64755,28110
64743,28114
64731,28117
64719,28119
64707,28120
64426,28120
64414,28119
64402,28117
64390,28114
64378,28110
64367,28105
64356,28098
64347,28091
64337,28083
64329,28074
64322,28064
64315,28053
64310,28042
64306,28031
64303,28019
64301,28006
64301,27994
64301,27743
64301,27731
64303,27719
64306,27707
64310,27695
64315,27684
64322,27673
64329,27663
64337,27654
64347,27646
64356,27639
64367,27632
64378,27627
64390,27623
64402,27620
64414,27618
64426,27618
64707,27618
64719,27618
" /> 
<polyline style="fill-rule:evenodd;"
points="63932,26998
63944,27000
63956,27003
63967,27007
63978,27012
63989,27019
63999,27026
64008,27034
64016,27043
64024,27053
64030,27064
64035,27075
64039,27087
64042,27099
64044,27111
64045,27123
64045,27374
64044,27386
64042,27398
64039,27410
64035,27422
64030,27433
64024,27444
64016,27454
64008,27463
63999,27471
63989,27478
63978,27485
63967,27490
63956,27494
63944,27497
63932,27499
63919,27500
63639,27500
63626,27499
63614,27497
63602,27494
63591,27490
63580,27485
63569,27478
63559,27471
63550,27463
63542,27454
63534,27444
63528,27433
63523,27422
63519,27410
63516,27398
63514,27386
63513,27374
63513,27123
63514,27111
63516,27099
63519,27087
63523,27075
63528,27064
63534,27053
63542,27043
63550,27034
63559,27026
63569,27019
63580,27012
63591,27007
63602,27003
63614,27000
63626,26998
63639,26998
63919,26998
63932,26998
" /> 
<polyline style="fill-rule:evenodd;"
points="63932,27618
63944,27620
63956,27623
63967,27627
63978,27632
63989,27639
63999,27646
64008,27654
64016,27663
64024,27673
64030,27684
64035,27695
64039,27707
64042,27719
64044,27731
64045,27743
64045,27994
64044,28006
64042,28019
64039,28031
64035,28042
64030,28053
64024,28064
64016,28074
64008,28083
63999,28091
63989,28098
63978,28105
63967,28110
63956,28114
63944,28117
63932,28119
63919,28120
63639,28120
63626,28119
63614,28117
63602,28114
63591,28110
63580,28105
63569,28098
63559,28091
63550,28083
63542,28074
63534,28064
63528,28053
63523,28042
63519,28031
63516,28019
63514,28006
63513,27994
63513,27743
63514,27731
63516,27719
63519,27707
63523,27695
63528,27684
63534,27673
63542,27663
63550,27654
63559,27646
63569,27639
63580,27632
63591,27627
63602,27623
63614,27620
63626,27618
63639,27618
63919,27618
63932,27618
" /> 
<polyline style="fill-rule:evenodd;"
points="63932,31723
63944,31724
63956,31727
63967,31731
63978,31737
63989,31743
63999,31750
64008,31759
64016,31768
64024,31778
64030,31788
64035,31799
64039,31811
64042,31823
64044,31835
64045,31847
64045,32098
64044,32111
64042,32123
64039,32135
64035,32146
64030,32158
64024,32168
64016,32178
64008,32187
63999,32195
63989,32203
63978,32209
63967,32214
63956,32219
63944,32221
63932,32223
63919,32224
63639,32224
63626,32223
63614,32221
63602,32219
63591,32214
63580,32209
63569,32203
63559,32195
63550,32187
63542,32178
63534,32168
63528,32158
63523,32146
63519,32135
63516,32123
63514,32111
63513,32098
63513,31847
63514,31835
63516,31823
63519,31811
63523,31799
63528,31788
63534,31778
63542,31768
63550,31759
63559,31750
63569,31743
63580,31737
63591,31731
63602,31727
63614,31724
63626,31723
63639,31722
63919,31722
63932,31723
" /> 
<polyline style="fill-rule:evenodd;"
points="63932,32343
63944,32344
63956,32347
63967,32352
63978,32357
63989,32363
63999,32371
64008,32379
64016,32388
64024,32398
64030,32408
64035,32419
64039,32431
64042,32443
64044,32455
64045,32468
64045,32718
64044,32731
64042,32743
64039,32755
64035,32767
64030,32778
64024,32788
64016,32798
64008,32807
63999,32816
63989,32823
63978,32829
63967,32834
63956,32839
63944,32842
63932,32843
63919,32844
63639,32844
63626,32843
63614,32842
63602,32839
63591,32834
63580,32829
63569,32823
63559,32816
63550,32807
63542,32798
63534,32788
63528,32778
63523,32767
63519,32755
63516,32743
63514,32731
63513,32718
63513,32468
63514,32455
63516,32443
63519,32431
63523,32419
63528,32408
63534,32398
63542,32388
63550,32379
63559,32371
63569,32363
63580,32357
63591,32352
63602,32347
63614,32344
63626,32343
63639,32342
63919,32342
63932,32343
" /> 
<polyline style="fill-rule:evenodd;"
points="64719,31723
64731,31724
64743,31727
64755,31731
64766,31737
64776,31743
64786,31750
64795,31759
64804,31768
64811,31778
64817,31788
64823,31799
64827,31811
64830,31823
64832,31835
64832,31847
64832,32098
64832,32111
64830,32123
64827,32135
64823,32146
64817,32158
64811,32168
64804,32178
64795,32187
64786,32195
64776,32203
64766,32209
64755,32214
64743,32219
64731,32221
64719,32223
64707,32224
64426,32224
64414,32223
64402,32221
64390,32219
64378,32214
64367,32209
64356,32203
64347,32195
64337,32187
64329,32178
64322,32168
64315,32158
64310,32146
64306,32135
64303,32123
64301,32111
64301,32098
64301,31847
64301,31835
64303,31823
64306,31811
64310,31799
64315,31788
64322,31778
64329,31768
64337,31759
64347,31750
64356,31743
64367,31737
64378,31731
64390,31727
64402,31724
64414,31723
64426,31722
64707,31722
64719,31723
" /> 
<polyline style="fill-rule:evenodd;"
points="64719,32343
64731,32344
64743,32347
64755,32352
64766,32357
64776,32363
64786,32371
64795,32379
64804,32388
64811,32398
64817,32408
64823,32419
64827,32431
64830,32443
64832,32455
64832,32468
64832,32718
64832,32731
64830,32743
64827,32755
64823,32767
64817,32778
64811,32788
64804,32798
64795,32807
64786,32816
64776,32823
64766,32829
64755,32834
64743,32839
64731,32842
64719,32843
64707,32844
64426,32844
64414,32843
64402,32842
64390,32839
64378,32834
64367,32829
64356,32823
64347,32816
64337,32807
64329,32798
64322,32788
64315,32778
64310,32767
64306,32755
64303,32743
64301,32731
64301,32718
64301,32468
64301,32455
64303,32443
64306,32431
64310,32419
64315,32408
64322,32398
64329,32388
64337,32379
64347,32371
64356,32363
64367,32357
64378,32352
64390,32347
64402,32344
64414,32343
64426,32342
64707,32342
64719,32343
" /> 
</g>
<g style="fill:#000000; fill-opacity:1.0; 
stroke:#000000; stroke-width:0; stroke-opacity:1; 
stroke-linecap:round; stroke-linejoin:round;">
</g>
<g style="fill:#C2C200; fill-opacity:1.0; 
stroke:#C2C200; stroke-width:0; stroke-opacity:1; 
stroke-linecap:round; stroke-linejoin:round;">
</g>
<g style="fill:#C2C200; fill-opacity:0.0; 
stroke:#C2C200; stroke-width:59.0551; stroke-opacity:1; 
stroke-linecap:round; stroke-linejoin:round;">
<path d="M61417.3 24803.1 A787.402 787.402 0.0 0 0 60629.9 25590.6 " />
<path d="M60629.9 35039.4 A787.402 787.402 0.0 0 0 61417.3 35826.8 " />
</g>
<g style="fill:#C2C200; fill-opacity:0.0; 
stroke:#C2C200; stroke-width:78.7402; stroke-opacity:1; 
stroke-linecap:round; stroke-linejoin:round;">
<path d="M67322.8 25590.6 A787.402 787.402 0.0 0 0 66535.4 24803.1 " />
<path d="M66535.4 35826.8 A787.402 787.402 0.0 0 0 67322.8 35039.4 " />
<path d="M60629 35039
L60629 25590
" />
<path d="M66535 35826
L61417 35826
" />
<path d="M67322 25590
L67322 35039
" />
<path d="M61417 24803
L66535 24803
" />
</g> 
</svg>
