G04 #@! TF.GenerationSoftware,KiCad,Pcbnew,(5.0.0)*
G04 #@! TF.CreationDate,2019-02-27T16:54:38+00:00*
G04 #@! TF.ProjectId,rain,7261696E2E6B696361645F7063620000,rev?*
G04 #@! TF.SameCoordinates,Original*
G04 #@! TF.FileFunction,Legend,Bot*
G04 #@! TF.FilePolarity,Positive*
%FSLAX46Y46*%
G04 Gerber Fmt 4.6, Leading zero omitted, Abs format (unit mm)*
G04 Created by KiCad (PCBNEW (5.0.0)) date 02/27/19 16:54:38*
%MOMM*%
%LPD*%
G01*
G04 APERTURE LIST*
%ADD10C,0.120000*%
%ADD11C,0.150000*%
%ADD12C,0.010000*%
G04 APERTURE END LIST*
D10*
G04 #@! TO.C,BT1*
X120894857Y-91548030D02*
G75*
G02X120910000Y-84900000I-10534857J3348030D01*
G01*
X124970000Y-83750000D02*
X126230000Y-83750000D01*
X125600000Y-84390000D02*
X125600000Y-83120000D01*
X128260000Y-84900000D02*
X120910000Y-84900000D01*
X128260000Y-91500000D02*
X128260000Y-84900000D01*
X120910000Y-91500000D02*
X128260000Y-91500000D01*
D11*
G04 #@! TO.C,J2*
X143350000Y-96400000D02*
X129400000Y-96400000D01*
X129400000Y-96400000D02*
X129400000Y-80600000D01*
X129400000Y-80600000D02*
X143350000Y-80600000D01*
D12*
G04 #@! TO.C,G\002A\002A\002A*
G36*
X108699012Y-92861212D02*
X108718072Y-92937859D01*
X108731930Y-92959048D01*
X108766588Y-92972359D01*
X108843798Y-92982581D01*
X108968200Y-92989936D01*
X109144439Y-92994646D01*
X109377157Y-92996935D01*
X109527669Y-92997243D01*
X110285213Y-92997243D01*
X110285213Y-92744075D01*
X109734300Y-92735384D01*
X109183387Y-92726692D01*
X109678599Y-92490468D01*
X109845414Y-92409729D01*
X109994975Y-92335158D01*
X110116518Y-92272292D01*
X110199278Y-92226670D01*
X110229511Y-92207026D01*
X110268625Y-92140267D01*
X110284702Y-92045548D01*
X110274084Y-91955546D01*
X110260854Y-91927119D01*
X110225893Y-91902703D01*
X110142702Y-91856226D01*
X110020711Y-91792604D01*
X109869349Y-91716755D01*
X109698048Y-91633595D01*
X109696366Y-91632791D01*
X109155263Y-91374126D01*
X109720238Y-91374030D01*
X110285213Y-91373935D01*
X110285213Y-91119298D01*
X109525201Y-91119298D01*
X109277174Y-91119934D01*
X109085620Y-91122113D01*
X108943362Y-91126244D01*
X108843221Y-91132735D01*
X108778023Y-91141995D01*
X108740590Y-91154432D01*
X108727516Y-91164690D01*
X108703682Y-91228860D01*
X108699178Y-91321452D01*
X108711726Y-91416421D01*
X108739047Y-91487726D01*
X108757394Y-91506284D01*
X108800134Y-91528081D01*
X108890589Y-91572376D01*
X109018940Y-91634422D01*
X109175366Y-91709473D01*
X109350049Y-91792784D01*
X109358544Y-91796823D01*
X109911949Y-92059934D01*
X109342629Y-92325864D01*
X109165118Y-92409414D01*
X109006096Y-92485463D01*
X108875108Y-92549348D01*
X108781701Y-92596407D01*
X108735419Y-92621978D01*
X108733521Y-92623353D01*
X108706865Y-92676878D01*
X108695319Y-92765191D01*
X108699012Y-92861212D01*
X108699012Y-92861212D01*
G37*
X108699012Y-92861212D02*
X108718072Y-92937859D01*
X108731930Y-92959048D01*
X108766588Y-92972359D01*
X108843798Y-92982581D01*
X108968200Y-92989936D01*
X109144439Y-92994646D01*
X109377157Y-92996935D01*
X109527669Y-92997243D01*
X110285213Y-92997243D01*
X110285213Y-92744075D01*
X109734300Y-92735384D01*
X109183387Y-92726692D01*
X109678599Y-92490468D01*
X109845414Y-92409729D01*
X109994975Y-92335158D01*
X110116518Y-92272292D01*
X110199278Y-92226670D01*
X110229511Y-92207026D01*
X110268625Y-92140267D01*
X110284702Y-92045548D01*
X110274084Y-91955546D01*
X110260854Y-91927119D01*
X110225893Y-91902703D01*
X110142702Y-91856226D01*
X110020711Y-91792604D01*
X109869349Y-91716755D01*
X109698048Y-91633595D01*
X109696366Y-91632791D01*
X109155263Y-91374126D01*
X109720238Y-91374030D01*
X110285213Y-91373935D01*
X110285213Y-91119298D01*
X109525201Y-91119298D01*
X109277174Y-91119934D01*
X109085620Y-91122113D01*
X108943362Y-91126244D01*
X108843221Y-91132735D01*
X108778023Y-91141995D01*
X108740590Y-91154432D01*
X108727516Y-91164690D01*
X108703682Y-91228860D01*
X108699178Y-91321452D01*
X108711726Y-91416421D01*
X108739047Y-91487726D01*
X108757394Y-91506284D01*
X108800134Y-91528081D01*
X108890589Y-91572376D01*
X109018940Y-91634422D01*
X109175366Y-91709473D01*
X109350049Y-91792784D01*
X109358544Y-91796823D01*
X109911949Y-92059934D01*
X109342629Y-92325864D01*
X109165118Y-92409414D01*
X109006096Y-92485463D01*
X108875108Y-92549348D01*
X108781701Y-92596407D01*
X108735419Y-92621978D01*
X108733521Y-92623353D01*
X108706865Y-92676878D01*
X108695319Y-92765191D01*
X108699012Y-92861212D01*
G36*
X108775074Y-90834575D02*
X108807732Y-90862912D01*
X108843158Y-90883619D01*
X108891626Y-90898136D01*
X108963408Y-90907903D01*
X109068777Y-90914359D01*
X109218005Y-90918944D01*
X109404417Y-90922778D01*
X109663916Y-90926486D01*
X109866730Y-90922902D01*
X110019813Y-90906479D01*
X110130115Y-90871672D01*
X110204589Y-90812935D01*
X110250184Y-90724721D01*
X110273854Y-90601486D01*
X110282550Y-90437683D01*
X110283222Y-90227765D01*
X110283196Y-90221693D01*
X110280554Y-90052336D01*
X110274694Y-89901212D01*
X110266401Y-89782009D01*
X110256461Y-89708417D01*
X110253078Y-89696780D01*
X110206570Y-89629664D01*
X110137135Y-89569462D01*
X110098318Y-89548642D01*
X110048285Y-89533454D01*
X109977134Y-89523044D01*
X109874966Y-89516561D01*
X109731881Y-89513149D01*
X109604431Y-89512366D01*
X109604431Y-89819159D01*
X109747411Y-89819441D01*
X109856280Y-89821963D01*
X109918178Y-89826541D01*
X109925598Y-89828261D01*
X109944864Y-89854572D01*
X109957616Y-89921143D01*
X109964689Y-90035679D01*
X109966917Y-90205884D01*
X109966917Y-90210037D01*
X109965935Y-90369323D01*
X109961779Y-90476717D01*
X109952635Y-90543970D01*
X109936690Y-90582834D01*
X109912129Y-90605060D01*
X109905351Y-90608905D01*
X109842564Y-90624876D01*
X109734459Y-90635629D01*
X109597016Y-90641295D01*
X109446218Y-90642007D01*
X109298047Y-90637898D01*
X109168483Y-90629099D01*
X109073509Y-90615744D01*
X109032915Y-90601681D01*
X109009017Y-90576274D01*
X108993833Y-90534150D01*
X108986026Y-90463496D01*
X108984263Y-90352500D01*
X108987045Y-90195854D01*
X108996115Y-89830200D01*
X109440197Y-89821303D01*
X109604431Y-89819159D01*
X109604431Y-89512366D01*
X109537980Y-89511957D01*
X109469336Y-89511905D01*
X109262053Y-89512369D01*
X109108388Y-89514433D01*
X108998301Y-89519100D01*
X108921753Y-89527377D01*
X108868704Y-89540267D01*
X108829117Y-89558776D01*
X108799515Y-89578958D01*
X108709649Y-89646012D01*
X108692317Y-90756744D01*
X108775074Y-90834575D01*
X108775074Y-90834575D01*
G37*
X108775074Y-90834575D02*
X108807732Y-90862912D01*
X108843158Y-90883619D01*
X108891626Y-90898136D01*
X108963408Y-90907903D01*
X109068777Y-90914359D01*
X109218005Y-90918944D01*
X109404417Y-90922778D01*
X109663916Y-90926486D01*
X109866730Y-90922902D01*
X110019813Y-90906479D01*
X110130115Y-90871672D01*
X110204589Y-90812935D01*
X110250184Y-90724721D01*
X110273854Y-90601486D01*
X110282550Y-90437683D01*
X110283222Y-90227765D01*
X110283196Y-90221693D01*
X110280554Y-90052336D01*
X110274694Y-89901212D01*
X110266401Y-89782009D01*
X110256461Y-89708417D01*
X110253078Y-89696780D01*
X110206570Y-89629664D01*
X110137135Y-89569462D01*
X110098318Y-89548642D01*
X110048285Y-89533454D01*
X109977134Y-89523044D01*
X109874966Y-89516561D01*
X109731881Y-89513149D01*
X109604431Y-89512366D01*
X109604431Y-89819159D01*
X109747411Y-89819441D01*
X109856280Y-89821963D01*
X109918178Y-89826541D01*
X109925598Y-89828261D01*
X109944864Y-89854572D01*
X109957616Y-89921143D01*
X109964689Y-90035679D01*
X109966917Y-90205884D01*
X109966917Y-90210037D01*
X109965935Y-90369323D01*
X109961779Y-90476717D01*
X109952635Y-90543970D01*
X109936690Y-90582834D01*
X109912129Y-90605060D01*
X109905351Y-90608905D01*
X109842564Y-90624876D01*
X109734459Y-90635629D01*
X109597016Y-90641295D01*
X109446218Y-90642007D01*
X109298047Y-90637898D01*
X109168483Y-90629099D01*
X109073509Y-90615744D01*
X109032915Y-90601681D01*
X109009017Y-90576274D01*
X108993833Y-90534150D01*
X108986026Y-90463496D01*
X108984263Y-90352500D01*
X108987045Y-90195854D01*
X108996115Y-89830200D01*
X109440197Y-89821303D01*
X109604431Y-89819159D01*
X109604431Y-89512366D01*
X109537980Y-89511957D01*
X109469336Y-89511905D01*
X109262053Y-89512369D01*
X109108388Y-89514433D01*
X108998301Y-89519100D01*
X108921753Y-89527377D01*
X108868704Y-89540267D01*
X108829117Y-89558776D01*
X108799515Y-89578958D01*
X108709649Y-89646012D01*
X108692317Y-90756744D01*
X108775074Y-90834575D01*
G36*
X108775805Y-89243762D02*
X108808348Y-89271882D01*
X108843950Y-89292441D01*
X108892881Y-89306877D01*
X108965413Y-89316628D01*
X109071818Y-89323131D01*
X109222366Y-89327825D01*
X109403943Y-89331688D01*
X109641995Y-89333813D01*
X109836618Y-89330207D01*
X109981162Y-89321120D01*
X110068975Y-89306803D01*
X110069682Y-89306593D01*
X110138546Y-89281244D01*
X110191064Y-89246315D01*
X110229416Y-89193591D01*
X110255785Y-89114856D01*
X110272352Y-89001892D01*
X110281300Y-88846484D01*
X110284810Y-88640415D01*
X110285213Y-88494939D01*
X110285213Y-87904511D01*
X108980201Y-87904511D01*
X108980201Y-88190977D01*
X109966917Y-88190977D01*
X109966917Y-88587727D01*
X109966076Y-88754381D01*
X109962481Y-88868610D01*
X109954524Y-88941639D01*
X109940596Y-88984692D01*
X109919090Y-89008992D01*
X109905351Y-89017426D01*
X109844726Y-89032153D01*
X109737318Y-89042423D01*
X109599846Y-89048197D01*
X109449032Y-89049438D01*
X109301597Y-89046108D01*
X109174262Y-89038169D01*
X109083749Y-89025583D01*
X109061847Y-89019334D01*
X109028052Y-89004754D01*
X109005168Y-88983934D01*
X108991068Y-88945682D01*
X108983625Y-88878803D01*
X108980712Y-88772103D01*
X108980201Y-88614388D01*
X108980201Y-88190977D01*
X108980201Y-87904511D01*
X108693735Y-87904511D01*
X108693735Y-89166598D01*
X108775805Y-89243762D01*
X108775805Y-89243762D01*
G37*
X108775805Y-89243762D02*
X108808348Y-89271882D01*
X108843950Y-89292441D01*
X108892881Y-89306877D01*
X108965413Y-89316628D01*
X109071818Y-89323131D01*
X109222366Y-89327825D01*
X109403943Y-89331688D01*
X109641995Y-89333813D01*
X109836618Y-89330207D01*
X109981162Y-89321120D01*
X110068975Y-89306803D01*
X110069682Y-89306593D01*
X110138546Y-89281244D01*
X110191064Y-89246315D01*
X110229416Y-89193591D01*
X110255785Y-89114856D01*
X110272352Y-89001892D01*
X110281300Y-88846484D01*
X110284810Y-88640415D01*
X110285213Y-88494939D01*
X110285213Y-87904511D01*
X108980201Y-87904511D01*
X108980201Y-88190977D01*
X109966917Y-88190977D01*
X109966917Y-88587727D01*
X109966076Y-88754381D01*
X109962481Y-88868610D01*
X109954524Y-88941639D01*
X109940596Y-88984692D01*
X109919090Y-89008992D01*
X109905351Y-89017426D01*
X109844726Y-89032153D01*
X109737318Y-89042423D01*
X109599846Y-89048197D01*
X109449032Y-89049438D01*
X109301597Y-89046108D01*
X109174262Y-89038169D01*
X109083749Y-89025583D01*
X109061847Y-89019334D01*
X109028052Y-89004754D01*
X109005168Y-88983934D01*
X108991068Y-88945682D01*
X108983625Y-88878803D01*
X108980712Y-88772103D01*
X108980201Y-88614388D01*
X108980201Y-88190977D01*
X108980201Y-87904511D01*
X108693735Y-87904511D01*
X108693735Y-89166598D01*
X108775805Y-89243762D01*
G36*
X109304943Y-87014409D02*
X109918920Y-87442982D01*
X109306327Y-87451627D01*
X108693735Y-87460272D01*
X108693735Y-87713534D01*
X109439456Y-87713534D01*
X109693016Y-87713129D01*
X109890047Y-87710681D01*
X110037675Y-87704340D01*
X110143030Y-87692255D01*
X110213241Y-87672576D01*
X110255435Y-87643453D01*
X110276742Y-87603034D01*
X110284290Y-87549471D01*
X110285213Y-87494002D01*
X110284186Y-87448501D01*
X110277213Y-87408817D01*
X110258457Y-87369627D01*
X110222081Y-87325607D01*
X110162249Y-87271433D01*
X110073124Y-87201782D01*
X109948869Y-87111331D01*
X109783648Y-86994756D01*
X109588228Y-86858311D01*
X109034476Y-86472180D01*
X110285213Y-86472180D01*
X110285213Y-86216432D01*
X109497431Y-86224945D01*
X108709649Y-86233459D01*
X108700307Y-86409647D01*
X108690966Y-86585835D01*
X109304943Y-87014409D01*
X109304943Y-87014409D01*
G37*
X109304943Y-87014409D02*
X109918920Y-87442982D01*
X109306327Y-87451627D01*
X108693735Y-87460272D01*
X108693735Y-87713534D01*
X109439456Y-87713534D01*
X109693016Y-87713129D01*
X109890047Y-87710681D01*
X110037675Y-87704340D01*
X110143030Y-87692255D01*
X110213241Y-87672576D01*
X110255435Y-87643453D01*
X110276742Y-87603034D01*
X110284290Y-87549471D01*
X110285213Y-87494002D01*
X110284186Y-87448501D01*
X110277213Y-87408817D01*
X110258457Y-87369627D01*
X110222081Y-87325607D01*
X110162249Y-87271433D01*
X110073124Y-87201782D01*
X109948869Y-87111331D01*
X109783648Y-86994756D01*
X109588228Y-86858311D01*
X109034476Y-86472180D01*
X110285213Y-86472180D01*
X110285213Y-86216432D01*
X109497431Y-86224945D01*
X108709649Y-86233459D01*
X108700307Y-86409647D01*
X108690966Y-86585835D01*
X109304943Y-87014409D01*
G36*
X108694170Y-85499969D02*
X108696144Y-85650381D01*
X108700656Y-85756449D01*
X108708706Y-85827829D01*
X108721293Y-85874177D01*
X108739418Y-85905150D01*
X108758986Y-85925730D01*
X108803478Y-85957496D01*
X108865620Y-85982100D01*
X108953117Y-86000367D01*
X109073672Y-86013122D01*
X109234993Y-86021190D01*
X109444782Y-86025396D01*
X109700809Y-86026566D01*
X110285213Y-86026566D01*
X110285213Y-85708271D01*
X109744110Y-85708271D01*
X109744110Y-84880702D01*
X110285213Y-84880702D01*
X110285213Y-84594236D01*
X109573340Y-84594236D01*
X109341557Y-84594544D01*
X109270564Y-84595108D01*
X109270564Y-84880702D01*
X109489474Y-84880702D01*
X109489474Y-85710948D01*
X109242795Y-85701652D01*
X108996115Y-85692356D01*
X108987084Y-85330872D01*
X108985965Y-85136815D01*
X108993759Y-85003488D01*
X109010391Y-84931944D01*
X109014853Y-84925044D01*
X109072262Y-84896622D01*
X109187176Y-84882538D01*
X109270564Y-84880702D01*
X109270564Y-84595108D01*
X109164698Y-84595951D01*
X109034028Y-84599182D01*
X108940813Y-84604960D01*
X108876318Y-84614009D01*
X108831809Y-84627054D01*
X108798552Y-84644819D01*
X108777601Y-84660205D01*
X108693735Y-84726174D01*
X108693735Y-85295556D01*
X108694170Y-85499969D01*
X108694170Y-85499969D01*
G37*
X108694170Y-85499969D02*
X108696144Y-85650381D01*
X108700656Y-85756449D01*
X108708706Y-85827829D01*
X108721293Y-85874177D01*
X108739418Y-85905150D01*
X108758986Y-85925730D01*
X108803478Y-85957496D01*
X108865620Y-85982100D01*
X108953117Y-86000367D01*
X109073672Y-86013122D01*
X109234993Y-86021190D01*
X109444782Y-86025396D01*
X109700809Y-86026566D01*
X110285213Y-86026566D01*
X110285213Y-85708271D01*
X109744110Y-85708271D01*
X109744110Y-84880702D01*
X110285213Y-84880702D01*
X110285213Y-84594236D01*
X109573340Y-84594236D01*
X109341557Y-84594544D01*
X109270564Y-84595108D01*
X109270564Y-84880702D01*
X109489474Y-84880702D01*
X109489474Y-85710948D01*
X109242795Y-85701652D01*
X108996115Y-85692356D01*
X108987084Y-85330872D01*
X108985965Y-85136815D01*
X108993759Y-85003488D01*
X109010391Y-84931944D01*
X109014853Y-84925044D01*
X109072262Y-84896622D01*
X109187176Y-84882538D01*
X109270564Y-84880702D01*
X109270564Y-84595108D01*
X109164698Y-84595951D01*
X109034028Y-84599182D01*
X108940813Y-84604960D01*
X108876318Y-84614009D01*
X108831809Y-84627054D01*
X108798552Y-84644819D01*
X108777601Y-84660205D01*
X108693735Y-84726174D01*
X108693735Y-85295556D01*
X108694170Y-85499969D01*
G36*
X108693961Y-83859297D02*
X108697447Y-84042679D01*
X108708401Y-84177694D01*
X108731029Y-84271987D01*
X108769539Y-84333201D01*
X108828141Y-84368978D01*
X108911041Y-84386963D01*
X109022448Y-84394798D01*
X109122346Y-84398433D01*
X109315880Y-84399675D01*
X109456572Y-84385419D01*
X109553960Y-84352871D01*
X109617581Y-84299238D01*
X109648523Y-84244349D01*
X109685714Y-84154561D01*
X109956145Y-84310739D01*
X110074438Y-84377425D01*
X110172924Y-84429914D01*
X110238182Y-84461215D01*
X110255894Y-84466917D01*
X110272756Y-84438318D01*
X110283356Y-84365330D01*
X110285213Y-84310777D01*
X110285213Y-84154637D01*
X109982841Y-83984524D01*
X109680468Y-83814411D01*
X109680460Y-83551817D01*
X109680451Y-83289223D01*
X110285213Y-83289223D01*
X110285213Y-83002757D01*
X109425815Y-83002757D01*
X109425815Y-83289223D01*
X109425815Y-83667281D01*
X109423820Y-83841771D01*
X109417155Y-83962103D01*
X109404799Y-84037676D01*
X109385730Y-84077885D01*
X109380654Y-84082818D01*
X109321624Y-84103589D01*
X109222332Y-84111929D01*
X109165805Y-84110588D01*
X108996115Y-84100877D01*
X108978299Y-83289223D01*
X109425815Y-83289223D01*
X109425815Y-83002757D01*
X108693735Y-83002757D01*
X108693735Y-83619907D01*
X108693961Y-83859297D01*
X108693961Y-83859297D01*
G37*
X108693961Y-83859297D02*
X108697447Y-84042679D01*
X108708401Y-84177694D01*
X108731029Y-84271987D01*
X108769539Y-84333201D01*
X108828141Y-84368978D01*
X108911041Y-84386963D01*
X109022448Y-84394798D01*
X109122346Y-84398433D01*
X109315880Y-84399675D01*
X109456572Y-84385419D01*
X109553960Y-84352871D01*
X109617581Y-84299238D01*
X109648523Y-84244349D01*
X109685714Y-84154561D01*
X109956145Y-84310739D01*
X110074438Y-84377425D01*
X110172924Y-84429914D01*
X110238182Y-84461215D01*
X110255894Y-84466917D01*
X110272756Y-84438318D01*
X110283356Y-84365330D01*
X110285213Y-84310777D01*
X110285213Y-84154637D01*
X109982841Y-83984524D01*
X109680468Y-83814411D01*
X109680460Y-83551817D01*
X109680451Y-83289223D01*
X110285213Y-83289223D01*
X110285213Y-83002757D01*
X109425815Y-83002757D01*
X109425815Y-83289223D01*
X109425815Y-83667281D01*
X109423820Y-83841771D01*
X109417155Y-83962103D01*
X109404799Y-84037676D01*
X109385730Y-84077885D01*
X109380654Y-84082818D01*
X109321624Y-84103589D01*
X109222332Y-84111929D01*
X109165805Y-84110588D01*
X108996115Y-84100877D01*
X108978299Y-83289223D01*
X109425815Y-83289223D01*
X109425815Y-83002757D01*
X108693735Y-83002757D01*
X108693735Y-83619907D01*
X108693961Y-83859297D01*
G36*
X111653885Y-95989223D02*
X111653885Y-94938847D01*
X111940351Y-94938847D01*
X111940351Y-95798246D01*
X112194988Y-95798246D01*
X112194988Y-94938847D01*
X112672431Y-94938847D01*
X112672431Y-95989223D01*
X112958897Y-95989223D01*
X112958897Y-94652381D01*
X111367419Y-94652381D01*
X111367419Y-95989223D01*
X111653885Y-95989223D01*
X111653885Y-95989223D01*
G37*
X111653885Y-95989223D02*
X111653885Y-94938847D01*
X111940351Y-94938847D01*
X111940351Y-95798246D01*
X112194988Y-95798246D01*
X112194988Y-94938847D01*
X112672431Y-94938847D01*
X112672431Y-95989223D01*
X112958897Y-95989223D01*
X112958897Y-94652381D01*
X111367419Y-94652381D01*
X111367419Y-95989223D01*
X111653885Y-95989223D01*
G36*
X111367653Y-93896776D02*
X111369030Y-94056213D01*
X111372558Y-94170680D01*
X111379247Y-94249522D01*
X111390104Y-94302084D01*
X111406139Y-94337711D01*
X111428362Y-94365747D01*
X111442722Y-94380452D01*
X111535019Y-94436143D01*
X111669340Y-94472763D01*
X111826736Y-94489546D01*
X111988260Y-94485725D01*
X112134963Y-94460533D01*
X112247897Y-94413201D01*
X112248116Y-94413058D01*
X112311084Y-94348984D01*
X112340337Y-94289242D01*
X112350841Y-94255345D01*
X112368409Y-94240293D01*
X112403967Y-94247165D01*
X112468442Y-94279039D01*
X112572759Y-94338994D01*
X112624164Y-94369219D01*
X112741695Y-94436372D01*
X112840342Y-94489001D01*
X112906274Y-94519914D01*
X112923923Y-94525063D01*
X112945514Y-94495863D01*
X112957525Y-94418186D01*
X112958897Y-94372150D01*
X112958897Y-94219237D01*
X112656516Y-94047619D01*
X112354136Y-93876001D01*
X112354136Y-93347368D01*
X112958897Y-93347368D01*
X112958897Y-93060902D01*
X112101401Y-93060902D01*
X112101401Y-93347368D01*
X112092492Y-93752052D01*
X112083584Y-94156735D01*
X111980138Y-94186355D01*
X111841201Y-94198550D01*
X111773246Y-94186355D01*
X111669800Y-94156735D01*
X111660891Y-93752052D01*
X111651983Y-93347368D01*
X112101401Y-93347368D01*
X112101401Y-93060902D01*
X111367419Y-93060902D01*
X111367419Y-93683026D01*
X111367653Y-93896776D01*
X111367653Y-93896776D01*
G37*
X111367653Y-93896776D02*
X111369030Y-94056213D01*
X111372558Y-94170680D01*
X111379247Y-94249522D01*
X111390104Y-94302084D01*
X111406139Y-94337711D01*
X111428362Y-94365747D01*
X111442722Y-94380452D01*
X111535019Y-94436143D01*
X111669340Y-94472763D01*
X111826736Y-94489546D01*
X111988260Y-94485725D01*
X112134963Y-94460533D01*
X112247897Y-94413201D01*
X112248116Y-94413058D01*
X112311084Y-94348984D01*
X112340337Y-94289242D01*
X112350841Y-94255345D01*
X112368409Y-94240293D01*
X112403967Y-94247165D01*
X112468442Y-94279039D01*
X112572759Y-94338994D01*
X112624164Y-94369219D01*
X112741695Y-94436372D01*
X112840342Y-94489001D01*
X112906274Y-94519914D01*
X112923923Y-94525063D01*
X112945514Y-94495863D01*
X112957525Y-94418186D01*
X112958897Y-94372150D01*
X112958897Y-94219237D01*
X112656516Y-94047619D01*
X112354136Y-93876001D01*
X112354136Y-93347368D01*
X112958897Y-93347368D01*
X112958897Y-93060902D01*
X112101401Y-93060902D01*
X112101401Y-93347368D01*
X112092492Y-93752052D01*
X112083584Y-94156735D01*
X111980138Y-94186355D01*
X111841201Y-94198550D01*
X111773246Y-94186355D01*
X111669800Y-94156735D01*
X111660891Y-93752052D01*
X111651983Y-93347368D01*
X112101401Y-93347368D01*
X112101401Y-93060902D01*
X111367419Y-93060902D01*
X111367419Y-93683026D01*
X111367653Y-93896776D01*
G36*
X111653885Y-92901754D02*
X111653885Y-91851378D01*
X111940351Y-91851378D01*
X111940351Y-92678947D01*
X112194988Y-92678947D01*
X112194988Y-91851378D01*
X112672431Y-91851378D01*
X112672431Y-92901754D01*
X112958897Y-92901754D01*
X112958897Y-91564912D01*
X111367419Y-91564912D01*
X111367419Y-92901754D01*
X111653885Y-92901754D01*
X111653885Y-92901754D01*
G37*
X111653885Y-92901754D02*
X111653885Y-91851378D01*
X111940351Y-91851378D01*
X111940351Y-92678947D01*
X112194988Y-92678947D01*
X112194988Y-91851378D01*
X112672431Y-91851378D01*
X112672431Y-92901754D01*
X112958897Y-92901754D01*
X112958897Y-91564912D01*
X111367419Y-91564912D01*
X111367419Y-92901754D01*
X111653885Y-92901754D01*
G36*
X111940351Y-90164411D02*
X111940351Y-91055639D01*
X111367419Y-91055639D01*
X111367419Y-91342105D01*
X112958897Y-91342105D01*
X112958897Y-91055639D01*
X112194988Y-91055639D01*
X112194988Y-90164411D01*
X112958897Y-90164411D01*
X112958897Y-89877945D01*
X111367419Y-89877945D01*
X111367419Y-90164411D01*
X111940351Y-90164411D01*
X111940351Y-90164411D01*
G37*
X111940351Y-90164411D02*
X111940351Y-91055639D01*
X111367419Y-91055639D01*
X111367419Y-91342105D01*
X112958897Y-91342105D01*
X112958897Y-91055639D01*
X112194988Y-91055639D01*
X112194988Y-90164411D01*
X112958897Y-90164411D01*
X112958897Y-89877945D01*
X111367419Y-89877945D01*
X111367419Y-90164411D01*
X111940351Y-90164411D01*
G36*
X111368321Y-89133777D02*
X111372557Y-89312196D01*
X111382421Y-89443670D01*
X111400209Y-89536550D01*
X111428214Y-89599191D01*
X111468732Y-89639944D01*
X111524056Y-89667162D01*
X111583207Y-89685553D01*
X111723453Y-89709383D01*
X111894354Y-89717221D01*
X112064948Y-89709066D01*
X112202007Y-89685553D01*
X112278824Y-89659481D01*
X112335001Y-89623941D01*
X112373721Y-89569455D01*
X112398168Y-89486548D01*
X112411526Y-89365745D01*
X112416977Y-89197570D01*
X112417795Y-89043294D01*
X112417795Y-88572932D01*
X112958897Y-88572932D01*
X112958897Y-88286466D01*
X112131328Y-88286466D01*
X112131328Y-88572932D01*
X112131328Y-89370247D01*
X112043797Y-89403996D01*
X111951662Y-89422788D01*
X111845392Y-89421602D01*
X111749165Y-89403167D01*
X111687160Y-89370209D01*
X111681615Y-89363128D01*
X111671023Y-89315991D01*
X111662324Y-89219572D01*
X111656459Y-89088239D01*
X111654372Y-88946930D01*
X111653885Y-88572932D01*
X112131328Y-88572932D01*
X112131328Y-88286466D01*
X111367419Y-88286466D01*
X111367419Y-88900061D01*
X111368321Y-89133777D01*
X111368321Y-89133777D01*
G37*
X111368321Y-89133777D02*
X111372557Y-89312196D01*
X111382421Y-89443670D01*
X111400209Y-89536550D01*
X111428214Y-89599191D01*
X111468732Y-89639944D01*
X111524056Y-89667162D01*
X111583207Y-89685553D01*
X111723453Y-89709383D01*
X111894354Y-89717221D01*
X112064948Y-89709066D01*
X112202007Y-89685553D01*
X112278824Y-89659481D01*
X112335001Y-89623941D01*
X112373721Y-89569455D01*
X112398168Y-89486548D01*
X112411526Y-89365745D01*
X112416977Y-89197570D01*
X112417795Y-89043294D01*
X112417795Y-88572932D01*
X112958897Y-88572932D01*
X112958897Y-88286466D01*
X112131328Y-88286466D01*
X112131328Y-88572932D01*
X112131328Y-89370247D01*
X112043797Y-89403996D01*
X111951662Y-89422788D01*
X111845392Y-89421602D01*
X111749165Y-89403167D01*
X111687160Y-89370209D01*
X111681615Y-89363128D01*
X111671023Y-89315991D01*
X111662324Y-89219572D01*
X111656459Y-89088239D01*
X111654372Y-88946930D01*
X111653885Y-88572932D01*
X112131328Y-88572932D01*
X112131328Y-88286466D01*
X111367419Y-88286466D01*
X111367419Y-88900061D01*
X111368321Y-89133777D01*
G36*
X111653885Y-88095489D02*
X111653885Y-87603250D01*
X111654378Y-87415645D01*
X111656677Y-87281687D01*
X111662015Y-87191365D01*
X111671625Y-87134671D01*
X111686737Y-87101594D01*
X111708584Y-87082125D01*
X111718746Y-87076299D01*
X111808567Y-87055643D01*
X111883081Y-87086744D01*
X111920565Y-87149613D01*
X111928177Y-87208885D01*
X111934407Y-87315884D01*
X111938552Y-87454682D01*
X111939916Y-87588625D01*
X111940834Y-87747677D01*
X111944737Y-87856234D01*
X111954016Y-87927454D01*
X111971062Y-87974499D01*
X111998267Y-88010529D01*
X112020557Y-88032423D01*
X112069462Y-88070402D01*
X112129043Y-88094836D01*
X112215862Y-88109819D01*
X112346480Y-88119448D01*
X112379153Y-88121083D01*
X112594838Y-88119949D01*
X112755597Y-88092461D01*
X112864934Y-88037539D01*
X112926351Y-87954099D01*
X112927270Y-87951723D01*
X112937840Y-87892785D01*
X112946909Y-87782788D01*
X112953839Y-87634325D01*
X112957989Y-87459991D01*
X112958897Y-87329507D01*
X112958897Y-86790476D01*
X112672431Y-86790476D01*
X112672431Y-87265646D01*
X112671220Y-87469787D01*
X112665058Y-87618901D01*
X112650154Y-87721610D01*
X112622713Y-87786538D01*
X112578945Y-87822304D01*
X112515056Y-87837532D01*
X112427253Y-87840844D01*
X112419418Y-87840852D01*
X112322508Y-87833082D01*
X112251501Y-87813386D01*
X112233857Y-87801065D01*
X112220965Y-87755798D01*
X112208721Y-87660045D01*
X112198363Y-87526974D01*
X112191132Y-87369755D01*
X112190173Y-87336706D01*
X112184933Y-87163551D01*
X112178516Y-87042535D01*
X112168954Y-86962143D01*
X112154276Y-86910861D01*
X112132513Y-86877172D01*
X112107652Y-86854318D01*
X112010752Y-86805218D01*
X111881050Y-86777793D01*
X111737247Y-86771508D01*
X111598042Y-86785829D01*
X111482137Y-86820220D01*
X111408233Y-86874146D01*
X111408091Y-86874339D01*
X111392064Y-86917732D01*
X111380369Y-87001794D01*
X111372624Y-87132507D01*
X111368448Y-87315856D01*
X111367419Y-87512725D01*
X111367419Y-88095489D01*
X111653885Y-88095489D01*
X111653885Y-88095489D01*
G37*
X111653885Y-88095489D02*
X111653885Y-87603250D01*
X111654378Y-87415645D01*
X111656677Y-87281687D01*
X111662015Y-87191365D01*
X111671625Y-87134671D01*
X111686737Y-87101594D01*
X111708584Y-87082125D01*
X111718746Y-87076299D01*
X111808567Y-87055643D01*
X111883081Y-87086744D01*
X111920565Y-87149613D01*
X111928177Y-87208885D01*
X111934407Y-87315884D01*
X111938552Y-87454682D01*
X111939916Y-87588625D01*
X111940834Y-87747677D01*
X111944737Y-87856234D01*
X111954016Y-87927454D01*
X111971062Y-87974499D01*
X111998267Y-88010529D01*
X112020557Y-88032423D01*
X112069462Y-88070402D01*
X112129043Y-88094836D01*
X112215862Y-88109819D01*
X112346480Y-88119448D01*
X112379153Y-88121083D01*
X112594838Y-88119949D01*
X112755597Y-88092461D01*
X112864934Y-88037539D01*
X112926351Y-87954099D01*
X112927270Y-87951723D01*
X112937840Y-87892785D01*
X112946909Y-87782788D01*
X112953839Y-87634325D01*
X112957989Y-87459991D01*
X112958897Y-87329507D01*
X112958897Y-86790476D01*
X112672431Y-86790476D01*
X112672431Y-87265646D01*
X112671220Y-87469787D01*
X112665058Y-87618901D01*
X112650154Y-87721610D01*
X112622713Y-87786538D01*
X112578945Y-87822304D01*
X112515056Y-87837532D01*
X112427253Y-87840844D01*
X112419418Y-87840852D01*
X112322508Y-87833082D01*
X112251501Y-87813386D01*
X112233857Y-87801065D01*
X112220965Y-87755798D01*
X112208721Y-87660045D01*
X112198363Y-87526974D01*
X112191132Y-87369755D01*
X112190173Y-87336706D01*
X112184933Y-87163551D01*
X112178516Y-87042535D01*
X112168954Y-86962143D01*
X112154276Y-86910861D01*
X112132513Y-86877172D01*
X112107652Y-86854318D01*
X112010752Y-86805218D01*
X111881050Y-86777793D01*
X111737247Y-86771508D01*
X111598042Y-86785829D01*
X111482137Y-86820220D01*
X111408233Y-86874146D01*
X111408091Y-86874339D01*
X111392064Y-86917732D01*
X111380369Y-87001794D01*
X111372624Y-87132507D01*
X111368448Y-87315856D01*
X111367419Y-87512725D01*
X111367419Y-88095489D01*
X111653885Y-88095489D01*
G36*
X111467544Y-86518942D02*
X111567670Y-86603192D01*
X112805390Y-86583584D01*
X112882144Y-86494278D01*
X112910892Y-86458149D01*
X112931391Y-86420092D01*
X112945033Y-86369234D01*
X112953212Y-86294706D01*
X112957319Y-86185634D01*
X112958746Y-86031148D01*
X112958897Y-85895025D01*
X112958897Y-85385078D01*
X112865857Y-85292038D01*
X112772817Y-85198997D01*
X112179941Y-85198997D01*
X112167942Y-85199085D01*
X112167942Y-85485464D01*
X112345639Y-85486348D01*
X112470128Y-85489827D01*
X112551849Y-85497136D01*
X112601238Y-85509513D01*
X112628734Y-85528194D01*
X112638052Y-85541165D01*
X112652232Y-85596072D01*
X112663488Y-85697429D01*
X112670243Y-85828041D01*
X112671463Y-85904932D01*
X112669394Y-86060529D01*
X112660920Y-86164703D01*
X112644389Y-86229512D01*
X112622413Y-86263015D01*
X112589346Y-86284252D01*
X112533103Y-86298757D01*
X112443199Y-86307643D01*
X112309147Y-86312022D01*
X112151336Y-86313033D01*
X111944978Y-86310146D01*
X111800189Y-86301385D01*
X111715135Y-86286598D01*
X111692080Y-86274837D01*
X111673916Y-86224990D01*
X111661343Y-86128646D01*
X111654362Y-86002723D01*
X111652972Y-85864137D01*
X111657174Y-85729804D01*
X111666967Y-85616642D01*
X111682352Y-85541567D01*
X111692080Y-85523659D01*
X111740796Y-85505639D01*
X111846541Y-85493428D01*
X112011675Y-85486836D01*
X112167942Y-85485464D01*
X112167942Y-85199085D01*
X111937518Y-85200781D01*
X111750904Y-85207079D01*
X111612324Y-85219310D01*
X111514005Y-85238891D01*
X111448171Y-85267243D01*
X111407048Y-85305783D01*
X111387191Y-85343657D01*
X111380509Y-85391797D01*
X111374792Y-85491611D01*
X111370455Y-85631113D01*
X111367913Y-85798320D01*
X111367419Y-85914937D01*
X111367419Y-86434692D01*
X111467544Y-86518942D01*
X111467544Y-86518942D01*
G37*
X111467544Y-86518942D02*
X111567670Y-86603192D01*
X112805390Y-86583584D01*
X112882144Y-86494278D01*
X112910892Y-86458149D01*
X112931391Y-86420092D01*
X112945033Y-86369234D01*
X112953212Y-86294706D01*
X112957319Y-86185634D01*
X112958746Y-86031148D01*
X112958897Y-85895025D01*
X112958897Y-85385078D01*
X112865857Y-85292038D01*
X112772817Y-85198997D01*
X112179941Y-85198997D01*
X112167942Y-85199085D01*
X112167942Y-85485464D01*
X112345639Y-85486348D01*
X112470128Y-85489827D01*
X112551849Y-85497136D01*
X112601238Y-85509513D01*
X112628734Y-85528194D01*
X112638052Y-85541165D01*
X112652232Y-85596072D01*
X112663488Y-85697429D01*
X112670243Y-85828041D01*
X112671463Y-85904932D01*
X112669394Y-86060529D01*
X112660920Y-86164703D01*
X112644389Y-86229512D01*
X112622413Y-86263015D01*
X112589346Y-86284252D01*
X112533103Y-86298757D01*
X112443199Y-86307643D01*
X112309147Y-86312022D01*
X112151336Y-86313033D01*
X111944978Y-86310146D01*
X111800189Y-86301385D01*
X111715135Y-86286598D01*
X111692080Y-86274837D01*
X111673916Y-86224990D01*
X111661343Y-86128646D01*
X111654362Y-86002723D01*
X111652972Y-85864137D01*
X111657174Y-85729804D01*
X111666967Y-85616642D01*
X111682352Y-85541567D01*
X111692080Y-85523659D01*
X111740796Y-85505639D01*
X111846541Y-85493428D01*
X112011675Y-85486836D01*
X112167942Y-85485464D01*
X112167942Y-85199085D01*
X111937518Y-85200781D01*
X111750904Y-85207079D01*
X111612324Y-85219310D01*
X111514005Y-85238891D01*
X111448171Y-85267243D01*
X111407048Y-85305783D01*
X111387191Y-85343657D01*
X111380509Y-85391797D01*
X111374792Y-85491611D01*
X111370455Y-85631113D01*
X111367913Y-85798320D01*
X111367419Y-85914937D01*
X111367419Y-86434692D01*
X111467544Y-86518942D01*
G36*
X111371447Y-84886609D02*
X111389407Y-84939495D01*
X111430109Y-84969199D01*
X111449065Y-84976978D01*
X111503951Y-84986022D01*
X111612075Y-84994029D01*
X111763016Y-85000591D01*
X111946355Y-85005304D01*
X112151673Y-85007759D01*
X112244804Y-85008020D01*
X112958897Y-85008020D01*
X112958897Y-84721554D01*
X112425752Y-84719324D01*
X111892607Y-84717093D01*
X112417795Y-84456730D01*
X112942983Y-84196366D01*
X112942983Y-83909900D01*
X111892607Y-83389908D01*
X112958897Y-83384712D01*
X112958897Y-83130075D01*
X112202945Y-83130563D01*
X111988250Y-83131776D01*
X111793719Y-83134919D01*
X111628749Y-83139674D01*
X111502740Y-83145722D01*
X111425091Y-83152748D01*
X111405262Y-83157514D01*
X111377382Y-83211532D01*
X111372682Y-83321238D01*
X111373433Y-83333915D01*
X111383333Y-83483852D01*
X111956010Y-83753913D01*
X112132411Y-83837694D01*
X112288976Y-83913184D01*
X112416597Y-83975899D01*
X112506167Y-84021355D01*
X112548576Y-84045067D01*
X112550346Y-84046511D01*
X112529469Y-84066038D01*
X112458799Y-84107803D01*
X112346429Y-84167553D01*
X112200449Y-84241029D01*
X112028950Y-84323976D01*
X111969712Y-84351960D01*
X111367419Y-84634872D01*
X111367419Y-84790404D01*
X111371447Y-84886609D01*
X111371447Y-84886609D01*
G37*
X111371447Y-84886609D02*
X111389407Y-84939495D01*
X111430109Y-84969199D01*
X111449065Y-84976978D01*
X111503951Y-84986022D01*
X111612075Y-84994029D01*
X111763016Y-85000591D01*
X111946355Y-85005304D01*
X112151673Y-85007759D01*
X112244804Y-85008020D01*
X112958897Y-85008020D01*
X112958897Y-84721554D01*
X112425752Y-84719324D01*
X111892607Y-84717093D01*
X112417795Y-84456730D01*
X112942983Y-84196366D01*
X112942983Y-83909900D01*
X111892607Y-83389908D01*
X112958897Y-83384712D01*
X112958897Y-83130075D01*
X112202945Y-83130563D01*
X111988250Y-83131776D01*
X111793719Y-83134919D01*
X111628749Y-83139674D01*
X111502740Y-83145722D01*
X111425091Y-83152748D01*
X111405262Y-83157514D01*
X111377382Y-83211532D01*
X111372682Y-83321238D01*
X111373433Y-83333915D01*
X111383333Y-83483852D01*
X111956010Y-83753913D01*
X112132411Y-83837694D01*
X112288976Y-83913184D01*
X112416597Y-83975899D01*
X112506167Y-84021355D01*
X112548576Y-84045067D01*
X112550346Y-84046511D01*
X112529469Y-84066038D01*
X112458799Y-84107803D01*
X112346429Y-84167553D01*
X112200449Y-84241029D01*
X112028950Y-84323976D01*
X111969712Y-84351960D01*
X111367419Y-84634872D01*
X111367419Y-84790404D01*
X111371447Y-84886609D01*
G36*
X111653885Y-82970927D02*
X111653885Y-82397995D01*
X112958897Y-82397995D01*
X112958897Y-82111529D01*
X111653885Y-82111529D01*
X111653885Y-81506767D01*
X111367419Y-81506767D01*
X111367419Y-82970927D01*
X111653885Y-82970927D01*
X111653885Y-82970927D01*
G37*
X111653885Y-82970927D02*
X111653885Y-82397995D01*
X112958897Y-82397995D01*
X112958897Y-82111529D01*
X111653885Y-82111529D01*
X111653885Y-81506767D01*
X111367419Y-81506767D01*
X111367419Y-82970927D01*
X111653885Y-82970927D01*
G36*
X111367140Y-81097878D02*
X111377279Y-81220564D01*
X111403592Y-81308729D01*
X111453070Y-81368179D01*
X111532706Y-81404716D01*
X111649491Y-81424146D01*
X111810417Y-81432272D01*
X112022474Y-81434900D01*
X112223953Y-81436814D01*
X112958897Y-81446435D01*
X112958897Y-81156642D01*
X112417795Y-81156642D01*
X112417795Y-80329073D01*
X112958897Y-80329073D01*
X112958897Y-80042607D01*
X112247024Y-80042607D01*
X112015242Y-80042915D01*
X111927842Y-80043610D01*
X111927842Y-80329073D01*
X112163158Y-80329073D01*
X112163158Y-81156642D01*
X111946717Y-81156642D01*
X111823086Y-81151058D01*
X111731376Y-81136040D01*
X111692080Y-81118446D01*
X111677059Y-81072930D01*
X111665243Y-80980403D01*
X111657056Y-80857455D01*
X111652920Y-80720675D01*
X111653261Y-80586650D01*
X111658501Y-80471970D01*
X111669064Y-80393222D01*
X111673205Y-80379420D01*
X111697722Y-80352227D01*
X111753791Y-80336532D01*
X111854069Y-80329832D01*
X111927842Y-80329073D01*
X111927842Y-80043610D01*
X111838382Y-80044322D01*
X111707712Y-80047553D01*
X111614497Y-80053331D01*
X111550002Y-80062380D01*
X111505493Y-80075425D01*
X111472236Y-80093190D01*
X111451285Y-80108576D01*
X111367419Y-80174545D01*
X111367419Y-80725726D01*
X111366184Y-80934867D01*
X111367140Y-81097878D01*
X111367140Y-81097878D01*
G37*
X111367140Y-81097878D02*
X111377279Y-81220564D01*
X111403592Y-81308729D01*
X111453070Y-81368179D01*
X111532706Y-81404716D01*
X111649491Y-81424146D01*
X111810417Y-81432272D01*
X112022474Y-81434900D01*
X112223953Y-81436814D01*
X112958897Y-81446435D01*
X112958897Y-81156642D01*
X112417795Y-81156642D01*
X112417795Y-80329073D01*
X112958897Y-80329073D01*
X112958897Y-80042607D01*
X112247024Y-80042607D01*
X112015242Y-80042915D01*
X111927842Y-80043610D01*
X111927842Y-80329073D01*
X112163158Y-80329073D01*
X112163158Y-81156642D01*
X111946717Y-81156642D01*
X111823086Y-81151058D01*
X111731376Y-81136040D01*
X111692080Y-81118446D01*
X111677059Y-81072930D01*
X111665243Y-80980403D01*
X111657056Y-80857455D01*
X111652920Y-80720675D01*
X111653261Y-80586650D01*
X111658501Y-80471970D01*
X111669064Y-80393222D01*
X111673205Y-80379420D01*
X111697722Y-80352227D01*
X111753791Y-80336532D01*
X111854069Y-80329832D01*
X111927842Y-80329073D01*
X111927842Y-80043610D01*
X111838382Y-80044322D01*
X111707712Y-80047553D01*
X111614497Y-80053331D01*
X111550002Y-80062380D01*
X111505493Y-80075425D01*
X111472236Y-80093190D01*
X111451285Y-80108576D01*
X111367419Y-80174545D01*
X111367419Y-80725726D01*
X111366184Y-80934867D01*
X111367140Y-81097878D01*
G36*
X114415100Y-92781383D02*
X114789098Y-92790351D01*
X114798006Y-93196178D01*
X114806915Y-93602005D01*
X114041103Y-93602005D01*
X114041103Y-93888471D01*
X114727019Y-93888471D01*
X114983568Y-93887183D01*
X115183924Y-93882510D01*
X115335518Y-93873239D01*
X115445780Y-93858155D01*
X115522138Y-93836047D01*
X115572024Y-93805700D01*
X115602866Y-93765901D01*
X115612810Y-93743812D01*
X115619379Y-93695956D01*
X115625025Y-93596167D01*
X115629354Y-93456166D01*
X115631974Y-93287676D01*
X115632582Y-93153788D01*
X115632582Y-92615288D01*
X115346115Y-92615288D01*
X115346115Y-93070451D01*
X115344891Y-93265816D01*
X115339186Y-93406472D01*
X115325950Y-93501354D01*
X115302134Y-93559395D01*
X115264688Y-93589529D01*
X115210564Y-93600691D01*
X115164687Y-93602005D01*
X115059649Y-93602005D01*
X115059649Y-92619909D01*
X114975783Y-92553939D01*
X114935520Y-92526881D01*
X114887583Y-92508365D01*
X114819754Y-92496808D01*
X114719815Y-92490627D01*
X114575550Y-92488240D01*
X114466510Y-92487970D01*
X114041103Y-92487970D01*
X114041103Y-92772416D01*
X114415100Y-92781383D01*
X114415100Y-92781383D01*
G37*
X114415100Y-92781383D02*
X114789098Y-92790351D01*
X114798006Y-93196178D01*
X114806915Y-93602005D01*
X114041103Y-93602005D01*
X114041103Y-93888471D01*
X114727019Y-93888471D01*
X114983568Y-93887183D01*
X115183924Y-93882510D01*
X115335518Y-93873239D01*
X115445780Y-93858155D01*
X115522138Y-93836047D01*
X115572024Y-93805700D01*
X115602866Y-93765901D01*
X115612810Y-93743812D01*
X115619379Y-93695956D01*
X115625025Y-93596167D01*
X115629354Y-93456166D01*
X115631974Y-93287676D01*
X115632582Y-93153788D01*
X115632582Y-92615288D01*
X115346115Y-92615288D01*
X115346115Y-93070451D01*
X115344891Y-93265816D01*
X115339186Y-93406472D01*
X115325950Y-93501354D01*
X115302134Y-93559395D01*
X115264688Y-93589529D01*
X115210564Y-93600691D01*
X115164687Y-93602005D01*
X115059649Y-93602005D01*
X115059649Y-92619909D01*
X114975783Y-92553939D01*
X114935520Y-92526881D01*
X114887583Y-92508365D01*
X114819754Y-92496808D01*
X114719815Y-92490627D01*
X114575550Y-92488240D01*
X114466510Y-92487970D01*
X114041103Y-92487970D01*
X114041103Y-92772416D01*
X114415100Y-92781383D01*
G36*
X114327569Y-92360652D02*
X114327569Y-91755890D01*
X115632582Y-91755890D01*
X115632582Y-91469424D01*
X114327569Y-91469424D01*
X114327569Y-90896491D01*
X114041103Y-90896491D01*
X114041103Y-92360652D01*
X114327569Y-92360652D01*
X114327569Y-92360652D01*
G37*
X114327569Y-92360652D02*
X114327569Y-91755890D01*
X115632582Y-91755890D01*
X115632582Y-91469424D01*
X114327569Y-91469424D01*
X114327569Y-90896491D01*
X114041103Y-90896491D01*
X114041103Y-92360652D01*
X114327569Y-92360652D01*
G36*
X115632582Y-90737343D02*
X115632582Y-90450877D01*
X114041103Y-90450877D01*
X114041103Y-90737343D01*
X115632582Y-90737343D01*
X115632582Y-90737343D01*
G37*
X115632582Y-90737343D02*
X115632582Y-90450877D01*
X114041103Y-90450877D01*
X114041103Y-90737343D01*
X115632582Y-90737343D01*
G36*
X114041572Y-89456203D02*
X114043621Y-89704214D01*
X114049500Y-89892934D01*
X114059466Y-90026633D01*
X114073774Y-90109577D01*
X114082243Y-90132581D01*
X114158173Y-90212856D01*
X114289060Y-90264153D01*
X114472899Y-90285910D01*
X114622315Y-90283812D01*
X114757756Y-90273171D01*
X114847650Y-90255848D01*
X114910084Y-90226974D01*
X114948569Y-90195937D01*
X115003222Y-90128357D01*
X115027723Y-90065969D01*
X115027820Y-90062975D01*
X115032603Y-90029860D01*
X115056447Y-90027583D01*
X115113594Y-90058013D01*
X115147181Y-90078652D01*
X115241391Y-90135574D01*
X115360895Y-90205630D01*
X115449562Y-90256450D01*
X115632582Y-90360060D01*
X115632582Y-90018361D01*
X115354073Y-89859537D01*
X115075564Y-89700712D01*
X115066319Y-89439203D01*
X115057075Y-89177694D01*
X115632582Y-89177694D01*
X115632582Y-88859398D01*
X114327569Y-88859398D01*
X114327569Y-89177694D01*
X114773183Y-89177694D01*
X114773183Y-89558529D01*
X114772274Y-89721410D01*
X114768406Y-89832132D01*
X114759870Y-89902183D01*
X114744957Y-89943051D01*
X114721959Y-89966223D01*
X114711616Y-89972314D01*
X114617880Y-90000028D01*
X114509477Y-90001906D01*
X114415115Y-89979416D01*
X114377587Y-89955245D01*
X114354747Y-89918900D01*
X114339741Y-89856801D01*
X114331212Y-89757725D01*
X114327804Y-89610451D01*
X114327569Y-89541461D01*
X114327569Y-89177694D01*
X114327569Y-88859398D01*
X114041103Y-88859398D01*
X114041572Y-89456203D01*
X114041572Y-89456203D01*
G37*
X114041572Y-89456203D02*
X114043621Y-89704214D01*
X114049500Y-89892934D01*
X114059466Y-90026633D01*
X114073774Y-90109577D01*
X114082243Y-90132581D01*
X114158173Y-90212856D01*
X114289060Y-90264153D01*
X114472899Y-90285910D01*
X114622315Y-90283812D01*
X114757756Y-90273171D01*
X114847650Y-90255848D01*
X114910084Y-90226974D01*
X114948569Y-90195937D01*
X115003222Y-90128357D01*
X115027723Y-90065969D01*
X115027820Y-90062975D01*
X115032603Y-90029860D01*
X115056447Y-90027583D01*
X115113594Y-90058013D01*
X115147181Y-90078652D01*
X115241391Y-90135574D01*
X115360895Y-90205630D01*
X115449562Y-90256450D01*
X115632582Y-90360060D01*
X115632582Y-90018361D01*
X115354073Y-89859537D01*
X115075564Y-89700712D01*
X115066319Y-89439203D01*
X115057075Y-89177694D01*
X115632582Y-89177694D01*
X115632582Y-88859398D01*
X114327569Y-88859398D01*
X114327569Y-89177694D01*
X114773183Y-89177694D01*
X114773183Y-89558529D01*
X114772274Y-89721410D01*
X114768406Y-89832132D01*
X114759870Y-89902183D01*
X114744957Y-89943051D01*
X114721959Y-89966223D01*
X114711616Y-89972314D01*
X114617880Y-90000028D01*
X114509477Y-90001906D01*
X114415115Y-89979416D01*
X114377587Y-89955245D01*
X114354747Y-89918900D01*
X114339741Y-89856801D01*
X114331212Y-89757725D01*
X114327804Y-89610451D01*
X114327569Y-89541461D01*
X114327569Y-89177694D01*
X114327569Y-88859398D01*
X114041103Y-88859398D01*
X114041572Y-89456203D01*
G36*
X114041006Y-88018079D02*
X114041103Y-88078127D01*
X114041103Y-88668421D01*
X114327569Y-88668421D01*
X114327569Y-88181429D01*
X114329769Y-87963646D01*
X114336533Y-87805973D01*
X114348108Y-87705004D01*
X114364744Y-87657338D01*
X114365765Y-87656241D01*
X114414912Y-87638098D01*
X114521535Y-87625850D01*
X114687852Y-87619316D01*
X114836842Y-87618045D01*
X115045192Y-87620781D01*
X115192332Y-87629108D01*
X115280482Y-87643207D01*
X115307920Y-87656241D01*
X115327782Y-87711024D01*
X115340494Y-87827620D01*
X115345915Y-88004568D01*
X115346115Y-88054110D01*
X115346115Y-88413784D01*
X115157741Y-88413784D01*
X115027115Y-88412205D01*
X114943301Y-88399760D01*
X114895916Y-88364893D01*
X114874574Y-88296045D01*
X114868888Y-88181659D01*
X114868672Y-88092083D01*
X114868672Y-87809023D01*
X114614035Y-87809023D01*
X114614035Y-88188704D01*
X114615744Y-88360084D01*
X114621723Y-88478886D01*
X114633256Y-88556121D01*
X114651623Y-88602798D01*
X114664053Y-88618403D01*
X114695433Y-88638766D01*
X114748716Y-88652960D01*
X114833946Y-88661973D01*
X114961167Y-88666789D01*
X115140421Y-88668396D01*
X115173326Y-88668421D01*
X115632582Y-88668421D01*
X115632582Y-87463518D01*
X115548715Y-87397548D01*
X115516237Y-87374956D01*
X115478125Y-87358193D01*
X115424988Y-87346395D01*
X115347436Y-87338698D01*
X115236077Y-87334240D01*
X115081521Y-87332158D01*
X114874377Y-87331588D01*
X114831103Y-87331579D01*
X114586623Y-87330841D01*
X114398377Y-87333234D01*
X114259054Y-87345667D01*
X114161341Y-87375051D01*
X114097927Y-87428295D01*
X114061498Y-87512310D01*
X114044743Y-87634006D01*
X114040350Y-87800292D01*
X114041006Y-88018079D01*
X114041006Y-88018079D01*
G37*
X114041006Y-88018079D02*
X114041103Y-88078127D01*
X114041103Y-88668421D01*
X114327569Y-88668421D01*
X114327569Y-88181429D01*
X114329769Y-87963646D01*
X114336533Y-87805973D01*
X114348108Y-87705004D01*
X114364744Y-87657338D01*
X114365765Y-87656241D01*
X114414912Y-87638098D01*
X114521535Y-87625850D01*
X114687852Y-87619316D01*
X114836842Y-87618045D01*
X115045192Y-87620781D01*
X115192332Y-87629108D01*
X115280482Y-87643207D01*
X115307920Y-87656241D01*
X115327782Y-87711024D01*
X115340494Y-87827620D01*
X115345915Y-88004568D01*
X115346115Y-88054110D01*
X115346115Y-88413784D01*
X115157741Y-88413784D01*
X115027115Y-88412205D01*
X114943301Y-88399760D01*
X114895916Y-88364893D01*
X114874574Y-88296045D01*
X114868888Y-88181659D01*
X114868672Y-88092083D01*
X114868672Y-87809023D01*
X114614035Y-87809023D01*
X114614035Y-88188704D01*
X114615744Y-88360084D01*
X114621723Y-88478886D01*
X114633256Y-88556121D01*
X114651623Y-88602798D01*
X114664053Y-88618403D01*
X114695433Y-88638766D01*
X114748716Y-88652960D01*
X114833946Y-88661973D01*
X114961167Y-88666789D01*
X115140421Y-88668396D01*
X115173326Y-88668421D01*
X115632582Y-88668421D01*
X115632582Y-87463518D01*
X115548715Y-87397548D01*
X115516237Y-87374956D01*
X115478125Y-87358193D01*
X115424988Y-87346395D01*
X115347436Y-87338698D01*
X115236077Y-87334240D01*
X115081521Y-87332158D01*
X114874377Y-87331588D01*
X114831103Y-87331579D01*
X114586623Y-87330841D01*
X114398377Y-87333234D01*
X114259054Y-87345667D01*
X114161341Y-87375051D01*
X114097927Y-87428295D01*
X114061498Y-87512310D01*
X114044743Y-87634006D01*
X114040350Y-87800292D01*
X114041006Y-88018079D01*
G36*
X114327569Y-87172431D02*
X114327569Y-86122055D01*
X114614035Y-86122055D01*
X114614035Y-86949624D01*
X114868672Y-86949624D01*
X114868672Y-86122055D01*
X115346115Y-86122055D01*
X115346115Y-87172431D01*
X115632582Y-87172431D01*
X115632582Y-85835589D01*
X114041103Y-85835589D01*
X114041103Y-87172431D01*
X114327569Y-87172431D01*
X114327569Y-87172431D01*
G37*
X114327569Y-87172431D02*
X114327569Y-86122055D01*
X114614035Y-86122055D01*
X114614035Y-86949624D01*
X114868672Y-86949624D01*
X114868672Y-86122055D01*
X115346115Y-86122055D01*
X115346115Y-87172431D01*
X115632582Y-87172431D01*
X115632582Y-85835589D01*
X114041103Y-85835589D01*
X114041103Y-87172431D01*
X114327569Y-87172431D01*
G36*
X114327569Y-85676441D02*
X114327569Y-85103509D01*
X115632582Y-85103509D01*
X115632582Y-84817043D01*
X114327569Y-84817043D01*
X114327569Y-84212281D01*
X114041103Y-84212281D01*
X114041103Y-85676441D01*
X114327569Y-85676441D01*
X114327569Y-85676441D01*
G37*
X114327569Y-85676441D02*
X114327569Y-85103509D01*
X115632582Y-85103509D01*
X115632582Y-84817043D01*
X114327569Y-84817043D01*
X114327569Y-84212281D01*
X114041103Y-84212281D01*
X114041103Y-85676441D01*
X114327569Y-85676441D01*
G36*
X114775276Y-84116792D02*
X115020862Y-84115341D01*
X115229485Y-84111168D01*
X115394637Y-84104541D01*
X115509813Y-84095732D01*
X115568507Y-84085008D01*
X115571015Y-84083843D01*
X115610477Y-84046858D01*
X115628949Y-83979369D01*
X115632582Y-83894270D01*
X115632582Y-83737648D01*
X115026705Y-83314500D01*
X114420828Y-82891353D01*
X115026705Y-82882709D01*
X115632582Y-82874064D01*
X115632582Y-82620802D01*
X114872569Y-82620802D01*
X114619627Y-82620998D01*
X114423336Y-82622881D01*
X114276688Y-82628387D01*
X114172676Y-82639458D01*
X114104293Y-82658031D01*
X114064531Y-82686046D01*
X114046381Y-82725443D01*
X114042838Y-82778159D01*
X114046893Y-82846134D01*
X114047115Y-82849214D01*
X114057018Y-82986842D01*
X114670237Y-83416541D01*
X115283456Y-83846241D01*
X114662279Y-83854871D01*
X114041103Y-83863501D01*
X114041103Y-84116792D01*
X114775276Y-84116792D01*
X114775276Y-84116792D01*
G37*
X114775276Y-84116792D02*
X115020862Y-84115341D01*
X115229485Y-84111168D01*
X115394637Y-84104541D01*
X115509813Y-84095732D01*
X115568507Y-84085008D01*
X115571015Y-84083843D01*
X115610477Y-84046858D01*
X115628949Y-83979369D01*
X115632582Y-83894270D01*
X115632582Y-83737648D01*
X115026705Y-83314500D01*
X114420828Y-82891353D01*
X115026705Y-82882709D01*
X115632582Y-82874064D01*
X115632582Y-82620802D01*
X114872569Y-82620802D01*
X114619627Y-82620998D01*
X114423336Y-82622881D01*
X114276688Y-82628387D01*
X114172676Y-82639458D01*
X114104293Y-82658031D01*
X114064531Y-82686046D01*
X114046381Y-82725443D01*
X114042838Y-82778159D01*
X114046893Y-82846134D01*
X114047115Y-82849214D01*
X114057018Y-82986842D01*
X114670237Y-83416541D01*
X115283456Y-83846241D01*
X114662279Y-83854871D01*
X114041103Y-83863501D01*
X114041103Y-84116792D01*
X114775276Y-84116792D01*
G36*
X115632582Y-82397995D02*
X115632582Y-82111529D01*
X114041103Y-82111529D01*
X114041103Y-82397995D01*
X115632582Y-82397995D01*
X115632582Y-82397995D01*
G37*
X115632582Y-82397995D02*
X115632582Y-82111529D01*
X114041103Y-82111529D01*
X114041103Y-82397995D01*
X115632582Y-82397995D01*
G36*
X117033083Y-91151128D02*
X117033083Y-90100752D01*
X117287719Y-90100752D01*
X117287719Y-90928321D01*
X117542356Y-90928321D01*
X117542356Y-90100752D01*
X118019800Y-90100752D01*
X118019800Y-91151128D01*
X118306266Y-91151128D01*
X118306266Y-89814286D01*
X116714787Y-89814286D01*
X116714787Y-91151128D01*
X117033083Y-91151128D01*
X117033083Y-91151128D01*
G37*
X117033083Y-91151128D02*
X117033083Y-90100752D01*
X117287719Y-90100752D01*
X117287719Y-90928321D01*
X117542356Y-90928321D01*
X117542356Y-90100752D01*
X118019800Y-90100752D01*
X118019800Y-91151128D01*
X118306266Y-91151128D01*
X118306266Y-89814286D01*
X116714787Y-89814286D01*
X116714787Y-91151128D01*
X117033083Y-91151128D01*
G36*
X116716443Y-88951604D02*
X116721037Y-89123947D01*
X116728007Y-89266839D01*
X116736790Y-89368251D01*
X116745196Y-89412679D01*
X116782881Y-89484230D01*
X116839878Y-89536478D01*
X116926013Y-89572827D01*
X117051114Y-89596684D01*
X117225005Y-89611453D01*
X117333403Y-89616496D01*
X117616841Y-89622649D01*
X117842559Y-89616539D01*
X118015414Y-89597593D01*
X118140261Y-89565234D01*
X118221959Y-89518890D01*
X118231150Y-89510341D01*
X118256931Y-89482596D01*
X118276016Y-89452062D01*
X118289411Y-89409397D01*
X118298123Y-89345257D01*
X118303158Y-89250299D01*
X118305523Y-89115181D01*
X118306225Y-88930559D01*
X118306266Y-88813101D01*
X118306266Y-88190977D01*
X118021702Y-88190977D01*
X118021702Y-88477444D01*
X118012793Y-88883271D01*
X118003885Y-89289098D01*
X117048998Y-89289098D01*
X117040089Y-88883271D01*
X117031181Y-88477444D01*
X118021702Y-88477444D01*
X118021702Y-88190977D01*
X116714787Y-88190977D01*
X116714787Y-88761838D01*
X116716443Y-88951604D01*
X116716443Y-88951604D01*
G37*
X116716443Y-88951604D02*
X116721037Y-89123947D01*
X116728007Y-89266839D01*
X116736790Y-89368251D01*
X116745196Y-89412679D01*
X116782881Y-89484230D01*
X116839878Y-89536478D01*
X116926013Y-89572827D01*
X117051114Y-89596684D01*
X117225005Y-89611453D01*
X117333403Y-89616496D01*
X117616841Y-89622649D01*
X117842559Y-89616539D01*
X118015414Y-89597593D01*
X118140261Y-89565234D01*
X118221959Y-89518890D01*
X118231150Y-89510341D01*
X118256931Y-89482596D01*
X118276016Y-89452062D01*
X118289411Y-89409397D01*
X118298123Y-89345257D01*
X118303158Y-89250299D01*
X118305523Y-89115181D01*
X118306225Y-88930559D01*
X118306266Y-88813101D01*
X118306266Y-88190977D01*
X118021702Y-88190977D01*
X118021702Y-88477444D01*
X118012793Y-88883271D01*
X118003885Y-89289098D01*
X117048998Y-89289098D01*
X117040089Y-88883271D01*
X117031181Y-88477444D01*
X118021702Y-88477444D01*
X118021702Y-88190977D01*
X116714787Y-88190977D01*
X116714787Y-88761838D01*
X116716443Y-88951604D01*
G36*
X116722882Y-87645745D02*
X116743666Y-87777295D01*
X116786550Y-87872186D01*
X116858305Y-87936093D01*
X116965699Y-87974693D01*
X117115502Y-87993662D01*
X117314482Y-87998676D01*
X117569409Y-87995412D01*
X117608621Y-87994643D01*
X117805092Y-87990361D01*
X117948338Y-87985490D01*
X118048789Y-87978544D01*
X118116873Y-87968038D01*
X118163018Y-87952485D01*
X118197653Y-87930398D01*
X118224195Y-87906920D01*
X118253882Y-87877527D01*
X118275377Y-87846975D01*
X118290003Y-87805171D01*
X118299082Y-87742024D01*
X118303937Y-87647442D01*
X118305890Y-87511331D01*
X118306264Y-87323600D01*
X118306266Y-87280596D01*
X118306266Y-86731437D01*
X118224452Y-86667082D01*
X118163432Y-86629020D01*
X118085025Y-86601200D01*
X117980208Y-86582605D01*
X117839963Y-86572216D01*
X117655267Y-86569015D01*
X117535733Y-86570504D01*
X117535733Y-86870607D01*
X117685376Y-86872220D01*
X117817894Y-86876710D01*
X117917143Y-86884078D01*
X117964098Y-86892923D01*
X117988396Y-86910279D01*
X118004508Y-86946066D01*
X118014041Y-87011506D01*
X118018602Y-87117817D01*
X118019799Y-87276218D01*
X118019800Y-87281716D01*
X118018817Y-87441002D01*
X118014661Y-87548396D01*
X118005518Y-87615649D01*
X117989572Y-87654513D01*
X117965011Y-87676740D01*
X117958233Y-87680584D01*
X117902859Y-87693714D01*
X117799254Y-87704360D01*
X117662833Y-87711347D01*
X117526441Y-87713534D01*
X117373787Y-87710789D01*
X117240244Y-87703339D01*
X117141226Y-87692359D01*
X117094649Y-87680584D01*
X117067938Y-87660451D01*
X117050243Y-87626279D01*
X117039751Y-87566318D01*
X117034647Y-87468816D01*
X117033119Y-87322021D01*
X117033083Y-87281716D01*
X117034206Y-87121632D01*
X117038647Y-87013965D01*
X117048012Y-86947496D01*
X117063910Y-86911004D01*
X117087948Y-86893272D01*
X117088785Y-86892923D01*
X117145490Y-86883029D01*
X117249646Y-86876011D01*
X117385108Y-86871870D01*
X117535733Y-86870607D01*
X117535733Y-86570504D01*
X117417102Y-86571982D01*
X117387965Y-86572625D01*
X117203474Y-86577165D01*
X117071414Y-86582310D01*
X116980573Y-86590015D01*
X116919737Y-86602234D01*
X116877692Y-86620918D01*
X116843226Y-86648022D01*
X116818904Y-86671751D01*
X116785368Y-86706989D01*
X116761409Y-86742206D01*
X116745146Y-86788470D01*
X116734695Y-86856846D01*
X116728174Y-86958400D01*
X116723701Y-87104198D01*
X116720543Y-87249964D01*
X116717431Y-87471860D01*
X116722882Y-87645745D01*
X116722882Y-87645745D01*
G37*
X116722882Y-87645745D02*
X116743666Y-87777295D01*
X116786550Y-87872186D01*
X116858305Y-87936093D01*
X116965699Y-87974693D01*
X117115502Y-87993662D01*
X117314482Y-87998676D01*
X117569409Y-87995412D01*
X117608621Y-87994643D01*
X117805092Y-87990361D01*
X117948338Y-87985490D01*
X118048789Y-87978544D01*
X118116873Y-87968038D01*
X118163018Y-87952485D01*
X118197653Y-87930398D01*
X118224195Y-87906920D01*
X118253882Y-87877527D01*
X118275377Y-87846975D01*
X118290003Y-87805171D01*
X118299082Y-87742024D01*
X118303937Y-87647442D01*
X118305890Y-87511331D01*
X118306264Y-87323600D01*
X118306266Y-87280596D01*
X118306266Y-86731437D01*
X118224452Y-86667082D01*
X118163432Y-86629020D01*
X118085025Y-86601200D01*
X117980208Y-86582605D01*
X117839963Y-86572216D01*
X117655267Y-86569015D01*
X117535733Y-86570504D01*
X117535733Y-86870607D01*
X117685376Y-86872220D01*
X117817894Y-86876710D01*
X117917143Y-86884078D01*
X117964098Y-86892923D01*
X117988396Y-86910279D01*
X118004508Y-86946066D01*
X118014041Y-87011506D01*
X118018602Y-87117817D01*
X118019799Y-87276218D01*
X118019800Y-87281716D01*
X118018817Y-87441002D01*
X118014661Y-87548396D01*
X118005518Y-87615649D01*
X117989572Y-87654513D01*
X117965011Y-87676740D01*
X117958233Y-87680584D01*
X117902859Y-87693714D01*
X117799254Y-87704360D01*
X117662833Y-87711347D01*
X117526441Y-87713534D01*
X117373787Y-87710789D01*
X117240244Y-87703339D01*
X117141226Y-87692359D01*
X117094649Y-87680584D01*
X117067938Y-87660451D01*
X117050243Y-87626279D01*
X117039751Y-87566318D01*
X117034647Y-87468816D01*
X117033119Y-87322021D01*
X117033083Y-87281716D01*
X117034206Y-87121632D01*
X117038647Y-87013965D01*
X117048012Y-86947496D01*
X117063910Y-86911004D01*
X117087948Y-86893272D01*
X117088785Y-86892923D01*
X117145490Y-86883029D01*
X117249646Y-86876011D01*
X117385108Y-86871870D01*
X117535733Y-86870607D01*
X117535733Y-86570504D01*
X117417102Y-86571982D01*
X117387965Y-86572625D01*
X117203474Y-86577165D01*
X117071414Y-86582310D01*
X116980573Y-86590015D01*
X116919737Y-86602234D01*
X116877692Y-86620918D01*
X116843226Y-86648022D01*
X116818904Y-86671751D01*
X116785368Y-86706989D01*
X116761409Y-86742206D01*
X116745146Y-86788470D01*
X116734695Y-86856846D01*
X116728174Y-86958400D01*
X116723701Y-87104198D01*
X116720543Y-87249964D01*
X116717431Y-87471860D01*
X116722882Y-87645745D01*
G36*
X117460179Y-86376692D02*
X117673975Y-86375893D01*
X117868158Y-86373653D01*
X118033112Y-86370204D01*
X118159222Y-86365781D01*
X118236871Y-86360617D01*
X118255918Y-86357372D01*
X118288207Y-86324415D01*
X118303661Y-86249376D01*
X118306266Y-86170978D01*
X118306266Y-86003904D01*
X117696611Y-85577579D01*
X117086955Y-85151253D01*
X117696611Y-85142608D01*
X118306266Y-85133964D01*
X118306266Y-84880702D01*
X117560544Y-84880702D01*
X117306990Y-84881094D01*
X117109965Y-84883520D01*
X116962341Y-84889852D01*
X116856989Y-84901964D01*
X116786780Y-84921730D01*
X116744585Y-84951023D01*
X116723274Y-84991717D01*
X116715719Y-85045684D01*
X116714787Y-85102953D01*
X116715447Y-85146666D01*
X116721288Y-85184429D01*
X116738100Y-85221461D01*
X116771674Y-85262980D01*
X116827799Y-85314204D01*
X116912265Y-85380351D01*
X117030864Y-85466639D01*
X117189385Y-85578288D01*
X117393619Y-85720514D01*
X117421785Y-85740100D01*
X117948157Y-86106140D01*
X117331472Y-86114771D01*
X116714787Y-86123401D01*
X116714787Y-86376692D01*
X117460179Y-86376692D01*
X117460179Y-86376692D01*
G37*
X117460179Y-86376692D02*
X117673975Y-86375893D01*
X117868158Y-86373653D01*
X118033112Y-86370204D01*
X118159222Y-86365781D01*
X118236871Y-86360617D01*
X118255918Y-86357372D01*
X118288207Y-86324415D01*
X118303661Y-86249376D01*
X118306266Y-86170978D01*
X118306266Y-86003904D01*
X117696611Y-85577579D01*
X117086955Y-85151253D01*
X117696611Y-85142608D01*
X118306266Y-85133964D01*
X118306266Y-84880702D01*
X117560544Y-84880702D01*
X117306990Y-84881094D01*
X117109965Y-84883520D01*
X116962341Y-84889852D01*
X116856989Y-84901964D01*
X116786780Y-84921730D01*
X116744585Y-84951023D01*
X116723274Y-84991717D01*
X116715719Y-85045684D01*
X116714787Y-85102953D01*
X116715447Y-85146666D01*
X116721288Y-85184429D01*
X116738100Y-85221461D01*
X116771674Y-85262980D01*
X116827799Y-85314204D01*
X116912265Y-85380351D01*
X117030864Y-85466639D01*
X117189385Y-85578288D01*
X117393619Y-85720514D01*
X117421785Y-85740100D01*
X117948157Y-86106140D01*
X117331472Y-86114771D01*
X116714787Y-86123401D01*
X116714787Y-86376692D01*
X117460179Y-86376692D01*
G04 #@! TO.C,BT1*
D11*
X111145714Y-100828571D02*
X111002857Y-100876190D01*
X110955238Y-100923809D01*
X110907619Y-101019047D01*
X110907619Y-101161904D01*
X110955238Y-101257142D01*
X111002857Y-101304761D01*
X111098095Y-101352380D01*
X111479047Y-101352380D01*
X111479047Y-100352380D01*
X111145714Y-100352380D01*
X111050476Y-100400000D01*
X111002857Y-100447619D01*
X110955238Y-100542857D01*
X110955238Y-100638095D01*
X111002857Y-100733333D01*
X111050476Y-100780952D01*
X111145714Y-100828571D01*
X111479047Y-100828571D01*
X110621904Y-100352380D02*
X110050476Y-100352380D01*
X110336190Y-101352380D02*
X110336190Y-100352380D01*
X109193333Y-101352380D02*
X109764761Y-101352380D01*
X109479047Y-101352380D02*
X109479047Y-100352380D01*
X109574285Y-100495238D01*
X109669523Y-100590476D01*
X109764761Y-100638095D01*
G04 #@! TD*
M02*
