M48
;DRILL file {KiCad (5.0.0)} date 02/27/19 16:54:41
;FORMAT={-:-/ absolute / inch / decimal}
FMAT,2
INCH,TZ
T1C0.0157
T2C0.0394
T3C0.0402
%
G90
G05
M72
T1
X3.9764Y-3.7008
X4.065Y-3.8681
X4.065Y-3.9075
X4.065Y-3.9469
X4.065Y-3.9862
X4.0748Y-3.7215
X4.0846Y-3.6319
X4.1043Y-3.878
X4.1732Y-3.878
X4.2224Y-3.878
X4.2421Y-3.6417
X4.3209Y-3.4843
X4.3799Y-3.5138
X4.4094Y-3.5827
X4.4587Y-3.6644
X4.4783Y-3.5827
X4.7343Y-3.6024
X4.7539Y-3.8386
X5.Y-3.8484
X5.0098Y-3.5344
X5.0689Y-3.563
X5.0787Y-3.2283
X5.1083Y-3.376
X5.1378Y-3.435
X5.1378Y-3.5335
X5.2854Y-3.5531
X5.3214Y-3.5358
X5.3248Y-3.2185
X5.3445Y-3.377
X5.3445Y-3.5039
X5.4134Y-3.3563
X5.4134Y-3.435
X5.4134Y-3.4843
X5.4823Y-3.2579
X5.5413Y-3.3169
X5.5413Y-3.563
T2
X5.1575Y-3.0709
X5.2575Y-3.0709
X5.3575Y-3.0709
X5.4575Y-3.0709
X5.5575Y-3.0709
X5.6575Y-3.0709
X4.1437Y-3.9469
X4.2437Y-3.9469
X4.7492Y-3.0709
X4.8492Y-3.0709
X4.9492Y-3.0709
X5.0492Y-3.0709
T3
X4.0449Y-3.4724
X4.9449Y-3.4724
T0
M30
