G04 #@! TF.GenerationSoftware,KiCad,Pcbnew,(5.0.0)*
G04 #@! TF.CreationDate,2019-02-27T16:54:38+00:00*
G04 #@! TF.ProjectId,rain,7261696E2E6B696361645F7063620000,rev?*
G04 #@! TF.SameCoordinates,Original*
G04 #@! TF.FileFunction,Legend,Top*
G04 #@! TF.FilePolarity,Positive*
%FSLAX46Y46*%
G04 Gerber Fmt 4.6, Leading zero omitted, Abs format (unit mm)*
G04 Created by KiCad (PCBNEW (5.0.0)) date 02/27/19 16:54:38*
%MOMM*%
%LPD*%
G01*
G04 APERTURE LIST*
%ADD10C,0.120000*%
%ADD11C,0.100000*%
%ADD12C,0.010000*%
%ADD13C,0.150000*%
G04 APERTURE END LIST*
D10*
G04 #@! TO.C,C1*
X98049721Y-86490000D02*
X98375279Y-86490000D01*
X98049721Y-87510000D02*
X98375279Y-87510000D01*
G04 #@! TO.C,C2*
X121490000Y-95049721D02*
X121490000Y-95375279D01*
X122510000Y-95049721D02*
X122510000Y-95375279D01*
G04 #@! TO.C,C3*
X98049721Y-85760000D02*
X98375279Y-85760000D01*
X98049721Y-84740000D02*
X98375279Y-84740000D01*
G04 #@! TO.C,C4*
X127490000Y-94837221D02*
X127490000Y-95162779D01*
X128510000Y-94837221D02*
X128510000Y-95162779D01*
G04 #@! TO.C,C5*
X133049721Y-92990000D02*
X133375279Y-92990000D01*
X133049721Y-94010000D02*
X133375279Y-94010000D01*
G04 #@! TO.C,C6*
X133049721Y-91490000D02*
X133375279Y-91490000D01*
X133049721Y-92510000D02*
X133375279Y-92510000D01*
G04 #@! TO.C,C7*
X132837221Y-82990000D02*
X133162779Y-82990000D01*
X132837221Y-84010000D02*
X133162779Y-84010000D01*
G04 #@! TO.C,C8*
X132837221Y-82510000D02*
X133162779Y-82510000D01*
X132837221Y-81490000D02*
X133162779Y-81490000D01*
G04 #@! TO.C,D1*
X124400000Y-92850000D02*
X124400000Y-91150000D01*
X124400000Y-91150000D02*
X121850000Y-91150000D01*
X124400000Y-92850000D02*
X121850000Y-92850000D01*
G04 #@! TO.C,J1*
X145030000Y-79330000D02*
X145030000Y-76670000D01*
X132270000Y-79330000D02*
X145030000Y-79330000D01*
X132270000Y-76670000D02*
X145030000Y-76670000D01*
X132270000Y-79330000D02*
X132270000Y-76670000D01*
X131000000Y-79330000D02*
X129670000Y-79330000D01*
X129670000Y-79330000D02*
X129670000Y-78000000D01*
G04 #@! TO.C,J3*
X119300000Y-76670000D02*
X119300000Y-79330000D01*
X126980000Y-76670000D02*
X119300000Y-76670000D01*
X126980000Y-79330000D02*
X119300000Y-79330000D01*
X126980000Y-76670000D02*
X126980000Y-79330000D01*
X128250000Y-76670000D02*
X129580000Y-76670000D01*
X129580000Y-76670000D02*
X129580000Y-78000000D01*
G04 #@! TO.C,R1*
X102490000Y-96375279D02*
X102490000Y-96049721D01*
X103510000Y-96375279D02*
X103510000Y-96049721D01*
G04 #@! TO.C,R2*
X101510000Y-96375279D02*
X101510000Y-96049721D01*
X100490000Y-96375279D02*
X100490000Y-96049721D01*
G04 #@! TO.C,R3*
X129990000Y-82875279D02*
X129990000Y-82549721D01*
X131010000Y-82875279D02*
X131010000Y-82549721D01*
G04 #@! TO.C,RN1*
X142400000Y-89720000D02*
X141600000Y-89720000D01*
X142400000Y-86280000D02*
X141600000Y-86280000D01*
G04 #@! TO.C,U1*
X124240000Y-93420000D02*
X125700000Y-93420000D01*
X124240000Y-96580000D02*
X126400000Y-96580000D01*
X124240000Y-96580000D02*
X124240000Y-95650000D01*
X124240000Y-93420000D02*
X124240000Y-94350000D01*
G04 #@! TO.C,U2*
X100610000Y-91000000D02*
X100610000Y-89500000D01*
X97390000Y-92500000D02*
X97390000Y-89500000D01*
D11*
G04 #@! TO.C,U3*
X120320000Y-80480000D02*
X120320000Y-88600000D01*
X104080000Y-94600000D02*
X104080000Y-96720000D01*
X104080000Y-96720000D02*
X104250000Y-96720000D01*
X104080000Y-80480000D02*
X104080000Y-82600000D01*
X104080000Y-80480000D02*
X104250000Y-80480000D01*
X120320000Y-94600000D02*
X120320000Y-96720000D01*
X120320000Y-96720000D02*
X120150000Y-96720000D01*
D10*
G04 #@! TO.C,U4*
X131380000Y-86380000D02*
X131680000Y-86380000D01*
X134620000Y-89620000D02*
X134320000Y-89620000D01*
X134620000Y-86380000D02*
X134320000Y-86380000D01*
X131380000Y-89620000D02*
X131380000Y-89320000D01*
X134620000Y-89620000D02*
X134620000Y-89320000D01*
X134620000Y-86380000D02*
X134620000Y-86680000D01*
X131380000Y-86380000D02*
X131380000Y-86680000D01*
G04 #@! TO.C,REF\002A\002A*
X103920000Y-101580000D02*
X103920000Y-100250000D01*
X105250000Y-101580000D02*
X103920000Y-101580000D01*
X106520000Y-101580000D02*
X106520000Y-98920000D01*
X106520000Y-98920000D02*
X109120000Y-98920000D01*
X106520000Y-101580000D02*
X109120000Y-101580000D01*
X109120000Y-101580000D02*
X109120000Y-98920000D01*
D12*
G04 #@! TO.C,G\002A\002A\002A*
G36*
X116856089Y-82802193D02*
X117157597Y-82804973D01*
X117404649Y-82809537D01*
X117595046Y-82815827D01*
X117726588Y-82823785D01*
X117797077Y-82833355D01*
X117803003Y-82835203D01*
X117949676Y-82924181D01*
X118066447Y-83066141D01*
X118102999Y-83135464D01*
X118117115Y-83169849D01*
X118128791Y-83210223D01*
X118138258Y-83262615D01*
X118145751Y-83333055D01*
X118151502Y-83427571D01*
X118155746Y-83552192D01*
X118158716Y-83712947D01*
X118160646Y-83915865D01*
X118161767Y-84166975D01*
X118162315Y-84472306D01*
X118162459Y-84671241D01*
X118163158Y-86079700D01*
X117526567Y-86079700D01*
X117526567Y-84965665D01*
X115521304Y-84965665D01*
X115521304Y-86079700D01*
X115208313Y-86079700D01*
X115072963Y-86077666D01*
X114962435Y-86072193D01*
X114891572Y-86064224D01*
X114874102Y-86058480D01*
X114868392Y-86021791D01*
X114863678Y-85929567D01*
X114859937Y-85789927D01*
X114857144Y-85610985D01*
X114855276Y-85400859D01*
X114854308Y-85167666D01*
X114854218Y-84919522D01*
X114854980Y-84664544D01*
X114856085Y-84488221D01*
X115516923Y-84488221D01*
X117526567Y-84488221D01*
X117526567Y-84009331D01*
X117526159Y-83824891D01*
X117523901Y-83693026D01*
X117518236Y-83602649D01*
X117507610Y-83542676D01*
X117490469Y-83502021D01*
X117465257Y-83469600D01*
X117448440Y-83452313D01*
X117370312Y-83374186D01*
X116517425Y-83375198D01*
X116253940Y-83376033D01*
X116046909Y-83378098D01*
X115889131Y-83381777D01*
X115773405Y-83387456D01*
X115692531Y-83395521D01*
X115639309Y-83406356D01*
X115606538Y-83420347D01*
X115600877Y-83424246D01*
X115576755Y-83447259D01*
X115559219Y-83480961D01*
X115546934Y-83535416D01*
X115538565Y-83620687D01*
X115532775Y-83746840D01*
X115528228Y-83923939D01*
X115527071Y-83980251D01*
X115516923Y-84488221D01*
X114856085Y-84488221D01*
X114856571Y-84410849D01*
X114858968Y-84166554D01*
X114862146Y-83939774D01*
X114866081Y-83738628D01*
X114870749Y-83571231D01*
X114876127Y-83445701D01*
X114882016Y-83371484D01*
X114932047Y-83160088D01*
X115022090Y-82996877D01*
X115153564Y-82879412D01*
X115175512Y-82866391D01*
X115207578Y-82849710D01*
X115242947Y-82836147D01*
X115288170Y-82825378D01*
X115349797Y-82817084D01*
X115434380Y-82810942D01*
X115548468Y-82806630D01*
X115698613Y-82803827D01*
X115891366Y-82802212D01*
X116133276Y-82801463D01*
X116430896Y-82801258D01*
X116502325Y-82801254D01*
X116856089Y-82802193D01*
X116856089Y-82802193D01*
G37*
X116856089Y-82802193D02*
X117157597Y-82804973D01*
X117404649Y-82809537D01*
X117595046Y-82815827D01*
X117726588Y-82823785D01*
X117797077Y-82833355D01*
X117803003Y-82835203D01*
X117949676Y-82924181D01*
X118066447Y-83066141D01*
X118102999Y-83135464D01*
X118117115Y-83169849D01*
X118128791Y-83210223D01*
X118138258Y-83262615D01*
X118145751Y-83333055D01*
X118151502Y-83427571D01*
X118155746Y-83552192D01*
X118158716Y-83712947D01*
X118160646Y-83915865D01*
X118161767Y-84166975D01*
X118162315Y-84472306D01*
X118162459Y-84671241D01*
X118163158Y-86079700D01*
X117526567Y-86079700D01*
X117526567Y-84965665D01*
X115521304Y-84965665D01*
X115521304Y-86079700D01*
X115208313Y-86079700D01*
X115072963Y-86077666D01*
X114962435Y-86072193D01*
X114891572Y-86064224D01*
X114874102Y-86058480D01*
X114868392Y-86021791D01*
X114863678Y-85929567D01*
X114859937Y-85789927D01*
X114857144Y-85610985D01*
X114855276Y-85400859D01*
X114854308Y-85167666D01*
X114854218Y-84919522D01*
X114854980Y-84664544D01*
X114856085Y-84488221D01*
X115516923Y-84488221D01*
X117526567Y-84488221D01*
X117526567Y-84009331D01*
X117526159Y-83824891D01*
X117523901Y-83693026D01*
X117518236Y-83602649D01*
X117507610Y-83542676D01*
X117490469Y-83502021D01*
X117465257Y-83469600D01*
X117448440Y-83452313D01*
X117370312Y-83374186D01*
X116517425Y-83375198D01*
X116253940Y-83376033D01*
X116046909Y-83378098D01*
X115889131Y-83381777D01*
X115773405Y-83387456D01*
X115692531Y-83395521D01*
X115639309Y-83406356D01*
X115606538Y-83420347D01*
X115600877Y-83424246D01*
X115576755Y-83447259D01*
X115559219Y-83480961D01*
X115546934Y-83535416D01*
X115538565Y-83620687D01*
X115532775Y-83746840D01*
X115528228Y-83923939D01*
X115527071Y-83980251D01*
X115516923Y-84488221D01*
X114856085Y-84488221D01*
X114856571Y-84410849D01*
X114858968Y-84166554D01*
X114862146Y-83939774D01*
X114866081Y-83738628D01*
X114870749Y-83571231D01*
X114876127Y-83445701D01*
X114882016Y-83371484D01*
X114932047Y-83160088D01*
X115022090Y-82996877D01*
X115153564Y-82879412D01*
X115175512Y-82866391D01*
X115207578Y-82849710D01*
X115242947Y-82836147D01*
X115288170Y-82825378D01*
X115349797Y-82817084D01*
X115434380Y-82810942D01*
X115548468Y-82806630D01*
X115698613Y-82803827D01*
X115891366Y-82802212D01*
X116133276Y-82801463D01*
X116430896Y-82801258D01*
X116502325Y-82801254D01*
X116856089Y-82802193D01*
G36*
X112521366Y-82801953D02*
X112857806Y-82802278D01*
X113136676Y-82803044D01*
X113364067Y-82804494D01*
X113546068Y-82806866D01*
X113688769Y-82810402D01*
X113798260Y-82815342D01*
X113880631Y-82821927D01*
X113941970Y-82830397D01*
X113988369Y-82840993D01*
X114025916Y-82853956D01*
X114044923Y-82862147D01*
X114192907Y-82962665D01*
X114307866Y-83108765D01*
X114372136Y-83262782D01*
X114385168Y-83342353D01*
X114396003Y-83469140D01*
X114403624Y-83626710D01*
X114407010Y-83798630D01*
X114407091Y-83826563D01*
X114399442Y-84098118D01*
X114373893Y-84314894D01*
X114326905Y-84484131D01*
X114254941Y-84613067D01*
X114154464Y-84708942D01*
X114021936Y-84778994D01*
X113925727Y-84811594D01*
X113778397Y-84854261D01*
X113934680Y-85092983D01*
X114017833Y-85219724D01*
X114121556Y-85377417D01*
X114231281Y-85543932D01*
X114312775Y-85667385D01*
X114397061Y-85797831D01*
X114466623Y-85910991D01*
X114514674Y-85995425D01*
X114534428Y-86039691D01*
X114534587Y-86041383D01*
X114513094Y-86059833D01*
X114444645Y-86071911D01*
X114323285Y-86078276D01*
X114188582Y-86079700D01*
X113842578Y-86079700D01*
X113674253Y-85817106D01*
X113587940Y-85683049D01*
X113480948Y-85517755D01*
X113367530Y-85343204D01*
X113271784Y-85196429D01*
X113037638Y-84838346D01*
X111765414Y-84838346D01*
X111765414Y-86079700D01*
X111128822Y-86079700D01*
X111128822Y-83374186D01*
X111765414Y-83374186D01*
X111765414Y-84329073D01*
X112684945Y-84329073D01*
X112952391Y-84328833D01*
X113163581Y-84327811D01*
X113325920Y-84325554D01*
X113446810Y-84321611D01*
X113533655Y-84315528D01*
X113593858Y-84306853D01*
X113634821Y-84295134D01*
X113663950Y-84279918D01*
X113679619Y-84268282D01*
X113713571Y-84235794D01*
X113736154Y-84195017D01*
X113750307Y-84132405D01*
X113758965Y-84034414D01*
X113765065Y-83887500D01*
X113765576Y-83871822D01*
X113769650Y-83721373D01*
X113768685Y-83620335D01*
X113760293Y-83554515D01*
X113742082Y-83509720D01*
X113711663Y-83471756D01*
X113695407Y-83455170D01*
X113614423Y-83374186D01*
X111765414Y-83374186D01*
X111128822Y-83374186D01*
X111128822Y-82801254D01*
X112521366Y-82801953D01*
X112521366Y-82801953D01*
G37*
X112521366Y-82801953D02*
X112857806Y-82802278D01*
X113136676Y-82803044D01*
X113364067Y-82804494D01*
X113546068Y-82806866D01*
X113688769Y-82810402D01*
X113798260Y-82815342D01*
X113880631Y-82821927D01*
X113941970Y-82830397D01*
X113988369Y-82840993D01*
X114025916Y-82853956D01*
X114044923Y-82862147D01*
X114192907Y-82962665D01*
X114307866Y-83108765D01*
X114372136Y-83262782D01*
X114385168Y-83342353D01*
X114396003Y-83469140D01*
X114403624Y-83626710D01*
X114407010Y-83798630D01*
X114407091Y-83826563D01*
X114399442Y-84098118D01*
X114373893Y-84314894D01*
X114326905Y-84484131D01*
X114254941Y-84613067D01*
X114154464Y-84708942D01*
X114021936Y-84778994D01*
X113925727Y-84811594D01*
X113778397Y-84854261D01*
X113934680Y-85092983D01*
X114017833Y-85219724D01*
X114121556Y-85377417D01*
X114231281Y-85543932D01*
X114312775Y-85667385D01*
X114397061Y-85797831D01*
X114466623Y-85910991D01*
X114514674Y-85995425D01*
X114534428Y-86039691D01*
X114534587Y-86041383D01*
X114513094Y-86059833D01*
X114444645Y-86071911D01*
X114323285Y-86078276D01*
X114188582Y-86079700D01*
X113842578Y-86079700D01*
X113674253Y-85817106D01*
X113587940Y-85683049D01*
X113480948Y-85517755D01*
X113367530Y-85343204D01*
X113271784Y-85196429D01*
X113037638Y-84838346D01*
X111765414Y-84838346D01*
X111765414Y-86079700D01*
X111128822Y-86079700D01*
X111128822Y-83374186D01*
X111765414Y-83374186D01*
X111765414Y-84329073D01*
X112684945Y-84329073D01*
X112952391Y-84328833D01*
X113163581Y-84327811D01*
X113325920Y-84325554D01*
X113446810Y-84321611D01*
X113533655Y-84315528D01*
X113593858Y-84306853D01*
X113634821Y-84295134D01*
X113663950Y-84279918D01*
X113679619Y-84268282D01*
X113713571Y-84235794D01*
X113736154Y-84195017D01*
X113750307Y-84132405D01*
X113758965Y-84034414D01*
X113765065Y-83887500D01*
X113765576Y-83871822D01*
X113769650Y-83721373D01*
X113768685Y-83620335D01*
X113760293Y-83554515D01*
X113742082Y-83509720D01*
X113711663Y-83471756D01*
X113695407Y-83455170D01*
X113614423Y-83374186D01*
X111765414Y-83374186D01*
X111128822Y-83374186D01*
X111128822Y-82801254D01*
X112521366Y-82801953D01*
G36*
X108995028Y-82801777D02*
X109297885Y-82802006D01*
X109543836Y-82802642D01*
X109739636Y-82804063D01*
X109892036Y-82806646D01*
X110007792Y-82810766D01*
X110093656Y-82816801D01*
X110156383Y-82825127D01*
X110202724Y-82836121D01*
X110239435Y-82850159D01*
X110273269Y-82867619D01*
X110284015Y-82873664D01*
X110379594Y-82944648D01*
X110474123Y-83040709D01*
X110506822Y-83082774D01*
X110603634Y-83220522D01*
X110603634Y-84419346D01*
X110603542Y-84727343D01*
X110603030Y-84978348D01*
X110601742Y-85179028D01*
X110599323Y-85336052D01*
X110595419Y-85456086D01*
X110589675Y-85545797D01*
X110581734Y-85611854D01*
X110571243Y-85660924D01*
X110557846Y-85699673D01*
X110541189Y-85734769D01*
X110532738Y-85750766D01*
X110423539Y-85899561D01*
X110277967Y-85999286D01*
X110138924Y-86045858D01*
X110056288Y-86056961D01*
X109921477Y-86065738D01*
X109744219Y-86072257D01*
X109534243Y-86076586D01*
X109301276Y-86078793D01*
X109055046Y-86078945D01*
X108805283Y-86077110D01*
X108561713Y-86073357D01*
X108334066Y-86067753D01*
X108132069Y-86060366D01*
X107965451Y-86051263D01*
X107843940Y-86040513D01*
X107780966Y-86029419D01*
X107621433Y-85948442D01*
X107491443Y-85818450D01*
X107400856Y-85650969D01*
X107372385Y-85551876D01*
X107361292Y-85460239D01*
X107353036Y-85307158D01*
X107347661Y-85094786D01*
X107345211Y-84825278D01*
X107345300Y-84769137D01*
X107981408Y-84769137D01*
X107982441Y-84951979D01*
X107984848Y-85098561D01*
X107988536Y-85198992D01*
X107992191Y-85238643D01*
X108034642Y-85363312D01*
X108112099Y-85440451D01*
X108202057Y-85474390D01*
X108278775Y-85484487D01*
X108405530Y-85492361D01*
X108570093Y-85498020D01*
X108760239Y-85501474D01*
X108963740Y-85502733D01*
X109168371Y-85501806D01*
X109361904Y-85498702D01*
X109532112Y-85493431D01*
X109666770Y-85486003D01*
X109753651Y-85476426D01*
X109768409Y-85473181D01*
X109828865Y-85454901D01*
X109876925Y-85432728D01*
X109913923Y-85399760D01*
X109941193Y-85349094D01*
X109960071Y-85273829D01*
X109971891Y-85167060D01*
X109977986Y-85021887D01*
X109979692Y-84831406D01*
X109978344Y-84588716D01*
X109976435Y-84397217D01*
X109973345Y-84132935D01*
X109969933Y-83924998D01*
X109965690Y-83766091D01*
X109960108Y-83648901D01*
X109952677Y-83566112D01*
X109942886Y-83510410D01*
X109930228Y-83474481D01*
X109914193Y-83451012D01*
X109910257Y-83446890D01*
X109887797Y-83429564D01*
X109854087Y-83415934D01*
X109801552Y-83405440D01*
X109722621Y-83397523D01*
X109609718Y-83391622D01*
X109455271Y-83387178D01*
X109251705Y-83383631D01*
X109014550Y-83380678D01*
X108175628Y-83371256D01*
X108084619Y-83449490D01*
X107993609Y-83527723D01*
X107983829Y-84334225D01*
X107981840Y-84559923D01*
X107981408Y-84769137D01*
X107345300Y-84769137D01*
X107345730Y-84500788D01*
X107347104Y-84319988D01*
X107357018Y-83257632D01*
X107452877Y-83101059D01*
X107567439Y-82957862D01*
X107690385Y-82872870D01*
X107728834Y-82854226D01*
X107767465Y-82839139D01*
X107813118Y-82827235D01*
X107872632Y-82818142D01*
X107952847Y-82811487D01*
X108060602Y-82806898D01*
X108202738Y-82804001D01*
X108386093Y-82802424D01*
X108617507Y-82801795D01*
X108903820Y-82801740D01*
X108995028Y-82801777D01*
X108995028Y-82801777D01*
G37*
X108995028Y-82801777D02*
X109297885Y-82802006D01*
X109543836Y-82802642D01*
X109739636Y-82804063D01*
X109892036Y-82806646D01*
X110007792Y-82810766D01*
X110093656Y-82816801D01*
X110156383Y-82825127D01*
X110202724Y-82836121D01*
X110239435Y-82850159D01*
X110273269Y-82867619D01*
X110284015Y-82873664D01*
X110379594Y-82944648D01*
X110474123Y-83040709D01*
X110506822Y-83082774D01*
X110603634Y-83220522D01*
X110603634Y-84419346D01*
X110603542Y-84727343D01*
X110603030Y-84978348D01*
X110601742Y-85179028D01*
X110599323Y-85336052D01*
X110595419Y-85456086D01*
X110589675Y-85545797D01*
X110581734Y-85611854D01*
X110571243Y-85660924D01*
X110557846Y-85699673D01*
X110541189Y-85734769D01*
X110532738Y-85750766D01*
X110423539Y-85899561D01*
X110277967Y-85999286D01*
X110138924Y-86045858D01*
X110056288Y-86056961D01*
X109921477Y-86065738D01*
X109744219Y-86072257D01*
X109534243Y-86076586D01*
X109301276Y-86078793D01*
X109055046Y-86078945D01*
X108805283Y-86077110D01*
X108561713Y-86073357D01*
X108334066Y-86067753D01*
X108132069Y-86060366D01*
X107965451Y-86051263D01*
X107843940Y-86040513D01*
X107780966Y-86029419D01*
X107621433Y-85948442D01*
X107491443Y-85818450D01*
X107400856Y-85650969D01*
X107372385Y-85551876D01*
X107361292Y-85460239D01*
X107353036Y-85307158D01*
X107347661Y-85094786D01*
X107345211Y-84825278D01*
X107345300Y-84769137D01*
X107981408Y-84769137D01*
X107982441Y-84951979D01*
X107984848Y-85098561D01*
X107988536Y-85198992D01*
X107992191Y-85238643D01*
X108034642Y-85363312D01*
X108112099Y-85440451D01*
X108202057Y-85474390D01*
X108278775Y-85484487D01*
X108405530Y-85492361D01*
X108570093Y-85498020D01*
X108760239Y-85501474D01*
X108963740Y-85502733D01*
X109168371Y-85501806D01*
X109361904Y-85498702D01*
X109532112Y-85493431D01*
X109666770Y-85486003D01*
X109753651Y-85476426D01*
X109768409Y-85473181D01*
X109828865Y-85454901D01*
X109876925Y-85432728D01*
X109913923Y-85399760D01*
X109941193Y-85349094D01*
X109960071Y-85273829D01*
X109971891Y-85167060D01*
X109977986Y-85021887D01*
X109979692Y-84831406D01*
X109978344Y-84588716D01*
X109976435Y-84397217D01*
X109973345Y-84132935D01*
X109969933Y-83924998D01*
X109965690Y-83766091D01*
X109960108Y-83648901D01*
X109952677Y-83566112D01*
X109942886Y-83510410D01*
X109930228Y-83474481D01*
X109914193Y-83451012D01*
X109910257Y-83446890D01*
X109887797Y-83429564D01*
X109854087Y-83415934D01*
X109801552Y-83405440D01*
X109722621Y-83397523D01*
X109609718Y-83391622D01*
X109455271Y-83387178D01*
X109251705Y-83383631D01*
X109014550Y-83380678D01*
X108175628Y-83371256D01*
X108084619Y-83449490D01*
X107993609Y-83527723D01*
X107983829Y-84334225D01*
X107981840Y-84559923D01*
X107981408Y-84769137D01*
X107345300Y-84769137D01*
X107345730Y-84500788D01*
X107347104Y-84319988D01*
X107357018Y-83257632D01*
X107452877Y-83101059D01*
X107567439Y-82957862D01*
X107690385Y-82872870D01*
X107728834Y-82854226D01*
X107767465Y-82839139D01*
X107813118Y-82827235D01*
X107872632Y-82818142D01*
X107952847Y-82811487D01*
X108060602Y-82806898D01*
X108202738Y-82804001D01*
X108386093Y-82802424D01*
X108617507Y-82801795D01*
X108903820Y-82801740D01*
X108995028Y-82801777D01*
G36*
X104953885Y-85506767D02*
X107118296Y-85506767D01*
X107118296Y-86079700D01*
X104317294Y-86079700D01*
X104317294Y-82801254D01*
X104953885Y-82801254D01*
X104953885Y-85506767D01*
X104953885Y-85506767D01*
G37*
X104953885Y-85506767D02*
X107118296Y-85506767D01*
X107118296Y-86079700D01*
X104317294Y-86079700D01*
X104317294Y-82801254D01*
X104953885Y-82801254D01*
X104953885Y-85506767D01*
G36*
X114088973Y-87575690D02*
X115393985Y-87575690D01*
X115393985Y-87193735D01*
X115775940Y-87193735D01*
X115775940Y-88339599D01*
X115393985Y-88339599D01*
X115393985Y-87766667D01*
X114088973Y-87766667D01*
X114088973Y-88339599D01*
X113707018Y-88339599D01*
X113707018Y-87193735D01*
X114088973Y-87193735D01*
X114088973Y-87575690D01*
X114088973Y-87575690D01*
G37*
X114088973Y-87575690D02*
X115393985Y-87575690D01*
X115393985Y-87193735D01*
X115775940Y-87193735D01*
X115775940Y-88339599D01*
X115393985Y-88339599D01*
X115393985Y-87766667D01*
X114088973Y-87766667D01*
X114088973Y-88339599D01*
X113707018Y-88339599D01*
X113707018Y-87193735D01*
X114088973Y-87193735D01*
X114088973Y-87575690D01*
G36*
X113436466Y-87400627D02*
X112004136Y-87432457D01*
X111994961Y-87748122D01*
X111993008Y-87908467D01*
X111998747Y-88013890D01*
X112012955Y-88072748D01*
X112026791Y-88089802D01*
X112069527Y-88097460D01*
X112166064Y-88104270D01*
X112306547Y-88109878D01*
X112481120Y-88113928D01*
X112679926Y-88116066D01*
X112762105Y-88116305D01*
X113456415Y-88116792D01*
X113446440Y-88220238D01*
X113436466Y-88323685D01*
X112672557Y-88328663D01*
X112452035Y-88329024D01*
X112247309Y-88327338D01*
X112068776Y-88323850D01*
X111926833Y-88318807D01*
X111831876Y-88312454D01*
X111801680Y-88308091D01*
X111721026Y-88284751D01*
X111663934Y-88252639D01*
X111626368Y-88201409D01*
X111604293Y-88120719D01*
X111593672Y-88000225D01*
X111590469Y-87829584D01*
X111590351Y-87766476D01*
X111589361Y-87612025D01*
X111590714Y-87489079D01*
X111600895Y-87393985D01*
X111626387Y-87323094D01*
X111673677Y-87272752D01*
X111749248Y-87239309D01*
X111859586Y-87219113D01*
X112011174Y-87208512D01*
X112210498Y-87203855D01*
X112464041Y-87201491D01*
X112595942Y-87200219D01*
X113456634Y-87190789D01*
X113436466Y-87400627D01*
X113436466Y-87400627D01*
G37*
X113436466Y-87400627D02*
X112004136Y-87432457D01*
X111994961Y-87748122D01*
X111993008Y-87908467D01*
X111998747Y-88013890D01*
X112012955Y-88072748D01*
X112026791Y-88089802D01*
X112069527Y-88097460D01*
X112166064Y-88104270D01*
X112306547Y-88109878D01*
X112481120Y-88113928D01*
X112679926Y-88116066D01*
X112762105Y-88116305D01*
X113456415Y-88116792D01*
X113446440Y-88220238D01*
X113436466Y-88323685D01*
X112672557Y-88328663D01*
X112452035Y-88329024D01*
X112247309Y-88327338D01*
X112068776Y-88323850D01*
X111926833Y-88318807D01*
X111831876Y-88312454D01*
X111801680Y-88308091D01*
X111721026Y-88284751D01*
X111663934Y-88252639D01*
X111626368Y-88201409D01*
X111604293Y-88120719D01*
X111593672Y-88000225D01*
X111590469Y-87829584D01*
X111590351Y-87766476D01*
X111589361Y-87612025D01*
X111590714Y-87489079D01*
X111600895Y-87393985D01*
X111626387Y-87323094D01*
X111673677Y-87272752D01*
X111749248Y-87239309D01*
X111859586Y-87219113D01*
X112011174Y-87208512D01*
X112210498Y-87203855D01*
X112464041Y-87201491D01*
X112595942Y-87200219D01*
X113456634Y-87190789D01*
X113436466Y-87400627D01*
G36*
X109728321Y-87622314D02*
X109729048Y-87796330D01*
X109732183Y-87917439D01*
X109739161Y-87996388D01*
X109751415Y-88043921D01*
X109770378Y-88070784D01*
X109789888Y-88083843D01*
X109843459Y-88095861D01*
X109947993Y-88105847D01*
X110090808Y-88113008D01*
X110259218Y-88116552D01*
X110317168Y-88116792D01*
X110491151Y-88114591D01*
X110643648Y-88108515D01*
X110761975Y-88099358D01*
X110833448Y-88087911D01*
X110844449Y-88083843D01*
X110869391Y-88065436D01*
X110886547Y-88034426D01*
X110897352Y-87980067D01*
X110903238Y-87891615D01*
X110905639Y-87758324D01*
X110906015Y-87622314D01*
X110906015Y-87193735D01*
X111287970Y-87193735D01*
X111287970Y-87685853D01*
X111286496Y-87894770D01*
X111279443Y-88049088D01*
X111262867Y-88157845D01*
X111232823Y-88230080D01*
X111185365Y-88274833D01*
X111116549Y-88301141D01*
X111022430Y-88318043D01*
X111011384Y-88319576D01*
X110895148Y-88330195D01*
X110738276Y-88337041D01*
X110553191Y-88340342D01*
X110352318Y-88340322D01*
X110148080Y-88337208D01*
X109952899Y-88331224D01*
X109779200Y-88322597D01*
X109639406Y-88311553D01*
X109545940Y-88298316D01*
X109524611Y-88292567D01*
X109439712Y-88254889D01*
X109381808Y-88215781D01*
X109373908Y-88206433D01*
X109364619Y-88161256D01*
X109356682Y-88064626D01*
X109350720Y-87928746D01*
X109347361Y-87765818D01*
X109346854Y-87679136D01*
X109346366Y-87193735D01*
X109728321Y-87193735D01*
X109728321Y-87622314D01*
X109728321Y-87622314D01*
G37*
X109728321Y-87622314D02*
X109729048Y-87796330D01*
X109732183Y-87917439D01*
X109739161Y-87996388D01*
X109751415Y-88043921D01*
X109770378Y-88070784D01*
X109789888Y-88083843D01*
X109843459Y-88095861D01*
X109947993Y-88105847D01*
X110090808Y-88113008D01*
X110259218Y-88116552D01*
X110317168Y-88116792D01*
X110491151Y-88114591D01*
X110643648Y-88108515D01*
X110761975Y-88099358D01*
X110833448Y-88087911D01*
X110844449Y-88083843D01*
X110869391Y-88065436D01*
X110886547Y-88034426D01*
X110897352Y-87980067D01*
X110903238Y-87891615D01*
X110905639Y-87758324D01*
X110906015Y-87622314D01*
X110906015Y-87193735D01*
X111287970Y-87193735D01*
X111287970Y-87685853D01*
X111286496Y-87894770D01*
X111279443Y-88049088D01*
X111262867Y-88157845D01*
X111232823Y-88230080D01*
X111185365Y-88274833D01*
X111116549Y-88301141D01*
X111022430Y-88318043D01*
X111011384Y-88319576D01*
X110895148Y-88330195D01*
X110738276Y-88337041D01*
X110553191Y-88340342D01*
X110352318Y-88340322D01*
X110148080Y-88337208D01*
X109952899Y-88331224D01*
X109779200Y-88322597D01*
X109639406Y-88311553D01*
X109545940Y-88298316D01*
X109524611Y-88292567D01*
X109439712Y-88254889D01*
X109381808Y-88215781D01*
X109373908Y-88206433D01*
X109364619Y-88161256D01*
X109356682Y-88064626D01*
X109350720Y-87928746D01*
X109347361Y-87765818D01*
X109346854Y-87679136D01*
X109346366Y-87193735D01*
X109728321Y-87193735D01*
X109728321Y-87622314D01*
G36*
X108915981Y-87197893D02*
X108967114Y-87215785D01*
X108999835Y-87255502D01*
X109018218Y-87325506D01*
X109026336Y-87434259D01*
X109028264Y-87590224D01*
X109028070Y-87787651D01*
X109028070Y-88342926D01*
X108860965Y-88333305D01*
X108693860Y-88323685D01*
X108684872Y-87927405D01*
X108675884Y-87531124D01*
X108283855Y-87939702D01*
X107891827Y-88348280D01*
X107520833Y-88317514D01*
X107144552Y-87922730D01*
X106768272Y-87527945D01*
X106768221Y-87933772D01*
X106768171Y-88339599D01*
X106598413Y-88339599D01*
X106499355Y-88335909D01*
X106428302Y-88326443D01*
X106407436Y-88318380D01*
X106400042Y-88280697D01*
X106393770Y-88190975D01*
X106389110Y-88060828D01*
X106386553Y-87901871D01*
X106386216Y-87816189D01*
X106387403Y-87602720D01*
X106393642Y-87444607D01*
X106408944Y-87333553D01*
X106437323Y-87261262D01*
X106482791Y-87219440D01*
X106549362Y-87199790D01*
X106641049Y-87194017D01*
X106687326Y-87193735D01*
X106889339Y-87193735D01*
X107305984Y-87631391D01*
X107722629Y-88069048D01*
X107951280Y-87830326D01*
X108075320Y-87700594D01*
X108209224Y-87560184D01*
X108330339Y-87432859D01*
X108368468Y-87392670D01*
X108557006Y-87193735D01*
X108742191Y-87193735D01*
X108842365Y-87193364D01*
X108915981Y-87197893D01*
X108915981Y-87197893D01*
G37*
X108915981Y-87197893D02*
X108967114Y-87215785D01*
X108999835Y-87255502D01*
X109018218Y-87325506D01*
X109026336Y-87434259D01*
X109028264Y-87590224D01*
X109028070Y-87787651D01*
X109028070Y-88342926D01*
X108860965Y-88333305D01*
X108693860Y-88323685D01*
X108684872Y-87927405D01*
X108675884Y-87531124D01*
X108283855Y-87939702D01*
X107891827Y-88348280D01*
X107520833Y-88317514D01*
X107144552Y-87922730D01*
X106768272Y-87527945D01*
X106768221Y-87933772D01*
X106768171Y-88339599D01*
X106598413Y-88339599D01*
X106499355Y-88335909D01*
X106428302Y-88326443D01*
X106407436Y-88318380D01*
X106400042Y-88280697D01*
X106393770Y-88190975D01*
X106389110Y-88060828D01*
X106386553Y-87901871D01*
X106386216Y-87816189D01*
X106387403Y-87602720D01*
X106393642Y-87444607D01*
X106408944Y-87333553D01*
X106437323Y-87261262D01*
X106482791Y-87219440D01*
X106549362Y-87199790D01*
X106641049Y-87194017D01*
X106687326Y-87193735D01*
X106889339Y-87193735D01*
X107305984Y-87631391D01*
X107722629Y-88069048D01*
X107951280Y-87830326D01*
X108075320Y-87700594D01*
X108209224Y-87560184D01*
X108330339Y-87432859D01*
X108368468Y-87392670D01*
X108557006Y-87193735D01*
X108742191Y-87193735D01*
X108842365Y-87193364D01*
X108915981Y-87197893D01*
G36*
X116635339Y-89294487D02*
X115139349Y-89294487D01*
X115139349Y-89485464D01*
X116317043Y-89485464D01*
X116317043Y-89676441D01*
X115139349Y-89676441D01*
X115139349Y-90026567D01*
X116635339Y-90026567D01*
X116635339Y-90217544D01*
X114725564Y-90217544D01*
X114725564Y-89103509D01*
X116635339Y-89103509D01*
X116635339Y-89294487D01*
X116635339Y-89294487D01*
G37*
X116635339Y-89294487D02*
X115139349Y-89294487D01*
X115139349Y-89485464D01*
X116317043Y-89485464D01*
X116317043Y-89676441D01*
X115139349Y-89676441D01*
X115139349Y-90026567D01*
X116635339Y-90026567D01*
X116635339Y-90217544D01*
X114725564Y-90217544D01*
X114725564Y-89103509D01*
X116635339Y-89103509D01*
X116635339Y-89294487D01*
G36*
X114439098Y-89294487D02*
X113778634Y-89297659D01*
X113575068Y-89299658D01*
X113389075Y-89303400D01*
X113231571Y-89308513D01*
X113113475Y-89314625D01*
X113045703Y-89321364D01*
X113038597Y-89322903D01*
X113002469Y-89335785D01*
X112978909Y-89358578D01*
X112964713Y-89403673D01*
X112956678Y-89483465D01*
X112951599Y-89610349D01*
X112949998Y-89665663D01*
X112940974Y-89986353D01*
X113041508Y-90006460D01*
X113109415Y-90013753D01*
X113226242Y-90019866D01*
X113377252Y-90024269D01*
X113547708Y-90026433D01*
X113601256Y-90026567D01*
X114060470Y-90026567D01*
X114050849Y-89859462D01*
X114041228Y-89692356D01*
X113619486Y-89683475D01*
X113197745Y-89674594D01*
X113197745Y-89485464D01*
X113725025Y-89485464D01*
X113946721Y-89487206D01*
X114113711Y-89493361D01*
X114234873Y-89505321D01*
X114319089Y-89524482D01*
X114375239Y-89552234D01*
X114412203Y-89589973D01*
X114414738Y-89593675D01*
X114425084Y-89639353D01*
X114433201Y-89732364D01*
X114437908Y-89856390D01*
X114438611Y-89923121D01*
X114439098Y-90217544D01*
X113567311Y-90217544D01*
X113307494Y-90217280D01*
X113103699Y-90216160D01*
X112948291Y-90213695D01*
X112833633Y-90209394D01*
X112752090Y-90202768D01*
X112696026Y-90193326D01*
X112657805Y-90180578D01*
X112629790Y-90164034D01*
X112620381Y-90156770D01*
X112589358Y-90127938D01*
X112567851Y-90092579D01*
X112553710Y-90038840D01*
X112544781Y-89954869D01*
X112538914Y-89828812D01*
X112534880Y-89685817D01*
X112531440Y-89514324D01*
X112532173Y-89394081D01*
X112538416Y-89312740D01*
X112551505Y-89257955D01*
X112572776Y-89217379D01*
X112587729Y-89197531D01*
X112650936Y-89119424D01*
X113545017Y-89110048D01*
X114439098Y-89100673D01*
X114439098Y-89294487D01*
X114439098Y-89294487D01*
G37*
X114439098Y-89294487D02*
X113778634Y-89297659D01*
X113575068Y-89299658D01*
X113389075Y-89303400D01*
X113231571Y-89308513D01*
X113113475Y-89314625D01*
X113045703Y-89321364D01*
X113038597Y-89322903D01*
X113002469Y-89335785D01*
X112978909Y-89358578D01*
X112964713Y-89403673D01*
X112956678Y-89483465D01*
X112951599Y-89610349D01*
X112949998Y-89665663D01*
X112940974Y-89986353D01*
X113041508Y-90006460D01*
X113109415Y-90013753D01*
X113226242Y-90019866D01*
X113377252Y-90024269D01*
X113547708Y-90026433D01*
X113601256Y-90026567D01*
X114060470Y-90026567D01*
X114050849Y-89859462D01*
X114041228Y-89692356D01*
X113619486Y-89683475D01*
X113197745Y-89674594D01*
X113197745Y-89485464D01*
X113725025Y-89485464D01*
X113946721Y-89487206D01*
X114113711Y-89493361D01*
X114234873Y-89505321D01*
X114319089Y-89524482D01*
X114375239Y-89552234D01*
X114412203Y-89589973D01*
X114414738Y-89593675D01*
X114425084Y-89639353D01*
X114433201Y-89732364D01*
X114437908Y-89856390D01*
X114438611Y-89923121D01*
X114439098Y-90217544D01*
X113567311Y-90217544D01*
X113307494Y-90217280D01*
X113103699Y-90216160D01*
X112948291Y-90213695D01*
X112833633Y-90209394D01*
X112752090Y-90202768D01*
X112696026Y-90193326D01*
X112657805Y-90180578D01*
X112629790Y-90164034D01*
X112620381Y-90156770D01*
X112589358Y-90127938D01*
X112567851Y-90092579D01*
X112553710Y-90038840D01*
X112544781Y-89954869D01*
X112538914Y-89828812D01*
X112534880Y-89685817D01*
X112531440Y-89514324D01*
X112532173Y-89394081D01*
X112538416Y-89312740D01*
X112551505Y-89257955D01*
X112572776Y-89217379D01*
X112587729Y-89197531D01*
X112650936Y-89119424D01*
X113545017Y-89110048D01*
X114439098Y-89100673D01*
X114439098Y-89294487D01*
G36*
X110545619Y-89103293D02*
X110590991Y-89108475D01*
X110638553Y-89122030D01*
X110694679Y-89147593D01*
X110765741Y-89188800D01*
X110858110Y-89249284D01*
X110978160Y-89332681D01*
X111132263Y-89442626D01*
X111326791Y-89582754D01*
X111518735Y-89721143D01*
X111892732Y-89990529D01*
X111892732Y-89103509D01*
X112242857Y-89103509D01*
X112242857Y-89622331D01*
X112240890Y-89845780D01*
X112234812Y-90009502D01*
X112224363Y-90117310D01*
X112209281Y-90173020D01*
X112204662Y-90179349D01*
X112151755Y-90200158D01*
X112050862Y-90213587D01*
X111938403Y-90217544D01*
X111802444Y-90213069D01*
X111711069Y-90197122D01*
X111645670Y-90165919D01*
X111630824Y-90154997D01*
X111576198Y-90113854D01*
X111479775Y-90043054D01*
X111351616Y-89949863D01*
X111201780Y-89841547D01*
X111040327Y-89725374D01*
X110877318Y-89608610D01*
X110722813Y-89498521D01*
X110675577Y-89465015D01*
X110591722Y-89407438D01*
X110530283Y-89368639D01*
X110508472Y-89358146D01*
X110502535Y-89388041D01*
X110497572Y-89469996D01*
X110494019Y-89592414D01*
X110492317Y-89743696D01*
X110492231Y-89787845D01*
X110492231Y-90217544D01*
X110142106Y-90217544D01*
X110142106Y-89698722D01*
X110144073Y-89475273D01*
X110150151Y-89311552D01*
X110160600Y-89203743D01*
X110175682Y-89148034D01*
X110180301Y-89141705D01*
X110232814Y-89120874D01*
X110331658Y-89107350D01*
X110435960Y-89103509D01*
X110496066Y-89102849D01*
X110545619Y-89103293D01*
X110545619Y-89103293D01*
G37*
X110545619Y-89103293D02*
X110590991Y-89108475D01*
X110638553Y-89122030D01*
X110694679Y-89147593D01*
X110765741Y-89188800D01*
X110858110Y-89249284D01*
X110978160Y-89332681D01*
X111132263Y-89442626D01*
X111326791Y-89582754D01*
X111518735Y-89721143D01*
X111892732Y-89990529D01*
X111892732Y-89103509D01*
X112242857Y-89103509D01*
X112242857Y-89622331D01*
X112240890Y-89845780D01*
X112234812Y-90009502D01*
X112224363Y-90117310D01*
X112209281Y-90173020D01*
X112204662Y-90179349D01*
X112151755Y-90200158D01*
X112050862Y-90213587D01*
X111938403Y-90217544D01*
X111802444Y-90213069D01*
X111711069Y-90197122D01*
X111645670Y-90165919D01*
X111630824Y-90154997D01*
X111576198Y-90113854D01*
X111479775Y-90043054D01*
X111351616Y-89949863D01*
X111201780Y-89841547D01*
X111040327Y-89725374D01*
X110877318Y-89608610D01*
X110722813Y-89498521D01*
X110675577Y-89465015D01*
X110591722Y-89407438D01*
X110530283Y-89368639D01*
X110508472Y-89358146D01*
X110502535Y-89388041D01*
X110497572Y-89469996D01*
X110494019Y-89592414D01*
X110492317Y-89743696D01*
X110492231Y-89787845D01*
X110492231Y-90217544D01*
X110142106Y-90217544D01*
X110142106Y-89698722D01*
X110144073Y-89475273D01*
X110150151Y-89311552D01*
X110160600Y-89203743D01*
X110175682Y-89148034D01*
X110180301Y-89141705D01*
X110232814Y-89120874D01*
X110331658Y-89107350D01*
X110435960Y-89103509D01*
X110496066Y-89102849D01*
X110545619Y-89103293D01*
G36*
X109123869Y-89104269D02*
X109338075Y-89107467D01*
X109502619Y-89114482D01*
X109624495Y-89126692D01*
X109710699Y-89145475D01*
X109768224Y-89172208D01*
X109804065Y-89208270D01*
X109825216Y-89255040D01*
X109835469Y-89297082D01*
X109843205Y-89367277D01*
X109849569Y-89485027D01*
X109853924Y-89634232D01*
X109855635Y-89798793D01*
X109855639Y-89807738D01*
X109855639Y-90217544D01*
X109441855Y-90217544D01*
X109441855Y-89867419D01*
X108232331Y-89867419D01*
X108232331Y-90217544D01*
X107850376Y-90217544D01*
X107850376Y-89758619D01*
X107851699Y-89590556D01*
X107853517Y-89516506D01*
X108232331Y-89516506D01*
X108232331Y-89676441D01*
X109441855Y-89676441D01*
X109441855Y-89516506D01*
X109438105Y-89418863D01*
X109421222Y-89364934D01*
X109382751Y-89334950D01*
X109360209Y-89325528D01*
X109298999Y-89314103D01*
X109188575Y-89304571D01*
X109043373Y-89297790D01*
X108877830Y-89294616D01*
X108837093Y-89294487D01*
X108668840Y-89296678D01*
X108517498Y-89302679D01*
X108397504Y-89311635D01*
X108323294Y-89322688D01*
X108313977Y-89325528D01*
X108264859Y-89351548D01*
X108240606Y-89393843D01*
X108232765Y-89472184D01*
X108232331Y-89516506D01*
X107853517Y-89516506D01*
X107855332Y-89442636D01*
X107860774Y-89327821D01*
X107867521Y-89259076D01*
X107870148Y-89248168D01*
X107892474Y-89205944D01*
X107928050Y-89172700D01*
X107983947Y-89147394D01*
X108067237Y-89128987D01*
X108184995Y-89116437D01*
X108344290Y-89108704D01*
X108552197Y-89104746D01*
X108815787Y-89103522D01*
X108853008Y-89103509D01*
X109123869Y-89104269D01*
X109123869Y-89104269D01*
G37*
X109123869Y-89104269D02*
X109338075Y-89107467D01*
X109502619Y-89114482D01*
X109624495Y-89126692D01*
X109710699Y-89145475D01*
X109768224Y-89172208D01*
X109804065Y-89208270D01*
X109825216Y-89255040D01*
X109835469Y-89297082D01*
X109843205Y-89367277D01*
X109849569Y-89485027D01*
X109853924Y-89634232D01*
X109855635Y-89798793D01*
X109855639Y-89807738D01*
X109855639Y-90217544D01*
X109441855Y-90217544D01*
X109441855Y-89867419D01*
X108232331Y-89867419D01*
X108232331Y-90217544D01*
X107850376Y-90217544D01*
X107850376Y-89758619D01*
X107851699Y-89590556D01*
X107853517Y-89516506D01*
X108232331Y-89516506D01*
X108232331Y-89676441D01*
X109441855Y-89676441D01*
X109441855Y-89516506D01*
X109438105Y-89418863D01*
X109421222Y-89364934D01*
X109382751Y-89334950D01*
X109360209Y-89325528D01*
X109298999Y-89314103D01*
X109188575Y-89304571D01*
X109043373Y-89297790D01*
X108877830Y-89294616D01*
X108837093Y-89294487D01*
X108668840Y-89296678D01*
X108517498Y-89302679D01*
X108397504Y-89311635D01*
X108323294Y-89322688D01*
X108313977Y-89325528D01*
X108264859Y-89351548D01*
X108240606Y-89393843D01*
X108232765Y-89472184D01*
X108232331Y-89516506D01*
X107853517Y-89516506D01*
X107855332Y-89442636D01*
X107860774Y-89327821D01*
X107867521Y-89259076D01*
X107870148Y-89248168D01*
X107892474Y-89205944D01*
X107928050Y-89172700D01*
X107983947Y-89147394D01*
X108067237Y-89128987D01*
X108184995Y-89116437D01*
X108344290Y-89108704D01*
X108552197Y-89104746D01*
X108815787Y-89103522D01*
X108853008Y-89103509D01*
X109123869Y-89104269D01*
G36*
X106489662Y-89103628D02*
X106749318Y-89103946D01*
X106953218Y-89105159D01*
X107109266Y-89107772D01*
X107225364Y-89112293D01*
X107309414Y-89119229D01*
X107369320Y-89129086D01*
X107412984Y-89142372D01*
X107448308Y-89159592D01*
X107458737Y-89165769D01*
X107547500Y-89255478D01*
X107589965Y-89385322D01*
X107584544Y-89550121D01*
X107581640Y-89566556D01*
X107533272Y-89670112D01*
X107442888Y-89754016D01*
X107332107Y-89800424D01*
X107293359Y-89804496D01*
X107274623Y-89815857D01*
X107294095Y-89852212D01*
X107355705Y-89918643D01*
X107452507Y-90010254D01*
X107675314Y-90215037D01*
X107447992Y-90216291D01*
X107364013Y-90217067D01*
X107299741Y-90214481D01*
X107244995Y-90202764D01*
X107189597Y-90176151D01*
X107123364Y-90128875D01*
X107036118Y-90055168D01*
X106917678Y-89949264D01*
X106818065Y-89859462D01*
X106780692Y-89834868D01*
X106725469Y-89818556D01*
X106640225Y-89808977D01*
X106512790Y-89804584D01*
X106380214Y-89803760D01*
X106004261Y-89803760D01*
X106004261Y-90217544D01*
X105622306Y-90217544D01*
X105622306Y-89614218D01*
X106004261Y-89614218D01*
X106585151Y-89605543D01*
X107166040Y-89596868D01*
X107175626Y-89465730D01*
X107178120Y-89409081D01*
X107170930Y-89366630D01*
X107146179Y-89336321D01*
X107095988Y-89316095D01*
X107012479Y-89303896D01*
X106887774Y-89297667D01*
X106713994Y-89295351D01*
X106521491Y-89294921D01*
X106004261Y-89294487D01*
X106004261Y-89614218D01*
X105622306Y-89614218D01*
X105622306Y-89103509D01*
X106489662Y-89103628D01*
X106489662Y-89103628D01*
G37*
X106489662Y-89103628D02*
X106749318Y-89103946D01*
X106953218Y-89105159D01*
X107109266Y-89107772D01*
X107225364Y-89112293D01*
X107309414Y-89119229D01*
X107369320Y-89129086D01*
X107412984Y-89142372D01*
X107448308Y-89159592D01*
X107458737Y-89165769D01*
X107547500Y-89255478D01*
X107589965Y-89385322D01*
X107584544Y-89550121D01*
X107581640Y-89566556D01*
X107533272Y-89670112D01*
X107442888Y-89754016D01*
X107332107Y-89800424D01*
X107293359Y-89804496D01*
X107274623Y-89815857D01*
X107294095Y-89852212D01*
X107355705Y-89918643D01*
X107452507Y-90010254D01*
X107675314Y-90215037D01*
X107447992Y-90216291D01*
X107364013Y-90217067D01*
X107299741Y-90214481D01*
X107244995Y-90202764D01*
X107189597Y-90176151D01*
X107123364Y-90128875D01*
X107036118Y-90055168D01*
X106917678Y-89949264D01*
X106818065Y-89859462D01*
X106780692Y-89834868D01*
X106725469Y-89818556D01*
X106640225Y-89808977D01*
X106512790Y-89804584D01*
X106380214Y-89803760D01*
X106004261Y-89803760D01*
X106004261Y-90217544D01*
X105622306Y-90217544D01*
X105622306Y-89614218D01*
X106004261Y-89614218D01*
X106585151Y-89605543D01*
X107166040Y-89596868D01*
X107175626Y-89465730D01*
X107178120Y-89409081D01*
X107170930Y-89366630D01*
X107146179Y-89336321D01*
X107095988Y-89316095D01*
X107012479Y-89303896D01*
X106887774Y-89297667D01*
X106713994Y-89295351D01*
X106521491Y-89294921D01*
X106004261Y-89294487D01*
X106004261Y-89614218D01*
X105622306Y-89614218D01*
X105622306Y-89103509D01*
X106489662Y-89103628D01*
G36*
X115505389Y-90997369D02*
X115514154Y-91498661D01*
X115522920Y-91999953D01*
X115418666Y-92063517D01*
X115382216Y-92083341D01*
X115340470Y-92098573D01*
X115285006Y-92109814D01*
X115207403Y-92117666D01*
X115099241Y-92122729D01*
X114952097Y-92125606D01*
X114757551Y-92126896D01*
X114526629Y-92127200D01*
X113738847Y-92127319D01*
X113738847Y-91905753D01*
X114431141Y-91897175D01*
X114657753Y-91894224D01*
X114828706Y-91891134D01*
X114951998Y-91886993D01*
X115035623Y-91880887D01*
X115087577Y-91871904D01*
X115115858Y-91859130D01*
X115128460Y-91841654D01*
X115133380Y-91818561D01*
X115133605Y-91816980D01*
X115143776Y-91745364D01*
X114560673Y-91743466D01*
X114280277Y-91741538D01*
X114057031Y-91735728D01*
X113884432Y-91722958D01*
X113755975Y-91700154D01*
X113665157Y-91664238D01*
X113605474Y-91612134D01*
X113570422Y-91540765D01*
X113553497Y-91447055D01*
X113548196Y-91327929D01*
X113547870Y-91264394D01*
X113547870Y-90981454D01*
X113929825Y-90981454D01*
X113930259Y-91180389D01*
X113929696Y-91297932D01*
X113932914Y-91385073D01*
X113948159Y-91446331D01*
X113983673Y-91486228D01*
X114047701Y-91509285D01*
X114148488Y-91520023D01*
X114294276Y-91522962D01*
X114493310Y-91522624D01*
X114554214Y-91522557D01*
X115139349Y-91522557D01*
X115139349Y-90978277D01*
X115505389Y-90997369D01*
X115505389Y-90997369D01*
G37*
X115505389Y-90997369D02*
X115514154Y-91498661D01*
X115522920Y-91999953D01*
X115418666Y-92063517D01*
X115382216Y-92083341D01*
X115340470Y-92098573D01*
X115285006Y-92109814D01*
X115207403Y-92117666D01*
X115099241Y-92122729D01*
X114952097Y-92125606D01*
X114757551Y-92126896D01*
X114526629Y-92127200D01*
X113738847Y-92127319D01*
X113738847Y-91905753D01*
X114431141Y-91897175D01*
X114657753Y-91894224D01*
X114828706Y-91891134D01*
X114951998Y-91886993D01*
X115035623Y-91880887D01*
X115087577Y-91871904D01*
X115115858Y-91859130D01*
X115128460Y-91841654D01*
X115133380Y-91818561D01*
X115133605Y-91816980D01*
X115143776Y-91745364D01*
X114560673Y-91743466D01*
X114280277Y-91741538D01*
X114057031Y-91735728D01*
X113884432Y-91722958D01*
X113755975Y-91700154D01*
X113665157Y-91664238D01*
X113605474Y-91612134D01*
X113570422Y-91540765D01*
X113553497Y-91447055D01*
X113548196Y-91327929D01*
X113547870Y-91264394D01*
X113547870Y-90981454D01*
X113929825Y-90981454D01*
X113930259Y-91180389D01*
X113929696Y-91297932D01*
X113932914Y-91385073D01*
X113948159Y-91446331D01*
X113983673Y-91486228D01*
X114047701Y-91509285D01*
X114148488Y-91520023D01*
X114294276Y-91522962D01*
X114493310Y-91522624D01*
X114554214Y-91522557D01*
X115139349Y-91522557D01*
X115139349Y-90978277D01*
X115505389Y-90997369D01*
G36*
X112218985Y-90987730D02*
X112498692Y-90991813D01*
X112721787Y-90997073D01*
X112895318Y-91004653D01*
X113026335Y-91015698D01*
X113121884Y-91031352D01*
X113189013Y-91052758D01*
X113234771Y-91081061D01*
X113266205Y-91117404D01*
X113289723Y-91161524D01*
X113318044Y-91269218D01*
X113322758Y-91395804D01*
X113304797Y-91512757D01*
X113276153Y-91578221D01*
X113214835Y-91630637D01*
X113122453Y-91675065D01*
X113094185Y-91683878D01*
X112961127Y-91719707D01*
X113151052Y-91890442D01*
X113242572Y-91970357D01*
X113316542Y-92030594D01*
X113360060Y-92060773D01*
X113364850Y-92062419D01*
X113388100Y-92088244D01*
X113388722Y-92095489D01*
X113359375Y-92111956D01*
X113281123Y-92123287D01*
X113173276Y-92127319D01*
X112957831Y-92127319D01*
X112722730Y-91920426D01*
X112487628Y-91713534D01*
X111733584Y-91713534D01*
X111733584Y-92127319D01*
X111351629Y-92127319D01*
X111351629Y-91204261D01*
X111733584Y-91204261D01*
X111733584Y-91522557D01*
X112282644Y-91522069D01*
X112464748Y-91520609D01*
X112625472Y-91516866D01*
X112753667Y-91511298D01*
X112838181Y-91504360D01*
X112866748Y-91498197D01*
X112897927Y-91451975D01*
X112918379Y-91385484D01*
X112925395Y-91324960D01*
X112915888Y-91279577D01*
X112882366Y-91247180D01*
X112817335Y-91225612D01*
X112713303Y-91212719D01*
X112562774Y-91206345D01*
X112358257Y-91204335D01*
X112288328Y-91204261D01*
X111733584Y-91204261D01*
X111351629Y-91204261D01*
X111351629Y-90976899D01*
X112218985Y-90987730D01*
X112218985Y-90987730D01*
G37*
X112218985Y-90987730D02*
X112498692Y-90991813D01*
X112721787Y-90997073D01*
X112895318Y-91004653D01*
X113026335Y-91015698D01*
X113121884Y-91031352D01*
X113189013Y-91052758D01*
X113234771Y-91081061D01*
X113266205Y-91117404D01*
X113289723Y-91161524D01*
X113318044Y-91269218D01*
X113322758Y-91395804D01*
X113304797Y-91512757D01*
X113276153Y-91578221D01*
X113214835Y-91630637D01*
X113122453Y-91675065D01*
X113094185Y-91683878D01*
X112961127Y-91719707D01*
X113151052Y-91890442D01*
X113242572Y-91970357D01*
X113316542Y-92030594D01*
X113360060Y-92060773D01*
X113364850Y-92062419D01*
X113388100Y-92088244D01*
X113388722Y-92095489D01*
X113359375Y-92111956D01*
X113281123Y-92123287D01*
X113173276Y-92127319D01*
X112957831Y-92127319D01*
X112722730Y-91920426D01*
X112487628Y-91713534D01*
X111733584Y-91713534D01*
X111733584Y-92127319D01*
X111351629Y-92127319D01*
X111351629Y-91204261D01*
X111733584Y-91204261D01*
X111733584Y-91522557D01*
X112282644Y-91522069D01*
X112464748Y-91520609D01*
X112625472Y-91516866D01*
X112753667Y-91511298D01*
X112838181Y-91504360D01*
X112866748Y-91498197D01*
X112897927Y-91451975D01*
X112918379Y-91385484D01*
X112925395Y-91324960D01*
X112915888Y-91279577D01*
X112882366Y-91247180D01*
X112817335Y-91225612D01*
X112713303Y-91212719D01*
X112562774Y-91206345D01*
X112358257Y-91204335D01*
X112288328Y-91204261D01*
X111733584Y-91204261D01*
X111351629Y-91204261D01*
X111351629Y-90976899D01*
X112218985Y-90987730D01*
G36*
X111081078Y-90997369D02*
X111101026Y-91204261D01*
X109601003Y-91204261D01*
X109601003Y-91395238D01*
X110778697Y-91395238D01*
X110778697Y-91586216D01*
X109601003Y-91586216D01*
X109601003Y-91903338D01*
X110341040Y-91911882D01*
X111081078Y-91920426D01*
X111091052Y-92023873D01*
X111101026Y-92127319D01*
X109187218Y-92127319D01*
X109187218Y-90980507D01*
X111081078Y-90997369D01*
X111081078Y-90997369D01*
G37*
X111081078Y-90997369D02*
X111101026Y-91204261D01*
X109601003Y-91204261D01*
X109601003Y-91395238D01*
X110778697Y-91395238D01*
X110778697Y-91586216D01*
X109601003Y-91586216D01*
X109601003Y-91903338D01*
X110341040Y-91911882D01*
X111081078Y-91920426D01*
X111091052Y-92023873D01*
X111101026Y-92127319D01*
X109187218Y-92127319D01*
X109187218Y-90980507D01*
X111081078Y-90997369D01*
G36*
X106911492Y-90985797D02*
X106951167Y-91002928D01*
X106997040Y-91036496D01*
X107055152Y-91091659D01*
X107131539Y-91173574D01*
X107232241Y-91287398D01*
X107363297Y-91438288D01*
X107530745Y-91631403D01*
X107532080Y-91632940D01*
X107770802Y-91907636D01*
X107909046Y-91754883D01*
X107985465Y-91669550D01*
X108089601Y-91552054D01*
X108207416Y-91418286D01*
X108318188Y-91291792D01*
X108589087Y-90981454D01*
X108792664Y-90981454D01*
X108897072Y-90985624D01*
X108970504Y-90996520D01*
X108996241Y-91010719D01*
X108988416Y-91030542D01*
X108962615Y-91067773D01*
X108915345Y-91126376D01*
X108843114Y-91210311D01*
X108742432Y-91323540D01*
X108609806Y-91470024D01*
X108441744Y-91653727D01*
X108234756Y-91878609D01*
X108158540Y-91961202D01*
X108005174Y-92127319D01*
X107535455Y-92127319D01*
X107042339Y-91580055D01*
X106902987Y-91423614D01*
X106780264Y-91282401D01*
X106679929Y-91163330D01*
X106607743Y-91073317D01*
X106569467Y-91019278D01*
X106565086Y-91007122D01*
X106602994Y-90993389D01*
X106685003Y-90984075D01*
X106769277Y-90981454D01*
X106826586Y-90980217D01*
X106871978Y-90979946D01*
X106911492Y-90985797D01*
X106911492Y-90985797D01*
G37*
X106911492Y-90985797D02*
X106951167Y-91002928D01*
X106997040Y-91036496D01*
X107055152Y-91091659D01*
X107131539Y-91173574D01*
X107232241Y-91287398D01*
X107363297Y-91438288D01*
X107530745Y-91631403D01*
X107532080Y-91632940D01*
X107770802Y-91907636D01*
X107909046Y-91754883D01*
X107985465Y-91669550D01*
X108089601Y-91552054D01*
X108207416Y-91418286D01*
X108318188Y-91291792D01*
X108589087Y-90981454D01*
X108792664Y-90981454D01*
X108897072Y-90985624D01*
X108970504Y-90996520D01*
X108996241Y-91010719D01*
X108988416Y-91030542D01*
X108962615Y-91067773D01*
X108915345Y-91126376D01*
X108843114Y-91210311D01*
X108742432Y-91323540D01*
X108609806Y-91470024D01*
X108441744Y-91653727D01*
X108234756Y-91878609D01*
X108158540Y-91961202D01*
X108005174Y-92127319D01*
X107535455Y-92127319D01*
X107042339Y-91580055D01*
X106902987Y-91423614D01*
X106780264Y-91282401D01*
X106679929Y-91163330D01*
X106607743Y-91073317D01*
X106569467Y-91019278D01*
X106565086Y-91007122D01*
X106602994Y-90993389D01*
X106685003Y-90984075D01*
X106769277Y-90981454D01*
X106826586Y-90980217D01*
X106871978Y-90979946D01*
X106911492Y-90985797D01*
G36*
X112759214Y-93344800D02*
X112768045Y-93798371D01*
X113484211Y-93816371D01*
X113484211Y-92891228D01*
X113834336Y-92891228D01*
X113834336Y-93816371D01*
X114550502Y-93798371D01*
X114559333Y-93344800D01*
X114568164Y-92891228D01*
X114948371Y-92891228D01*
X114948371Y-93370765D01*
X114946370Y-93543181D01*
X114940861Y-93696178D01*
X114932588Y-93816929D01*
X114922294Y-93892609D01*
X114917214Y-93908519D01*
X114893861Y-93941902D01*
X114858959Y-93969022D01*
X114806281Y-93990504D01*
X114729600Y-94006971D01*
X114622689Y-94019047D01*
X114479322Y-94027356D01*
X114293272Y-94032523D01*
X114058312Y-94035170D01*
X113768215Y-94035923D01*
X113646566Y-94035847D01*
X113340667Y-94034859D01*
X113092563Y-94032551D01*
X112896401Y-94028696D01*
X112746327Y-94023065D01*
X112636486Y-94015432D01*
X112561026Y-94005568D01*
X112514091Y-93993246D01*
X112510215Y-93991642D01*
X112436030Y-93946749D01*
X112391756Y-93896977D01*
X112390854Y-93894796D01*
X112383553Y-93845029D01*
X112377383Y-93744369D01*
X112372843Y-93605581D01*
X112370433Y-93441429D01*
X112370176Y-93366069D01*
X112370176Y-92891228D01*
X112750383Y-92891228D01*
X112759214Y-93344800D01*
X112759214Y-93344800D01*
G37*
X112759214Y-93344800D02*
X112768045Y-93798371D01*
X113484211Y-93816371D01*
X113484211Y-92891228D01*
X113834336Y-92891228D01*
X113834336Y-93816371D01*
X114550502Y-93798371D01*
X114559333Y-93344800D01*
X114568164Y-92891228D01*
X114948371Y-92891228D01*
X114948371Y-93370765D01*
X114946370Y-93543181D01*
X114940861Y-93696178D01*
X114932588Y-93816929D01*
X114922294Y-93892609D01*
X114917214Y-93908519D01*
X114893861Y-93941902D01*
X114858959Y-93969022D01*
X114806281Y-93990504D01*
X114729600Y-94006971D01*
X114622689Y-94019047D01*
X114479322Y-94027356D01*
X114293272Y-94032523D01*
X114058312Y-94035170D01*
X113768215Y-94035923D01*
X113646566Y-94035847D01*
X113340667Y-94034859D01*
X113092563Y-94032551D01*
X112896401Y-94028696D01*
X112746327Y-94023065D01*
X112636486Y-94015432D01*
X112561026Y-94005568D01*
X112514091Y-93993246D01*
X112510215Y-93991642D01*
X112436030Y-93946749D01*
X112391756Y-93896977D01*
X112390854Y-93894796D01*
X112383553Y-93845029D01*
X112377383Y-93744369D01*
X112372843Y-93605581D01*
X112370433Y-93441429D01*
X112370176Y-93366069D01*
X112370176Y-92891228D01*
X112750383Y-92891228D01*
X112759214Y-93344800D01*
G36*
X111279597Y-92893798D02*
X111469998Y-92897085D01*
X111635779Y-92902838D01*
X111764333Y-92911082D01*
X111841509Y-92921475D01*
X111929855Y-92946184D01*
X111991901Y-92979669D01*
X112032693Y-93032779D01*
X112057277Y-93116363D01*
X112070699Y-93241267D01*
X112078007Y-93418341D01*
X112078355Y-93430610D01*
X112082015Y-93599348D01*
X112078247Y-93733521D01*
X112060622Y-93837054D01*
X112022709Y-93913872D01*
X111958079Y-93967901D01*
X111860302Y-94003064D01*
X111722949Y-94023288D01*
X111539589Y-94032497D01*
X111303795Y-94034616D01*
X111090058Y-94033920D01*
X110879972Y-94032090D01*
X110688116Y-94028738D01*
X110524759Y-94024179D01*
X110400173Y-94018728D01*
X110324627Y-94012698D01*
X110309920Y-94010048D01*
X110229353Y-93972447D01*
X110174644Y-93933959D01*
X110147418Y-93904863D01*
X110129115Y-93865088D01*
X110118000Y-93802603D01*
X110112340Y-93705376D01*
X110110399Y-93561378D01*
X110110276Y-93487469D01*
X110110601Y-93464161D01*
X110492231Y-93464161D01*
X110496902Y-93616287D01*
X110510155Y-93723501D01*
X110530426Y-93776091D01*
X110572669Y-93792140D01*
X110665215Y-93803642D01*
X110812025Y-93810863D01*
X111017059Y-93814065D01*
X111102239Y-93814286D01*
X111299005Y-93813801D01*
X111441622Y-93811659D01*
X111539598Y-93806825D01*
X111602439Y-93798268D01*
X111639654Y-93784953D01*
X111660748Y-93765847D01*
X111668805Y-93752719D01*
X111687430Y-93682596D01*
X111698069Y-93571615D01*
X111700722Y-93442077D01*
X111695389Y-93316281D01*
X111682069Y-93216528D01*
X111668805Y-93175602D01*
X111652471Y-93152930D01*
X111625166Y-93136608D01*
X111577382Y-93125602D01*
X111499612Y-93118880D01*
X111382349Y-93115409D01*
X111216086Y-93114154D01*
X111102239Y-93114035D01*
X110876147Y-93115910D01*
X110709649Y-93121711D01*
X110598784Y-93131703D01*
X110539592Y-93146150D01*
X110530426Y-93152231D01*
X110509851Y-93206281D01*
X110496740Y-93314375D01*
X110492231Y-93464161D01*
X110110601Y-93464161D01*
X110112963Y-93294811D01*
X110123652Y-93155403D01*
X110146282Y-93058967D01*
X110184792Y-92995226D01*
X110243122Y-92953899D01*
X110325212Y-92924709D01*
X110326064Y-92924473D01*
X110399474Y-92913485D01*
X110523896Y-92904815D01*
X110686725Y-92898486D01*
X110875355Y-92894524D01*
X111077181Y-92892953D01*
X111279597Y-92893798D01*
X111279597Y-92893798D01*
G37*
X111279597Y-92893798D02*
X111469998Y-92897085D01*
X111635779Y-92902838D01*
X111764333Y-92911082D01*
X111841509Y-92921475D01*
X111929855Y-92946184D01*
X111991901Y-92979669D01*
X112032693Y-93032779D01*
X112057277Y-93116363D01*
X112070699Y-93241267D01*
X112078007Y-93418341D01*
X112078355Y-93430610D01*
X112082015Y-93599348D01*
X112078247Y-93733521D01*
X112060622Y-93837054D01*
X112022709Y-93913872D01*
X111958079Y-93967901D01*
X111860302Y-94003064D01*
X111722949Y-94023288D01*
X111539589Y-94032497D01*
X111303795Y-94034616D01*
X111090058Y-94033920D01*
X110879972Y-94032090D01*
X110688116Y-94028738D01*
X110524759Y-94024179D01*
X110400173Y-94018728D01*
X110324627Y-94012698D01*
X110309920Y-94010048D01*
X110229353Y-93972447D01*
X110174644Y-93933959D01*
X110147418Y-93904863D01*
X110129115Y-93865088D01*
X110118000Y-93802603D01*
X110112340Y-93705376D01*
X110110399Y-93561378D01*
X110110276Y-93487469D01*
X110110601Y-93464161D01*
X110492231Y-93464161D01*
X110496902Y-93616287D01*
X110510155Y-93723501D01*
X110530426Y-93776091D01*
X110572669Y-93792140D01*
X110665215Y-93803642D01*
X110812025Y-93810863D01*
X111017059Y-93814065D01*
X111102239Y-93814286D01*
X111299005Y-93813801D01*
X111441622Y-93811659D01*
X111539598Y-93806825D01*
X111602439Y-93798268D01*
X111639654Y-93784953D01*
X111660748Y-93765847D01*
X111668805Y-93752719D01*
X111687430Y-93682596D01*
X111698069Y-93571615D01*
X111700722Y-93442077D01*
X111695389Y-93316281D01*
X111682069Y-93216528D01*
X111668805Y-93175602D01*
X111652471Y-93152930D01*
X111625166Y-93136608D01*
X111577382Y-93125602D01*
X111499612Y-93118880D01*
X111382349Y-93115409D01*
X111216086Y-93114154D01*
X111102239Y-93114035D01*
X110876147Y-93115910D01*
X110709649Y-93121711D01*
X110598784Y-93131703D01*
X110539592Y-93146150D01*
X110530426Y-93152231D01*
X110509851Y-93206281D01*
X110496740Y-93314375D01*
X110492231Y-93464161D01*
X110110601Y-93464161D01*
X110112963Y-93294811D01*
X110123652Y-93155403D01*
X110146282Y-93058967D01*
X110184792Y-92995226D01*
X110243122Y-92953899D01*
X110325212Y-92924709D01*
X110326064Y-92924473D01*
X110399474Y-92913485D01*
X110523896Y-92904815D01*
X110686725Y-92898486D01*
X110875355Y-92894524D01*
X111077181Y-92892953D01*
X111279597Y-92893798D01*
G36*
X108709775Y-93816440D02*
X109051943Y-93807406D01*
X109394111Y-93798371D01*
X109411791Y-92888237D01*
X109807895Y-92907143D01*
X109816688Y-93373884D01*
X109819694Y-93555687D01*
X109819786Y-93685375D01*
X109815540Y-93774476D01*
X109805531Y-93834515D01*
X109788336Y-93877021D01*
X109762529Y-93913519D01*
X109747859Y-93930901D01*
X109670237Y-94021178D01*
X108577287Y-94029731D01*
X108281377Y-94031802D01*
X108042213Y-94032722D01*
X107852890Y-94032217D01*
X107706501Y-94030014D01*
X107596139Y-94025838D01*
X107514898Y-94019416D01*
X107455873Y-94010474D01*
X107412155Y-93998738D01*
X107376840Y-93983934D01*
X107372933Y-93981986D01*
X107261529Y-93925690D01*
X107244037Y-92891228D01*
X107625821Y-92891228D01*
X107634653Y-93344800D01*
X107643484Y-93798371D01*
X107984771Y-93807397D01*
X108326059Y-93816422D01*
X108334897Y-93361783D01*
X108343735Y-92907143D01*
X108526755Y-92897597D01*
X108709775Y-92888052D01*
X108709775Y-93816440D01*
X108709775Y-93816440D01*
G37*
X108709775Y-93816440D02*
X109051943Y-93807406D01*
X109394111Y-93798371D01*
X109411791Y-92888237D01*
X109807895Y-92907143D01*
X109816688Y-93373884D01*
X109819694Y-93555687D01*
X109819786Y-93685375D01*
X109815540Y-93774476D01*
X109805531Y-93834515D01*
X109788336Y-93877021D01*
X109762529Y-93913519D01*
X109747859Y-93930901D01*
X109670237Y-94021178D01*
X108577287Y-94029731D01*
X108281377Y-94031802D01*
X108042213Y-94032722D01*
X107852890Y-94032217D01*
X107706501Y-94030014D01*
X107596139Y-94025838D01*
X107514898Y-94019416D01*
X107455873Y-94010474D01*
X107412155Y-93998738D01*
X107376840Y-93983934D01*
X107372933Y-93981986D01*
X107261529Y-93925690D01*
X107244037Y-92891228D01*
X107625821Y-92891228D01*
X107634653Y-93344800D01*
X107643484Y-93798371D01*
X107984771Y-93807397D01*
X108326059Y-93816422D01*
X108334897Y-93361783D01*
X108343735Y-92907143D01*
X108526755Y-92897597D01*
X108709775Y-92888052D01*
X108709775Y-93816440D01*
G36*
X134682707Y-101042493D02*
X134604580Y-101120620D01*
X134563599Y-101156778D01*
X134518243Y-101179675D01*
X134453533Y-101192305D01*
X134354488Y-101197664D01*
X134213793Y-101198747D01*
X134044949Y-101195226D01*
X133928736Y-101183757D01*
X133854467Y-101162986D01*
X133831995Y-101150321D01*
X133777812Y-101104419D01*
X133693811Y-101024400D01*
X133592916Y-100923326D01*
X133488051Y-100814255D01*
X133392139Y-100710248D01*
X133355824Y-100669131D01*
X133309900Y-100618004D01*
X133228049Y-100528697D01*
X133117922Y-100409439D01*
X132987171Y-100268454D01*
X132843446Y-100113968D01*
X132694399Y-99954208D01*
X132547682Y-99797399D01*
X132410945Y-99651769D01*
X132309559Y-99544267D01*
X132186912Y-99414481D01*
X132060549Y-99280602D01*
X131948164Y-99161385D01*
X131888504Y-99097995D01*
X131723930Y-98922933D01*
X131723243Y-100060840D01*
X131722557Y-101198747D01*
X131149624Y-101198747D01*
X131149624Y-99922417D01*
X131149773Y-99579351D01*
X131150796Y-99294290D01*
X131153561Y-99061579D01*
X131158935Y-98875564D01*
X131167784Y-98730591D01*
X131180975Y-98621006D01*
X131199375Y-98541153D01*
X131223851Y-98485380D01*
X131255269Y-98448031D01*
X131294496Y-98423452D01*
X131342400Y-98405989D01*
X131383879Y-98394341D01*
X131490410Y-98377504D01*
X131625647Y-98372582D01*
X131769103Y-98378386D01*
X131900295Y-98393727D01*
X131998737Y-98417416D01*
X132028915Y-98431780D01*
X132064278Y-98464021D01*
X132137184Y-98537335D01*
X132242102Y-98645919D01*
X132373499Y-98783974D01*
X132525844Y-98945698D01*
X132693604Y-99125292D01*
X132813185Y-99254147D01*
X133001864Y-99457831D01*
X133190638Y-99661327D01*
X133371531Y-99856059D01*
X133536566Y-100033448D01*
X133677767Y-100184918D01*
X133787158Y-100301890D01*
X133822338Y-100339349D01*
X134106903Y-100641730D01*
X134108339Y-99503822D01*
X134109775Y-98365915D01*
X134682707Y-98365915D01*
X134682707Y-101042493D01*
X134682707Y-101042493D01*
G37*
X134682707Y-101042493D02*
X134604580Y-101120620D01*
X134563599Y-101156778D01*
X134518243Y-101179675D01*
X134453533Y-101192305D01*
X134354488Y-101197664D01*
X134213793Y-101198747D01*
X134044949Y-101195226D01*
X133928736Y-101183757D01*
X133854467Y-101162986D01*
X133831995Y-101150321D01*
X133777812Y-101104419D01*
X133693811Y-101024400D01*
X133592916Y-100923326D01*
X133488051Y-100814255D01*
X133392139Y-100710248D01*
X133355824Y-100669131D01*
X133309900Y-100618004D01*
X133228049Y-100528697D01*
X133117922Y-100409439D01*
X132987171Y-100268454D01*
X132843446Y-100113968D01*
X132694399Y-99954208D01*
X132547682Y-99797399D01*
X132410945Y-99651769D01*
X132309559Y-99544267D01*
X132186912Y-99414481D01*
X132060549Y-99280602D01*
X131948164Y-99161385D01*
X131888504Y-99097995D01*
X131723930Y-98922933D01*
X131723243Y-100060840D01*
X131722557Y-101198747D01*
X131149624Y-101198747D01*
X131149624Y-99922417D01*
X131149773Y-99579351D01*
X131150796Y-99294290D01*
X131153561Y-99061579D01*
X131158935Y-98875564D01*
X131167784Y-98730591D01*
X131180975Y-98621006D01*
X131199375Y-98541153D01*
X131223851Y-98485380D01*
X131255269Y-98448031D01*
X131294496Y-98423452D01*
X131342400Y-98405989D01*
X131383879Y-98394341D01*
X131490410Y-98377504D01*
X131625647Y-98372582D01*
X131769103Y-98378386D01*
X131900295Y-98393727D01*
X131998737Y-98417416D01*
X132028915Y-98431780D01*
X132064278Y-98464021D01*
X132137184Y-98537335D01*
X132242102Y-98645919D01*
X132373499Y-98783974D01*
X132525844Y-98945698D01*
X132693604Y-99125292D01*
X132813185Y-99254147D01*
X133001864Y-99457831D01*
X133190638Y-99661327D01*
X133371531Y-99856059D01*
X133536566Y-100033448D01*
X133677767Y-100184918D01*
X133787158Y-100301890D01*
X133822338Y-100339349D01*
X134106903Y-100641730D01*
X134108339Y-99503822D01*
X134109775Y-98365915D01*
X134682707Y-98365915D01*
X134682707Y-101042493D01*
G36*
X130489694Y-100694605D02*
X130584547Y-100709780D01*
X130637501Y-100733805D01*
X130638045Y-100734439D01*
X130658537Y-100794255D01*
X130667158Y-100900608D01*
X130665814Y-100981119D01*
X130656266Y-101182832D01*
X130384207Y-101191935D01*
X130258157Y-101193613D01*
X130157357Y-101190216D01*
X130097988Y-101182472D01*
X130089784Y-101178673D01*
X130074295Y-101130749D01*
X130067627Y-101042091D01*
X130069001Y-100934899D01*
X130077636Y-100831369D01*
X130092754Y-100753699D01*
X130105614Y-100727670D01*
X130160901Y-100704812D01*
X130257154Y-100691857D01*
X130373657Y-100688542D01*
X130489694Y-100694605D01*
X130489694Y-100694605D01*
G37*
X130489694Y-100694605D02*
X130584547Y-100709780D01*
X130637501Y-100733805D01*
X130638045Y-100734439D01*
X130658537Y-100794255D01*
X130667158Y-100900608D01*
X130665814Y-100981119D01*
X130656266Y-101182832D01*
X130384207Y-101191935D01*
X130258157Y-101193613D01*
X130157357Y-101190216D01*
X130097988Y-101182472D01*
X130089784Y-101178673D01*
X130074295Y-101130749D01*
X130067627Y-101042091D01*
X130069001Y-100934899D01*
X130077636Y-100831369D01*
X130092754Y-100753699D01*
X130105614Y-100727670D01*
X130160901Y-100704812D01*
X130257154Y-100691857D01*
X130373657Y-100688542D01*
X130489694Y-100694605D01*
G36*
X129589975Y-101198747D02*
X128921554Y-101198747D01*
X128921554Y-98365915D01*
X129589975Y-98365915D01*
X129589975Y-101198747D01*
X129589975Y-101198747D01*
G37*
X129589975Y-101198747D02*
X128921554Y-101198747D01*
X128921554Y-98365915D01*
X129589975Y-98365915D01*
X129589975Y-101198747D01*
G36*
X128261624Y-100694605D02*
X128356477Y-100709780D01*
X128409431Y-100733805D01*
X128409975Y-100734439D01*
X128430467Y-100794255D01*
X128439088Y-100900608D01*
X128437744Y-100981119D01*
X128428196Y-101182832D01*
X128156137Y-101191935D01*
X128030087Y-101193613D01*
X127929286Y-101190216D01*
X127869918Y-101182472D01*
X127861713Y-101178673D01*
X127846225Y-101130749D01*
X127839557Y-101042091D01*
X127840930Y-100934899D01*
X127849566Y-100831369D01*
X127864684Y-100753699D01*
X127877544Y-100727670D01*
X127932831Y-100704812D01*
X128029084Y-100691857D01*
X128145587Y-100688542D01*
X128261624Y-100694605D01*
X128261624Y-100694605D01*
G37*
X128261624Y-100694605D02*
X128356477Y-100709780D01*
X128409431Y-100733805D01*
X128409975Y-100734439D01*
X128430467Y-100794255D01*
X128439088Y-100900608D01*
X128437744Y-100981119D01*
X128428196Y-101182832D01*
X128156137Y-101191935D01*
X128030087Y-101193613D01*
X127929286Y-101190216D01*
X127869918Y-101182472D01*
X127861713Y-101178673D01*
X127846225Y-101130749D01*
X127839557Y-101042091D01*
X127840930Y-100934899D01*
X127849566Y-100831369D01*
X127864684Y-100753699D01*
X127877544Y-100727670D01*
X127932831Y-100704812D01*
X128029084Y-100691857D01*
X128145587Y-100688542D01*
X128261624Y-100694605D01*
G36*
X125519138Y-98369942D02*
X125811501Y-98372021D01*
X126131413Y-98375068D01*
X126394177Y-98378827D01*
X126606305Y-98384432D01*
X126774309Y-98393016D01*
X126904697Y-98405713D01*
X127003983Y-98423657D01*
X127078675Y-98447982D01*
X127135286Y-98479821D01*
X127180326Y-98520309D01*
X127220306Y-98570578D01*
X127256349Y-98623620D01*
X127345990Y-98759018D01*
X127355364Y-99978883D01*
X127364738Y-101198747D01*
X126725314Y-101198747D01*
X126725314Y-100275690D01*
X124656391Y-100275690D01*
X124656391Y-101198747D01*
X124019800Y-101198747D01*
X124019800Y-100004116D01*
X124020005Y-99676966D01*
X124020940Y-99462455D01*
X124656391Y-99462455D01*
X124656391Y-99830076D01*
X126725314Y-99830076D01*
X126725136Y-99503822D01*
X126721072Y-99295689D01*
X126707520Y-99142038D01*
X126682046Y-99034083D01*
X126642218Y-98963039D01*
X126585605Y-98920121D01*
X126560712Y-98909886D01*
X126501844Y-98900439D01*
X126390444Y-98892307D01*
X126237630Y-98885586D01*
X126054516Y-98880369D01*
X125852220Y-98876751D01*
X125641857Y-98874826D01*
X125434544Y-98874689D01*
X125241397Y-98876434D01*
X125073531Y-98880155D01*
X124942064Y-98885947D01*
X124858111Y-98893905D01*
X124849964Y-98895358D01*
X124776070Y-98921185D01*
X124722874Y-98970425D01*
X124687378Y-99051861D01*
X124666583Y-99174277D01*
X124657490Y-99346457D01*
X124656391Y-99462455D01*
X124020940Y-99462455D01*
X124021182Y-99407156D01*
X124024174Y-99188363D01*
X124029823Y-99014268D01*
X124038974Y-98878550D01*
X124052468Y-98774889D01*
X124071149Y-98696964D01*
X124095859Y-98638455D01*
X124127442Y-98593041D01*
X124166740Y-98554403D01*
X124214597Y-98516219D01*
X124218647Y-98513126D01*
X124274033Y-98475650D01*
X124336875Y-98444879D01*
X124413527Y-98420250D01*
X124510339Y-98401199D01*
X124633664Y-98387166D01*
X124789855Y-98377586D01*
X124985263Y-98371897D01*
X125226240Y-98369537D01*
X125519138Y-98369942D01*
X125519138Y-98369942D01*
G37*
X125519138Y-98369942D02*
X125811501Y-98372021D01*
X126131413Y-98375068D01*
X126394177Y-98378827D01*
X126606305Y-98384432D01*
X126774309Y-98393016D01*
X126904697Y-98405713D01*
X127003983Y-98423657D01*
X127078675Y-98447982D01*
X127135286Y-98479821D01*
X127180326Y-98520309D01*
X127220306Y-98570578D01*
X127256349Y-98623620D01*
X127345990Y-98759018D01*
X127355364Y-99978883D01*
X127364738Y-101198747D01*
X126725314Y-101198747D01*
X126725314Y-100275690D01*
X124656391Y-100275690D01*
X124656391Y-101198747D01*
X124019800Y-101198747D01*
X124019800Y-100004116D01*
X124020005Y-99676966D01*
X124020940Y-99462455D01*
X124656391Y-99462455D01*
X124656391Y-99830076D01*
X126725314Y-99830076D01*
X126725136Y-99503822D01*
X126721072Y-99295689D01*
X126707520Y-99142038D01*
X126682046Y-99034083D01*
X126642218Y-98963039D01*
X126585605Y-98920121D01*
X126560712Y-98909886D01*
X126501844Y-98900439D01*
X126390444Y-98892307D01*
X126237630Y-98885586D01*
X126054516Y-98880369D01*
X125852220Y-98876751D01*
X125641857Y-98874826D01*
X125434544Y-98874689D01*
X125241397Y-98876434D01*
X125073531Y-98880155D01*
X124942064Y-98885947D01*
X124858111Y-98893905D01*
X124849964Y-98895358D01*
X124776070Y-98921185D01*
X124722874Y-98970425D01*
X124687378Y-99051861D01*
X124666583Y-99174277D01*
X124657490Y-99346457D01*
X124656391Y-99462455D01*
X124020940Y-99462455D01*
X124021182Y-99407156D01*
X124024174Y-99188363D01*
X124029823Y-99014268D01*
X124038974Y-98878550D01*
X124052468Y-98774889D01*
X124071149Y-98696964D01*
X124095859Y-98638455D01*
X124127442Y-98593041D01*
X124166740Y-98554403D01*
X124214597Y-98516219D01*
X124218647Y-98513126D01*
X124274033Y-98475650D01*
X124336875Y-98444879D01*
X124413527Y-98420250D01*
X124510339Y-98401199D01*
X124633664Y-98387166D01*
X124789855Y-98377586D01*
X124985263Y-98371897D01*
X125226240Y-98369537D01*
X125519138Y-98369942D01*
G36*
X123353929Y-100690966D02*
X123451321Y-100704624D01*
X123504161Y-100727670D01*
X123524979Y-100779236D01*
X123538716Y-100873667D01*
X123542356Y-100962986D01*
X123540127Y-101067703D01*
X123525897Y-101135660D01*
X123488350Y-101174802D01*
X123416173Y-101193077D01*
X123298050Y-101198431D01*
X123206662Y-101198747D01*
X123081523Y-101196330D01*
X123004813Y-101186760D01*
X122961406Y-101166564D01*
X122938714Y-101137181D01*
X122912856Y-101049978D01*
X122906109Y-100939450D01*
X122917354Y-100831621D01*
X122945475Y-100752516D01*
X122955783Y-100739492D01*
X123014607Y-100712792D01*
X123114572Y-100695503D01*
X123234680Y-100688076D01*
X123353929Y-100690966D01*
X123353929Y-100690966D01*
G37*
X123353929Y-100690966D02*
X123451321Y-100704624D01*
X123504161Y-100727670D01*
X123524979Y-100779236D01*
X123538716Y-100873667D01*
X123542356Y-100962986D01*
X123540127Y-101067703D01*
X123525897Y-101135660D01*
X123488350Y-101174802D01*
X123416173Y-101193077D01*
X123298050Y-101198431D01*
X123206662Y-101198747D01*
X123081523Y-101196330D01*
X123004813Y-101186760D01*
X122961406Y-101166564D01*
X122938714Y-101137181D01*
X122912856Y-101049978D01*
X122906109Y-100939450D01*
X122917354Y-100831621D01*
X122945475Y-100752516D01*
X122955783Y-100739492D01*
X123014607Y-100712792D01*
X123114572Y-100695503D01*
X123234680Y-100688076D01*
X123353929Y-100690966D01*
G36*
X120606078Y-98372129D02*
X120955421Y-98374725D01*
X121247087Y-98377423D01*
X121487058Y-98380865D01*
X121681313Y-98385690D01*
X121835833Y-98392541D01*
X121956599Y-98402058D01*
X122049592Y-98414882D01*
X122120791Y-98431654D01*
X122176178Y-98453016D01*
X122221732Y-98479608D01*
X122263435Y-98512072D01*
X122307267Y-98551048D01*
X122311567Y-98554940D01*
X122380762Y-98627617D01*
X122430247Y-98708735D01*
X122463049Y-98810158D01*
X122482195Y-98943747D01*
X122490711Y-99121364D01*
X122491980Y-99262053D01*
X122488889Y-99468045D01*
X122477735Y-99623367D01*
X122455698Y-99740788D01*
X122419957Y-99833081D01*
X122367691Y-99913016D01*
X122341200Y-99944763D01*
X122231881Y-100035955D01*
X122079262Y-100104395D01*
X121992362Y-100129781D01*
X121858422Y-100164286D01*
X122018869Y-100371178D01*
X122109627Y-100487505D01*
X122199495Y-100601534D01*
X122270460Y-100690423D01*
X122276201Y-100697515D01*
X122347319Y-100787297D01*
X122435491Y-100901473D01*
X122510019Y-100999896D01*
X122646954Y-101182832D01*
X122295514Y-101191864D01*
X122117177Y-101192958D01*
X121987667Y-101186201D01*
X121913182Y-101172004D01*
X121901675Y-101165708D01*
X121869919Y-101130144D01*
X121806783Y-101052109D01*
X121718963Y-100940146D01*
X121613158Y-100802801D01*
X121496064Y-100648616D01*
X121489149Y-100639445D01*
X121119023Y-100148371D01*
X119850126Y-100148371D01*
X119850126Y-101198747D01*
X119181705Y-101198747D01*
X119181705Y-98875188D01*
X119850126Y-98875188D01*
X119850126Y-99702757D01*
X121699134Y-99702757D01*
X121777262Y-99624630D01*
X121816737Y-99578626D01*
X121840186Y-99526665D01*
X121851669Y-99451300D01*
X121855249Y-99335084D01*
X121855389Y-99288973D01*
X121853408Y-99156870D01*
X121844758Y-99070926D01*
X121825379Y-99013692D01*
X121791208Y-98967723D01*
X121777262Y-98953315D01*
X121699134Y-98875188D01*
X119850126Y-98875188D01*
X119181705Y-98875188D01*
X119181705Y-98361792D01*
X120606078Y-98372129D01*
X120606078Y-98372129D01*
G37*
X120606078Y-98372129D02*
X120955421Y-98374725D01*
X121247087Y-98377423D01*
X121487058Y-98380865D01*
X121681313Y-98385690D01*
X121835833Y-98392541D01*
X121956599Y-98402058D01*
X122049592Y-98414882D01*
X122120791Y-98431654D01*
X122176178Y-98453016D01*
X122221732Y-98479608D01*
X122263435Y-98512072D01*
X122307267Y-98551048D01*
X122311567Y-98554940D01*
X122380762Y-98627617D01*
X122430247Y-98708735D01*
X122463049Y-98810158D01*
X122482195Y-98943747D01*
X122490711Y-99121364D01*
X122491980Y-99262053D01*
X122488889Y-99468045D01*
X122477735Y-99623367D01*
X122455698Y-99740788D01*
X122419957Y-99833081D01*
X122367691Y-99913016D01*
X122341200Y-99944763D01*
X122231881Y-100035955D01*
X122079262Y-100104395D01*
X121992362Y-100129781D01*
X121858422Y-100164286D01*
X122018869Y-100371178D01*
X122109627Y-100487505D01*
X122199495Y-100601534D01*
X122270460Y-100690423D01*
X122276201Y-100697515D01*
X122347319Y-100787297D01*
X122435491Y-100901473D01*
X122510019Y-100999896D01*
X122646954Y-101182832D01*
X122295514Y-101191864D01*
X122117177Y-101192958D01*
X121987667Y-101186201D01*
X121913182Y-101172004D01*
X121901675Y-101165708D01*
X121869919Y-101130144D01*
X121806783Y-101052109D01*
X121718963Y-100940146D01*
X121613158Y-100802801D01*
X121496064Y-100648616D01*
X121489149Y-100639445D01*
X121119023Y-100148371D01*
X119850126Y-100148371D01*
X119850126Y-101198747D01*
X119181705Y-101198747D01*
X119181705Y-98875188D01*
X119850126Y-98875188D01*
X119850126Y-99702757D01*
X121699134Y-99702757D01*
X121777262Y-99624630D01*
X121816737Y-99578626D01*
X121840186Y-99526665D01*
X121851669Y-99451300D01*
X121855249Y-99335084D01*
X121855389Y-99288973D01*
X121853408Y-99156870D01*
X121844758Y-99070926D01*
X121825379Y-99013692D01*
X121791208Y-98967723D01*
X121777262Y-98953315D01*
X121699134Y-98875188D01*
X119850126Y-98875188D01*
X119181705Y-98875188D01*
X119181705Y-98361792D01*
X120606078Y-98372129D01*
G04 #@! TO.C,REF\002A\002A*
D13*
X136666666Y-106452380D02*
X136333333Y-105976190D01*
X136095238Y-106452380D02*
X136095238Y-105452380D01*
X136476190Y-105452380D01*
X136571428Y-105500000D01*
X136619047Y-105547619D01*
X136666666Y-105642857D01*
X136666666Y-105785714D01*
X136619047Y-105880952D01*
X136571428Y-105928571D01*
X136476190Y-105976190D01*
X136095238Y-105976190D01*
X137095238Y-105928571D02*
X137428571Y-105928571D01*
X137571428Y-106452380D02*
X137095238Y-106452380D01*
X137095238Y-105452380D01*
X137571428Y-105452380D01*
X138333333Y-105928571D02*
X138000000Y-105928571D01*
X138000000Y-106452380D02*
X138000000Y-105452380D01*
X138476190Y-105452380D01*
X139000000Y-105452380D02*
X139000000Y-105690476D01*
X138761904Y-105595238D02*
X139000000Y-105690476D01*
X139238095Y-105595238D01*
X138857142Y-105880952D02*
X139000000Y-105690476D01*
X139142857Y-105880952D01*
X139761904Y-105452380D02*
X139761904Y-105690476D01*
X139523809Y-105595238D02*
X139761904Y-105690476D01*
X140000000Y-105595238D01*
X139619047Y-105880952D02*
X139761904Y-105690476D01*
X139904761Y-105880952D01*
G04 #@! TO.C,C1*
X98083333Y-84107142D02*
X98035714Y-84154761D01*
X97892857Y-84202380D01*
X97797619Y-84202380D01*
X97654761Y-84154761D01*
X97559523Y-84059523D01*
X97511904Y-83964285D01*
X97464285Y-83773809D01*
X97464285Y-83630952D01*
X97511904Y-83440476D01*
X97559523Y-83345238D01*
X97654761Y-83250000D01*
X97797619Y-83202380D01*
X97892857Y-83202380D01*
X98035714Y-83250000D01*
X98083333Y-83297619D01*
X99035714Y-84202380D02*
X98464285Y-84202380D01*
X98750000Y-84202380D02*
X98750000Y-83202380D01*
X98654761Y-83345238D01*
X98559523Y-83440476D01*
X98464285Y-83488095D01*
G04 #@! TO.C,C2*
X121107142Y-93416666D02*
X121154761Y-93464285D01*
X121202380Y-93607142D01*
X121202380Y-93702380D01*
X121154761Y-93845238D01*
X121059523Y-93940476D01*
X120964285Y-93988095D01*
X120773809Y-94035714D01*
X120630952Y-94035714D01*
X120440476Y-93988095D01*
X120345238Y-93940476D01*
X120250000Y-93845238D01*
X120202380Y-93702380D01*
X120202380Y-93607142D01*
X120250000Y-93464285D01*
X120297619Y-93416666D01*
X120297619Y-93035714D02*
X120250000Y-92988095D01*
X120202380Y-92892857D01*
X120202380Y-92654761D01*
X120250000Y-92559523D01*
X120297619Y-92511904D01*
X120392857Y-92464285D01*
X120488095Y-92464285D01*
X120630952Y-92511904D01*
X121202380Y-93083333D01*
X121202380Y-92464285D01*
G04 #@! TO.C,C3*
X98083333Y-82857142D02*
X98035714Y-82904761D01*
X97892857Y-82952380D01*
X97797619Y-82952380D01*
X97654761Y-82904761D01*
X97559523Y-82809523D01*
X97511904Y-82714285D01*
X97464285Y-82523809D01*
X97464285Y-82380952D01*
X97511904Y-82190476D01*
X97559523Y-82095238D01*
X97654761Y-82000000D01*
X97797619Y-81952380D01*
X97892857Y-81952380D01*
X98035714Y-82000000D01*
X98083333Y-82047619D01*
X98416666Y-81952380D02*
X99035714Y-81952380D01*
X98702380Y-82333333D01*
X98845238Y-82333333D01*
X98940476Y-82380952D01*
X98988095Y-82428571D01*
X99035714Y-82523809D01*
X99035714Y-82761904D01*
X98988095Y-82857142D01*
X98940476Y-82904761D01*
X98845238Y-82952380D01*
X98559523Y-82952380D01*
X98464285Y-82904761D01*
X98416666Y-82857142D01*
G04 #@! TO.C,C4*
X129787142Y-95166666D02*
X129834761Y-95214285D01*
X129882380Y-95357142D01*
X129882380Y-95452380D01*
X129834761Y-95595238D01*
X129739523Y-95690476D01*
X129644285Y-95738095D01*
X129453809Y-95785714D01*
X129310952Y-95785714D01*
X129120476Y-95738095D01*
X129025238Y-95690476D01*
X128930000Y-95595238D01*
X128882380Y-95452380D01*
X128882380Y-95357142D01*
X128930000Y-95214285D01*
X128977619Y-95166666D01*
X129215714Y-94309523D02*
X129882380Y-94309523D01*
X128834761Y-94547619D02*
X129549047Y-94785714D01*
X129549047Y-94166666D01*
G04 #@! TO.C,C5*
X135583333Y-93857142D02*
X135535714Y-93904761D01*
X135392857Y-93952380D01*
X135297619Y-93952380D01*
X135154761Y-93904761D01*
X135059523Y-93809523D01*
X135011904Y-93714285D01*
X134964285Y-93523809D01*
X134964285Y-93380952D01*
X135011904Y-93190476D01*
X135059523Y-93095238D01*
X135154761Y-93000000D01*
X135297619Y-92952380D01*
X135392857Y-92952380D01*
X135535714Y-93000000D01*
X135583333Y-93047619D01*
X136488095Y-92952380D02*
X136011904Y-92952380D01*
X135964285Y-93428571D01*
X136011904Y-93380952D01*
X136107142Y-93333333D01*
X136345238Y-93333333D01*
X136440476Y-93380952D01*
X136488095Y-93428571D01*
X136535714Y-93523809D01*
X136535714Y-93761904D01*
X136488095Y-93857142D01*
X136440476Y-93904761D01*
X136345238Y-93952380D01*
X136107142Y-93952380D01*
X136011904Y-93904761D01*
X135964285Y-93857142D01*
G04 #@! TO.C,C6*
X135583333Y-92357142D02*
X135535714Y-92404761D01*
X135392857Y-92452380D01*
X135297619Y-92452380D01*
X135154761Y-92404761D01*
X135059523Y-92309523D01*
X135011904Y-92214285D01*
X134964285Y-92023809D01*
X134964285Y-91880952D01*
X135011904Y-91690476D01*
X135059523Y-91595238D01*
X135154761Y-91500000D01*
X135297619Y-91452380D01*
X135392857Y-91452380D01*
X135535714Y-91500000D01*
X135583333Y-91547619D01*
X136440476Y-91452380D02*
X136250000Y-91452380D01*
X136154761Y-91500000D01*
X136107142Y-91547619D01*
X136011904Y-91690476D01*
X135964285Y-91880952D01*
X135964285Y-92261904D01*
X136011904Y-92357142D01*
X136059523Y-92404761D01*
X136154761Y-92452380D01*
X136345238Y-92452380D01*
X136440476Y-92404761D01*
X136488095Y-92357142D01*
X136535714Y-92261904D01*
X136535714Y-92023809D01*
X136488095Y-91928571D01*
X136440476Y-91880952D01*
X136345238Y-91833333D01*
X136154761Y-91833333D01*
X136059523Y-91880952D01*
X136011904Y-91928571D01*
X135964285Y-92023809D01*
G04 #@! TO.C,C7*
X135333333Y-83857142D02*
X135285714Y-83904761D01*
X135142857Y-83952380D01*
X135047619Y-83952380D01*
X134904761Y-83904761D01*
X134809523Y-83809523D01*
X134761904Y-83714285D01*
X134714285Y-83523809D01*
X134714285Y-83380952D01*
X134761904Y-83190476D01*
X134809523Y-83095238D01*
X134904761Y-83000000D01*
X135047619Y-82952380D01*
X135142857Y-82952380D01*
X135285714Y-83000000D01*
X135333333Y-83047619D01*
X135666666Y-82952380D02*
X136333333Y-82952380D01*
X135904761Y-83952380D01*
G04 #@! TO.C,C8*
X135083333Y-81107142D02*
X135035714Y-81154761D01*
X134892857Y-81202380D01*
X134797619Y-81202380D01*
X134654761Y-81154761D01*
X134559523Y-81059523D01*
X134511904Y-80964285D01*
X134464285Y-80773809D01*
X134464285Y-80630952D01*
X134511904Y-80440476D01*
X134559523Y-80345238D01*
X134654761Y-80250000D01*
X134797619Y-80202380D01*
X134892857Y-80202380D01*
X135035714Y-80250000D01*
X135083333Y-80297619D01*
X135654761Y-80630952D02*
X135559523Y-80583333D01*
X135511904Y-80535714D01*
X135464285Y-80440476D01*
X135464285Y-80392857D01*
X135511904Y-80297619D01*
X135559523Y-80250000D01*
X135654761Y-80202380D01*
X135845238Y-80202380D01*
X135940476Y-80250000D01*
X135988095Y-80297619D01*
X136035714Y-80392857D01*
X136035714Y-80440476D01*
X135988095Y-80535714D01*
X135940476Y-80583333D01*
X135845238Y-80630952D01*
X135654761Y-80630952D01*
X135559523Y-80678571D01*
X135511904Y-80726190D01*
X135464285Y-80821428D01*
X135464285Y-81011904D01*
X135511904Y-81107142D01*
X135559523Y-81154761D01*
X135654761Y-81202380D01*
X135845238Y-81202380D01*
X135940476Y-81154761D01*
X135988095Y-81107142D01*
X136035714Y-81011904D01*
X136035714Y-80821428D01*
X135988095Y-80726190D01*
X135940476Y-80678571D01*
X135845238Y-80630952D01*
G04 #@! TO.C,D1*
X122161904Y-90452380D02*
X122161904Y-89452380D01*
X122400000Y-89452380D01*
X122542857Y-89500000D01*
X122638095Y-89595238D01*
X122685714Y-89690476D01*
X122733333Y-89880952D01*
X122733333Y-90023809D01*
X122685714Y-90214285D01*
X122638095Y-90309523D01*
X122542857Y-90404761D01*
X122400000Y-90452380D01*
X122161904Y-90452380D01*
X123685714Y-90452380D02*
X123114285Y-90452380D01*
X123400000Y-90452380D02*
X123400000Y-89452380D01*
X123304761Y-89595238D01*
X123209523Y-89690476D01*
X123114285Y-89738095D01*
G04 #@! TO.C,R1*
X99702380Y-96379166D02*
X99226190Y-96712500D01*
X99702380Y-96950595D02*
X98702380Y-96950595D01*
X98702380Y-96569642D01*
X98750000Y-96474404D01*
X98797619Y-96426785D01*
X98892857Y-96379166D01*
X99035714Y-96379166D01*
X99130952Y-96426785D01*
X99178571Y-96474404D01*
X99226190Y-96569642D01*
X99226190Y-96950595D01*
X99702380Y-95426785D02*
X99702380Y-95998214D01*
X99702380Y-95712500D02*
X98702380Y-95712500D01*
X98845238Y-95807738D01*
X98940476Y-95902976D01*
X98988095Y-95998214D01*
G04 #@! TO.C,R2*
X97952380Y-96379166D02*
X97476190Y-96712500D01*
X97952380Y-96950595D02*
X96952380Y-96950595D01*
X96952380Y-96569642D01*
X97000000Y-96474404D01*
X97047619Y-96426785D01*
X97142857Y-96379166D01*
X97285714Y-96379166D01*
X97380952Y-96426785D01*
X97428571Y-96474404D01*
X97476190Y-96569642D01*
X97476190Y-96950595D01*
X97047619Y-95998214D02*
X97000000Y-95950595D01*
X96952380Y-95855357D01*
X96952380Y-95617261D01*
X97000000Y-95522023D01*
X97047619Y-95474404D01*
X97142857Y-95426785D01*
X97238095Y-95426785D01*
X97380952Y-95474404D01*
X97952380Y-96045833D01*
X97952380Y-95426785D01*
G04 #@! TO.C,R3*
X129522380Y-82879166D02*
X129046190Y-83212500D01*
X129522380Y-83450595D02*
X128522380Y-83450595D01*
X128522380Y-83069642D01*
X128570000Y-82974404D01*
X128617619Y-82926785D01*
X128712857Y-82879166D01*
X128855714Y-82879166D01*
X128950952Y-82926785D01*
X128998571Y-82974404D01*
X129046190Y-83069642D01*
X129046190Y-83450595D01*
X128522380Y-82545833D02*
X128522380Y-81926785D01*
X128903333Y-82260119D01*
X128903333Y-82117261D01*
X128950952Y-82022023D01*
X128998571Y-81974404D01*
X129093809Y-81926785D01*
X129331904Y-81926785D01*
X129427142Y-81974404D01*
X129474761Y-82022023D01*
X129522380Y-82117261D01*
X129522380Y-82402976D01*
X129474761Y-82498214D01*
X129427142Y-82545833D01*
G04 #@! TO.C,RN1*
X141309523Y-85852380D02*
X140976190Y-85376190D01*
X140738095Y-85852380D02*
X140738095Y-84852380D01*
X141119047Y-84852380D01*
X141214285Y-84900000D01*
X141261904Y-84947619D01*
X141309523Y-85042857D01*
X141309523Y-85185714D01*
X141261904Y-85280952D01*
X141214285Y-85328571D01*
X141119047Y-85376190D01*
X140738095Y-85376190D01*
X141738095Y-85852380D02*
X141738095Y-84852380D01*
X142309523Y-85852380D01*
X142309523Y-84852380D01*
X143309523Y-85852380D02*
X142738095Y-85852380D01*
X143023809Y-85852380D02*
X143023809Y-84852380D01*
X142928571Y-84995238D01*
X142833333Y-85090476D01*
X142738095Y-85138095D01*
G04 #@! TO.C,U1*
X124238095Y-96952380D02*
X124238095Y-97761904D01*
X124285714Y-97857142D01*
X124333333Y-97904761D01*
X124428571Y-97952380D01*
X124619047Y-97952380D01*
X124714285Y-97904761D01*
X124761904Y-97857142D01*
X124809523Y-97761904D01*
X124809523Y-96952380D01*
X125809523Y-97952380D02*
X125238095Y-97952380D01*
X125523809Y-97952380D02*
X125523809Y-96952380D01*
X125428571Y-97095238D01*
X125333333Y-97190476D01*
X125238095Y-97238095D01*
G04 #@! TO.C,U2*
X98238095Y-92902380D02*
X98238095Y-93711904D01*
X98285714Y-93807142D01*
X98333333Y-93854761D01*
X98428571Y-93902380D01*
X98619047Y-93902380D01*
X98714285Y-93854761D01*
X98761904Y-93807142D01*
X98809523Y-93711904D01*
X98809523Y-92902380D01*
X99238095Y-92997619D02*
X99285714Y-92950000D01*
X99380952Y-92902380D01*
X99619047Y-92902380D01*
X99714285Y-92950000D01*
X99761904Y-92997619D01*
X99809523Y-93092857D01*
X99809523Y-93188095D01*
X99761904Y-93330952D01*
X99190476Y-93902380D01*
X99809523Y-93902380D01*
G04 #@! TO.C,U3*
X121152380Y-82361904D02*
X121961904Y-82361904D01*
X122057142Y-82314285D01*
X122104761Y-82266666D01*
X122152380Y-82171428D01*
X122152380Y-81980952D01*
X122104761Y-81885714D01*
X122057142Y-81838095D01*
X121961904Y-81790476D01*
X121152380Y-81790476D01*
X121152380Y-81409523D02*
X121152380Y-80790476D01*
X121533333Y-81123809D01*
X121533333Y-80980952D01*
X121580952Y-80885714D01*
X121628571Y-80838095D01*
X121723809Y-80790476D01*
X121961904Y-80790476D01*
X122057142Y-80838095D01*
X122104761Y-80885714D01*
X122152380Y-80980952D01*
X122152380Y-81266666D01*
X122104761Y-81361904D01*
X122057142Y-81409523D01*
G04 #@! TO.C,U4*
X129952380Y-88761904D02*
X130761904Y-88761904D01*
X130857142Y-88714285D01*
X130904761Y-88666666D01*
X130952380Y-88571428D01*
X130952380Y-88380952D01*
X130904761Y-88285714D01*
X130857142Y-88238095D01*
X130761904Y-88190476D01*
X129952380Y-88190476D01*
X130285714Y-87285714D02*
X130952380Y-87285714D01*
X129904761Y-87523809D02*
X130619047Y-87761904D01*
X130619047Y-87142857D01*
G04 #@! TO.C,REF\002A\002A*
X106952380Y-105833333D02*
X106476190Y-106166666D01*
X106952380Y-106404761D02*
X105952380Y-106404761D01*
X105952380Y-106023809D01*
X106000000Y-105928571D01*
X106047619Y-105880952D01*
X106142857Y-105833333D01*
X106285714Y-105833333D01*
X106380952Y-105880952D01*
X106428571Y-105928571D01*
X106476190Y-106023809D01*
X106476190Y-106404761D01*
X106428571Y-105404761D02*
X106428571Y-105071428D01*
X106952380Y-104928571D02*
X106952380Y-105404761D01*
X105952380Y-105404761D01*
X105952380Y-104928571D01*
X106428571Y-104166666D02*
X106428571Y-104500000D01*
X106952380Y-104500000D02*
X105952380Y-104500000D01*
X105952380Y-104023809D01*
X105952380Y-103500000D02*
X106190476Y-103500000D01*
X106095238Y-103738095D02*
X106190476Y-103500000D01*
X106095238Y-103261904D01*
X106380952Y-103642857D02*
X106190476Y-103500000D01*
X106380952Y-103357142D01*
X105952380Y-102738095D02*
X106190476Y-102738095D01*
X106095238Y-102976190D02*
X106190476Y-102738095D01*
X106095238Y-102500000D01*
X106380952Y-102880952D02*
X106190476Y-102738095D01*
X106380952Y-102595238D01*
X97666666Y-73452380D02*
X97333333Y-72976190D01*
X97095238Y-73452380D02*
X97095238Y-72452380D01*
X97476190Y-72452380D01*
X97571428Y-72500000D01*
X97619047Y-72547619D01*
X97666666Y-72642857D01*
X97666666Y-72785714D01*
X97619047Y-72880952D01*
X97571428Y-72928571D01*
X97476190Y-72976190D01*
X97095238Y-72976190D01*
X98095238Y-72928571D02*
X98428571Y-72928571D01*
X98571428Y-73452380D02*
X98095238Y-73452380D01*
X98095238Y-72452380D01*
X98571428Y-72452380D01*
X99333333Y-72928571D02*
X99000000Y-72928571D01*
X99000000Y-73452380D02*
X99000000Y-72452380D01*
X99476190Y-72452380D01*
X100000000Y-72452380D02*
X100000000Y-72690476D01*
X99761904Y-72595238D02*
X100000000Y-72690476D01*
X100238095Y-72595238D01*
X99857142Y-72880952D02*
X100000000Y-72690476D01*
X100142857Y-72880952D01*
X100761904Y-72452380D02*
X100761904Y-72690476D01*
X100523809Y-72595238D02*
X100761904Y-72690476D01*
X101000000Y-72595238D01*
X100619047Y-72880952D02*
X100761904Y-72690476D01*
X100904761Y-72880952D01*
G04 #@! TD*
M02*
