G04 #@! TF.GenerationSoftware,KiCad,Pcbnew,(5.0.0)*
G04 #@! TF.CreationDate,2019-02-27T16:54:38+00:00*
G04 #@! TF.ProjectId,rain,7261696E2E6B696361645F7063620000,rev?*
G04 #@! TF.SameCoordinates,Original*
G04 #@! TF.FileFunction,Soldermask,Top*
G04 #@! TF.FilePolarity,Negative*
%FSLAX46Y46*%
G04 Gerber Fmt 4.6, Leading zero omitted, Abs format (unit mm)*
G04 Created by KiCad (PCBNEW (5.0.0)) date 02/27/19 16:54:38*
%MOMM*%
%LPD*%
G01*
G04 APERTURE LIST*
%ADD10C,3.100000*%
%ADD11C,2.690000*%
%ADD12C,0.100000*%
%ADD13C,1.275000*%
%ADD14R,0.900000X0.900000*%
%ADD15R,2.100000X2.100000*%
%ADD16O,2.100000X2.100000*%
%ADD17R,1.300000X0.800000*%
%ADD18R,1.300000X1.200000*%
%ADD19R,0.800000X0.950000*%
%ADD20R,1.400000X2.400000*%
%ADD21R,0.302000X0.352000*%
%ADD22R,0.302000X0.702000*%
%ADD23R,0.352000X0.302000*%
%ADD24R,0.702000X0.302000*%
%ADD25R,0.152000X0.152000*%
%ADD26C,0.214000*%
%ADD27R,0.100000X0.100000*%
G04 APERTURE END LIST*
D10*
G04 #@! TO.C,REF\002A\002A*
X138000000Y-99000000D03*
G04 #@! TD*
D11*
G04 #@! TO.C,BT1*
X125600000Y-88200000D03*
X102740000Y-88200000D03*
G04 #@! TD*
D12*
G04 #@! TO.C,C1*
G36*
X97774993Y-86326535D02*
X97805935Y-86331125D01*
X97836278Y-86338725D01*
X97865730Y-86349263D01*
X97894008Y-86362638D01*
X97920838Y-86378719D01*
X97945963Y-86397353D01*
X97969140Y-86418360D01*
X97990147Y-86441537D01*
X98008781Y-86466662D01*
X98024862Y-86493492D01*
X98038237Y-86521770D01*
X98048775Y-86551222D01*
X98056375Y-86581565D01*
X98060965Y-86612507D01*
X98062500Y-86643750D01*
X98062500Y-87356250D01*
X98060965Y-87387493D01*
X98056375Y-87418435D01*
X98048775Y-87448778D01*
X98038237Y-87478230D01*
X98024862Y-87506508D01*
X98008781Y-87533338D01*
X97990147Y-87558463D01*
X97969140Y-87581640D01*
X97945963Y-87602647D01*
X97920838Y-87621281D01*
X97894008Y-87637362D01*
X97865730Y-87650737D01*
X97836278Y-87661275D01*
X97805935Y-87668875D01*
X97774993Y-87673465D01*
X97743750Y-87675000D01*
X97106250Y-87675000D01*
X97075007Y-87673465D01*
X97044065Y-87668875D01*
X97013722Y-87661275D01*
X96984270Y-87650737D01*
X96955992Y-87637362D01*
X96929162Y-87621281D01*
X96904037Y-87602647D01*
X96880860Y-87581640D01*
X96859853Y-87558463D01*
X96841219Y-87533338D01*
X96825138Y-87506508D01*
X96811763Y-87478230D01*
X96801225Y-87448778D01*
X96793625Y-87418435D01*
X96789035Y-87387493D01*
X96787500Y-87356250D01*
X96787500Y-86643750D01*
X96789035Y-86612507D01*
X96793625Y-86581565D01*
X96801225Y-86551222D01*
X96811763Y-86521770D01*
X96825138Y-86493492D01*
X96841219Y-86466662D01*
X96859853Y-86441537D01*
X96880860Y-86418360D01*
X96904037Y-86397353D01*
X96929162Y-86378719D01*
X96955992Y-86362638D01*
X96984270Y-86349263D01*
X97013722Y-86338725D01*
X97044065Y-86331125D01*
X97075007Y-86326535D01*
X97106250Y-86325000D01*
X97743750Y-86325000D01*
X97774993Y-86326535D01*
X97774993Y-86326535D01*
G37*
D13*
X97425000Y-87000000D03*
D12*
G36*
X99349993Y-86326535D02*
X99380935Y-86331125D01*
X99411278Y-86338725D01*
X99440730Y-86349263D01*
X99469008Y-86362638D01*
X99495838Y-86378719D01*
X99520963Y-86397353D01*
X99544140Y-86418360D01*
X99565147Y-86441537D01*
X99583781Y-86466662D01*
X99599862Y-86493492D01*
X99613237Y-86521770D01*
X99623775Y-86551222D01*
X99631375Y-86581565D01*
X99635965Y-86612507D01*
X99637500Y-86643750D01*
X99637500Y-87356250D01*
X99635965Y-87387493D01*
X99631375Y-87418435D01*
X99623775Y-87448778D01*
X99613237Y-87478230D01*
X99599862Y-87506508D01*
X99583781Y-87533338D01*
X99565147Y-87558463D01*
X99544140Y-87581640D01*
X99520963Y-87602647D01*
X99495838Y-87621281D01*
X99469008Y-87637362D01*
X99440730Y-87650737D01*
X99411278Y-87661275D01*
X99380935Y-87668875D01*
X99349993Y-87673465D01*
X99318750Y-87675000D01*
X98681250Y-87675000D01*
X98650007Y-87673465D01*
X98619065Y-87668875D01*
X98588722Y-87661275D01*
X98559270Y-87650737D01*
X98530992Y-87637362D01*
X98504162Y-87621281D01*
X98479037Y-87602647D01*
X98455860Y-87581640D01*
X98434853Y-87558463D01*
X98416219Y-87533338D01*
X98400138Y-87506508D01*
X98386763Y-87478230D01*
X98376225Y-87448778D01*
X98368625Y-87418435D01*
X98364035Y-87387493D01*
X98362500Y-87356250D01*
X98362500Y-86643750D01*
X98364035Y-86612507D01*
X98368625Y-86581565D01*
X98376225Y-86551222D01*
X98386763Y-86521770D01*
X98400138Y-86493492D01*
X98416219Y-86466662D01*
X98434853Y-86441537D01*
X98455860Y-86418360D01*
X98479037Y-86397353D01*
X98504162Y-86378719D01*
X98530992Y-86362638D01*
X98559270Y-86349263D01*
X98588722Y-86338725D01*
X98619065Y-86331125D01*
X98650007Y-86326535D01*
X98681250Y-86325000D01*
X99318750Y-86325000D01*
X99349993Y-86326535D01*
X99349993Y-86326535D01*
G37*
D13*
X99000000Y-87000000D03*
G04 #@! TD*
D12*
G04 #@! TO.C,C2*
G36*
X122387493Y-95364035D02*
X122418435Y-95368625D01*
X122448778Y-95376225D01*
X122478230Y-95386763D01*
X122506508Y-95400138D01*
X122533338Y-95416219D01*
X122558463Y-95434853D01*
X122581640Y-95455860D01*
X122602647Y-95479037D01*
X122621281Y-95504162D01*
X122637362Y-95530992D01*
X122650737Y-95559270D01*
X122661275Y-95588722D01*
X122668875Y-95619065D01*
X122673465Y-95650007D01*
X122675000Y-95681250D01*
X122675000Y-96318750D01*
X122673465Y-96349993D01*
X122668875Y-96380935D01*
X122661275Y-96411278D01*
X122650737Y-96440730D01*
X122637362Y-96469008D01*
X122621281Y-96495838D01*
X122602647Y-96520963D01*
X122581640Y-96544140D01*
X122558463Y-96565147D01*
X122533338Y-96583781D01*
X122506508Y-96599862D01*
X122478230Y-96613237D01*
X122448778Y-96623775D01*
X122418435Y-96631375D01*
X122387493Y-96635965D01*
X122356250Y-96637500D01*
X121643750Y-96637500D01*
X121612507Y-96635965D01*
X121581565Y-96631375D01*
X121551222Y-96623775D01*
X121521770Y-96613237D01*
X121493492Y-96599862D01*
X121466662Y-96583781D01*
X121441537Y-96565147D01*
X121418360Y-96544140D01*
X121397353Y-96520963D01*
X121378719Y-96495838D01*
X121362638Y-96469008D01*
X121349263Y-96440730D01*
X121338725Y-96411278D01*
X121331125Y-96380935D01*
X121326535Y-96349993D01*
X121325000Y-96318750D01*
X121325000Y-95681250D01*
X121326535Y-95650007D01*
X121331125Y-95619065D01*
X121338725Y-95588722D01*
X121349263Y-95559270D01*
X121362638Y-95530992D01*
X121378719Y-95504162D01*
X121397353Y-95479037D01*
X121418360Y-95455860D01*
X121441537Y-95434853D01*
X121466662Y-95416219D01*
X121493492Y-95400138D01*
X121521770Y-95386763D01*
X121551222Y-95376225D01*
X121581565Y-95368625D01*
X121612507Y-95364035D01*
X121643750Y-95362500D01*
X122356250Y-95362500D01*
X122387493Y-95364035D01*
X122387493Y-95364035D01*
G37*
D13*
X122000000Y-96000000D03*
D12*
G36*
X122387493Y-93789035D02*
X122418435Y-93793625D01*
X122448778Y-93801225D01*
X122478230Y-93811763D01*
X122506508Y-93825138D01*
X122533338Y-93841219D01*
X122558463Y-93859853D01*
X122581640Y-93880860D01*
X122602647Y-93904037D01*
X122621281Y-93929162D01*
X122637362Y-93955992D01*
X122650737Y-93984270D01*
X122661275Y-94013722D01*
X122668875Y-94044065D01*
X122673465Y-94075007D01*
X122675000Y-94106250D01*
X122675000Y-94743750D01*
X122673465Y-94774993D01*
X122668875Y-94805935D01*
X122661275Y-94836278D01*
X122650737Y-94865730D01*
X122637362Y-94894008D01*
X122621281Y-94920838D01*
X122602647Y-94945963D01*
X122581640Y-94969140D01*
X122558463Y-94990147D01*
X122533338Y-95008781D01*
X122506508Y-95024862D01*
X122478230Y-95038237D01*
X122448778Y-95048775D01*
X122418435Y-95056375D01*
X122387493Y-95060965D01*
X122356250Y-95062500D01*
X121643750Y-95062500D01*
X121612507Y-95060965D01*
X121581565Y-95056375D01*
X121551222Y-95048775D01*
X121521770Y-95038237D01*
X121493492Y-95024862D01*
X121466662Y-95008781D01*
X121441537Y-94990147D01*
X121418360Y-94969140D01*
X121397353Y-94945963D01*
X121378719Y-94920838D01*
X121362638Y-94894008D01*
X121349263Y-94865730D01*
X121338725Y-94836278D01*
X121331125Y-94805935D01*
X121326535Y-94774993D01*
X121325000Y-94743750D01*
X121325000Y-94106250D01*
X121326535Y-94075007D01*
X121331125Y-94044065D01*
X121338725Y-94013722D01*
X121349263Y-93984270D01*
X121362638Y-93955992D01*
X121378719Y-93929162D01*
X121397353Y-93904037D01*
X121418360Y-93880860D01*
X121441537Y-93859853D01*
X121466662Y-93841219D01*
X121493492Y-93825138D01*
X121521770Y-93811763D01*
X121551222Y-93801225D01*
X121581565Y-93793625D01*
X121612507Y-93789035D01*
X121643750Y-93787500D01*
X122356250Y-93787500D01*
X122387493Y-93789035D01*
X122387493Y-93789035D01*
G37*
D13*
X122000000Y-94425000D03*
G04 #@! TD*
D12*
G04 #@! TO.C,C3*
G36*
X99349993Y-84576535D02*
X99380935Y-84581125D01*
X99411278Y-84588725D01*
X99440730Y-84599263D01*
X99469008Y-84612638D01*
X99495838Y-84628719D01*
X99520963Y-84647353D01*
X99544140Y-84668360D01*
X99565147Y-84691537D01*
X99583781Y-84716662D01*
X99599862Y-84743492D01*
X99613237Y-84771770D01*
X99623775Y-84801222D01*
X99631375Y-84831565D01*
X99635965Y-84862507D01*
X99637500Y-84893750D01*
X99637500Y-85606250D01*
X99635965Y-85637493D01*
X99631375Y-85668435D01*
X99623775Y-85698778D01*
X99613237Y-85728230D01*
X99599862Y-85756508D01*
X99583781Y-85783338D01*
X99565147Y-85808463D01*
X99544140Y-85831640D01*
X99520963Y-85852647D01*
X99495838Y-85871281D01*
X99469008Y-85887362D01*
X99440730Y-85900737D01*
X99411278Y-85911275D01*
X99380935Y-85918875D01*
X99349993Y-85923465D01*
X99318750Y-85925000D01*
X98681250Y-85925000D01*
X98650007Y-85923465D01*
X98619065Y-85918875D01*
X98588722Y-85911275D01*
X98559270Y-85900737D01*
X98530992Y-85887362D01*
X98504162Y-85871281D01*
X98479037Y-85852647D01*
X98455860Y-85831640D01*
X98434853Y-85808463D01*
X98416219Y-85783338D01*
X98400138Y-85756508D01*
X98386763Y-85728230D01*
X98376225Y-85698778D01*
X98368625Y-85668435D01*
X98364035Y-85637493D01*
X98362500Y-85606250D01*
X98362500Y-84893750D01*
X98364035Y-84862507D01*
X98368625Y-84831565D01*
X98376225Y-84801222D01*
X98386763Y-84771770D01*
X98400138Y-84743492D01*
X98416219Y-84716662D01*
X98434853Y-84691537D01*
X98455860Y-84668360D01*
X98479037Y-84647353D01*
X98504162Y-84628719D01*
X98530992Y-84612638D01*
X98559270Y-84599263D01*
X98588722Y-84588725D01*
X98619065Y-84581125D01*
X98650007Y-84576535D01*
X98681250Y-84575000D01*
X99318750Y-84575000D01*
X99349993Y-84576535D01*
X99349993Y-84576535D01*
G37*
D13*
X99000000Y-85250000D03*
D12*
G36*
X97774993Y-84576535D02*
X97805935Y-84581125D01*
X97836278Y-84588725D01*
X97865730Y-84599263D01*
X97894008Y-84612638D01*
X97920838Y-84628719D01*
X97945963Y-84647353D01*
X97969140Y-84668360D01*
X97990147Y-84691537D01*
X98008781Y-84716662D01*
X98024862Y-84743492D01*
X98038237Y-84771770D01*
X98048775Y-84801222D01*
X98056375Y-84831565D01*
X98060965Y-84862507D01*
X98062500Y-84893750D01*
X98062500Y-85606250D01*
X98060965Y-85637493D01*
X98056375Y-85668435D01*
X98048775Y-85698778D01*
X98038237Y-85728230D01*
X98024862Y-85756508D01*
X98008781Y-85783338D01*
X97990147Y-85808463D01*
X97969140Y-85831640D01*
X97945963Y-85852647D01*
X97920838Y-85871281D01*
X97894008Y-85887362D01*
X97865730Y-85900737D01*
X97836278Y-85911275D01*
X97805935Y-85918875D01*
X97774993Y-85923465D01*
X97743750Y-85925000D01*
X97106250Y-85925000D01*
X97075007Y-85923465D01*
X97044065Y-85918875D01*
X97013722Y-85911275D01*
X96984270Y-85900737D01*
X96955992Y-85887362D01*
X96929162Y-85871281D01*
X96904037Y-85852647D01*
X96880860Y-85831640D01*
X96859853Y-85808463D01*
X96841219Y-85783338D01*
X96825138Y-85756508D01*
X96811763Y-85728230D01*
X96801225Y-85698778D01*
X96793625Y-85668435D01*
X96789035Y-85637493D01*
X96787500Y-85606250D01*
X96787500Y-84893750D01*
X96789035Y-84862507D01*
X96793625Y-84831565D01*
X96801225Y-84801222D01*
X96811763Y-84771770D01*
X96825138Y-84743492D01*
X96841219Y-84716662D01*
X96859853Y-84691537D01*
X96880860Y-84668360D01*
X96904037Y-84647353D01*
X96929162Y-84628719D01*
X96955992Y-84612638D01*
X96984270Y-84599263D01*
X97013722Y-84588725D01*
X97044065Y-84581125D01*
X97075007Y-84576535D01*
X97106250Y-84575000D01*
X97743750Y-84575000D01*
X97774993Y-84576535D01*
X97774993Y-84576535D01*
G37*
D13*
X97425000Y-85250000D03*
G04 #@! TD*
D12*
G04 #@! TO.C,C4*
G36*
X128387493Y-95151535D02*
X128418435Y-95156125D01*
X128448778Y-95163725D01*
X128478230Y-95174263D01*
X128506508Y-95187638D01*
X128533338Y-95203719D01*
X128558463Y-95222353D01*
X128581640Y-95243360D01*
X128602647Y-95266537D01*
X128621281Y-95291662D01*
X128637362Y-95318492D01*
X128650737Y-95346770D01*
X128661275Y-95376222D01*
X128668875Y-95406565D01*
X128673465Y-95437507D01*
X128675000Y-95468750D01*
X128675000Y-96106250D01*
X128673465Y-96137493D01*
X128668875Y-96168435D01*
X128661275Y-96198778D01*
X128650737Y-96228230D01*
X128637362Y-96256508D01*
X128621281Y-96283338D01*
X128602647Y-96308463D01*
X128581640Y-96331640D01*
X128558463Y-96352647D01*
X128533338Y-96371281D01*
X128506508Y-96387362D01*
X128478230Y-96400737D01*
X128448778Y-96411275D01*
X128418435Y-96418875D01*
X128387493Y-96423465D01*
X128356250Y-96425000D01*
X127643750Y-96425000D01*
X127612507Y-96423465D01*
X127581565Y-96418875D01*
X127551222Y-96411275D01*
X127521770Y-96400737D01*
X127493492Y-96387362D01*
X127466662Y-96371281D01*
X127441537Y-96352647D01*
X127418360Y-96331640D01*
X127397353Y-96308463D01*
X127378719Y-96283338D01*
X127362638Y-96256508D01*
X127349263Y-96228230D01*
X127338725Y-96198778D01*
X127331125Y-96168435D01*
X127326535Y-96137493D01*
X127325000Y-96106250D01*
X127325000Y-95468750D01*
X127326535Y-95437507D01*
X127331125Y-95406565D01*
X127338725Y-95376222D01*
X127349263Y-95346770D01*
X127362638Y-95318492D01*
X127378719Y-95291662D01*
X127397353Y-95266537D01*
X127418360Y-95243360D01*
X127441537Y-95222353D01*
X127466662Y-95203719D01*
X127493492Y-95187638D01*
X127521770Y-95174263D01*
X127551222Y-95163725D01*
X127581565Y-95156125D01*
X127612507Y-95151535D01*
X127643750Y-95150000D01*
X128356250Y-95150000D01*
X128387493Y-95151535D01*
X128387493Y-95151535D01*
G37*
D13*
X128000000Y-95787500D03*
D12*
G36*
X128387493Y-93576535D02*
X128418435Y-93581125D01*
X128448778Y-93588725D01*
X128478230Y-93599263D01*
X128506508Y-93612638D01*
X128533338Y-93628719D01*
X128558463Y-93647353D01*
X128581640Y-93668360D01*
X128602647Y-93691537D01*
X128621281Y-93716662D01*
X128637362Y-93743492D01*
X128650737Y-93771770D01*
X128661275Y-93801222D01*
X128668875Y-93831565D01*
X128673465Y-93862507D01*
X128675000Y-93893750D01*
X128675000Y-94531250D01*
X128673465Y-94562493D01*
X128668875Y-94593435D01*
X128661275Y-94623778D01*
X128650737Y-94653230D01*
X128637362Y-94681508D01*
X128621281Y-94708338D01*
X128602647Y-94733463D01*
X128581640Y-94756640D01*
X128558463Y-94777647D01*
X128533338Y-94796281D01*
X128506508Y-94812362D01*
X128478230Y-94825737D01*
X128448778Y-94836275D01*
X128418435Y-94843875D01*
X128387493Y-94848465D01*
X128356250Y-94850000D01*
X127643750Y-94850000D01*
X127612507Y-94848465D01*
X127581565Y-94843875D01*
X127551222Y-94836275D01*
X127521770Y-94825737D01*
X127493492Y-94812362D01*
X127466662Y-94796281D01*
X127441537Y-94777647D01*
X127418360Y-94756640D01*
X127397353Y-94733463D01*
X127378719Y-94708338D01*
X127362638Y-94681508D01*
X127349263Y-94653230D01*
X127338725Y-94623778D01*
X127331125Y-94593435D01*
X127326535Y-94562493D01*
X127325000Y-94531250D01*
X127325000Y-93893750D01*
X127326535Y-93862507D01*
X127331125Y-93831565D01*
X127338725Y-93801222D01*
X127349263Y-93771770D01*
X127362638Y-93743492D01*
X127378719Y-93716662D01*
X127397353Y-93691537D01*
X127418360Y-93668360D01*
X127441537Y-93647353D01*
X127466662Y-93628719D01*
X127493492Y-93612638D01*
X127521770Y-93599263D01*
X127551222Y-93588725D01*
X127581565Y-93581125D01*
X127612507Y-93576535D01*
X127643750Y-93575000D01*
X128356250Y-93575000D01*
X128387493Y-93576535D01*
X128387493Y-93576535D01*
G37*
D13*
X128000000Y-94212500D03*
G04 #@! TD*
D12*
G04 #@! TO.C,C5*
G36*
X132774993Y-92826535D02*
X132805935Y-92831125D01*
X132836278Y-92838725D01*
X132865730Y-92849263D01*
X132894008Y-92862638D01*
X132920838Y-92878719D01*
X132945963Y-92897353D01*
X132969140Y-92918360D01*
X132990147Y-92941537D01*
X133008781Y-92966662D01*
X133024862Y-92993492D01*
X133038237Y-93021770D01*
X133048775Y-93051222D01*
X133056375Y-93081565D01*
X133060965Y-93112507D01*
X133062500Y-93143750D01*
X133062500Y-93856250D01*
X133060965Y-93887493D01*
X133056375Y-93918435D01*
X133048775Y-93948778D01*
X133038237Y-93978230D01*
X133024862Y-94006508D01*
X133008781Y-94033338D01*
X132990147Y-94058463D01*
X132969140Y-94081640D01*
X132945963Y-94102647D01*
X132920838Y-94121281D01*
X132894008Y-94137362D01*
X132865730Y-94150737D01*
X132836278Y-94161275D01*
X132805935Y-94168875D01*
X132774993Y-94173465D01*
X132743750Y-94175000D01*
X132106250Y-94175000D01*
X132075007Y-94173465D01*
X132044065Y-94168875D01*
X132013722Y-94161275D01*
X131984270Y-94150737D01*
X131955992Y-94137362D01*
X131929162Y-94121281D01*
X131904037Y-94102647D01*
X131880860Y-94081640D01*
X131859853Y-94058463D01*
X131841219Y-94033338D01*
X131825138Y-94006508D01*
X131811763Y-93978230D01*
X131801225Y-93948778D01*
X131793625Y-93918435D01*
X131789035Y-93887493D01*
X131787500Y-93856250D01*
X131787500Y-93143750D01*
X131789035Y-93112507D01*
X131793625Y-93081565D01*
X131801225Y-93051222D01*
X131811763Y-93021770D01*
X131825138Y-92993492D01*
X131841219Y-92966662D01*
X131859853Y-92941537D01*
X131880860Y-92918360D01*
X131904037Y-92897353D01*
X131929162Y-92878719D01*
X131955992Y-92862638D01*
X131984270Y-92849263D01*
X132013722Y-92838725D01*
X132044065Y-92831125D01*
X132075007Y-92826535D01*
X132106250Y-92825000D01*
X132743750Y-92825000D01*
X132774993Y-92826535D01*
X132774993Y-92826535D01*
G37*
D13*
X132425000Y-93500000D03*
D12*
G36*
X134349993Y-92826535D02*
X134380935Y-92831125D01*
X134411278Y-92838725D01*
X134440730Y-92849263D01*
X134469008Y-92862638D01*
X134495838Y-92878719D01*
X134520963Y-92897353D01*
X134544140Y-92918360D01*
X134565147Y-92941537D01*
X134583781Y-92966662D01*
X134599862Y-92993492D01*
X134613237Y-93021770D01*
X134623775Y-93051222D01*
X134631375Y-93081565D01*
X134635965Y-93112507D01*
X134637500Y-93143750D01*
X134637500Y-93856250D01*
X134635965Y-93887493D01*
X134631375Y-93918435D01*
X134623775Y-93948778D01*
X134613237Y-93978230D01*
X134599862Y-94006508D01*
X134583781Y-94033338D01*
X134565147Y-94058463D01*
X134544140Y-94081640D01*
X134520963Y-94102647D01*
X134495838Y-94121281D01*
X134469008Y-94137362D01*
X134440730Y-94150737D01*
X134411278Y-94161275D01*
X134380935Y-94168875D01*
X134349993Y-94173465D01*
X134318750Y-94175000D01*
X133681250Y-94175000D01*
X133650007Y-94173465D01*
X133619065Y-94168875D01*
X133588722Y-94161275D01*
X133559270Y-94150737D01*
X133530992Y-94137362D01*
X133504162Y-94121281D01*
X133479037Y-94102647D01*
X133455860Y-94081640D01*
X133434853Y-94058463D01*
X133416219Y-94033338D01*
X133400138Y-94006508D01*
X133386763Y-93978230D01*
X133376225Y-93948778D01*
X133368625Y-93918435D01*
X133364035Y-93887493D01*
X133362500Y-93856250D01*
X133362500Y-93143750D01*
X133364035Y-93112507D01*
X133368625Y-93081565D01*
X133376225Y-93051222D01*
X133386763Y-93021770D01*
X133400138Y-92993492D01*
X133416219Y-92966662D01*
X133434853Y-92941537D01*
X133455860Y-92918360D01*
X133479037Y-92897353D01*
X133504162Y-92878719D01*
X133530992Y-92862638D01*
X133559270Y-92849263D01*
X133588722Y-92838725D01*
X133619065Y-92831125D01*
X133650007Y-92826535D01*
X133681250Y-92825000D01*
X134318750Y-92825000D01*
X134349993Y-92826535D01*
X134349993Y-92826535D01*
G37*
D13*
X134000000Y-93500000D03*
G04 #@! TD*
D12*
G04 #@! TO.C,C6*
G36*
X132774993Y-91326535D02*
X132805935Y-91331125D01*
X132836278Y-91338725D01*
X132865730Y-91349263D01*
X132894008Y-91362638D01*
X132920838Y-91378719D01*
X132945963Y-91397353D01*
X132969140Y-91418360D01*
X132990147Y-91441537D01*
X133008781Y-91466662D01*
X133024862Y-91493492D01*
X133038237Y-91521770D01*
X133048775Y-91551222D01*
X133056375Y-91581565D01*
X133060965Y-91612507D01*
X133062500Y-91643750D01*
X133062500Y-92356250D01*
X133060965Y-92387493D01*
X133056375Y-92418435D01*
X133048775Y-92448778D01*
X133038237Y-92478230D01*
X133024862Y-92506508D01*
X133008781Y-92533338D01*
X132990147Y-92558463D01*
X132969140Y-92581640D01*
X132945963Y-92602647D01*
X132920838Y-92621281D01*
X132894008Y-92637362D01*
X132865730Y-92650737D01*
X132836278Y-92661275D01*
X132805935Y-92668875D01*
X132774993Y-92673465D01*
X132743750Y-92675000D01*
X132106250Y-92675000D01*
X132075007Y-92673465D01*
X132044065Y-92668875D01*
X132013722Y-92661275D01*
X131984270Y-92650737D01*
X131955992Y-92637362D01*
X131929162Y-92621281D01*
X131904037Y-92602647D01*
X131880860Y-92581640D01*
X131859853Y-92558463D01*
X131841219Y-92533338D01*
X131825138Y-92506508D01*
X131811763Y-92478230D01*
X131801225Y-92448778D01*
X131793625Y-92418435D01*
X131789035Y-92387493D01*
X131787500Y-92356250D01*
X131787500Y-91643750D01*
X131789035Y-91612507D01*
X131793625Y-91581565D01*
X131801225Y-91551222D01*
X131811763Y-91521770D01*
X131825138Y-91493492D01*
X131841219Y-91466662D01*
X131859853Y-91441537D01*
X131880860Y-91418360D01*
X131904037Y-91397353D01*
X131929162Y-91378719D01*
X131955992Y-91362638D01*
X131984270Y-91349263D01*
X132013722Y-91338725D01*
X132044065Y-91331125D01*
X132075007Y-91326535D01*
X132106250Y-91325000D01*
X132743750Y-91325000D01*
X132774993Y-91326535D01*
X132774993Y-91326535D01*
G37*
D13*
X132425000Y-92000000D03*
D12*
G36*
X134349993Y-91326535D02*
X134380935Y-91331125D01*
X134411278Y-91338725D01*
X134440730Y-91349263D01*
X134469008Y-91362638D01*
X134495838Y-91378719D01*
X134520963Y-91397353D01*
X134544140Y-91418360D01*
X134565147Y-91441537D01*
X134583781Y-91466662D01*
X134599862Y-91493492D01*
X134613237Y-91521770D01*
X134623775Y-91551222D01*
X134631375Y-91581565D01*
X134635965Y-91612507D01*
X134637500Y-91643750D01*
X134637500Y-92356250D01*
X134635965Y-92387493D01*
X134631375Y-92418435D01*
X134623775Y-92448778D01*
X134613237Y-92478230D01*
X134599862Y-92506508D01*
X134583781Y-92533338D01*
X134565147Y-92558463D01*
X134544140Y-92581640D01*
X134520963Y-92602647D01*
X134495838Y-92621281D01*
X134469008Y-92637362D01*
X134440730Y-92650737D01*
X134411278Y-92661275D01*
X134380935Y-92668875D01*
X134349993Y-92673465D01*
X134318750Y-92675000D01*
X133681250Y-92675000D01*
X133650007Y-92673465D01*
X133619065Y-92668875D01*
X133588722Y-92661275D01*
X133559270Y-92650737D01*
X133530992Y-92637362D01*
X133504162Y-92621281D01*
X133479037Y-92602647D01*
X133455860Y-92581640D01*
X133434853Y-92558463D01*
X133416219Y-92533338D01*
X133400138Y-92506508D01*
X133386763Y-92478230D01*
X133376225Y-92448778D01*
X133368625Y-92418435D01*
X133364035Y-92387493D01*
X133362500Y-92356250D01*
X133362500Y-91643750D01*
X133364035Y-91612507D01*
X133368625Y-91581565D01*
X133376225Y-91551222D01*
X133386763Y-91521770D01*
X133400138Y-91493492D01*
X133416219Y-91466662D01*
X133434853Y-91441537D01*
X133455860Y-91418360D01*
X133479037Y-91397353D01*
X133504162Y-91378719D01*
X133530992Y-91362638D01*
X133559270Y-91349263D01*
X133588722Y-91338725D01*
X133619065Y-91331125D01*
X133650007Y-91326535D01*
X133681250Y-91325000D01*
X134318750Y-91325000D01*
X134349993Y-91326535D01*
X134349993Y-91326535D01*
G37*
D13*
X134000000Y-92000000D03*
G04 #@! TD*
D12*
G04 #@! TO.C,C7*
G36*
X132562493Y-82826535D02*
X132593435Y-82831125D01*
X132623778Y-82838725D01*
X132653230Y-82849263D01*
X132681508Y-82862638D01*
X132708338Y-82878719D01*
X132733463Y-82897353D01*
X132756640Y-82918360D01*
X132777647Y-82941537D01*
X132796281Y-82966662D01*
X132812362Y-82993492D01*
X132825737Y-83021770D01*
X132836275Y-83051222D01*
X132843875Y-83081565D01*
X132848465Y-83112507D01*
X132850000Y-83143750D01*
X132850000Y-83856250D01*
X132848465Y-83887493D01*
X132843875Y-83918435D01*
X132836275Y-83948778D01*
X132825737Y-83978230D01*
X132812362Y-84006508D01*
X132796281Y-84033338D01*
X132777647Y-84058463D01*
X132756640Y-84081640D01*
X132733463Y-84102647D01*
X132708338Y-84121281D01*
X132681508Y-84137362D01*
X132653230Y-84150737D01*
X132623778Y-84161275D01*
X132593435Y-84168875D01*
X132562493Y-84173465D01*
X132531250Y-84175000D01*
X131893750Y-84175000D01*
X131862507Y-84173465D01*
X131831565Y-84168875D01*
X131801222Y-84161275D01*
X131771770Y-84150737D01*
X131743492Y-84137362D01*
X131716662Y-84121281D01*
X131691537Y-84102647D01*
X131668360Y-84081640D01*
X131647353Y-84058463D01*
X131628719Y-84033338D01*
X131612638Y-84006508D01*
X131599263Y-83978230D01*
X131588725Y-83948778D01*
X131581125Y-83918435D01*
X131576535Y-83887493D01*
X131575000Y-83856250D01*
X131575000Y-83143750D01*
X131576535Y-83112507D01*
X131581125Y-83081565D01*
X131588725Y-83051222D01*
X131599263Y-83021770D01*
X131612638Y-82993492D01*
X131628719Y-82966662D01*
X131647353Y-82941537D01*
X131668360Y-82918360D01*
X131691537Y-82897353D01*
X131716662Y-82878719D01*
X131743492Y-82862638D01*
X131771770Y-82849263D01*
X131801222Y-82838725D01*
X131831565Y-82831125D01*
X131862507Y-82826535D01*
X131893750Y-82825000D01*
X132531250Y-82825000D01*
X132562493Y-82826535D01*
X132562493Y-82826535D01*
G37*
D13*
X132212500Y-83500000D03*
D12*
G36*
X134137493Y-82826535D02*
X134168435Y-82831125D01*
X134198778Y-82838725D01*
X134228230Y-82849263D01*
X134256508Y-82862638D01*
X134283338Y-82878719D01*
X134308463Y-82897353D01*
X134331640Y-82918360D01*
X134352647Y-82941537D01*
X134371281Y-82966662D01*
X134387362Y-82993492D01*
X134400737Y-83021770D01*
X134411275Y-83051222D01*
X134418875Y-83081565D01*
X134423465Y-83112507D01*
X134425000Y-83143750D01*
X134425000Y-83856250D01*
X134423465Y-83887493D01*
X134418875Y-83918435D01*
X134411275Y-83948778D01*
X134400737Y-83978230D01*
X134387362Y-84006508D01*
X134371281Y-84033338D01*
X134352647Y-84058463D01*
X134331640Y-84081640D01*
X134308463Y-84102647D01*
X134283338Y-84121281D01*
X134256508Y-84137362D01*
X134228230Y-84150737D01*
X134198778Y-84161275D01*
X134168435Y-84168875D01*
X134137493Y-84173465D01*
X134106250Y-84175000D01*
X133468750Y-84175000D01*
X133437507Y-84173465D01*
X133406565Y-84168875D01*
X133376222Y-84161275D01*
X133346770Y-84150737D01*
X133318492Y-84137362D01*
X133291662Y-84121281D01*
X133266537Y-84102647D01*
X133243360Y-84081640D01*
X133222353Y-84058463D01*
X133203719Y-84033338D01*
X133187638Y-84006508D01*
X133174263Y-83978230D01*
X133163725Y-83948778D01*
X133156125Y-83918435D01*
X133151535Y-83887493D01*
X133150000Y-83856250D01*
X133150000Y-83143750D01*
X133151535Y-83112507D01*
X133156125Y-83081565D01*
X133163725Y-83051222D01*
X133174263Y-83021770D01*
X133187638Y-82993492D01*
X133203719Y-82966662D01*
X133222353Y-82941537D01*
X133243360Y-82918360D01*
X133266537Y-82897353D01*
X133291662Y-82878719D01*
X133318492Y-82862638D01*
X133346770Y-82849263D01*
X133376222Y-82838725D01*
X133406565Y-82831125D01*
X133437507Y-82826535D01*
X133468750Y-82825000D01*
X134106250Y-82825000D01*
X134137493Y-82826535D01*
X134137493Y-82826535D01*
G37*
D13*
X133787500Y-83500000D03*
G04 #@! TD*
D12*
G04 #@! TO.C,C8*
G36*
X134137493Y-81326535D02*
X134168435Y-81331125D01*
X134198778Y-81338725D01*
X134228230Y-81349263D01*
X134256508Y-81362638D01*
X134283338Y-81378719D01*
X134308463Y-81397353D01*
X134331640Y-81418360D01*
X134352647Y-81441537D01*
X134371281Y-81466662D01*
X134387362Y-81493492D01*
X134400737Y-81521770D01*
X134411275Y-81551222D01*
X134418875Y-81581565D01*
X134423465Y-81612507D01*
X134425000Y-81643750D01*
X134425000Y-82356250D01*
X134423465Y-82387493D01*
X134418875Y-82418435D01*
X134411275Y-82448778D01*
X134400737Y-82478230D01*
X134387362Y-82506508D01*
X134371281Y-82533338D01*
X134352647Y-82558463D01*
X134331640Y-82581640D01*
X134308463Y-82602647D01*
X134283338Y-82621281D01*
X134256508Y-82637362D01*
X134228230Y-82650737D01*
X134198778Y-82661275D01*
X134168435Y-82668875D01*
X134137493Y-82673465D01*
X134106250Y-82675000D01*
X133468750Y-82675000D01*
X133437507Y-82673465D01*
X133406565Y-82668875D01*
X133376222Y-82661275D01*
X133346770Y-82650737D01*
X133318492Y-82637362D01*
X133291662Y-82621281D01*
X133266537Y-82602647D01*
X133243360Y-82581640D01*
X133222353Y-82558463D01*
X133203719Y-82533338D01*
X133187638Y-82506508D01*
X133174263Y-82478230D01*
X133163725Y-82448778D01*
X133156125Y-82418435D01*
X133151535Y-82387493D01*
X133150000Y-82356250D01*
X133150000Y-81643750D01*
X133151535Y-81612507D01*
X133156125Y-81581565D01*
X133163725Y-81551222D01*
X133174263Y-81521770D01*
X133187638Y-81493492D01*
X133203719Y-81466662D01*
X133222353Y-81441537D01*
X133243360Y-81418360D01*
X133266537Y-81397353D01*
X133291662Y-81378719D01*
X133318492Y-81362638D01*
X133346770Y-81349263D01*
X133376222Y-81338725D01*
X133406565Y-81331125D01*
X133437507Y-81326535D01*
X133468750Y-81325000D01*
X134106250Y-81325000D01*
X134137493Y-81326535D01*
X134137493Y-81326535D01*
G37*
D13*
X133787500Y-82000000D03*
D12*
G36*
X132562493Y-81326535D02*
X132593435Y-81331125D01*
X132623778Y-81338725D01*
X132653230Y-81349263D01*
X132681508Y-81362638D01*
X132708338Y-81378719D01*
X132733463Y-81397353D01*
X132756640Y-81418360D01*
X132777647Y-81441537D01*
X132796281Y-81466662D01*
X132812362Y-81493492D01*
X132825737Y-81521770D01*
X132836275Y-81551222D01*
X132843875Y-81581565D01*
X132848465Y-81612507D01*
X132850000Y-81643750D01*
X132850000Y-82356250D01*
X132848465Y-82387493D01*
X132843875Y-82418435D01*
X132836275Y-82448778D01*
X132825737Y-82478230D01*
X132812362Y-82506508D01*
X132796281Y-82533338D01*
X132777647Y-82558463D01*
X132756640Y-82581640D01*
X132733463Y-82602647D01*
X132708338Y-82621281D01*
X132681508Y-82637362D01*
X132653230Y-82650737D01*
X132623778Y-82661275D01*
X132593435Y-82668875D01*
X132562493Y-82673465D01*
X132531250Y-82675000D01*
X131893750Y-82675000D01*
X131862507Y-82673465D01*
X131831565Y-82668875D01*
X131801222Y-82661275D01*
X131771770Y-82650737D01*
X131743492Y-82637362D01*
X131716662Y-82621281D01*
X131691537Y-82602647D01*
X131668360Y-82581640D01*
X131647353Y-82558463D01*
X131628719Y-82533338D01*
X131612638Y-82506508D01*
X131599263Y-82478230D01*
X131588725Y-82448778D01*
X131581125Y-82418435D01*
X131576535Y-82387493D01*
X131575000Y-82356250D01*
X131575000Y-81643750D01*
X131576535Y-81612507D01*
X131581125Y-81581565D01*
X131588725Y-81551222D01*
X131599263Y-81521770D01*
X131612638Y-81493492D01*
X131628719Y-81466662D01*
X131647353Y-81441537D01*
X131668360Y-81418360D01*
X131691537Y-81397353D01*
X131716662Y-81378719D01*
X131743492Y-81362638D01*
X131771770Y-81349263D01*
X131801222Y-81338725D01*
X131831565Y-81331125D01*
X131862507Y-81326535D01*
X131893750Y-81325000D01*
X132531250Y-81325000D01*
X132562493Y-81326535D01*
X132562493Y-81326535D01*
G37*
D13*
X132212500Y-82000000D03*
G04 #@! TD*
D14*
G04 #@! TO.C,D1*
X124000000Y-92000000D03*
X121800000Y-92000000D03*
G04 #@! TD*
D15*
G04 #@! TO.C,J1*
X131000000Y-78000000D03*
D16*
X133540000Y-78000000D03*
X136080000Y-78000000D03*
X138620000Y-78000000D03*
X141160000Y-78000000D03*
X143700000Y-78000000D03*
G04 #@! TD*
D15*
G04 #@! TO.C,J3*
X128250000Y-78000000D03*
D16*
X125710000Y-78000000D03*
X123170000Y-78000000D03*
X120630000Y-78000000D03*
G04 #@! TD*
D12*
G04 #@! TO.C,R1*
G36*
X103387493Y-96364035D02*
X103418435Y-96368625D01*
X103448778Y-96376225D01*
X103478230Y-96386763D01*
X103506508Y-96400138D01*
X103533338Y-96416219D01*
X103558463Y-96434853D01*
X103581640Y-96455860D01*
X103602647Y-96479037D01*
X103621281Y-96504162D01*
X103637362Y-96530992D01*
X103650737Y-96559270D01*
X103661275Y-96588722D01*
X103668875Y-96619065D01*
X103673465Y-96650007D01*
X103675000Y-96681250D01*
X103675000Y-97318750D01*
X103673465Y-97349993D01*
X103668875Y-97380935D01*
X103661275Y-97411278D01*
X103650737Y-97440730D01*
X103637362Y-97469008D01*
X103621281Y-97495838D01*
X103602647Y-97520963D01*
X103581640Y-97544140D01*
X103558463Y-97565147D01*
X103533338Y-97583781D01*
X103506508Y-97599862D01*
X103478230Y-97613237D01*
X103448778Y-97623775D01*
X103418435Y-97631375D01*
X103387493Y-97635965D01*
X103356250Y-97637500D01*
X102643750Y-97637500D01*
X102612507Y-97635965D01*
X102581565Y-97631375D01*
X102551222Y-97623775D01*
X102521770Y-97613237D01*
X102493492Y-97599862D01*
X102466662Y-97583781D01*
X102441537Y-97565147D01*
X102418360Y-97544140D01*
X102397353Y-97520963D01*
X102378719Y-97495838D01*
X102362638Y-97469008D01*
X102349263Y-97440730D01*
X102338725Y-97411278D01*
X102331125Y-97380935D01*
X102326535Y-97349993D01*
X102325000Y-97318750D01*
X102325000Y-96681250D01*
X102326535Y-96650007D01*
X102331125Y-96619065D01*
X102338725Y-96588722D01*
X102349263Y-96559270D01*
X102362638Y-96530992D01*
X102378719Y-96504162D01*
X102397353Y-96479037D01*
X102418360Y-96455860D01*
X102441537Y-96434853D01*
X102466662Y-96416219D01*
X102493492Y-96400138D01*
X102521770Y-96386763D01*
X102551222Y-96376225D01*
X102581565Y-96368625D01*
X102612507Y-96364035D01*
X102643750Y-96362500D01*
X103356250Y-96362500D01*
X103387493Y-96364035D01*
X103387493Y-96364035D01*
G37*
D13*
X103000000Y-97000000D03*
D12*
G36*
X103387493Y-94789035D02*
X103418435Y-94793625D01*
X103448778Y-94801225D01*
X103478230Y-94811763D01*
X103506508Y-94825138D01*
X103533338Y-94841219D01*
X103558463Y-94859853D01*
X103581640Y-94880860D01*
X103602647Y-94904037D01*
X103621281Y-94929162D01*
X103637362Y-94955992D01*
X103650737Y-94984270D01*
X103661275Y-95013722D01*
X103668875Y-95044065D01*
X103673465Y-95075007D01*
X103675000Y-95106250D01*
X103675000Y-95743750D01*
X103673465Y-95774993D01*
X103668875Y-95805935D01*
X103661275Y-95836278D01*
X103650737Y-95865730D01*
X103637362Y-95894008D01*
X103621281Y-95920838D01*
X103602647Y-95945963D01*
X103581640Y-95969140D01*
X103558463Y-95990147D01*
X103533338Y-96008781D01*
X103506508Y-96024862D01*
X103478230Y-96038237D01*
X103448778Y-96048775D01*
X103418435Y-96056375D01*
X103387493Y-96060965D01*
X103356250Y-96062500D01*
X102643750Y-96062500D01*
X102612507Y-96060965D01*
X102581565Y-96056375D01*
X102551222Y-96048775D01*
X102521770Y-96038237D01*
X102493492Y-96024862D01*
X102466662Y-96008781D01*
X102441537Y-95990147D01*
X102418360Y-95969140D01*
X102397353Y-95945963D01*
X102378719Y-95920838D01*
X102362638Y-95894008D01*
X102349263Y-95865730D01*
X102338725Y-95836278D01*
X102331125Y-95805935D01*
X102326535Y-95774993D01*
X102325000Y-95743750D01*
X102325000Y-95106250D01*
X102326535Y-95075007D01*
X102331125Y-95044065D01*
X102338725Y-95013722D01*
X102349263Y-94984270D01*
X102362638Y-94955992D01*
X102378719Y-94929162D01*
X102397353Y-94904037D01*
X102418360Y-94880860D01*
X102441537Y-94859853D01*
X102466662Y-94841219D01*
X102493492Y-94825138D01*
X102521770Y-94811763D01*
X102551222Y-94801225D01*
X102581565Y-94793625D01*
X102612507Y-94789035D01*
X102643750Y-94787500D01*
X103356250Y-94787500D01*
X103387493Y-94789035D01*
X103387493Y-94789035D01*
G37*
D13*
X103000000Y-95425000D03*
G04 #@! TD*
D12*
G04 #@! TO.C,R2*
G36*
X101387493Y-94789035D02*
X101418435Y-94793625D01*
X101448778Y-94801225D01*
X101478230Y-94811763D01*
X101506508Y-94825138D01*
X101533338Y-94841219D01*
X101558463Y-94859853D01*
X101581640Y-94880860D01*
X101602647Y-94904037D01*
X101621281Y-94929162D01*
X101637362Y-94955992D01*
X101650737Y-94984270D01*
X101661275Y-95013722D01*
X101668875Y-95044065D01*
X101673465Y-95075007D01*
X101675000Y-95106250D01*
X101675000Y-95743750D01*
X101673465Y-95774993D01*
X101668875Y-95805935D01*
X101661275Y-95836278D01*
X101650737Y-95865730D01*
X101637362Y-95894008D01*
X101621281Y-95920838D01*
X101602647Y-95945963D01*
X101581640Y-95969140D01*
X101558463Y-95990147D01*
X101533338Y-96008781D01*
X101506508Y-96024862D01*
X101478230Y-96038237D01*
X101448778Y-96048775D01*
X101418435Y-96056375D01*
X101387493Y-96060965D01*
X101356250Y-96062500D01*
X100643750Y-96062500D01*
X100612507Y-96060965D01*
X100581565Y-96056375D01*
X100551222Y-96048775D01*
X100521770Y-96038237D01*
X100493492Y-96024862D01*
X100466662Y-96008781D01*
X100441537Y-95990147D01*
X100418360Y-95969140D01*
X100397353Y-95945963D01*
X100378719Y-95920838D01*
X100362638Y-95894008D01*
X100349263Y-95865730D01*
X100338725Y-95836278D01*
X100331125Y-95805935D01*
X100326535Y-95774993D01*
X100325000Y-95743750D01*
X100325000Y-95106250D01*
X100326535Y-95075007D01*
X100331125Y-95044065D01*
X100338725Y-95013722D01*
X100349263Y-94984270D01*
X100362638Y-94955992D01*
X100378719Y-94929162D01*
X100397353Y-94904037D01*
X100418360Y-94880860D01*
X100441537Y-94859853D01*
X100466662Y-94841219D01*
X100493492Y-94825138D01*
X100521770Y-94811763D01*
X100551222Y-94801225D01*
X100581565Y-94793625D01*
X100612507Y-94789035D01*
X100643750Y-94787500D01*
X101356250Y-94787500D01*
X101387493Y-94789035D01*
X101387493Y-94789035D01*
G37*
D13*
X101000000Y-95425000D03*
D12*
G36*
X101387493Y-96364035D02*
X101418435Y-96368625D01*
X101448778Y-96376225D01*
X101478230Y-96386763D01*
X101506508Y-96400138D01*
X101533338Y-96416219D01*
X101558463Y-96434853D01*
X101581640Y-96455860D01*
X101602647Y-96479037D01*
X101621281Y-96504162D01*
X101637362Y-96530992D01*
X101650737Y-96559270D01*
X101661275Y-96588722D01*
X101668875Y-96619065D01*
X101673465Y-96650007D01*
X101675000Y-96681250D01*
X101675000Y-97318750D01*
X101673465Y-97349993D01*
X101668875Y-97380935D01*
X101661275Y-97411278D01*
X101650737Y-97440730D01*
X101637362Y-97469008D01*
X101621281Y-97495838D01*
X101602647Y-97520963D01*
X101581640Y-97544140D01*
X101558463Y-97565147D01*
X101533338Y-97583781D01*
X101506508Y-97599862D01*
X101478230Y-97613237D01*
X101448778Y-97623775D01*
X101418435Y-97631375D01*
X101387493Y-97635965D01*
X101356250Y-97637500D01*
X100643750Y-97637500D01*
X100612507Y-97635965D01*
X100581565Y-97631375D01*
X100551222Y-97623775D01*
X100521770Y-97613237D01*
X100493492Y-97599862D01*
X100466662Y-97583781D01*
X100441537Y-97565147D01*
X100418360Y-97544140D01*
X100397353Y-97520963D01*
X100378719Y-97495838D01*
X100362638Y-97469008D01*
X100349263Y-97440730D01*
X100338725Y-97411278D01*
X100331125Y-97380935D01*
X100326535Y-97349993D01*
X100325000Y-97318750D01*
X100325000Y-96681250D01*
X100326535Y-96650007D01*
X100331125Y-96619065D01*
X100338725Y-96588722D01*
X100349263Y-96559270D01*
X100362638Y-96530992D01*
X100378719Y-96504162D01*
X100397353Y-96479037D01*
X100418360Y-96455860D01*
X100441537Y-96434853D01*
X100466662Y-96416219D01*
X100493492Y-96400138D01*
X100521770Y-96386763D01*
X100551222Y-96376225D01*
X100581565Y-96368625D01*
X100612507Y-96364035D01*
X100643750Y-96362500D01*
X101356250Y-96362500D01*
X101387493Y-96364035D01*
X101387493Y-96364035D01*
G37*
D13*
X101000000Y-97000000D03*
G04 #@! TD*
D12*
G04 #@! TO.C,R3*
G36*
X130887493Y-82864035D02*
X130918435Y-82868625D01*
X130948778Y-82876225D01*
X130978230Y-82886763D01*
X131006508Y-82900138D01*
X131033338Y-82916219D01*
X131058463Y-82934853D01*
X131081640Y-82955860D01*
X131102647Y-82979037D01*
X131121281Y-83004162D01*
X131137362Y-83030992D01*
X131150737Y-83059270D01*
X131161275Y-83088722D01*
X131168875Y-83119065D01*
X131173465Y-83150007D01*
X131175000Y-83181250D01*
X131175000Y-83818750D01*
X131173465Y-83849993D01*
X131168875Y-83880935D01*
X131161275Y-83911278D01*
X131150737Y-83940730D01*
X131137362Y-83969008D01*
X131121281Y-83995838D01*
X131102647Y-84020963D01*
X131081640Y-84044140D01*
X131058463Y-84065147D01*
X131033338Y-84083781D01*
X131006508Y-84099862D01*
X130978230Y-84113237D01*
X130948778Y-84123775D01*
X130918435Y-84131375D01*
X130887493Y-84135965D01*
X130856250Y-84137500D01*
X130143750Y-84137500D01*
X130112507Y-84135965D01*
X130081565Y-84131375D01*
X130051222Y-84123775D01*
X130021770Y-84113237D01*
X129993492Y-84099862D01*
X129966662Y-84083781D01*
X129941537Y-84065147D01*
X129918360Y-84044140D01*
X129897353Y-84020963D01*
X129878719Y-83995838D01*
X129862638Y-83969008D01*
X129849263Y-83940730D01*
X129838725Y-83911278D01*
X129831125Y-83880935D01*
X129826535Y-83849993D01*
X129825000Y-83818750D01*
X129825000Y-83181250D01*
X129826535Y-83150007D01*
X129831125Y-83119065D01*
X129838725Y-83088722D01*
X129849263Y-83059270D01*
X129862638Y-83030992D01*
X129878719Y-83004162D01*
X129897353Y-82979037D01*
X129918360Y-82955860D01*
X129941537Y-82934853D01*
X129966662Y-82916219D01*
X129993492Y-82900138D01*
X130021770Y-82886763D01*
X130051222Y-82876225D01*
X130081565Y-82868625D01*
X130112507Y-82864035D01*
X130143750Y-82862500D01*
X130856250Y-82862500D01*
X130887493Y-82864035D01*
X130887493Y-82864035D01*
G37*
D13*
X130500000Y-83500000D03*
D12*
G36*
X130887493Y-81289035D02*
X130918435Y-81293625D01*
X130948778Y-81301225D01*
X130978230Y-81311763D01*
X131006508Y-81325138D01*
X131033338Y-81341219D01*
X131058463Y-81359853D01*
X131081640Y-81380860D01*
X131102647Y-81404037D01*
X131121281Y-81429162D01*
X131137362Y-81455992D01*
X131150737Y-81484270D01*
X131161275Y-81513722D01*
X131168875Y-81544065D01*
X131173465Y-81575007D01*
X131175000Y-81606250D01*
X131175000Y-82243750D01*
X131173465Y-82274993D01*
X131168875Y-82305935D01*
X131161275Y-82336278D01*
X131150737Y-82365730D01*
X131137362Y-82394008D01*
X131121281Y-82420838D01*
X131102647Y-82445963D01*
X131081640Y-82469140D01*
X131058463Y-82490147D01*
X131033338Y-82508781D01*
X131006508Y-82524862D01*
X130978230Y-82538237D01*
X130948778Y-82548775D01*
X130918435Y-82556375D01*
X130887493Y-82560965D01*
X130856250Y-82562500D01*
X130143750Y-82562500D01*
X130112507Y-82560965D01*
X130081565Y-82556375D01*
X130051222Y-82548775D01*
X130021770Y-82538237D01*
X129993492Y-82524862D01*
X129966662Y-82508781D01*
X129941537Y-82490147D01*
X129918360Y-82469140D01*
X129897353Y-82445963D01*
X129878719Y-82420838D01*
X129862638Y-82394008D01*
X129849263Y-82365730D01*
X129838725Y-82336278D01*
X129831125Y-82305935D01*
X129826535Y-82274993D01*
X129825000Y-82243750D01*
X129825000Y-81606250D01*
X129826535Y-81575007D01*
X129831125Y-81544065D01*
X129838725Y-81513722D01*
X129849263Y-81484270D01*
X129862638Y-81455992D01*
X129878719Y-81429162D01*
X129897353Y-81404037D01*
X129918360Y-81380860D01*
X129941537Y-81359853D01*
X129966662Y-81341219D01*
X129993492Y-81325138D01*
X130021770Y-81311763D01*
X130051222Y-81301225D01*
X130081565Y-81293625D01*
X130112507Y-81289035D01*
X130143750Y-81287500D01*
X130856250Y-81287500D01*
X130887493Y-81289035D01*
X130887493Y-81289035D01*
G37*
D13*
X130500000Y-81925000D03*
G04 #@! TD*
D17*
G04 #@! TO.C,RN1*
X141150000Y-87600000D03*
X141150000Y-88400000D03*
X141150000Y-86800000D03*
X141150000Y-89200000D03*
X142850000Y-86800000D03*
X142850000Y-87600000D03*
X142850000Y-88400000D03*
X142850000Y-89200000D03*
G04 #@! TD*
D18*
G04 #@! TO.C,U1*
X124000000Y-95000000D03*
X126000000Y-94050000D03*
X126000000Y-95950000D03*
G04 #@! TD*
D19*
G04 #@! TO.C,U2*
X100200000Y-92150000D03*
X99400000Y-92150000D03*
X98600000Y-92150000D03*
X97800000Y-92150000D03*
X97800000Y-89850000D03*
X98600000Y-89850000D03*
X99400000Y-89850000D03*
X100200000Y-89850000D03*
G04 #@! TD*
D20*
G04 #@! TO.C,U3*
X119200000Y-80600000D03*
X117200000Y-80600000D03*
X115200000Y-80600000D03*
X113200000Y-80600000D03*
X111200000Y-80600000D03*
X109200000Y-80600000D03*
X107200000Y-80600000D03*
X105200000Y-80600000D03*
X105200000Y-96600000D03*
X107200000Y-96600000D03*
X109200000Y-96600000D03*
X111200000Y-96600000D03*
X113200000Y-96600000D03*
X115200000Y-96600000D03*
X117200000Y-96600000D03*
X119200000Y-96600000D03*
G04 #@! TD*
D21*
G04 #@! TO.C,U4*
X132000000Y-89475000D03*
D22*
X132500000Y-89300000D03*
X133000000Y-89300000D03*
X133500000Y-89300000D03*
D21*
X134000000Y-89475000D03*
D23*
X134475000Y-89000000D03*
D24*
X134300000Y-88500000D03*
X134300000Y-88000000D03*
X134300000Y-87500000D03*
D23*
X134475000Y-87000000D03*
D21*
X134000000Y-86525000D03*
D22*
X133500000Y-86700000D03*
X133000000Y-86700000D03*
X132500000Y-86700000D03*
D21*
X132000000Y-86525000D03*
D23*
X131525000Y-87000000D03*
D24*
X131700000Y-87500000D03*
X131700000Y-88000000D03*
X131700000Y-88500000D03*
D23*
X131525000Y-89000000D03*
D25*
X132075000Y-89225000D03*
X133925000Y-89225000D03*
X134225000Y-88925000D03*
X134225000Y-87075000D03*
X133925000Y-86775000D03*
X132075000Y-86775000D03*
X131775000Y-87075000D03*
X131775000Y-88925000D03*
D26*
X131700000Y-89000000D03*
D12*
G36*
X131851321Y-89000000D02*
X131700000Y-89151321D01*
X131548679Y-89000000D01*
X131700000Y-88848679D01*
X131851321Y-89000000D01*
X131851321Y-89000000D01*
G37*
D26*
X131700000Y-87000000D03*
D12*
G36*
X131851321Y-87000000D02*
X131700000Y-87151321D01*
X131548679Y-87000000D01*
X131700000Y-86848679D01*
X131851321Y-87000000D01*
X131851321Y-87000000D01*
G37*
D26*
X134300000Y-89000000D03*
D12*
G36*
X134451321Y-89000000D02*
X134300000Y-89151321D01*
X134148679Y-89000000D01*
X134300000Y-88848679D01*
X134451321Y-89000000D01*
X134451321Y-89000000D01*
G37*
D26*
X134300000Y-87000000D03*
D12*
G36*
X134451321Y-87000000D02*
X134300000Y-87151321D01*
X134148679Y-87000000D01*
X134300000Y-86848679D01*
X134451321Y-87000000D01*
X134451321Y-87000000D01*
G37*
D26*
X132000000Y-89300000D03*
D12*
G36*
X132151321Y-89300000D02*
X132000000Y-89451321D01*
X131848679Y-89300000D01*
X132000000Y-89148679D01*
X132151321Y-89300000D01*
X132151321Y-89300000D01*
G37*
D26*
X132000000Y-86700000D03*
D12*
G36*
X132151321Y-86700000D02*
X132000000Y-86851321D01*
X131848679Y-86700000D01*
X132000000Y-86548679D01*
X132151321Y-86700000D01*
X132151321Y-86700000D01*
G37*
D26*
X134000000Y-89300000D03*
D12*
G36*
X134151321Y-89300000D02*
X134000000Y-89451321D01*
X133848679Y-89300000D01*
X134000000Y-89148679D01*
X134151321Y-89300000D01*
X134151321Y-89300000D01*
G37*
D26*
X134000000Y-86700000D03*
D12*
G36*
X134151321Y-86700000D02*
X134000000Y-86851321D01*
X133848679Y-86700000D01*
X134000000Y-86548679D01*
X134151321Y-86700000D01*
X134151321Y-86700000D01*
G37*
D27*
X133900000Y-88900000D03*
X133900000Y-87100000D03*
X132100000Y-87100000D03*
X132100000Y-88900000D03*
G04 #@! TD*
D16*
G04 #@! TO.C,REF\002A\002A*
X107790000Y-100250000D03*
D15*
X105250000Y-100250000D03*
G04 #@! TD*
D10*
G04 #@! TO.C,REF\002A\002A*
X99000000Y-79000000D03*
G04 #@! TD*
M02*
