G04 #@! TF.GenerationSoftware,KiCad,Pcbnew,(5.0.0)*
G04 #@! TF.CreationDate,2019-02-27T16:54:38+00:00*
G04 #@! TF.ProjectId,rain,7261696E2E6B696361645F7063620000,rev?*
G04 #@! TF.SameCoordinates,Original*
G04 #@! TF.FileFunction,Copper,L2,Bot,Signal*
G04 #@! TF.FilePolarity,Positive*
%FSLAX46Y46*%
G04 Gerber Fmt 4.6, Leading zero omitted, Abs format (unit mm)*
G04 Created by KiCad (PCBNEW (5.0.0)) date 02/27/19 16:54:38*
%MOMM*%
%LPD*%
G01*
G04 APERTURE LIST*
G04 #@! TA.AperFunction,ComponentPad*
%ADD10C,2.290000*%
G04 #@! TD*
G04 #@! TA.AperFunction,ComponentPad*
%ADD11R,1.700000X1.700000*%
G04 #@! TD*
G04 #@! TA.AperFunction,ComponentPad*
%ADD12O,1.700000X1.700000*%
G04 #@! TD*
G04 #@! TA.AperFunction,SMDPad,CuDef*
%ADD13R,2.000000X1.450000*%
G04 #@! TD*
G04 #@! TA.AperFunction,SMDPad,CuDef*
%ADD14R,1.500000X0.800000*%
G04 #@! TD*
G04 #@! TA.AperFunction,ViaPad*
%ADD15C,0.800000*%
G04 #@! TD*
G04 #@! TA.AperFunction,Conductor*
%ADD16C,0.250000*%
G04 #@! TD*
G04 #@! TA.AperFunction,Conductor*
%ADD17C,0.254000*%
G04 #@! TD*
G04 APERTURE END LIST*
D10*
G04 #@! TO.P,BT1,1*
G04 #@! TO.N,+VDC*
X125600000Y-88200000D03*
G04 #@! TO.P,BT1,2*
G04 #@! TO.N,GND*
X102740000Y-88200000D03*
G04 #@! TD*
D11*
G04 #@! TO.P,J1,1*
G04 #@! TO.N,+VDC*
X131000000Y-78000000D03*
D12*
G04 #@! TO.P,J1,2*
G04 #@! TO.N,/MCU_RESET*
X133540000Y-78000000D03*
G04 #@! TO.P,J1,3*
G04 #@! TO.N,/BOOT0*
X136080000Y-78000000D03*
G04 #@! TO.P,J1,4*
G04 #@! TO.N,/SWDIO*
X138620000Y-78000000D03*
G04 #@! TO.P,J1,5*
G04 #@! TO.N,/SWCLK*
X141160000Y-78000000D03*
G04 #@! TO.P,J1,6*
G04 #@! TO.N,GND*
X143700000Y-78000000D03*
G04 #@! TD*
D13*
G04 #@! TO.P,J2,9*
G04 #@! TO.N,GND*
X141750000Y-81625000D03*
X133450000Y-81625000D03*
X141750000Y-95375000D03*
X133450000Y-95375000D03*
D14*
G04 #@! TO.P,J2,8*
G04 #@! TO.N,/SD_DAT1*
X139150000Y-84075000D03*
G04 #@! TO.P,J2,7*
G04 #@! TO.N,/SPI1_MISO*
X139150000Y-85175000D03*
G04 #@! TO.P,J2,6*
G04 #@! TO.N,GND*
X139150000Y-86275000D03*
G04 #@! TO.P,J2,5*
G04 #@! TO.N,/SPI1_SCK*
X139150000Y-87375000D03*
G04 #@! TO.P,J2,4*
G04 #@! TO.N,VDD*
X139150000Y-88475000D03*
G04 #@! TO.P,J2,3*
G04 #@! TO.N,/SPI1_MOSI*
X139150000Y-89575000D03*
G04 #@! TO.P,J2,2*
G04 #@! TO.N,/SPI1_SS*
X139150000Y-90675000D03*
G04 #@! TO.P,J2,1*
G04 #@! TO.N,/SD_DAT2*
X139150000Y-91775000D03*
G04 #@! TD*
D11*
G04 #@! TO.P,J3,1*
G04 #@! TO.N,VDD*
X128250000Y-78000000D03*
D12*
G04 #@! TO.P,J3,2*
G04 #@! TO.N,/UART2_TX*
X125710000Y-78000000D03*
G04 #@! TO.P,J3,3*
G04 #@! TO.N,/UART2_RX*
X123170000Y-78000000D03*
G04 #@! TO.P,J3,4*
G04 #@! TO.N,GND*
X120630000Y-78000000D03*
G04 #@! TD*
G04 #@! TO.P,REF\002A\002A,2*
G04 #@! TO.N,GND*
X107790000Y-100250000D03*
D11*
G04 #@! TO.P,REF\002A\002A,1*
G04 #@! TO.N,/ANT*
X105250000Y-100250000D03*
G04 #@! TD*
D15*
G04 #@! TO.N,GND*
X135250000Y-81750000D03*
X127000000Y-97750000D03*
X120750000Y-97500000D03*
X107250000Y-98500000D03*
X107750000Y-92500000D03*
X103750000Y-92250000D03*
X103250000Y-101250000D03*
X103250000Y-100250000D03*
X103250000Y-99250000D03*
X103250000Y-98250000D03*
X104250000Y-98500000D03*
X106000000Y-98500000D03*
X139250000Y-82750000D03*
G04 #@! TO.N,VDD*
X137500000Y-88500000D03*
G04 #@! TO.N,/MCU_RESET*
X127250000Y-89775000D03*
X129000000Y-82000000D03*
G04 #@! TO.N,/BOOT0*
X130500000Y-89750000D03*
G04 #@! TO.N,/SWDIO*
X129750000Y-85750000D03*
G04 #@! TO.N,/SWCLK*
X130500000Y-87250000D03*
G04 #@! TO.N,/SD_DAT1*
X140750000Y-84250000D03*
G04 #@! TO.N,/SPI1_MISO*
X137500000Y-85250000D03*
X113250000Y-93074979D03*
G04 #@! TO.N,/SPI1_SCK*
X137500000Y-87250000D03*
X112000000Y-91000000D03*
G04 #@! TO.N,/SPI1_MOSI*
X113750000Y-91000000D03*
X135749993Y-85775313D03*
G04 #@! TO.N,/SPI1_SS*
X135750000Y-89000000D03*
G04 #@! TO.N,/SD_DAT2*
X140750000Y-90500000D03*
G04 #@! TO.N,/I2C1_SDA*
X103500000Y-94524989D03*
X101000000Y-93999976D03*
G04 #@! TO.N,/LORA_SS*
X135164221Y-89810473D03*
X111250000Y-89250000D03*
G04 #@! TO.N,/LORA_RESET*
X109750000Y-88500000D03*
X128750000Y-90500000D03*
G04 #@! TO.N,/LORA_INT1*
X134250000Y-90250000D03*
X120250000Y-91500000D03*
G04 #@! TD*
D16*
G04 #@! TO.N,+VDC*
X126744999Y-87055001D02*
X125600000Y-88200000D01*
X126944999Y-87055001D02*
X126744999Y-87055001D01*
X128574987Y-85425013D02*
X126944999Y-87055001D01*
X128574987Y-84946449D02*
X128574987Y-85425013D01*
X131000000Y-78000000D02*
X131000000Y-82521436D01*
X131000000Y-82521436D02*
X128574987Y-84946449D01*
G04 #@! TO.N,GND*
X137451998Y-86275000D02*
X136750000Y-85573002D01*
X139150000Y-86275000D02*
X137451998Y-86275000D01*
X136774999Y-84975001D02*
X136774999Y-84725001D01*
X136750000Y-85573002D02*
X136750000Y-85000000D01*
X136750000Y-85000000D02*
X136774999Y-84975001D01*
X136774999Y-84725001D02*
X138750000Y-82750000D01*
X138750000Y-82750000D02*
X139250000Y-82750000D01*
G04 #@! TO.N,VDD*
X139125000Y-88500000D02*
X139150000Y-88475000D01*
X137500000Y-88500000D02*
X139125000Y-88500000D01*
G04 #@! TO.N,/MCU_RESET*
X124129999Y-88905601D02*
X124129999Y-84620001D01*
X127250000Y-89775000D02*
X124999398Y-89775000D01*
X124999398Y-89775000D02*
X124129999Y-88905601D01*
X124129999Y-84620001D02*
X126750000Y-82000000D01*
X126750000Y-82000000D02*
X129000000Y-82000000D01*
G04 #@! TO.N,/BOOT0*
X129024998Y-88274998D02*
X129024998Y-85132848D01*
X130500000Y-89750000D02*
X129024998Y-88274998D01*
X129024998Y-85132848D02*
X129157846Y-85000000D01*
X136080000Y-79202081D02*
X136080000Y-78000000D01*
X129157846Y-85000000D02*
X134227180Y-85000000D01*
X134227180Y-85000000D02*
X136080000Y-83147180D01*
X136080000Y-83147180D02*
X136080000Y-79202081D01*
G04 #@! TO.N,/SWDIO*
X138620000Y-81243590D02*
X134113590Y-85750000D01*
X130315685Y-85750000D02*
X129750000Y-85750000D01*
X138620000Y-78000000D02*
X138620000Y-81243590D01*
X134113590Y-85750000D02*
X130315685Y-85750000D01*
G04 #@! TO.N,/SWCLK*
X140310001Y-78849999D02*
X141160000Y-78000000D01*
X139070011Y-81429989D02*
X139070011Y-80089989D01*
X130500000Y-87250000D02*
X133250000Y-87250000D01*
X139070011Y-80089989D02*
X140310001Y-78849999D01*
X133250000Y-87250000D02*
X139070011Y-81429989D01*
G04 #@! TO.N,/SD_DAT1*
X139325000Y-84250000D02*
X139150000Y-84075000D01*
X140750000Y-84250000D02*
X139325000Y-84250000D01*
G04 #@! TO.N,/SPI1_MISO*
X139075000Y-85250000D02*
X139150000Y-85175000D01*
X137500000Y-85250000D02*
X139075000Y-85250000D01*
X113899999Y-93724978D02*
X113649999Y-93474978D01*
X140150000Y-85175000D02*
X142500000Y-87525000D01*
X113649999Y-93474978D02*
X113250000Y-93074979D01*
X142500000Y-87525000D02*
X142500000Y-92500000D01*
X139150000Y-85175000D02*
X140150000Y-85175000D01*
X141275022Y-93724978D02*
X113899999Y-93724978D01*
X142500000Y-92500000D02*
X141275022Y-93724978D01*
G04 #@! TO.N,/SPI1_SCK*
X139025000Y-87250000D02*
X139150000Y-87375000D01*
X137500000Y-87250000D02*
X139025000Y-87250000D01*
X140750000Y-87250000D02*
X137500000Y-87250000D01*
X112500000Y-91000000D02*
X114750000Y-93250000D01*
X112000000Y-91000000D02*
X112500000Y-91000000D01*
X114750000Y-93250000D02*
X140750000Y-93250000D01*
X140750000Y-93250000D02*
X142000000Y-92000000D01*
X142000000Y-92000000D02*
X142000000Y-88500000D01*
X142000000Y-88500000D02*
X140750000Y-87250000D01*
G04 #@! TO.N,/SPI1_MOSI*
X115500000Y-92750000D02*
X113750000Y-91000000D01*
X133459412Y-92750000D02*
X115500000Y-92750000D01*
X141075000Y-89575000D02*
X141500000Y-90000000D01*
X139150000Y-89575000D02*
X141075000Y-89575000D01*
X141500000Y-90000000D02*
X141500000Y-91500000D01*
X141500000Y-91500000D02*
X140500000Y-92500000D01*
X140500000Y-92500000D02*
X133709412Y-92500000D01*
X133709412Y-92500000D02*
X133459412Y-92750000D01*
X135749993Y-86340998D02*
X135749993Y-85775313D01*
X135749993Y-87926991D02*
X135749993Y-86340998D01*
X137398002Y-89575000D02*
X135749993Y-87926991D01*
X139150000Y-89575000D02*
X137398002Y-89575000D01*
G04 #@! TO.N,/SPI1_SS*
X138150000Y-90675000D02*
X139150000Y-90675000D01*
X137101750Y-90675000D02*
X138150000Y-90675000D01*
X135750000Y-89323250D02*
X137101750Y-90675000D01*
X135750000Y-89000000D02*
X135750000Y-89323250D01*
G04 #@! TO.N,/SD_DAT2*
X140750000Y-90810002D02*
X140750000Y-90500000D01*
X139150000Y-91775000D02*
X139785002Y-91775000D01*
X139785002Y-91775000D02*
X140750000Y-90810002D01*
G04 #@! TO.N,/I2C1_SDA*
X103500000Y-94524989D02*
X101525013Y-94524989D01*
X101000048Y-94000024D02*
X101000000Y-93999976D01*
X101525013Y-94524989D02*
X101000048Y-94000024D01*
G04 #@! TO.N,/LORA_SS*
X113250000Y-89250000D02*
X111250000Y-89250000D01*
X116250000Y-92250000D02*
X113250000Y-89250000D01*
X133323002Y-92250000D02*
X116250000Y-92250000D01*
X135164221Y-89810473D02*
X135164221Y-90408781D01*
X135164221Y-90408781D02*
X133323002Y-92250000D01*
G04 #@! TO.N,/LORA_RESET*
X128500000Y-90750000D02*
X128750000Y-90500000D01*
X116000000Y-90750000D02*
X128500000Y-90750000D01*
X113350001Y-88100001D02*
X116000000Y-90750000D01*
X109750000Y-88500000D02*
X110149999Y-88100001D01*
X110149999Y-88100001D02*
X113350001Y-88100001D01*
G04 #@! TO.N,/LORA_INT1*
X120815685Y-91500000D02*
X120250000Y-91500000D01*
X121065685Y-91750000D02*
X120815685Y-91500000D01*
X134250000Y-90250000D02*
X132750000Y-91750000D01*
X132750000Y-91750000D02*
X121065685Y-91750000D01*
G04 #@! TD*
D17*
G04 #@! TO.N,GND*
G36*
X122099375Y-76929375D02*
X121771161Y-77420582D01*
X121655908Y-78000000D01*
X121771161Y-78579418D01*
X122099375Y-79070625D01*
X122590582Y-79398839D01*
X123023744Y-79485000D01*
X123316256Y-79485000D01*
X123749418Y-79398839D01*
X124240625Y-79070625D01*
X124440000Y-78772239D01*
X124639375Y-79070625D01*
X125130582Y-79398839D01*
X125563744Y-79485000D01*
X125856256Y-79485000D01*
X126289418Y-79398839D01*
X126780625Y-79070625D01*
X126792816Y-79052381D01*
X126801843Y-79097765D01*
X126942191Y-79307809D01*
X127152235Y-79448157D01*
X127400000Y-79497440D01*
X129100000Y-79497440D01*
X129347765Y-79448157D01*
X129557809Y-79307809D01*
X129625000Y-79207251D01*
X129692191Y-79307809D01*
X129902235Y-79448157D01*
X130150000Y-79497440D01*
X130240000Y-79497440D01*
X130240001Y-82206633D01*
X129889506Y-82557128D01*
X130035000Y-82205874D01*
X130035000Y-81794126D01*
X129877431Y-81413720D01*
X129586280Y-81122569D01*
X129205874Y-80965000D01*
X128794126Y-80965000D01*
X128413720Y-81122569D01*
X128296289Y-81240000D01*
X126824847Y-81240000D01*
X126750000Y-81225112D01*
X126675153Y-81240000D01*
X126675148Y-81240000D01*
X126453463Y-81284096D01*
X126202071Y-81452071D01*
X126159671Y-81515527D01*
X123645527Y-84029672D01*
X123582071Y-84072072D01*
X123539671Y-84135528D01*
X123539670Y-84135529D01*
X123414096Y-84323464D01*
X123355111Y-84620001D01*
X123370000Y-84694853D01*
X123369999Y-88830754D01*
X123355111Y-88905601D01*
X123369999Y-88980448D01*
X123369999Y-88980452D01*
X123414095Y-89202137D01*
X123582070Y-89453530D01*
X123645529Y-89495932D01*
X124139596Y-89990000D01*
X116314802Y-89990000D01*
X113940332Y-87615531D01*
X113897930Y-87552072D01*
X113646538Y-87384097D01*
X113424853Y-87340001D01*
X113424848Y-87340001D01*
X113350001Y-87325113D01*
X113275154Y-87340001D01*
X110224845Y-87340001D01*
X110149998Y-87325113D01*
X110075151Y-87340001D01*
X110075147Y-87340001D01*
X109853462Y-87384097D01*
X109732382Y-87465000D01*
X109544126Y-87465000D01*
X109163720Y-87622569D01*
X108872569Y-87913720D01*
X108715000Y-88294126D01*
X108715000Y-88705874D01*
X108872569Y-89086280D01*
X109163720Y-89377431D01*
X109544126Y-89535000D01*
X109955874Y-89535000D01*
X110215000Y-89427667D01*
X110215000Y-89455874D01*
X110372569Y-89836280D01*
X110663720Y-90127431D01*
X111044126Y-90285000D01*
X111251289Y-90285000D01*
X111122569Y-90413720D01*
X110965000Y-90794126D01*
X110965000Y-91205874D01*
X111122569Y-91586280D01*
X111413720Y-91877431D01*
X111794126Y-92035000D01*
X112205874Y-92035000D01*
X112385709Y-91960510D01*
X112643233Y-92218035D01*
X112372569Y-92488699D01*
X112215000Y-92869105D01*
X112215000Y-93280853D01*
X112372569Y-93661259D01*
X112663720Y-93952410D01*
X113044126Y-94109979D01*
X113210199Y-94109979D01*
X113309669Y-94209450D01*
X113352070Y-94272907D01*
X113603462Y-94440882D01*
X113825147Y-94484978D01*
X113825151Y-94484978D01*
X113899998Y-94499866D01*
X113974845Y-94484978D01*
X141200175Y-94484978D01*
X141275022Y-94499866D01*
X141349869Y-94484978D01*
X141349874Y-94484978D01*
X141571559Y-94440882D01*
X141822951Y-94272907D01*
X141865353Y-94209448D01*
X142984473Y-93090329D01*
X143047929Y-93047929D01*
X143215904Y-92796537D01*
X143260000Y-92574852D01*
X143260000Y-92574848D01*
X143274888Y-92500000D01*
X143260000Y-92425152D01*
X143260000Y-87599847D01*
X143274888Y-87525000D01*
X143260000Y-87450153D01*
X143260000Y-87450148D01*
X143215904Y-87228463D01*
X143047929Y-86977071D01*
X142984473Y-86934671D01*
X141223816Y-85174015D01*
X141336280Y-85127431D01*
X141627431Y-84836280D01*
X141785000Y-84455874D01*
X141785000Y-84044126D01*
X141627431Y-83663720D01*
X141336280Y-83372569D01*
X140955874Y-83215000D01*
X140544126Y-83215000D01*
X140397051Y-83275920D01*
X140357809Y-83217191D01*
X140147765Y-83076843D01*
X139900000Y-83027560D01*
X138547243Y-83027560D01*
X139554487Y-82020316D01*
X139617940Y-81977918D01*
X139660338Y-81914465D01*
X139660340Y-81914463D01*
X139744113Y-81789087D01*
X139785915Y-81726526D01*
X139830011Y-81504841D01*
X139830011Y-81504837D01*
X139844899Y-81429990D01*
X139830011Y-81355143D01*
X139830011Y-80404790D01*
X140793593Y-79441209D01*
X141013744Y-79485000D01*
X141306256Y-79485000D01*
X141739418Y-79398839D01*
X142230625Y-79070625D01*
X142558839Y-78579418D01*
X142674092Y-78000000D01*
X142558839Y-77420582D01*
X142230625Y-76929375D01*
X141939722Y-76735000D01*
X144055754Y-76735000D01*
X144105655Y-76744926D01*
X144195225Y-76804774D01*
X144255074Y-76894345D01*
X144265000Y-76944246D01*
X144265001Y-101055749D01*
X144255074Y-101105655D01*
X144195225Y-101195226D01*
X144105655Y-101255074D01*
X144055754Y-101265000D01*
X106714620Y-101265000D01*
X106747440Y-101100000D01*
X106747440Y-99400000D01*
X106698157Y-99152235D01*
X106557809Y-98942191D01*
X106347765Y-98801843D01*
X106100000Y-98752560D01*
X104400000Y-98752560D01*
X104152235Y-98801843D01*
X103942191Y-98942191D01*
X103801843Y-99152235D01*
X103752560Y-99400000D01*
X103752560Y-101100000D01*
X103785380Y-101265000D01*
X96944246Y-101265000D01*
X96894345Y-101255074D01*
X96804774Y-101195225D01*
X96744926Y-101105655D01*
X96735000Y-101055754D01*
X96735000Y-98605159D01*
X136015000Y-98605159D01*
X136015000Y-99394841D01*
X136317199Y-100124412D01*
X136875588Y-100682801D01*
X137605159Y-100985000D01*
X138394841Y-100985000D01*
X139124412Y-100682801D01*
X139682801Y-100124412D01*
X139985000Y-99394841D01*
X139985000Y-98605159D01*
X139682801Y-97875588D01*
X139124412Y-97317199D01*
X138394841Y-97015000D01*
X137605159Y-97015000D01*
X136875588Y-97317199D01*
X136317199Y-97875588D01*
X136015000Y-98605159D01*
X96735000Y-98605159D01*
X96735000Y-93794102D01*
X99965000Y-93794102D01*
X99965000Y-94205850D01*
X100122569Y-94586256D01*
X100413720Y-94877407D01*
X100794126Y-95034976D01*
X100951732Y-95034976D01*
X100977084Y-95072918D01*
X101228476Y-95240893D01*
X101450161Y-95284989D01*
X101450165Y-95284989D01*
X101525013Y-95299877D01*
X101599861Y-95284989D01*
X102796289Y-95284989D01*
X102913720Y-95402420D01*
X103294126Y-95559989D01*
X103705874Y-95559989D01*
X104086280Y-95402420D01*
X104377431Y-95111269D01*
X104535000Y-94730863D01*
X104535000Y-94319115D01*
X104377431Y-93938709D01*
X104086280Y-93647558D01*
X103705874Y-93489989D01*
X103294126Y-93489989D01*
X102913720Y-93647558D01*
X102796289Y-93764989D01*
X102022941Y-93764989D01*
X101877431Y-93413696D01*
X101586280Y-93122545D01*
X101205874Y-92964976D01*
X100794126Y-92964976D01*
X100413720Y-93122545D01*
X100122569Y-93413696D01*
X99965000Y-93794102D01*
X96735000Y-93794102D01*
X96735000Y-78605159D01*
X97015000Y-78605159D01*
X97015000Y-79394841D01*
X97317199Y-80124412D01*
X97875588Y-80682801D01*
X98605159Y-80985000D01*
X99394841Y-80985000D01*
X100124412Y-80682801D01*
X100682801Y-80124412D01*
X100985000Y-79394841D01*
X100985000Y-78605159D01*
X100682801Y-77875588D01*
X100124412Y-77317199D01*
X99394841Y-77015000D01*
X98605159Y-77015000D01*
X97875588Y-77317199D01*
X97317199Y-77875588D01*
X97015000Y-78605159D01*
X96735000Y-78605159D01*
X96735000Y-76944246D01*
X96744926Y-76894345D01*
X96804774Y-76804775D01*
X96894345Y-76744926D01*
X96944246Y-76735000D01*
X122390278Y-76735000D01*
X122099375Y-76929375D01*
X122099375Y-76929375D01*
G37*
X122099375Y-76929375D02*
X121771161Y-77420582D01*
X121655908Y-78000000D01*
X121771161Y-78579418D01*
X122099375Y-79070625D01*
X122590582Y-79398839D01*
X123023744Y-79485000D01*
X123316256Y-79485000D01*
X123749418Y-79398839D01*
X124240625Y-79070625D01*
X124440000Y-78772239D01*
X124639375Y-79070625D01*
X125130582Y-79398839D01*
X125563744Y-79485000D01*
X125856256Y-79485000D01*
X126289418Y-79398839D01*
X126780625Y-79070625D01*
X126792816Y-79052381D01*
X126801843Y-79097765D01*
X126942191Y-79307809D01*
X127152235Y-79448157D01*
X127400000Y-79497440D01*
X129100000Y-79497440D01*
X129347765Y-79448157D01*
X129557809Y-79307809D01*
X129625000Y-79207251D01*
X129692191Y-79307809D01*
X129902235Y-79448157D01*
X130150000Y-79497440D01*
X130240000Y-79497440D01*
X130240001Y-82206633D01*
X129889506Y-82557128D01*
X130035000Y-82205874D01*
X130035000Y-81794126D01*
X129877431Y-81413720D01*
X129586280Y-81122569D01*
X129205874Y-80965000D01*
X128794126Y-80965000D01*
X128413720Y-81122569D01*
X128296289Y-81240000D01*
X126824847Y-81240000D01*
X126750000Y-81225112D01*
X126675153Y-81240000D01*
X126675148Y-81240000D01*
X126453463Y-81284096D01*
X126202071Y-81452071D01*
X126159671Y-81515527D01*
X123645527Y-84029672D01*
X123582071Y-84072072D01*
X123539671Y-84135528D01*
X123539670Y-84135529D01*
X123414096Y-84323464D01*
X123355111Y-84620001D01*
X123370000Y-84694853D01*
X123369999Y-88830754D01*
X123355111Y-88905601D01*
X123369999Y-88980448D01*
X123369999Y-88980452D01*
X123414095Y-89202137D01*
X123582070Y-89453530D01*
X123645529Y-89495932D01*
X124139596Y-89990000D01*
X116314802Y-89990000D01*
X113940332Y-87615531D01*
X113897930Y-87552072D01*
X113646538Y-87384097D01*
X113424853Y-87340001D01*
X113424848Y-87340001D01*
X113350001Y-87325113D01*
X113275154Y-87340001D01*
X110224845Y-87340001D01*
X110149998Y-87325113D01*
X110075151Y-87340001D01*
X110075147Y-87340001D01*
X109853462Y-87384097D01*
X109732382Y-87465000D01*
X109544126Y-87465000D01*
X109163720Y-87622569D01*
X108872569Y-87913720D01*
X108715000Y-88294126D01*
X108715000Y-88705874D01*
X108872569Y-89086280D01*
X109163720Y-89377431D01*
X109544126Y-89535000D01*
X109955874Y-89535000D01*
X110215000Y-89427667D01*
X110215000Y-89455874D01*
X110372569Y-89836280D01*
X110663720Y-90127431D01*
X111044126Y-90285000D01*
X111251289Y-90285000D01*
X111122569Y-90413720D01*
X110965000Y-90794126D01*
X110965000Y-91205874D01*
X111122569Y-91586280D01*
X111413720Y-91877431D01*
X111794126Y-92035000D01*
X112205874Y-92035000D01*
X112385709Y-91960510D01*
X112643233Y-92218035D01*
X112372569Y-92488699D01*
X112215000Y-92869105D01*
X112215000Y-93280853D01*
X112372569Y-93661259D01*
X112663720Y-93952410D01*
X113044126Y-94109979D01*
X113210199Y-94109979D01*
X113309669Y-94209450D01*
X113352070Y-94272907D01*
X113603462Y-94440882D01*
X113825147Y-94484978D01*
X113825151Y-94484978D01*
X113899998Y-94499866D01*
X113974845Y-94484978D01*
X141200175Y-94484978D01*
X141275022Y-94499866D01*
X141349869Y-94484978D01*
X141349874Y-94484978D01*
X141571559Y-94440882D01*
X141822951Y-94272907D01*
X141865353Y-94209448D01*
X142984473Y-93090329D01*
X143047929Y-93047929D01*
X143215904Y-92796537D01*
X143260000Y-92574852D01*
X143260000Y-92574848D01*
X143274888Y-92500000D01*
X143260000Y-92425152D01*
X143260000Y-87599847D01*
X143274888Y-87525000D01*
X143260000Y-87450153D01*
X143260000Y-87450148D01*
X143215904Y-87228463D01*
X143047929Y-86977071D01*
X142984473Y-86934671D01*
X141223816Y-85174015D01*
X141336280Y-85127431D01*
X141627431Y-84836280D01*
X141785000Y-84455874D01*
X141785000Y-84044126D01*
X141627431Y-83663720D01*
X141336280Y-83372569D01*
X140955874Y-83215000D01*
X140544126Y-83215000D01*
X140397051Y-83275920D01*
X140357809Y-83217191D01*
X140147765Y-83076843D01*
X139900000Y-83027560D01*
X138547243Y-83027560D01*
X139554487Y-82020316D01*
X139617940Y-81977918D01*
X139660338Y-81914465D01*
X139660340Y-81914463D01*
X139744113Y-81789087D01*
X139785915Y-81726526D01*
X139830011Y-81504841D01*
X139830011Y-81504837D01*
X139844899Y-81429990D01*
X139830011Y-81355143D01*
X139830011Y-80404790D01*
X140793593Y-79441209D01*
X141013744Y-79485000D01*
X141306256Y-79485000D01*
X141739418Y-79398839D01*
X142230625Y-79070625D01*
X142558839Y-78579418D01*
X142674092Y-78000000D01*
X142558839Y-77420582D01*
X142230625Y-76929375D01*
X141939722Y-76735000D01*
X144055754Y-76735000D01*
X144105655Y-76744926D01*
X144195225Y-76804774D01*
X144255074Y-76894345D01*
X144265000Y-76944246D01*
X144265001Y-101055749D01*
X144255074Y-101105655D01*
X144195225Y-101195226D01*
X144105655Y-101255074D01*
X144055754Y-101265000D01*
X106714620Y-101265000D01*
X106747440Y-101100000D01*
X106747440Y-99400000D01*
X106698157Y-99152235D01*
X106557809Y-98942191D01*
X106347765Y-98801843D01*
X106100000Y-98752560D01*
X104400000Y-98752560D01*
X104152235Y-98801843D01*
X103942191Y-98942191D01*
X103801843Y-99152235D01*
X103752560Y-99400000D01*
X103752560Y-101100000D01*
X103785380Y-101265000D01*
X96944246Y-101265000D01*
X96894345Y-101255074D01*
X96804774Y-101195225D01*
X96744926Y-101105655D01*
X96735000Y-101055754D01*
X96735000Y-98605159D01*
X136015000Y-98605159D01*
X136015000Y-99394841D01*
X136317199Y-100124412D01*
X136875588Y-100682801D01*
X137605159Y-100985000D01*
X138394841Y-100985000D01*
X139124412Y-100682801D01*
X139682801Y-100124412D01*
X139985000Y-99394841D01*
X139985000Y-98605159D01*
X139682801Y-97875588D01*
X139124412Y-97317199D01*
X138394841Y-97015000D01*
X137605159Y-97015000D01*
X136875588Y-97317199D01*
X136317199Y-97875588D01*
X136015000Y-98605159D01*
X96735000Y-98605159D01*
X96735000Y-93794102D01*
X99965000Y-93794102D01*
X99965000Y-94205850D01*
X100122569Y-94586256D01*
X100413720Y-94877407D01*
X100794126Y-95034976D01*
X100951732Y-95034976D01*
X100977084Y-95072918D01*
X101228476Y-95240893D01*
X101450161Y-95284989D01*
X101450165Y-95284989D01*
X101525013Y-95299877D01*
X101599861Y-95284989D01*
X102796289Y-95284989D01*
X102913720Y-95402420D01*
X103294126Y-95559989D01*
X103705874Y-95559989D01*
X104086280Y-95402420D01*
X104377431Y-95111269D01*
X104535000Y-94730863D01*
X104535000Y-94319115D01*
X104377431Y-93938709D01*
X104086280Y-93647558D01*
X103705874Y-93489989D01*
X103294126Y-93489989D01*
X102913720Y-93647558D01*
X102796289Y-93764989D01*
X102022941Y-93764989D01*
X101877431Y-93413696D01*
X101586280Y-93122545D01*
X101205874Y-92964976D01*
X100794126Y-92964976D01*
X100413720Y-93122545D01*
X100122569Y-93413696D01*
X99965000Y-93794102D01*
X96735000Y-93794102D01*
X96735000Y-78605159D01*
X97015000Y-78605159D01*
X97015000Y-79394841D01*
X97317199Y-80124412D01*
X97875588Y-80682801D01*
X98605159Y-80985000D01*
X99394841Y-80985000D01*
X100124412Y-80682801D01*
X100682801Y-80124412D01*
X100985000Y-79394841D01*
X100985000Y-78605159D01*
X100682801Y-77875588D01*
X100124412Y-77317199D01*
X99394841Y-77015000D01*
X98605159Y-77015000D01*
X97875588Y-77317199D01*
X97317199Y-77875588D01*
X97015000Y-78605159D01*
X96735000Y-78605159D01*
X96735000Y-76944246D01*
X96744926Y-76894345D01*
X96804774Y-76804775D01*
X96894345Y-76744926D01*
X96944246Y-76735000D01*
X122390278Y-76735000D01*
X122099375Y-76929375D01*
G36*
X136913720Y-86127431D02*
X137209628Y-86250000D01*
X136913720Y-86372569D01*
X136622569Y-86663720D01*
X136509993Y-86935503D01*
X136509993Y-86479024D01*
X136627424Y-86361593D01*
X136779862Y-85993573D01*
X136913720Y-86127431D01*
X136913720Y-86127431D01*
G37*
X136913720Y-86127431D02*
X137209628Y-86250000D01*
X136913720Y-86372569D01*
X136622569Y-86663720D01*
X136509993Y-86935503D01*
X136509993Y-86479024D01*
X136627424Y-86361593D01*
X136779862Y-85993573D01*
X136913720Y-86127431D01*
G36*
X138152235Y-86173157D02*
X138400000Y-86222440D01*
X139900000Y-86222440D01*
X140085701Y-86185502D01*
X140390199Y-86490000D01*
X140317115Y-86490000D01*
X140147765Y-86376843D01*
X139900000Y-86327560D01*
X138400000Y-86327560D01*
X138152235Y-86376843D01*
X138115260Y-86401549D01*
X138086280Y-86372569D01*
X137790372Y-86250000D01*
X138084750Y-86128065D01*
X138152235Y-86173157D01*
X138152235Y-86173157D01*
G37*
X138152235Y-86173157D02*
X138400000Y-86222440D01*
X139900000Y-86222440D01*
X140085701Y-86185502D01*
X140390199Y-86490000D01*
X140317115Y-86490000D01*
X140147765Y-86376843D01*
X139900000Y-86327560D01*
X138400000Y-86327560D01*
X138152235Y-86376843D01*
X138115260Y-86401549D01*
X138086280Y-86372569D01*
X137790372Y-86250000D01*
X138084750Y-86128065D01*
X138152235Y-86173157D01*
G36*
X135009375Y-79070625D02*
X135320001Y-79278179D01*
X135320000Y-82832378D01*
X133912379Y-84240000D01*
X130356238Y-84240000D01*
X131484473Y-83111765D01*
X131547929Y-83069365D01*
X131715904Y-82817973D01*
X131760000Y-82596288D01*
X131760000Y-82596284D01*
X131774888Y-82521437D01*
X131760000Y-82446590D01*
X131760000Y-79497440D01*
X131850000Y-79497440D01*
X132097765Y-79448157D01*
X132307809Y-79307809D01*
X132448157Y-79097765D01*
X132457184Y-79052381D01*
X132469375Y-79070625D01*
X132960582Y-79398839D01*
X133393744Y-79485000D01*
X133686256Y-79485000D01*
X134119418Y-79398839D01*
X134610625Y-79070625D01*
X134810000Y-78772239D01*
X135009375Y-79070625D01*
X135009375Y-79070625D01*
G37*
X135009375Y-79070625D02*
X135320001Y-79278179D01*
X135320000Y-82832378D01*
X133912379Y-84240000D01*
X130356238Y-84240000D01*
X131484473Y-83111765D01*
X131547929Y-83069365D01*
X131715904Y-82817973D01*
X131760000Y-82596288D01*
X131760000Y-82596284D01*
X131774888Y-82521437D01*
X131760000Y-82446590D01*
X131760000Y-79497440D01*
X131850000Y-79497440D01*
X132097765Y-79448157D01*
X132307809Y-79307809D01*
X132448157Y-79097765D01*
X132457184Y-79052381D01*
X132469375Y-79070625D01*
X132960582Y-79398839D01*
X133393744Y-79485000D01*
X133686256Y-79485000D01*
X134119418Y-79398839D01*
X134610625Y-79070625D01*
X134810000Y-78772239D01*
X135009375Y-79070625D01*
G04 #@! TD*
M02*
