G04 #@! TF.GenerationSoftware,KiCad,Pcbnew,(5.0.0)*
G04 #@! TF.CreationDate,2019-02-27T16:54:38+00:00*
G04 #@! TF.ProjectId,rain,7261696E2E6B696361645F7063620000,rev?*
G04 #@! TF.SameCoordinates,Original*
G04 #@! TF.FileFunction,Copper,L1,Top,Signal*
G04 #@! TF.FilePolarity,Positive*
%FSLAX46Y46*%
G04 Gerber Fmt 4.6, Leading zero omitted, Abs format (unit mm)*
G04 Created by KiCad (PCBNEW (5.0.0)) date 02/27/19 16:54:38*
%MOMM*%
%LPD*%
G01*
G04 APERTURE LIST*
G04 #@! TA.AperFunction,ComponentPad*
%ADD10C,2.290000*%
G04 #@! TD*
G04 #@! TA.AperFunction,Conductor*
%ADD11C,0.100000*%
G04 #@! TD*
G04 #@! TA.AperFunction,SMDPad,CuDef*
%ADD12C,0.875000*%
G04 #@! TD*
G04 #@! TA.AperFunction,SMDPad,CuDef*
%ADD13R,0.500000X0.500000*%
G04 #@! TD*
G04 #@! TA.AperFunction,ComponentPad*
%ADD14R,1.700000X1.700000*%
G04 #@! TD*
G04 #@! TA.AperFunction,ComponentPad*
%ADD15O,1.700000X1.700000*%
G04 #@! TD*
G04 #@! TA.AperFunction,SMDPad,CuDef*
%ADD16R,0.900000X0.400000*%
G04 #@! TD*
G04 #@! TA.AperFunction,SMDPad,CuDef*
%ADD17R,0.900000X0.800000*%
G04 #@! TD*
G04 #@! TA.AperFunction,SMDPad,CuDef*
%ADD18R,0.400000X0.550000*%
G04 #@! TD*
G04 #@! TA.AperFunction,SMDPad,CuDef*
%ADD19R,1.000000X2.000000*%
G04 #@! TD*
G04 #@! TA.AperFunction,SMDPad,CuDef*
%ADD20R,0.300000X0.350000*%
G04 #@! TD*
G04 #@! TA.AperFunction,SMDPad,CuDef*
%ADD21R,0.300000X0.700000*%
G04 #@! TD*
G04 #@! TA.AperFunction,SMDPad,CuDef*
%ADD22R,0.350000X0.300000*%
G04 #@! TD*
G04 #@! TA.AperFunction,SMDPad,CuDef*
%ADD23R,0.700000X0.300000*%
G04 #@! TD*
G04 #@! TA.AperFunction,SMDPad,CuDef*
%ADD24R,0.150000X0.150000*%
G04 #@! TD*
G04 #@! TA.AperFunction,SMDPad,CuDef*
%ADD25C,0.212000*%
G04 #@! TD*
G04 #@! TA.AperFunction,ViaPad*
%ADD26C,0.800000*%
G04 #@! TD*
G04 #@! TA.AperFunction,Conductor*
%ADD27C,0.250000*%
G04 #@! TD*
G04 #@! TA.AperFunction,Conductor*
%ADD28C,0.254000*%
G04 #@! TD*
G04 APERTURE END LIST*
D10*
G04 #@! TO.P,BT1,1*
G04 #@! TO.N,+VDC*
X125600000Y-88200000D03*
G04 #@! TO.P,BT1,2*
G04 #@! TO.N,GND*
X102740000Y-88200000D03*
G04 #@! TD*
D11*
G04 #@! TO.N,VDD*
G04 #@! TO.C,C1*
G36*
X97665191Y-86526053D02*
X97686426Y-86529203D01*
X97707250Y-86534419D01*
X97727462Y-86541651D01*
X97746868Y-86550830D01*
X97765281Y-86561866D01*
X97782524Y-86574654D01*
X97798430Y-86589070D01*
X97812846Y-86604976D01*
X97825634Y-86622219D01*
X97836670Y-86640632D01*
X97845849Y-86660038D01*
X97853081Y-86680250D01*
X97858297Y-86701074D01*
X97861447Y-86722309D01*
X97862500Y-86743750D01*
X97862500Y-87256250D01*
X97861447Y-87277691D01*
X97858297Y-87298926D01*
X97853081Y-87319750D01*
X97845849Y-87339962D01*
X97836670Y-87359368D01*
X97825634Y-87377781D01*
X97812846Y-87395024D01*
X97798430Y-87410930D01*
X97782524Y-87425346D01*
X97765281Y-87438134D01*
X97746868Y-87449170D01*
X97727462Y-87458349D01*
X97707250Y-87465581D01*
X97686426Y-87470797D01*
X97665191Y-87473947D01*
X97643750Y-87475000D01*
X97206250Y-87475000D01*
X97184809Y-87473947D01*
X97163574Y-87470797D01*
X97142750Y-87465581D01*
X97122538Y-87458349D01*
X97103132Y-87449170D01*
X97084719Y-87438134D01*
X97067476Y-87425346D01*
X97051570Y-87410930D01*
X97037154Y-87395024D01*
X97024366Y-87377781D01*
X97013330Y-87359368D01*
X97004151Y-87339962D01*
X96996919Y-87319750D01*
X96991703Y-87298926D01*
X96988553Y-87277691D01*
X96987500Y-87256250D01*
X96987500Y-86743750D01*
X96988553Y-86722309D01*
X96991703Y-86701074D01*
X96996919Y-86680250D01*
X97004151Y-86660038D01*
X97013330Y-86640632D01*
X97024366Y-86622219D01*
X97037154Y-86604976D01*
X97051570Y-86589070D01*
X97067476Y-86574654D01*
X97084719Y-86561866D01*
X97103132Y-86550830D01*
X97122538Y-86541651D01*
X97142750Y-86534419D01*
X97163574Y-86529203D01*
X97184809Y-86526053D01*
X97206250Y-86525000D01*
X97643750Y-86525000D01*
X97665191Y-86526053D01*
X97665191Y-86526053D01*
G37*
D12*
G04 #@! TD*
G04 #@! TO.P,C1,1*
G04 #@! TO.N,VDD*
X97425000Y-87000000D03*
D11*
G04 #@! TO.N,GND*
G04 #@! TO.C,C1*
G36*
X99240191Y-86526053D02*
X99261426Y-86529203D01*
X99282250Y-86534419D01*
X99302462Y-86541651D01*
X99321868Y-86550830D01*
X99340281Y-86561866D01*
X99357524Y-86574654D01*
X99373430Y-86589070D01*
X99387846Y-86604976D01*
X99400634Y-86622219D01*
X99411670Y-86640632D01*
X99420849Y-86660038D01*
X99428081Y-86680250D01*
X99433297Y-86701074D01*
X99436447Y-86722309D01*
X99437500Y-86743750D01*
X99437500Y-87256250D01*
X99436447Y-87277691D01*
X99433297Y-87298926D01*
X99428081Y-87319750D01*
X99420849Y-87339962D01*
X99411670Y-87359368D01*
X99400634Y-87377781D01*
X99387846Y-87395024D01*
X99373430Y-87410930D01*
X99357524Y-87425346D01*
X99340281Y-87438134D01*
X99321868Y-87449170D01*
X99302462Y-87458349D01*
X99282250Y-87465581D01*
X99261426Y-87470797D01*
X99240191Y-87473947D01*
X99218750Y-87475000D01*
X98781250Y-87475000D01*
X98759809Y-87473947D01*
X98738574Y-87470797D01*
X98717750Y-87465581D01*
X98697538Y-87458349D01*
X98678132Y-87449170D01*
X98659719Y-87438134D01*
X98642476Y-87425346D01*
X98626570Y-87410930D01*
X98612154Y-87395024D01*
X98599366Y-87377781D01*
X98588330Y-87359368D01*
X98579151Y-87339962D01*
X98571919Y-87319750D01*
X98566703Y-87298926D01*
X98563553Y-87277691D01*
X98562500Y-87256250D01*
X98562500Y-86743750D01*
X98563553Y-86722309D01*
X98566703Y-86701074D01*
X98571919Y-86680250D01*
X98579151Y-86660038D01*
X98588330Y-86640632D01*
X98599366Y-86622219D01*
X98612154Y-86604976D01*
X98626570Y-86589070D01*
X98642476Y-86574654D01*
X98659719Y-86561866D01*
X98678132Y-86550830D01*
X98697538Y-86541651D01*
X98717750Y-86534419D01*
X98738574Y-86529203D01*
X98759809Y-86526053D01*
X98781250Y-86525000D01*
X99218750Y-86525000D01*
X99240191Y-86526053D01*
X99240191Y-86526053D01*
G37*
D12*
G04 #@! TD*
G04 #@! TO.P,C1,2*
G04 #@! TO.N,GND*
X99000000Y-87000000D03*
D11*
G04 #@! TO.N,GND*
G04 #@! TO.C,C2*
G36*
X122277691Y-95563553D02*
X122298926Y-95566703D01*
X122319750Y-95571919D01*
X122339962Y-95579151D01*
X122359368Y-95588330D01*
X122377781Y-95599366D01*
X122395024Y-95612154D01*
X122410930Y-95626570D01*
X122425346Y-95642476D01*
X122438134Y-95659719D01*
X122449170Y-95678132D01*
X122458349Y-95697538D01*
X122465581Y-95717750D01*
X122470797Y-95738574D01*
X122473947Y-95759809D01*
X122475000Y-95781250D01*
X122475000Y-96218750D01*
X122473947Y-96240191D01*
X122470797Y-96261426D01*
X122465581Y-96282250D01*
X122458349Y-96302462D01*
X122449170Y-96321868D01*
X122438134Y-96340281D01*
X122425346Y-96357524D01*
X122410930Y-96373430D01*
X122395024Y-96387846D01*
X122377781Y-96400634D01*
X122359368Y-96411670D01*
X122339962Y-96420849D01*
X122319750Y-96428081D01*
X122298926Y-96433297D01*
X122277691Y-96436447D01*
X122256250Y-96437500D01*
X121743750Y-96437500D01*
X121722309Y-96436447D01*
X121701074Y-96433297D01*
X121680250Y-96428081D01*
X121660038Y-96420849D01*
X121640632Y-96411670D01*
X121622219Y-96400634D01*
X121604976Y-96387846D01*
X121589070Y-96373430D01*
X121574654Y-96357524D01*
X121561866Y-96340281D01*
X121550830Y-96321868D01*
X121541651Y-96302462D01*
X121534419Y-96282250D01*
X121529203Y-96261426D01*
X121526053Y-96240191D01*
X121525000Y-96218750D01*
X121525000Y-95781250D01*
X121526053Y-95759809D01*
X121529203Y-95738574D01*
X121534419Y-95717750D01*
X121541651Y-95697538D01*
X121550830Y-95678132D01*
X121561866Y-95659719D01*
X121574654Y-95642476D01*
X121589070Y-95626570D01*
X121604976Y-95612154D01*
X121622219Y-95599366D01*
X121640632Y-95588330D01*
X121660038Y-95579151D01*
X121680250Y-95571919D01*
X121701074Y-95566703D01*
X121722309Y-95563553D01*
X121743750Y-95562500D01*
X122256250Y-95562500D01*
X122277691Y-95563553D01*
X122277691Y-95563553D01*
G37*
D12*
G04 #@! TD*
G04 #@! TO.P,C2,2*
G04 #@! TO.N,GND*
X122000000Y-96000000D03*
D11*
G04 #@! TO.N,+VDC*
G04 #@! TO.C,C2*
G36*
X122277691Y-93988553D02*
X122298926Y-93991703D01*
X122319750Y-93996919D01*
X122339962Y-94004151D01*
X122359368Y-94013330D01*
X122377781Y-94024366D01*
X122395024Y-94037154D01*
X122410930Y-94051570D01*
X122425346Y-94067476D01*
X122438134Y-94084719D01*
X122449170Y-94103132D01*
X122458349Y-94122538D01*
X122465581Y-94142750D01*
X122470797Y-94163574D01*
X122473947Y-94184809D01*
X122475000Y-94206250D01*
X122475000Y-94643750D01*
X122473947Y-94665191D01*
X122470797Y-94686426D01*
X122465581Y-94707250D01*
X122458349Y-94727462D01*
X122449170Y-94746868D01*
X122438134Y-94765281D01*
X122425346Y-94782524D01*
X122410930Y-94798430D01*
X122395024Y-94812846D01*
X122377781Y-94825634D01*
X122359368Y-94836670D01*
X122339962Y-94845849D01*
X122319750Y-94853081D01*
X122298926Y-94858297D01*
X122277691Y-94861447D01*
X122256250Y-94862500D01*
X121743750Y-94862500D01*
X121722309Y-94861447D01*
X121701074Y-94858297D01*
X121680250Y-94853081D01*
X121660038Y-94845849D01*
X121640632Y-94836670D01*
X121622219Y-94825634D01*
X121604976Y-94812846D01*
X121589070Y-94798430D01*
X121574654Y-94782524D01*
X121561866Y-94765281D01*
X121550830Y-94746868D01*
X121541651Y-94727462D01*
X121534419Y-94707250D01*
X121529203Y-94686426D01*
X121526053Y-94665191D01*
X121525000Y-94643750D01*
X121525000Y-94206250D01*
X121526053Y-94184809D01*
X121529203Y-94163574D01*
X121534419Y-94142750D01*
X121541651Y-94122538D01*
X121550830Y-94103132D01*
X121561866Y-94084719D01*
X121574654Y-94067476D01*
X121589070Y-94051570D01*
X121604976Y-94037154D01*
X121622219Y-94024366D01*
X121640632Y-94013330D01*
X121660038Y-94004151D01*
X121680250Y-93996919D01*
X121701074Y-93991703D01*
X121722309Y-93988553D01*
X121743750Y-93987500D01*
X122256250Y-93987500D01*
X122277691Y-93988553D01*
X122277691Y-93988553D01*
G37*
D12*
G04 #@! TD*
G04 #@! TO.P,C2,1*
G04 #@! TO.N,+VDC*
X122000000Y-94425000D03*
D11*
G04 #@! TO.N,GND*
G04 #@! TO.C,C3*
G36*
X99240191Y-84776053D02*
X99261426Y-84779203D01*
X99282250Y-84784419D01*
X99302462Y-84791651D01*
X99321868Y-84800830D01*
X99340281Y-84811866D01*
X99357524Y-84824654D01*
X99373430Y-84839070D01*
X99387846Y-84854976D01*
X99400634Y-84872219D01*
X99411670Y-84890632D01*
X99420849Y-84910038D01*
X99428081Y-84930250D01*
X99433297Y-84951074D01*
X99436447Y-84972309D01*
X99437500Y-84993750D01*
X99437500Y-85506250D01*
X99436447Y-85527691D01*
X99433297Y-85548926D01*
X99428081Y-85569750D01*
X99420849Y-85589962D01*
X99411670Y-85609368D01*
X99400634Y-85627781D01*
X99387846Y-85645024D01*
X99373430Y-85660930D01*
X99357524Y-85675346D01*
X99340281Y-85688134D01*
X99321868Y-85699170D01*
X99302462Y-85708349D01*
X99282250Y-85715581D01*
X99261426Y-85720797D01*
X99240191Y-85723947D01*
X99218750Y-85725000D01*
X98781250Y-85725000D01*
X98759809Y-85723947D01*
X98738574Y-85720797D01*
X98717750Y-85715581D01*
X98697538Y-85708349D01*
X98678132Y-85699170D01*
X98659719Y-85688134D01*
X98642476Y-85675346D01*
X98626570Y-85660930D01*
X98612154Y-85645024D01*
X98599366Y-85627781D01*
X98588330Y-85609368D01*
X98579151Y-85589962D01*
X98571919Y-85569750D01*
X98566703Y-85548926D01*
X98563553Y-85527691D01*
X98562500Y-85506250D01*
X98562500Y-84993750D01*
X98563553Y-84972309D01*
X98566703Y-84951074D01*
X98571919Y-84930250D01*
X98579151Y-84910038D01*
X98588330Y-84890632D01*
X98599366Y-84872219D01*
X98612154Y-84854976D01*
X98626570Y-84839070D01*
X98642476Y-84824654D01*
X98659719Y-84811866D01*
X98678132Y-84800830D01*
X98697538Y-84791651D01*
X98717750Y-84784419D01*
X98738574Y-84779203D01*
X98759809Y-84776053D01*
X98781250Y-84775000D01*
X99218750Y-84775000D01*
X99240191Y-84776053D01*
X99240191Y-84776053D01*
G37*
D12*
G04 #@! TD*
G04 #@! TO.P,C3,2*
G04 #@! TO.N,GND*
X99000000Y-85250000D03*
D11*
G04 #@! TO.N,VDD*
G04 #@! TO.C,C3*
G36*
X97665191Y-84776053D02*
X97686426Y-84779203D01*
X97707250Y-84784419D01*
X97727462Y-84791651D01*
X97746868Y-84800830D01*
X97765281Y-84811866D01*
X97782524Y-84824654D01*
X97798430Y-84839070D01*
X97812846Y-84854976D01*
X97825634Y-84872219D01*
X97836670Y-84890632D01*
X97845849Y-84910038D01*
X97853081Y-84930250D01*
X97858297Y-84951074D01*
X97861447Y-84972309D01*
X97862500Y-84993750D01*
X97862500Y-85506250D01*
X97861447Y-85527691D01*
X97858297Y-85548926D01*
X97853081Y-85569750D01*
X97845849Y-85589962D01*
X97836670Y-85609368D01*
X97825634Y-85627781D01*
X97812846Y-85645024D01*
X97798430Y-85660930D01*
X97782524Y-85675346D01*
X97765281Y-85688134D01*
X97746868Y-85699170D01*
X97727462Y-85708349D01*
X97707250Y-85715581D01*
X97686426Y-85720797D01*
X97665191Y-85723947D01*
X97643750Y-85725000D01*
X97206250Y-85725000D01*
X97184809Y-85723947D01*
X97163574Y-85720797D01*
X97142750Y-85715581D01*
X97122538Y-85708349D01*
X97103132Y-85699170D01*
X97084719Y-85688134D01*
X97067476Y-85675346D01*
X97051570Y-85660930D01*
X97037154Y-85645024D01*
X97024366Y-85627781D01*
X97013330Y-85609368D01*
X97004151Y-85589962D01*
X96996919Y-85569750D01*
X96991703Y-85548926D01*
X96988553Y-85527691D01*
X96987500Y-85506250D01*
X96987500Y-84993750D01*
X96988553Y-84972309D01*
X96991703Y-84951074D01*
X96996919Y-84930250D01*
X97004151Y-84910038D01*
X97013330Y-84890632D01*
X97024366Y-84872219D01*
X97037154Y-84854976D01*
X97051570Y-84839070D01*
X97067476Y-84824654D01*
X97084719Y-84811866D01*
X97103132Y-84800830D01*
X97122538Y-84791651D01*
X97142750Y-84784419D01*
X97163574Y-84779203D01*
X97184809Y-84776053D01*
X97206250Y-84775000D01*
X97643750Y-84775000D01*
X97665191Y-84776053D01*
X97665191Y-84776053D01*
G37*
D12*
G04 #@! TD*
G04 #@! TO.P,C3,1*
G04 #@! TO.N,VDD*
X97425000Y-85250000D03*
D11*
G04 #@! TO.N,GND*
G04 #@! TO.C,C4*
G36*
X128277691Y-95351053D02*
X128298926Y-95354203D01*
X128319750Y-95359419D01*
X128339962Y-95366651D01*
X128359368Y-95375830D01*
X128377781Y-95386866D01*
X128395024Y-95399654D01*
X128410930Y-95414070D01*
X128425346Y-95429976D01*
X128438134Y-95447219D01*
X128449170Y-95465632D01*
X128458349Y-95485038D01*
X128465581Y-95505250D01*
X128470797Y-95526074D01*
X128473947Y-95547309D01*
X128475000Y-95568750D01*
X128475000Y-96006250D01*
X128473947Y-96027691D01*
X128470797Y-96048926D01*
X128465581Y-96069750D01*
X128458349Y-96089962D01*
X128449170Y-96109368D01*
X128438134Y-96127781D01*
X128425346Y-96145024D01*
X128410930Y-96160930D01*
X128395024Y-96175346D01*
X128377781Y-96188134D01*
X128359368Y-96199170D01*
X128339962Y-96208349D01*
X128319750Y-96215581D01*
X128298926Y-96220797D01*
X128277691Y-96223947D01*
X128256250Y-96225000D01*
X127743750Y-96225000D01*
X127722309Y-96223947D01*
X127701074Y-96220797D01*
X127680250Y-96215581D01*
X127660038Y-96208349D01*
X127640632Y-96199170D01*
X127622219Y-96188134D01*
X127604976Y-96175346D01*
X127589070Y-96160930D01*
X127574654Y-96145024D01*
X127561866Y-96127781D01*
X127550830Y-96109368D01*
X127541651Y-96089962D01*
X127534419Y-96069750D01*
X127529203Y-96048926D01*
X127526053Y-96027691D01*
X127525000Y-96006250D01*
X127525000Y-95568750D01*
X127526053Y-95547309D01*
X127529203Y-95526074D01*
X127534419Y-95505250D01*
X127541651Y-95485038D01*
X127550830Y-95465632D01*
X127561866Y-95447219D01*
X127574654Y-95429976D01*
X127589070Y-95414070D01*
X127604976Y-95399654D01*
X127622219Y-95386866D01*
X127640632Y-95375830D01*
X127660038Y-95366651D01*
X127680250Y-95359419D01*
X127701074Y-95354203D01*
X127722309Y-95351053D01*
X127743750Y-95350000D01*
X128256250Y-95350000D01*
X128277691Y-95351053D01*
X128277691Y-95351053D01*
G37*
D12*
G04 #@! TD*
G04 #@! TO.P,C4,2*
G04 #@! TO.N,GND*
X128000000Y-95787500D03*
D11*
G04 #@! TO.N,VDD*
G04 #@! TO.C,C4*
G36*
X128277691Y-93776053D02*
X128298926Y-93779203D01*
X128319750Y-93784419D01*
X128339962Y-93791651D01*
X128359368Y-93800830D01*
X128377781Y-93811866D01*
X128395024Y-93824654D01*
X128410930Y-93839070D01*
X128425346Y-93854976D01*
X128438134Y-93872219D01*
X128449170Y-93890632D01*
X128458349Y-93910038D01*
X128465581Y-93930250D01*
X128470797Y-93951074D01*
X128473947Y-93972309D01*
X128475000Y-93993750D01*
X128475000Y-94431250D01*
X128473947Y-94452691D01*
X128470797Y-94473926D01*
X128465581Y-94494750D01*
X128458349Y-94514962D01*
X128449170Y-94534368D01*
X128438134Y-94552781D01*
X128425346Y-94570024D01*
X128410930Y-94585930D01*
X128395024Y-94600346D01*
X128377781Y-94613134D01*
X128359368Y-94624170D01*
X128339962Y-94633349D01*
X128319750Y-94640581D01*
X128298926Y-94645797D01*
X128277691Y-94648947D01*
X128256250Y-94650000D01*
X127743750Y-94650000D01*
X127722309Y-94648947D01*
X127701074Y-94645797D01*
X127680250Y-94640581D01*
X127660038Y-94633349D01*
X127640632Y-94624170D01*
X127622219Y-94613134D01*
X127604976Y-94600346D01*
X127589070Y-94585930D01*
X127574654Y-94570024D01*
X127561866Y-94552781D01*
X127550830Y-94534368D01*
X127541651Y-94514962D01*
X127534419Y-94494750D01*
X127529203Y-94473926D01*
X127526053Y-94452691D01*
X127525000Y-94431250D01*
X127525000Y-93993750D01*
X127526053Y-93972309D01*
X127529203Y-93951074D01*
X127534419Y-93930250D01*
X127541651Y-93910038D01*
X127550830Y-93890632D01*
X127561866Y-93872219D01*
X127574654Y-93854976D01*
X127589070Y-93839070D01*
X127604976Y-93824654D01*
X127622219Y-93811866D01*
X127640632Y-93800830D01*
X127660038Y-93791651D01*
X127680250Y-93784419D01*
X127701074Y-93779203D01*
X127722309Y-93776053D01*
X127743750Y-93775000D01*
X128256250Y-93775000D01*
X128277691Y-93776053D01*
X128277691Y-93776053D01*
G37*
D12*
G04 #@! TD*
G04 #@! TO.P,C4,1*
G04 #@! TO.N,VDD*
X128000000Y-94212500D03*
D11*
G04 #@! TO.N,VDD*
G04 #@! TO.C,C5*
G36*
X132665191Y-93026053D02*
X132686426Y-93029203D01*
X132707250Y-93034419D01*
X132727462Y-93041651D01*
X132746868Y-93050830D01*
X132765281Y-93061866D01*
X132782524Y-93074654D01*
X132798430Y-93089070D01*
X132812846Y-93104976D01*
X132825634Y-93122219D01*
X132836670Y-93140632D01*
X132845849Y-93160038D01*
X132853081Y-93180250D01*
X132858297Y-93201074D01*
X132861447Y-93222309D01*
X132862500Y-93243750D01*
X132862500Y-93756250D01*
X132861447Y-93777691D01*
X132858297Y-93798926D01*
X132853081Y-93819750D01*
X132845849Y-93839962D01*
X132836670Y-93859368D01*
X132825634Y-93877781D01*
X132812846Y-93895024D01*
X132798430Y-93910930D01*
X132782524Y-93925346D01*
X132765281Y-93938134D01*
X132746868Y-93949170D01*
X132727462Y-93958349D01*
X132707250Y-93965581D01*
X132686426Y-93970797D01*
X132665191Y-93973947D01*
X132643750Y-93975000D01*
X132206250Y-93975000D01*
X132184809Y-93973947D01*
X132163574Y-93970797D01*
X132142750Y-93965581D01*
X132122538Y-93958349D01*
X132103132Y-93949170D01*
X132084719Y-93938134D01*
X132067476Y-93925346D01*
X132051570Y-93910930D01*
X132037154Y-93895024D01*
X132024366Y-93877781D01*
X132013330Y-93859368D01*
X132004151Y-93839962D01*
X131996919Y-93819750D01*
X131991703Y-93798926D01*
X131988553Y-93777691D01*
X131987500Y-93756250D01*
X131987500Y-93243750D01*
X131988553Y-93222309D01*
X131991703Y-93201074D01*
X131996919Y-93180250D01*
X132004151Y-93160038D01*
X132013330Y-93140632D01*
X132024366Y-93122219D01*
X132037154Y-93104976D01*
X132051570Y-93089070D01*
X132067476Y-93074654D01*
X132084719Y-93061866D01*
X132103132Y-93050830D01*
X132122538Y-93041651D01*
X132142750Y-93034419D01*
X132163574Y-93029203D01*
X132184809Y-93026053D01*
X132206250Y-93025000D01*
X132643750Y-93025000D01*
X132665191Y-93026053D01*
X132665191Y-93026053D01*
G37*
D12*
G04 #@! TD*
G04 #@! TO.P,C5,1*
G04 #@! TO.N,VDD*
X132425000Y-93500000D03*
D11*
G04 #@! TO.N,GND*
G04 #@! TO.C,C5*
G36*
X134240191Y-93026053D02*
X134261426Y-93029203D01*
X134282250Y-93034419D01*
X134302462Y-93041651D01*
X134321868Y-93050830D01*
X134340281Y-93061866D01*
X134357524Y-93074654D01*
X134373430Y-93089070D01*
X134387846Y-93104976D01*
X134400634Y-93122219D01*
X134411670Y-93140632D01*
X134420849Y-93160038D01*
X134428081Y-93180250D01*
X134433297Y-93201074D01*
X134436447Y-93222309D01*
X134437500Y-93243750D01*
X134437500Y-93756250D01*
X134436447Y-93777691D01*
X134433297Y-93798926D01*
X134428081Y-93819750D01*
X134420849Y-93839962D01*
X134411670Y-93859368D01*
X134400634Y-93877781D01*
X134387846Y-93895024D01*
X134373430Y-93910930D01*
X134357524Y-93925346D01*
X134340281Y-93938134D01*
X134321868Y-93949170D01*
X134302462Y-93958349D01*
X134282250Y-93965581D01*
X134261426Y-93970797D01*
X134240191Y-93973947D01*
X134218750Y-93975000D01*
X133781250Y-93975000D01*
X133759809Y-93973947D01*
X133738574Y-93970797D01*
X133717750Y-93965581D01*
X133697538Y-93958349D01*
X133678132Y-93949170D01*
X133659719Y-93938134D01*
X133642476Y-93925346D01*
X133626570Y-93910930D01*
X133612154Y-93895024D01*
X133599366Y-93877781D01*
X133588330Y-93859368D01*
X133579151Y-93839962D01*
X133571919Y-93819750D01*
X133566703Y-93798926D01*
X133563553Y-93777691D01*
X133562500Y-93756250D01*
X133562500Y-93243750D01*
X133563553Y-93222309D01*
X133566703Y-93201074D01*
X133571919Y-93180250D01*
X133579151Y-93160038D01*
X133588330Y-93140632D01*
X133599366Y-93122219D01*
X133612154Y-93104976D01*
X133626570Y-93089070D01*
X133642476Y-93074654D01*
X133659719Y-93061866D01*
X133678132Y-93050830D01*
X133697538Y-93041651D01*
X133717750Y-93034419D01*
X133738574Y-93029203D01*
X133759809Y-93026053D01*
X133781250Y-93025000D01*
X134218750Y-93025000D01*
X134240191Y-93026053D01*
X134240191Y-93026053D01*
G37*
D12*
G04 #@! TD*
G04 #@! TO.P,C5,2*
G04 #@! TO.N,GND*
X134000000Y-93500000D03*
D11*
G04 #@! TO.N,VDD*
G04 #@! TO.C,C6*
G36*
X132665191Y-91526053D02*
X132686426Y-91529203D01*
X132707250Y-91534419D01*
X132727462Y-91541651D01*
X132746868Y-91550830D01*
X132765281Y-91561866D01*
X132782524Y-91574654D01*
X132798430Y-91589070D01*
X132812846Y-91604976D01*
X132825634Y-91622219D01*
X132836670Y-91640632D01*
X132845849Y-91660038D01*
X132853081Y-91680250D01*
X132858297Y-91701074D01*
X132861447Y-91722309D01*
X132862500Y-91743750D01*
X132862500Y-92256250D01*
X132861447Y-92277691D01*
X132858297Y-92298926D01*
X132853081Y-92319750D01*
X132845849Y-92339962D01*
X132836670Y-92359368D01*
X132825634Y-92377781D01*
X132812846Y-92395024D01*
X132798430Y-92410930D01*
X132782524Y-92425346D01*
X132765281Y-92438134D01*
X132746868Y-92449170D01*
X132727462Y-92458349D01*
X132707250Y-92465581D01*
X132686426Y-92470797D01*
X132665191Y-92473947D01*
X132643750Y-92475000D01*
X132206250Y-92475000D01*
X132184809Y-92473947D01*
X132163574Y-92470797D01*
X132142750Y-92465581D01*
X132122538Y-92458349D01*
X132103132Y-92449170D01*
X132084719Y-92438134D01*
X132067476Y-92425346D01*
X132051570Y-92410930D01*
X132037154Y-92395024D01*
X132024366Y-92377781D01*
X132013330Y-92359368D01*
X132004151Y-92339962D01*
X131996919Y-92319750D01*
X131991703Y-92298926D01*
X131988553Y-92277691D01*
X131987500Y-92256250D01*
X131987500Y-91743750D01*
X131988553Y-91722309D01*
X131991703Y-91701074D01*
X131996919Y-91680250D01*
X132004151Y-91660038D01*
X132013330Y-91640632D01*
X132024366Y-91622219D01*
X132037154Y-91604976D01*
X132051570Y-91589070D01*
X132067476Y-91574654D01*
X132084719Y-91561866D01*
X132103132Y-91550830D01*
X132122538Y-91541651D01*
X132142750Y-91534419D01*
X132163574Y-91529203D01*
X132184809Y-91526053D01*
X132206250Y-91525000D01*
X132643750Y-91525000D01*
X132665191Y-91526053D01*
X132665191Y-91526053D01*
G37*
D12*
G04 #@! TD*
G04 #@! TO.P,C6,1*
G04 #@! TO.N,VDD*
X132425000Y-92000000D03*
D11*
G04 #@! TO.N,GND*
G04 #@! TO.C,C6*
G36*
X134240191Y-91526053D02*
X134261426Y-91529203D01*
X134282250Y-91534419D01*
X134302462Y-91541651D01*
X134321868Y-91550830D01*
X134340281Y-91561866D01*
X134357524Y-91574654D01*
X134373430Y-91589070D01*
X134387846Y-91604976D01*
X134400634Y-91622219D01*
X134411670Y-91640632D01*
X134420849Y-91660038D01*
X134428081Y-91680250D01*
X134433297Y-91701074D01*
X134436447Y-91722309D01*
X134437500Y-91743750D01*
X134437500Y-92256250D01*
X134436447Y-92277691D01*
X134433297Y-92298926D01*
X134428081Y-92319750D01*
X134420849Y-92339962D01*
X134411670Y-92359368D01*
X134400634Y-92377781D01*
X134387846Y-92395024D01*
X134373430Y-92410930D01*
X134357524Y-92425346D01*
X134340281Y-92438134D01*
X134321868Y-92449170D01*
X134302462Y-92458349D01*
X134282250Y-92465581D01*
X134261426Y-92470797D01*
X134240191Y-92473947D01*
X134218750Y-92475000D01*
X133781250Y-92475000D01*
X133759809Y-92473947D01*
X133738574Y-92470797D01*
X133717750Y-92465581D01*
X133697538Y-92458349D01*
X133678132Y-92449170D01*
X133659719Y-92438134D01*
X133642476Y-92425346D01*
X133626570Y-92410930D01*
X133612154Y-92395024D01*
X133599366Y-92377781D01*
X133588330Y-92359368D01*
X133579151Y-92339962D01*
X133571919Y-92319750D01*
X133566703Y-92298926D01*
X133563553Y-92277691D01*
X133562500Y-92256250D01*
X133562500Y-91743750D01*
X133563553Y-91722309D01*
X133566703Y-91701074D01*
X133571919Y-91680250D01*
X133579151Y-91660038D01*
X133588330Y-91640632D01*
X133599366Y-91622219D01*
X133612154Y-91604976D01*
X133626570Y-91589070D01*
X133642476Y-91574654D01*
X133659719Y-91561866D01*
X133678132Y-91550830D01*
X133697538Y-91541651D01*
X133717750Y-91534419D01*
X133738574Y-91529203D01*
X133759809Y-91526053D01*
X133781250Y-91525000D01*
X134218750Y-91525000D01*
X134240191Y-91526053D01*
X134240191Y-91526053D01*
G37*
D12*
G04 #@! TD*
G04 #@! TO.P,C6,2*
G04 #@! TO.N,GND*
X134000000Y-92000000D03*
D11*
G04 #@! TO.N,VDD*
G04 #@! TO.C,C7*
G36*
X132452691Y-83026053D02*
X132473926Y-83029203D01*
X132494750Y-83034419D01*
X132514962Y-83041651D01*
X132534368Y-83050830D01*
X132552781Y-83061866D01*
X132570024Y-83074654D01*
X132585930Y-83089070D01*
X132600346Y-83104976D01*
X132613134Y-83122219D01*
X132624170Y-83140632D01*
X132633349Y-83160038D01*
X132640581Y-83180250D01*
X132645797Y-83201074D01*
X132648947Y-83222309D01*
X132650000Y-83243750D01*
X132650000Y-83756250D01*
X132648947Y-83777691D01*
X132645797Y-83798926D01*
X132640581Y-83819750D01*
X132633349Y-83839962D01*
X132624170Y-83859368D01*
X132613134Y-83877781D01*
X132600346Y-83895024D01*
X132585930Y-83910930D01*
X132570024Y-83925346D01*
X132552781Y-83938134D01*
X132534368Y-83949170D01*
X132514962Y-83958349D01*
X132494750Y-83965581D01*
X132473926Y-83970797D01*
X132452691Y-83973947D01*
X132431250Y-83975000D01*
X131993750Y-83975000D01*
X131972309Y-83973947D01*
X131951074Y-83970797D01*
X131930250Y-83965581D01*
X131910038Y-83958349D01*
X131890632Y-83949170D01*
X131872219Y-83938134D01*
X131854976Y-83925346D01*
X131839070Y-83910930D01*
X131824654Y-83895024D01*
X131811866Y-83877781D01*
X131800830Y-83859368D01*
X131791651Y-83839962D01*
X131784419Y-83819750D01*
X131779203Y-83798926D01*
X131776053Y-83777691D01*
X131775000Y-83756250D01*
X131775000Y-83243750D01*
X131776053Y-83222309D01*
X131779203Y-83201074D01*
X131784419Y-83180250D01*
X131791651Y-83160038D01*
X131800830Y-83140632D01*
X131811866Y-83122219D01*
X131824654Y-83104976D01*
X131839070Y-83089070D01*
X131854976Y-83074654D01*
X131872219Y-83061866D01*
X131890632Y-83050830D01*
X131910038Y-83041651D01*
X131930250Y-83034419D01*
X131951074Y-83029203D01*
X131972309Y-83026053D01*
X131993750Y-83025000D01*
X132431250Y-83025000D01*
X132452691Y-83026053D01*
X132452691Y-83026053D01*
G37*
D12*
G04 #@! TD*
G04 #@! TO.P,C7,1*
G04 #@! TO.N,VDD*
X132212500Y-83500000D03*
D11*
G04 #@! TO.N,GND*
G04 #@! TO.C,C7*
G36*
X134027691Y-83026053D02*
X134048926Y-83029203D01*
X134069750Y-83034419D01*
X134089962Y-83041651D01*
X134109368Y-83050830D01*
X134127781Y-83061866D01*
X134145024Y-83074654D01*
X134160930Y-83089070D01*
X134175346Y-83104976D01*
X134188134Y-83122219D01*
X134199170Y-83140632D01*
X134208349Y-83160038D01*
X134215581Y-83180250D01*
X134220797Y-83201074D01*
X134223947Y-83222309D01*
X134225000Y-83243750D01*
X134225000Y-83756250D01*
X134223947Y-83777691D01*
X134220797Y-83798926D01*
X134215581Y-83819750D01*
X134208349Y-83839962D01*
X134199170Y-83859368D01*
X134188134Y-83877781D01*
X134175346Y-83895024D01*
X134160930Y-83910930D01*
X134145024Y-83925346D01*
X134127781Y-83938134D01*
X134109368Y-83949170D01*
X134089962Y-83958349D01*
X134069750Y-83965581D01*
X134048926Y-83970797D01*
X134027691Y-83973947D01*
X134006250Y-83975000D01*
X133568750Y-83975000D01*
X133547309Y-83973947D01*
X133526074Y-83970797D01*
X133505250Y-83965581D01*
X133485038Y-83958349D01*
X133465632Y-83949170D01*
X133447219Y-83938134D01*
X133429976Y-83925346D01*
X133414070Y-83910930D01*
X133399654Y-83895024D01*
X133386866Y-83877781D01*
X133375830Y-83859368D01*
X133366651Y-83839962D01*
X133359419Y-83819750D01*
X133354203Y-83798926D01*
X133351053Y-83777691D01*
X133350000Y-83756250D01*
X133350000Y-83243750D01*
X133351053Y-83222309D01*
X133354203Y-83201074D01*
X133359419Y-83180250D01*
X133366651Y-83160038D01*
X133375830Y-83140632D01*
X133386866Y-83122219D01*
X133399654Y-83104976D01*
X133414070Y-83089070D01*
X133429976Y-83074654D01*
X133447219Y-83061866D01*
X133465632Y-83050830D01*
X133485038Y-83041651D01*
X133505250Y-83034419D01*
X133526074Y-83029203D01*
X133547309Y-83026053D01*
X133568750Y-83025000D01*
X134006250Y-83025000D01*
X134027691Y-83026053D01*
X134027691Y-83026053D01*
G37*
D12*
G04 #@! TD*
G04 #@! TO.P,C7,2*
G04 #@! TO.N,GND*
X133787500Y-83500000D03*
D11*
G04 #@! TO.N,GND*
G04 #@! TO.C,C8*
G36*
X134027691Y-81526053D02*
X134048926Y-81529203D01*
X134069750Y-81534419D01*
X134089962Y-81541651D01*
X134109368Y-81550830D01*
X134127781Y-81561866D01*
X134145024Y-81574654D01*
X134160930Y-81589070D01*
X134175346Y-81604976D01*
X134188134Y-81622219D01*
X134199170Y-81640632D01*
X134208349Y-81660038D01*
X134215581Y-81680250D01*
X134220797Y-81701074D01*
X134223947Y-81722309D01*
X134225000Y-81743750D01*
X134225000Y-82256250D01*
X134223947Y-82277691D01*
X134220797Y-82298926D01*
X134215581Y-82319750D01*
X134208349Y-82339962D01*
X134199170Y-82359368D01*
X134188134Y-82377781D01*
X134175346Y-82395024D01*
X134160930Y-82410930D01*
X134145024Y-82425346D01*
X134127781Y-82438134D01*
X134109368Y-82449170D01*
X134089962Y-82458349D01*
X134069750Y-82465581D01*
X134048926Y-82470797D01*
X134027691Y-82473947D01*
X134006250Y-82475000D01*
X133568750Y-82475000D01*
X133547309Y-82473947D01*
X133526074Y-82470797D01*
X133505250Y-82465581D01*
X133485038Y-82458349D01*
X133465632Y-82449170D01*
X133447219Y-82438134D01*
X133429976Y-82425346D01*
X133414070Y-82410930D01*
X133399654Y-82395024D01*
X133386866Y-82377781D01*
X133375830Y-82359368D01*
X133366651Y-82339962D01*
X133359419Y-82319750D01*
X133354203Y-82298926D01*
X133351053Y-82277691D01*
X133350000Y-82256250D01*
X133350000Y-81743750D01*
X133351053Y-81722309D01*
X133354203Y-81701074D01*
X133359419Y-81680250D01*
X133366651Y-81660038D01*
X133375830Y-81640632D01*
X133386866Y-81622219D01*
X133399654Y-81604976D01*
X133414070Y-81589070D01*
X133429976Y-81574654D01*
X133447219Y-81561866D01*
X133465632Y-81550830D01*
X133485038Y-81541651D01*
X133505250Y-81534419D01*
X133526074Y-81529203D01*
X133547309Y-81526053D01*
X133568750Y-81525000D01*
X134006250Y-81525000D01*
X134027691Y-81526053D01*
X134027691Y-81526053D01*
G37*
D12*
G04 #@! TD*
G04 #@! TO.P,C8,2*
G04 #@! TO.N,GND*
X133787500Y-82000000D03*
D11*
G04 #@! TO.N,VDD*
G04 #@! TO.C,C8*
G36*
X132452691Y-81526053D02*
X132473926Y-81529203D01*
X132494750Y-81534419D01*
X132514962Y-81541651D01*
X132534368Y-81550830D01*
X132552781Y-81561866D01*
X132570024Y-81574654D01*
X132585930Y-81589070D01*
X132600346Y-81604976D01*
X132613134Y-81622219D01*
X132624170Y-81640632D01*
X132633349Y-81660038D01*
X132640581Y-81680250D01*
X132645797Y-81701074D01*
X132648947Y-81722309D01*
X132650000Y-81743750D01*
X132650000Y-82256250D01*
X132648947Y-82277691D01*
X132645797Y-82298926D01*
X132640581Y-82319750D01*
X132633349Y-82339962D01*
X132624170Y-82359368D01*
X132613134Y-82377781D01*
X132600346Y-82395024D01*
X132585930Y-82410930D01*
X132570024Y-82425346D01*
X132552781Y-82438134D01*
X132534368Y-82449170D01*
X132514962Y-82458349D01*
X132494750Y-82465581D01*
X132473926Y-82470797D01*
X132452691Y-82473947D01*
X132431250Y-82475000D01*
X131993750Y-82475000D01*
X131972309Y-82473947D01*
X131951074Y-82470797D01*
X131930250Y-82465581D01*
X131910038Y-82458349D01*
X131890632Y-82449170D01*
X131872219Y-82438134D01*
X131854976Y-82425346D01*
X131839070Y-82410930D01*
X131824654Y-82395024D01*
X131811866Y-82377781D01*
X131800830Y-82359368D01*
X131791651Y-82339962D01*
X131784419Y-82319750D01*
X131779203Y-82298926D01*
X131776053Y-82277691D01*
X131775000Y-82256250D01*
X131775000Y-81743750D01*
X131776053Y-81722309D01*
X131779203Y-81701074D01*
X131784419Y-81680250D01*
X131791651Y-81660038D01*
X131800830Y-81640632D01*
X131811866Y-81622219D01*
X131824654Y-81604976D01*
X131839070Y-81589070D01*
X131854976Y-81574654D01*
X131872219Y-81561866D01*
X131890632Y-81550830D01*
X131910038Y-81541651D01*
X131930250Y-81534419D01*
X131951074Y-81529203D01*
X131972309Y-81526053D01*
X131993750Y-81525000D01*
X132431250Y-81525000D01*
X132452691Y-81526053D01*
X132452691Y-81526053D01*
G37*
D12*
G04 #@! TD*
G04 #@! TO.P,C8,1*
G04 #@! TO.N,VDD*
X132212500Y-82000000D03*
D13*
G04 #@! TO.P,D1,1*
G04 #@! TO.N,+VDC*
X124000000Y-92000000D03*
G04 #@! TO.P,D1,2*
G04 #@! TO.N,GND*
X121800000Y-92000000D03*
G04 #@! TD*
D14*
G04 #@! TO.P,J1,1*
G04 #@! TO.N,+VDC*
X131000000Y-78000000D03*
D15*
G04 #@! TO.P,J1,2*
G04 #@! TO.N,/MCU_RESET*
X133540000Y-78000000D03*
G04 #@! TO.P,J1,3*
G04 #@! TO.N,/BOOT0*
X136080000Y-78000000D03*
G04 #@! TO.P,J1,4*
G04 #@! TO.N,/SWDIO*
X138620000Y-78000000D03*
G04 #@! TO.P,J1,5*
G04 #@! TO.N,/SWCLK*
X141160000Y-78000000D03*
G04 #@! TO.P,J1,6*
G04 #@! TO.N,GND*
X143700000Y-78000000D03*
G04 #@! TD*
D14*
G04 #@! TO.P,J3,1*
G04 #@! TO.N,VDD*
X128250000Y-78000000D03*
D15*
G04 #@! TO.P,J3,2*
G04 #@! TO.N,/UART2_TX*
X125710000Y-78000000D03*
G04 #@! TO.P,J3,3*
G04 #@! TO.N,/UART2_RX*
X123170000Y-78000000D03*
G04 #@! TO.P,J3,4*
G04 #@! TO.N,GND*
X120630000Y-78000000D03*
G04 #@! TD*
D11*
G04 #@! TO.N,VDD*
G04 #@! TO.C,R1*
G36*
X103277691Y-96563553D02*
X103298926Y-96566703D01*
X103319750Y-96571919D01*
X103339962Y-96579151D01*
X103359368Y-96588330D01*
X103377781Y-96599366D01*
X103395024Y-96612154D01*
X103410930Y-96626570D01*
X103425346Y-96642476D01*
X103438134Y-96659719D01*
X103449170Y-96678132D01*
X103458349Y-96697538D01*
X103465581Y-96717750D01*
X103470797Y-96738574D01*
X103473947Y-96759809D01*
X103475000Y-96781250D01*
X103475000Y-97218750D01*
X103473947Y-97240191D01*
X103470797Y-97261426D01*
X103465581Y-97282250D01*
X103458349Y-97302462D01*
X103449170Y-97321868D01*
X103438134Y-97340281D01*
X103425346Y-97357524D01*
X103410930Y-97373430D01*
X103395024Y-97387846D01*
X103377781Y-97400634D01*
X103359368Y-97411670D01*
X103339962Y-97420849D01*
X103319750Y-97428081D01*
X103298926Y-97433297D01*
X103277691Y-97436447D01*
X103256250Y-97437500D01*
X102743750Y-97437500D01*
X102722309Y-97436447D01*
X102701074Y-97433297D01*
X102680250Y-97428081D01*
X102660038Y-97420849D01*
X102640632Y-97411670D01*
X102622219Y-97400634D01*
X102604976Y-97387846D01*
X102589070Y-97373430D01*
X102574654Y-97357524D01*
X102561866Y-97340281D01*
X102550830Y-97321868D01*
X102541651Y-97302462D01*
X102534419Y-97282250D01*
X102529203Y-97261426D01*
X102526053Y-97240191D01*
X102525000Y-97218750D01*
X102525000Y-96781250D01*
X102526053Y-96759809D01*
X102529203Y-96738574D01*
X102534419Y-96717750D01*
X102541651Y-96697538D01*
X102550830Y-96678132D01*
X102561866Y-96659719D01*
X102574654Y-96642476D01*
X102589070Y-96626570D01*
X102604976Y-96612154D01*
X102622219Y-96599366D01*
X102640632Y-96588330D01*
X102660038Y-96579151D01*
X102680250Y-96571919D01*
X102701074Y-96566703D01*
X102722309Y-96563553D01*
X102743750Y-96562500D01*
X103256250Y-96562500D01*
X103277691Y-96563553D01*
X103277691Y-96563553D01*
G37*
D12*
G04 #@! TD*
G04 #@! TO.P,R1,1*
G04 #@! TO.N,VDD*
X103000000Y-97000000D03*
D11*
G04 #@! TO.N,/I2C1_SDA*
G04 #@! TO.C,R1*
G36*
X103277691Y-94988553D02*
X103298926Y-94991703D01*
X103319750Y-94996919D01*
X103339962Y-95004151D01*
X103359368Y-95013330D01*
X103377781Y-95024366D01*
X103395024Y-95037154D01*
X103410930Y-95051570D01*
X103425346Y-95067476D01*
X103438134Y-95084719D01*
X103449170Y-95103132D01*
X103458349Y-95122538D01*
X103465581Y-95142750D01*
X103470797Y-95163574D01*
X103473947Y-95184809D01*
X103475000Y-95206250D01*
X103475000Y-95643750D01*
X103473947Y-95665191D01*
X103470797Y-95686426D01*
X103465581Y-95707250D01*
X103458349Y-95727462D01*
X103449170Y-95746868D01*
X103438134Y-95765281D01*
X103425346Y-95782524D01*
X103410930Y-95798430D01*
X103395024Y-95812846D01*
X103377781Y-95825634D01*
X103359368Y-95836670D01*
X103339962Y-95845849D01*
X103319750Y-95853081D01*
X103298926Y-95858297D01*
X103277691Y-95861447D01*
X103256250Y-95862500D01*
X102743750Y-95862500D01*
X102722309Y-95861447D01*
X102701074Y-95858297D01*
X102680250Y-95853081D01*
X102660038Y-95845849D01*
X102640632Y-95836670D01*
X102622219Y-95825634D01*
X102604976Y-95812846D01*
X102589070Y-95798430D01*
X102574654Y-95782524D01*
X102561866Y-95765281D01*
X102550830Y-95746868D01*
X102541651Y-95727462D01*
X102534419Y-95707250D01*
X102529203Y-95686426D01*
X102526053Y-95665191D01*
X102525000Y-95643750D01*
X102525000Y-95206250D01*
X102526053Y-95184809D01*
X102529203Y-95163574D01*
X102534419Y-95142750D01*
X102541651Y-95122538D01*
X102550830Y-95103132D01*
X102561866Y-95084719D01*
X102574654Y-95067476D01*
X102589070Y-95051570D01*
X102604976Y-95037154D01*
X102622219Y-95024366D01*
X102640632Y-95013330D01*
X102660038Y-95004151D01*
X102680250Y-94996919D01*
X102701074Y-94991703D01*
X102722309Y-94988553D01*
X102743750Y-94987500D01*
X103256250Y-94987500D01*
X103277691Y-94988553D01*
X103277691Y-94988553D01*
G37*
D12*
G04 #@! TD*
G04 #@! TO.P,R1,2*
G04 #@! TO.N,/I2C1_SDA*
X103000000Y-95425000D03*
D11*
G04 #@! TO.N,/I2C1_SCL*
G04 #@! TO.C,R2*
G36*
X101277691Y-94988553D02*
X101298926Y-94991703D01*
X101319750Y-94996919D01*
X101339962Y-95004151D01*
X101359368Y-95013330D01*
X101377781Y-95024366D01*
X101395024Y-95037154D01*
X101410930Y-95051570D01*
X101425346Y-95067476D01*
X101438134Y-95084719D01*
X101449170Y-95103132D01*
X101458349Y-95122538D01*
X101465581Y-95142750D01*
X101470797Y-95163574D01*
X101473947Y-95184809D01*
X101475000Y-95206250D01*
X101475000Y-95643750D01*
X101473947Y-95665191D01*
X101470797Y-95686426D01*
X101465581Y-95707250D01*
X101458349Y-95727462D01*
X101449170Y-95746868D01*
X101438134Y-95765281D01*
X101425346Y-95782524D01*
X101410930Y-95798430D01*
X101395024Y-95812846D01*
X101377781Y-95825634D01*
X101359368Y-95836670D01*
X101339962Y-95845849D01*
X101319750Y-95853081D01*
X101298926Y-95858297D01*
X101277691Y-95861447D01*
X101256250Y-95862500D01*
X100743750Y-95862500D01*
X100722309Y-95861447D01*
X100701074Y-95858297D01*
X100680250Y-95853081D01*
X100660038Y-95845849D01*
X100640632Y-95836670D01*
X100622219Y-95825634D01*
X100604976Y-95812846D01*
X100589070Y-95798430D01*
X100574654Y-95782524D01*
X100561866Y-95765281D01*
X100550830Y-95746868D01*
X100541651Y-95727462D01*
X100534419Y-95707250D01*
X100529203Y-95686426D01*
X100526053Y-95665191D01*
X100525000Y-95643750D01*
X100525000Y-95206250D01*
X100526053Y-95184809D01*
X100529203Y-95163574D01*
X100534419Y-95142750D01*
X100541651Y-95122538D01*
X100550830Y-95103132D01*
X100561866Y-95084719D01*
X100574654Y-95067476D01*
X100589070Y-95051570D01*
X100604976Y-95037154D01*
X100622219Y-95024366D01*
X100640632Y-95013330D01*
X100660038Y-95004151D01*
X100680250Y-94996919D01*
X100701074Y-94991703D01*
X100722309Y-94988553D01*
X100743750Y-94987500D01*
X101256250Y-94987500D01*
X101277691Y-94988553D01*
X101277691Y-94988553D01*
G37*
D12*
G04 #@! TD*
G04 #@! TO.P,R2,2*
G04 #@! TO.N,/I2C1_SCL*
X101000000Y-95425000D03*
D11*
G04 #@! TO.N,VDD*
G04 #@! TO.C,R2*
G36*
X101277691Y-96563553D02*
X101298926Y-96566703D01*
X101319750Y-96571919D01*
X101339962Y-96579151D01*
X101359368Y-96588330D01*
X101377781Y-96599366D01*
X101395024Y-96612154D01*
X101410930Y-96626570D01*
X101425346Y-96642476D01*
X101438134Y-96659719D01*
X101449170Y-96678132D01*
X101458349Y-96697538D01*
X101465581Y-96717750D01*
X101470797Y-96738574D01*
X101473947Y-96759809D01*
X101475000Y-96781250D01*
X101475000Y-97218750D01*
X101473947Y-97240191D01*
X101470797Y-97261426D01*
X101465581Y-97282250D01*
X101458349Y-97302462D01*
X101449170Y-97321868D01*
X101438134Y-97340281D01*
X101425346Y-97357524D01*
X101410930Y-97373430D01*
X101395024Y-97387846D01*
X101377781Y-97400634D01*
X101359368Y-97411670D01*
X101339962Y-97420849D01*
X101319750Y-97428081D01*
X101298926Y-97433297D01*
X101277691Y-97436447D01*
X101256250Y-97437500D01*
X100743750Y-97437500D01*
X100722309Y-97436447D01*
X100701074Y-97433297D01*
X100680250Y-97428081D01*
X100660038Y-97420849D01*
X100640632Y-97411670D01*
X100622219Y-97400634D01*
X100604976Y-97387846D01*
X100589070Y-97373430D01*
X100574654Y-97357524D01*
X100561866Y-97340281D01*
X100550830Y-97321868D01*
X100541651Y-97302462D01*
X100534419Y-97282250D01*
X100529203Y-97261426D01*
X100526053Y-97240191D01*
X100525000Y-97218750D01*
X100525000Y-96781250D01*
X100526053Y-96759809D01*
X100529203Y-96738574D01*
X100534419Y-96717750D01*
X100541651Y-96697538D01*
X100550830Y-96678132D01*
X100561866Y-96659719D01*
X100574654Y-96642476D01*
X100589070Y-96626570D01*
X100604976Y-96612154D01*
X100622219Y-96599366D01*
X100640632Y-96588330D01*
X100660038Y-96579151D01*
X100680250Y-96571919D01*
X100701074Y-96566703D01*
X100722309Y-96563553D01*
X100743750Y-96562500D01*
X101256250Y-96562500D01*
X101277691Y-96563553D01*
X101277691Y-96563553D01*
G37*
D12*
G04 #@! TD*
G04 #@! TO.P,R2,1*
G04 #@! TO.N,VDD*
X101000000Y-97000000D03*
D11*
G04 #@! TO.N,VDD*
G04 #@! TO.C,R3*
G36*
X130777691Y-83063553D02*
X130798926Y-83066703D01*
X130819750Y-83071919D01*
X130839962Y-83079151D01*
X130859368Y-83088330D01*
X130877781Y-83099366D01*
X130895024Y-83112154D01*
X130910930Y-83126570D01*
X130925346Y-83142476D01*
X130938134Y-83159719D01*
X130949170Y-83178132D01*
X130958349Y-83197538D01*
X130965581Y-83217750D01*
X130970797Y-83238574D01*
X130973947Y-83259809D01*
X130975000Y-83281250D01*
X130975000Y-83718750D01*
X130973947Y-83740191D01*
X130970797Y-83761426D01*
X130965581Y-83782250D01*
X130958349Y-83802462D01*
X130949170Y-83821868D01*
X130938134Y-83840281D01*
X130925346Y-83857524D01*
X130910930Y-83873430D01*
X130895024Y-83887846D01*
X130877781Y-83900634D01*
X130859368Y-83911670D01*
X130839962Y-83920849D01*
X130819750Y-83928081D01*
X130798926Y-83933297D01*
X130777691Y-83936447D01*
X130756250Y-83937500D01*
X130243750Y-83937500D01*
X130222309Y-83936447D01*
X130201074Y-83933297D01*
X130180250Y-83928081D01*
X130160038Y-83920849D01*
X130140632Y-83911670D01*
X130122219Y-83900634D01*
X130104976Y-83887846D01*
X130089070Y-83873430D01*
X130074654Y-83857524D01*
X130061866Y-83840281D01*
X130050830Y-83821868D01*
X130041651Y-83802462D01*
X130034419Y-83782250D01*
X130029203Y-83761426D01*
X130026053Y-83740191D01*
X130025000Y-83718750D01*
X130025000Y-83281250D01*
X130026053Y-83259809D01*
X130029203Y-83238574D01*
X130034419Y-83217750D01*
X130041651Y-83197538D01*
X130050830Y-83178132D01*
X130061866Y-83159719D01*
X130074654Y-83142476D01*
X130089070Y-83126570D01*
X130104976Y-83112154D01*
X130122219Y-83099366D01*
X130140632Y-83088330D01*
X130160038Y-83079151D01*
X130180250Y-83071919D01*
X130201074Y-83066703D01*
X130222309Y-83063553D01*
X130243750Y-83062500D01*
X130756250Y-83062500D01*
X130777691Y-83063553D01*
X130777691Y-83063553D01*
G37*
D12*
G04 #@! TD*
G04 #@! TO.P,R3,1*
G04 #@! TO.N,VDD*
X130500000Y-83500000D03*
D11*
G04 #@! TO.N,/MCU_RESET*
G04 #@! TO.C,R3*
G36*
X130777691Y-81488553D02*
X130798926Y-81491703D01*
X130819750Y-81496919D01*
X130839962Y-81504151D01*
X130859368Y-81513330D01*
X130877781Y-81524366D01*
X130895024Y-81537154D01*
X130910930Y-81551570D01*
X130925346Y-81567476D01*
X130938134Y-81584719D01*
X130949170Y-81603132D01*
X130958349Y-81622538D01*
X130965581Y-81642750D01*
X130970797Y-81663574D01*
X130973947Y-81684809D01*
X130975000Y-81706250D01*
X130975000Y-82143750D01*
X130973947Y-82165191D01*
X130970797Y-82186426D01*
X130965581Y-82207250D01*
X130958349Y-82227462D01*
X130949170Y-82246868D01*
X130938134Y-82265281D01*
X130925346Y-82282524D01*
X130910930Y-82298430D01*
X130895024Y-82312846D01*
X130877781Y-82325634D01*
X130859368Y-82336670D01*
X130839962Y-82345849D01*
X130819750Y-82353081D01*
X130798926Y-82358297D01*
X130777691Y-82361447D01*
X130756250Y-82362500D01*
X130243750Y-82362500D01*
X130222309Y-82361447D01*
X130201074Y-82358297D01*
X130180250Y-82353081D01*
X130160038Y-82345849D01*
X130140632Y-82336670D01*
X130122219Y-82325634D01*
X130104976Y-82312846D01*
X130089070Y-82298430D01*
X130074654Y-82282524D01*
X130061866Y-82265281D01*
X130050830Y-82246868D01*
X130041651Y-82227462D01*
X130034419Y-82207250D01*
X130029203Y-82186426D01*
X130026053Y-82165191D01*
X130025000Y-82143750D01*
X130025000Y-81706250D01*
X130026053Y-81684809D01*
X130029203Y-81663574D01*
X130034419Y-81642750D01*
X130041651Y-81622538D01*
X130050830Y-81603132D01*
X130061866Y-81584719D01*
X130074654Y-81567476D01*
X130089070Y-81551570D01*
X130104976Y-81537154D01*
X130122219Y-81524366D01*
X130140632Y-81513330D01*
X130160038Y-81504151D01*
X130180250Y-81496919D01*
X130201074Y-81491703D01*
X130222309Y-81488553D01*
X130243750Y-81487500D01*
X130756250Y-81487500D01*
X130777691Y-81488553D01*
X130777691Y-81488553D01*
G37*
D12*
G04 #@! TD*
G04 #@! TO.P,R3,2*
G04 #@! TO.N,/MCU_RESET*
X130500000Y-81925000D03*
D16*
G04 #@! TO.P,RN1,2*
G04 #@! TO.N,Net-(RN1-Pad2)*
X141150000Y-87600000D03*
G04 #@! TO.P,RN1,3*
G04 #@! TO.N,/SD_DAT2*
X141150000Y-88400000D03*
G04 #@! TO.P,RN1,1*
G04 #@! TO.N,Net-(RN1-Pad1)*
X141150000Y-86800000D03*
G04 #@! TO.P,RN1,4*
G04 #@! TO.N,/SD_DAT1*
X141150000Y-89200000D03*
G04 #@! TO.P,RN1,8*
G04 #@! TO.N,VDD*
X142850000Y-86800000D03*
G04 #@! TO.P,RN1,7*
X142850000Y-87600000D03*
G04 #@! TO.P,RN1,6*
X142850000Y-88400000D03*
G04 #@! TO.P,RN1,5*
X142850000Y-89200000D03*
G04 #@! TD*
D17*
G04 #@! TO.P,U1,3*
G04 #@! TO.N,+VDC*
X124000000Y-95000000D03*
G04 #@! TO.P,U1,2*
G04 #@! TO.N,VDD*
X126000000Y-94050000D03*
G04 #@! TO.P,U1,1*
G04 #@! TO.N,GND*
X126000000Y-95950000D03*
G04 #@! TD*
D18*
G04 #@! TO.P,U2,1*
G04 #@! TO.N,GND*
X100200000Y-92150000D03*
G04 #@! TO.P,U2,2*
G04 #@! TO.N,VDD*
X99400000Y-92150000D03*
G04 #@! TO.P,U2,3*
G04 #@! TO.N,/I2C1_SDA*
X98600000Y-92150000D03*
G04 #@! TO.P,U2,4*
G04 #@! TO.N,/I2C1_SCL*
X97800000Y-92150000D03*
G04 #@! TO.P,U2,5*
G04 #@! TO.N,VDD*
X97800000Y-89850000D03*
G04 #@! TO.P,U2,6*
X98600000Y-89850000D03*
G04 #@! TO.P,U2,7*
G04 #@! TO.N,GND*
X99400000Y-89850000D03*
G04 #@! TO.P,U2,8*
G04 #@! TO.N,VDD*
X100200000Y-89850000D03*
G04 #@! TD*
D19*
G04 #@! TO.P,U3,1*
G04 #@! TO.N,GND*
X119200000Y-80600000D03*
G04 #@! TO.P,U3,2*
G04 #@! TO.N,/SPI1_MISO*
X117200000Y-80600000D03*
G04 #@! TO.P,U3,3*
G04 #@! TO.N,/SPI1_MOSI*
X115200000Y-80600000D03*
G04 #@! TO.P,U3,4*
G04 #@! TO.N,/SPI1_SCK*
X113200000Y-80600000D03*
G04 #@! TO.P,U3,5*
G04 #@! TO.N,/LORA_SS*
X111200000Y-80600000D03*
G04 #@! TO.P,U3,6*
G04 #@! TO.N,/LORA_RESET*
X109200000Y-80600000D03*
G04 #@! TO.P,U3,7*
G04 #@! TO.N,Net-(U3-Pad7)*
X107200000Y-80600000D03*
G04 #@! TO.P,U3,8*
G04 #@! TO.N,GND*
X105200000Y-80600000D03*
G04 #@! TO.P,U3,9*
G04 #@! TO.N,/ANT*
X105200000Y-96600000D03*
G04 #@! TO.P,U3,10*
G04 #@! TO.N,GND*
X107200000Y-96600000D03*
G04 #@! TO.P,U3,11*
G04 #@! TO.N,Net-(U3-Pad11)*
X109200000Y-96600000D03*
G04 #@! TO.P,U3,12*
G04 #@! TO.N,Net-(U3-Pad12)*
X111200000Y-96600000D03*
G04 #@! TO.P,U3,13*
G04 #@! TO.N,VDD*
X113200000Y-96600000D03*
G04 #@! TO.P,U3,14*
G04 #@! TO.N,/LORA_INT1*
X115200000Y-96600000D03*
G04 #@! TO.P,U3,15*
G04 #@! TO.N,Net-(U3-Pad15)*
X117200000Y-96600000D03*
G04 #@! TO.P,U3,16*
G04 #@! TO.N,Net-(U3-Pad16)*
X119200000Y-96600000D03*
G04 #@! TD*
D20*
G04 #@! TO.P,U4,1*
G04 #@! TO.N,/SD_DETECT*
X132000000Y-89475000D03*
D21*
G04 #@! TO.P,U4,2*
G04 #@! TO.N,/LORA_RESET*
X132500000Y-89300000D03*
G04 #@! TO.P,U4,3*
G04 #@! TO.N,/MCU_RESET*
X133000000Y-89300000D03*
G04 #@! TO.P,U4,4*
G04 #@! TO.N,VDD*
X133500000Y-89300000D03*
D20*
G04 #@! TO.P,U4,5*
G04 #@! TO.N,/LORA_INT1*
X134000000Y-89475000D03*
D22*
G04 #@! TO.P,U4,6*
G04 #@! TO.N,/LORA_SS*
X134475000Y-89000000D03*
D23*
G04 #@! TO.P,U4,7*
G04 #@! TO.N,/SPI1_SS*
X134300000Y-88500000D03*
G04 #@! TO.P,U4,8*
G04 #@! TO.N,/SPI1_SCK*
X134300000Y-88000000D03*
G04 #@! TO.P,U4,9*
G04 #@! TO.N,/SPI1_MISO*
X134300000Y-87500000D03*
D22*
G04 #@! TO.P,U4,10*
G04 #@! TO.N,/SPI1_MOSI*
X134475000Y-87000000D03*
D20*
G04 #@! TO.P,U4,11*
G04 #@! TO.N,/IND_LED*
X134000000Y-86525000D03*
D21*
G04 #@! TO.P,U4,12*
G04 #@! TO.N,GND*
X133500000Y-86700000D03*
G04 #@! TO.P,U4,13*
G04 #@! TO.N,VDD*
X133000000Y-86700000D03*
G04 #@! TO.P,U4,14*
G04 #@! TO.N,/UART2_TX*
X132500000Y-86700000D03*
D20*
G04 #@! TO.P,U4,15*
G04 #@! TO.N,/UART2_RX*
X132000000Y-86525000D03*
D22*
G04 #@! TO.P,U4,16*
G04 #@! TO.N,/SWDIO*
X131525000Y-87000000D03*
D23*
G04 #@! TO.P,U4,17*
G04 #@! TO.N,/SWCLK*
X131700000Y-87500000D03*
G04 #@! TO.P,U4,18*
G04 #@! TO.N,/I2C1_SCL*
X131700000Y-88000000D03*
G04 #@! TO.P,U4,19*
G04 #@! TO.N,/I2C1_SDA*
X131700000Y-88500000D03*
D22*
G04 #@! TO.P,U4,20*
G04 #@! TO.N,/BOOT0*
X131525000Y-89000000D03*
D24*
G04 #@! TO.P,U4,1*
G04 #@! TO.N,/SD_DETECT*
X132075000Y-89225000D03*
G04 #@! TO.P,U4,5*
G04 #@! TO.N,/LORA_INT1*
X133925000Y-89225000D03*
G04 #@! TO.P,U4,6*
G04 #@! TO.N,/LORA_SS*
X134225000Y-88925000D03*
G04 #@! TO.P,U4,10*
G04 #@! TO.N,/SPI1_MOSI*
X134225000Y-87075000D03*
G04 #@! TO.P,U4,11*
G04 #@! TO.N,/IND_LED*
X133925000Y-86775000D03*
G04 #@! TO.P,U4,15*
G04 #@! TO.N,/UART2_RX*
X132075000Y-86775000D03*
G04 #@! TO.P,U4,16*
G04 #@! TO.N,/SWDIO*
X131775000Y-87075000D03*
G04 #@! TO.P,U4,20*
G04 #@! TO.N,/BOOT0*
X131775000Y-88925000D03*
D25*
X131700000Y-89000000D03*
D11*
G04 #@! TD*
G04 #@! TO.N,/BOOT0*
G04 #@! TO.C,U4*
G36*
X131849907Y-89000000D02*
X131700000Y-89149907D01*
X131550093Y-89000000D01*
X131700000Y-88850093D01*
X131849907Y-89000000D01*
X131849907Y-89000000D01*
G37*
D25*
G04 #@! TO.P,U4,16*
G04 #@! TO.N,/SWDIO*
X131700000Y-87000000D03*
D11*
G04 #@! TD*
G04 #@! TO.N,/SWDIO*
G04 #@! TO.C,U4*
G36*
X131849907Y-87000000D02*
X131700000Y-87149907D01*
X131550093Y-87000000D01*
X131700000Y-86850093D01*
X131849907Y-87000000D01*
X131849907Y-87000000D01*
G37*
D25*
G04 #@! TO.P,U4,6*
G04 #@! TO.N,/LORA_SS*
X134300000Y-89000000D03*
D11*
G04 #@! TD*
G04 #@! TO.N,/LORA_SS*
G04 #@! TO.C,U4*
G36*
X134449907Y-89000000D02*
X134300000Y-89149907D01*
X134150093Y-89000000D01*
X134300000Y-88850093D01*
X134449907Y-89000000D01*
X134449907Y-89000000D01*
G37*
D25*
G04 #@! TO.P,U4,10*
G04 #@! TO.N,/SPI1_MOSI*
X134300000Y-87000000D03*
D11*
G04 #@! TD*
G04 #@! TO.N,/SPI1_MOSI*
G04 #@! TO.C,U4*
G36*
X134449907Y-87000000D02*
X134300000Y-87149907D01*
X134150093Y-87000000D01*
X134300000Y-86850093D01*
X134449907Y-87000000D01*
X134449907Y-87000000D01*
G37*
D25*
G04 #@! TO.P,U4,1*
G04 #@! TO.N,/SD_DETECT*
X132000000Y-89300000D03*
D11*
G04 #@! TD*
G04 #@! TO.N,/SD_DETECT*
G04 #@! TO.C,U4*
G36*
X132149907Y-89300000D02*
X132000000Y-89449907D01*
X131850093Y-89300000D01*
X132000000Y-89150093D01*
X132149907Y-89300000D01*
X132149907Y-89300000D01*
G37*
D25*
G04 #@! TO.P,U4,15*
G04 #@! TO.N,/UART2_RX*
X132000000Y-86700000D03*
D11*
G04 #@! TD*
G04 #@! TO.N,/UART2_RX*
G04 #@! TO.C,U4*
G36*
X132149907Y-86700000D02*
X132000000Y-86849907D01*
X131850093Y-86700000D01*
X132000000Y-86550093D01*
X132149907Y-86700000D01*
X132149907Y-86700000D01*
G37*
D25*
G04 #@! TO.P,U4,5*
G04 #@! TO.N,/LORA_INT1*
X134000000Y-89300000D03*
D11*
G04 #@! TD*
G04 #@! TO.N,/LORA_INT1*
G04 #@! TO.C,U4*
G36*
X134149907Y-89300000D02*
X134000000Y-89449907D01*
X133850093Y-89300000D01*
X134000000Y-89150093D01*
X134149907Y-89300000D01*
X134149907Y-89300000D01*
G37*
D25*
G04 #@! TO.P,U4,11*
G04 #@! TO.N,/IND_LED*
X134000000Y-86700000D03*
D11*
G04 #@! TD*
G04 #@! TO.N,/IND_LED*
G04 #@! TO.C,U4*
G36*
X134149907Y-86700000D02*
X134000000Y-86849907D01*
X133850093Y-86700000D01*
X134000000Y-86550093D01*
X134149907Y-86700000D01*
X134149907Y-86700000D01*
G37*
D15*
G04 #@! TO.P,REF\002A\002A,2*
G04 #@! TO.N,GND*
X107790000Y-100250000D03*
D14*
G04 #@! TO.P,REF\002A\002A,1*
G04 #@! TO.N,/ANT*
X105250000Y-100250000D03*
G04 #@! TD*
D26*
G04 #@! TO.N,GND*
X135250000Y-81750000D03*
X127000000Y-97750000D03*
X120750000Y-97500000D03*
X107250000Y-98500000D03*
X107750000Y-92500000D03*
X103750000Y-92250000D03*
X103250000Y-101250000D03*
X103250000Y-100250000D03*
X103250000Y-99250000D03*
X103250000Y-98250000D03*
X104250000Y-98500000D03*
X106000000Y-98500000D03*
X139250000Y-82750000D03*
G04 #@! TO.N,VDD*
X137500000Y-88500000D03*
G04 #@! TO.N,/MCU_RESET*
X127250000Y-89775000D03*
X129000000Y-82000000D03*
G04 #@! TO.N,/BOOT0*
X130500000Y-89750000D03*
G04 #@! TO.N,/SWDIO*
X129750000Y-85750000D03*
G04 #@! TO.N,/SWCLK*
X130500000Y-87250000D03*
G04 #@! TO.N,/SD_DAT1*
X140750000Y-84250000D03*
G04 #@! TO.N,/SPI1_MISO*
X137500000Y-85250000D03*
X113250000Y-93074979D03*
G04 #@! TO.N,/SPI1_SCK*
X137500000Y-87250000D03*
X112000000Y-91000000D03*
G04 #@! TO.N,/SPI1_MOSI*
X113750000Y-91000000D03*
X135749993Y-85775313D03*
G04 #@! TO.N,/SPI1_SS*
X135750000Y-89000000D03*
G04 #@! TO.N,/SD_DAT2*
X140750000Y-90500000D03*
G04 #@! TO.N,/I2C1_SDA*
X103500000Y-94524989D03*
X101000000Y-93999976D03*
G04 #@! TO.N,/LORA_SS*
X135164221Y-89810473D03*
X111250000Y-89250000D03*
G04 #@! TO.N,/LORA_RESET*
X109750000Y-88500000D03*
X128750000Y-90500000D03*
G04 #@! TO.N,/LORA_INT1*
X134250000Y-90250000D03*
X120250000Y-91500000D03*
G04 #@! TD*
D27*
G04 #@! TO.N,+VDC*
X124000000Y-94350000D02*
X124000000Y-92000000D01*
X124000000Y-95000000D02*
X124000000Y-94350000D01*
X124000000Y-89800000D02*
X125600000Y-88200000D01*
X124000000Y-92000000D02*
X124000000Y-89800000D01*
X122575000Y-95000000D02*
X122000000Y-94425000D01*
X124000000Y-95000000D02*
X122575000Y-95000000D01*
G04 #@! TO.N,GND*
X99400000Y-87400000D02*
X99000000Y-87000000D01*
X99400000Y-89850000D02*
X99400000Y-87400000D01*
X134000000Y-83712500D02*
X133787500Y-83500000D01*
X134000000Y-85614998D02*
X134000000Y-83712500D01*
X133500000Y-86700000D02*
X133500000Y-86114998D01*
X133500000Y-86114998D02*
X134000000Y-85614998D01*
G04 #@! TO.N,VDD*
X127837500Y-94050000D02*
X128000000Y-94212500D01*
X126000000Y-94050000D02*
X127837500Y-94050000D01*
X128712500Y-93500000D02*
X132425000Y-93500000D01*
X128000000Y-94212500D02*
X128712500Y-93500000D01*
X132425000Y-93500000D02*
X132425000Y-92000000D01*
X132212500Y-83500000D02*
X132212500Y-82000000D01*
X132212500Y-83500000D02*
X132212500Y-84462500D01*
X133000000Y-85250000D02*
X133000000Y-86700000D01*
X132212500Y-84462500D02*
X133000000Y-85250000D01*
X132212500Y-83500000D02*
X130500000Y-83500000D01*
X133000000Y-87300000D02*
X133000000Y-86700000D01*
X133000000Y-88200000D02*
X133000000Y-87300000D01*
X133500000Y-88700000D02*
X133000000Y-88200000D01*
X133500000Y-89300000D02*
X133500000Y-88700000D01*
X142850000Y-86800000D02*
X142850000Y-89200000D01*
X135250000Y-90750000D02*
X137500000Y-88500000D01*
X137250000Y-92750000D02*
X135250000Y-90750000D01*
X139750000Y-92750000D02*
X137250000Y-92750000D01*
X142850000Y-89200000D02*
X142850000Y-89650000D01*
X142850000Y-89650000D02*
X139750000Y-92750000D01*
X133500000Y-89300000D02*
X133500000Y-90750000D01*
X132425000Y-91325000D02*
X132425000Y-92000000D01*
X132500000Y-91250000D02*
X132425000Y-91325000D01*
X133500000Y-90750000D02*
X133000000Y-91250000D01*
X133000000Y-91250000D02*
X132500000Y-91250000D01*
X134750000Y-91250000D02*
X135250000Y-90750000D01*
X134699990Y-91199990D02*
X134750000Y-91250000D01*
X133500000Y-90750000D02*
X133500000Y-91199990D01*
X133500000Y-91199990D02*
X134699990Y-91199990D01*
X101000000Y-97000000D02*
X103000000Y-97000000D01*
X101000000Y-97000000D02*
X96500000Y-92500000D01*
X96500000Y-92500000D02*
X96500000Y-90500000D01*
X97150000Y-89850000D02*
X98350000Y-89850000D01*
X96500000Y-90500000D02*
X97150000Y-89850000D01*
X99400000Y-91900000D02*
X99400000Y-92150000D01*
X99125001Y-91625001D02*
X99400000Y-91900000D01*
X99125001Y-90625001D02*
X99125001Y-91625001D01*
X98350000Y-89850000D02*
X99125001Y-90625001D01*
X100200000Y-90375000D02*
X100200000Y-89850000D01*
X100200000Y-90825000D02*
X100200000Y-90375000D01*
X99400000Y-91625000D02*
X100200000Y-90825000D01*
X99400000Y-92150000D02*
X99400000Y-91625000D01*
X97800000Y-87375000D02*
X97425000Y-87000000D01*
X97800000Y-89850000D02*
X97800000Y-87375000D01*
X97425000Y-85250000D02*
X97425000Y-87000000D01*
X128250000Y-82323002D02*
X129426998Y-83500000D01*
X128250000Y-78000000D02*
X128250000Y-82323002D01*
X129426998Y-83500000D02*
X130500000Y-83500000D01*
X113200000Y-95350000D02*
X112550010Y-94700010D01*
X113200000Y-96600000D02*
X113200000Y-95350000D01*
X103461612Y-96538388D02*
X103000000Y-97000000D01*
X103461612Y-96253386D02*
X103461612Y-96538388D01*
X105014988Y-94700010D02*
X103461612Y-96253386D01*
X112550010Y-94700010D02*
X105014988Y-94700010D01*
X125950000Y-94050000D02*
X126000000Y-94050000D01*
X113200000Y-97850000D02*
X115350000Y-100000000D01*
X113200000Y-96600000D02*
X113200000Y-97850000D01*
X115350000Y-100000000D02*
X120435002Y-100000000D01*
X120435002Y-100000000D02*
X125300000Y-95135002D01*
X125300000Y-95135002D02*
X125300000Y-94700000D01*
X125300000Y-94700000D02*
X125950000Y-94050000D01*
X98350000Y-89850000D02*
X98600000Y-89850000D01*
G04 #@! TO.N,/MCU_RESET*
X133540000Y-78885000D02*
X133540000Y-78000000D01*
X130500000Y-81925000D02*
X133540000Y-78885000D01*
X130425000Y-82000000D02*
X130500000Y-81925000D01*
X129000000Y-82000000D02*
X130425000Y-82000000D01*
X133000000Y-90000000D02*
X133000000Y-89300000D01*
X127250000Y-90073002D02*
X128401999Y-91225001D01*
X128401999Y-91225001D02*
X131811409Y-91225001D01*
X131811409Y-91225001D02*
X132950010Y-90086400D01*
X132950010Y-90086400D02*
X132950010Y-90049990D01*
X127250000Y-89775000D02*
X127250000Y-90073002D01*
X132950010Y-90049990D02*
X133000000Y-90000000D01*
G04 #@! TO.N,/BOOT0*
X131525000Y-89000000D02*
X131250000Y-89000000D01*
X131250000Y-89000000D02*
X130500000Y-89750000D01*
G04 #@! TO.N,/SWDIO*
X131500000Y-87000000D02*
X130250000Y-85750000D01*
X131525000Y-87000000D02*
X131500000Y-87000000D01*
X130250000Y-85750000D02*
X129750000Y-85750000D01*
G04 #@! TO.N,/SWCLK*
X131700000Y-87500000D02*
X130750000Y-87500000D01*
X130750000Y-87500000D02*
X130500000Y-87250000D01*
G04 #@! TO.N,/SD_DAT1*
X140374999Y-88860001D02*
X140374999Y-84625001D01*
X140439999Y-88925001D02*
X140374999Y-88860001D01*
X141150000Y-89200000D02*
X141150000Y-88925001D01*
X141150000Y-88925001D02*
X140439999Y-88925001D01*
X140374999Y-84625001D02*
X140750000Y-84250000D01*
G04 #@! TO.N,/SPI1_MISO*
X134300000Y-87500000D02*
X135250000Y-87500000D01*
X135250000Y-87500000D02*
X137500000Y-85250000D01*
X117200000Y-80600000D02*
X117200000Y-89124979D01*
X117200000Y-89124979D02*
X113250000Y-93074979D01*
G04 #@! TO.N,/SPI1_SCK*
X137500000Y-87426998D02*
X137500000Y-87250000D01*
X134300000Y-88000000D02*
X136926998Y-88000000D01*
X136926998Y-88000000D02*
X137500000Y-87426998D01*
X113200000Y-89800000D02*
X113200000Y-80600000D01*
X112000000Y-91000000D02*
X113200000Y-89800000D01*
G04 #@! TO.N,/SPI1_MOSI*
X115200000Y-89550000D02*
X115200000Y-80600000D01*
X113750000Y-91000000D02*
X115200000Y-89550000D01*
X135724687Y-85775313D02*
X135749993Y-85775313D01*
X134475000Y-87000000D02*
X134500000Y-87000000D01*
X134500000Y-87000000D02*
X135724687Y-85775313D01*
G04 #@! TO.N,/SPI1_SS*
X134300000Y-88500000D02*
X135250000Y-88500000D01*
X135250000Y-88500000D02*
X135750000Y-89000000D01*
G04 #@! TO.N,/SD_DAT2*
X141860001Y-89725001D02*
X142000000Y-89585002D01*
X140750000Y-90500000D02*
X141524999Y-89725001D01*
X141524999Y-89725001D02*
X141860001Y-89725001D01*
X141850000Y-88400000D02*
X141150000Y-88400000D01*
X142000000Y-88550000D02*
X141850000Y-88400000D01*
X142000000Y-89585002D02*
X142000000Y-88550000D01*
G04 #@! TO.N,/UART2_TX*
X131376100Y-84262510D02*
X129012510Y-84262510D01*
X132500000Y-86700000D02*
X132500000Y-85386410D01*
X132500000Y-85386410D02*
X131376100Y-84262510D01*
X125710000Y-80960000D02*
X125710000Y-78000000D01*
X129012510Y-84262510D02*
X125710000Y-80960000D01*
G04 #@! TO.N,/UART2_RX*
X132000000Y-85750000D02*
X132000000Y-86525000D01*
X131000000Y-84750000D02*
X132000000Y-85750000D01*
X128863590Y-84750000D02*
X131000000Y-84750000D01*
X123170000Y-78000000D02*
X123170000Y-79056410D01*
X123170000Y-79056410D02*
X128863590Y-84750000D01*
G04 #@! TO.N,/I2C1_SDA*
X103575000Y-95425000D02*
X103000000Y-95425000D01*
X104750000Y-94250000D02*
X103575000Y-95425000D01*
X122509402Y-86450010D02*
X114709412Y-94250000D01*
X126450010Y-86450010D02*
X122509402Y-86450010D01*
X128500000Y-88500000D02*
X126450010Y-86450010D01*
X114709412Y-94250000D02*
X104750000Y-94250000D01*
X131700000Y-88500000D02*
X128500000Y-88500000D01*
X103000000Y-95425000D02*
X103000000Y-95024989D01*
X103000000Y-95024989D02*
X103500000Y-94524989D01*
X100211386Y-93999976D02*
X100434315Y-93999976D01*
X100434315Y-93999976D02*
X101000000Y-93999976D01*
X98600000Y-92388590D02*
X100211386Y-93999976D01*
X98600000Y-92150000D02*
X98600000Y-92388590D01*
G04 #@! TO.N,/I2C1_SCL*
X97800000Y-92675000D02*
X97800000Y-92150000D01*
X97875001Y-92750001D02*
X97800000Y-92675000D01*
X98325001Y-92750001D02*
X97875001Y-92750001D01*
X101000000Y-95425000D02*
X98325001Y-92750001D01*
X128636410Y-88000000D02*
X126636410Y-85999999D01*
X126636410Y-85999999D02*
X122323002Y-85999999D01*
X101461612Y-94963388D02*
X101000000Y-95425000D01*
X131700000Y-88000000D02*
X128636410Y-88000000D01*
X122323002Y-85999999D02*
X114523012Y-93799989D01*
X102625011Y-93799989D02*
X101461612Y-94963388D01*
X114523012Y-93799989D02*
X102625011Y-93799989D01*
G04 #@! TO.N,/LORA_SS*
X134475000Y-89000000D02*
X134475000Y-89121252D01*
X134475000Y-89121252D02*
X135164221Y-89810473D01*
X111250000Y-80650000D02*
X111200000Y-80600000D01*
X111250000Y-89250000D02*
X111250000Y-80650000D01*
G04 #@! TO.N,/LORA_RESET*
X109200000Y-80600000D02*
X109200000Y-87950000D01*
X109200000Y-87950000D02*
X109750000Y-88500000D01*
X132500000Y-89900000D02*
X132500000Y-89300000D01*
X131900000Y-90500000D02*
X132500000Y-89900000D01*
X128750000Y-90500000D02*
X131900000Y-90500000D01*
G04 #@! TO.N,/ANT*
X105200000Y-100200000D02*
X105250000Y-100250000D01*
X105200000Y-96600000D02*
X105200000Y-100200000D01*
G04 #@! TO.N,/LORA_INT1*
X134000000Y-89475000D02*
X134000000Y-90000000D01*
X134000000Y-90000000D02*
X134250000Y-90250000D01*
X115200000Y-96100000D02*
X119800000Y-91500000D01*
X115200000Y-96600000D02*
X115200000Y-96100000D01*
X119800000Y-91500000D02*
X120250000Y-91500000D01*
G04 #@! TD*
D28*
G04 #@! TO.N,GND*
G36*
X99877560Y-96952362D02*
X99877560Y-97218750D01*
X99943495Y-97550227D01*
X100131261Y-97831239D01*
X100412273Y-98019005D01*
X100743750Y-98084940D01*
X101256250Y-98084940D01*
X101587727Y-98019005D01*
X101868739Y-97831239D01*
X101916339Y-97760000D01*
X102083661Y-97760000D01*
X102131261Y-97831239D01*
X102412273Y-98019005D01*
X102743750Y-98084940D01*
X103256250Y-98084940D01*
X103587727Y-98019005D01*
X103868739Y-97831239D01*
X104052560Y-97556131D01*
X104052560Y-97600000D01*
X104101843Y-97847765D01*
X104242191Y-98057809D01*
X104440000Y-98189982D01*
X104440001Y-98752560D01*
X104400000Y-98752560D01*
X104152235Y-98801843D01*
X103942191Y-98942191D01*
X103801843Y-99152235D01*
X103752560Y-99400000D01*
X103752560Y-101100000D01*
X103785380Y-101265000D01*
X96944246Y-101265000D01*
X96894345Y-101255074D01*
X96804774Y-101195225D01*
X96744926Y-101105655D01*
X96735000Y-101055754D01*
X96735000Y-93809801D01*
X99877560Y-96952362D01*
X99877560Y-96952362D01*
G37*
X99877560Y-96952362D02*
X99877560Y-97218750D01*
X99943495Y-97550227D01*
X100131261Y-97831239D01*
X100412273Y-98019005D01*
X100743750Y-98084940D01*
X101256250Y-98084940D01*
X101587727Y-98019005D01*
X101868739Y-97831239D01*
X101916339Y-97760000D01*
X102083661Y-97760000D01*
X102131261Y-97831239D01*
X102412273Y-98019005D01*
X102743750Y-98084940D01*
X103256250Y-98084940D01*
X103587727Y-98019005D01*
X103868739Y-97831239D01*
X104052560Y-97556131D01*
X104052560Y-97600000D01*
X104101843Y-97847765D01*
X104242191Y-98057809D01*
X104440000Y-98189982D01*
X104440001Y-98752560D01*
X104400000Y-98752560D01*
X104152235Y-98801843D01*
X103942191Y-98942191D01*
X103801843Y-99152235D01*
X103752560Y-99400000D01*
X103752560Y-101100000D01*
X103785380Y-101265000D01*
X96944246Y-101265000D01*
X96894345Y-101255074D01*
X96804774Y-101195225D01*
X96744926Y-101105655D01*
X96735000Y-101055754D01*
X96735000Y-93809801D01*
X99877560Y-96952362D01*
G36*
X144105655Y-76744926D02*
X144195225Y-76804774D01*
X144255074Y-76894345D01*
X144265000Y-76944246D01*
X144265001Y-101055749D01*
X144255074Y-101105655D01*
X144195225Y-101195226D01*
X144105655Y-101255074D01*
X144055754Y-101265000D01*
X106714620Y-101265000D01*
X106747440Y-101100000D01*
X106747440Y-99400000D01*
X106698157Y-99152235D01*
X106557809Y-98942191D01*
X106347765Y-98801843D01*
X106100000Y-98752560D01*
X105960000Y-98752560D01*
X105960000Y-98189982D01*
X106157809Y-98057809D01*
X106298157Y-97847765D01*
X106347440Y-97600000D01*
X106347440Y-95600000D01*
X106319595Y-95460010D01*
X108080405Y-95460010D01*
X108052560Y-95600000D01*
X108052560Y-97600000D01*
X108101843Y-97847765D01*
X108242191Y-98057809D01*
X108452235Y-98198157D01*
X108700000Y-98247440D01*
X109700000Y-98247440D01*
X109947765Y-98198157D01*
X110157809Y-98057809D01*
X110200000Y-97994666D01*
X110242191Y-98057809D01*
X110452235Y-98198157D01*
X110700000Y-98247440D01*
X111700000Y-98247440D01*
X111947765Y-98198157D01*
X112157809Y-98057809D01*
X112200000Y-97994666D01*
X112242191Y-98057809D01*
X112452235Y-98198157D01*
X112528759Y-98213378D01*
X112652072Y-98397929D01*
X112715528Y-98440329D01*
X114759671Y-100484473D01*
X114802071Y-100547929D01*
X115053463Y-100715904D01*
X115275148Y-100760000D01*
X115275152Y-100760000D01*
X115349999Y-100774888D01*
X115424846Y-100760000D01*
X120360155Y-100760000D01*
X120435002Y-100774888D01*
X120509849Y-100760000D01*
X120509854Y-100760000D01*
X120731539Y-100715904D01*
X120982931Y-100547929D01*
X121025333Y-100484470D01*
X122904644Y-98605159D01*
X136015000Y-98605159D01*
X136015000Y-99394841D01*
X136317199Y-100124412D01*
X136875588Y-100682801D01*
X137605159Y-100985000D01*
X138394841Y-100985000D01*
X139124412Y-100682801D01*
X139682801Y-100124412D01*
X139985000Y-99394841D01*
X139985000Y-98605159D01*
X139682801Y-97875588D01*
X139124412Y-97317199D01*
X138394841Y-97015000D01*
X137605159Y-97015000D01*
X136875588Y-97317199D01*
X136317199Y-97875588D01*
X136015000Y-98605159D01*
X122904644Y-98605159D01*
X125784473Y-95725331D01*
X125847929Y-95682931D01*
X126015904Y-95431539D01*
X126060000Y-95209854D01*
X126060000Y-95209850D01*
X126074888Y-95135003D01*
X126067416Y-95097440D01*
X126450000Y-95097440D01*
X126697765Y-95048157D01*
X126907809Y-94907809D01*
X126973163Y-94810000D01*
X126975082Y-94810000D01*
X127131261Y-95043739D01*
X127412273Y-95231505D01*
X127743750Y-95297440D01*
X128256250Y-95297440D01*
X128587727Y-95231505D01*
X128868739Y-95043739D01*
X129056505Y-94762727D01*
X129122440Y-94431250D01*
X129122440Y-94260000D01*
X131521104Y-94260000D01*
X131593761Y-94368739D01*
X131874773Y-94556505D01*
X132206250Y-94622440D01*
X132643750Y-94622440D01*
X132975227Y-94556505D01*
X133256239Y-94368739D01*
X133444005Y-94087727D01*
X133509940Y-93756250D01*
X133509940Y-93243750D01*
X133444005Y-92912273D01*
X133335578Y-92750000D01*
X133444005Y-92587727D01*
X133509940Y-92256250D01*
X133509940Y-91972902D01*
X133574852Y-91959990D01*
X134444612Y-91959990D01*
X134453463Y-91965904D01*
X134750000Y-92024888D01*
X135046537Y-91965904D01*
X135253089Y-91827890D01*
X136659671Y-93234473D01*
X136702071Y-93297929D01*
X136953463Y-93465904D01*
X137175148Y-93510000D01*
X137175152Y-93510000D01*
X137249999Y-93524888D01*
X137324846Y-93510000D01*
X139675153Y-93510000D01*
X139750000Y-93524888D01*
X139824847Y-93510000D01*
X139824852Y-93510000D01*
X140046537Y-93465904D01*
X140297929Y-93297929D01*
X140340331Y-93234470D01*
X143334473Y-90240329D01*
X143397929Y-90197929D01*
X143528906Y-90001908D01*
X143547765Y-89998157D01*
X143757809Y-89857809D01*
X143898157Y-89647765D01*
X143947440Y-89400000D01*
X143947440Y-89000000D01*
X143907658Y-88800000D01*
X143947440Y-88600000D01*
X143947440Y-88200000D01*
X143907658Y-88000000D01*
X143947440Y-87800000D01*
X143947440Y-87400000D01*
X143907658Y-87200000D01*
X143947440Y-87000000D01*
X143947440Y-86600000D01*
X143898157Y-86352235D01*
X143757809Y-86142191D01*
X143547765Y-86001843D01*
X143300000Y-85952560D01*
X142400000Y-85952560D01*
X142152235Y-86001843D01*
X142000000Y-86103564D01*
X141847765Y-86001843D01*
X141600000Y-85952560D01*
X141134999Y-85952560D01*
X141134999Y-85210804D01*
X141336280Y-85127431D01*
X141627431Y-84836280D01*
X141785000Y-84455874D01*
X141785000Y-84044126D01*
X141627431Y-83663720D01*
X141336280Y-83372569D01*
X140955874Y-83215000D01*
X140544126Y-83215000D01*
X140163720Y-83372569D01*
X139872569Y-83663720D01*
X139715000Y-84044126D01*
X139715000Y-84244798D01*
X139659096Y-84328464D01*
X139617546Y-84537352D01*
X139600111Y-84625001D01*
X139615000Y-84699853D01*
X139614999Y-88785154D01*
X139600111Y-88860001D01*
X139614999Y-88934848D01*
X139614999Y-88934852D01*
X139659095Y-89156537D01*
X139827070Y-89407930D01*
X139866035Y-89433965D01*
X139892070Y-89472930D01*
X140093890Y-89607782D01*
X140101843Y-89647765D01*
X140116535Y-89669754D01*
X139872569Y-89913720D01*
X139715000Y-90294126D01*
X139715000Y-90705874D01*
X139872569Y-91086280D01*
X140105744Y-91319455D01*
X139435199Y-91990000D01*
X137564802Y-91990000D01*
X136324801Y-90750000D01*
X137539802Y-89535000D01*
X137705874Y-89535000D01*
X138086280Y-89377431D01*
X138377431Y-89086280D01*
X138535000Y-88705874D01*
X138535000Y-88294126D01*
X138377431Y-87913720D01*
X138338711Y-87875000D01*
X138377431Y-87836280D01*
X138535000Y-87455874D01*
X138535000Y-87044126D01*
X138377431Y-86663720D01*
X138086280Y-86372569D01*
X137790372Y-86250000D01*
X138086280Y-86127431D01*
X138377431Y-85836280D01*
X138535000Y-85455874D01*
X138535000Y-85044126D01*
X138377431Y-84663720D01*
X138086280Y-84372569D01*
X137705874Y-84215000D01*
X137294126Y-84215000D01*
X136913720Y-84372569D01*
X136622569Y-84663720D01*
X136470131Y-85031740D01*
X136336273Y-84897882D01*
X135955867Y-84740313D01*
X135544119Y-84740313D01*
X135163713Y-84897882D01*
X134872562Y-85189033D01*
X134714993Y-85569439D01*
X134714993Y-85710205D01*
X134562969Y-85862230D01*
X134397765Y-85751843D01*
X134150000Y-85702560D01*
X133850000Y-85702560D01*
X133760000Y-85720462D01*
X133760000Y-85324846D01*
X133774888Y-85249999D01*
X133760000Y-85175152D01*
X133760000Y-85175148D01*
X133715904Y-84953463D01*
X133547929Y-84702071D01*
X133484473Y-84659671D01*
X133103741Y-84278940D01*
X133231505Y-84087727D01*
X133297440Y-83756250D01*
X133297440Y-83243750D01*
X133231505Y-82912273D01*
X133123078Y-82750000D01*
X133231505Y-82587727D01*
X133297440Y-82256250D01*
X133297440Y-81743750D01*
X133231505Y-81412273D01*
X133043739Y-81131261D01*
X132762727Y-80943495D01*
X132590554Y-80909248D01*
X134024473Y-79475329D01*
X134087929Y-79432929D01*
X134109372Y-79400837D01*
X134119418Y-79398839D01*
X134610625Y-79070625D01*
X134810000Y-78772239D01*
X135009375Y-79070625D01*
X135500582Y-79398839D01*
X135933744Y-79485000D01*
X136226256Y-79485000D01*
X136659418Y-79398839D01*
X137150625Y-79070625D01*
X137350000Y-78772239D01*
X137549375Y-79070625D01*
X138040582Y-79398839D01*
X138473744Y-79485000D01*
X138766256Y-79485000D01*
X139199418Y-79398839D01*
X139690625Y-79070625D01*
X139890000Y-78772239D01*
X140089375Y-79070625D01*
X140580582Y-79398839D01*
X141013744Y-79485000D01*
X141306256Y-79485000D01*
X141739418Y-79398839D01*
X142230625Y-79070625D01*
X142558839Y-78579418D01*
X142674092Y-78000000D01*
X142558839Y-77420582D01*
X142230625Y-76929375D01*
X141939722Y-76735000D01*
X144055754Y-76735000D01*
X144105655Y-76744926D01*
X144105655Y-76744926D01*
G37*
X144105655Y-76744926D02*
X144195225Y-76804774D01*
X144255074Y-76894345D01*
X144265000Y-76944246D01*
X144265001Y-101055749D01*
X144255074Y-101105655D01*
X144195225Y-101195226D01*
X144105655Y-101255074D01*
X144055754Y-101265000D01*
X106714620Y-101265000D01*
X106747440Y-101100000D01*
X106747440Y-99400000D01*
X106698157Y-99152235D01*
X106557809Y-98942191D01*
X106347765Y-98801843D01*
X106100000Y-98752560D01*
X105960000Y-98752560D01*
X105960000Y-98189982D01*
X106157809Y-98057809D01*
X106298157Y-97847765D01*
X106347440Y-97600000D01*
X106347440Y-95600000D01*
X106319595Y-95460010D01*
X108080405Y-95460010D01*
X108052560Y-95600000D01*
X108052560Y-97600000D01*
X108101843Y-97847765D01*
X108242191Y-98057809D01*
X108452235Y-98198157D01*
X108700000Y-98247440D01*
X109700000Y-98247440D01*
X109947765Y-98198157D01*
X110157809Y-98057809D01*
X110200000Y-97994666D01*
X110242191Y-98057809D01*
X110452235Y-98198157D01*
X110700000Y-98247440D01*
X111700000Y-98247440D01*
X111947765Y-98198157D01*
X112157809Y-98057809D01*
X112200000Y-97994666D01*
X112242191Y-98057809D01*
X112452235Y-98198157D01*
X112528759Y-98213378D01*
X112652072Y-98397929D01*
X112715528Y-98440329D01*
X114759671Y-100484473D01*
X114802071Y-100547929D01*
X115053463Y-100715904D01*
X115275148Y-100760000D01*
X115275152Y-100760000D01*
X115349999Y-100774888D01*
X115424846Y-100760000D01*
X120360155Y-100760000D01*
X120435002Y-100774888D01*
X120509849Y-100760000D01*
X120509854Y-100760000D01*
X120731539Y-100715904D01*
X120982931Y-100547929D01*
X121025333Y-100484470D01*
X122904644Y-98605159D01*
X136015000Y-98605159D01*
X136015000Y-99394841D01*
X136317199Y-100124412D01*
X136875588Y-100682801D01*
X137605159Y-100985000D01*
X138394841Y-100985000D01*
X139124412Y-100682801D01*
X139682801Y-100124412D01*
X139985000Y-99394841D01*
X139985000Y-98605159D01*
X139682801Y-97875588D01*
X139124412Y-97317199D01*
X138394841Y-97015000D01*
X137605159Y-97015000D01*
X136875588Y-97317199D01*
X136317199Y-97875588D01*
X136015000Y-98605159D01*
X122904644Y-98605159D01*
X125784473Y-95725331D01*
X125847929Y-95682931D01*
X126015904Y-95431539D01*
X126060000Y-95209854D01*
X126060000Y-95209850D01*
X126074888Y-95135003D01*
X126067416Y-95097440D01*
X126450000Y-95097440D01*
X126697765Y-95048157D01*
X126907809Y-94907809D01*
X126973163Y-94810000D01*
X126975082Y-94810000D01*
X127131261Y-95043739D01*
X127412273Y-95231505D01*
X127743750Y-95297440D01*
X128256250Y-95297440D01*
X128587727Y-95231505D01*
X128868739Y-95043739D01*
X129056505Y-94762727D01*
X129122440Y-94431250D01*
X129122440Y-94260000D01*
X131521104Y-94260000D01*
X131593761Y-94368739D01*
X131874773Y-94556505D01*
X132206250Y-94622440D01*
X132643750Y-94622440D01*
X132975227Y-94556505D01*
X133256239Y-94368739D01*
X133444005Y-94087727D01*
X133509940Y-93756250D01*
X133509940Y-93243750D01*
X133444005Y-92912273D01*
X133335578Y-92750000D01*
X133444005Y-92587727D01*
X133509940Y-92256250D01*
X133509940Y-91972902D01*
X133574852Y-91959990D01*
X134444612Y-91959990D01*
X134453463Y-91965904D01*
X134750000Y-92024888D01*
X135046537Y-91965904D01*
X135253089Y-91827890D01*
X136659671Y-93234473D01*
X136702071Y-93297929D01*
X136953463Y-93465904D01*
X137175148Y-93510000D01*
X137175152Y-93510000D01*
X137249999Y-93524888D01*
X137324846Y-93510000D01*
X139675153Y-93510000D01*
X139750000Y-93524888D01*
X139824847Y-93510000D01*
X139824852Y-93510000D01*
X140046537Y-93465904D01*
X140297929Y-93297929D01*
X140340331Y-93234470D01*
X143334473Y-90240329D01*
X143397929Y-90197929D01*
X143528906Y-90001908D01*
X143547765Y-89998157D01*
X143757809Y-89857809D01*
X143898157Y-89647765D01*
X143947440Y-89400000D01*
X143947440Y-89000000D01*
X143907658Y-88800000D01*
X143947440Y-88600000D01*
X143947440Y-88200000D01*
X143907658Y-88000000D01*
X143947440Y-87800000D01*
X143947440Y-87400000D01*
X143907658Y-87200000D01*
X143947440Y-87000000D01*
X143947440Y-86600000D01*
X143898157Y-86352235D01*
X143757809Y-86142191D01*
X143547765Y-86001843D01*
X143300000Y-85952560D01*
X142400000Y-85952560D01*
X142152235Y-86001843D01*
X142000000Y-86103564D01*
X141847765Y-86001843D01*
X141600000Y-85952560D01*
X141134999Y-85952560D01*
X141134999Y-85210804D01*
X141336280Y-85127431D01*
X141627431Y-84836280D01*
X141785000Y-84455874D01*
X141785000Y-84044126D01*
X141627431Y-83663720D01*
X141336280Y-83372569D01*
X140955874Y-83215000D01*
X140544126Y-83215000D01*
X140163720Y-83372569D01*
X139872569Y-83663720D01*
X139715000Y-84044126D01*
X139715000Y-84244798D01*
X139659096Y-84328464D01*
X139617546Y-84537352D01*
X139600111Y-84625001D01*
X139615000Y-84699853D01*
X139614999Y-88785154D01*
X139600111Y-88860001D01*
X139614999Y-88934848D01*
X139614999Y-88934852D01*
X139659095Y-89156537D01*
X139827070Y-89407930D01*
X139866035Y-89433965D01*
X139892070Y-89472930D01*
X140093890Y-89607782D01*
X140101843Y-89647765D01*
X140116535Y-89669754D01*
X139872569Y-89913720D01*
X139715000Y-90294126D01*
X139715000Y-90705874D01*
X139872569Y-91086280D01*
X140105744Y-91319455D01*
X139435199Y-91990000D01*
X137564802Y-91990000D01*
X136324801Y-90750000D01*
X137539802Y-89535000D01*
X137705874Y-89535000D01*
X138086280Y-89377431D01*
X138377431Y-89086280D01*
X138535000Y-88705874D01*
X138535000Y-88294126D01*
X138377431Y-87913720D01*
X138338711Y-87875000D01*
X138377431Y-87836280D01*
X138535000Y-87455874D01*
X138535000Y-87044126D01*
X138377431Y-86663720D01*
X138086280Y-86372569D01*
X137790372Y-86250000D01*
X138086280Y-86127431D01*
X138377431Y-85836280D01*
X138535000Y-85455874D01*
X138535000Y-85044126D01*
X138377431Y-84663720D01*
X138086280Y-84372569D01*
X137705874Y-84215000D01*
X137294126Y-84215000D01*
X136913720Y-84372569D01*
X136622569Y-84663720D01*
X136470131Y-85031740D01*
X136336273Y-84897882D01*
X135955867Y-84740313D01*
X135544119Y-84740313D01*
X135163713Y-84897882D01*
X134872562Y-85189033D01*
X134714993Y-85569439D01*
X134714993Y-85710205D01*
X134562969Y-85862230D01*
X134397765Y-85751843D01*
X134150000Y-85702560D01*
X133850000Y-85702560D01*
X133760000Y-85720462D01*
X133760000Y-85324846D01*
X133774888Y-85249999D01*
X133760000Y-85175152D01*
X133760000Y-85175148D01*
X133715904Y-84953463D01*
X133547929Y-84702071D01*
X133484473Y-84659671D01*
X133103741Y-84278940D01*
X133231505Y-84087727D01*
X133297440Y-83756250D01*
X133297440Y-83243750D01*
X133231505Y-82912273D01*
X133123078Y-82750000D01*
X133231505Y-82587727D01*
X133297440Y-82256250D01*
X133297440Y-81743750D01*
X133231505Y-81412273D01*
X133043739Y-81131261D01*
X132762727Y-80943495D01*
X132590554Y-80909248D01*
X134024473Y-79475329D01*
X134087929Y-79432929D01*
X134109372Y-79400837D01*
X134119418Y-79398839D01*
X134610625Y-79070625D01*
X134810000Y-78772239D01*
X135009375Y-79070625D01*
X135500582Y-79398839D01*
X135933744Y-79485000D01*
X136226256Y-79485000D01*
X136659418Y-79398839D01*
X137150625Y-79070625D01*
X137350000Y-78772239D01*
X137549375Y-79070625D01*
X138040582Y-79398839D01*
X138473744Y-79485000D01*
X138766256Y-79485000D01*
X139199418Y-79398839D01*
X139690625Y-79070625D01*
X139890000Y-78772239D01*
X140089375Y-79070625D01*
X140580582Y-79398839D01*
X141013744Y-79485000D01*
X141306256Y-79485000D01*
X141739418Y-79398839D01*
X142230625Y-79070625D01*
X142558839Y-78579418D01*
X142674092Y-78000000D01*
X142558839Y-77420582D01*
X142230625Y-76929375D01*
X141939722Y-76735000D01*
X144055754Y-76735000D01*
X144105655Y-76744926D01*
G36*
X123820000Y-87845936D02*
X123820000Y-88554064D01*
X123922845Y-88802354D01*
X123515528Y-89209671D01*
X123452072Y-89252071D01*
X123409672Y-89315527D01*
X123409671Y-89315528D01*
X123284097Y-89503463D01*
X123225112Y-89800000D01*
X123240001Y-89874851D01*
X123240000Y-91370299D01*
X123151843Y-91502235D01*
X123102560Y-91750000D01*
X123102560Y-92250000D01*
X123151843Y-92497765D01*
X123240001Y-92629701D01*
X123240000Y-94043427D01*
X123107644Y-94131866D01*
X123056505Y-93874773D01*
X122868739Y-93593761D01*
X122587727Y-93405995D01*
X122256250Y-93340060D01*
X121743750Y-93340060D01*
X121412273Y-93405995D01*
X121131261Y-93593761D01*
X120943495Y-93874773D01*
X120877560Y-94206250D01*
X120877560Y-94643750D01*
X120943495Y-94975227D01*
X121131261Y-95256239D01*
X121412273Y-95444005D01*
X121743750Y-95509940D01*
X122001688Y-95509940D01*
X122027071Y-95547929D01*
X122090527Y-95590329D01*
X122278462Y-95715904D01*
X122306782Y-95721537D01*
X122500148Y-95760000D01*
X122500152Y-95760000D01*
X122575000Y-95774888D01*
X122649848Y-95760000D01*
X123026837Y-95760000D01*
X123092191Y-95857809D01*
X123302235Y-95998157D01*
X123352121Y-96008080D01*
X120120201Y-99240000D01*
X115664802Y-99240000D01*
X114665349Y-98240548D01*
X114700000Y-98247440D01*
X115700000Y-98247440D01*
X115947765Y-98198157D01*
X116157809Y-98057809D01*
X116200000Y-97994666D01*
X116242191Y-98057809D01*
X116452235Y-98198157D01*
X116700000Y-98247440D01*
X117700000Y-98247440D01*
X117947765Y-98198157D01*
X118157809Y-98057809D01*
X118200000Y-97994666D01*
X118242191Y-98057809D01*
X118452235Y-98198157D01*
X118700000Y-98247440D01*
X119700000Y-98247440D01*
X119947765Y-98198157D01*
X120157809Y-98057809D01*
X120298157Y-97847765D01*
X120347440Y-97600000D01*
X120347440Y-95600000D01*
X120298157Y-95352235D01*
X120157809Y-95142191D01*
X119947765Y-95001843D01*
X119700000Y-94952560D01*
X118700000Y-94952560D01*
X118452235Y-95001843D01*
X118242191Y-95142191D01*
X118200000Y-95205334D01*
X118157809Y-95142191D01*
X117947765Y-95001843D01*
X117700000Y-94952560D01*
X117422242Y-94952560D01*
X119899648Y-92475155D01*
X120044126Y-92535000D01*
X120455874Y-92535000D01*
X120836280Y-92377431D01*
X121127431Y-92086280D01*
X121285000Y-91705874D01*
X121285000Y-91294126D01*
X121127431Y-90913720D01*
X120836280Y-90622569D01*
X120455874Y-90465000D01*
X120044126Y-90465000D01*
X119663720Y-90622569D01*
X119499636Y-90786653D01*
X119488452Y-90794126D01*
X119315526Y-90909671D01*
X119315524Y-90909673D01*
X119252071Y-90952071D01*
X119209673Y-91015524D01*
X115272639Y-94952560D01*
X115025920Y-94952560D01*
X115257341Y-94797929D01*
X115299743Y-94734470D01*
X122824204Y-87210010D01*
X124083409Y-87210010D01*
X123820000Y-87845936D01*
X123820000Y-87845936D01*
G37*
X123820000Y-87845936D02*
X123820000Y-88554064D01*
X123922845Y-88802354D01*
X123515528Y-89209671D01*
X123452072Y-89252071D01*
X123409672Y-89315527D01*
X123409671Y-89315528D01*
X123284097Y-89503463D01*
X123225112Y-89800000D01*
X123240001Y-89874851D01*
X123240000Y-91370299D01*
X123151843Y-91502235D01*
X123102560Y-91750000D01*
X123102560Y-92250000D01*
X123151843Y-92497765D01*
X123240001Y-92629701D01*
X123240000Y-94043427D01*
X123107644Y-94131866D01*
X123056505Y-93874773D01*
X122868739Y-93593761D01*
X122587727Y-93405995D01*
X122256250Y-93340060D01*
X121743750Y-93340060D01*
X121412273Y-93405995D01*
X121131261Y-93593761D01*
X120943495Y-93874773D01*
X120877560Y-94206250D01*
X120877560Y-94643750D01*
X120943495Y-94975227D01*
X121131261Y-95256239D01*
X121412273Y-95444005D01*
X121743750Y-95509940D01*
X122001688Y-95509940D01*
X122027071Y-95547929D01*
X122090527Y-95590329D01*
X122278462Y-95715904D01*
X122306782Y-95721537D01*
X122500148Y-95760000D01*
X122500152Y-95760000D01*
X122575000Y-95774888D01*
X122649848Y-95760000D01*
X123026837Y-95760000D01*
X123092191Y-95857809D01*
X123302235Y-95998157D01*
X123352121Y-96008080D01*
X120120201Y-99240000D01*
X115664802Y-99240000D01*
X114665349Y-98240548D01*
X114700000Y-98247440D01*
X115700000Y-98247440D01*
X115947765Y-98198157D01*
X116157809Y-98057809D01*
X116200000Y-97994666D01*
X116242191Y-98057809D01*
X116452235Y-98198157D01*
X116700000Y-98247440D01*
X117700000Y-98247440D01*
X117947765Y-98198157D01*
X118157809Y-98057809D01*
X118200000Y-97994666D01*
X118242191Y-98057809D01*
X118452235Y-98198157D01*
X118700000Y-98247440D01*
X119700000Y-98247440D01*
X119947765Y-98198157D01*
X120157809Y-98057809D01*
X120298157Y-97847765D01*
X120347440Y-97600000D01*
X120347440Y-95600000D01*
X120298157Y-95352235D01*
X120157809Y-95142191D01*
X119947765Y-95001843D01*
X119700000Y-94952560D01*
X118700000Y-94952560D01*
X118452235Y-95001843D01*
X118242191Y-95142191D01*
X118200000Y-95205334D01*
X118157809Y-95142191D01*
X117947765Y-95001843D01*
X117700000Y-94952560D01*
X117422242Y-94952560D01*
X119899648Y-92475155D01*
X120044126Y-92535000D01*
X120455874Y-92535000D01*
X120836280Y-92377431D01*
X121127431Y-92086280D01*
X121285000Y-91705874D01*
X121285000Y-91294126D01*
X121127431Y-90913720D01*
X120836280Y-90622569D01*
X120455874Y-90465000D01*
X120044126Y-90465000D01*
X119663720Y-90622569D01*
X119499636Y-90786653D01*
X119488452Y-90794126D01*
X119315526Y-90909671D01*
X119315524Y-90909673D01*
X119252071Y-90952071D01*
X119209673Y-91015524D01*
X115272639Y-94952560D01*
X115025920Y-94952560D01*
X115257341Y-94797929D01*
X115299743Y-94734470D01*
X122824204Y-87210010D01*
X124083409Y-87210010D01*
X123820000Y-87845936D01*
G36*
X122099375Y-76929375D02*
X121771161Y-77420582D01*
X121655908Y-78000000D01*
X121771161Y-78579418D01*
X122099375Y-79070625D01*
X122443704Y-79300698D01*
X122454097Y-79352947D01*
X122622072Y-79604339D01*
X122685528Y-79646739D01*
X128273260Y-85234472D01*
X128315661Y-85297929D01*
X128567053Y-85465904D01*
X128733672Y-85499047D01*
X128715000Y-85544126D01*
X128715000Y-85955874D01*
X128872569Y-86336280D01*
X129163720Y-86627431D01*
X129544126Y-86785000D01*
X129572333Y-86785000D01*
X129465000Y-87044126D01*
X129465000Y-87240000D01*
X128951212Y-87240000D01*
X127226741Y-85515529D01*
X127184339Y-85452070D01*
X126932947Y-85284095D01*
X126711262Y-85239999D01*
X126711257Y-85239999D01*
X126636410Y-85225111D01*
X126561563Y-85239999D01*
X122397850Y-85239999D01*
X122323002Y-85225111D01*
X122248154Y-85239999D01*
X122248150Y-85239999D01*
X122026465Y-85284095D01*
X121775073Y-85452070D01*
X121732673Y-85515526D01*
X117938058Y-89310142D01*
X117960000Y-89199831D01*
X117960000Y-89199827D01*
X117974888Y-89124979D01*
X117960000Y-89050131D01*
X117960000Y-82189982D01*
X118157809Y-82057809D01*
X118298157Y-81847765D01*
X118347440Y-81600000D01*
X118347440Y-79600000D01*
X118298157Y-79352235D01*
X118157809Y-79142191D01*
X117947765Y-79001843D01*
X117700000Y-78952560D01*
X116700000Y-78952560D01*
X116452235Y-79001843D01*
X116242191Y-79142191D01*
X116200000Y-79205334D01*
X116157809Y-79142191D01*
X115947765Y-79001843D01*
X115700000Y-78952560D01*
X114700000Y-78952560D01*
X114452235Y-79001843D01*
X114242191Y-79142191D01*
X114200000Y-79205334D01*
X114157809Y-79142191D01*
X113947765Y-79001843D01*
X113700000Y-78952560D01*
X112700000Y-78952560D01*
X112452235Y-79001843D01*
X112242191Y-79142191D01*
X112200000Y-79205334D01*
X112157809Y-79142191D01*
X111947765Y-79001843D01*
X111700000Y-78952560D01*
X110700000Y-78952560D01*
X110452235Y-79001843D01*
X110242191Y-79142191D01*
X110200000Y-79205334D01*
X110157809Y-79142191D01*
X109947765Y-79001843D01*
X109700000Y-78952560D01*
X108700000Y-78952560D01*
X108452235Y-79001843D01*
X108242191Y-79142191D01*
X108200000Y-79205334D01*
X108157809Y-79142191D01*
X107947765Y-79001843D01*
X107700000Y-78952560D01*
X106700000Y-78952560D01*
X106452235Y-79001843D01*
X106242191Y-79142191D01*
X106101843Y-79352235D01*
X106052560Y-79600000D01*
X106052560Y-81600000D01*
X106101843Y-81847765D01*
X106242191Y-82057809D01*
X106452235Y-82198157D01*
X106700000Y-82247440D01*
X107700000Y-82247440D01*
X107947765Y-82198157D01*
X108157809Y-82057809D01*
X108200000Y-81994666D01*
X108242191Y-82057809D01*
X108440000Y-82189982D01*
X108440001Y-87875148D01*
X108425112Y-87950000D01*
X108440001Y-88024852D01*
X108467878Y-88165001D01*
X108484097Y-88246537D01*
X108592702Y-88409075D01*
X108652072Y-88497929D01*
X108715000Y-88539976D01*
X108715000Y-88705874D01*
X108872569Y-89086280D01*
X109163720Y-89377431D01*
X109544126Y-89535000D01*
X109955874Y-89535000D01*
X110215000Y-89427667D01*
X110215000Y-89455874D01*
X110372569Y-89836280D01*
X110663720Y-90127431D01*
X111044126Y-90285000D01*
X111251289Y-90285000D01*
X111122569Y-90413720D01*
X110965000Y-90794126D01*
X110965000Y-91205874D01*
X111122569Y-91586280D01*
X111413720Y-91877431D01*
X111794126Y-92035000D01*
X112205874Y-92035000D01*
X112586280Y-91877431D01*
X112875000Y-91588711D01*
X113163720Y-91877431D01*
X113311524Y-91938653D01*
X113210199Y-92039979D01*
X113044126Y-92039979D01*
X112663720Y-92197548D01*
X112372569Y-92488699D01*
X112215000Y-92869105D01*
X112215000Y-93039989D01*
X102699859Y-93039989D01*
X102625011Y-93025101D01*
X102550163Y-93039989D01*
X102550159Y-93039989D01*
X102328474Y-93084085D01*
X102077082Y-93252060D01*
X102034682Y-93315516D01*
X101894733Y-93455466D01*
X101877431Y-93413696D01*
X101586280Y-93122545D01*
X101205874Y-92964976D01*
X100794126Y-92964976D01*
X100413720Y-93122545D01*
X100411238Y-93125027D01*
X100102354Y-92816143D01*
X100198157Y-92672765D01*
X100247440Y-92425000D01*
X100247440Y-91875000D01*
X100243684Y-91856117D01*
X100684473Y-91415329D01*
X100747929Y-91372929D01*
X100790924Y-91308582D01*
X100915904Y-91121538D01*
X100925480Y-91073395D01*
X100960000Y-90899852D01*
X100960000Y-90899848D01*
X100974888Y-90825000D01*
X100960000Y-90750152D01*
X100960000Y-90429871D01*
X100998157Y-90372765D01*
X101047440Y-90125000D01*
X101047440Y-89575000D01*
X100998157Y-89327235D01*
X100857809Y-89117191D01*
X100647765Y-88976843D01*
X100400000Y-88927560D01*
X100000000Y-88927560D01*
X99752235Y-88976843D01*
X99542191Y-89117191D01*
X99401843Y-89327235D01*
X99400000Y-89336500D01*
X99398157Y-89327235D01*
X99257809Y-89117191D01*
X99047765Y-88976843D01*
X98800000Y-88927560D01*
X98560000Y-88927560D01*
X98560000Y-87449846D01*
X98574888Y-87374999D01*
X98560000Y-87300152D01*
X98560000Y-87300148D01*
X98515904Y-87078463D01*
X98509940Y-87069537D01*
X98509940Y-86743750D01*
X98444005Y-86412273D01*
X98256239Y-86131261D01*
X98246869Y-86125000D01*
X98256239Y-86118739D01*
X98444005Y-85837727D01*
X98509940Y-85506250D01*
X98509940Y-84993750D01*
X98444005Y-84662273D01*
X98256239Y-84381261D01*
X97975227Y-84193495D01*
X97643750Y-84127560D01*
X97206250Y-84127560D01*
X96874773Y-84193495D01*
X96735000Y-84286888D01*
X96735000Y-78605159D01*
X97015000Y-78605159D01*
X97015000Y-79394841D01*
X97317199Y-80124412D01*
X97875588Y-80682801D01*
X98605159Y-80985000D01*
X99394841Y-80985000D01*
X100124412Y-80682801D01*
X100682801Y-80124412D01*
X100985000Y-79394841D01*
X100985000Y-78605159D01*
X100682801Y-77875588D01*
X100124412Y-77317199D01*
X99394841Y-77015000D01*
X98605159Y-77015000D01*
X97875588Y-77317199D01*
X97317199Y-77875588D01*
X97015000Y-78605159D01*
X96735000Y-78605159D01*
X96735000Y-76944246D01*
X96744926Y-76894345D01*
X96804774Y-76804775D01*
X96894345Y-76744926D01*
X96944246Y-76735000D01*
X122390278Y-76735000D01*
X122099375Y-76929375D01*
X122099375Y-76929375D01*
G37*
X122099375Y-76929375D02*
X121771161Y-77420582D01*
X121655908Y-78000000D01*
X121771161Y-78579418D01*
X122099375Y-79070625D01*
X122443704Y-79300698D01*
X122454097Y-79352947D01*
X122622072Y-79604339D01*
X122685528Y-79646739D01*
X128273260Y-85234472D01*
X128315661Y-85297929D01*
X128567053Y-85465904D01*
X128733672Y-85499047D01*
X128715000Y-85544126D01*
X128715000Y-85955874D01*
X128872569Y-86336280D01*
X129163720Y-86627431D01*
X129544126Y-86785000D01*
X129572333Y-86785000D01*
X129465000Y-87044126D01*
X129465000Y-87240000D01*
X128951212Y-87240000D01*
X127226741Y-85515529D01*
X127184339Y-85452070D01*
X126932947Y-85284095D01*
X126711262Y-85239999D01*
X126711257Y-85239999D01*
X126636410Y-85225111D01*
X126561563Y-85239999D01*
X122397850Y-85239999D01*
X122323002Y-85225111D01*
X122248154Y-85239999D01*
X122248150Y-85239999D01*
X122026465Y-85284095D01*
X121775073Y-85452070D01*
X121732673Y-85515526D01*
X117938058Y-89310142D01*
X117960000Y-89199831D01*
X117960000Y-89199827D01*
X117974888Y-89124979D01*
X117960000Y-89050131D01*
X117960000Y-82189982D01*
X118157809Y-82057809D01*
X118298157Y-81847765D01*
X118347440Y-81600000D01*
X118347440Y-79600000D01*
X118298157Y-79352235D01*
X118157809Y-79142191D01*
X117947765Y-79001843D01*
X117700000Y-78952560D01*
X116700000Y-78952560D01*
X116452235Y-79001843D01*
X116242191Y-79142191D01*
X116200000Y-79205334D01*
X116157809Y-79142191D01*
X115947765Y-79001843D01*
X115700000Y-78952560D01*
X114700000Y-78952560D01*
X114452235Y-79001843D01*
X114242191Y-79142191D01*
X114200000Y-79205334D01*
X114157809Y-79142191D01*
X113947765Y-79001843D01*
X113700000Y-78952560D01*
X112700000Y-78952560D01*
X112452235Y-79001843D01*
X112242191Y-79142191D01*
X112200000Y-79205334D01*
X112157809Y-79142191D01*
X111947765Y-79001843D01*
X111700000Y-78952560D01*
X110700000Y-78952560D01*
X110452235Y-79001843D01*
X110242191Y-79142191D01*
X110200000Y-79205334D01*
X110157809Y-79142191D01*
X109947765Y-79001843D01*
X109700000Y-78952560D01*
X108700000Y-78952560D01*
X108452235Y-79001843D01*
X108242191Y-79142191D01*
X108200000Y-79205334D01*
X108157809Y-79142191D01*
X107947765Y-79001843D01*
X107700000Y-78952560D01*
X106700000Y-78952560D01*
X106452235Y-79001843D01*
X106242191Y-79142191D01*
X106101843Y-79352235D01*
X106052560Y-79600000D01*
X106052560Y-81600000D01*
X106101843Y-81847765D01*
X106242191Y-82057809D01*
X106452235Y-82198157D01*
X106700000Y-82247440D01*
X107700000Y-82247440D01*
X107947765Y-82198157D01*
X108157809Y-82057809D01*
X108200000Y-81994666D01*
X108242191Y-82057809D01*
X108440000Y-82189982D01*
X108440001Y-87875148D01*
X108425112Y-87950000D01*
X108440001Y-88024852D01*
X108467878Y-88165001D01*
X108484097Y-88246537D01*
X108592702Y-88409075D01*
X108652072Y-88497929D01*
X108715000Y-88539976D01*
X108715000Y-88705874D01*
X108872569Y-89086280D01*
X109163720Y-89377431D01*
X109544126Y-89535000D01*
X109955874Y-89535000D01*
X110215000Y-89427667D01*
X110215000Y-89455874D01*
X110372569Y-89836280D01*
X110663720Y-90127431D01*
X111044126Y-90285000D01*
X111251289Y-90285000D01*
X111122569Y-90413720D01*
X110965000Y-90794126D01*
X110965000Y-91205874D01*
X111122569Y-91586280D01*
X111413720Y-91877431D01*
X111794126Y-92035000D01*
X112205874Y-92035000D01*
X112586280Y-91877431D01*
X112875000Y-91588711D01*
X113163720Y-91877431D01*
X113311524Y-91938653D01*
X113210199Y-92039979D01*
X113044126Y-92039979D01*
X112663720Y-92197548D01*
X112372569Y-92488699D01*
X112215000Y-92869105D01*
X112215000Y-93039989D01*
X102699859Y-93039989D01*
X102625011Y-93025101D01*
X102550163Y-93039989D01*
X102550159Y-93039989D01*
X102328474Y-93084085D01*
X102077082Y-93252060D01*
X102034682Y-93315516D01*
X101894733Y-93455466D01*
X101877431Y-93413696D01*
X101586280Y-93122545D01*
X101205874Y-92964976D01*
X100794126Y-92964976D01*
X100413720Y-93122545D01*
X100411238Y-93125027D01*
X100102354Y-92816143D01*
X100198157Y-92672765D01*
X100247440Y-92425000D01*
X100247440Y-91875000D01*
X100243684Y-91856117D01*
X100684473Y-91415329D01*
X100747929Y-91372929D01*
X100790924Y-91308582D01*
X100915904Y-91121538D01*
X100925480Y-91073395D01*
X100960000Y-90899852D01*
X100960000Y-90899848D01*
X100974888Y-90825000D01*
X100960000Y-90750152D01*
X100960000Y-90429871D01*
X100998157Y-90372765D01*
X101047440Y-90125000D01*
X101047440Y-89575000D01*
X100998157Y-89327235D01*
X100857809Y-89117191D01*
X100647765Y-88976843D01*
X100400000Y-88927560D01*
X100000000Y-88927560D01*
X99752235Y-88976843D01*
X99542191Y-89117191D01*
X99401843Y-89327235D01*
X99400000Y-89336500D01*
X99398157Y-89327235D01*
X99257809Y-89117191D01*
X99047765Y-88976843D01*
X98800000Y-88927560D01*
X98560000Y-88927560D01*
X98560000Y-87449846D01*
X98574888Y-87374999D01*
X98560000Y-87300152D01*
X98560000Y-87300148D01*
X98515904Y-87078463D01*
X98509940Y-87069537D01*
X98509940Y-86743750D01*
X98444005Y-86412273D01*
X98256239Y-86131261D01*
X98246869Y-86125000D01*
X98256239Y-86118739D01*
X98444005Y-85837727D01*
X98509940Y-85506250D01*
X98509940Y-84993750D01*
X98444005Y-84662273D01*
X98256239Y-84381261D01*
X97975227Y-84193495D01*
X97643750Y-84127560D01*
X97206250Y-84127560D01*
X96874773Y-84193495D01*
X96735000Y-84286888D01*
X96735000Y-78605159D01*
X97015000Y-78605159D01*
X97015000Y-79394841D01*
X97317199Y-80124412D01*
X97875588Y-80682801D01*
X98605159Y-80985000D01*
X99394841Y-80985000D01*
X100124412Y-80682801D01*
X100682801Y-80124412D01*
X100985000Y-79394841D01*
X100985000Y-78605159D01*
X100682801Y-77875588D01*
X100124412Y-77317199D01*
X99394841Y-77015000D01*
X98605159Y-77015000D01*
X97875588Y-77317199D01*
X97317199Y-77875588D01*
X97015000Y-78605159D01*
X96735000Y-78605159D01*
X96735000Y-76944246D01*
X96744926Y-76894345D01*
X96804774Y-76804775D01*
X96894345Y-76744926D01*
X96944246Y-76735000D01*
X122390278Y-76735000D01*
X122099375Y-76929375D01*
G04 #@! TD*
M02*
