G04 #@! TF.GenerationSoftware,KiCad,Pcbnew,(5.0.0)*
G04 #@! TF.CreationDate,2018-07-30T22:46:19+01:00*
G04 #@! TF.ProjectId,CHARLIE,434841524C49452E6B696361645F7063,rev?*
G04 #@! TF.SameCoordinates,Original*
G04 #@! TF.FileFunction,Paste,Top*
G04 #@! TF.FilePolarity,Positive*
%FSLAX46Y46*%
G04 Gerber Fmt 4.6, Leading zero omitted, Abs format (unit mm)*
G04 Created by KiCad (PCBNEW (5.0.0)) date 07/30/18 22:46:19*
%MOMM*%
%LPD*%
G01*
G04 APERTURE LIST*
%ADD10C,0.100000*%
%ADD11C,0.975000*%
%ADD12C,0.875000*%
G04 APERTURE END LIST*
D10*
G04 #@! TO.C,*
G36*
X175330142Y-102301174D02*
X175353803Y-102304684D01*
X175377007Y-102310496D01*
X175399529Y-102318554D01*
X175421153Y-102328782D01*
X175441670Y-102341079D01*
X175460883Y-102355329D01*
X175478607Y-102371393D01*
X175494671Y-102389117D01*
X175508921Y-102408330D01*
X175521218Y-102428847D01*
X175531446Y-102450471D01*
X175539504Y-102472993D01*
X175545316Y-102496197D01*
X175548826Y-102519858D01*
X175550000Y-102543750D01*
X175550000Y-103456250D01*
X175548826Y-103480142D01*
X175545316Y-103503803D01*
X175539504Y-103527007D01*
X175531446Y-103549529D01*
X175521218Y-103571153D01*
X175508921Y-103591670D01*
X175494671Y-103610883D01*
X175478607Y-103628607D01*
X175460883Y-103644671D01*
X175441670Y-103658921D01*
X175421153Y-103671218D01*
X175399529Y-103681446D01*
X175377007Y-103689504D01*
X175353803Y-103695316D01*
X175330142Y-103698826D01*
X175306250Y-103700000D01*
X174818750Y-103700000D01*
X174794858Y-103698826D01*
X174771197Y-103695316D01*
X174747993Y-103689504D01*
X174725471Y-103681446D01*
X174703847Y-103671218D01*
X174683330Y-103658921D01*
X174664117Y-103644671D01*
X174646393Y-103628607D01*
X174630329Y-103610883D01*
X174616079Y-103591670D01*
X174603782Y-103571153D01*
X174593554Y-103549529D01*
X174585496Y-103527007D01*
X174579684Y-103503803D01*
X174576174Y-103480142D01*
X174575000Y-103456250D01*
X174575000Y-102543750D01*
X174576174Y-102519858D01*
X174579684Y-102496197D01*
X174585496Y-102472993D01*
X174593554Y-102450471D01*
X174603782Y-102428847D01*
X174616079Y-102408330D01*
X174630329Y-102389117D01*
X174646393Y-102371393D01*
X174664117Y-102355329D01*
X174683330Y-102341079D01*
X174703847Y-102328782D01*
X174725471Y-102318554D01*
X174747993Y-102310496D01*
X174771197Y-102304684D01*
X174794858Y-102301174D01*
X174818750Y-102300000D01*
X175306250Y-102300000D01*
X175330142Y-102301174D01*
X175330142Y-102301174D01*
G37*
D11*
X175062500Y-103000000D03*
D10*
G36*
X177205142Y-102301174D02*
X177228803Y-102304684D01*
X177252007Y-102310496D01*
X177274529Y-102318554D01*
X177296153Y-102328782D01*
X177316670Y-102341079D01*
X177335883Y-102355329D01*
X177353607Y-102371393D01*
X177369671Y-102389117D01*
X177383921Y-102408330D01*
X177396218Y-102428847D01*
X177406446Y-102450471D01*
X177414504Y-102472993D01*
X177420316Y-102496197D01*
X177423826Y-102519858D01*
X177425000Y-102543750D01*
X177425000Y-103456250D01*
X177423826Y-103480142D01*
X177420316Y-103503803D01*
X177414504Y-103527007D01*
X177406446Y-103549529D01*
X177396218Y-103571153D01*
X177383921Y-103591670D01*
X177369671Y-103610883D01*
X177353607Y-103628607D01*
X177335883Y-103644671D01*
X177316670Y-103658921D01*
X177296153Y-103671218D01*
X177274529Y-103681446D01*
X177252007Y-103689504D01*
X177228803Y-103695316D01*
X177205142Y-103698826D01*
X177181250Y-103700000D01*
X176693750Y-103700000D01*
X176669858Y-103698826D01*
X176646197Y-103695316D01*
X176622993Y-103689504D01*
X176600471Y-103681446D01*
X176578847Y-103671218D01*
X176558330Y-103658921D01*
X176539117Y-103644671D01*
X176521393Y-103628607D01*
X176505329Y-103610883D01*
X176491079Y-103591670D01*
X176478782Y-103571153D01*
X176468554Y-103549529D01*
X176460496Y-103527007D01*
X176454684Y-103503803D01*
X176451174Y-103480142D01*
X176450000Y-103456250D01*
X176450000Y-102543750D01*
X176451174Y-102519858D01*
X176454684Y-102496197D01*
X176460496Y-102472993D01*
X176468554Y-102450471D01*
X176478782Y-102428847D01*
X176491079Y-102408330D01*
X176505329Y-102389117D01*
X176521393Y-102371393D01*
X176539117Y-102355329D01*
X176558330Y-102341079D01*
X176578847Y-102328782D01*
X176600471Y-102318554D01*
X176622993Y-102310496D01*
X176646197Y-102304684D01*
X176669858Y-102301174D01*
X176693750Y-102300000D01*
X177181250Y-102300000D01*
X177205142Y-102301174D01*
X177205142Y-102301174D01*
G37*
D11*
X176937500Y-103000000D03*
G04 #@! TD*
D10*
G04 #@! TO.C,*
G36*
X177205142Y-106301174D02*
X177228803Y-106304684D01*
X177252007Y-106310496D01*
X177274529Y-106318554D01*
X177296153Y-106328782D01*
X177316670Y-106341079D01*
X177335883Y-106355329D01*
X177353607Y-106371393D01*
X177369671Y-106389117D01*
X177383921Y-106408330D01*
X177396218Y-106428847D01*
X177406446Y-106450471D01*
X177414504Y-106472993D01*
X177420316Y-106496197D01*
X177423826Y-106519858D01*
X177425000Y-106543750D01*
X177425000Y-107456250D01*
X177423826Y-107480142D01*
X177420316Y-107503803D01*
X177414504Y-107527007D01*
X177406446Y-107549529D01*
X177396218Y-107571153D01*
X177383921Y-107591670D01*
X177369671Y-107610883D01*
X177353607Y-107628607D01*
X177335883Y-107644671D01*
X177316670Y-107658921D01*
X177296153Y-107671218D01*
X177274529Y-107681446D01*
X177252007Y-107689504D01*
X177228803Y-107695316D01*
X177205142Y-107698826D01*
X177181250Y-107700000D01*
X176693750Y-107700000D01*
X176669858Y-107698826D01*
X176646197Y-107695316D01*
X176622993Y-107689504D01*
X176600471Y-107681446D01*
X176578847Y-107671218D01*
X176558330Y-107658921D01*
X176539117Y-107644671D01*
X176521393Y-107628607D01*
X176505329Y-107610883D01*
X176491079Y-107591670D01*
X176478782Y-107571153D01*
X176468554Y-107549529D01*
X176460496Y-107527007D01*
X176454684Y-107503803D01*
X176451174Y-107480142D01*
X176450000Y-107456250D01*
X176450000Y-106543750D01*
X176451174Y-106519858D01*
X176454684Y-106496197D01*
X176460496Y-106472993D01*
X176468554Y-106450471D01*
X176478782Y-106428847D01*
X176491079Y-106408330D01*
X176505329Y-106389117D01*
X176521393Y-106371393D01*
X176539117Y-106355329D01*
X176558330Y-106341079D01*
X176578847Y-106328782D01*
X176600471Y-106318554D01*
X176622993Y-106310496D01*
X176646197Y-106304684D01*
X176669858Y-106301174D01*
X176693750Y-106300000D01*
X177181250Y-106300000D01*
X177205142Y-106301174D01*
X177205142Y-106301174D01*
G37*
D11*
X176937500Y-107000000D03*
D10*
G36*
X175330142Y-106301174D02*
X175353803Y-106304684D01*
X175377007Y-106310496D01*
X175399529Y-106318554D01*
X175421153Y-106328782D01*
X175441670Y-106341079D01*
X175460883Y-106355329D01*
X175478607Y-106371393D01*
X175494671Y-106389117D01*
X175508921Y-106408330D01*
X175521218Y-106428847D01*
X175531446Y-106450471D01*
X175539504Y-106472993D01*
X175545316Y-106496197D01*
X175548826Y-106519858D01*
X175550000Y-106543750D01*
X175550000Y-107456250D01*
X175548826Y-107480142D01*
X175545316Y-107503803D01*
X175539504Y-107527007D01*
X175531446Y-107549529D01*
X175521218Y-107571153D01*
X175508921Y-107591670D01*
X175494671Y-107610883D01*
X175478607Y-107628607D01*
X175460883Y-107644671D01*
X175441670Y-107658921D01*
X175421153Y-107671218D01*
X175399529Y-107681446D01*
X175377007Y-107689504D01*
X175353803Y-107695316D01*
X175330142Y-107698826D01*
X175306250Y-107700000D01*
X174818750Y-107700000D01*
X174794858Y-107698826D01*
X174771197Y-107695316D01*
X174747993Y-107689504D01*
X174725471Y-107681446D01*
X174703847Y-107671218D01*
X174683330Y-107658921D01*
X174664117Y-107644671D01*
X174646393Y-107628607D01*
X174630329Y-107610883D01*
X174616079Y-107591670D01*
X174603782Y-107571153D01*
X174593554Y-107549529D01*
X174585496Y-107527007D01*
X174579684Y-107503803D01*
X174576174Y-107480142D01*
X174575000Y-107456250D01*
X174575000Y-106543750D01*
X174576174Y-106519858D01*
X174579684Y-106496197D01*
X174585496Y-106472993D01*
X174593554Y-106450471D01*
X174603782Y-106428847D01*
X174616079Y-106408330D01*
X174630329Y-106389117D01*
X174646393Y-106371393D01*
X174664117Y-106355329D01*
X174683330Y-106341079D01*
X174703847Y-106328782D01*
X174725471Y-106318554D01*
X174747993Y-106310496D01*
X174771197Y-106304684D01*
X174794858Y-106301174D01*
X174818750Y-106300000D01*
X175306250Y-106300000D01*
X175330142Y-106301174D01*
X175330142Y-106301174D01*
G37*
D11*
X175062500Y-107000000D03*
G04 #@! TD*
D10*
G04 #@! TO.C,*
G36*
X180330142Y-102301174D02*
X180353803Y-102304684D01*
X180377007Y-102310496D01*
X180399529Y-102318554D01*
X180421153Y-102328782D01*
X180441670Y-102341079D01*
X180460883Y-102355329D01*
X180478607Y-102371393D01*
X180494671Y-102389117D01*
X180508921Y-102408330D01*
X180521218Y-102428847D01*
X180531446Y-102450471D01*
X180539504Y-102472993D01*
X180545316Y-102496197D01*
X180548826Y-102519858D01*
X180550000Y-102543750D01*
X180550000Y-103456250D01*
X180548826Y-103480142D01*
X180545316Y-103503803D01*
X180539504Y-103527007D01*
X180531446Y-103549529D01*
X180521218Y-103571153D01*
X180508921Y-103591670D01*
X180494671Y-103610883D01*
X180478607Y-103628607D01*
X180460883Y-103644671D01*
X180441670Y-103658921D01*
X180421153Y-103671218D01*
X180399529Y-103681446D01*
X180377007Y-103689504D01*
X180353803Y-103695316D01*
X180330142Y-103698826D01*
X180306250Y-103700000D01*
X179818750Y-103700000D01*
X179794858Y-103698826D01*
X179771197Y-103695316D01*
X179747993Y-103689504D01*
X179725471Y-103681446D01*
X179703847Y-103671218D01*
X179683330Y-103658921D01*
X179664117Y-103644671D01*
X179646393Y-103628607D01*
X179630329Y-103610883D01*
X179616079Y-103591670D01*
X179603782Y-103571153D01*
X179593554Y-103549529D01*
X179585496Y-103527007D01*
X179579684Y-103503803D01*
X179576174Y-103480142D01*
X179575000Y-103456250D01*
X179575000Y-102543750D01*
X179576174Y-102519858D01*
X179579684Y-102496197D01*
X179585496Y-102472993D01*
X179593554Y-102450471D01*
X179603782Y-102428847D01*
X179616079Y-102408330D01*
X179630329Y-102389117D01*
X179646393Y-102371393D01*
X179664117Y-102355329D01*
X179683330Y-102341079D01*
X179703847Y-102328782D01*
X179725471Y-102318554D01*
X179747993Y-102310496D01*
X179771197Y-102304684D01*
X179794858Y-102301174D01*
X179818750Y-102300000D01*
X180306250Y-102300000D01*
X180330142Y-102301174D01*
X180330142Y-102301174D01*
G37*
D11*
X180062500Y-103000000D03*
D10*
G36*
X182205142Y-102301174D02*
X182228803Y-102304684D01*
X182252007Y-102310496D01*
X182274529Y-102318554D01*
X182296153Y-102328782D01*
X182316670Y-102341079D01*
X182335883Y-102355329D01*
X182353607Y-102371393D01*
X182369671Y-102389117D01*
X182383921Y-102408330D01*
X182396218Y-102428847D01*
X182406446Y-102450471D01*
X182414504Y-102472993D01*
X182420316Y-102496197D01*
X182423826Y-102519858D01*
X182425000Y-102543750D01*
X182425000Y-103456250D01*
X182423826Y-103480142D01*
X182420316Y-103503803D01*
X182414504Y-103527007D01*
X182406446Y-103549529D01*
X182396218Y-103571153D01*
X182383921Y-103591670D01*
X182369671Y-103610883D01*
X182353607Y-103628607D01*
X182335883Y-103644671D01*
X182316670Y-103658921D01*
X182296153Y-103671218D01*
X182274529Y-103681446D01*
X182252007Y-103689504D01*
X182228803Y-103695316D01*
X182205142Y-103698826D01*
X182181250Y-103700000D01*
X181693750Y-103700000D01*
X181669858Y-103698826D01*
X181646197Y-103695316D01*
X181622993Y-103689504D01*
X181600471Y-103681446D01*
X181578847Y-103671218D01*
X181558330Y-103658921D01*
X181539117Y-103644671D01*
X181521393Y-103628607D01*
X181505329Y-103610883D01*
X181491079Y-103591670D01*
X181478782Y-103571153D01*
X181468554Y-103549529D01*
X181460496Y-103527007D01*
X181454684Y-103503803D01*
X181451174Y-103480142D01*
X181450000Y-103456250D01*
X181450000Y-102543750D01*
X181451174Y-102519858D01*
X181454684Y-102496197D01*
X181460496Y-102472993D01*
X181468554Y-102450471D01*
X181478782Y-102428847D01*
X181491079Y-102408330D01*
X181505329Y-102389117D01*
X181521393Y-102371393D01*
X181539117Y-102355329D01*
X181558330Y-102341079D01*
X181578847Y-102328782D01*
X181600471Y-102318554D01*
X181622993Y-102310496D01*
X181646197Y-102304684D01*
X181669858Y-102301174D01*
X181693750Y-102300000D01*
X182181250Y-102300000D01*
X182205142Y-102301174D01*
X182205142Y-102301174D01*
G37*
D11*
X181937500Y-103000000D03*
G04 #@! TD*
D10*
G04 #@! TO.C,*
G36*
X182205142Y-106301174D02*
X182228803Y-106304684D01*
X182252007Y-106310496D01*
X182274529Y-106318554D01*
X182296153Y-106328782D01*
X182316670Y-106341079D01*
X182335883Y-106355329D01*
X182353607Y-106371393D01*
X182369671Y-106389117D01*
X182383921Y-106408330D01*
X182396218Y-106428847D01*
X182406446Y-106450471D01*
X182414504Y-106472993D01*
X182420316Y-106496197D01*
X182423826Y-106519858D01*
X182425000Y-106543750D01*
X182425000Y-107456250D01*
X182423826Y-107480142D01*
X182420316Y-107503803D01*
X182414504Y-107527007D01*
X182406446Y-107549529D01*
X182396218Y-107571153D01*
X182383921Y-107591670D01*
X182369671Y-107610883D01*
X182353607Y-107628607D01*
X182335883Y-107644671D01*
X182316670Y-107658921D01*
X182296153Y-107671218D01*
X182274529Y-107681446D01*
X182252007Y-107689504D01*
X182228803Y-107695316D01*
X182205142Y-107698826D01*
X182181250Y-107700000D01*
X181693750Y-107700000D01*
X181669858Y-107698826D01*
X181646197Y-107695316D01*
X181622993Y-107689504D01*
X181600471Y-107681446D01*
X181578847Y-107671218D01*
X181558330Y-107658921D01*
X181539117Y-107644671D01*
X181521393Y-107628607D01*
X181505329Y-107610883D01*
X181491079Y-107591670D01*
X181478782Y-107571153D01*
X181468554Y-107549529D01*
X181460496Y-107527007D01*
X181454684Y-107503803D01*
X181451174Y-107480142D01*
X181450000Y-107456250D01*
X181450000Y-106543750D01*
X181451174Y-106519858D01*
X181454684Y-106496197D01*
X181460496Y-106472993D01*
X181468554Y-106450471D01*
X181478782Y-106428847D01*
X181491079Y-106408330D01*
X181505329Y-106389117D01*
X181521393Y-106371393D01*
X181539117Y-106355329D01*
X181558330Y-106341079D01*
X181578847Y-106328782D01*
X181600471Y-106318554D01*
X181622993Y-106310496D01*
X181646197Y-106304684D01*
X181669858Y-106301174D01*
X181693750Y-106300000D01*
X182181250Y-106300000D01*
X182205142Y-106301174D01*
X182205142Y-106301174D01*
G37*
D11*
X181937500Y-107000000D03*
D10*
G36*
X180330142Y-106301174D02*
X180353803Y-106304684D01*
X180377007Y-106310496D01*
X180399529Y-106318554D01*
X180421153Y-106328782D01*
X180441670Y-106341079D01*
X180460883Y-106355329D01*
X180478607Y-106371393D01*
X180494671Y-106389117D01*
X180508921Y-106408330D01*
X180521218Y-106428847D01*
X180531446Y-106450471D01*
X180539504Y-106472993D01*
X180545316Y-106496197D01*
X180548826Y-106519858D01*
X180550000Y-106543750D01*
X180550000Y-107456250D01*
X180548826Y-107480142D01*
X180545316Y-107503803D01*
X180539504Y-107527007D01*
X180531446Y-107549529D01*
X180521218Y-107571153D01*
X180508921Y-107591670D01*
X180494671Y-107610883D01*
X180478607Y-107628607D01*
X180460883Y-107644671D01*
X180441670Y-107658921D01*
X180421153Y-107671218D01*
X180399529Y-107681446D01*
X180377007Y-107689504D01*
X180353803Y-107695316D01*
X180330142Y-107698826D01*
X180306250Y-107700000D01*
X179818750Y-107700000D01*
X179794858Y-107698826D01*
X179771197Y-107695316D01*
X179747993Y-107689504D01*
X179725471Y-107681446D01*
X179703847Y-107671218D01*
X179683330Y-107658921D01*
X179664117Y-107644671D01*
X179646393Y-107628607D01*
X179630329Y-107610883D01*
X179616079Y-107591670D01*
X179603782Y-107571153D01*
X179593554Y-107549529D01*
X179585496Y-107527007D01*
X179579684Y-107503803D01*
X179576174Y-107480142D01*
X179575000Y-107456250D01*
X179575000Y-106543750D01*
X179576174Y-106519858D01*
X179579684Y-106496197D01*
X179585496Y-106472993D01*
X179593554Y-106450471D01*
X179603782Y-106428847D01*
X179616079Y-106408330D01*
X179630329Y-106389117D01*
X179646393Y-106371393D01*
X179664117Y-106355329D01*
X179683330Y-106341079D01*
X179703847Y-106328782D01*
X179725471Y-106318554D01*
X179747993Y-106310496D01*
X179771197Y-106304684D01*
X179794858Y-106301174D01*
X179818750Y-106300000D01*
X180306250Y-106300000D01*
X180330142Y-106301174D01*
X180330142Y-106301174D01*
G37*
D11*
X180062500Y-107000000D03*
G04 #@! TD*
D10*
G04 #@! TO.C,*
G36*
X155330142Y-102301174D02*
X155353803Y-102304684D01*
X155377007Y-102310496D01*
X155399529Y-102318554D01*
X155421153Y-102328782D01*
X155441670Y-102341079D01*
X155460883Y-102355329D01*
X155478607Y-102371393D01*
X155494671Y-102389117D01*
X155508921Y-102408330D01*
X155521218Y-102428847D01*
X155531446Y-102450471D01*
X155539504Y-102472993D01*
X155545316Y-102496197D01*
X155548826Y-102519858D01*
X155550000Y-102543750D01*
X155550000Y-103456250D01*
X155548826Y-103480142D01*
X155545316Y-103503803D01*
X155539504Y-103527007D01*
X155531446Y-103549529D01*
X155521218Y-103571153D01*
X155508921Y-103591670D01*
X155494671Y-103610883D01*
X155478607Y-103628607D01*
X155460883Y-103644671D01*
X155441670Y-103658921D01*
X155421153Y-103671218D01*
X155399529Y-103681446D01*
X155377007Y-103689504D01*
X155353803Y-103695316D01*
X155330142Y-103698826D01*
X155306250Y-103700000D01*
X154818750Y-103700000D01*
X154794858Y-103698826D01*
X154771197Y-103695316D01*
X154747993Y-103689504D01*
X154725471Y-103681446D01*
X154703847Y-103671218D01*
X154683330Y-103658921D01*
X154664117Y-103644671D01*
X154646393Y-103628607D01*
X154630329Y-103610883D01*
X154616079Y-103591670D01*
X154603782Y-103571153D01*
X154593554Y-103549529D01*
X154585496Y-103527007D01*
X154579684Y-103503803D01*
X154576174Y-103480142D01*
X154575000Y-103456250D01*
X154575000Y-102543750D01*
X154576174Y-102519858D01*
X154579684Y-102496197D01*
X154585496Y-102472993D01*
X154593554Y-102450471D01*
X154603782Y-102428847D01*
X154616079Y-102408330D01*
X154630329Y-102389117D01*
X154646393Y-102371393D01*
X154664117Y-102355329D01*
X154683330Y-102341079D01*
X154703847Y-102328782D01*
X154725471Y-102318554D01*
X154747993Y-102310496D01*
X154771197Y-102304684D01*
X154794858Y-102301174D01*
X154818750Y-102300000D01*
X155306250Y-102300000D01*
X155330142Y-102301174D01*
X155330142Y-102301174D01*
G37*
D11*
X155062500Y-103000000D03*
D10*
G36*
X157205142Y-102301174D02*
X157228803Y-102304684D01*
X157252007Y-102310496D01*
X157274529Y-102318554D01*
X157296153Y-102328782D01*
X157316670Y-102341079D01*
X157335883Y-102355329D01*
X157353607Y-102371393D01*
X157369671Y-102389117D01*
X157383921Y-102408330D01*
X157396218Y-102428847D01*
X157406446Y-102450471D01*
X157414504Y-102472993D01*
X157420316Y-102496197D01*
X157423826Y-102519858D01*
X157425000Y-102543750D01*
X157425000Y-103456250D01*
X157423826Y-103480142D01*
X157420316Y-103503803D01*
X157414504Y-103527007D01*
X157406446Y-103549529D01*
X157396218Y-103571153D01*
X157383921Y-103591670D01*
X157369671Y-103610883D01*
X157353607Y-103628607D01*
X157335883Y-103644671D01*
X157316670Y-103658921D01*
X157296153Y-103671218D01*
X157274529Y-103681446D01*
X157252007Y-103689504D01*
X157228803Y-103695316D01*
X157205142Y-103698826D01*
X157181250Y-103700000D01*
X156693750Y-103700000D01*
X156669858Y-103698826D01*
X156646197Y-103695316D01*
X156622993Y-103689504D01*
X156600471Y-103681446D01*
X156578847Y-103671218D01*
X156558330Y-103658921D01*
X156539117Y-103644671D01*
X156521393Y-103628607D01*
X156505329Y-103610883D01*
X156491079Y-103591670D01*
X156478782Y-103571153D01*
X156468554Y-103549529D01*
X156460496Y-103527007D01*
X156454684Y-103503803D01*
X156451174Y-103480142D01*
X156450000Y-103456250D01*
X156450000Y-102543750D01*
X156451174Y-102519858D01*
X156454684Y-102496197D01*
X156460496Y-102472993D01*
X156468554Y-102450471D01*
X156478782Y-102428847D01*
X156491079Y-102408330D01*
X156505329Y-102389117D01*
X156521393Y-102371393D01*
X156539117Y-102355329D01*
X156558330Y-102341079D01*
X156578847Y-102328782D01*
X156600471Y-102318554D01*
X156622993Y-102310496D01*
X156646197Y-102304684D01*
X156669858Y-102301174D01*
X156693750Y-102300000D01*
X157181250Y-102300000D01*
X157205142Y-102301174D01*
X157205142Y-102301174D01*
G37*
D11*
X156937500Y-103000000D03*
G04 #@! TD*
D10*
G04 #@! TO.C,*
G36*
X155330142Y-106301174D02*
X155353803Y-106304684D01*
X155377007Y-106310496D01*
X155399529Y-106318554D01*
X155421153Y-106328782D01*
X155441670Y-106341079D01*
X155460883Y-106355329D01*
X155478607Y-106371393D01*
X155494671Y-106389117D01*
X155508921Y-106408330D01*
X155521218Y-106428847D01*
X155531446Y-106450471D01*
X155539504Y-106472993D01*
X155545316Y-106496197D01*
X155548826Y-106519858D01*
X155550000Y-106543750D01*
X155550000Y-107456250D01*
X155548826Y-107480142D01*
X155545316Y-107503803D01*
X155539504Y-107527007D01*
X155531446Y-107549529D01*
X155521218Y-107571153D01*
X155508921Y-107591670D01*
X155494671Y-107610883D01*
X155478607Y-107628607D01*
X155460883Y-107644671D01*
X155441670Y-107658921D01*
X155421153Y-107671218D01*
X155399529Y-107681446D01*
X155377007Y-107689504D01*
X155353803Y-107695316D01*
X155330142Y-107698826D01*
X155306250Y-107700000D01*
X154818750Y-107700000D01*
X154794858Y-107698826D01*
X154771197Y-107695316D01*
X154747993Y-107689504D01*
X154725471Y-107681446D01*
X154703847Y-107671218D01*
X154683330Y-107658921D01*
X154664117Y-107644671D01*
X154646393Y-107628607D01*
X154630329Y-107610883D01*
X154616079Y-107591670D01*
X154603782Y-107571153D01*
X154593554Y-107549529D01*
X154585496Y-107527007D01*
X154579684Y-107503803D01*
X154576174Y-107480142D01*
X154575000Y-107456250D01*
X154575000Y-106543750D01*
X154576174Y-106519858D01*
X154579684Y-106496197D01*
X154585496Y-106472993D01*
X154593554Y-106450471D01*
X154603782Y-106428847D01*
X154616079Y-106408330D01*
X154630329Y-106389117D01*
X154646393Y-106371393D01*
X154664117Y-106355329D01*
X154683330Y-106341079D01*
X154703847Y-106328782D01*
X154725471Y-106318554D01*
X154747993Y-106310496D01*
X154771197Y-106304684D01*
X154794858Y-106301174D01*
X154818750Y-106300000D01*
X155306250Y-106300000D01*
X155330142Y-106301174D01*
X155330142Y-106301174D01*
G37*
D11*
X155062500Y-107000000D03*
D10*
G36*
X157205142Y-106301174D02*
X157228803Y-106304684D01*
X157252007Y-106310496D01*
X157274529Y-106318554D01*
X157296153Y-106328782D01*
X157316670Y-106341079D01*
X157335883Y-106355329D01*
X157353607Y-106371393D01*
X157369671Y-106389117D01*
X157383921Y-106408330D01*
X157396218Y-106428847D01*
X157406446Y-106450471D01*
X157414504Y-106472993D01*
X157420316Y-106496197D01*
X157423826Y-106519858D01*
X157425000Y-106543750D01*
X157425000Y-107456250D01*
X157423826Y-107480142D01*
X157420316Y-107503803D01*
X157414504Y-107527007D01*
X157406446Y-107549529D01*
X157396218Y-107571153D01*
X157383921Y-107591670D01*
X157369671Y-107610883D01*
X157353607Y-107628607D01*
X157335883Y-107644671D01*
X157316670Y-107658921D01*
X157296153Y-107671218D01*
X157274529Y-107681446D01*
X157252007Y-107689504D01*
X157228803Y-107695316D01*
X157205142Y-107698826D01*
X157181250Y-107700000D01*
X156693750Y-107700000D01*
X156669858Y-107698826D01*
X156646197Y-107695316D01*
X156622993Y-107689504D01*
X156600471Y-107681446D01*
X156578847Y-107671218D01*
X156558330Y-107658921D01*
X156539117Y-107644671D01*
X156521393Y-107628607D01*
X156505329Y-107610883D01*
X156491079Y-107591670D01*
X156478782Y-107571153D01*
X156468554Y-107549529D01*
X156460496Y-107527007D01*
X156454684Y-107503803D01*
X156451174Y-107480142D01*
X156450000Y-107456250D01*
X156450000Y-106543750D01*
X156451174Y-106519858D01*
X156454684Y-106496197D01*
X156460496Y-106472993D01*
X156468554Y-106450471D01*
X156478782Y-106428847D01*
X156491079Y-106408330D01*
X156505329Y-106389117D01*
X156521393Y-106371393D01*
X156539117Y-106355329D01*
X156558330Y-106341079D01*
X156578847Y-106328782D01*
X156600471Y-106318554D01*
X156622993Y-106310496D01*
X156646197Y-106304684D01*
X156669858Y-106301174D01*
X156693750Y-106300000D01*
X157181250Y-106300000D01*
X157205142Y-106301174D01*
X157205142Y-106301174D01*
G37*
D11*
X156937500Y-107000000D03*
G04 #@! TD*
D10*
G04 #@! TO.C,*
G36*
X162205142Y-102301174D02*
X162228803Y-102304684D01*
X162252007Y-102310496D01*
X162274529Y-102318554D01*
X162296153Y-102328782D01*
X162316670Y-102341079D01*
X162335883Y-102355329D01*
X162353607Y-102371393D01*
X162369671Y-102389117D01*
X162383921Y-102408330D01*
X162396218Y-102428847D01*
X162406446Y-102450471D01*
X162414504Y-102472993D01*
X162420316Y-102496197D01*
X162423826Y-102519858D01*
X162425000Y-102543750D01*
X162425000Y-103456250D01*
X162423826Y-103480142D01*
X162420316Y-103503803D01*
X162414504Y-103527007D01*
X162406446Y-103549529D01*
X162396218Y-103571153D01*
X162383921Y-103591670D01*
X162369671Y-103610883D01*
X162353607Y-103628607D01*
X162335883Y-103644671D01*
X162316670Y-103658921D01*
X162296153Y-103671218D01*
X162274529Y-103681446D01*
X162252007Y-103689504D01*
X162228803Y-103695316D01*
X162205142Y-103698826D01*
X162181250Y-103700000D01*
X161693750Y-103700000D01*
X161669858Y-103698826D01*
X161646197Y-103695316D01*
X161622993Y-103689504D01*
X161600471Y-103681446D01*
X161578847Y-103671218D01*
X161558330Y-103658921D01*
X161539117Y-103644671D01*
X161521393Y-103628607D01*
X161505329Y-103610883D01*
X161491079Y-103591670D01*
X161478782Y-103571153D01*
X161468554Y-103549529D01*
X161460496Y-103527007D01*
X161454684Y-103503803D01*
X161451174Y-103480142D01*
X161450000Y-103456250D01*
X161450000Y-102543750D01*
X161451174Y-102519858D01*
X161454684Y-102496197D01*
X161460496Y-102472993D01*
X161468554Y-102450471D01*
X161478782Y-102428847D01*
X161491079Y-102408330D01*
X161505329Y-102389117D01*
X161521393Y-102371393D01*
X161539117Y-102355329D01*
X161558330Y-102341079D01*
X161578847Y-102328782D01*
X161600471Y-102318554D01*
X161622993Y-102310496D01*
X161646197Y-102304684D01*
X161669858Y-102301174D01*
X161693750Y-102300000D01*
X162181250Y-102300000D01*
X162205142Y-102301174D01*
X162205142Y-102301174D01*
G37*
D11*
X161937500Y-103000000D03*
D10*
G36*
X160330142Y-102301174D02*
X160353803Y-102304684D01*
X160377007Y-102310496D01*
X160399529Y-102318554D01*
X160421153Y-102328782D01*
X160441670Y-102341079D01*
X160460883Y-102355329D01*
X160478607Y-102371393D01*
X160494671Y-102389117D01*
X160508921Y-102408330D01*
X160521218Y-102428847D01*
X160531446Y-102450471D01*
X160539504Y-102472993D01*
X160545316Y-102496197D01*
X160548826Y-102519858D01*
X160550000Y-102543750D01*
X160550000Y-103456250D01*
X160548826Y-103480142D01*
X160545316Y-103503803D01*
X160539504Y-103527007D01*
X160531446Y-103549529D01*
X160521218Y-103571153D01*
X160508921Y-103591670D01*
X160494671Y-103610883D01*
X160478607Y-103628607D01*
X160460883Y-103644671D01*
X160441670Y-103658921D01*
X160421153Y-103671218D01*
X160399529Y-103681446D01*
X160377007Y-103689504D01*
X160353803Y-103695316D01*
X160330142Y-103698826D01*
X160306250Y-103700000D01*
X159818750Y-103700000D01*
X159794858Y-103698826D01*
X159771197Y-103695316D01*
X159747993Y-103689504D01*
X159725471Y-103681446D01*
X159703847Y-103671218D01*
X159683330Y-103658921D01*
X159664117Y-103644671D01*
X159646393Y-103628607D01*
X159630329Y-103610883D01*
X159616079Y-103591670D01*
X159603782Y-103571153D01*
X159593554Y-103549529D01*
X159585496Y-103527007D01*
X159579684Y-103503803D01*
X159576174Y-103480142D01*
X159575000Y-103456250D01*
X159575000Y-102543750D01*
X159576174Y-102519858D01*
X159579684Y-102496197D01*
X159585496Y-102472993D01*
X159593554Y-102450471D01*
X159603782Y-102428847D01*
X159616079Y-102408330D01*
X159630329Y-102389117D01*
X159646393Y-102371393D01*
X159664117Y-102355329D01*
X159683330Y-102341079D01*
X159703847Y-102328782D01*
X159725471Y-102318554D01*
X159747993Y-102310496D01*
X159771197Y-102304684D01*
X159794858Y-102301174D01*
X159818750Y-102300000D01*
X160306250Y-102300000D01*
X160330142Y-102301174D01*
X160330142Y-102301174D01*
G37*
D11*
X160062500Y-103000000D03*
G04 #@! TD*
D10*
G04 #@! TO.C,*
G36*
X162205142Y-106301174D02*
X162228803Y-106304684D01*
X162252007Y-106310496D01*
X162274529Y-106318554D01*
X162296153Y-106328782D01*
X162316670Y-106341079D01*
X162335883Y-106355329D01*
X162353607Y-106371393D01*
X162369671Y-106389117D01*
X162383921Y-106408330D01*
X162396218Y-106428847D01*
X162406446Y-106450471D01*
X162414504Y-106472993D01*
X162420316Y-106496197D01*
X162423826Y-106519858D01*
X162425000Y-106543750D01*
X162425000Y-107456250D01*
X162423826Y-107480142D01*
X162420316Y-107503803D01*
X162414504Y-107527007D01*
X162406446Y-107549529D01*
X162396218Y-107571153D01*
X162383921Y-107591670D01*
X162369671Y-107610883D01*
X162353607Y-107628607D01*
X162335883Y-107644671D01*
X162316670Y-107658921D01*
X162296153Y-107671218D01*
X162274529Y-107681446D01*
X162252007Y-107689504D01*
X162228803Y-107695316D01*
X162205142Y-107698826D01*
X162181250Y-107700000D01*
X161693750Y-107700000D01*
X161669858Y-107698826D01*
X161646197Y-107695316D01*
X161622993Y-107689504D01*
X161600471Y-107681446D01*
X161578847Y-107671218D01*
X161558330Y-107658921D01*
X161539117Y-107644671D01*
X161521393Y-107628607D01*
X161505329Y-107610883D01*
X161491079Y-107591670D01*
X161478782Y-107571153D01*
X161468554Y-107549529D01*
X161460496Y-107527007D01*
X161454684Y-107503803D01*
X161451174Y-107480142D01*
X161450000Y-107456250D01*
X161450000Y-106543750D01*
X161451174Y-106519858D01*
X161454684Y-106496197D01*
X161460496Y-106472993D01*
X161468554Y-106450471D01*
X161478782Y-106428847D01*
X161491079Y-106408330D01*
X161505329Y-106389117D01*
X161521393Y-106371393D01*
X161539117Y-106355329D01*
X161558330Y-106341079D01*
X161578847Y-106328782D01*
X161600471Y-106318554D01*
X161622993Y-106310496D01*
X161646197Y-106304684D01*
X161669858Y-106301174D01*
X161693750Y-106300000D01*
X162181250Y-106300000D01*
X162205142Y-106301174D01*
X162205142Y-106301174D01*
G37*
D11*
X161937500Y-107000000D03*
D10*
G36*
X160330142Y-106301174D02*
X160353803Y-106304684D01*
X160377007Y-106310496D01*
X160399529Y-106318554D01*
X160421153Y-106328782D01*
X160441670Y-106341079D01*
X160460883Y-106355329D01*
X160478607Y-106371393D01*
X160494671Y-106389117D01*
X160508921Y-106408330D01*
X160521218Y-106428847D01*
X160531446Y-106450471D01*
X160539504Y-106472993D01*
X160545316Y-106496197D01*
X160548826Y-106519858D01*
X160550000Y-106543750D01*
X160550000Y-107456250D01*
X160548826Y-107480142D01*
X160545316Y-107503803D01*
X160539504Y-107527007D01*
X160531446Y-107549529D01*
X160521218Y-107571153D01*
X160508921Y-107591670D01*
X160494671Y-107610883D01*
X160478607Y-107628607D01*
X160460883Y-107644671D01*
X160441670Y-107658921D01*
X160421153Y-107671218D01*
X160399529Y-107681446D01*
X160377007Y-107689504D01*
X160353803Y-107695316D01*
X160330142Y-107698826D01*
X160306250Y-107700000D01*
X159818750Y-107700000D01*
X159794858Y-107698826D01*
X159771197Y-107695316D01*
X159747993Y-107689504D01*
X159725471Y-107681446D01*
X159703847Y-107671218D01*
X159683330Y-107658921D01*
X159664117Y-107644671D01*
X159646393Y-107628607D01*
X159630329Y-107610883D01*
X159616079Y-107591670D01*
X159603782Y-107571153D01*
X159593554Y-107549529D01*
X159585496Y-107527007D01*
X159579684Y-107503803D01*
X159576174Y-107480142D01*
X159575000Y-107456250D01*
X159575000Y-106543750D01*
X159576174Y-106519858D01*
X159579684Y-106496197D01*
X159585496Y-106472993D01*
X159593554Y-106450471D01*
X159603782Y-106428847D01*
X159616079Y-106408330D01*
X159630329Y-106389117D01*
X159646393Y-106371393D01*
X159664117Y-106355329D01*
X159683330Y-106341079D01*
X159703847Y-106328782D01*
X159725471Y-106318554D01*
X159747993Y-106310496D01*
X159771197Y-106304684D01*
X159794858Y-106301174D01*
X159818750Y-106300000D01*
X160306250Y-106300000D01*
X160330142Y-106301174D01*
X160330142Y-106301174D01*
G37*
D11*
X160062500Y-107000000D03*
G04 #@! TD*
D10*
G04 #@! TO.C,*
G36*
X165330142Y-102301174D02*
X165353803Y-102304684D01*
X165377007Y-102310496D01*
X165399529Y-102318554D01*
X165421153Y-102328782D01*
X165441670Y-102341079D01*
X165460883Y-102355329D01*
X165478607Y-102371393D01*
X165494671Y-102389117D01*
X165508921Y-102408330D01*
X165521218Y-102428847D01*
X165531446Y-102450471D01*
X165539504Y-102472993D01*
X165545316Y-102496197D01*
X165548826Y-102519858D01*
X165550000Y-102543750D01*
X165550000Y-103456250D01*
X165548826Y-103480142D01*
X165545316Y-103503803D01*
X165539504Y-103527007D01*
X165531446Y-103549529D01*
X165521218Y-103571153D01*
X165508921Y-103591670D01*
X165494671Y-103610883D01*
X165478607Y-103628607D01*
X165460883Y-103644671D01*
X165441670Y-103658921D01*
X165421153Y-103671218D01*
X165399529Y-103681446D01*
X165377007Y-103689504D01*
X165353803Y-103695316D01*
X165330142Y-103698826D01*
X165306250Y-103700000D01*
X164818750Y-103700000D01*
X164794858Y-103698826D01*
X164771197Y-103695316D01*
X164747993Y-103689504D01*
X164725471Y-103681446D01*
X164703847Y-103671218D01*
X164683330Y-103658921D01*
X164664117Y-103644671D01*
X164646393Y-103628607D01*
X164630329Y-103610883D01*
X164616079Y-103591670D01*
X164603782Y-103571153D01*
X164593554Y-103549529D01*
X164585496Y-103527007D01*
X164579684Y-103503803D01*
X164576174Y-103480142D01*
X164575000Y-103456250D01*
X164575000Y-102543750D01*
X164576174Y-102519858D01*
X164579684Y-102496197D01*
X164585496Y-102472993D01*
X164593554Y-102450471D01*
X164603782Y-102428847D01*
X164616079Y-102408330D01*
X164630329Y-102389117D01*
X164646393Y-102371393D01*
X164664117Y-102355329D01*
X164683330Y-102341079D01*
X164703847Y-102328782D01*
X164725471Y-102318554D01*
X164747993Y-102310496D01*
X164771197Y-102304684D01*
X164794858Y-102301174D01*
X164818750Y-102300000D01*
X165306250Y-102300000D01*
X165330142Y-102301174D01*
X165330142Y-102301174D01*
G37*
D11*
X165062500Y-103000000D03*
D10*
G36*
X167205142Y-102301174D02*
X167228803Y-102304684D01*
X167252007Y-102310496D01*
X167274529Y-102318554D01*
X167296153Y-102328782D01*
X167316670Y-102341079D01*
X167335883Y-102355329D01*
X167353607Y-102371393D01*
X167369671Y-102389117D01*
X167383921Y-102408330D01*
X167396218Y-102428847D01*
X167406446Y-102450471D01*
X167414504Y-102472993D01*
X167420316Y-102496197D01*
X167423826Y-102519858D01*
X167425000Y-102543750D01*
X167425000Y-103456250D01*
X167423826Y-103480142D01*
X167420316Y-103503803D01*
X167414504Y-103527007D01*
X167406446Y-103549529D01*
X167396218Y-103571153D01*
X167383921Y-103591670D01*
X167369671Y-103610883D01*
X167353607Y-103628607D01*
X167335883Y-103644671D01*
X167316670Y-103658921D01*
X167296153Y-103671218D01*
X167274529Y-103681446D01*
X167252007Y-103689504D01*
X167228803Y-103695316D01*
X167205142Y-103698826D01*
X167181250Y-103700000D01*
X166693750Y-103700000D01*
X166669858Y-103698826D01*
X166646197Y-103695316D01*
X166622993Y-103689504D01*
X166600471Y-103681446D01*
X166578847Y-103671218D01*
X166558330Y-103658921D01*
X166539117Y-103644671D01*
X166521393Y-103628607D01*
X166505329Y-103610883D01*
X166491079Y-103591670D01*
X166478782Y-103571153D01*
X166468554Y-103549529D01*
X166460496Y-103527007D01*
X166454684Y-103503803D01*
X166451174Y-103480142D01*
X166450000Y-103456250D01*
X166450000Y-102543750D01*
X166451174Y-102519858D01*
X166454684Y-102496197D01*
X166460496Y-102472993D01*
X166468554Y-102450471D01*
X166478782Y-102428847D01*
X166491079Y-102408330D01*
X166505329Y-102389117D01*
X166521393Y-102371393D01*
X166539117Y-102355329D01*
X166558330Y-102341079D01*
X166578847Y-102328782D01*
X166600471Y-102318554D01*
X166622993Y-102310496D01*
X166646197Y-102304684D01*
X166669858Y-102301174D01*
X166693750Y-102300000D01*
X167181250Y-102300000D01*
X167205142Y-102301174D01*
X167205142Y-102301174D01*
G37*
D11*
X166937500Y-103000000D03*
G04 #@! TD*
D10*
G04 #@! TO.C,*
G36*
X167205142Y-106301174D02*
X167228803Y-106304684D01*
X167252007Y-106310496D01*
X167274529Y-106318554D01*
X167296153Y-106328782D01*
X167316670Y-106341079D01*
X167335883Y-106355329D01*
X167353607Y-106371393D01*
X167369671Y-106389117D01*
X167383921Y-106408330D01*
X167396218Y-106428847D01*
X167406446Y-106450471D01*
X167414504Y-106472993D01*
X167420316Y-106496197D01*
X167423826Y-106519858D01*
X167425000Y-106543750D01*
X167425000Y-107456250D01*
X167423826Y-107480142D01*
X167420316Y-107503803D01*
X167414504Y-107527007D01*
X167406446Y-107549529D01*
X167396218Y-107571153D01*
X167383921Y-107591670D01*
X167369671Y-107610883D01*
X167353607Y-107628607D01*
X167335883Y-107644671D01*
X167316670Y-107658921D01*
X167296153Y-107671218D01*
X167274529Y-107681446D01*
X167252007Y-107689504D01*
X167228803Y-107695316D01*
X167205142Y-107698826D01*
X167181250Y-107700000D01*
X166693750Y-107700000D01*
X166669858Y-107698826D01*
X166646197Y-107695316D01*
X166622993Y-107689504D01*
X166600471Y-107681446D01*
X166578847Y-107671218D01*
X166558330Y-107658921D01*
X166539117Y-107644671D01*
X166521393Y-107628607D01*
X166505329Y-107610883D01*
X166491079Y-107591670D01*
X166478782Y-107571153D01*
X166468554Y-107549529D01*
X166460496Y-107527007D01*
X166454684Y-107503803D01*
X166451174Y-107480142D01*
X166450000Y-107456250D01*
X166450000Y-106543750D01*
X166451174Y-106519858D01*
X166454684Y-106496197D01*
X166460496Y-106472993D01*
X166468554Y-106450471D01*
X166478782Y-106428847D01*
X166491079Y-106408330D01*
X166505329Y-106389117D01*
X166521393Y-106371393D01*
X166539117Y-106355329D01*
X166558330Y-106341079D01*
X166578847Y-106328782D01*
X166600471Y-106318554D01*
X166622993Y-106310496D01*
X166646197Y-106304684D01*
X166669858Y-106301174D01*
X166693750Y-106300000D01*
X167181250Y-106300000D01*
X167205142Y-106301174D01*
X167205142Y-106301174D01*
G37*
D11*
X166937500Y-107000000D03*
D10*
G36*
X165330142Y-106301174D02*
X165353803Y-106304684D01*
X165377007Y-106310496D01*
X165399529Y-106318554D01*
X165421153Y-106328782D01*
X165441670Y-106341079D01*
X165460883Y-106355329D01*
X165478607Y-106371393D01*
X165494671Y-106389117D01*
X165508921Y-106408330D01*
X165521218Y-106428847D01*
X165531446Y-106450471D01*
X165539504Y-106472993D01*
X165545316Y-106496197D01*
X165548826Y-106519858D01*
X165550000Y-106543750D01*
X165550000Y-107456250D01*
X165548826Y-107480142D01*
X165545316Y-107503803D01*
X165539504Y-107527007D01*
X165531446Y-107549529D01*
X165521218Y-107571153D01*
X165508921Y-107591670D01*
X165494671Y-107610883D01*
X165478607Y-107628607D01*
X165460883Y-107644671D01*
X165441670Y-107658921D01*
X165421153Y-107671218D01*
X165399529Y-107681446D01*
X165377007Y-107689504D01*
X165353803Y-107695316D01*
X165330142Y-107698826D01*
X165306250Y-107700000D01*
X164818750Y-107700000D01*
X164794858Y-107698826D01*
X164771197Y-107695316D01*
X164747993Y-107689504D01*
X164725471Y-107681446D01*
X164703847Y-107671218D01*
X164683330Y-107658921D01*
X164664117Y-107644671D01*
X164646393Y-107628607D01*
X164630329Y-107610883D01*
X164616079Y-107591670D01*
X164603782Y-107571153D01*
X164593554Y-107549529D01*
X164585496Y-107527007D01*
X164579684Y-107503803D01*
X164576174Y-107480142D01*
X164575000Y-107456250D01*
X164575000Y-106543750D01*
X164576174Y-106519858D01*
X164579684Y-106496197D01*
X164585496Y-106472993D01*
X164593554Y-106450471D01*
X164603782Y-106428847D01*
X164616079Y-106408330D01*
X164630329Y-106389117D01*
X164646393Y-106371393D01*
X164664117Y-106355329D01*
X164683330Y-106341079D01*
X164703847Y-106328782D01*
X164725471Y-106318554D01*
X164747993Y-106310496D01*
X164771197Y-106304684D01*
X164794858Y-106301174D01*
X164818750Y-106300000D01*
X165306250Y-106300000D01*
X165330142Y-106301174D01*
X165330142Y-106301174D01*
G37*
D11*
X165062500Y-107000000D03*
G04 #@! TD*
D10*
G04 #@! TO.C,*
G36*
X170330142Y-102301174D02*
X170353803Y-102304684D01*
X170377007Y-102310496D01*
X170399529Y-102318554D01*
X170421153Y-102328782D01*
X170441670Y-102341079D01*
X170460883Y-102355329D01*
X170478607Y-102371393D01*
X170494671Y-102389117D01*
X170508921Y-102408330D01*
X170521218Y-102428847D01*
X170531446Y-102450471D01*
X170539504Y-102472993D01*
X170545316Y-102496197D01*
X170548826Y-102519858D01*
X170550000Y-102543750D01*
X170550000Y-103456250D01*
X170548826Y-103480142D01*
X170545316Y-103503803D01*
X170539504Y-103527007D01*
X170531446Y-103549529D01*
X170521218Y-103571153D01*
X170508921Y-103591670D01*
X170494671Y-103610883D01*
X170478607Y-103628607D01*
X170460883Y-103644671D01*
X170441670Y-103658921D01*
X170421153Y-103671218D01*
X170399529Y-103681446D01*
X170377007Y-103689504D01*
X170353803Y-103695316D01*
X170330142Y-103698826D01*
X170306250Y-103700000D01*
X169818750Y-103700000D01*
X169794858Y-103698826D01*
X169771197Y-103695316D01*
X169747993Y-103689504D01*
X169725471Y-103681446D01*
X169703847Y-103671218D01*
X169683330Y-103658921D01*
X169664117Y-103644671D01*
X169646393Y-103628607D01*
X169630329Y-103610883D01*
X169616079Y-103591670D01*
X169603782Y-103571153D01*
X169593554Y-103549529D01*
X169585496Y-103527007D01*
X169579684Y-103503803D01*
X169576174Y-103480142D01*
X169575000Y-103456250D01*
X169575000Y-102543750D01*
X169576174Y-102519858D01*
X169579684Y-102496197D01*
X169585496Y-102472993D01*
X169593554Y-102450471D01*
X169603782Y-102428847D01*
X169616079Y-102408330D01*
X169630329Y-102389117D01*
X169646393Y-102371393D01*
X169664117Y-102355329D01*
X169683330Y-102341079D01*
X169703847Y-102328782D01*
X169725471Y-102318554D01*
X169747993Y-102310496D01*
X169771197Y-102304684D01*
X169794858Y-102301174D01*
X169818750Y-102300000D01*
X170306250Y-102300000D01*
X170330142Y-102301174D01*
X170330142Y-102301174D01*
G37*
D11*
X170062500Y-103000000D03*
D10*
G36*
X172205142Y-102301174D02*
X172228803Y-102304684D01*
X172252007Y-102310496D01*
X172274529Y-102318554D01*
X172296153Y-102328782D01*
X172316670Y-102341079D01*
X172335883Y-102355329D01*
X172353607Y-102371393D01*
X172369671Y-102389117D01*
X172383921Y-102408330D01*
X172396218Y-102428847D01*
X172406446Y-102450471D01*
X172414504Y-102472993D01*
X172420316Y-102496197D01*
X172423826Y-102519858D01*
X172425000Y-102543750D01*
X172425000Y-103456250D01*
X172423826Y-103480142D01*
X172420316Y-103503803D01*
X172414504Y-103527007D01*
X172406446Y-103549529D01*
X172396218Y-103571153D01*
X172383921Y-103591670D01*
X172369671Y-103610883D01*
X172353607Y-103628607D01*
X172335883Y-103644671D01*
X172316670Y-103658921D01*
X172296153Y-103671218D01*
X172274529Y-103681446D01*
X172252007Y-103689504D01*
X172228803Y-103695316D01*
X172205142Y-103698826D01*
X172181250Y-103700000D01*
X171693750Y-103700000D01*
X171669858Y-103698826D01*
X171646197Y-103695316D01*
X171622993Y-103689504D01*
X171600471Y-103681446D01*
X171578847Y-103671218D01*
X171558330Y-103658921D01*
X171539117Y-103644671D01*
X171521393Y-103628607D01*
X171505329Y-103610883D01*
X171491079Y-103591670D01*
X171478782Y-103571153D01*
X171468554Y-103549529D01*
X171460496Y-103527007D01*
X171454684Y-103503803D01*
X171451174Y-103480142D01*
X171450000Y-103456250D01*
X171450000Y-102543750D01*
X171451174Y-102519858D01*
X171454684Y-102496197D01*
X171460496Y-102472993D01*
X171468554Y-102450471D01*
X171478782Y-102428847D01*
X171491079Y-102408330D01*
X171505329Y-102389117D01*
X171521393Y-102371393D01*
X171539117Y-102355329D01*
X171558330Y-102341079D01*
X171578847Y-102328782D01*
X171600471Y-102318554D01*
X171622993Y-102310496D01*
X171646197Y-102304684D01*
X171669858Y-102301174D01*
X171693750Y-102300000D01*
X172181250Y-102300000D01*
X172205142Y-102301174D01*
X172205142Y-102301174D01*
G37*
D11*
X171937500Y-103000000D03*
G04 #@! TD*
D10*
G04 #@! TO.C,*
G36*
X172205142Y-106301174D02*
X172228803Y-106304684D01*
X172252007Y-106310496D01*
X172274529Y-106318554D01*
X172296153Y-106328782D01*
X172316670Y-106341079D01*
X172335883Y-106355329D01*
X172353607Y-106371393D01*
X172369671Y-106389117D01*
X172383921Y-106408330D01*
X172396218Y-106428847D01*
X172406446Y-106450471D01*
X172414504Y-106472993D01*
X172420316Y-106496197D01*
X172423826Y-106519858D01*
X172425000Y-106543750D01*
X172425000Y-107456250D01*
X172423826Y-107480142D01*
X172420316Y-107503803D01*
X172414504Y-107527007D01*
X172406446Y-107549529D01*
X172396218Y-107571153D01*
X172383921Y-107591670D01*
X172369671Y-107610883D01*
X172353607Y-107628607D01*
X172335883Y-107644671D01*
X172316670Y-107658921D01*
X172296153Y-107671218D01*
X172274529Y-107681446D01*
X172252007Y-107689504D01*
X172228803Y-107695316D01*
X172205142Y-107698826D01*
X172181250Y-107700000D01*
X171693750Y-107700000D01*
X171669858Y-107698826D01*
X171646197Y-107695316D01*
X171622993Y-107689504D01*
X171600471Y-107681446D01*
X171578847Y-107671218D01*
X171558330Y-107658921D01*
X171539117Y-107644671D01*
X171521393Y-107628607D01*
X171505329Y-107610883D01*
X171491079Y-107591670D01*
X171478782Y-107571153D01*
X171468554Y-107549529D01*
X171460496Y-107527007D01*
X171454684Y-107503803D01*
X171451174Y-107480142D01*
X171450000Y-107456250D01*
X171450000Y-106543750D01*
X171451174Y-106519858D01*
X171454684Y-106496197D01*
X171460496Y-106472993D01*
X171468554Y-106450471D01*
X171478782Y-106428847D01*
X171491079Y-106408330D01*
X171505329Y-106389117D01*
X171521393Y-106371393D01*
X171539117Y-106355329D01*
X171558330Y-106341079D01*
X171578847Y-106328782D01*
X171600471Y-106318554D01*
X171622993Y-106310496D01*
X171646197Y-106304684D01*
X171669858Y-106301174D01*
X171693750Y-106300000D01*
X172181250Y-106300000D01*
X172205142Y-106301174D01*
X172205142Y-106301174D01*
G37*
D11*
X171937500Y-107000000D03*
D10*
G36*
X170330142Y-106301174D02*
X170353803Y-106304684D01*
X170377007Y-106310496D01*
X170399529Y-106318554D01*
X170421153Y-106328782D01*
X170441670Y-106341079D01*
X170460883Y-106355329D01*
X170478607Y-106371393D01*
X170494671Y-106389117D01*
X170508921Y-106408330D01*
X170521218Y-106428847D01*
X170531446Y-106450471D01*
X170539504Y-106472993D01*
X170545316Y-106496197D01*
X170548826Y-106519858D01*
X170550000Y-106543750D01*
X170550000Y-107456250D01*
X170548826Y-107480142D01*
X170545316Y-107503803D01*
X170539504Y-107527007D01*
X170531446Y-107549529D01*
X170521218Y-107571153D01*
X170508921Y-107591670D01*
X170494671Y-107610883D01*
X170478607Y-107628607D01*
X170460883Y-107644671D01*
X170441670Y-107658921D01*
X170421153Y-107671218D01*
X170399529Y-107681446D01*
X170377007Y-107689504D01*
X170353803Y-107695316D01*
X170330142Y-107698826D01*
X170306250Y-107700000D01*
X169818750Y-107700000D01*
X169794858Y-107698826D01*
X169771197Y-107695316D01*
X169747993Y-107689504D01*
X169725471Y-107681446D01*
X169703847Y-107671218D01*
X169683330Y-107658921D01*
X169664117Y-107644671D01*
X169646393Y-107628607D01*
X169630329Y-107610883D01*
X169616079Y-107591670D01*
X169603782Y-107571153D01*
X169593554Y-107549529D01*
X169585496Y-107527007D01*
X169579684Y-107503803D01*
X169576174Y-107480142D01*
X169575000Y-107456250D01*
X169575000Y-106543750D01*
X169576174Y-106519858D01*
X169579684Y-106496197D01*
X169585496Y-106472993D01*
X169593554Y-106450471D01*
X169603782Y-106428847D01*
X169616079Y-106408330D01*
X169630329Y-106389117D01*
X169646393Y-106371393D01*
X169664117Y-106355329D01*
X169683330Y-106341079D01*
X169703847Y-106328782D01*
X169725471Y-106318554D01*
X169747993Y-106310496D01*
X169771197Y-106304684D01*
X169794858Y-106301174D01*
X169818750Y-106300000D01*
X170306250Y-106300000D01*
X170330142Y-106301174D01*
X170330142Y-106301174D01*
G37*
D11*
X170062500Y-107000000D03*
G04 #@! TD*
D10*
G04 #@! TO.C,*
G36*
X185852691Y-101826053D02*
X185873926Y-101829203D01*
X185894750Y-101834419D01*
X185914962Y-101841651D01*
X185934368Y-101850830D01*
X185952781Y-101861866D01*
X185970024Y-101874654D01*
X185985930Y-101889070D01*
X186000346Y-101904976D01*
X186013134Y-101922219D01*
X186024170Y-101940632D01*
X186033349Y-101960038D01*
X186040581Y-101980250D01*
X186045797Y-102001074D01*
X186048947Y-102022309D01*
X186050000Y-102043750D01*
X186050000Y-102556250D01*
X186048947Y-102577691D01*
X186045797Y-102598926D01*
X186040581Y-102619750D01*
X186033349Y-102639962D01*
X186024170Y-102659368D01*
X186013134Y-102677781D01*
X186000346Y-102695024D01*
X185985930Y-102710930D01*
X185970024Y-102725346D01*
X185952781Y-102738134D01*
X185934368Y-102749170D01*
X185914962Y-102758349D01*
X185894750Y-102765581D01*
X185873926Y-102770797D01*
X185852691Y-102773947D01*
X185831250Y-102775000D01*
X185393750Y-102775000D01*
X185372309Y-102773947D01*
X185351074Y-102770797D01*
X185330250Y-102765581D01*
X185310038Y-102758349D01*
X185290632Y-102749170D01*
X185272219Y-102738134D01*
X185254976Y-102725346D01*
X185239070Y-102710930D01*
X185224654Y-102695024D01*
X185211866Y-102677781D01*
X185200830Y-102659368D01*
X185191651Y-102639962D01*
X185184419Y-102619750D01*
X185179203Y-102598926D01*
X185176053Y-102577691D01*
X185175000Y-102556250D01*
X185175000Y-102043750D01*
X185176053Y-102022309D01*
X185179203Y-102001074D01*
X185184419Y-101980250D01*
X185191651Y-101960038D01*
X185200830Y-101940632D01*
X185211866Y-101922219D01*
X185224654Y-101904976D01*
X185239070Y-101889070D01*
X185254976Y-101874654D01*
X185272219Y-101861866D01*
X185290632Y-101850830D01*
X185310038Y-101841651D01*
X185330250Y-101834419D01*
X185351074Y-101829203D01*
X185372309Y-101826053D01*
X185393750Y-101825000D01*
X185831250Y-101825000D01*
X185852691Y-101826053D01*
X185852691Y-101826053D01*
G37*
D12*
X185612500Y-102300000D03*
D10*
G36*
X187427691Y-101826053D02*
X187448926Y-101829203D01*
X187469750Y-101834419D01*
X187489962Y-101841651D01*
X187509368Y-101850830D01*
X187527781Y-101861866D01*
X187545024Y-101874654D01*
X187560930Y-101889070D01*
X187575346Y-101904976D01*
X187588134Y-101922219D01*
X187599170Y-101940632D01*
X187608349Y-101960038D01*
X187615581Y-101980250D01*
X187620797Y-102001074D01*
X187623947Y-102022309D01*
X187625000Y-102043750D01*
X187625000Y-102556250D01*
X187623947Y-102577691D01*
X187620797Y-102598926D01*
X187615581Y-102619750D01*
X187608349Y-102639962D01*
X187599170Y-102659368D01*
X187588134Y-102677781D01*
X187575346Y-102695024D01*
X187560930Y-102710930D01*
X187545024Y-102725346D01*
X187527781Y-102738134D01*
X187509368Y-102749170D01*
X187489962Y-102758349D01*
X187469750Y-102765581D01*
X187448926Y-102770797D01*
X187427691Y-102773947D01*
X187406250Y-102775000D01*
X186968750Y-102775000D01*
X186947309Y-102773947D01*
X186926074Y-102770797D01*
X186905250Y-102765581D01*
X186885038Y-102758349D01*
X186865632Y-102749170D01*
X186847219Y-102738134D01*
X186829976Y-102725346D01*
X186814070Y-102710930D01*
X186799654Y-102695024D01*
X186786866Y-102677781D01*
X186775830Y-102659368D01*
X186766651Y-102639962D01*
X186759419Y-102619750D01*
X186754203Y-102598926D01*
X186751053Y-102577691D01*
X186750000Y-102556250D01*
X186750000Y-102043750D01*
X186751053Y-102022309D01*
X186754203Y-102001074D01*
X186759419Y-101980250D01*
X186766651Y-101960038D01*
X186775830Y-101940632D01*
X186786866Y-101922219D01*
X186799654Y-101904976D01*
X186814070Y-101889070D01*
X186829976Y-101874654D01*
X186847219Y-101861866D01*
X186865632Y-101850830D01*
X186885038Y-101841651D01*
X186905250Y-101834419D01*
X186926074Y-101829203D01*
X186947309Y-101826053D01*
X186968750Y-101825000D01*
X187406250Y-101825000D01*
X187427691Y-101826053D01*
X187427691Y-101826053D01*
G37*
D12*
X187187500Y-102300000D03*
G04 #@! TD*
D10*
G04 #@! TO.C,*
G36*
X187427691Y-103826053D02*
X187448926Y-103829203D01*
X187469750Y-103834419D01*
X187489962Y-103841651D01*
X187509368Y-103850830D01*
X187527781Y-103861866D01*
X187545024Y-103874654D01*
X187560930Y-103889070D01*
X187575346Y-103904976D01*
X187588134Y-103922219D01*
X187599170Y-103940632D01*
X187608349Y-103960038D01*
X187615581Y-103980250D01*
X187620797Y-104001074D01*
X187623947Y-104022309D01*
X187625000Y-104043750D01*
X187625000Y-104556250D01*
X187623947Y-104577691D01*
X187620797Y-104598926D01*
X187615581Y-104619750D01*
X187608349Y-104639962D01*
X187599170Y-104659368D01*
X187588134Y-104677781D01*
X187575346Y-104695024D01*
X187560930Y-104710930D01*
X187545024Y-104725346D01*
X187527781Y-104738134D01*
X187509368Y-104749170D01*
X187489962Y-104758349D01*
X187469750Y-104765581D01*
X187448926Y-104770797D01*
X187427691Y-104773947D01*
X187406250Y-104775000D01*
X186968750Y-104775000D01*
X186947309Y-104773947D01*
X186926074Y-104770797D01*
X186905250Y-104765581D01*
X186885038Y-104758349D01*
X186865632Y-104749170D01*
X186847219Y-104738134D01*
X186829976Y-104725346D01*
X186814070Y-104710930D01*
X186799654Y-104695024D01*
X186786866Y-104677781D01*
X186775830Y-104659368D01*
X186766651Y-104639962D01*
X186759419Y-104619750D01*
X186754203Y-104598926D01*
X186751053Y-104577691D01*
X186750000Y-104556250D01*
X186750000Y-104043750D01*
X186751053Y-104022309D01*
X186754203Y-104001074D01*
X186759419Y-103980250D01*
X186766651Y-103960038D01*
X186775830Y-103940632D01*
X186786866Y-103922219D01*
X186799654Y-103904976D01*
X186814070Y-103889070D01*
X186829976Y-103874654D01*
X186847219Y-103861866D01*
X186865632Y-103850830D01*
X186885038Y-103841651D01*
X186905250Y-103834419D01*
X186926074Y-103829203D01*
X186947309Y-103826053D01*
X186968750Y-103825000D01*
X187406250Y-103825000D01*
X187427691Y-103826053D01*
X187427691Y-103826053D01*
G37*
D12*
X187187500Y-104300000D03*
D10*
G36*
X185852691Y-103826053D02*
X185873926Y-103829203D01*
X185894750Y-103834419D01*
X185914962Y-103841651D01*
X185934368Y-103850830D01*
X185952781Y-103861866D01*
X185970024Y-103874654D01*
X185985930Y-103889070D01*
X186000346Y-103904976D01*
X186013134Y-103922219D01*
X186024170Y-103940632D01*
X186033349Y-103960038D01*
X186040581Y-103980250D01*
X186045797Y-104001074D01*
X186048947Y-104022309D01*
X186050000Y-104043750D01*
X186050000Y-104556250D01*
X186048947Y-104577691D01*
X186045797Y-104598926D01*
X186040581Y-104619750D01*
X186033349Y-104639962D01*
X186024170Y-104659368D01*
X186013134Y-104677781D01*
X186000346Y-104695024D01*
X185985930Y-104710930D01*
X185970024Y-104725346D01*
X185952781Y-104738134D01*
X185934368Y-104749170D01*
X185914962Y-104758349D01*
X185894750Y-104765581D01*
X185873926Y-104770797D01*
X185852691Y-104773947D01*
X185831250Y-104775000D01*
X185393750Y-104775000D01*
X185372309Y-104773947D01*
X185351074Y-104770797D01*
X185330250Y-104765581D01*
X185310038Y-104758349D01*
X185290632Y-104749170D01*
X185272219Y-104738134D01*
X185254976Y-104725346D01*
X185239070Y-104710930D01*
X185224654Y-104695024D01*
X185211866Y-104677781D01*
X185200830Y-104659368D01*
X185191651Y-104639962D01*
X185184419Y-104619750D01*
X185179203Y-104598926D01*
X185176053Y-104577691D01*
X185175000Y-104556250D01*
X185175000Y-104043750D01*
X185176053Y-104022309D01*
X185179203Y-104001074D01*
X185184419Y-103980250D01*
X185191651Y-103960038D01*
X185200830Y-103940632D01*
X185211866Y-103922219D01*
X185224654Y-103904976D01*
X185239070Y-103889070D01*
X185254976Y-103874654D01*
X185272219Y-103861866D01*
X185290632Y-103850830D01*
X185310038Y-103841651D01*
X185330250Y-103834419D01*
X185351074Y-103829203D01*
X185372309Y-103826053D01*
X185393750Y-103825000D01*
X185831250Y-103825000D01*
X185852691Y-103826053D01*
X185852691Y-103826053D01*
G37*
D12*
X185612500Y-104300000D03*
G04 #@! TD*
D10*
G04 #@! TO.C,*
G36*
X185852691Y-105826053D02*
X185873926Y-105829203D01*
X185894750Y-105834419D01*
X185914962Y-105841651D01*
X185934368Y-105850830D01*
X185952781Y-105861866D01*
X185970024Y-105874654D01*
X185985930Y-105889070D01*
X186000346Y-105904976D01*
X186013134Y-105922219D01*
X186024170Y-105940632D01*
X186033349Y-105960038D01*
X186040581Y-105980250D01*
X186045797Y-106001074D01*
X186048947Y-106022309D01*
X186050000Y-106043750D01*
X186050000Y-106556250D01*
X186048947Y-106577691D01*
X186045797Y-106598926D01*
X186040581Y-106619750D01*
X186033349Y-106639962D01*
X186024170Y-106659368D01*
X186013134Y-106677781D01*
X186000346Y-106695024D01*
X185985930Y-106710930D01*
X185970024Y-106725346D01*
X185952781Y-106738134D01*
X185934368Y-106749170D01*
X185914962Y-106758349D01*
X185894750Y-106765581D01*
X185873926Y-106770797D01*
X185852691Y-106773947D01*
X185831250Y-106775000D01*
X185393750Y-106775000D01*
X185372309Y-106773947D01*
X185351074Y-106770797D01*
X185330250Y-106765581D01*
X185310038Y-106758349D01*
X185290632Y-106749170D01*
X185272219Y-106738134D01*
X185254976Y-106725346D01*
X185239070Y-106710930D01*
X185224654Y-106695024D01*
X185211866Y-106677781D01*
X185200830Y-106659368D01*
X185191651Y-106639962D01*
X185184419Y-106619750D01*
X185179203Y-106598926D01*
X185176053Y-106577691D01*
X185175000Y-106556250D01*
X185175000Y-106043750D01*
X185176053Y-106022309D01*
X185179203Y-106001074D01*
X185184419Y-105980250D01*
X185191651Y-105960038D01*
X185200830Y-105940632D01*
X185211866Y-105922219D01*
X185224654Y-105904976D01*
X185239070Y-105889070D01*
X185254976Y-105874654D01*
X185272219Y-105861866D01*
X185290632Y-105850830D01*
X185310038Y-105841651D01*
X185330250Y-105834419D01*
X185351074Y-105829203D01*
X185372309Y-105826053D01*
X185393750Y-105825000D01*
X185831250Y-105825000D01*
X185852691Y-105826053D01*
X185852691Y-105826053D01*
G37*
D12*
X185612500Y-106300000D03*
D10*
G36*
X187427691Y-105826053D02*
X187448926Y-105829203D01*
X187469750Y-105834419D01*
X187489962Y-105841651D01*
X187509368Y-105850830D01*
X187527781Y-105861866D01*
X187545024Y-105874654D01*
X187560930Y-105889070D01*
X187575346Y-105904976D01*
X187588134Y-105922219D01*
X187599170Y-105940632D01*
X187608349Y-105960038D01*
X187615581Y-105980250D01*
X187620797Y-106001074D01*
X187623947Y-106022309D01*
X187625000Y-106043750D01*
X187625000Y-106556250D01*
X187623947Y-106577691D01*
X187620797Y-106598926D01*
X187615581Y-106619750D01*
X187608349Y-106639962D01*
X187599170Y-106659368D01*
X187588134Y-106677781D01*
X187575346Y-106695024D01*
X187560930Y-106710930D01*
X187545024Y-106725346D01*
X187527781Y-106738134D01*
X187509368Y-106749170D01*
X187489962Y-106758349D01*
X187469750Y-106765581D01*
X187448926Y-106770797D01*
X187427691Y-106773947D01*
X187406250Y-106775000D01*
X186968750Y-106775000D01*
X186947309Y-106773947D01*
X186926074Y-106770797D01*
X186905250Y-106765581D01*
X186885038Y-106758349D01*
X186865632Y-106749170D01*
X186847219Y-106738134D01*
X186829976Y-106725346D01*
X186814070Y-106710930D01*
X186799654Y-106695024D01*
X186786866Y-106677781D01*
X186775830Y-106659368D01*
X186766651Y-106639962D01*
X186759419Y-106619750D01*
X186754203Y-106598926D01*
X186751053Y-106577691D01*
X186750000Y-106556250D01*
X186750000Y-106043750D01*
X186751053Y-106022309D01*
X186754203Y-106001074D01*
X186759419Y-105980250D01*
X186766651Y-105960038D01*
X186775830Y-105940632D01*
X186786866Y-105922219D01*
X186799654Y-105904976D01*
X186814070Y-105889070D01*
X186829976Y-105874654D01*
X186847219Y-105861866D01*
X186865632Y-105850830D01*
X186885038Y-105841651D01*
X186905250Y-105834419D01*
X186926074Y-105829203D01*
X186947309Y-105826053D01*
X186968750Y-105825000D01*
X187406250Y-105825000D01*
X187427691Y-105826053D01*
X187427691Y-105826053D01*
G37*
D12*
X187187500Y-106300000D03*
G04 #@! TD*
D10*
G04 #@! TO.C,*
G36*
X187427691Y-107826053D02*
X187448926Y-107829203D01*
X187469750Y-107834419D01*
X187489962Y-107841651D01*
X187509368Y-107850830D01*
X187527781Y-107861866D01*
X187545024Y-107874654D01*
X187560930Y-107889070D01*
X187575346Y-107904976D01*
X187588134Y-107922219D01*
X187599170Y-107940632D01*
X187608349Y-107960038D01*
X187615581Y-107980250D01*
X187620797Y-108001074D01*
X187623947Y-108022309D01*
X187625000Y-108043750D01*
X187625000Y-108556250D01*
X187623947Y-108577691D01*
X187620797Y-108598926D01*
X187615581Y-108619750D01*
X187608349Y-108639962D01*
X187599170Y-108659368D01*
X187588134Y-108677781D01*
X187575346Y-108695024D01*
X187560930Y-108710930D01*
X187545024Y-108725346D01*
X187527781Y-108738134D01*
X187509368Y-108749170D01*
X187489962Y-108758349D01*
X187469750Y-108765581D01*
X187448926Y-108770797D01*
X187427691Y-108773947D01*
X187406250Y-108775000D01*
X186968750Y-108775000D01*
X186947309Y-108773947D01*
X186926074Y-108770797D01*
X186905250Y-108765581D01*
X186885038Y-108758349D01*
X186865632Y-108749170D01*
X186847219Y-108738134D01*
X186829976Y-108725346D01*
X186814070Y-108710930D01*
X186799654Y-108695024D01*
X186786866Y-108677781D01*
X186775830Y-108659368D01*
X186766651Y-108639962D01*
X186759419Y-108619750D01*
X186754203Y-108598926D01*
X186751053Y-108577691D01*
X186750000Y-108556250D01*
X186750000Y-108043750D01*
X186751053Y-108022309D01*
X186754203Y-108001074D01*
X186759419Y-107980250D01*
X186766651Y-107960038D01*
X186775830Y-107940632D01*
X186786866Y-107922219D01*
X186799654Y-107904976D01*
X186814070Y-107889070D01*
X186829976Y-107874654D01*
X186847219Y-107861866D01*
X186865632Y-107850830D01*
X186885038Y-107841651D01*
X186905250Y-107834419D01*
X186926074Y-107829203D01*
X186947309Y-107826053D01*
X186968750Y-107825000D01*
X187406250Y-107825000D01*
X187427691Y-107826053D01*
X187427691Y-107826053D01*
G37*
D12*
X187187500Y-108300000D03*
D10*
G36*
X185852691Y-107826053D02*
X185873926Y-107829203D01*
X185894750Y-107834419D01*
X185914962Y-107841651D01*
X185934368Y-107850830D01*
X185952781Y-107861866D01*
X185970024Y-107874654D01*
X185985930Y-107889070D01*
X186000346Y-107904976D01*
X186013134Y-107922219D01*
X186024170Y-107940632D01*
X186033349Y-107960038D01*
X186040581Y-107980250D01*
X186045797Y-108001074D01*
X186048947Y-108022309D01*
X186050000Y-108043750D01*
X186050000Y-108556250D01*
X186048947Y-108577691D01*
X186045797Y-108598926D01*
X186040581Y-108619750D01*
X186033349Y-108639962D01*
X186024170Y-108659368D01*
X186013134Y-108677781D01*
X186000346Y-108695024D01*
X185985930Y-108710930D01*
X185970024Y-108725346D01*
X185952781Y-108738134D01*
X185934368Y-108749170D01*
X185914962Y-108758349D01*
X185894750Y-108765581D01*
X185873926Y-108770797D01*
X185852691Y-108773947D01*
X185831250Y-108775000D01*
X185393750Y-108775000D01*
X185372309Y-108773947D01*
X185351074Y-108770797D01*
X185330250Y-108765581D01*
X185310038Y-108758349D01*
X185290632Y-108749170D01*
X185272219Y-108738134D01*
X185254976Y-108725346D01*
X185239070Y-108710930D01*
X185224654Y-108695024D01*
X185211866Y-108677781D01*
X185200830Y-108659368D01*
X185191651Y-108639962D01*
X185184419Y-108619750D01*
X185179203Y-108598926D01*
X185176053Y-108577691D01*
X185175000Y-108556250D01*
X185175000Y-108043750D01*
X185176053Y-108022309D01*
X185179203Y-108001074D01*
X185184419Y-107980250D01*
X185191651Y-107960038D01*
X185200830Y-107940632D01*
X185211866Y-107922219D01*
X185224654Y-107904976D01*
X185239070Y-107889070D01*
X185254976Y-107874654D01*
X185272219Y-107861866D01*
X185290632Y-107850830D01*
X185310038Y-107841651D01*
X185330250Y-107834419D01*
X185351074Y-107829203D01*
X185372309Y-107826053D01*
X185393750Y-107825000D01*
X185831250Y-107825000D01*
X185852691Y-107826053D01*
X185852691Y-107826053D01*
G37*
D12*
X185612500Y-108300000D03*
G04 #@! TD*
M02*
