%FSLAX45Y45*%
G04 Gerber Fmt 4.5, Leading zero omitted, Abs format (unit mm)*
G04 Created by KiCad (PCBNEW (5.0.0)) date 07/30/18 22:47:28*
%MOMM*%
%LPD*%
G01*
G04 APERTURE LIST*
%ADD10C,0.150000*%
%ADD11C,0.200000*%
%ADD12C,0.300000*%
G04 APERTURE END LIST*
D10*
X19040000Y-11030000D02*
X18740000Y-11030000D01*
X18740000Y-9930000D02*
X19040000Y-9930000D01*
X15240000Y-10130000D02*
X15240000Y-10830000D01*
X15240000Y-10130000D02*
G75*
G02X15440000Y-9930000I200000J0D01*
G01*
X18740000Y-9930000D02*
X15440000Y-9930000D01*
X19040000Y-9930000D02*
G75*
G02X19240000Y-10130000I0J-200000D01*
G01*
X19240000Y-10830000D02*
X19240000Y-10130000D01*
X19240000Y-10830000D02*
G75*
G02X19040000Y-11030000I-200000J0D01*
G01*
X15440000Y-11030000D02*
X18740000Y-11030000D01*
X15440000Y-11030000D02*
G75*
G02X15240000Y-10830000I0J200000D01*
G01*
D11*
D12*
X15518928Y-11503214D02*
X15518928Y-11203214D01*
X15590357Y-11203214D01*
X15633214Y-11217500D01*
X15661786Y-11246071D01*
X15676071Y-11274643D01*
X15690357Y-11331786D01*
X15690357Y-11374643D01*
X15676071Y-11431786D01*
X15661786Y-11460357D01*
X15633214Y-11488929D01*
X15590357Y-11503214D01*
X15518928Y-11503214D01*
X15818928Y-11503214D02*
X15818928Y-11303214D01*
X15818928Y-11360357D02*
X15833214Y-11331786D01*
X15847500Y-11317500D01*
X15876071Y-11303214D01*
X15904643Y-11303214D01*
X16004643Y-11503214D02*
X16004643Y-11303214D01*
X16004643Y-11203214D02*
X15990357Y-11217500D01*
X16004643Y-11231786D01*
X16018928Y-11217500D01*
X16004643Y-11203214D01*
X16004643Y-11231786D01*
X16190357Y-11503214D02*
X16161786Y-11488929D01*
X16147500Y-11460357D01*
X16147500Y-11203214D01*
X16347500Y-11503214D02*
X16318928Y-11488929D01*
X16304643Y-11460357D01*
X16304643Y-11203214D01*
X16690357Y-11503214D02*
X16690357Y-11203214D01*
X16790357Y-11417500D01*
X16890357Y-11203214D01*
X16890357Y-11503214D01*
X17161786Y-11503214D02*
X17161786Y-11346071D01*
X17147500Y-11317500D01*
X17118928Y-11303214D01*
X17061786Y-11303214D01*
X17033214Y-11317500D01*
X17161786Y-11488929D02*
X17133214Y-11503214D01*
X17061786Y-11503214D01*
X17033214Y-11488929D01*
X17018928Y-11460357D01*
X17018928Y-11431786D01*
X17033214Y-11403214D01*
X17061786Y-11388929D01*
X17133214Y-11388929D01*
X17161786Y-11374643D01*
X17304643Y-11303214D02*
X17304643Y-11603214D01*
X17304643Y-11317500D02*
X17333214Y-11303214D01*
X17390357Y-11303214D01*
X17418928Y-11317500D01*
X17433214Y-11331786D01*
X17447500Y-11360357D01*
X17447500Y-11446071D01*
X17433214Y-11474643D01*
X17418928Y-11488929D01*
X17390357Y-11503214D01*
X17333214Y-11503214D01*
X17304643Y-11488929D01*
X17576071Y-11474643D02*
X17590357Y-11488929D01*
X17576071Y-11503214D01*
X17561786Y-11488929D01*
X17576071Y-11474643D01*
X17576071Y-11503214D01*
X17576071Y-11317500D02*
X17590357Y-11331786D01*
X17576071Y-11346071D01*
X17561786Y-11331786D01*
X17576071Y-11317500D01*
X17576071Y-11346071D01*
M02*
