G04 #@! TF.GenerationSoftware,KiCad,Pcbnew,(5.0.0)*
G04 #@! TF.CreationDate,2018-07-30T22:46:19+01:00*
G04 #@! TF.ProjectId,CHARLIE,434841524C49452E6B696361645F7063,rev?*
G04 #@! TF.SameCoordinates,Original*
G04 #@! TF.FileFunction,Legend,Top*
G04 #@! TF.FilePolarity,Positive*
%FSLAX46Y46*%
G04 Gerber Fmt 4.6, Leading zero omitted, Abs format (unit mm)*
G04 Created by KiCad (PCBNEW (5.0.0)) date 07/30/18 22:46:19*
%MOMM*%
%LPD*%
G01*
G04 APERTURE LIST*
%ADD10C,0.120000*%
%ADD11C,0.010000*%
%ADD12C,0.150000*%
G04 APERTURE END LIST*
D10*
G04 #@! TO.C,*
X177000000Y-102040000D02*
X174315000Y-102040000D01*
X174315000Y-102040000D02*
X174315000Y-103960000D01*
X174315000Y-103960000D02*
X177000000Y-103960000D01*
X174315000Y-107960000D02*
X177000000Y-107960000D01*
X174315000Y-106040000D02*
X174315000Y-107960000D01*
X177000000Y-106040000D02*
X174315000Y-106040000D01*
X182000000Y-102040000D02*
X179315000Y-102040000D01*
X179315000Y-102040000D02*
X179315000Y-103960000D01*
X179315000Y-103960000D02*
X182000000Y-103960000D01*
X179315000Y-107960000D02*
X182000000Y-107960000D01*
X179315000Y-106040000D02*
X179315000Y-107960000D01*
X182000000Y-106040000D02*
X179315000Y-106040000D01*
X157000000Y-102040000D02*
X154315000Y-102040000D01*
X154315000Y-102040000D02*
X154315000Y-103960000D01*
X154315000Y-103960000D02*
X157000000Y-103960000D01*
X157000000Y-106040000D02*
X154315000Y-106040000D01*
X154315000Y-106040000D02*
X154315000Y-107960000D01*
X154315000Y-107960000D02*
X157000000Y-107960000D01*
X159315000Y-103960000D02*
X162000000Y-103960000D01*
X159315000Y-102040000D02*
X159315000Y-103960000D01*
X162000000Y-102040000D02*
X159315000Y-102040000D01*
X159315000Y-107960000D02*
X162000000Y-107960000D01*
X159315000Y-106040000D02*
X159315000Y-107960000D01*
X162000000Y-106040000D02*
X159315000Y-106040000D01*
X167000000Y-102040000D02*
X164315000Y-102040000D01*
X164315000Y-102040000D02*
X164315000Y-103960000D01*
X164315000Y-103960000D02*
X167000000Y-103960000D01*
X164315000Y-107960000D02*
X167000000Y-107960000D01*
X164315000Y-106040000D02*
X164315000Y-107960000D01*
X167000000Y-106040000D02*
X164315000Y-106040000D01*
X172000000Y-102040000D02*
X169315000Y-102040000D01*
X169315000Y-102040000D02*
X169315000Y-103960000D01*
X169315000Y-103960000D02*
X172000000Y-103960000D01*
X169315000Y-107960000D02*
X172000000Y-107960000D01*
X169315000Y-106040000D02*
X169315000Y-107960000D01*
X172000000Y-106040000D02*
X169315000Y-106040000D01*
X188670000Y-109950000D02*
X191330000Y-109950000D01*
X188670000Y-102270000D02*
X188670000Y-109950000D01*
X191330000Y-102270000D02*
X191330000Y-109950000D01*
X188670000Y-102270000D02*
X191330000Y-102270000D01*
X188670000Y-101000000D02*
X188670000Y-99670000D01*
X188670000Y-99670000D02*
X190000000Y-99670000D01*
X186562779Y-101790000D02*
X186237221Y-101790000D01*
X186562779Y-102810000D02*
X186237221Y-102810000D01*
X186562779Y-104810000D02*
X186237221Y-104810000D01*
X186562779Y-103790000D02*
X186237221Y-103790000D01*
X186562779Y-105790000D02*
X186237221Y-105790000D01*
X186562779Y-106810000D02*
X186237221Y-106810000D01*
X186562779Y-108810000D02*
X186237221Y-108810000D01*
X186562779Y-107790000D02*
X186237221Y-107790000D01*
D11*
G04 #@! TO.C,G\002A\002A\002A*
G36*
X182521805Y-101222274D02*
X182766752Y-101371646D01*
X182963966Y-101562807D01*
X183111877Y-101793864D01*
X183204485Y-102045472D01*
X183221367Y-102126222D01*
X183234212Y-102227884D01*
X183243453Y-102358982D01*
X183249523Y-102528040D01*
X183252856Y-102743585D01*
X183253885Y-103014140D01*
X183253885Y-103017544D01*
X183252515Y-103307792D01*
X183247582Y-103543399D01*
X183237849Y-103733339D01*
X183222079Y-103886588D01*
X183199036Y-104012119D01*
X183167482Y-104118909D01*
X183126182Y-104215932D01*
X183075995Y-104308595D01*
X182961095Y-104463709D01*
X182806919Y-104615916D01*
X182634853Y-104746669D01*
X182466286Y-104837423D01*
X182465997Y-104837540D01*
X182417134Y-104856571D01*
X182369598Y-104872065D01*
X182316434Y-104884431D01*
X182250689Y-104894078D01*
X182165409Y-104901413D01*
X182053642Y-104906846D01*
X181908433Y-104910783D01*
X181722828Y-104913635D01*
X181489875Y-104915809D01*
X181202620Y-104917713D01*
X181089474Y-104918383D01*
X180777798Y-104919971D01*
X180522815Y-104920558D01*
X180317566Y-104919884D01*
X180155089Y-104917688D01*
X180028422Y-104913709D01*
X179930606Y-104907688D01*
X179854680Y-104899363D01*
X179793681Y-104888475D01*
X179740650Y-104874763D01*
X179715594Y-104866976D01*
X179593291Y-104821489D01*
X179476843Y-104768735D01*
X179423058Y-104739206D01*
X179287259Y-104633528D01*
X179148313Y-104489290D01*
X179024252Y-104327962D01*
X178933108Y-104171018D01*
X178919353Y-104139430D01*
X178898299Y-104085099D01*
X178881677Y-104032849D01*
X178868965Y-103974621D01*
X178859640Y-103902354D01*
X178853177Y-103807989D01*
X178849054Y-103683467D01*
X178846747Y-103520728D01*
X178845734Y-103311713D01*
X178845659Y-103229396D01*
X179406998Y-103229396D01*
X179410894Y-103442716D01*
X179426150Y-103605859D01*
X179457684Y-103725559D01*
X179510413Y-103808548D01*
X179589255Y-103861558D01*
X179699127Y-103891321D01*
X179844948Y-103904571D01*
X180031635Y-103908039D01*
X180102757Y-103908184D01*
X180283082Y-103907160D01*
X180412369Y-103902775D01*
X180503210Y-103893569D01*
X180568197Y-103878085D01*
X180619923Y-103854862D01*
X180633949Y-103846649D01*
X180689797Y-103804015D01*
X180732144Y-103747431D01*
X180762739Y-103668303D01*
X180783330Y-103558039D01*
X180795667Y-103408047D01*
X180801497Y-103209732D01*
X180801539Y-103202717D01*
X181282447Y-103202717D01*
X181286025Y-103421081D01*
X181301164Y-103589043D01*
X181332499Y-103713212D01*
X181384666Y-103800196D01*
X181462304Y-103856604D01*
X181570048Y-103889044D01*
X181712536Y-103904124D01*
X181894404Y-103908453D01*
X181974325Y-103908653D01*
X182167902Y-103906620D01*
X182308863Y-103899700D01*
X182408133Y-103886847D01*
X182476640Y-103867015D01*
X182494063Y-103858913D01*
X182554763Y-103820189D01*
X182600991Y-103769276D01*
X182634631Y-103697702D01*
X182657564Y-103596991D01*
X182671673Y-103458672D01*
X182678839Y-103274269D01*
X182680946Y-103035309D01*
X182680953Y-103017544D01*
X182679714Y-102756476D01*
X182672326Y-102552121D01*
X182653282Y-102397534D01*
X182617074Y-102285772D01*
X182558197Y-102209892D01*
X182471143Y-102162951D01*
X182350406Y-102138003D01*
X182190477Y-102128106D01*
X181985851Y-102126317D01*
X181974122Y-102126316D01*
X181504263Y-102126316D01*
X181400314Y-102219136D01*
X181296366Y-102311956D01*
X181285791Y-102927344D01*
X181282447Y-103202717D01*
X180801539Y-103202717D01*
X180802653Y-103017544D01*
X180801262Y-102756456D01*
X180793438Y-102552079D01*
X180773699Y-102397472D01*
X180736564Y-102285695D01*
X180676555Y-102209806D01*
X180588190Y-102162865D01*
X180465989Y-102137930D01*
X180304472Y-102128060D01*
X180098967Y-102126316D01*
X179626318Y-102126316D01*
X179522370Y-102219130D01*
X179418421Y-102311944D01*
X179409544Y-102959168D01*
X179406998Y-103229396D01*
X178845659Y-103229396D01*
X178845491Y-103048361D01*
X178845489Y-103001629D01*
X178845489Y-102046742D01*
X178946529Y-101833461D01*
X179095573Y-101590752D01*
X179291258Y-101390741D01*
X179529988Y-101237021D01*
X179555266Y-101224724D01*
X179768547Y-101123684D01*
X182314913Y-101123684D01*
X182521805Y-101222274D01*
X182521805Y-101222274D01*
G37*
X182521805Y-101222274D02*
X182766752Y-101371646D01*
X182963966Y-101562807D01*
X183111877Y-101793864D01*
X183204485Y-102045472D01*
X183221367Y-102126222D01*
X183234212Y-102227884D01*
X183243453Y-102358982D01*
X183249523Y-102528040D01*
X183252856Y-102743585D01*
X183253885Y-103014140D01*
X183253885Y-103017544D01*
X183252515Y-103307792D01*
X183247582Y-103543399D01*
X183237849Y-103733339D01*
X183222079Y-103886588D01*
X183199036Y-104012119D01*
X183167482Y-104118909D01*
X183126182Y-104215932D01*
X183075995Y-104308595D01*
X182961095Y-104463709D01*
X182806919Y-104615916D01*
X182634853Y-104746669D01*
X182466286Y-104837423D01*
X182465997Y-104837540D01*
X182417134Y-104856571D01*
X182369598Y-104872065D01*
X182316434Y-104884431D01*
X182250689Y-104894078D01*
X182165409Y-104901413D01*
X182053642Y-104906846D01*
X181908433Y-104910783D01*
X181722828Y-104913635D01*
X181489875Y-104915809D01*
X181202620Y-104917713D01*
X181089474Y-104918383D01*
X180777798Y-104919971D01*
X180522815Y-104920558D01*
X180317566Y-104919884D01*
X180155089Y-104917688D01*
X180028422Y-104913709D01*
X179930606Y-104907688D01*
X179854680Y-104899363D01*
X179793681Y-104888475D01*
X179740650Y-104874763D01*
X179715594Y-104866976D01*
X179593291Y-104821489D01*
X179476843Y-104768735D01*
X179423058Y-104739206D01*
X179287259Y-104633528D01*
X179148313Y-104489290D01*
X179024252Y-104327962D01*
X178933108Y-104171018D01*
X178919353Y-104139430D01*
X178898299Y-104085099D01*
X178881677Y-104032849D01*
X178868965Y-103974621D01*
X178859640Y-103902354D01*
X178853177Y-103807989D01*
X178849054Y-103683467D01*
X178846747Y-103520728D01*
X178845734Y-103311713D01*
X178845659Y-103229396D01*
X179406998Y-103229396D01*
X179410894Y-103442716D01*
X179426150Y-103605859D01*
X179457684Y-103725559D01*
X179510413Y-103808548D01*
X179589255Y-103861558D01*
X179699127Y-103891321D01*
X179844948Y-103904571D01*
X180031635Y-103908039D01*
X180102757Y-103908184D01*
X180283082Y-103907160D01*
X180412369Y-103902775D01*
X180503210Y-103893569D01*
X180568197Y-103878085D01*
X180619923Y-103854862D01*
X180633949Y-103846649D01*
X180689797Y-103804015D01*
X180732144Y-103747431D01*
X180762739Y-103668303D01*
X180783330Y-103558039D01*
X180795667Y-103408047D01*
X180801497Y-103209732D01*
X180801539Y-103202717D01*
X181282447Y-103202717D01*
X181286025Y-103421081D01*
X181301164Y-103589043D01*
X181332499Y-103713212D01*
X181384666Y-103800196D01*
X181462304Y-103856604D01*
X181570048Y-103889044D01*
X181712536Y-103904124D01*
X181894404Y-103908453D01*
X181974325Y-103908653D01*
X182167902Y-103906620D01*
X182308863Y-103899700D01*
X182408133Y-103886847D01*
X182476640Y-103867015D01*
X182494063Y-103858913D01*
X182554763Y-103820189D01*
X182600991Y-103769276D01*
X182634631Y-103697702D01*
X182657564Y-103596991D01*
X182671673Y-103458672D01*
X182678839Y-103274269D01*
X182680946Y-103035309D01*
X182680953Y-103017544D01*
X182679714Y-102756476D01*
X182672326Y-102552121D01*
X182653282Y-102397534D01*
X182617074Y-102285772D01*
X182558197Y-102209892D01*
X182471143Y-102162951D01*
X182350406Y-102138003D01*
X182190477Y-102128106D01*
X181985851Y-102126317D01*
X181974122Y-102126316D01*
X181504263Y-102126316D01*
X181400314Y-102219136D01*
X181296366Y-102311956D01*
X181285791Y-102927344D01*
X181282447Y-103202717D01*
X180801539Y-103202717D01*
X180802653Y-103017544D01*
X180801262Y-102756456D01*
X180793438Y-102552079D01*
X180773699Y-102397472D01*
X180736564Y-102285695D01*
X180676555Y-102209806D01*
X180588190Y-102162865D01*
X180465989Y-102137930D01*
X180304472Y-102128060D01*
X180098967Y-102126316D01*
X179626318Y-102126316D01*
X179522370Y-102219130D01*
X179418421Y-102311944D01*
X179409544Y-102959168D01*
X179406998Y-103229396D01*
X178845659Y-103229396D01*
X178845491Y-103048361D01*
X178845489Y-103001629D01*
X178845489Y-102046742D01*
X178946529Y-101833461D01*
X179095573Y-101590752D01*
X179291258Y-101390741D01*
X179529988Y-101237021D01*
X179555266Y-101224724D01*
X179768547Y-101123684D01*
X182314913Y-101123684D01*
X182521805Y-101222274D01*
G36*
X177501270Y-101209720D02*
X177683634Y-101321125D01*
X177861142Y-101475348D01*
X178014591Y-101653185D01*
X178122861Y-101831311D01*
X178208897Y-102014912D01*
X178218643Y-102949286D01*
X178221202Y-103221061D01*
X178222310Y-103437470D01*
X178221566Y-103606798D01*
X178218572Y-103737330D01*
X178212929Y-103837349D01*
X178204237Y-103915141D01*
X178192098Y-103978990D01*
X178176110Y-104037181D01*
X178164497Y-104072852D01*
X178050232Y-104323813D01*
X177889062Y-104534759D01*
X177677702Y-104709243D01*
X177468397Y-104825845D01*
X177285840Y-104911403D01*
X176092231Y-104917042D01*
X175816867Y-104917541D01*
X175557395Y-104916485D01*
X175321742Y-104914019D01*
X175117832Y-104910289D01*
X174953594Y-104905441D01*
X174836951Y-104899621D01*
X174775832Y-104892976D01*
X174775051Y-104892792D01*
X174600275Y-104830632D01*
X174415969Y-104732560D01*
X174248166Y-104614123D01*
X174143915Y-104515853D01*
X173984610Y-104291950D01*
X173878664Y-104036625D01*
X173833819Y-103828210D01*
X173821529Y-103703159D01*
X173812337Y-103529158D01*
X173806270Y-103320842D01*
X173803358Y-103092848D01*
X173803628Y-102859810D01*
X173807109Y-102636364D01*
X173813827Y-102437145D01*
X173820870Y-102324025D01*
X174405263Y-102324025D01*
X174406391Y-102997038D01*
X174407234Y-103260992D01*
X174412257Y-103468181D01*
X174426682Y-103625489D01*
X174455731Y-103739803D01*
X174504626Y-103818007D01*
X174578590Y-103866987D01*
X174682845Y-103893627D01*
X174822614Y-103904814D01*
X175003117Y-103907432D01*
X175097054Y-103907644D01*
X175550124Y-103908772D01*
X175758020Y-103723146D01*
X175767889Y-103077747D01*
X175768334Y-103035061D01*
X176283208Y-103035061D01*
X176283208Y-103692331D01*
X176391429Y-103800551D01*
X176499649Y-103908772D01*
X177435439Y-103908772D01*
X177543659Y-103800551D01*
X177651880Y-103692331D01*
X177651880Y-103034549D01*
X177651428Y-102770985D01*
X177646637Y-102564185D01*
X177632356Y-102407257D01*
X177603433Y-102293311D01*
X177554717Y-102215456D01*
X177481057Y-102166803D01*
X177377301Y-102140459D01*
X177238296Y-102129535D01*
X177058893Y-102127139D01*
X176973409Y-102127023D01*
X176797847Y-102128931D01*
X176644172Y-102134699D01*
X176524871Y-102143576D01*
X176452431Y-102154811D01*
X176440593Y-102159089D01*
X176391135Y-102191968D01*
X176353095Y-102236416D01*
X176325024Y-102300501D01*
X176305473Y-102392288D01*
X176292992Y-102519843D01*
X176286131Y-102691233D01*
X176283443Y-102914525D01*
X176283208Y-103035061D01*
X175768334Y-103035061D01*
X175769988Y-102876753D01*
X175770069Y-102693576D01*
X175768275Y-102539224D01*
X175764747Y-102424702D01*
X175759624Y-102361017D01*
X175758645Y-102356193D01*
X175722083Y-102281790D01*
X175659820Y-102206208D01*
X175656596Y-102203177D01*
X175622381Y-102173950D01*
X175585738Y-102153259D01*
X175535664Y-102139631D01*
X175461157Y-102131595D01*
X175351213Y-102127680D01*
X175194830Y-102126415D01*
X175081807Y-102126316D01*
X174589952Y-102126316D01*
X174497608Y-102225171D01*
X174405263Y-102324025D01*
X173820870Y-102324025D01*
X173823812Y-102276788D01*
X173830719Y-102210361D01*
X173896506Y-101938908D01*
X174017446Y-101690466D01*
X174187159Y-101473827D01*
X174399266Y-101297780D01*
X174557470Y-101208989D01*
X174739474Y-101123684D01*
X177317669Y-101123684D01*
X177501270Y-101209720D01*
X177501270Y-101209720D01*
G37*
X177501270Y-101209720D02*
X177683634Y-101321125D01*
X177861142Y-101475348D01*
X178014591Y-101653185D01*
X178122861Y-101831311D01*
X178208897Y-102014912D01*
X178218643Y-102949286D01*
X178221202Y-103221061D01*
X178222310Y-103437470D01*
X178221566Y-103606798D01*
X178218572Y-103737330D01*
X178212929Y-103837349D01*
X178204237Y-103915141D01*
X178192098Y-103978990D01*
X178176110Y-104037181D01*
X178164497Y-104072852D01*
X178050232Y-104323813D01*
X177889062Y-104534759D01*
X177677702Y-104709243D01*
X177468397Y-104825845D01*
X177285840Y-104911403D01*
X176092231Y-104917042D01*
X175816867Y-104917541D01*
X175557395Y-104916485D01*
X175321742Y-104914019D01*
X175117832Y-104910289D01*
X174953594Y-104905441D01*
X174836951Y-104899621D01*
X174775832Y-104892976D01*
X174775051Y-104892792D01*
X174600275Y-104830632D01*
X174415969Y-104732560D01*
X174248166Y-104614123D01*
X174143915Y-104515853D01*
X173984610Y-104291950D01*
X173878664Y-104036625D01*
X173833819Y-103828210D01*
X173821529Y-103703159D01*
X173812337Y-103529158D01*
X173806270Y-103320842D01*
X173803358Y-103092848D01*
X173803628Y-102859810D01*
X173807109Y-102636364D01*
X173813827Y-102437145D01*
X173820870Y-102324025D01*
X174405263Y-102324025D01*
X174406391Y-102997038D01*
X174407234Y-103260992D01*
X174412257Y-103468181D01*
X174426682Y-103625489D01*
X174455731Y-103739803D01*
X174504626Y-103818007D01*
X174578590Y-103866987D01*
X174682845Y-103893627D01*
X174822614Y-103904814D01*
X175003117Y-103907432D01*
X175097054Y-103907644D01*
X175550124Y-103908772D01*
X175758020Y-103723146D01*
X175767889Y-103077747D01*
X175768334Y-103035061D01*
X176283208Y-103035061D01*
X176283208Y-103692331D01*
X176391429Y-103800551D01*
X176499649Y-103908772D01*
X177435439Y-103908772D01*
X177543659Y-103800551D01*
X177651880Y-103692331D01*
X177651880Y-103034549D01*
X177651428Y-102770985D01*
X177646637Y-102564185D01*
X177632356Y-102407257D01*
X177603433Y-102293311D01*
X177554717Y-102215456D01*
X177481057Y-102166803D01*
X177377301Y-102140459D01*
X177238296Y-102129535D01*
X177058893Y-102127139D01*
X176973409Y-102127023D01*
X176797847Y-102128931D01*
X176644172Y-102134699D01*
X176524871Y-102143576D01*
X176452431Y-102154811D01*
X176440593Y-102159089D01*
X176391135Y-102191968D01*
X176353095Y-102236416D01*
X176325024Y-102300501D01*
X176305473Y-102392288D01*
X176292992Y-102519843D01*
X176286131Y-102691233D01*
X176283443Y-102914525D01*
X176283208Y-103035061D01*
X175768334Y-103035061D01*
X175769988Y-102876753D01*
X175770069Y-102693576D01*
X175768275Y-102539224D01*
X175764747Y-102424702D01*
X175759624Y-102361017D01*
X175758645Y-102356193D01*
X175722083Y-102281790D01*
X175659820Y-102206208D01*
X175656596Y-102203177D01*
X175622381Y-102173950D01*
X175585738Y-102153259D01*
X175535664Y-102139631D01*
X175461157Y-102131595D01*
X175351213Y-102127680D01*
X175194830Y-102126415D01*
X175081807Y-102126316D01*
X174589952Y-102126316D01*
X174497608Y-102225171D01*
X174405263Y-102324025D01*
X173820870Y-102324025D01*
X173823812Y-102276788D01*
X173830719Y-102210361D01*
X173896506Y-101938908D01*
X174017446Y-101690466D01*
X174187159Y-101473827D01*
X174399266Y-101297780D01*
X174557470Y-101208989D01*
X174739474Y-101123684D01*
X177317669Y-101123684D01*
X177501270Y-101209720D01*
G36*
X172495489Y-101222182D02*
X172738968Y-101371365D01*
X172936414Y-101563974D01*
X173085424Y-101797077D01*
X173181308Y-102058692D01*
X173197449Y-102132177D01*
X173209590Y-102216007D01*
X173218077Y-102319023D01*
X173223255Y-102450061D01*
X173225468Y-102617960D01*
X173225062Y-102831560D01*
X173222381Y-103099698D01*
X173222274Y-103108284D01*
X173211654Y-103956516D01*
X173110929Y-104169125D01*
X172959882Y-104424119D01*
X172772331Y-104627260D01*
X172546775Y-104779869D01*
X172306692Y-104876101D01*
X172250734Y-104890070D01*
X172182386Y-104901292D01*
X172094691Y-104910032D01*
X171980688Y-104916554D01*
X171833417Y-104921122D01*
X171645920Y-104924000D01*
X171411237Y-104925451D01*
X171122409Y-104925739D01*
X171001679Y-104925607D01*
X170697549Y-104924867D01*
X170449847Y-104923439D01*
X170251344Y-104920988D01*
X170094809Y-104917179D01*
X169973012Y-104911678D01*
X169878724Y-104904151D01*
X169804715Y-104894264D01*
X169743755Y-104881682D01*
X169688614Y-104866072D01*
X169684301Y-104864702D01*
X169424610Y-104750393D01*
X169204039Y-104585887D01*
X169022492Y-104371103D01*
X168921095Y-104195907D01*
X168819173Y-103989684D01*
X168819173Y-103226858D01*
X169379150Y-103226858D01*
X169382224Y-103440840D01*
X169396180Y-103604607D01*
X169425725Y-103724872D01*
X169475569Y-103808351D01*
X169550419Y-103861755D01*
X169654985Y-103891800D01*
X169793975Y-103905198D01*
X169972097Y-103908663D01*
X170050485Y-103908772D01*
X170250373Y-103906719D01*
X170396705Y-103899965D01*
X170499472Y-103887612D01*
X170568663Y-103868764D01*
X170586352Y-103860698D01*
X170662354Y-103808131D01*
X170712089Y-103751387D01*
X170723014Y-103698864D01*
X170732080Y-103590164D01*
X170738961Y-103432752D01*
X170743330Y-103234093D01*
X170743360Y-103229396D01*
X171258627Y-103229396D01*
X171262523Y-103442716D01*
X171277779Y-103605859D01*
X171309313Y-103725559D01*
X171362042Y-103808548D01*
X171440884Y-103861558D01*
X171550756Y-103891321D01*
X171696577Y-103904571D01*
X171883264Y-103908039D01*
X171954386Y-103908184D01*
X172134711Y-103907160D01*
X172263998Y-103902775D01*
X172354839Y-103893569D01*
X172419826Y-103878085D01*
X172471552Y-103854862D01*
X172485578Y-103846649D01*
X172541426Y-103804015D01*
X172583773Y-103747431D01*
X172614368Y-103668303D01*
X172634959Y-103558039D01*
X172647296Y-103408047D01*
X172653126Y-103209732D01*
X172654282Y-103017544D01*
X172652891Y-102756456D01*
X172645067Y-102552079D01*
X172625328Y-102397472D01*
X172588193Y-102285695D01*
X172528184Y-102209806D01*
X172439819Y-102162865D01*
X172317618Y-102137930D01*
X172156101Y-102128060D01*
X171950596Y-102126316D01*
X171477947Y-102126316D01*
X171373999Y-102219130D01*
X171270050Y-102311944D01*
X171261173Y-102959168D01*
X171258627Y-103229396D01*
X170743360Y-103229396D01*
X170744862Y-103001649D01*
X170744862Y-102312396D01*
X170558782Y-102126316D01*
X169600002Y-102126316D01*
X169496054Y-102219128D01*
X169392105Y-102311941D01*
X169382249Y-102955947D01*
X169379150Y-103226858D01*
X168819173Y-103226858D01*
X168819173Y-102046742D01*
X168920809Y-101832187D01*
X169067089Y-101593849D01*
X169259564Y-101390994D01*
X169487289Y-101234847D01*
X169519424Y-101218310D01*
X169710401Y-101123684D01*
X172288597Y-101123684D01*
X172495489Y-101222182D01*
X172495489Y-101222182D01*
G37*
X172495489Y-101222182D02*
X172738968Y-101371365D01*
X172936414Y-101563974D01*
X173085424Y-101797077D01*
X173181308Y-102058692D01*
X173197449Y-102132177D01*
X173209590Y-102216007D01*
X173218077Y-102319023D01*
X173223255Y-102450061D01*
X173225468Y-102617960D01*
X173225062Y-102831560D01*
X173222381Y-103099698D01*
X173222274Y-103108284D01*
X173211654Y-103956516D01*
X173110929Y-104169125D01*
X172959882Y-104424119D01*
X172772331Y-104627260D01*
X172546775Y-104779869D01*
X172306692Y-104876101D01*
X172250734Y-104890070D01*
X172182386Y-104901292D01*
X172094691Y-104910032D01*
X171980688Y-104916554D01*
X171833417Y-104921122D01*
X171645920Y-104924000D01*
X171411237Y-104925451D01*
X171122409Y-104925739D01*
X171001679Y-104925607D01*
X170697549Y-104924867D01*
X170449847Y-104923439D01*
X170251344Y-104920988D01*
X170094809Y-104917179D01*
X169973012Y-104911678D01*
X169878724Y-104904151D01*
X169804715Y-104894264D01*
X169743755Y-104881682D01*
X169688614Y-104866072D01*
X169684301Y-104864702D01*
X169424610Y-104750393D01*
X169204039Y-104585887D01*
X169022492Y-104371103D01*
X168921095Y-104195907D01*
X168819173Y-103989684D01*
X168819173Y-103226858D01*
X169379150Y-103226858D01*
X169382224Y-103440840D01*
X169396180Y-103604607D01*
X169425725Y-103724872D01*
X169475569Y-103808351D01*
X169550419Y-103861755D01*
X169654985Y-103891800D01*
X169793975Y-103905198D01*
X169972097Y-103908663D01*
X170050485Y-103908772D01*
X170250373Y-103906719D01*
X170396705Y-103899965D01*
X170499472Y-103887612D01*
X170568663Y-103868764D01*
X170586352Y-103860698D01*
X170662354Y-103808131D01*
X170712089Y-103751387D01*
X170723014Y-103698864D01*
X170732080Y-103590164D01*
X170738961Y-103432752D01*
X170743330Y-103234093D01*
X170743360Y-103229396D01*
X171258627Y-103229396D01*
X171262523Y-103442716D01*
X171277779Y-103605859D01*
X171309313Y-103725559D01*
X171362042Y-103808548D01*
X171440884Y-103861558D01*
X171550756Y-103891321D01*
X171696577Y-103904571D01*
X171883264Y-103908039D01*
X171954386Y-103908184D01*
X172134711Y-103907160D01*
X172263998Y-103902775D01*
X172354839Y-103893569D01*
X172419826Y-103878085D01*
X172471552Y-103854862D01*
X172485578Y-103846649D01*
X172541426Y-103804015D01*
X172583773Y-103747431D01*
X172614368Y-103668303D01*
X172634959Y-103558039D01*
X172647296Y-103408047D01*
X172653126Y-103209732D01*
X172654282Y-103017544D01*
X172652891Y-102756456D01*
X172645067Y-102552079D01*
X172625328Y-102397472D01*
X172588193Y-102285695D01*
X172528184Y-102209806D01*
X172439819Y-102162865D01*
X172317618Y-102137930D01*
X172156101Y-102128060D01*
X171950596Y-102126316D01*
X171477947Y-102126316D01*
X171373999Y-102219130D01*
X171270050Y-102311944D01*
X171261173Y-102959168D01*
X171258627Y-103229396D01*
X170743360Y-103229396D01*
X170744862Y-103001649D01*
X170744862Y-102312396D01*
X170558782Y-102126316D01*
X169600002Y-102126316D01*
X169496054Y-102219128D01*
X169392105Y-102311941D01*
X169382249Y-102955947D01*
X169379150Y-103226858D01*
X168819173Y-103226858D01*
X168819173Y-102046742D01*
X168920809Y-101832187D01*
X169067089Y-101593849D01*
X169259564Y-101390994D01*
X169487289Y-101234847D01*
X169519424Y-101218310D01*
X169710401Y-101123684D01*
X172288597Y-101123684D01*
X172495489Y-101222182D01*
G36*
X167482331Y-101217218D02*
X167692861Y-101350588D01*
X167884754Y-101529031D01*
X168039423Y-101733959D01*
X168089048Y-101823935D01*
X168182582Y-102014912D01*
X168182582Y-103988346D01*
X168081542Y-104201627D01*
X167932497Y-104444335D01*
X167736813Y-104644346D01*
X167498083Y-104798066D01*
X167472805Y-104810364D01*
X167259524Y-104911403D01*
X166065915Y-104918100D01*
X165724379Y-104919360D01*
X165441537Y-104918878D01*
X165212446Y-104916530D01*
X165032161Y-104912190D01*
X164895739Y-104905736D01*
X164798236Y-104897042D01*
X164734707Y-104885985D01*
X164729073Y-104884476D01*
X164461079Y-104778359D01*
X164231535Y-104624317D01*
X164045067Y-104427563D01*
X163906300Y-104193313D01*
X163819858Y-103926781D01*
X163805024Y-103842717D01*
X163793364Y-103722061D01*
X163784746Y-103552017D01*
X163779152Y-103346781D01*
X163776563Y-103120552D01*
X163776961Y-102887527D01*
X163780328Y-102661902D01*
X163786647Y-102457876D01*
X163794646Y-102312396D01*
X164378948Y-102312396D01*
X164380075Y-102991223D01*
X164380893Y-103256118D01*
X164385811Y-103464226D01*
X164400002Y-103622409D01*
X164428638Y-103737530D01*
X164476891Y-103816453D01*
X164549934Y-103866040D01*
X164652939Y-103893154D01*
X164791077Y-103904657D01*
X164969522Y-103907414D01*
X165070739Y-103907644D01*
X165523808Y-103908772D01*
X165731704Y-103723146D01*
X165741574Y-103077747D01*
X165743763Y-102877384D01*
X165744107Y-102695436D01*
X165742716Y-102542749D01*
X165739702Y-102430166D01*
X165735176Y-102368534D01*
X165734261Y-102363891D01*
X165714551Y-102324025D01*
X166256892Y-102324025D01*
X166256892Y-102992127D01*
X166258043Y-103241020D01*
X166262551Y-103434374D01*
X166272004Y-103580283D01*
X166287988Y-103686841D01*
X166312091Y-103762145D01*
X166345897Y-103814287D01*
X166390995Y-103851364D01*
X166429415Y-103872341D01*
X166484214Y-103884075D01*
X166589141Y-103894204D01*
X166730670Y-103901843D01*
X166895274Y-103906104D01*
X166952369Y-103906618D01*
X167409123Y-103908772D01*
X167625564Y-103692331D01*
X167625564Y-103034549D01*
X167625177Y-102770970D01*
X167620498Y-102564155D01*
X167606246Y-102407212D01*
X167577144Y-102293255D01*
X167527913Y-102215394D01*
X167453272Y-102166740D01*
X167347945Y-102140404D01*
X167206650Y-102129498D01*
X167024111Y-102127133D01*
X166930126Y-102127023D01*
X166441581Y-102126316D01*
X166349237Y-102225171D01*
X166256892Y-102324025D01*
X165714551Y-102324025D01*
X165700484Y-102295573D01*
X165640692Y-102219281D01*
X165632520Y-102210875D01*
X165598758Y-102178801D01*
X165564729Y-102156076D01*
X165519457Y-102141090D01*
X165451971Y-102132232D01*
X165351295Y-102127890D01*
X165206456Y-102126455D01*
X165056495Y-102126316D01*
X164565028Y-102126316D01*
X164378948Y-102312396D01*
X163794646Y-102312396D01*
X163795898Y-102289645D01*
X163807145Y-102177579D01*
X163876394Y-101914199D01*
X164001122Y-101671712D01*
X164174162Y-101459707D01*
X164388346Y-101287773D01*
X164531155Y-101208989D01*
X164713158Y-101123684D01*
X167291354Y-101123684D01*
X167482331Y-101217218D01*
X167482331Y-101217218D01*
G37*
X167482331Y-101217218D02*
X167692861Y-101350588D01*
X167884754Y-101529031D01*
X168039423Y-101733959D01*
X168089048Y-101823935D01*
X168182582Y-102014912D01*
X168182582Y-103988346D01*
X168081542Y-104201627D01*
X167932497Y-104444335D01*
X167736813Y-104644346D01*
X167498083Y-104798066D01*
X167472805Y-104810364D01*
X167259524Y-104911403D01*
X166065915Y-104918100D01*
X165724379Y-104919360D01*
X165441537Y-104918878D01*
X165212446Y-104916530D01*
X165032161Y-104912190D01*
X164895739Y-104905736D01*
X164798236Y-104897042D01*
X164734707Y-104885985D01*
X164729073Y-104884476D01*
X164461079Y-104778359D01*
X164231535Y-104624317D01*
X164045067Y-104427563D01*
X163906300Y-104193313D01*
X163819858Y-103926781D01*
X163805024Y-103842717D01*
X163793364Y-103722061D01*
X163784746Y-103552017D01*
X163779152Y-103346781D01*
X163776563Y-103120552D01*
X163776961Y-102887527D01*
X163780328Y-102661902D01*
X163786647Y-102457876D01*
X163794646Y-102312396D01*
X164378948Y-102312396D01*
X164380075Y-102991223D01*
X164380893Y-103256118D01*
X164385811Y-103464226D01*
X164400002Y-103622409D01*
X164428638Y-103737530D01*
X164476891Y-103816453D01*
X164549934Y-103866040D01*
X164652939Y-103893154D01*
X164791077Y-103904657D01*
X164969522Y-103907414D01*
X165070739Y-103907644D01*
X165523808Y-103908772D01*
X165731704Y-103723146D01*
X165741574Y-103077747D01*
X165743763Y-102877384D01*
X165744107Y-102695436D01*
X165742716Y-102542749D01*
X165739702Y-102430166D01*
X165735176Y-102368534D01*
X165734261Y-102363891D01*
X165714551Y-102324025D01*
X166256892Y-102324025D01*
X166256892Y-102992127D01*
X166258043Y-103241020D01*
X166262551Y-103434374D01*
X166272004Y-103580283D01*
X166287988Y-103686841D01*
X166312091Y-103762145D01*
X166345897Y-103814287D01*
X166390995Y-103851364D01*
X166429415Y-103872341D01*
X166484214Y-103884075D01*
X166589141Y-103894204D01*
X166730670Y-103901843D01*
X166895274Y-103906104D01*
X166952369Y-103906618D01*
X167409123Y-103908772D01*
X167625564Y-103692331D01*
X167625564Y-103034549D01*
X167625177Y-102770970D01*
X167620498Y-102564155D01*
X167606246Y-102407212D01*
X167577144Y-102293255D01*
X167527913Y-102215394D01*
X167453272Y-102166740D01*
X167347945Y-102140404D01*
X167206650Y-102129498D01*
X167024111Y-102127133D01*
X166930126Y-102127023D01*
X166441581Y-102126316D01*
X166349237Y-102225171D01*
X166256892Y-102324025D01*
X165714551Y-102324025D01*
X165700484Y-102295573D01*
X165640692Y-102219281D01*
X165632520Y-102210875D01*
X165598758Y-102178801D01*
X165564729Y-102156076D01*
X165519457Y-102141090D01*
X165451971Y-102132232D01*
X165351295Y-102127890D01*
X165206456Y-102126455D01*
X165056495Y-102126316D01*
X164565028Y-102126316D01*
X164378948Y-102312396D01*
X163794646Y-102312396D01*
X163795898Y-102289645D01*
X163807145Y-102177579D01*
X163876394Y-101914199D01*
X164001122Y-101671712D01*
X164174162Y-101459707D01*
X164388346Y-101287773D01*
X164531155Y-101208989D01*
X164713158Y-101123684D01*
X167291354Y-101123684D01*
X167482331Y-101217218D01*
G36*
X162469173Y-101221928D02*
X162705925Y-101368051D01*
X162902827Y-101559140D01*
X163053395Y-101786848D01*
X163151145Y-102042832D01*
X163168979Y-102122703D01*
X163180426Y-102219586D01*
X163189286Y-102366667D01*
X163195583Y-102551774D01*
X163199339Y-102762736D01*
X163200580Y-102987381D01*
X163199329Y-103213538D01*
X163195609Y-103429034D01*
X163189445Y-103621699D01*
X163180860Y-103779360D01*
X163169879Y-103889847D01*
X163165465Y-103915163D01*
X163078863Y-104179847D01*
X162941147Y-104415020D01*
X162759122Y-104613421D01*
X162539590Y-104767790D01*
X162289356Y-104870867D01*
X162263236Y-104877988D01*
X162199531Y-104891739D01*
X162120523Y-104902752D01*
X162019235Y-104911280D01*
X161888692Y-104917578D01*
X161721916Y-104921902D01*
X161511932Y-104924505D01*
X161251762Y-104925642D01*
X160958538Y-104925607D01*
X160656722Y-104924856D01*
X160411261Y-104923396D01*
X160214856Y-104920885D01*
X160060203Y-104916982D01*
X159940001Y-104911343D01*
X159846949Y-104903628D01*
X159773744Y-104893494D01*
X159713084Y-104880599D01*
X159657985Y-104864702D01*
X159398293Y-104750391D01*
X159177714Y-104585879D01*
X158996156Y-104371085D01*
X158894779Y-104195939D01*
X158792857Y-103989749D01*
X158792857Y-102312071D01*
X159365790Y-102312071D01*
X159365790Y-103723016D01*
X159573686Y-103908772D01*
X160020891Y-103908772D01*
X160209566Y-103906161D01*
X160365697Y-103898807D01*
X160478828Y-103887430D01*
X160537619Y-103873217D01*
X160593684Y-103842159D01*
X160636680Y-103808027D01*
X160668349Y-103762447D01*
X160690433Y-103697049D01*
X160704673Y-103603459D01*
X160712812Y-103473308D01*
X160715090Y-103367799D01*
X161231715Y-103367799D01*
X161233829Y-103492214D01*
X161239327Y-103581213D01*
X161248896Y-103644207D01*
X161263220Y-103690606D01*
X161282985Y-103729820D01*
X161290805Y-103742767D01*
X161352137Y-103819695D01*
X161418070Y-103871904D01*
X161426956Y-103876025D01*
X161502844Y-103892296D01*
X161624559Y-103902876D01*
X161776418Y-103908003D01*
X161942740Y-103907913D01*
X162107843Y-103902846D01*
X162256044Y-103893038D01*
X162371661Y-103878727D01*
X162437981Y-103860698D01*
X162497971Y-103824231D01*
X162542552Y-103779270D01*
X162574304Y-103716123D01*
X162595808Y-103625095D01*
X162609645Y-103496494D01*
X162618396Y-103320627D01*
X162622822Y-103166469D01*
X162627276Y-102905101D01*
X162625712Y-102698931D01*
X162617067Y-102539690D01*
X162600277Y-102419109D01*
X162574275Y-102328918D01*
X162537998Y-102260851D01*
X162500484Y-102216389D01*
X162410411Y-102126316D01*
X161451631Y-102126316D01*
X161347683Y-102219132D01*
X161243735Y-102311947D01*
X161234902Y-102975084D01*
X161232302Y-103198559D01*
X161231715Y-103367799D01*
X160715090Y-103367799D01*
X160716593Y-103298221D01*
X160717756Y-103069828D01*
X160717839Y-103007138D01*
X160718547Y-102312396D01*
X160625506Y-102219356D01*
X160532466Y-102126316D01*
X159573686Y-102126316D01*
X159469738Y-102219194D01*
X159365790Y-102312071D01*
X158792857Y-102312071D01*
X158792857Y-102043519D01*
X158912929Y-101800530D01*
X159053522Y-101570395D01*
X159228412Y-101387490D01*
X159449073Y-101240402D01*
X159505076Y-101211630D01*
X159684085Y-101123684D01*
X162262281Y-101123684D01*
X162469173Y-101221928D01*
X162469173Y-101221928D01*
G37*
X162469173Y-101221928D02*
X162705925Y-101368051D01*
X162902827Y-101559140D01*
X163053395Y-101786848D01*
X163151145Y-102042832D01*
X163168979Y-102122703D01*
X163180426Y-102219586D01*
X163189286Y-102366667D01*
X163195583Y-102551774D01*
X163199339Y-102762736D01*
X163200580Y-102987381D01*
X163199329Y-103213538D01*
X163195609Y-103429034D01*
X163189445Y-103621699D01*
X163180860Y-103779360D01*
X163169879Y-103889847D01*
X163165465Y-103915163D01*
X163078863Y-104179847D01*
X162941147Y-104415020D01*
X162759122Y-104613421D01*
X162539590Y-104767790D01*
X162289356Y-104870867D01*
X162263236Y-104877988D01*
X162199531Y-104891739D01*
X162120523Y-104902752D01*
X162019235Y-104911280D01*
X161888692Y-104917578D01*
X161721916Y-104921902D01*
X161511932Y-104924505D01*
X161251762Y-104925642D01*
X160958538Y-104925607D01*
X160656722Y-104924856D01*
X160411261Y-104923396D01*
X160214856Y-104920885D01*
X160060203Y-104916982D01*
X159940001Y-104911343D01*
X159846949Y-104903628D01*
X159773744Y-104893494D01*
X159713084Y-104880599D01*
X159657985Y-104864702D01*
X159398293Y-104750391D01*
X159177714Y-104585879D01*
X158996156Y-104371085D01*
X158894779Y-104195939D01*
X158792857Y-103989749D01*
X158792857Y-102312071D01*
X159365790Y-102312071D01*
X159365790Y-103723016D01*
X159573686Y-103908772D01*
X160020891Y-103908772D01*
X160209566Y-103906161D01*
X160365697Y-103898807D01*
X160478828Y-103887430D01*
X160537619Y-103873217D01*
X160593684Y-103842159D01*
X160636680Y-103808027D01*
X160668349Y-103762447D01*
X160690433Y-103697049D01*
X160704673Y-103603459D01*
X160712812Y-103473308D01*
X160715090Y-103367799D01*
X161231715Y-103367799D01*
X161233829Y-103492214D01*
X161239327Y-103581213D01*
X161248896Y-103644207D01*
X161263220Y-103690606D01*
X161282985Y-103729820D01*
X161290805Y-103742767D01*
X161352137Y-103819695D01*
X161418070Y-103871904D01*
X161426956Y-103876025D01*
X161502844Y-103892296D01*
X161624559Y-103902876D01*
X161776418Y-103908003D01*
X161942740Y-103907913D01*
X162107843Y-103902846D01*
X162256044Y-103893038D01*
X162371661Y-103878727D01*
X162437981Y-103860698D01*
X162497971Y-103824231D01*
X162542552Y-103779270D01*
X162574304Y-103716123D01*
X162595808Y-103625095D01*
X162609645Y-103496494D01*
X162618396Y-103320627D01*
X162622822Y-103166469D01*
X162627276Y-102905101D01*
X162625712Y-102698931D01*
X162617067Y-102539690D01*
X162600277Y-102419109D01*
X162574275Y-102328918D01*
X162537998Y-102260851D01*
X162500484Y-102216389D01*
X162410411Y-102126316D01*
X161451631Y-102126316D01*
X161347683Y-102219132D01*
X161243735Y-102311947D01*
X161234902Y-102975084D01*
X161232302Y-103198559D01*
X161231715Y-103367799D01*
X160715090Y-103367799D01*
X160716593Y-103298221D01*
X160717756Y-103069828D01*
X160717839Y-103007138D01*
X160718547Y-102312396D01*
X160625506Y-102219356D01*
X160532466Y-102126316D01*
X159573686Y-102126316D01*
X159469738Y-102219194D01*
X159365790Y-102312071D01*
X158792857Y-102312071D01*
X158792857Y-102043519D01*
X158912929Y-101800530D01*
X159053522Y-101570395D01*
X159228412Y-101387490D01*
X159449073Y-101240402D01*
X159505076Y-101211630D01*
X159684085Y-101123684D01*
X162262281Y-101123684D01*
X162469173Y-101221928D01*
G36*
X156698795Y-101111484D02*
X156866243Y-101113446D01*
X156997081Y-101117218D01*
X157098068Y-101123017D01*
X157175965Y-101131058D01*
X157237532Y-101141558D01*
X157289530Y-101154732D01*
X157303183Y-101158895D01*
X157546107Y-101267449D01*
X157761530Y-101427124D01*
X157939635Y-101628052D01*
X158070606Y-101860366D01*
X158111082Y-101970990D01*
X158130149Y-102037239D01*
X158144919Y-102102839D01*
X158155820Y-102176470D01*
X158163281Y-102266811D01*
X158167729Y-102382544D01*
X158169594Y-102532349D01*
X158169303Y-102724906D01*
X158167286Y-102968896D01*
X158166067Y-103085025D01*
X158156266Y-103988346D01*
X158054868Y-104202392D01*
X157906919Y-104441888D01*
X157710609Y-104642239D01*
X157471852Y-104797573D01*
X157440100Y-104813160D01*
X157233208Y-104911403D01*
X156039599Y-104918100D01*
X155698063Y-104919360D01*
X155415221Y-104918878D01*
X155186130Y-104916530D01*
X155005845Y-104912190D01*
X154869423Y-104905736D01*
X154771920Y-104897042D01*
X154708391Y-104885985D01*
X154702757Y-104884476D01*
X154434621Y-104778204D01*
X154204694Y-104623677D01*
X154017653Y-104426084D01*
X153878180Y-104190612D01*
X153790952Y-103922446D01*
X153779475Y-103861028D01*
X153767760Y-103751073D01*
X153758911Y-103591014D01*
X153752912Y-103394340D01*
X153749751Y-103174540D01*
X153749414Y-102945104D01*
X153751887Y-102719520D01*
X153757158Y-102511279D01*
X153765212Y-102333870D01*
X153766958Y-102312396D01*
X154352632Y-102312396D01*
X154353340Y-103007138D01*
X154353919Y-103269543D01*
X154358599Y-103475218D01*
X154372688Y-103631082D01*
X154401495Y-103744053D01*
X154450328Y-103821049D01*
X154524495Y-103868989D01*
X154629304Y-103894791D01*
X154770065Y-103905373D01*
X154952085Y-103907653D01*
X155044423Y-103907804D01*
X155497492Y-103908772D01*
X155601440Y-103815962D01*
X155705389Y-103723153D01*
X155715375Y-103107754D01*
X155718622Y-102862763D01*
X155718710Y-102672687D01*
X155714568Y-102528818D01*
X155705123Y-102422446D01*
X155689303Y-102344863D01*
X155676167Y-102312396D01*
X156230577Y-102312396D01*
X156231705Y-102991223D01*
X156232522Y-103256118D01*
X156237440Y-103464226D01*
X156251631Y-103622409D01*
X156280267Y-103737530D01*
X156328520Y-103816453D01*
X156401563Y-103866040D01*
X156504568Y-103893154D01*
X156642706Y-103904657D01*
X156821151Y-103907414D01*
X156922368Y-103907644D01*
X157375437Y-103908772D01*
X157479385Y-103815959D01*
X157583334Y-103723146D01*
X157593203Y-103077747D01*
X157595301Y-102876753D01*
X157595383Y-102693576D01*
X157593589Y-102539224D01*
X157590060Y-102424702D01*
X157584938Y-102361017D01*
X157583958Y-102356193D01*
X157547397Y-102281790D01*
X157485133Y-102206208D01*
X157481910Y-102203177D01*
X157447669Y-102173932D01*
X157410996Y-102153234D01*
X157360878Y-102139608D01*
X157286302Y-102131578D01*
X157176254Y-102127672D01*
X157019720Y-102126413D01*
X156907816Y-102126316D01*
X156416657Y-102126316D01*
X156230577Y-102312396D01*
X155676167Y-102312396D01*
X155666036Y-102287358D01*
X155634250Y-102241224D01*
X155604787Y-102209457D01*
X155571410Y-102177910D01*
X155537327Y-102155562D01*
X155491577Y-102140828D01*
X155423204Y-102132121D01*
X155321250Y-102127857D01*
X155174757Y-102126450D01*
X155030179Y-102126316D01*
X154538712Y-102126316D01*
X154352632Y-102312396D01*
X153766958Y-102312396D01*
X153776036Y-102200782D01*
X153781175Y-102162748D01*
X153855489Y-101897536D01*
X153984976Y-101655086D01*
X154162596Y-101444677D01*
X154381309Y-101275590D01*
X154504839Y-101208989D01*
X154686842Y-101123684D01*
X155909183Y-101114293D01*
X156227026Y-101112123D01*
X156487976Y-101111115D01*
X156698795Y-101111484D01*
X156698795Y-101111484D01*
G37*
X156698795Y-101111484D02*
X156866243Y-101113446D01*
X156997081Y-101117218D01*
X157098068Y-101123017D01*
X157175965Y-101131058D01*
X157237532Y-101141558D01*
X157289530Y-101154732D01*
X157303183Y-101158895D01*
X157546107Y-101267449D01*
X157761530Y-101427124D01*
X157939635Y-101628052D01*
X158070606Y-101860366D01*
X158111082Y-101970990D01*
X158130149Y-102037239D01*
X158144919Y-102102839D01*
X158155820Y-102176470D01*
X158163281Y-102266811D01*
X158167729Y-102382544D01*
X158169594Y-102532349D01*
X158169303Y-102724906D01*
X158167286Y-102968896D01*
X158166067Y-103085025D01*
X158156266Y-103988346D01*
X158054868Y-104202392D01*
X157906919Y-104441888D01*
X157710609Y-104642239D01*
X157471852Y-104797573D01*
X157440100Y-104813160D01*
X157233208Y-104911403D01*
X156039599Y-104918100D01*
X155698063Y-104919360D01*
X155415221Y-104918878D01*
X155186130Y-104916530D01*
X155005845Y-104912190D01*
X154869423Y-104905736D01*
X154771920Y-104897042D01*
X154708391Y-104885985D01*
X154702757Y-104884476D01*
X154434621Y-104778204D01*
X154204694Y-104623677D01*
X154017653Y-104426084D01*
X153878180Y-104190612D01*
X153790952Y-103922446D01*
X153779475Y-103861028D01*
X153767760Y-103751073D01*
X153758911Y-103591014D01*
X153752912Y-103394340D01*
X153749751Y-103174540D01*
X153749414Y-102945104D01*
X153751887Y-102719520D01*
X153757158Y-102511279D01*
X153765212Y-102333870D01*
X153766958Y-102312396D01*
X154352632Y-102312396D01*
X154353340Y-103007138D01*
X154353919Y-103269543D01*
X154358599Y-103475218D01*
X154372688Y-103631082D01*
X154401495Y-103744053D01*
X154450328Y-103821049D01*
X154524495Y-103868989D01*
X154629304Y-103894791D01*
X154770065Y-103905373D01*
X154952085Y-103907653D01*
X155044423Y-103907804D01*
X155497492Y-103908772D01*
X155601440Y-103815962D01*
X155705389Y-103723153D01*
X155715375Y-103107754D01*
X155718622Y-102862763D01*
X155718710Y-102672687D01*
X155714568Y-102528818D01*
X155705123Y-102422446D01*
X155689303Y-102344863D01*
X155676167Y-102312396D01*
X156230577Y-102312396D01*
X156231705Y-102991223D01*
X156232522Y-103256118D01*
X156237440Y-103464226D01*
X156251631Y-103622409D01*
X156280267Y-103737530D01*
X156328520Y-103816453D01*
X156401563Y-103866040D01*
X156504568Y-103893154D01*
X156642706Y-103904657D01*
X156821151Y-103907414D01*
X156922368Y-103907644D01*
X157375437Y-103908772D01*
X157479385Y-103815959D01*
X157583334Y-103723146D01*
X157593203Y-103077747D01*
X157595301Y-102876753D01*
X157595383Y-102693576D01*
X157593589Y-102539224D01*
X157590060Y-102424702D01*
X157584938Y-102361017D01*
X157583958Y-102356193D01*
X157547397Y-102281790D01*
X157485133Y-102206208D01*
X157481910Y-102203177D01*
X157447669Y-102173932D01*
X157410996Y-102153234D01*
X157360878Y-102139608D01*
X157286302Y-102131578D01*
X157176254Y-102127672D01*
X157019720Y-102126413D01*
X156907816Y-102126316D01*
X156416657Y-102126316D01*
X156230577Y-102312396D01*
X155676167Y-102312396D01*
X155666036Y-102287358D01*
X155634250Y-102241224D01*
X155604787Y-102209457D01*
X155571410Y-102177910D01*
X155537327Y-102155562D01*
X155491577Y-102140828D01*
X155423204Y-102132121D01*
X155321250Y-102127857D01*
X155174757Y-102126450D01*
X155030179Y-102126316D01*
X154538712Y-102126316D01*
X154352632Y-102312396D01*
X153766958Y-102312396D01*
X153776036Y-102200782D01*
X153781175Y-102162748D01*
X153855489Y-101897536D01*
X153984976Y-101655086D01*
X154162596Y-101444677D01*
X154381309Y-101275590D01*
X154504839Y-101208989D01*
X154686842Y-101123684D01*
X155909183Y-101114293D01*
X156227026Y-101112123D01*
X156487976Y-101111115D01*
X156698795Y-101111484D01*
G36*
X181832923Y-105123647D02*
X182023224Y-105128858D01*
X182176994Y-105138366D01*
X182301014Y-105153065D01*
X182402065Y-105173851D01*
X182486928Y-105201619D01*
X182562384Y-105237265D01*
X182635214Y-105281684D01*
X182712200Y-105335771D01*
X182742893Y-105358264D01*
X182946287Y-105546854D01*
X183102468Y-105776786D01*
X183180773Y-105957021D01*
X183197673Y-106012143D01*
X183210939Y-106074806D01*
X183220995Y-106153084D01*
X183228265Y-106255054D01*
X183233173Y-106388791D01*
X183236143Y-106562370D01*
X183237601Y-106783866D01*
X183237970Y-107045691D01*
X183237970Y-107970455D01*
X183118104Y-108212933D01*
X182963379Y-108460179D01*
X182768767Y-108659087D01*
X182537313Y-108807202D01*
X182272062Y-108902067D01*
X182260529Y-108904780D01*
X182179807Y-108915403D01*
X182045707Y-108923853D01*
X181867760Y-108930192D01*
X181655497Y-108934485D01*
X181418451Y-108936795D01*
X181166152Y-108937185D01*
X180908133Y-108935720D01*
X180653925Y-108932461D01*
X180413060Y-108927474D01*
X180195070Y-108920820D01*
X180009485Y-108912565D01*
X179865839Y-108902770D01*
X179773662Y-108891501D01*
X179758501Y-108888123D01*
X179520342Y-108793477D01*
X179300190Y-108647842D01*
X179111006Y-108462620D01*
X178965751Y-108249210D01*
X178919353Y-108149956D01*
X178898299Y-108095626D01*
X178881677Y-108043376D01*
X178868965Y-107985147D01*
X178859640Y-107912880D01*
X178853177Y-107818516D01*
X178849054Y-107693994D01*
X178846747Y-107531255D01*
X178845734Y-107322239D01*
X178845636Y-107215955D01*
X179404898Y-107215955D01*
X179408545Y-107433833D01*
X179423790Y-107601327D01*
X179455333Y-107725056D01*
X179507875Y-107811640D01*
X179586117Y-107867696D01*
X179694761Y-107899844D01*
X179838506Y-107914702D01*
X180022054Y-107918890D01*
X180102757Y-107919060D01*
X180283172Y-107917883D01*
X180412544Y-107913372D01*
X180503463Y-107904062D01*
X180568518Y-107888485D01*
X180620300Y-107865175D01*
X180633949Y-107857176D01*
X180688562Y-107815810D01*
X180730266Y-107761254D01*
X180760707Y-107685112D01*
X180781533Y-107578985D01*
X180794389Y-107434478D01*
X180800923Y-107243192D01*
X180801128Y-107215955D01*
X181282842Y-107215955D01*
X181286490Y-107433833D01*
X181301735Y-107601327D01*
X181333278Y-107725056D01*
X181385820Y-107811640D01*
X181464062Y-107867696D01*
X181572705Y-107899844D01*
X181716451Y-107914702D01*
X181899999Y-107918890D01*
X181980702Y-107919060D01*
X182161058Y-107917887D01*
X182290380Y-107913387D01*
X182381270Y-107904090D01*
X182446325Y-107888526D01*
X182498145Y-107865224D01*
X182512114Y-107857042D01*
X182567589Y-107816140D01*
X182609991Y-107764182D01*
X182640788Y-107692965D01*
X182661447Y-107594287D01*
X182673435Y-107459943D01*
X182678220Y-107281731D01*
X182677269Y-107051448D01*
X182675613Y-106943033D01*
X182671675Y-106731426D01*
X182667429Y-106573904D01*
X182661657Y-106460900D01*
X182653141Y-106382846D01*
X182640662Y-106330176D01*
X182623002Y-106293321D01*
X182598942Y-106262715D01*
X182587370Y-106250204D01*
X182514945Y-106188919D01*
X182424619Y-106146244D01*
X182305661Y-106120011D01*
X182147339Y-106108051D01*
X181938922Y-106108195D01*
X181890944Y-106109466D01*
X181504477Y-106120927D01*
X181400421Y-106224909D01*
X181296366Y-106328891D01*
X181286091Y-106941074D01*
X181282842Y-107215955D01*
X180801128Y-107215955D01*
X180802781Y-106996732D01*
X180802781Y-106996241D01*
X180800802Y-106757943D01*
X180793158Y-106574279D01*
X180777471Y-106436308D01*
X180751364Y-106335089D01*
X180712460Y-106261682D01*
X180658381Y-106207147D01*
X180586750Y-106162542D01*
X180580201Y-106159140D01*
X180523716Y-106135122D01*
X180456800Y-106119473D01*
X180366411Y-106111024D01*
X180239511Y-106108607D01*
X180063062Y-106111053D01*
X180047632Y-106111396D01*
X179626467Y-106120927D01*
X179418421Y-106328891D01*
X179408146Y-106941074D01*
X179404898Y-107215955D01*
X178845636Y-107215955D01*
X178845491Y-107058888D01*
X178845489Y-107012155D01*
X178845489Y-106057268D01*
X178947125Y-105842713D01*
X179091928Y-105606086D01*
X179281736Y-105404245D01*
X179505056Y-105248993D01*
X179546146Y-105227777D01*
X179736717Y-105134210D01*
X180975023Y-105124835D01*
X181315603Y-105122530D01*
X181599310Y-105121836D01*
X181832923Y-105123647D01*
X181832923Y-105123647D01*
G37*
X181832923Y-105123647D02*
X182023224Y-105128858D01*
X182176994Y-105138366D01*
X182301014Y-105153065D01*
X182402065Y-105173851D01*
X182486928Y-105201619D01*
X182562384Y-105237265D01*
X182635214Y-105281684D01*
X182712200Y-105335771D01*
X182742893Y-105358264D01*
X182946287Y-105546854D01*
X183102468Y-105776786D01*
X183180773Y-105957021D01*
X183197673Y-106012143D01*
X183210939Y-106074806D01*
X183220995Y-106153084D01*
X183228265Y-106255054D01*
X183233173Y-106388791D01*
X183236143Y-106562370D01*
X183237601Y-106783866D01*
X183237970Y-107045691D01*
X183237970Y-107970455D01*
X183118104Y-108212933D01*
X182963379Y-108460179D01*
X182768767Y-108659087D01*
X182537313Y-108807202D01*
X182272062Y-108902067D01*
X182260529Y-108904780D01*
X182179807Y-108915403D01*
X182045707Y-108923853D01*
X181867760Y-108930192D01*
X181655497Y-108934485D01*
X181418451Y-108936795D01*
X181166152Y-108937185D01*
X180908133Y-108935720D01*
X180653925Y-108932461D01*
X180413060Y-108927474D01*
X180195070Y-108920820D01*
X180009485Y-108912565D01*
X179865839Y-108902770D01*
X179773662Y-108891501D01*
X179758501Y-108888123D01*
X179520342Y-108793477D01*
X179300190Y-108647842D01*
X179111006Y-108462620D01*
X178965751Y-108249210D01*
X178919353Y-108149956D01*
X178898299Y-108095626D01*
X178881677Y-108043376D01*
X178868965Y-107985147D01*
X178859640Y-107912880D01*
X178853177Y-107818516D01*
X178849054Y-107693994D01*
X178846747Y-107531255D01*
X178845734Y-107322239D01*
X178845636Y-107215955D01*
X179404898Y-107215955D01*
X179408545Y-107433833D01*
X179423790Y-107601327D01*
X179455333Y-107725056D01*
X179507875Y-107811640D01*
X179586117Y-107867696D01*
X179694761Y-107899844D01*
X179838506Y-107914702D01*
X180022054Y-107918890D01*
X180102757Y-107919060D01*
X180283172Y-107917883D01*
X180412544Y-107913372D01*
X180503463Y-107904062D01*
X180568518Y-107888485D01*
X180620300Y-107865175D01*
X180633949Y-107857176D01*
X180688562Y-107815810D01*
X180730266Y-107761254D01*
X180760707Y-107685112D01*
X180781533Y-107578985D01*
X180794389Y-107434478D01*
X180800923Y-107243192D01*
X180801128Y-107215955D01*
X181282842Y-107215955D01*
X181286490Y-107433833D01*
X181301735Y-107601327D01*
X181333278Y-107725056D01*
X181385820Y-107811640D01*
X181464062Y-107867696D01*
X181572705Y-107899844D01*
X181716451Y-107914702D01*
X181899999Y-107918890D01*
X181980702Y-107919060D01*
X182161058Y-107917887D01*
X182290380Y-107913387D01*
X182381270Y-107904090D01*
X182446325Y-107888526D01*
X182498145Y-107865224D01*
X182512114Y-107857042D01*
X182567589Y-107816140D01*
X182609991Y-107764182D01*
X182640788Y-107692965D01*
X182661447Y-107594287D01*
X182673435Y-107459943D01*
X182678220Y-107281731D01*
X182677269Y-107051448D01*
X182675613Y-106943033D01*
X182671675Y-106731426D01*
X182667429Y-106573904D01*
X182661657Y-106460900D01*
X182653141Y-106382846D01*
X182640662Y-106330176D01*
X182623002Y-106293321D01*
X182598942Y-106262715D01*
X182587370Y-106250204D01*
X182514945Y-106188919D01*
X182424619Y-106146244D01*
X182305661Y-106120011D01*
X182147339Y-106108051D01*
X181938922Y-106108195D01*
X181890944Y-106109466D01*
X181504477Y-106120927D01*
X181400421Y-106224909D01*
X181296366Y-106328891D01*
X181286091Y-106941074D01*
X181282842Y-107215955D01*
X180801128Y-107215955D01*
X180802781Y-106996732D01*
X180802781Y-106996241D01*
X180800802Y-106757943D01*
X180793158Y-106574279D01*
X180777471Y-106436308D01*
X180751364Y-106335089D01*
X180712460Y-106261682D01*
X180658381Y-106207147D01*
X180586750Y-106162542D01*
X180580201Y-106159140D01*
X180523716Y-106135122D01*
X180456800Y-106119473D01*
X180366411Y-106111024D01*
X180239511Y-106108607D01*
X180063062Y-106111053D01*
X180047632Y-106111396D01*
X179626467Y-106120927D01*
X179418421Y-106328891D01*
X179408146Y-106941074D01*
X179404898Y-107215955D01*
X178845636Y-107215955D01*
X178845491Y-107058888D01*
X178845489Y-107012155D01*
X178845489Y-106057268D01*
X178947125Y-105842713D01*
X179091928Y-105606086D01*
X179281736Y-105404245D01*
X179505056Y-105248993D01*
X179546146Y-105227777D01*
X179736717Y-105134210D01*
X180975023Y-105124835D01*
X181315603Y-105122530D01*
X181599310Y-105121836D01*
X181832923Y-105123647D01*
G36*
X177528597Y-105237379D02*
X177755349Y-105382551D01*
X177951040Y-105574570D01*
X178101649Y-105799156D01*
X178123592Y-105843435D01*
X178208897Y-106025439D01*
X178208897Y-107998872D01*
X178108595Y-108210579D01*
X177960749Y-108453397D01*
X177770361Y-108649049D01*
X177539193Y-108796081D01*
X177287110Y-108888445D01*
X177199716Y-108902254D01*
X177058529Y-108913869D01*
X176873379Y-108923271D01*
X176654095Y-108930443D01*
X176410507Y-108935367D01*
X176152444Y-108938026D01*
X175889735Y-108938401D01*
X175632210Y-108936475D01*
X175389699Y-108932230D01*
X175172030Y-108925649D01*
X174989033Y-108916712D01*
X174850537Y-108905404D01*
X174771303Y-108892996D01*
X174508712Y-108796833D01*
X174280862Y-108650080D01*
X174092884Y-108458502D01*
X173949913Y-108227866D01*
X173857080Y-107963935D01*
X173833580Y-107839724D01*
X173821068Y-107711340D01*
X173811831Y-107534112D01*
X173805878Y-107322770D01*
X173803223Y-107092047D01*
X173803424Y-107019631D01*
X174405263Y-107019631D01*
X174405263Y-107702857D01*
X174515791Y-107813384D01*
X174626318Y-107923912D01*
X175104004Y-107913647D01*
X175287791Y-107909362D01*
X175419193Y-107904383D01*
X175509471Y-107896752D01*
X175569885Y-107884509D01*
X175611698Y-107865696D01*
X175646170Y-107838352D01*
X175669855Y-107815196D01*
X175758020Y-107727009D01*
X175766836Y-107051287D01*
X175767097Y-107028209D01*
X176283208Y-107028209D01*
X176283208Y-107702857D01*
X176499649Y-107919298D01*
X177435439Y-107919298D01*
X177651880Y-107702857D01*
X177651761Y-107039210D01*
X177650342Y-106771234D01*
X177642880Y-106560128D01*
X177624409Y-106399116D01*
X177589963Y-106281418D01*
X177534574Y-106200256D01*
X177453277Y-106148851D01*
X177341105Y-106120425D01*
X177193090Y-106108199D01*
X177004268Y-106105395D01*
X176967544Y-106105367D01*
X176755615Y-106110491D01*
X176596741Y-106127532D01*
X176481016Y-106159002D01*
X176398538Y-106207407D01*
X176348239Y-106262234D01*
X176326546Y-106296596D01*
X176310281Y-106336493D01*
X176298669Y-106391051D01*
X176290935Y-106469400D01*
X176286303Y-106580668D01*
X176283999Y-106733985D01*
X176283248Y-106938479D01*
X176283208Y-107028209D01*
X175767097Y-107028209D01*
X175769395Y-106825119D01*
X175769955Y-106653341D01*
X175767870Y-106526701D01*
X175762498Y-106435942D01*
X175753196Y-106371811D01*
X175739318Y-106325055D01*
X175720223Y-106286418D01*
X175712789Y-106274071D01*
X175656380Y-106206606D01*
X175577316Y-106158697D01*
X175465652Y-106127652D01*
X175311439Y-106110779D01*
X175104732Y-106105385D01*
X175089599Y-106105367D01*
X174874796Y-106110844D01*
X174713193Y-106128813D01*
X174595149Y-106161583D01*
X174511024Y-106211461D01*
X174470370Y-106253634D01*
X174448801Y-106284705D01*
X174432591Y-106321580D01*
X174420980Y-106373204D01*
X174413208Y-106448521D01*
X174408515Y-106556475D01*
X174406141Y-106706010D01*
X174405325Y-106906071D01*
X174405263Y-107019631D01*
X173803424Y-107019631D01*
X173803877Y-106856674D01*
X173807850Y-106631381D01*
X173815155Y-106430900D01*
X173825804Y-106269962D01*
X173832304Y-106209552D01*
X173898624Y-105937662D01*
X174020595Y-105690506D01*
X174192497Y-105475892D01*
X174408615Y-105301623D01*
X174557470Y-105219516D01*
X174739474Y-105134210D01*
X177319056Y-105134210D01*
X177528597Y-105237379D01*
X177528597Y-105237379D01*
G37*
X177528597Y-105237379D02*
X177755349Y-105382551D01*
X177951040Y-105574570D01*
X178101649Y-105799156D01*
X178123592Y-105843435D01*
X178208897Y-106025439D01*
X178208897Y-107998872D01*
X178108595Y-108210579D01*
X177960749Y-108453397D01*
X177770361Y-108649049D01*
X177539193Y-108796081D01*
X177287110Y-108888445D01*
X177199716Y-108902254D01*
X177058529Y-108913869D01*
X176873379Y-108923271D01*
X176654095Y-108930443D01*
X176410507Y-108935367D01*
X176152444Y-108938026D01*
X175889735Y-108938401D01*
X175632210Y-108936475D01*
X175389699Y-108932230D01*
X175172030Y-108925649D01*
X174989033Y-108916712D01*
X174850537Y-108905404D01*
X174771303Y-108892996D01*
X174508712Y-108796833D01*
X174280862Y-108650080D01*
X174092884Y-108458502D01*
X173949913Y-108227866D01*
X173857080Y-107963935D01*
X173833580Y-107839724D01*
X173821068Y-107711340D01*
X173811831Y-107534112D01*
X173805878Y-107322770D01*
X173803223Y-107092047D01*
X173803424Y-107019631D01*
X174405263Y-107019631D01*
X174405263Y-107702857D01*
X174515791Y-107813384D01*
X174626318Y-107923912D01*
X175104004Y-107913647D01*
X175287791Y-107909362D01*
X175419193Y-107904383D01*
X175509471Y-107896752D01*
X175569885Y-107884509D01*
X175611698Y-107865696D01*
X175646170Y-107838352D01*
X175669855Y-107815196D01*
X175758020Y-107727009D01*
X175766836Y-107051287D01*
X175767097Y-107028209D01*
X176283208Y-107028209D01*
X176283208Y-107702857D01*
X176499649Y-107919298D01*
X177435439Y-107919298D01*
X177651880Y-107702857D01*
X177651761Y-107039210D01*
X177650342Y-106771234D01*
X177642880Y-106560128D01*
X177624409Y-106399116D01*
X177589963Y-106281418D01*
X177534574Y-106200256D01*
X177453277Y-106148851D01*
X177341105Y-106120425D01*
X177193090Y-106108199D01*
X177004268Y-106105395D01*
X176967544Y-106105367D01*
X176755615Y-106110491D01*
X176596741Y-106127532D01*
X176481016Y-106159002D01*
X176398538Y-106207407D01*
X176348239Y-106262234D01*
X176326546Y-106296596D01*
X176310281Y-106336493D01*
X176298669Y-106391051D01*
X176290935Y-106469400D01*
X176286303Y-106580668D01*
X176283999Y-106733985D01*
X176283248Y-106938479D01*
X176283208Y-107028209D01*
X175767097Y-107028209D01*
X175769395Y-106825119D01*
X175769955Y-106653341D01*
X175767870Y-106526701D01*
X175762498Y-106435942D01*
X175753196Y-106371811D01*
X175739318Y-106325055D01*
X175720223Y-106286418D01*
X175712789Y-106274071D01*
X175656380Y-106206606D01*
X175577316Y-106158697D01*
X175465652Y-106127652D01*
X175311439Y-106110779D01*
X175104732Y-106105385D01*
X175089599Y-106105367D01*
X174874796Y-106110844D01*
X174713193Y-106128813D01*
X174595149Y-106161583D01*
X174511024Y-106211461D01*
X174470370Y-106253634D01*
X174448801Y-106284705D01*
X174432591Y-106321580D01*
X174420980Y-106373204D01*
X174413208Y-106448521D01*
X174408515Y-106556475D01*
X174406141Y-106706010D01*
X174405325Y-106906071D01*
X174405263Y-107019631D01*
X173803424Y-107019631D01*
X173803877Y-106856674D01*
X173807850Y-106631381D01*
X173815155Y-106430900D01*
X173825804Y-106269962D01*
X173832304Y-106209552D01*
X173898624Y-105937662D01*
X174020595Y-105690506D01*
X174192497Y-105475892D01*
X174408615Y-105301623D01*
X174557470Y-105219516D01*
X174739474Y-105134210D01*
X177319056Y-105134210D01*
X177528597Y-105237379D01*
G36*
X171752810Y-105122232D02*
X171923525Y-105124295D01*
X172056842Y-105128147D01*
X172159324Y-105133986D01*
X172237534Y-105142005D01*
X172298034Y-105152401D01*
X172347389Y-105165369D01*
X172351143Y-105166552D01*
X172592968Y-105276115D01*
X172808944Y-105438572D01*
X172990230Y-105645470D01*
X173127981Y-105888358D01*
X173142569Y-105922973D01*
X173163509Y-105979403D01*
X173179868Y-106038750D01*
X173192363Y-106109931D01*
X173201713Y-106201867D01*
X173208634Y-106323474D01*
X173213844Y-106483673D01*
X173218061Y-106691382D01*
X173221244Y-106900752D01*
X173223835Y-107226925D01*
X173221684Y-107495091D01*
X173214830Y-107703693D01*
X173203313Y-107851173D01*
X173195458Y-107903383D01*
X173112680Y-108170017D01*
X172977332Y-108408172D01*
X172796260Y-108610713D01*
X172576315Y-108770505D01*
X172324345Y-108880414D01*
X172234213Y-108904780D01*
X172168953Y-108912464D01*
X172048095Y-108919339D01*
X171879699Y-108925210D01*
X171671823Y-108929878D01*
X171432527Y-108933148D01*
X171169867Y-108934821D01*
X170999499Y-108934972D01*
X170683272Y-108934015D01*
X170424120Y-108931812D01*
X170215466Y-108928112D01*
X170050733Y-108922668D01*
X169923344Y-108915229D01*
X169826722Y-108905549D01*
X169754292Y-108893377D01*
X169727088Y-108886819D01*
X169599101Y-108844362D01*
X169471951Y-108789724D01*
X169420986Y-108762737D01*
X169274218Y-108653624D01*
X169126807Y-108504931D01*
X168997022Y-108337863D01*
X168903132Y-108173624D01*
X168893037Y-108149956D01*
X168872000Y-108095674D01*
X168855388Y-108043470D01*
X168842679Y-107985294D01*
X168833352Y-107913098D01*
X168826885Y-107818830D01*
X168822755Y-107694442D01*
X168820442Y-107531883D01*
X168819423Y-107323104D01*
X168819323Y-107215791D01*
X169379585Y-107215791D01*
X169381159Y-107406783D01*
X169388559Y-107551159D01*
X169403375Y-107657414D01*
X169427197Y-107734042D01*
X169461614Y-107789537D01*
X169508217Y-107832392D01*
X169548717Y-107859285D01*
X169599100Y-107884418D01*
X169661452Y-107901533D01*
X169748311Y-107912068D01*
X169872210Y-107917463D01*
X170045686Y-107919156D01*
X170070576Y-107919179D01*
X170251187Y-107916495D01*
X170401766Y-107908887D01*
X170510758Y-107897185D01*
X170563935Y-107883743D01*
X170620223Y-107852524D01*
X170663332Y-107818168D01*
X170695028Y-107772257D01*
X170717076Y-107706375D01*
X170731240Y-107612103D01*
X170739288Y-107481023D01*
X170742983Y-107304718D01*
X170743410Y-107215955D01*
X171256527Y-107215955D01*
X171260175Y-107433833D01*
X171275419Y-107601327D01*
X171306962Y-107725056D01*
X171359504Y-107811640D01*
X171437746Y-107867696D01*
X171546390Y-107899844D01*
X171690135Y-107914702D01*
X171873683Y-107918890D01*
X171954386Y-107919060D01*
X172134801Y-107917883D01*
X172264173Y-107913372D01*
X172355092Y-107904062D01*
X172420148Y-107888485D01*
X172471929Y-107865175D01*
X172485578Y-107857176D01*
X172540191Y-107815810D01*
X172581895Y-107761254D01*
X172612336Y-107685112D01*
X172633162Y-107578985D01*
X172646018Y-107434478D01*
X172652552Y-107243192D01*
X172654410Y-106996732D01*
X172654410Y-106996241D01*
X172652431Y-106757943D01*
X172644787Y-106574279D01*
X172629100Y-106436308D01*
X172602993Y-106335089D01*
X172564089Y-106261682D01*
X172510010Y-106207147D01*
X172438379Y-106162542D01*
X172431830Y-106159140D01*
X172375346Y-106135122D01*
X172308429Y-106119473D01*
X172218040Y-106111024D01*
X172091141Y-106108607D01*
X171914691Y-106111053D01*
X171899261Y-106111396D01*
X171478096Y-106120927D01*
X171270050Y-106328891D01*
X171259775Y-106941074D01*
X171256527Y-107215955D01*
X170743410Y-107215955D01*
X170744091Y-107074770D01*
X170744155Y-107024405D01*
X170744053Y-106796832D01*
X170742718Y-106624006D01*
X170739402Y-106497017D01*
X170733360Y-106406953D01*
X170723843Y-106344905D01*
X170710105Y-106301963D01*
X170691398Y-106269215D01*
X170679496Y-106253304D01*
X170614323Y-106191163D01*
X170525859Y-106147578D01*
X170404595Y-106120574D01*
X170241022Y-106108178D01*
X170025631Y-106108416D01*
X169986683Y-106109466D01*
X169600216Y-106120927D01*
X169496161Y-106224913D01*
X169392105Y-106328898D01*
X169382249Y-106969689D01*
X169379585Y-107215791D01*
X168819323Y-107215791D01*
X168819176Y-107060055D01*
X168819173Y-107010472D01*
X168819173Y-106053901D01*
X168939245Y-105810985D01*
X169080063Y-105580629D01*
X169255288Y-105397542D01*
X169476324Y-105250386D01*
X169531483Y-105222076D01*
X169710401Y-105134210D01*
X170950642Y-105124828D01*
X171272932Y-105122694D01*
X171538133Y-105121763D01*
X171752810Y-105122232D01*
X171752810Y-105122232D01*
G37*
X171752810Y-105122232D02*
X171923525Y-105124295D01*
X172056842Y-105128147D01*
X172159324Y-105133986D01*
X172237534Y-105142005D01*
X172298034Y-105152401D01*
X172347389Y-105165369D01*
X172351143Y-105166552D01*
X172592968Y-105276115D01*
X172808944Y-105438572D01*
X172990230Y-105645470D01*
X173127981Y-105888358D01*
X173142569Y-105922973D01*
X173163509Y-105979403D01*
X173179868Y-106038750D01*
X173192363Y-106109931D01*
X173201713Y-106201867D01*
X173208634Y-106323474D01*
X173213844Y-106483673D01*
X173218061Y-106691382D01*
X173221244Y-106900752D01*
X173223835Y-107226925D01*
X173221684Y-107495091D01*
X173214830Y-107703693D01*
X173203313Y-107851173D01*
X173195458Y-107903383D01*
X173112680Y-108170017D01*
X172977332Y-108408172D01*
X172796260Y-108610713D01*
X172576315Y-108770505D01*
X172324345Y-108880414D01*
X172234213Y-108904780D01*
X172168953Y-108912464D01*
X172048095Y-108919339D01*
X171879699Y-108925210D01*
X171671823Y-108929878D01*
X171432527Y-108933148D01*
X171169867Y-108934821D01*
X170999499Y-108934972D01*
X170683272Y-108934015D01*
X170424120Y-108931812D01*
X170215466Y-108928112D01*
X170050733Y-108922668D01*
X169923344Y-108915229D01*
X169826722Y-108905549D01*
X169754292Y-108893377D01*
X169727088Y-108886819D01*
X169599101Y-108844362D01*
X169471951Y-108789724D01*
X169420986Y-108762737D01*
X169274218Y-108653624D01*
X169126807Y-108504931D01*
X168997022Y-108337863D01*
X168903132Y-108173624D01*
X168893037Y-108149956D01*
X168872000Y-108095674D01*
X168855388Y-108043470D01*
X168842679Y-107985294D01*
X168833352Y-107913098D01*
X168826885Y-107818830D01*
X168822755Y-107694442D01*
X168820442Y-107531883D01*
X168819423Y-107323104D01*
X168819323Y-107215791D01*
X169379585Y-107215791D01*
X169381159Y-107406783D01*
X169388559Y-107551159D01*
X169403375Y-107657414D01*
X169427197Y-107734042D01*
X169461614Y-107789537D01*
X169508217Y-107832392D01*
X169548717Y-107859285D01*
X169599100Y-107884418D01*
X169661452Y-107901533D01*
X169748311Y-107912068D01*
X169872210Y-107917463D01*
X170045686Y-107919156D01*
X170070576Y-107919179D01*
X170251187Y-107916495D01*
X170401766Y-107908887D01*
X170510758Y-107897185D01*
X170563935Y-107883743D01*
X170620223Y-107852524D01*
X170663332Y-107818168D01*
X170695028Y-107772257D01*
X170717076Y-107706375D01*
X170731240Y-107612103D01*
X170739288Y-107481023D01*
X170742983Y-107304718D01*
X170743410Y-107215955D01*
X171256527Y-107215955D01*
X171260175Y-107433833D01*
X171275419Y-107601327D01*
X171306962Y-107725056D01*
X171359504Y-107811640D01*
X171437746Y-107867696D01*
X171546390Y-107899844D01*
X171690135Y-107914702D01*
X171873683Y-107918890D01*
X171954386Y-107919060D01*
X172134801Y-107917883D01*
X172264173Y-107913372D01*
X172355092Y-107904062D01*
X172420148Y-107888485D01*
X172471929Y-107865175D01*
X172485578Y-107857176D01*
X172540191Y-107815810D01*
X172581895Y-107761254D01*
X172612336Y-107685112D01*
X172633162Y-107578985D01*
X172646018Y-107434478D01*
X172652552Y-107243192D01*
X172654410Y-106996732D01*
X172654410Y-106996241D01*
X172652431Y-106757943D01*
X172644787Y-106574279D01*
X172629100Y-106436308D01*
X172602993Y-106335089D01*
X172564089Y-106261682D01*
X172510010Y-106207147D01*
X172438379Y-106162542D01*
X172431830Y-106159140D01*
X172375346Y-106135122D01*
X172308429Y-106119473D01*
X172218040Y-106111024D01*
X172091141Y-106108607D01*
X171914691Y-106111053D01*
X171899261Y-106111396D01*
X171478096Y-106120927D01*
X171270050Y-106328891D01*
X171259775Y-106941074D01*
X171256527Y-107215955D01*
X170743410Y-107215955D01*
X170744091Y-107074770D01*
X170744155Y-107024405D01*
X170744053Y-106796832D01*
X170742718Y-106624006D01*
X170739402Y-106497017D01*
X170733360Y-106406953D01*
X170723843Y-106344905D01*
X170710105Y-106301963D01*
X170691398Y-106269215D01*
X170679496Y-106253304D01*
X170614323Y-106191163D01*
X170525859Y-106147578D01*
X170404595Y-106120574D01*
X170241022Y-106108178D01*
X170025631Y-106108416D01*
X169986683Y-106109466D01*
X169600216Y-106120927D01*
X169496161Y-106224913D01*
X169392105Y-106328898D01*
X169382249Y-106969689D01*
X169379585Y-107215791D01*
X168819323Y-107215791D01*
X168819176Y-107060055D01*
X168819173Y-107010472D01*
X168819173Y-106053901D01*
X168939245Y-105810985D01*
X169080063Y-105580629D01*
X169255288Y-105397542D01*
X169476324Y-105250386D01*
X169531483Y-105222076D01*
X169710401Y-105134210D01*
X170950642Y-105124828D01*
X171272932Y-105122694D01*
X171538133Y-105121763D01*
X171752810Y-105122232D01*
G36*
X167502281Y-105237379D02*
X167729033Y-105382551D01*
X167924724Y-105574570D01*
X168075333Y-105799156D01*
X168097277Y-105843435D01*
X168182582Y-106025439D01*
X168182582Y-107998872D01*
X168083992Y-108205764D01*
X167934620Y-108450712D01*
X167743459Y-108647926D01*
X167512402Y-108795837D01*
X167260794Y-108888445D01*
X167174178Y-108902146D01*
X167034242Y-108913688D01*
X166850636Y-108923057D01*
X166633010Y-108930238D01*
X166391013Y-108935217D01*
X166134296Y-108937979D01*
X165872508Y-108938510D01*
X165615300Y-108936794D01*
X165372321Y-108932816D01*
X165153222Y-108926563D01*
X164967652Y-108918020D01*
X164825261Y-108907171D01*
X164735699Y-108894003D01*
X164729073Y-108892297D01*
X164466558Y-108788068D01*
X164238624Y-108634447D01*
X164051204Y-108438113D01*
X163910230Y-108205747D01*
X163821633Y-107944028D01*
X163804773Y-107851469D01*
X163793264Y-107732075D01*
X163784738Y-107563259D01*
X163779179Y-107359186D01*
X163776571Y-107134023D01*
X163776756Y-107001825D01*
X164378948Y-107001825D01*
X164380661Y-107239393D01*
X164385587Y-107439032D01*
X164393408Y-107593901D01*
X164403805Y-107697162D01*
X164413196Y-107736833D01*
X164451002Y-107803376D01*
X164501151Y-107851686D01*
X164573307Y-107884272D01*
X164677130Y-107903645D01*
X164822283Y-107912314D01*
X165018426Y-107912789D01*
X165086521Y-107911747D01*
X165268344Y-107908159D01*
X165397917Y-107903633D01*
X165486639Y-107896192D01*
X165545912Y-107883860D01*
X165587136Y-107864661D01*
X165621711Y-107836620D01*
X165643539Y-107815196D01*
X165731704Y-107727009D01*
X165740520Y-107051287D01*
X165740878Y-107019631D01*
X166256892Y-107019631D01*
X166256892Y-107702857D01*
X166367420Y-107813384D01*
X166477947Y-107923912D01*
X166955633Y-107913647D01*
X167139420Y-107909362D01*
X167270822Y-107904383D01*
X167361100Y-107896752D01*
X167421515Y-107884509D01*
X167463327Y-107865696D01*
X167497799Y-107838352D01*
X167521484Y-107815196D01*
X167609649Y-107727009D01*
X167618465Y-107051287D01*
X167621024Y-106825119D01*
X167621584Y-106653341D01*
X167619499Y-106526701D01*
X167614127Y-106435942D01*
X167604825Y-106371811D01*
X167590947Y-106325055D01*
X167571852Y-106286418D01*
X167564419Y-106274071D01*
X167508009Y-106206606D01*
X167428945Y-106158697D01*
X167317281Y-106127652D01*
X167163068Y-106110779D01*
X166956361Y-106105385D01*
X166941228Y-106105367D01*
X166726425Y-106110844D01*
X166564822Y-106128813D01*
X166446778Y-106161583D01*
X166362653Y-106211461D01*
X166321999Y-106253634D01*
X166300430Y-106284705D01*
X166284220Y-106321580D01*
X166272609Y-106373204D01*
X166264837Y-106448521D01*
X166260144Y-106556475D01*
X166257770Y-106706010D01*
X166256954Y-106906071D01*
X166256892Y-107019631D01*
X165740878Y-107019631D01*
X165743080Y-106825119D01*
X165743639Y-106653341D01*
X165741555Y-106526701D01*
X165736183Y-106435942D01*
X165726880Y-106371811D01*
X165713002Y-106325055D01*
X165693907Y-106286418D01*
X165686474Y-106274071D01*
X165590940Y-106177200D01*
X165502596Y-106138973D01*
X165397188Y-106120451D01*
X165253105Y-106109257D01*
X165088157Y-106105185D01*
X164920155Y-106108034D01*
X164766907Y-106117601D01*
X164646225Y-106133681D01*
X164588977Y-106149395D01*
X164522943Y-106179674D01*
X164472413Y-106213876D01*
X164435318Y-106260397D01*
X164409590Y-106327638D01*
X164393159Y-106423995D01*
X164383955Y-106557867D01*
X164379909Y-106737653D01*
X164378953Y-106971751D01*
X164378948Y-107001825D01*
X163776756Y-107001825D01*
X163776897Y-106901934D01*
X163780143Y-106677087D01*
X163786291Y-106473647D01*
X163795327Y-106305780D01*
X163806644Y-106191639D01*
X163876149Y-105924548D01*
X164000438Y-105680385D01*
X164172670Y-105468407D01*
X164386004Y-105297874D01*
X164522181Y-105223318D01*
X164713158Y-105134210D01*
X167292740Y-105134210D01*
X167502281Y-105237379D01*
X167502281Y-105237379D01*
G37*
X167502281Y-105237379D02*
X167729033Y-105382551D01*
X167924724Y-105574570D01*
X168075333Y-105799156D01*
X168097277Y-105843435D01*
X168182582Y-106025439D01*
X168182582Y-107998872D01*
X168083992Y-108205764D01*
X167934620Y-108450712D01*
X167743459Y-108647926D01*
X167512402Y-108795837D01*
X167260794Y-108888445D01*
X167174178Y-108902146D01*
X167034242Y-108913688D01*
X166850636Y-108923057D01*
X166633010Y-108930238D01*
X166391013Y-108935217D01*
X166134296Y-108937979D01*
X165872508Y-108938510D01*
X165615300Y-108936794D01*
X165372321Y-108932816D01*
X165153222Y-108926563D01*
X164967652Y-108918020D01*
X164825261Y-108907171D01*
X164735699Y-108894003D01*
X164729073Y-108892297D01*
X164466558Y-108788068D01*
X164238624Y-108634447D01*
X164051204Y-108438113D01*
X163910230Y-108205747D01*
X163821633Y-107944028D01*
X163804773Y-107851469D01*
X163793264Y-107732075D01*
X163784738Y-107563259D01*
X163779179Y-107359186D01*
X163776571Y-107134023D01*
X163776756Y-107001825D01*
X164378948Y-107001825D01*
X164380661Y-107239393D01*
X164385587Y-107439032D01*
X164393408Y-107593901D01*
X164403805Y-107697162D01*
X164413196Y-107736833D01*
X164451002Y-107803376D01*
X164501151Y-107851686D01*
X164573307Y-107884272D01*
X164677130Y-107903645D01*
X164822283Y-107912314D01*
X165018426Y-107912789D01*
X165086521Y-107911747D01*
X165268344Y-107908159D01*
X165397917Y-107903633D01*
X165486639Y-107896192D01*
X165545912Y-107883860D01*
X165587136Y-107864661D01*
X165621711Y-107836620D01*
X165643539Y-107815196D01*
X165731704Y-107727009D01*
X165740520Y-107051287D01*
X165740878Y-107019631D01*
X166256892Y-107019631D01*
X166256892Y-107702857D01*
X166367420Y-107813384D01*
X166477947Y-107923912D01*
X166955633Y-107913647D01*
X167139420Y-107909362D01*
X167270822Y-107904383D01*
X167361100Y-107896752D01*
X167421515Y-107884509D01*
X167463327Y-107865696D01*
X167497799Y-107838352D01*
X167521484Y-107815196D01*
X167609649Y-107727009D01*
X167618465Y-107051287D01*
X167621024Y-106825119D01*
X167621584Y-106653341D01*
X167619499Y-106526701D01*
X167614127Y-106435942D01*
X167604825Y-106371811D01*
X167590947Y-106325055D01*
X167571852Y-106286418D01*
X167564419Y-106274071D01*
X167508009Y-106206606D01*
X167428945Y-106158697D01*
X167317281Y-106127652D01*
X167163068Y-106110779D01*
X166956361Y-106105385D01*
X166941228Y-106105367D01*
X166726425Y-106110844D01*
X166564822Y-106128813D01*
X166446778Y-106161583D01*
X166362653Y-106211461D01*
X166321999Y-106253634D01*
X166300430Y-106284705D01*
X166284220Y-106321580D01*
X166272609Y-106373204D01*
X166264837Y-106448521D01*
X166260144Y-106556475D01*
X166257770Y-106706010D01*
X166256954Y-106906071D01*
X166256892Y-107019631D01*
X165740878Y-107019631D01*
X165743080Y-106825119D01*
X165743639Y-106653341D01*
X165741555Y-106526701D01*
X165736183Y-106435942D01*
X165726880Y-106371811D01*
X165713002Y-106325055D01*
X165693907Y-106286418D01*
X165686474Y-106274071D01*
X165590940Y-106177200D01*
X165502596Y-106138973D01*
X165397188Y-106120451D01*
X165253105Y-106109257D01*
X165088157Y-106105185D01*
X164920155Y-106108034D01*
X164766907Y-106117601D01*
X164646225Y-106133681D01*
X164588977Y-106149395D01*
X164522943Y-106179674D01*
X164472413Y-106213876D01*
X164435318Y-106260397D01*
X164409590Y-106327638D01*
X164393159Y-106423995D01*
X164383955Y-106557867D01*
X164379909Y-106737653D01*
X164378953Y-106971751D01*
X164378948Y-107001825D01*
X163776756Y-107001825D01*
X163776897Y-106901934D01*
X163780143Y-106677087D01*
X163786291Y-106473647D01*
X163795327Y-106305780D01*
X163806644Y-106191639D01*
X163876149Y-105924548D01*
X164000438Y-105680385D01*
X164172670Y-105468407D01*
X164386004Y-105297874D01*
X164522181Y-105223318D01*
X164713158Y-105134210D01*
X167292740Y-105134210D01*
X167502281Y-105237379D01*
G36*
X161726494Y-105122232D02*
X161897210Y-105124295D01*
X162030526Y-105128147D01*
X162133008Y-105133986D01*
X162211218Y-105142005D01*
X162271719Y-105152401D01*
X162321074Y-105165369D01*
X162324827Y-105166552D01*
X162566527Y-105276055D01*
X162782395Y-105438346D01*
X162963434Y-105644822D01*
X163100647Y-105886879D01*
X163115789Y-105922973D01*
X163136546Y-105979451D01*
X163152795Y-106039211D01*
X163165250Y-106111129D01*
X163174621Y-106204081D01*
X163181621Y-106326941D01*
X163186962Y-106488585D01*
X163191355Y-106697888D01*
X163194677Y-106906357D01*
X163197940Y-107198355D01*
X163197520Y-107435824D01*
X163192379Y-107627838D01*
X163181477Y-107783471D01*
X163163778Y-107911797D01*
X163138243Y-108021892D01*
X163103833Y-108122830D01*
X163059510Y-108223685D01*
X163039200Y-108265182D01*
X162894809Y-108483518D01*
X162697536Y-108668641D01*
X162450470Y-108817671D01*
X162443060Y-108821204D01*
X162230451Y-108921930D01*
X161052757Y-108928689D01*
X160732076Y-108930098D01*
X160468418Y-108930155D01*
X160255155Y-108928661D01*
X160085662Y-108925414D01*
X159953312Y-108920214D01*
X159851480Y-108912860D01*
X159773537Y-108903151D01*
X159712859Y-108890886D01*
X159700772Y-108887716D01*
X159573661Y-108845169D01*
X159448045Y-108791122D01*
X159397296Y-108764275D01*
X159248408Y-108653950D01*
X159098842Y-108503719D01*
X158967104Y-108334378D01*
X158878162Y-108180876D01*
X158792857Y-107998872D01*
X158782755Y-107089135D01*
X158782131Y-107027817D01*
X159349993Y-107027817D01*
X159349994Y-107032880D01*
X159350553Y-107248739D01*
X159352721Y-107410824D01*
X159357372Y-107529019D01*
X159365382Y-107613206D01*
X159377629Y-107673267D01*
X159394988Y-107719085D01*
X159413854Y-107753293D01*
X159474661Y-107830361D01*
X159540368Y-107882553D01*
X159549011Y-107886551D01*
X159615484Y-107899941D01*
X159728404Y-107909441D01*
X159872554Y-107915096D01*
X160032712Y-107916948D01*
X160193661Y-107915041D01*
X160340182Y-107909418D01*
X160457054Y-107900122D01*
X160529060Y-107887197D01*
X160537619Y-107883743D01*
X160593907Y-107852524D01*
X160637017Y-107818168D01*
X160668712Y-107772257D01*
X160690760Y-107706375D01*
X160704925Y-107612103D01*
X160712972Y-107481023D01*
X160716667Y-107304718D01*
X160717095Y-107215791D01*
X161231214Y-107215791D01*
X161232788Y-107406783D01*
X161240188Y-107551159D01*
X161255004Y-107657414D01*
X161278826Y-107734042D01*
X161313244Y-107789537D01*
X161359846Y-107832392D01*
X161400346Y-107859285D01*
X161451001Y-107884526D01*
X161513728Y-107901677D01*
X161601136Y-107912196D01*
X161725837Y-107917540D01*
X161900441Y-107919166D01*
X161918615Y-107919179D01*
X162103234Y-107916317D01*
X162256907Y-107908182D01*
X162368068Y-107895619D01*
X162419485Y-107882563D01*
X162482298Y-107849068D01*
X162530006Y-107807519D01*
X162564871Y-107749110D01*
X162589157Y-107665032D01*
X162605126Y-107546478D01*
X162615040Y-107384639D01*
X162621163Y-107170708D01*
X162622658Y-107091729D01*
X162625131Y-106841249D01*
X162621628Y-106645637D01*
X162610586Y-106496256D01*
X162590437Y-106384469D01*
X162559618Y-106301637D01*
X162516562Y-106239124D01*
X162459705Y-106188291D01*
X162458810Y-106187627D01*
X162417760Y-106161175D01*
X162370234Y-106142765D01*
X162304469Y-106130967D01*
X162208704Y-106124349D01*
X162071176Y-106121483D01*
X161910331Y-106120927D01*
X161451788Y-106120927D01*
X161347761Y-106224913D01*
X161243735Y-106328898D01*
X161233878Y-106969689D01*
X161231214Y-107215791D01*
X160717095Y-107215791D01*
X160717775Y-107074770D01*
X160717839Y-107024405D01*
X160717737Y-106796832D01*
X160716402Y-106624006D01*
X160713087Y-106497017D01*
X160707044Y-106406953D01*
X160697527Y-106344905D01*
X160683789Y-106301963D01*
X160665082Y-106269215D01*
X160653180Y-106253304D01*
X160587073Y-106190469D01*
X160497270Y-106146684D01*
X160374231Y-106119960D01*
X160208417Y-106108309D01*
X159990287Y-106109744D01*
X159967716Y-106110448D01*
X159787623Y-106118231D01*
X159646423Y-106133083D01*
X159539388Y-106162062D01*
X159461792Y-106212225D01*
X159408911Y-106290630D01*
X159376016Y-106404334D01*
X159358382Y-106560395D01*
X159351283Y-106765870D01*
X159349993Y-107027817D01*
X158782131Y-107027817D01*
X158780036Y-106822259D01*
X158778777Y-106610509D01*
X158779422Y-106445357D01*
X158782414Y-106318279D01*
X158788197Y-106220748D01*
X158797215Y-106144238D01*
X158809911Y-106080224D01*
X158826729Y-106020179D01*
X158840586Y-105977739D01*
X158961070Y-105712157D01*
X159128832Y-105488903D01*
X159342679Y-105309316D01*
X159527473Y-105206436D01*
X159568844Y-105188148D01*
X159610330Y-105173179D01*
X159658585Y-105161138D01*
X159720265Y-105151638D01*
X159802027Y-105144289D01*
X159910525Y-105138703D01*
X160052416Y-105134490D01*
X160234355Y-105131263D01*
X160462998Y-105128631D01*
X160745001Y-105126207D01*
X160924326Y-105124828D01*
X161246616Y-105122694D01*
X161511817Y-105121763D01*
X161726494Y-105122232D01*
X161726494Y-105122232D01*
G37*
X161726494Y-105122232D02*
X161897210Y-105124295D01*
X162030526Y-105128147D01*
X162133008Y-105133986D01*
X162211218Y-105142005D01*
X162271719Y-105152401D01*
X162321074Y-105165369D01*
X162324827Y-105166552D01*
X162566527Y-105276055D01*
X162782395Y-105438346D01*
X162963434Y-105644822D01*
X163100647Y-105886879D01*
X163115789Y-105922973D01*
X163136546Y-105979451D01*
X163152795Y-106039211D01*
X163165250Y-106111129D01*
X163174621Y-106204081D01*
X163181621Y-106326941D01*
X163186962Y-106488585D01*
X163191355Y-106697888D01*
X163194677Y-106906357D01*
X163197940Y-107198355D01*
X163197520Y-107435824D01*
X163192379Y-107627838D01*
X163181477Y-107783471D01*
X163163778Y-107911797D01*
X163138243Y-108021892D01*
X163103833Y-108122830D01*
X163059510Y-108223685D01*
X163039200Y-108265182D01*
X162894809Y-108483518D01*
X162697536Y-108668641D01*
X162450470Y-108817671D01*
X162443060Y-108821204D01*
X162230451Y-108921930D01*
X161052757Y-108928689D01*
X160732076Y-108930098D01*
X160468418Y-108930155D01*
X160255155Y-108928661D01*
X160085662Y-108925414D01*
X159953312Y-108920214D01*
X159851480Y-108912860D01*
X159773537Y-108903151D01*
X159712859Y-108890886D01*
X159700772Y-108887716D01*
X159573661Y-108845169D01*
X159448045Y-108791122D01*
X159397296Y-108764275D01*
X159248408Y-108653950D01*
X159098842Y-108503719D01*
X158967104Y-108334378D01*
X158878162Y-108180876D01*
X158792857Y-107998872D01*
X158782755Y-107089135D01*
X158782131Y-107027817D01*
X159349993Y-107027817D01*
X159349994Y-107032880D01*
X159350553Y-107248739D01*
X159352721Y-107410824D01*
X159357372Y-107529019D01*
X159365382Y-107613206D01*
X159377629Y-107673267D01*
X159394988Y-107719085D01*
X159413854Y-107753293D01*
X159474661Y-107830361D01*
X159540368Y-107882553D01*
X159549011Y-107886551D01*
X159615484Y-107899941D01*
X159728404Y-107909441D01*
X159872554Y-107915096D01*
X160032712Y-107916948D01*
X160193661Y-107915041D01*
X160340182Y-107909418D01*
X160457054Y-107900122D01*
X160529060Y-107887197D01*
X160537619Y-107883743D01*
X160593907Y-107852524D01*
X160637017Y-107818168D01*
X160668712Y-107772257D01*
X160690760Y-107706375D01*
X160704925Y-107612103D01*
X160712972Y-107481023D01*
X160716667Y-107304718D01*
X160717095Y-107215791D01*
X161231214Y-107215791D01*
X161232788Y-107406783D01*
X161240188Y-107551159D01*
X161255004Y-107657414D01*
X161278826Y-107734042D01*
X161313244Y-107789537D01*
X161359846Y-107832392D01*
X161400346Y-107859285D01*
X161451001Y-107884526D01*
X161513728Y-107901677D01*
X161601136Y-107912196D01*
X161725837Y-107917540D01*
X161900441Y-107919166D01*
X161918615Y-107919179D01*
X162103234Y-107916317D01*
X162256907Y-107908182D01*
X162368068Y-107895619D01*
X162419485Y-107882563D01*
X162482298Y-107849068D01*
X162530006Y-107807519D01*
X162564871Y-107749110D01*
X162589157Y-107665032D01*
X162605126Y-107546478D01*
X162615040Y-107384639D01*
X162621163Y-107170708D01*
X162622658Y-107091729D01*
X162625131Y-106841249D01*
X162621628Y-106645637D01*
X162610586Y-106496256D01*
X162590437Y-106384469D01*
X162559618Y-106301637D01*
X162516562Y-106239124D01*
X162459705Y-106188291D01*
X162458810Y-106187627D01*
X162417760Y-106161175D01*
X162370234Y-106142765D01*
X162304469Y-106130967D01*
X162208704Y-106124349D01*
X162071176Y-106121483D01*
X161910331Y-106120927D01*
X161451788Y-106120927D01*
X161347761Y-106224913D01*
X161243735Y-106328898D01*
X161233878Y-106969689D01*
X161231214Y-107215791D01*
X160717095Y-107215791D01*
X160717775Y-107074770D01*
X160717839Y-107024405D01*
X160717737Y-106796832D01*
X160716402Y-106624006D01*
X160713087Y-106497017D01*
X160707044Y-106406953D01*
X160697527Y-106344905D01*
X160683789Y-106301963D01*
X160665082Y-106269215D01*
X160653180Y-106253304D01*
X160587073Y-106190469D01*
X160497270Y-106146684D01*
X160374231Y-106119960D01*
X160208417Y-106108309D01*
X159990287Y-106109744D01*
X159967716Y-106110448D01*
X159787623Y-106118231D01*
X159646423Y-106133083D01*
X159539388Y-106162062D01*
X159461792Y-106212225D01*
X159408911Y-106290630D01*
X159376016Y-106404334D01*
X159358382Y-106560395D01*
X159351283Y-106765870D01*
X159349993Y-107027817D01*
X158782131Y-107027817D01*
X158780036Y-106822259D01*
X158778777Y-106610509D01*
X158779422Y-106445357D01*
X158782414Y-106318279D01*
X158788197Y-106220748D01*
X158797215Y-106144238D01*
X158809911Y-106080224D01*
X158826729Y-106020179D01*
X158840586Y-105977739D01*
X158961070Y-105712157D01*
X159128832Y-105488903D01*
X159342679Y-105309316D01*
X159527473Y-105206436D01*
X159568844Y-105188148D01*
X159610330Y-105173179D01*
X159658585Y-105161138D01*
X159720265Y-105151638D01*
X159802027Y-105144289D01*
X159910525Y-105138703D01*
X160052416Y-105134490D01*
X160234355Y-105131263D01*
X160462998Y-105128631D01*
X160745001Y-105126207D01*
X160924326Y-105124828D01*
X161246616Y-105122694D01*
X161511817Y-105121763D01*
X161726494Y-105122232D01*
G36*
X157478506Y-105238630D02*
X157706237Y-105385464D01*
X157901572Y-105582962D01*
X158056664Y-105823054D01*
X158067293Y-105844258D01*
X158156266Y-106025439D01*
X158156266Y-107998872D01*
X158056792Y-108205764D01*
X157924603Y-108421425D01*
X157752567Y-108612730D01*
X157558104Y-108760422D01*
X157551504Y-108764331D01*
X157471730Y-108808265D01*
X157391906Y-108844152D01*
X157304794Y-108872772D01*
X157203153Y-108894901D01*
X157079745Y-108911317D01*
X156927331Y-108922798D01*
X156738670Y-108930121D01*
X156506525Y-108934063D01*
X156223655Y-108935404D01*
X155961295Y-108935138D01*
X155599564Y-108933040D01*
X155300155Y-108928684D01*
X155061774Y-108922026D01*
X154883121Y-108913023D01*
X154762902Y-108901632D01*
X154718672Y-108893729D01*
X154458172Y-108799064D01*
X154230173Y-108653011D01*
X154040571Y-108462016D01*
X153895258Y-108232523D01*
X153800130Y-107970975D01*
X153778582Y-107865849D01*
X153767122Y-107758292D01*
X153758476Y-107601512D01*
X153752611Y-107408482D01*
X153749496Y-107192174D01*
X153749160Y-106999035D01*
X154352632Y-106999035D01*
X154354338Y-107237364D01*
X154359247Y-107437594D01*
X154367044Y-107592942D01*
X154377414Y-107696628D01*
X154386880Y-107736833D01*
X154427195Y-107804907D01*
X154483223Y-107853984D01*
X154564952Y-107886971D01*
X154682365Y-107906771D01*
X154845448Y-107916292D01*
X155011023Y-107918451D01*
X155175386Y-107916465D01*
X155322931Y-107910432D01*
X155438682Y-107901253D01*
X155507665Y-107889829D01*
X155512325Y-107888262D01*
X155583660Y-107840294D01*
X155650557Y-107763850D01*
X155657511Y-107752986D01*
X155679446Y-107712091D01*
X155695702Y-107665122D01*
X155707117Y-107602366D01*
X155714533Y-107514113D01*
X155718790Y-107390650D01*
X155720727Y-107222267D01*
X155721173Y-107022421D01*
X156230577Y-107022421D01*
X156230577Y-107702857D01*
X156341104Y-107813384D01*
X156451631Y-107923912D01*
X156929317Y-107913647D01*
X157113104Y-107909362D01*
X157244506Y-107904383D01*
X157334784Y-107896752D01*
X157395199Y-107884509D01*
X157437012Y-107865696D01*
X157471484Y-107838352D01*
X157495168Y-107815196D01*
X157583334Y-107727009D01*
X157592149Y-107051287D01*
X157594709Y-106825119D01*
X157595268Y-106653341D01*
X157593184Y-106526701D01*
X157587812Y-106435942D01*
X157578509Y-106371811D01*
X157564632Y-106325055D01*
X157545536Y-106286418D01*
X157538103Y-106274071D01*
X157442569Y-106177200D01*
X157354225Y-106138973D01*
X157248817Y-106120451D01*
X157104734Y-106109257D01*
X156939786Y-106105185D01*
X156771784Y-106108034D01*
X156618537Y-106117601D01*
X156497855Y-106133681D01*
X156440606Y-106149395D01*
X156375368Y-106179183D01*
X156325244Y-106212668D01*
X156288247Y-106258114D01*
X156262390Y-106323781D01*
X156245685Y-106417932D01*
X156236144Y-106548830D01*
X156231780Y-106724735D01*
X156230605Y-106953909D01*
X156230577Y-107022421D01*
X155721173Y-107022421D01*
X155721185Y-107017066D01*
X155720062Y-106756703D01*
X155713347Y-106552869D01*
X155696187Y-106398441D01*
X155663727Y-106286293D01*
X155611111Y-106209302D01*
X155533487Y-106160341D01*
X155425999Y-106132288D01*
X155283793Y-106118016D01*
X155103463Y-106110448D01*
X154880145Y-106107932D01*
X154710004Y-106118321D01*
X154583499Y-106143604D01*
X154491090Y-106185769D01*
X154423238Y-106246804D01*
X154417999Y-106253304D01*
X154396047Y-106284921D01*
X154379634Y-106322318D01*
X154367960Y-106374618D01*
X154360226Y-106450940D01*
X154355631Y-106560406D01*
X154353378Y-106712136D01*
X154352665Y-106915252D01*
X154352632Y-106999035D01*
X153749160Y-106999035D01*
X153749101Y-106965559D01*
X153751394Y-106741611D01*
X153756344Y-106533301D01*
X153763919Y-106353602D01*
X153774089Y-106215486D01*
X153782707Y-106150645D01*
X153863530Y-105878097D01*
X153997350Y-105636491D01*
X154179423Y-105432077D01*
X154405004Y-105271103D01*
X154479950Y-105232454D01*
X154686842Y-105134210D01*
X157266424Y-105134210D01*
X157478506Y-105238630D01*
X157478506Y-105238630D01*
G37*
X157478506Y-105238630D02*
X157706237Y-105385464D01*
X157901572Y-105582962D01*
X158056664Y-105823054D01*
X158067293Y-105844258D01*
X158156266Y-106025439D01*
X158156266Y-107998872D01*
X158056792Y-108205764D01*
X157924603Y-108421425D01*
X157752567Y-108612730D01*
X157558104Y-108760422D01*
X157551504Y-108764331D01*
X157471730Y-108808265D01*
X157391906Y-108844152D01*
X157304794Y-108872772D01*
X157203153Y-108894901D01*
X157079745Y-108911317D01*
X156927331Y-108922798D01*
X156738670Y-108930121D01*
X156506525Y-108934063D01*
X156223655Y-108935404D01*
X155961295Y-108935138D01*
X155599564Y-108933040D01*
X155300155Y-108928684D01*
X155061774Y-108922026D01*
X154883121Y-108913023D01*
X154762902Y-108901632D01*
X154718672Y-108893729D01*
X154458172Y-108799064D01*
X154230173Y-108653011D01*
X154040571Y-108462016D01*
X153895258Y-108232523D01*
X153800130Y-107970975D01*
X153778582Y-107865849D01*
X153767122Y-107758292D01*
X153758476Y-107601512D01*
X153752611Y-107408482D01*
X153749496Y-107192174D01*
X153749160Y-106999035D01*
X154352632Y-106999035D01*
X154354338Y-107237364D01*
X154359247Y-107437594D01*
X154367044Y-107592942D01*
X154377414Y-107696628D01*
X154386880Y-107736833D01*
X154427195Y-107804907D01*
X154483223Y-107853984D01*
X154564952Y-107886971D01*
X154682365Y-107906771D01*
X154845448Y-107916292D01*
X155011023Y-107918451D01*
X155175386Y-107916465D01*
X155322931Y-107910432D01*
X155438682Y-107901253D01*
X155507665Y-107889829D01*
X155512325Y-107888262D01*
X155583660Y-107840294D01*
X155650557Y-107763850D01*
X155657511Y-107752986D01*
X155679446Y-107712091D01*
X155695702Y-107665122D01*
X155707117Y-107602366D01*
X155714533Y-107514113D01*
X155718790Y-107390650D01*
X155720727Y-107222267D01*
X155721173Y-107022421D01*
X156230577Y-107022421D01*
X156230577Y-107702857D01*
X156341104Y-107813384D01*
X156451631Y-107923912D01*
X156929317Y-107913647D01*
X157113104Y-107909362D01*
X157244506Y-107904383D01*
X157334784Y-107896752D01*
X157395199Y-107884509D01*
X157437012Y-107865696D01*
X157471484Y-107838352D01*
X157495168Y-107815196D01*
X157583334Y-107727009D01*
X157592149Y-107051287D01*
X157594709Y-106825119D01*
X157595268Y-106653341D01*
X157593184Y-106526701D01*
X157587812Y-106435942D01*
X157578509Y-106371811D01*
X157564632Y-106325055D01*
X157545536Y-106286418D01*
X157538103Y-106274071D01*
X157442569Y-106177200D01*
X157354225Y-106138973D01*
X157248817Y-106120451D01*
X157104734Y-106109257D01*
X156939786Y-106105185D01*
X156771784Y-106108034D01*
X156618537Y-106117601D01*
X156497855Y-106133681D01*
X156440606Y-106149395D01*
X156375368Y-106179183D01*
X156325244Y-106212668D01*
X156288247Y-106258114D01*
X156262390Y-106323781D01*
X156245685Y-106417932D01*
X156236144Y-106548830D01*
X156231780Y-106724735D01*
X156230605Y-106953909D01*
X156230577Y-107022421D01*
X155721173Y-107022421D01*
X155721185Y-107017066D01*
X155720062Y-106756703D01*
X155713347Y-106552869D01*
X155696187Y-106398441D01*
X155663727Y-106286293D01*
X155611111Y-106209302D01*
X155533487Y-106160341D01*
X155425999Y-106132288D01*
X155283793Y-106118016D01*
X155103463Y-106110448D01*
X154880145Y-106107932D01*
X154710004Y-106118321D01*
X154583499Y-106143604D01*
X154491090Y-106185769D01*
X154423238Y-106246804D01*
X154417999Y-106253304D01*
X154396047Y-106284921D01*
X154379634Y-106322318D01*
X154367960Y-106374618D01*
X154360226Y-106450940D01*
X154355631Y-106560406D01*
X154353378Y-106712136D01*
X154352665Y-106915252D01*
X154352632Y-106999035D01*
X153749160Y-106999035D01*
X153749101Y-106965559D01*
X153751394Y-106741611D01*
X153756344Y-106533301D01*
X153763919Y-106353602D01*
X153774089Y-106215486D01*
X153782707Y-106150645D01*
X153863530Y-105878097D01*
X153997350Y-105636491D01*
X154179423Y-105432077D01*
X154405004Y-105271103D01*
X154479950Y-105232454D01*
X154686842Y-105134210D01*
X157266424Y-105134210D01*
X157478506Y-105238630D01*
G36*
X173734603Y-99229837D02*
X174976817Y-99229879D01*
X176158378Y-99229953D01*
X177280792Y-99230063D01*
X178345561Y-99230214D01*
X179354188Y-99230408D01*
X180308179Y-99230651D01*
X181209035Y-99230945D01*
X182058262Y-99231295D01*
X182857362Y-99231705D01*
X183607839Y-99232179D01*
X184311196Y-99232720D01*
X184968938Y-99233332D01*
X185582568Y-99234020D01*
X186153590Y-99234787D01*
X186683507Y-99235637D01*
X187173822Y-99236574D01*
X187626040Y-99237602D01*
X188041664Y-99238725D01*
X188422198Y-99239946D01*
X188769145Y-99241270D01*
X189084009Y-99242700D01*
X189368294Y-99244241D01*
X189623503Y-99245896D01*
X189851140Y-99247669D01*
X190052708Y-99249564D01*
X190229711Y-99251585D01*
X190383653Y-99253736D01*
X190516037Y-99256021D01*
X190628367Y-99258443D01*
X190722146Y-99261007D01*
X190798879Y-99263716D01*
X190860069Y-99266575D01*
X190907219Y-99269587D01*
X190941833Y-99272756D01*
X190965415Y-99276086D01*
X190973827Y-99277885D01*
X191310598Y-99394547D01*
X191620050Y-99564386D01*
X191895182Y-99781742D01*
X192128992Y-100040955D01*
X192314478Y-100336364D01*
X192335338Y-100378508D01*
X192401232Y-100525479D01*
X192459233Y-100672277D01*
X192500895Y-100796721D01*
X192513610Y-100846742D01*
X192519570Y-100903920D01*
X192524933Y-101014879D01*
X192529706Y-101180575D01*
X192533898Y-101401961D01*
X192537516Y-101679994D01*
X192540570Y-102015626D01*
X192543067Y-102409814D01*
X192545015Y-102863511D01*
X192546423Y-103377673D01*
X192547298Y-103953254D01*
X192547649Y-104591209D01*
X192547650Y-104825439D01*
X192547638Y-105413822D01*
X192547632Y-105942127D01*
X192547449Y-106413933D01*
X192546903Y-106832822D01*
X192545812Y-107202374D01*
X192543991Y-107526169D01*
X192541256Y-107807788D01*
X192537423Y-108050811D01*
X192532308Y-108258818D01*
X192525727Y-108435390D01*
X192517496Y-108584107D01*
X192507430Y-108708551D01*
X192495347Y-108812300D01*
X192481061Y-108898936D01*
X192464389Y-108972039D01*
X192445146Y-109035189D01*
X192423149Y-109091967D01*
X192398214Y-109145953D01*
X192370156Y-109200728D01*
X192338792Y-109259872D01*
X192317631Y-109300255D01*
X192129218Y-109596126D01*
X191891961Y-109855070D01*
X191613319Y-110069864D01*
X191399437Y-110189223D01*
X191252466Y-110255117D01*
X191105668Y-110313117D01*
X190981224Y-110354779D01*
X190931203Y-110367495D01*
X190896288Y-110370161D01*
X190817706Y-110372704D01*
X190694688Y-110375123D01*
X190526466Y-110377422D01*
X190312271Y-110379601D01*
X190051335Y-110381661D01*
X189742889Y-110383604D01*
X189386166Y-110385431D01*
X188980395Y-110387143D01*
X188524810Y-110388742D01*
X188018642Y-110390230D01*
X187461122Y-110391607D01*
X186851481Y-110392874D01*
X186188952Y-110394034D01*
X185472766Y-110395088D01*
X184702154Y-110396036D01*
X183876349Y-110396881D01*
X182994580Y-110397623D01*
X182056081Y-110398264D01*
X181060083Y-110398805D01*
X180005817Y-110399248D01*
X178892514Y-110399593D01*
X177719407Y-110399843D01*
X176485727Y-110399999D01*
X175190705Y-110400061D01*
X173833574Y-110400032D01*
X172413563Y-110399913D01*
X172390476Y-110399910D01*
X171079738Y-110399745D01*
X169831183Y-110399554D01*
X168643335Y-110399333D01*
X167514717Y-110399079D01*
X166443853Y-110398786D01*
X165429266Y-110398453D01*
X164469481Y-110398074D01*
X163563020Y-110397646D01*
X162708409Y-110397165D01*
X161904169Y-110396627D01*
X161148826Y-110396029D01*
X160440903Y-110395367D01*
X159778923Y-110394637D01*
X159161410Y-110393835D01*
X158586888Y-110392957D01*
X158053880Y-110391999D01*
X157560911Y-110390958D01*
X157106504Y-110389830D01*
X156689182Y-110388611D01*
X156307470Y-110387298D01*
X155959890Y-110385885D01*
X155644967Y-110384370D01*
X155361225Y-110382749D01*
X155107187Y-110381018D01*
X154881376Y-110379173D01*
X154682317Y-110377211D01*
X154508533Y-110375127D01*
X154358548Y-110372917D01*
X154230886Y-110370579D01*
X154124069Y-110368107D01*
X154036623Y-110365499D01*
X153967070Y-110362750D01*
X153913935Y-110359857D01*
X153875740Y-110356816D01*
X153851010Y-110353623D01*
X153843359Y-110352001D01*
X153521135Y-110237429D01*
X153220126Y-110071280D01*
X152949698Y-109861045D01*
X152719217Y-109614218D01*
X152538052Y-109338291D01*
X152511784Y-109286892D01*
X152478390Y-109219963D01*
X152448413Y-109160398D01*
X152421669Y-109104594D01*
X152397976Y-109048947D01*
X152377148Y-108989856D01*
X152359002Y-108923718D01*
X152343355Y-108846929D01*
X152330023Y-108755887D01*
X152318821Y-108646989D01*
X152309566Y-108516632D01*
X152302074Y-108361213D01*
X152296162Y-108177130D01*
X152291645Y-107960779D01*
X152288341Y-107708557D01*
X152286064Y-107416863D01*
X152284631Y-107082092D01*
X152283859Y-106700643D01*
X152283565Y-106268912D01*
X152283564Y-105916880D01*
X152426819Y-105916880D01*
X152426933Y-106380958D01*
X152427404Y-106792279D01*
X152428411Y-107154475D01*
X152430134Y-107471182D01*
X152432752Y-107746032D01*
X152436445Y-107982659D01*
X152441392Y-108184697D01*
X152447772Y-108355779D01*
X152455766Y-108499540D01*
X152465552Y-108619613D01*
X152477311Y-108719632D01*
X152491221Y-108803230D01*
X152507462Y-108874041D01*
X152526213Y-108935700D01*
X152547654Y-108991839D01*
X152571965Y-109046092D01*
X152599325Y-109102094D01*
X152629913Y-109163477D01*
X152642995Y-109190151D01*
X152819840Y-109484184D01*
X153042311Y-109734568D01*
X153308492Y-109939987D01*
X153616466Y-110099125D01*
X153964314Y-110210666D01*
X154193484Y-110254509D01*
X154229736Y-110255193D01*
X154327858Y-110255853D01*
X154486059Y-110256488D01*
X154702550Y-110257098D01*
X154975541Y-110257681D01*
X155303242Y-110258237D01*
X155683863Y-110258766D01*
X156115615Y-110259266D01*
X156596708Y-110259737D01*
X157125352Y-110260177D01*
X157699757Y-110260587D01*
X158318133Y-110260966D01*
X158978691Y-110261312D01*
X159679641Y-110261625D01*
X160419193Y-110261904D01*
X161195557Y-110262149D01*
X162006943Y-110262358D01*
X162851563Y-110262532D01*
X163727625Y-110262668D01*
X164633340Y-110262768D01*
X165566918Y-110262829D01*
X166526570Y-110262851D01*
X167510505Y-110262833D01*
X168516934Y-110262774D01*
X169544068Y-110262675D01*
X170590115Y-110262533D01*
X171653288Y-110262349D01*
X172527319Y-110262168D01*
X173819413Y-110261872D01*
X175049388Y-110261572D01*
X176218782Y-110261263D01*
X177329137Y-110260940D01*
X178381991Y-110260598D01*
X179378885Y-110260233D01*
X180321357Y-110259838D01*
X181210947Y-110259411D01*
X182049196Y-110258945D01*
X182837642Y-110258435D01*
X183577826Y-110257878D01*
X184271286Y-110257267D01*
X184919564Y-110256598D01*
X185524197Y-110255867D01*
X186086727Y-110255068D01*
X186608692Y-110254197D01*
X187091633Y-110253248D01*
X187537089Y-110252217D01*
X187946599Y-110251099D01*
X188321703Y-110249888D01*
X188663941Y-110248581D01*
X188974853Y-110247172D01*
X189255978Y-110245656D01*
X189508856Y-110244029D01*
X189735026Y-110242285D01*
X189936029Y-110240420D01*
X190113403Y-110238429D01*
X190268689Y-110236306D01*
X190403426Y-110234048D01*
X190519154Y-110231649D01*
X190617412Y-110229104D01*
X190699740Y-110226409D01*
X190767678Y-110223558D01*
X190822765Y-110220547D01*
X190866542Y-110217371D01*
X190900547Y-110214024D01*
X190926320Y-110210503D01*
X190945401Y-110206802D01*
X190956642Y-110203783D01*
X191291559Y-110070758D01*
X191590742Y-109892538D01*
X191848480Y-109673813D01*
X192059065Y-109419274D01*
X192191530Y-109189272D01*
X192223069Y-109124125D01*
X192251346Y-109065863D01*
X192276538Y-109010845D01*
X192298823Y-108955433D01*
X192318379Y-108895987D01*
X192335382Y-108828867D01*
X192350011Y-108750434D01*
X192362443Y-108657048D01*
X192372856Y-108545071D01*
X192381427Y-108410862D01*
X192388334Y-108250782D01*
X192393754Y-108061192D01*
X192397865Y-107838453D01*
X192400844Y-107578924D01*
X192402869Y-107278966D01*
X192404118Y-106934941D01*
X192404768Y-106543208D01*
X192404996Y-106100128D01*
X192404981Y-105602061D01*
X192404899Y-105045369D01*
X192404887Y-104815915D01*
X192404948Y-104235420D01*
X192405011Y-103714950D01*
X192404897Y-103250871D01*
X192404426Y-102839551D01*
X192403419Y-102477354D01*
X192401696Y-102160648D01*
X192399078Y-101885798D01*
X192395385Y-101649171D01*
X192390438Y-101447133D01*
X192384058Y-101276050D01*
X192376064Y-101132289D01*
X192366278Y-101012216D01*
X192354519Y-100912198D01*
X192340609Y-100828599D01*
X192324368Y-100757788D01*
X192305617Y-100696130D01*
X192284176Y-100639991D01*
X192259865Y-100585737D01*
X192232505Y-100529736D01*
X192201917Y-100468352D01*
X192188835Y-100441678D01*
X192019620Y-100164288D01*
X191800029Y-99916736D01*
X191539195Y-99706252D01*
X191246250Y-99540066D01*
X190930326Y-99425408D01*
X190892983Y-99415864D01*
X190847883Y-99412587D01*
X190741318Y-99409426D01*
X190575467Y-99406382D01*
X190352510Y-99403453D01*
X190074629Y-99400641D01*
X189744003Y-99397945D01*
X189362812Y-99395364D01*
X188933238Y-99392900D01*
X188457459Y-99390551D01*
X187937657Y-99388318D01*
X187376011Y-99386201D01*
X186774702Y-99384199D01*
X186135910Y-99382313D01*
X185461816Y-99380542D01*
X184754600Y-99378886D01*
X184016442Y-99377346D01*
X183249521Y-99375921D01*
X182456020Y-99374611D01*
X181638117Y-99373417D01*
X180797994Y-99372337D01*
X179937830Y-99371372D01*
X179059806Y-99370522D01*
X178166102Y-99369787D01*
X177258898Y-99369166D01*
X176340374Y-99368660D01*
X175412711Y-99368269D01*
X174478090Y-99367992D01*
X173538690Y-99367830D01*
X172596691Y-99367781D01*
X171654275Y-99367848D01*
X170713621Y-99368028D01*
X169776909Y-99368322D01*
X168846320Y-99368731D01*
X167924034Y-99369254D01*
X167012231Y-99369890D01*
X166113092Y-99370640D01*
X165228797Y-99371504D01*
X164361526Y-99372482D01*
X163513460Y-99373573D01*
X162686778Y-99374778D01*
X161883661Y-99376097D01*
X161106290Y-99377528D01*
X160356844Y-99379073D01*
X159637504Y-99380732D01*
X158950451Y-99382503D01*
X158297863Y-99384388D01*
X157681923Y-99386386D01*
X157104809Y-99388496D01*
X156568702Y-99390720D01*
X156075784Y-99393056D01*
X155628232Y-99395505D01*
X155228229Y-99398067D01*
X154877955Y-99400741D01*
X154579589Y-99403528D01*
X154335312Y-99406428D01*
X154147304Y-99409440D01*
X154017746Y-99412564D01*
X153948817Y-99415800D01*
X153938847Y-99417091D01*
X153606258Y-99532004D01*
X153302158Y-99699740D01*
X153033168Y-99914841D01*
X152805914Y-100171851D01*
X152627016Y-100465312D01*
X152601667Y-100518922D01*
X152575790Y-100575323D01*
X152552599Y-100626745D01*
X152531948Y-100676804D01*
X152513688Y-100729111D01*
X152497674Y-100787283D01*
X152483758Y-100854933D01*
X152471793Y-100935675D01*
X152461632Y-101033124D01*
X152453128Y-101150892D01*
X152446135Y-101292596D01*
X152440506Y-101461848D01*
X152436092Y-101662263D01*
X152432748Y-101897455D01*
X152430327Y-102171038D01*
X152428681Y-102486626D01*
X152427664Y-102847833D01*
X152427129Y-103258274D01*
X152426928Y-103721563D01*
X152426915Y-104241313D01*
X152426943Y-104815915D01*
X152426882Y-105396410D01*
X152426819Y-105916880D01*
X152283564Y-105916880D01*
X152283563Y-105783296D01*
X152283669Y-105240193D01*
X152283710Y-104815915D01*
X152283638Y-104229628D01*
X152283544Y-103703397D01*
X152283612Y-103233619D01*
X152284024Y-102816692D01*
X152284967Y-102449012D01*
X152286623Y-102126976D01*
X152289176Y-101846983D01*
X152292810Y-101605428D01*
X152297708Y-101398709D01*
X152304055Y-101223223D01*
X152312034Y-101075368D01*
X152321829Y-100951540D01*
X152333624Y-100848137D01*
X152347602Y-100761555D01*
X152363948Y-100688193D01*
X152382845Y-100624446D01*
X152404476Y-100566713D01*
X152429027Y-100511390D01*
X152456680Y-100454874D01*
X152487619Y-100393564D01*
X152511784Y-100344937D01*
X152687470Y-100056891D01*
X152913066Y-99801913D01*
X153180753Y-99586241D01*
X153482712Y-99416113D01*
X153811125Y-99297764D01*
X153830929Y-99292592D01*
X153848804Y-99288172D01*
X153868056Y-99283965D01*
X153890236Y-99279965D01*
X153916895Y-99276167D01*
X153949583Y-99272565D01*
X153989853Y-99269155D01*
X154039254Y-99265932D01*
X154099339Y-99262889D01*
X154171659Y-99260023D01*
X154257763Y-99257327D01*
X154359204Y-99254797D01*
X154477533Y-99252426D01*
X154614300Y-99250211D01*
X154771058Y-99248145D01*
X154949356Y-99246224D01*
X155150746Y-99244442D01*
X155376779Y-99242793D01*
X155629007Y-99241274D01*
X155908980Y-99239878D01*
X156218249Y-99238601D01*
X156558366Y-99237436D01*
X156930881Y-99236380D01*
X157337346Y-99235425D01*
X157779312Y-99234569D01*
X158258330Y-99233804D01*
X158775950Y-99233126D01*
X159333725Y-99232530D01*
X159933205Y-99232010D01*
X160575942Y-99231562D01*
X161263486Y-99231179D01*
X161997388Y-99230857D01*
X162779200Y-99230591D01*
X163610473Y-99230374D01*
X164492757Y-99230203D01*
X165427605Y-99230072D01*
X166416566Y-99229975D01*
X167461193Y-99229907D01*
X168563035Y-99229863D01*
X169723645Y-99229839D01*
X170944574Y-99229827D01*
X172227372Y-99229825D01*
X172430234Y-99229825D01*
X173734603Y-99229837D01*
X173734603Y-99229837D01*
G37*
X173734603Y-99229837D02*
X174976817Y-99229879D01*
X176158378Y-99229953D01*
X177280792Y-99230063D01*
X178345561Y-99230214D01*
X179354188Y-99230408D01*
X180308179Y-99230651D01*
X181209035Y-99230945D01*
X182058262Y-99231295D01*
X182857362Y-99231705D01*
X183607839Y-99232179D01*
X184311196Y-99232720D01*
X184968938Y-99233332D01*
X185582568Y-99234020D01*
X186153590Y-99234787D01*
X186683507Y-99235637D01*
X187173822Y-99236574D01*
X187626040Y-99237602D01*
X188041664Y-99238725D01*
X188422198Y-99239946D01*
X188769145Y-99241270D01*
X189084009Y-99242700D01*
X189368294Y-99244241D01*
X189623503Y-99245896D01*
X189851140Y-99247669D01*
X190052708Y-99249564D01*
X190229711Y-99251585D01*
X190383653Y-99253736D01*
X190516037Y-99256021D01*
X190628367Y-99258443D01*
X190722146Y-99261007D01*
X190798879Y-99263716D01*
X190860069Y-99266575D01*
X190907219Y-99269587D01*
X190941833Y-99272756D01*
X190965415Y-99276086D01*
X190973827Y-99277885D01*
X191310598Y-99394547D01*
X191620050Y-99564386D01*
X191895182Y-99781742D01*
X192128992Y-100040955D01*
X192314478Y-100336364D01*
X192335338Y-100378508D01*
X192401232Y-100525479D01*
X192459233Y-100672277D01*
X192500895Y-100796721D01*
X192513610Y-100846742D01*
X192519570Y-100903920D01*
X192524933Y-101014879D01*
X192529706Y-101180575D01*
X192533898Y-101401961D01*
X192537516Y-101679994D01*
X192540570Y-102015626D01*
X192543067Y-102409814D01*
X192545015Y-102863511D01*
X192546423Y-103377673D01*
X192547298Y-103953254D01*
X192547649Y-104591209D01*
X192547650Y-104825439D01*
X192547638Y-105413822D01*
X192547632Y-105942127D01*
X192547449Y-106413933D01*
X192546903Y-106832822D01*
X192545812Y-107202374D01*
X192543991Y-107526169D01*
X192541256Y-107807788D01*
X192537423Y-108050811D01*
X192532308Y-108258818D01*
X192525727Y-108435390D01*
X192517496Y-108584107D01*
X192507430Y-108708551D01*
X192495347Y-108812300D01*
X192481061Y-108898936D01*
X192464389Y-108972039D01*
X192445146Y-109035189D01*
X192423149Y-109091967D01*
X192398214Y-109145953D01*
X192370156Y-109200728D01*
X192338792Y-109259872D01*
X192317631Y-109300255D01*
X192129218Y-109596126D01*
X191891961Y-109855070D01*
X191613319Y-110069864D01*
X191399437Y-110189223D01*
X191252466Y-110255117D01*
X191105668Y-110313117D01*
X190981224Y-110354779D01*
X190931203Y-110367495D01*
X190896288Y-110370161D01*
X190817706Y-110372704D01*
X190694688Y-110375123D01*
X190526466Y-110377422D01*
X190312271Y-110379601D01*
X190051335Y-110381661D01*
X189742889Y-110383604D01*
X189386166Y-110385431D01*
X188980395Y-110387143D01*
X188524810Y-110388742D01*
X188018642Y-110390230D01*
X187461122Y-110391607D01*
X186851481Y-110392874D01*
X186188952Y-110394034D01*
X185472766Y-110395088D01*
X184702154Y-110396036D01*
X183876349Y-110396881D01*
X182994580Y-110397623D01*
X182056081Y-110398264D01*
X181060083Y-110398805D01*
X180005817Y-110399248D01*
X178892514Y-110399593D01*
X177719407Y-110399843D01*
X176485727Y-110399999D01*
X175190705Y-110400061D01*
X173833574Y-110400032D01*
X172413563Y-110399913D01*
X172390476Y-110399910D01*
X171079738Y-110399745D01*
X169831183Y-110399554D01*
X168643335Y-110399333D01*
X167514717Y-110399079D01*
X166443853Y-110398786D01*
X165429266Y-110398453D01*
X164469481Y-110398074D01*
X163563020Y-110397646D01*
X162708409Y-110397165D01*
X161904169Y-110396627D01*
X161148826Y-110396029D01*
X160440903Y-110395367D01*
X159778923Y-110394637D01*
X159161410Y-110393835D01*
X158586888Y-110392957D01*
X158053880Y-110391999D01*
X157560911Y-110390958D01*
X157106504Y-110389830D01*
X156689182Y-110388611D01*
X156307470Y-110387298D01*
X155959890Y-110385885D01*
X155644967Y-110384370D01*
X155361225Y-110382749D01*
X155107187Y-110381018D01*
X154881376Y-110379173D01*
X154682317Y-110377211D01*
X154508533Y-110375127D01*
X154358548Y-110372917D01*
X154230886Y-110370579D01*
X154124069Y-110368107D01*
X154036623Y-110365499D01*
X153967070Y-110362750D01*
X153913935Y-110359857D01*
X153875740Y-110356816D01*
X153851010Y-110353623D01*
X153843359Y-110352001D01*
X153521135Y-110237429D01*
X153220126Y-110071280D01*
X152949698Y-109861045D01*
X152719217Y-109614218D01*
X152538052Y-109338291D01*
X152511784Y-109286892D01*
X152478390Y-109219963D01*
X152448413Y-109160398D01*
X152421669Y-109104594D01*
X152397976Y-109048947D01*
X152377148Y-108989856D01*
X152359002Y-108923718D01*
X152343355Y-108846929D01*
X152330023Y-108755887D01*
X152318821Y-108646989D01*
X152309566Y-108516632D01*
X152302074Y-108361213D01*
X152296162Y-108177130D01*
X152291645Y-107960779D01*
X152288341Y-107708557D01*
X152286064Y-107416863D01*
X152284631Y-107082092D01*
X152283859Y-106700643D01*
X152283565Y-106268912D01*
X152283564Y-105916880D01*
X152426819Y-105916880D01*
X152426933Y-106380958D01*
X152427404Y-106792279D01*
X152428411Y-107154475D01*
X152430134Y-107471182D01*
X152432752Y-107746032D01*
X152436445Y-107982659D01*
X152441392Y-108184697D01*
X152447772Y-108355779D01*
X152455766Y-108499540D01*
X152465552Y-108619613D01*
X152477311Y-108719632D01*
X152491221Y-108803230D01*
X152507462Y-108874041D01*
X152526213Y-108935700D01*
X152547654Y-108991839D01*
X152571965Y-109046092D01*
X152599325Y-109102094D01*
X152629913Y-109163477D01*
X152642995Y-109190151D01*
X152819840Y-109484184D01*
X153042311Y-109734568D01*
X153308492Y-109939987D01*
X153616466Y-110099125D01*
X153964314Y-110210666D01*
X154193484Y-110254509D01*
X154229736Y-110255193D01*
X154327858Y-110255853D01*
X154486059Y-110256488D01*
X154702550Y-110257098D01*
X154975541Y-110257681D01*
X155303242Y-110258237D01*
X155683863Y-110258766D01*
X156115615Y-110259266D01*
X156596708Y-110259737D01*
X157125352Y-110260177D01*
X157699757Y-110260587D01*
X158318133Y-110260966D01*
X158978691Y-110261312D01*
X159679641Y-110261625D01*
X160419193Y-110261904D01*
X161195557Y-110262149D01*
X162006943Y-110262358D01*
X162851563Y-110262532D01*
X163727625Y-110262668D01*
X164633340Y-110262768D01*
X165566918Y-110262829D01*
X166526570Y-110262851D01*
X167510505Y-110262833D01*
X168516934Y-110262774D01*
X169544068Y-110262675D01*
X170590115Y-110262533D01*
X171653288Y-110262349D01*
X172527319Y-110262168D01*
X173819413Y-110261872D01*
X175049388Y-110261572D01*
X176218782Y-110261263D01*
X177329137Y-110260940D01*
X178381991Y-110260598D01*
X179378885Y-110260233D01*
X180321357Y-110259838D01*
X181210947Y-110259411D01*
X182049196Y-110258945D01*
X182837642Y-110258435D01*
X183577826Y-110257878D01*
X184271286Y-110257267D01*
X184919564Y-110256598D01*
X185524197Y-110255867D01*
X186086727Y-110255068D01*
X186608692Y-110254197D01*
X187091633Y-110253248D01*
X187537089Y-110252217D01*
X187946599Y-110251099D01*
X188321703Y-110249888D01*
X188663941Y-110248581D01*
X188974853Y-110247172D01*
X189255978Y-110245656D01*
X189508856Y-110244029D01*
X189735026Y-110242285D01*
X189936029Y-110240420D01*
X190113403Y-110238429D01*
X190268689Y-110236306D01*
X190403426Y-110234048D01*
X190519154Y-110231649D01*
X190617412Y-110229104D01*
X190699740Y-110226409D01*
X190767678Y-110223558D01*
X190822765Y-110220547D01*
X190866542Y-110217371D01*
X190900547Y-110214024D01*
X190926320Y-110210503D01*
X190945401Y-110206802D01*
X190956642Y-110203783D01*
X191291559Y-110070758D01*
X191590742Y-109892538D01*
X191848480Y-109673813D01*
X192059065Y-109419274D01*
X192191530Y-109189272D01*
X192223069Y-109124125D01*
X192251346Y-109065863D01*
X192276538Y-109010845D01*
X192298823Y-108955433D01*
X192318379Y-108895987D01*
X192335382Y-108828867D01*
X192350011Y-108750434D01*
X192362443Y-108657048D01*
X192372856Y-108545071D01*
X192381427Y-108410862D01*
X192388334Y-108250782D01*
X192393754Y-108061192D01*
X192397865Y-107838453D01*
X192400844Y-107578924D01*
X192402869Y-107278966D01*
X192404118Y-106934941D01*
X192404768Y-106543208D01*
X192404996Y-106100128D01*
X192404981Y-105602061D01*
X192404899Y-105045369D01*
X192404887Y-104815915D01*
X192404948Y-104235420D01*
X192405011Y-103714950D01*
X192404897Y-103250871D01*
X192404426Y-102839551D01*
X192403419Y-102477354D01*
X192401696Y-102160648D01*
X192399078Y-101885798D01*
X192395385Y-101649171D01*
X192390438Y-101447133D01*
X192384058Y-101276050D01*
X192376064Y-101132289D01*
X192366278Y-101012216D01*
X192354519Y-100912198D01*
X192340609Y-100828599D01*
X192324368Y-100757788D01*
X192305617Y-100696130D01*
X192284176Y-100639991D01*
X192259865Y-100585737D01*
X192232505Y-100529736D01*
X192201917Y-100468352D01*
X192188835Y-100441678D01*
X192019620Y-100164288D01*
X191800029Y-99916736D01*
X191539195Y-99706252D01*
X191246250Y-99540066D01*
X190930326Y-99425408D01*
X190892983Y-99415864D01*
X190847883Y-99412587D01*
X190741318Y-99409426D01*
X190575467Y-99406382D01*
X190352510Y-99403453D01*
X190074629Y-99400641D01*
X189744003Y-99397945D01*
X189362812Y-99395364D01*
X188933238Y-99392900D01*
X188457459Y-99390551D01*
X187937657Y-99388318D01*
X187376011Y-99386201D01*
X186774702Y-99384199D01*
X186135910Y-99382313D01*
X185461816Y-99380542D01*
X184754600Y-99378886D01*
X184016442Y-99377346D01*
X183249521Y-99375921D01*
X182456020Y-99374611D01*
X181638117Y-99373417D01*
X180797994Y-99372337D01*
X179937830Y-99371372D01*
X179059806Y-99370522D01*
X178166102Y-99369787D01*
X177258898Y-99369166D01*
X176340374Y-99368660D01*
X175412711Y-99368269D01*
X174478090Y-99367992D01*
X173538690Y-99367830D01*
X172596691Y-99367781D01*
X171654275Y-99367848D01*
X170713621Y-99368028D01*
X169776909Y-99368322D01*
X168846320Y-99368731D01*
X167924034Y-99369254D01*
X167012231Y-99369890D01*
X166113092Y-99370640D01*
X165228797Y-99371504D01*
X164361526Y-99372482D01*
X163513460Y-99373573D01*
X162686778Y-99374778D01*
X161883661Y-99376097D01*
X161106290Y-99377528D01*
X160356844Y-99379073D01*
X159637504Y-99380732D01*
X158950451Y-99382503D01*
X158297863Y-99384388D01*
X157681923Y-99386386D01*
X157104809Y-99388496D01*
X156568702Y-99390720D01*
X156075784Y-99393056D01*
X155628232Y-99395505D01*
X155228229Y-99398067D01*
X154877955Y-99400741D01*
X154579589Y-99403528D01*
X154335312Y-99406428D01*
X154147304Y-99409440D01*
X154017746Y-99412564D01*
X153948817Y-99415800D01*
X153938847Y-99417091D01*
X153606258Y-99532004D01*
X153302158Y-99699740D01*
X153033168Y-99914841D01*
X152805914Y-100171851D01*
X152627016Y-100465312D01*
X152601667Y-100518922D01*
X152575790Y-100575323D01*
X152552599Y-100626745D01*
X152531948Y-100676804D01*
X152513688Y-100729111D01*
X152497674Y-100787283D01*
X152483758Y-100854933D01*
X152471793Y-100935675D01*
X152461632Y-101033124D01*
X152453128Y-101150892D01*
X152446135Y-101292596D01*
X152440506Y-101461848D01*
X152436092Y-101662263D01*
X152432748Y-101897455D01*
X152430327Y-102171038D01*
X152428681Y-102486626D01*
X152427664Y-102847833D01*
X152427129Y-103258274D01*
X152426928Y-103721563D01*
X152426915Y-104241313D01*
X152426943Y-104815915D01*
X152426882Y-105396410D01*
X152426819Y-105916880D01*
X152283564Y-105916880D01*
X152283563Y-105783296D01*
X152283669Y-105240193D01*
X152283710Y-104815915D01*
X152283638Y-104229628D01*
X152283544Y-103703397D01*
X152283612Y-103233619D01*
X152284024Y-102816692D01*
X152284967Y-102449012D01*
X152286623Y-102126976D01*
X152289176Y-101846983D01*
X152292810Y-101605428D01*
X152297708Y-101398709D01*
X152304055Y-101223223D01*
X152312034Y-101075368D01*
X152321829Y-100951540D01*
X152333624Y-100848137D01*
X152347602Y-100761555D01*
X152363948Y-100688193D01*
X152382845Y-100624446D01*
X152404476Y-100566713D01*
X152429027Y-100511390D01*
X152456680Y-100454874D01*
X152487619Y-100393564D01*
X152511784Y-100344937D01*
X152687470Y-100056891D01*
X152913066Y-99801913D01*
X153180753Y-99586241D01*
X153482712Y-99416113D01*
X153811125Y-99297764D01*
X153830929Y-99292592D01*
X153848804Y-99288172D01*
X153868056Y-99283965D01*
X153890236Y-99279965D01*
X153916895Y-99276167D01*
X153949583Y-99272565D01*
X153989853Y-99269155D01*
X154039254Y-99265932D01*
X154099339Y-99262889D01*
X154171659Y-99260023D01*
X154257763Y-99257327D01*
X154359204Y-99254797D01*
X154477533Y-99252426D01*
X154614300Y-99250211D01*
X154771058Y-99248145D01*
X154949356Y-99246224D01*
X155150746Y-99244442D01*
X155376779Y-99242793D01*
X155629007Y-99241274D01*
X155908980Y-99239878D01*
X156218249Y-99238601D01*
X156558366Y-99237436D01*
X156930881Y-99236380D01*
X157337346Y-99235425D01*
X157779312Y-99234569D01*
X158258330Y-99233804D01*
X158775950Y-99233126D01*
X159333725Y-99232530D01*
X159933205Y-99232010D01*
X160575942Y-99231562D01*
X161263486Y-99231179D01*
X161997388Y-99230857D01*
X162779200Y-99230591D01*
X163610473Y-99230374D01*
X164492757Y-99230203D01*
X165427605Y-99230072D01*
X166416566Y-99229975D01*
X167461193Y-99229907D01*
X168563035Y-99229863D01*
X169723645Y-99229839D01*
X170944574Y-99229827D01*
X172227372Y-99229825D01*
X172430234Y-99229825D01*
X173734603Y-99229837D01*
G04 #@! TO.C,*
D12*
G04 #@! TD*
M02*
